<svg xmlns="http://www.w3.org/2000/svg" xmlns:xlink="http://www.w3.org/1999/xlink" width="86" height="86.23" viewBox="0 0 86 86.23">
  <defs>
    <clipPath id="clip-path">
      <rect id="Rectangle_135407" data-name="Rectangle 135407" width="86" height="86.23" fill="none"/>
    </clipPath>
  </defs>
  <g id="Artwork_61" data-name="Artwork 61" transform="translate(43 43.115)">
    <g id="Group_15617" data-name="Group 15617" transform="translate(-43 -43.115)" clip-path="url(#clip-path)">
      <path id="Path_88552" data-name="Path 88552" d="M43,58.9l-2,2.8L28.3,52.5,65.3.7a15.7,15.7,0,0,1,3.6,21.9Z" fill="#00db96"/>
      <path id="Path_88553" data-name="Path 88553" d="M43,58.9l-2,2.8L28.3,52.5,65.3.7a15.7,15.7,0,0,1,3.6,21.9Z" fill="none" stroke="#000" stroke-miterlimit="10" stroke-width="1"/>
      <path id="Path_88554" data-name="Path 88554" d="M65.3.7,62.4,4.8A15.7,15.7,0,0,1,62,22.6L36.4,58.4,41,61.7l2-2.8L68.9,22.6A15.7,15.7,0,0,0,65.3.7"/>
      <path id="Path_88555" data-name="Path 88555" d="M65.3.7,62.4,4.8A15.7,15.7,0,0,1,62,22.6L36.4,58.4,41,61.7l2-2.8L68.9,22.6A15.7,15.7,0,0,0,65.3.7Z" fill="none" stroke="#000" stroke-miterlimit="10" stroke-width="1"/>
      <path id="Path_88556" data-name="Path 88556" d="M44.3,60.7l12.8-9.2L20.5.7a15.7,15.7,0,0,0-3.6,21.9Z" fill="#00db96"/>
      <path id="Path_88557" data-name="Path 88557" d="M44.3,60.7l12.8-9.2L20.5.7a15.7,15.7,0,0,0-3.6,21.9Z" fill="none" stroke="#000" stroke-miterlimit="10" stroke-width="1"/>
      <path id="Path_88558" data-name="Path 88558" d="M20.5.7a15.7,15.7,0,0,0-3.9,4L53.1,55.4l-8.3,5.9,12.8-9.1Z"/>
      <path id="Path_88559" data-name="Path 88559" d="M20.5.7a15.7,15.7,0,0,0-3.9,4L53.1,55.4l-8.3,5.9,12.8-9.1Z" fill="none" stroke="#000" stroke-miterlimit="10" stroke-width="1"/>
      <path id="Path_88560" data-name="Path 88560" d="M82.6,61.4a15.3,15.3,0,0,0-21.1-3.7L57,51.5,44.3,60.7l12,16.6,1.5,2A15.3,15.3,0,0,0,82.6,61.4m-7.4,16a8.6,8.6,0,1,1,1.9-12,8.6,8.6,0,0,1-1.9,12" fill="#ff0d5b"/>
      <path id="Path_88561" data-name="Path 88561" d="M82.6,61.4a15.3,15.3,0,0,0-21.1-3.7L57,51.5,44.3,60.7l12,16.6,1.5,2A15.3,15.3,0,0,0,82.6,61.4Zm-7.4,16a6.143,6.143,0,1,1,.1,0Z" fill="none" stroke="#000" stroke-miterlimit="10" stroke-width="1"/>
      <path id="Path_88562" data-name="Path 88562" d="M82.6,61.4a15.3,15.3,0,0,0-15.9-6A15.3,15.3,0,0,1,78.5,68.3a8.6,8.6,0,0,1,0,4.4A15.3,15.3,0,0,1,66.8,85.3,15.3,15.3,0,0,0,82.6,61.4"/>
      <path id="Path_88563" data-name="Path 88563" d="M82.6,61.4a15.3,15.3,0,0,0-15.9-6A15.3,15.3,0,0,1,78.5,68.3a8.6,8.6,0,0,1,0,4.4A15.3,15.3,0,0,1,66.8,85.3,15.3,15.3,0,0,0,82.6,61.4Z" fill="none" stroke="#000" stroke-miterlimit="10" stroke-width="1"/>
      <path id="Path_88564" data-name="Path 88564" d="M29,51.6l-4.5,6.2a15.3,15.3,0,1,0,3.8,21.6l1.5-2,12-16.6ZM22.8,75.5a8.6,8.6,0,1,1-1.9-12,8.6,8.6,0,0,1,1.9,12" fill="#ff0d5b"/>
      <path id="Path_88565" data-name="Path 88565" d="M29,51.6l-4.5,6.2a15.3,15.3,0,1,0,3.8,21.6l1.5-2,12-16.6ZM22.8,75.5a8.6,8.6,0,1,1-1.9-12,8.6,8.6,0,0,1,1.9,12Z" fill="none" stroke="#000" stroke-miterlimit="10" stroke-width="1"/>
      <path id="Path_88566" data-name="Path 88566" d="M37.1,57.4,25.2,73.8l-1.5,2A15.3,15.3,0,0,1,4.3,80.5a15.3,15.3,0,0,0,24-1.2l1.5-2,12-16.6Z"/>
      <path id="Path_88567" data-name="Path 88567" d="M37.1,57.4,25.2,73.8l-1.5,2A15.3,15.3,0,0,1,4.3,80.5a15.3,15.3,0,0,0,24-1.2l1.5-2,12-16.6Z" fill="none" stroke="#000" stroke-miterlimit="10" stroke-width="1"/>
      <path id="Path_88568" data-name="Path 88568" d="M43,43.1a2.6,2.6,0,1,1-2.6,2.6A2.6,2.6,0,0,1,43,43.1" fill="#8e0bfa"/>
      <path id="Path_88569" data-name="Path 88569" d="M43,43.1a2.6,2.6,0,1,1-2.6,2.6A2.6,2.6,0,0,1,43,43.1Z" fill="none" stroke="#000" stroke-miterlimit="10" stroke-width="1"/>
    </g>
  </g>
</svg>
