<svg xmlns="http://www.w3.org/2000/svg" xmlns:xlink="http://www.w3.org/1999/xlink" width="76.1" height="86.04" viewBox="0 0 76.1 86.04">
  <defs>
    <clipPath id="clip-path">
      <rect id="Rectangle_135408" data-name="Rectangle 135408" width="76.1" height="86.04" fill="none"/>
    </clipPath>
  </defs>
  <g id="Artwork_62" data-name="Artwork 62" transform="translate(38.051 43.02)">
    <g id="Group_15618" data-name="Group 15618" transform="translate(-38.05 -43.02)" clip-path="url(#clip-path)">
      <path id="Path_88570" data-name="Path 88570" d="M25.9,44.6a12,12,0,0,0-6.2,22.3,11.8,11.8,0,0,1-1.9-6.3A12.1,12.1,0,0,1,29.9,48.4a12.5,12.5,0,0,1,3.8.6V35.6l-3.8-.3h-.2v9.9a12.6,12.6,0,0,0-3.8-.6" fill="#ff3c1d"/>
      <path id="Path_88571" data-name="Path 88571" d="M25.9,44.6a12,12,0,0,0-6.2,22.3,11.8,11.8,0,0,1-1.9-6.3A12.1,12.1,0,0,1,29.9,48.4a12.5,12.5,0,0,1,3.8.6V35.6l-3.8-.3h-.2v9.9a12.6,12.6,0,0,0-3.8-.6Z" fill="none" stroke="#000" stroke-miterlimit="10" stroke-width="1"/>
      <path id="Path_88572" data-name="Path 88572" d="M55.2,4.3H51.6a20.5,20.5,0,0,0,7.8,12.4A20.7,20.7,0,0,1,55.2,4.3" fill="#ff3c1d"/>
      <path id="Path_88573" data-name="Path 88573" d="M55.2,4.3H51.6a20.5,20.5,0,0,0,7.8,12.4A20.7,20.7,0,0,1,55.2,4.3Z" fill="none" stroke="#000" stroke-miterlimit="10" stroke-width="1"/>
      <path id="Path_88574" data-name="Path 88574" d="M75.6,24.8a20.8,20.8,0,0,1-3.8-.4L51.2,27,29.7,81.4l-3.8.3a25.3,25.3,0,0,1-15.6-5.3L12,78.2a25.4,25.4,0,0,0,18,7.4l3.8-.3a25.3,25.3,0,0,0,14.1-7.1,24.8,24.8,0,0,0,7.4-17.6l-.2-29.7a32.8,32.8,0,0,0,7.4,4.3,33.5,33.5,0,0,0,13.1,2.7Z" fill="#ff3c1d"/>
      <path id="Path_88575" data-name="Path 88575" d="M75.6,24.8a20.8,20.8,0,0,1-3.8-.4L51.2,27,29.7,81.4l-3.8.3a25.3,25.3,0,0,1-15.6-5.3L12,78.2a25.4,25.4,0,0,0,18,7.4l3.8-.3a25.3,25.3,0,0,0,14.1-7.1,24.8,24.8,0,0,0,7.4-17.6l-.2-29.7a32.8,32.8,0,0,0,7.4,4.3,33.5,33.5,0,0,0,13.1,2.7Z" fill="none" stroke="#000" stroke-miterlimit="10" stroke-width="1"/>
      <path id="Path_88576" data-name="Path 88576" d="M11.9,42.7a25.4,25.4,0,0,1,17.8-7.4V31.8l-3.8-.3a25.4,25.4,0,0,0-18,7.4,24.9,24.9,0,0,0,0,35.5l2.4,2.1a24.8,24.8,0,0,1-5.8-16,25.1,25.1,0,0,1,7.4-17.7" fill="#00db96"/>
      <path id="Path_88577" data-name="Path 88577" d="M11.9,42.7a25.4,25.4,0,0,1,17.8-7.4V31.8l-3.8-.3a25.4,25.4,0,0,0-18,7.4,24.9,24.9,0,0,0,0,35.5l2.4,2.1a24.8,24.8,0,0,1-5.8-16,25.1,25.1,0,0,1,7.4-17.8Z" fill="none" stroke="#000" stroke-miterlimit="10" stroke-width="1"/>
      <path id="Path_88578" data-name="Path 88578" d="M71.7,24.4V20.8h0a20.4,20.4,0,0,1-12.3-4.1,20.4,20.4,0,0,0,12.4,7.7" fill="#00db96"/>
      <path id="Path_88579" data-name="Path 88579" d="M71.7,24.4V20.8h0a20.4,20.4,0,0,1-12.3-4.1,20.4,20.4,0,0,0,12.3,7.7Z" fill="none" stroke="#000" stroke-miterlimit="10" stroke-width="1"/>
      <path id="Path_88580" data-name="Path 88580" d="M29.2,72.4a12.5,12.5,0,0,0,4.5-.6A12,12,0,0,0,42,60.4V4.3h9.5A20.8,20.8,0,0,1,51.2.5H38.1V56.6A12,12,0,0,1,29.7,68a11.8,11.8,0,0,1-4.5.6,12.2,12.2,0,0,1-5.5-1.7,12.2,12.2,0,0,0,9.5,5.5" fill="#00db96"/>
      <path id="Path_88581" data-name="Path 88581" d="M29.2,72.4a12.5,12.5,0,0,0,4.5-.6A12,12,0,0,0,42,60.4V4.3h9.5A20.8,20.8,0,0,1,51.2.5H38.1V56.6A12,12,0,0,1,29.7,68a11.8,11.8,0,0,1-4.5.6,12.2,12.2,0,0,1-5.5-1.7,12.2,12.2,0,0,0,9.5,5.5Z" fill="none" stroke="#000" stroke-miterlimit="10" stroke-width="1"/>
      <path id="Path_88582" data-name="Path 88582" d="M29.7,81.4a25.3,25.3,0,0,0,14.1-7.1,24.8,24.8,0,0,0,7.4-17.6V27a32.7,32.7,0,0,0,7.4,4.3A33.5,33.5,0,0,0,71.7,34V24.4a20.4,20.4,0,0,1-12.4-7.7A20.4,20.4,0,0,1,51.6,4.3H42.1V60.4a12.125,12.125,0,0,1-12.8,12,12.2,12.2,0,0,1-9.5-5.5A12,12,0,0,1,26,44.6a12.5,12.5,0,0,1,3.8.6V35.3A25.4,25.4,0,0,0,12,42.7,25,25,0,0,0,4.5,60.4a24.7,24.7,0,0,0,5.8,16,25.4,25.4,0,0,0,15.6,5.3,24.4,24.4,0,0,0,3.8-.3"/>
      <path id="Path_88583" data-name="Path 88583" d="M29.7,81.4a25.3,25.3,0,0,0,14.1-7.1,24.8,24.8,0,0,0,7.4-17.6V27a32.7,32.7,0,0,0,7.4,4.3A33.5,33.5,0,0,0,71.7,34V24.4a20.4,20.4,0,0,1-12.4-7.7A20.4,20.4,0,0,1,51.6,4.3H42.1V60.4a12.125,12.125,0,0,1-12.8,12,12.2,12.2,0,0,1-9.5-5.5A12,12,0,0,1,26,44.6a12.5,12.5,0,0,1,3.8.6V35.3A25.4,25.4,0,0,0,12,42.7,25,25,0,0,0,4.5,60.4a24.7,24.7,0,0,0,5.8,16,25.4,25.4,0,0,0,15.6,5.3,24.4,24.4,0,0,0,3.8-.3Z" fill="none" stroke="#000" stroke-miterlimit="10" stroke-width="1"/>
    </g>
  </g>
</svg>
