<svg xmlns="http://www.w3.org/2000/svg" xmlns:xlink="http://www.w3.org/1999/xlink" width="86" height="86.04" viewBox="0 0 86 86.04">
  <defs>
    <clipPath id="clip-path">
      <rect id="Rectangle_135406" data-name="Rectangle 135406" width="86" height="86.04" fill="none"/>
    </clipPath>
  </defs>
  <g id="Artwork_60" data-name="Artwork 60" transform="translate(43 43.02)">
    <g id="Group_15616" data-name="Group 15616" transform="translate(-43 -43.02)" clip-path="url(#clip-path)">
      <path id="Path_88519" data-name="Path 88519" d="M43,59.6,58.8,48.1l14.4,4.8,3.7,15.8a43.4,43.4,0,0,1-3.8,4.4A42.4,42.4,0,0,1,56.9,83.2L43,74.7Z" fill="#8e0bfa"/>
      <path id="Path_88520" data-name="Path 88520" d="M43,59.6,58.8,48.1l14.4,4.8,3.7,15.8a43.4,43.4,0,0,1-3.8,4.4A42.4,42.4,0,0,1,56.9,83.2L43,74.7Z" fill="none" stroke="#000" stroke-miterlimit="10" stroke-width="1"/>
      <path id="Path_88521" data-name="Path 88521" d="M27.2,48.1,43,59.6V74.7L29.2,83.2A42.4,42.4,0,0,1,13,73.1a43.2,43.2,0,0,1-3.8-4.4l3.7-15.9Z" fill="#fdfb76"/>
      <path id="Path_88522" data-name="Path 88522" d="M27.2,48.1,43,59.6V74.7L29.2,83.2A42.4,42.4,0,0,1,13,73.1a43.2,43.2,0,0,1-3.8-4.4l3.7-15.9Z" fill="none" stroke="#000" stroke-miterlimit="10" stroke-width="1"/>
      <path id="Path_88523" data-name="Path 88523" d="M33.3,29.6l-6,18.6L12.9,52.8.5,42.1A42.2,42.2,0,0,1,8.2,18.6l16.3-1.2Z" fill="#fdfb76"/>
      <path id="Path_88524" data-name="Path 88524" d="M33.3,29.6l-6,18.6L12.9,52.8.5,42.1A42.2,42.2,0,0,1,8.2,18.6l16.3-1.2Z" fill="none" stroke="#000" stroke-miterlimit="10" stroke-width="1"/>
      <path id="Path_88525" data-name="Path 88525" d="M73.2,52.9,58.8,48.1l-6-18.6,8.9-12.2,16.2,1.2A42.2,42.2,0,0,1,85.6,42Z" fill="#fdfb76"/>
      <path id="Path_88526" data-name="Path 88526" d="M73.2,52.9,58.8,48.1l-6-18.6,8.9-12.2,16.2,1.2A42.2,42.2,0,0,1,85.6,42Z" fill="none" stroke="#000" stroke-miterlimit="10" stroke-width="1"/>
      <path id="Path_88527" data-name="Path 88527" d="M9.2,68.7A42.2,42.2,0,0,1,.5,43c0-.3,0-.6,0-1L12.9,52.8Z" fill="#8e0bfa"/>
      <path id="Path_88528" data-name="Path 88528" d="M9.2,68.7A42.2,42.2,0,0,1,.5,43c0-.3,0-.6,0-1L12.9,52.8Z" fill="none" stroke="#000" stroke-miterlimit="10" stroke-width="1"/>
      <path id="Path_88529" data-name="Path 88529" d="M8.2,18.6A43,43,0,0,1,13,13,42.3,42.3,0,0,1,30.7,2.3l-6.2,15Z" fill="#8e0bfa"/>
      <path id="Path_88530" data-name="Path 88530" d="M8.2,18.6A43,43,0,0,1,13,13,42.3,42.3,0,0,1,30.7,2.3l-6.2,15Z" fill="none" stroke="#000" stroke-miterlimit="10" stroke-width="1"/>
      <path id="Path_88531" data-name="Path 88531" d="M77.9,18.6,61.7,17.4,55.4,2.3A42.3,42.3,0,0,1,73.1,13a43,43,0,0,1,4.8,5.7" fill="#8e0bfa"/>
      <path id="Path_88532" data-name="Path 88532" d="M77.9,18.6,61.7,17.4,55.4,2.3A42.3,42.3,0,0,1,73.1,13a43,43,0,0,1,4.8,5.6Z" fill="none" stroke="#000" stroke-miterlimit="10" stroke-width="1"/>
      <path id="Path_88533" data-name="Path 88533" d="M85.5,42.2v.9a42.2,42.2,0,0,1-8.6,25.7L73.2,52.9Z" fill="#8e0bfa"/>
      <path id="Path_88534" data-name="Path 88534" d="M85.5,42.2v.9a42.2,42.2,0,0,1-8.6,25.7L73.2,52.9Z" fill="none" stroke="#000" stroke-miterlimit="10" stroke-width="1"/>
      <path id="Path_88535" data-name="Path 88535" d="M43,59.6,58.8,48.1l14.4,4.8,3.7,15.8a43.4,43.4,0,0,1-3.8,4.4A42.4,42.4,0,0,1,56.9,83.2L43,74.7Z" fill="#fdfb76"/>
      <path id="Path_88536" data-name="Path 88536" d="M43,59.6,58.8,48.1l14.4,4.8,3.7,15.8a43.4,43.4,0,0,1-3.8,4.4A42.4,42.4,0,0,1,56.9,83.2L43,74.7Z" fill="none" stroke="#000" stroke-miterlimit="10" stroke-width="1"/>
      <path id="Path_88537" data-name="Path 88537" d="M73.2,52.9,58.8,48.1l-6-18.6,8.9-12.2,16.2,1.2A42.2,42.2,0,0,1,85.6,42Z" fill="#fdfb76"/>
      <path id="Path_88538" data-name="Path 88538" d="M73.2,52.9,58.8,48.1l-6-18.6,8.9-12.2,16.2,1.2A42.2,42.2,0,0,1,85.6,42Z" fill="none" stroke="#000" stroke-miterlimit="10" stroke-width="1"/>
      <path id="Path_88539" data-name="Path 88539" d="M77.9,18.6,61.7,17.4,55.4,2.3A42.3,42.3,0,0,1,73.1,13a43,43,0,0,1,4.8,5.7" fill="#8e0bfa"/>
      <path id="Path_88540" data-name="Path 88540" d="M77.9,18.6,61.7,17.4,55.4,2.3A42.3,42.3,0,0,1,73.1,13a43,43,0,0,1,4.8,5.6Z" fill="none" stroke="#000" stroke-miterlimit="10" stroke-width="1"/>
      <path id="Path_88541" data-name="Path 88541" d="M85.5,42.2v.9a42.2,42.2,0,0,1-8.6,25.7L73.2,52.9Z" fill="#8e0bfa"/>
      <path id="Path_88542" data-name="Path 88542" d="M85.5,42.2v.9a42.2,42.2,0,0,1-8.6,25.7L73.2,52.9Z" fill="none" stroke="#000" stroke-miterlimit="10" stroke-width="1"/>
      <path id="Path_88543" data-name="Path 88543" d="M48.6,85.2l2.9-.5.7-.2,2.5-.6,2.1-.7L43,74.7,29.2,83.2A42.6,42.6,0,0,0,43,85.5a43.1,43.1,0,0,0,5.6-.4" fill="#8e0bfa"/>
      <path id="Path_88544" data-name="Path 88544" d="M48.6,85.2l2.9-.5.7-.2,2.5-.6,2.1-.7L43,74.7,29.2,83.2A42.6,42.6,0,0,0,43,85.5a43.1,43.1,0,0,0,5.6-.3Z" fill="none" stroke="#000" stroke-miterlimit="10" stroke-width="1"/>
      <path id="Path_88545" data-name="Path 88545" d="M61.7,17.4,55.4,2.3a43,43,0,0,0-24.7,0l-6.2,15,8.8,12.3H52.8Z" fill="#fdfb76"/>
      <path id="Path_88546" data-name="Path 88546" d="M61.7,17.4,55.4,2.3a43,43,0,0,0-24.7,0l-6.2,15,8.8,12.3H52.8Z" fill="none" stroke="#000" stroke-miterlimit="10" stroke-width="1"/>
      <path id="Path_88547" data-name="Path 88547" d="M52.8,29.6H33.3L27.2,48.1,43,59.6,58.8,48.1Z" fill="#8e0bfa"/>
      <path id="Path_88548" data-name="Path 88548" d="M52.8,29.6H33.3L27.2,48.1,43,59.6,58.8,48.1Z" fill="none" stroke="#000" stroke-miterlimit="10" stroke-width="1"/>
      <path id="Path_88549" data-name="Path 88549" d="M69.5,9.8A42.5,42.5,0,0,1,9.8,69.5,42.5,42.5,0,1,0,69.5,9.8"/>
      <path id="Path_88550" data-name="Path 88550" d="M69.5,9.8A42.5,42.5,0,0,1,9.8,69.5,42.5,42.5,0,1,0,69.5,9.8Z" fill="none" stroke="#000" stroke-miterlimit="10" stroke-width="1"/>
      <path id="Path_88551" data-name="Path 88551" d="M20,20.2A33.5,33.5,0,0,1,43.1,11" fill="none" stroke="#fcf7eb" stroke-linecap="round" stroke-miterlimit="10" stroke-width="10"/>
    </g>
  </g>
</svg>
