<svg xmlns="http://www.w3.org/2000/svg" xmlns:xlink="http://www.w3.org/1999/xlink" width="444.156" height="492.196" viewBox="0 0 444.156 492.196">
  <defs>
    <clipPath id="clip-path">
      <rect id="Rectangle_134782" data-name="Rectangle 134782" width="444.156" height="492.197" fill="none"/>
    </clipPath>
  </defs>
  <g id="Artwork_50" data-name="Artwork 50" transform="translate(222.078 246.098)">
    <g id="Artwork_50-2" data-name="Artwork 50" transform="translate(-222.078 -246.098)">
      <path id="Path_83805" data-name="Path 83805" d="M270.506,28.986l-13,13-12.91-13L257.51,1.2Z" transform="translate(-35.475 -0.174)" fill="#fdfb76"/>
      <g id="Group_15029" data-name="Group 15029" clip-path="url(#clip-path)">
        <path id="Path_83806" data-name="Path 83806" d="M270.506,28.986l-13,13-12.91-13L257.51,1.2Z" transform="translate(-35.475 -0.174)" fill="none" stroke="#231f20" stroke-miterlimit="10" stroke-width="0.855"/>
      </g>
      <path id="Path_83807" data-name="Path 83807" d="M259.033,1.2,257.75,3.936l10,21.46L255.1,38.049l3.933,3.933,13-13Z" transform="translate(-36.998 -0.174)"/>
      <g id="Group_15030" data-name="Group 15030" clip-path="url(#clip-path)">
        <path id="Path_83808" data-name="Path 83808" d="M259.033,1.2,257.75,3.936l10,21.46L255.1,38.049l3.933,3.933,13-13Z" transform="translate(-36.998 -0.174)" fill="none" stroke="#231f20" stroke-miterlimit="10" stroke-width="0.855"/>
        <path id="Path_83809" data-name="Path 83809" d="M268.532,51.616A10.516,10.516,0,1,1,258.016,41.1a10.516,10.516,0,0,1,10.516,10.516" transform="translate(-35.895 -5.961)" fill="#fdfb76"/>
        <path id="Path_83810" data-name="Path 83810" d="M268.532,51.616A10.516,10.516,0,1,1,258.016,41.1,10.516,10.516,0,0,1,268.532,51.616Z" transform="translate(-35.895 -5.961)" fill="none" stroke="#231f20" stroke-miterlimit="10" stroke-width="0.855"/>
        <path id="Path_83811" data-name="Path 83811" d="M266.038,45.5A10.516,10.516,0,0,1,247.4,52v.256A10.516,10.516,0,1,0,266.038,45.5" transform="translate(-35.881 -6.599)"/>
        <path id="Path_83812" data-name="Path 83812" d="M266.038,45.5A10.516,10.516,0,0,1,247.4,52v.256A10.516,10.516,0,1,0,266.038,45.5Z" transform="translate(-35.881 -6.599)" fill="none" stroke="#231f20" stroke-miterlimit="10" stroke-width="0.855"/>
        <path id="Path_83813" data-name="Path 83813" d="M234.285,146.618H144.77A25.051,25.051,0,0,0,103.3,172.694a25.136,25.136,0,0,0-4.7,46.938,30.864,30.864,0,0,0,42.235,44.886,45.313,45.313,0,0,0,82.761-10h10.6Z" transform="translate(-12.25 -20.168)" fill="#8e0bfa"/>
        <path id="Path_83814" data-name="Path 83814" d="M234.285,146.618H144.77A25.051,25.051,0,0,0,103.3,172.694a25.136,25.136,0,0,0-4.7,46.938,30.864,30.864,0,0,0,42.235,44.886,45.313,45.313,0,0,0,82.761-10h10.6Z" transform="translate(-12.25 -20.168)" fill="none" stroke="#231f20" stroke-miterlimit="10" stroke-width="0.855"/>
        <path id="Path_83815" data-name="Path 83815" d="M259.7,146.618h89.515a25.051,25.051,0,0,1,41.466,26.077,25.136,25.136,0,0,1,4.7,46.938,30.864,30.864,0,0,1-42.235,44.886,45.313,45.313,0,0,1-82.761-10H259.7Z" transform="translate(-37.665 -20.168)" fill="#8e0bfa"/>
        <path id="Path_83816" data-name="Path 83816" d="M259.7,146.618h89.515a25.051,25.051,0,0,1,41.466,26.077,25.136,25.136,0,0,1,4.7,46.938,30.864,30.864,0,0,1-42.235,44.886,45.313,45.313,0,0,1-82.761-10H259.7Z" transform="translate(-37.665 -20.168)" fill="none" stroke="#231f20" stroke-miterlimit="10" stroke-width="0.855"/>
        <path id="Path_83817" data-name="Path 83817" d="M405.584,170.85A25.051,25.051,0,0,0,393.7,139.9a25.051,25.051,0,0,1,16.928,32.831,24.967,24.967,0,0,0-4.959-1.881" transform="translate(-57.099 -20.29)"/>
        <path id="Path_83818" data-name="Path 83818" d="M405.584,170.85A25.051,25.051,0,0,0,393.7,139.9a25.051,25.051,0,0,1,16.928,32.831,24.964,24.964,0,0,0-5.044-1.881Z" transform="translate(-57.099 -20.29)" fill="none" stroke="#231f20" stroke-linejoin="round" stroke-width="0.855"/>
        <path id="Path_83819" data-name="Path 83819" d="M386.635,276.465a30.864,30.864,0,0,0,21.289-53.094,25.136,25.136,0,0,0,.513-44.971,25.136,25.136,0,0,1,4.446,46.852A30.864,30.864,0,0,1,378,275.268a30.781,30.781,0,0,0,8.635,1.2" transform="translate(-54.822 -25.874)"/>
        <path id="Path_83820" data-name="Path 83820" d="M386.635,276.465a30.864,30.864,0,0,0,21.289-53.094,25.136,25.136,0,0,0,.513-44.971,25.136,25.136,0,0,1,4.446,46.852A30.864,30.864,0,0,1,378,275.268a30.781,30.781,0,0,0,8.635,1.2Z" transform="translate(-54.822 -25.874)" fill="none" stroke="#231f20" stroke-linejoin="round" stroke-width="0.855"/>
        <path id="Path_83821" data-name="Path 83821" d="M265.843,271.8l.6,1.966H260.2V271.8Z" transform="translate(-37.737 -39.42)"/>
        <path id="Path_83822" data-name="Path 83822" d="M265.843,271.8l.6,1.966H260.2V271.8Z" transform="translate(-37.737 -39.42)" fill="none" stroke="#231f20" stroke-linejoin="round" stroke-width="0.855"/>
        <path id="Path_83823" data-name="Path 83823" d="M315.322,306.242A45.313,45.313,0,0,0,354.565,283.5a31.033,31.033,0,0,0,4.189,3.249,45.313,45.313,0,0,1-57.454,17.27,45.227,45.227,0,0,0,13.936,2.223" transform="translate(-43.698 -41.117)"/>
        <path id="Path_83824" data-name="Path 83824" d="M315.322,306.242A45.313,45.313,0,0,0,354.565,283.5a31.033,31.033,0,0,0,4.189,3.249,45.313,45.313,0,0,1-57.454,17.27A45.23,45.23,0,0,0,315.322,306.242Z" transform="translate(-43.698 -41.117)" fill="none" stroke="#231f20" stroke-linejoin="round" stroke-width="0.855"/>
        <path id="Path_83825" data-name="Path 83825" d="M111.182,170.85a25.051,25.051,0,0,1,11.884-30.95,25.051,25.051,0,0,0-16.928,32.831,24.966,24.966,0,0,1,4.959-1.881" transform="translate(-15.169 -20.29)"/>
        <path id="Path_83826" data-name="Path 83826" d="M111.182,170.85a25.051,25.051,0,0,1,11.884-30.95,25.051,25.051,0,0,0-16.928,32.831,24.966,24.966,0,0,1,5.044-1.881Z" transform="translate(-15.169 -20.29)" fill="none" stroke="#231f20" stroke-linejoin="round" stroke-width="0.855"/>
        <path id="Path_83827" data-name="Path 83827" d="M124.953,276.465a30.864,30.864,0,0,1-21.289-53.094,25.136,25.136,0,0,1-.513-44.971,25.136,25.136,0,0,0-4.446,46.852,30.864,30.864,0,0,0,34.883,49.93,30.778,30.778,0,0,1-8.635,1.2" transform="translate(-12.268 -25.874)"/>
        <path id="Path_83828" data-name="Path 83828" d="M124.953,276.465a30.864,30.864,0,0,1-21.289-53.094,25.136,25.136,0,0,1-.513-44.971,25.136,25.136,0,0,0-4.446,46.852,30.864,30.864,0,0,0,34.883,49.93,30.779,30.779,0,0,1-8.635,1.282Z" transform="translate(-12.268 -25.874)" fill="none" stroke="#231f20" stroke-linejoin="round" stroke-width="0.855"/>
        <path id="Path_83829" data-name="Path 83829" d="M253,271.8l-.6,1.966h6.241V271.8Z" transform="translate(-36.606 -39.42)"/>
        <path id="Path_83830" data-name="Path 83830" d="M253,271.8l-.6,1.966h6.241V271.8Z" transform="translate(-36.606 -39.42)" fill="none" stroke="#231f20" stroke-linejoin="round" stroke-width="0.855"/>
        <path id="Path_83831" data-name="Path 83831" d="M194.832,306.242A45.313,45.313,0,0,1,155.589,283.5a31.12,31.12,0,0,1-4.189,3.249,45.313,45.313,0,0,0,57.454,17.27,45.228,45.228,0,0,1-13.936,2.223" transform="translate(-21.958 -41.117)"/>
        <path id="Path_83832" data-name="Path 83832" d="M194.832,306.242A45.313,45.313,0,0,1,155.589,283.5a31.12,31.12,0,0,1-4.189,3.249,45.313,45.313,0,0,0,57.454,17.27A45.228,45.228,0,0,1,194.832,306.242Z" transform="translate(-21.958 -41.117)" fill="none" stroke="#231f20" stroke-linejoin="round" stroke-width="0.855"/>
        <path id="Path_83833" data-name="Path 83833" d="M177.759,169.358a20.781,20.781,0,0,0,0-2.65V148.326H163.481a20.776,20.776,0,1,0,14.278,21.118h0Z" transform="translate(-19.761 -21.363)" fill="#ff3c1d"/>
        <path id="Path_83834" data-name="Path 83834" d="M177.759,169.358a20.781,20.781,0,0,0,0-2.65V148.326H163.481a20.776,20.776,0,1,0,14.278,21.118h0Z" transform="translate(-19.761 -21.363)" fill="none" stroke="#231f20" stroke-miterlimit="10" stroke-width="0.855"/>
        <path id="Path_83835" data-name="Path 83835" d="M357.77,147.376a20.69,20.69,0,0,0-8.208.684H334.6v19.921h0a20.776,20.776,0,1,0,23.084-20.69" transform="translate(-48.528 -21.354)" fill="#ff3c1d"/>
        <path id="Path_83836" data-name="Path 83836" d="M357.77,147.376a20.69,20.69,0,0,0-8.208.684H334.6v19.921h0a20.776,20.776,0,1,0,23.084-20.69Z" transform="translate(-48.528 -21.354)" fill="none" stroke="#231f20" stroke-miterlimit="10" stroke-width="0.855"/>
        <path id="Path_83837" data-name="Path 83837" d="M177.774,165.8h0a20.776,20.776,0,0,1-41.295,1.8,20.774,20.774,0,1,0,41.3,4.532h0a20.775,20.775,0,0,0,0-2.65Z" transform="translate(-19.775 -24.046)"/>
        <path id="Path_83838" data-name="Path 83838" d="M177.774,165.8h0a20.776,20.776,0,0,1-41.295,1.8,20.774,20.774,0,1,0,41.3,4.532h0a20.775,20.775,0,0,0,0-2.65Z" transform="translate(-19.775 -24.046)" fill="none" stroke="#231f20" stroke-miterlimit="10" stroke-width="0.855"/>
        <path id="Path_83839" data-name="Path 83839" d="M353.067,184.79A20.776,20.776,0,0,1,334.6,164.1h0v6.327h0a20.776,20.776,0,1,0,41.38-3.163,20.776,20.776,0,0,1-22.828,17.527" transform="translate(-48.528 -23.8)"/>
        <path id="Path_83840" data-name="Path 83840" d="M353.067,184.79A20.776,20.776,0,0,1,334.6,164.1h0v6.327h0a20.776,20.776,0,1,0,41.38-3.163A20.776,20.776,0,0,1,353.067,184.79Z" transform="translate(-48.528 -23.8)" fill="none" stroke="#231f20" stroke-miterlimit="10" stroke-width="0.855"/>
        <path id="Path_83841" data-name="Path 83841" d="M323.594,163.845c0,30.437-34.455,55.145-76.947,55.145S169.7,194.282,169.7,163.845,204.155,108.7,246.647,108.7s76.947,24.709,76.947,55.145" transform="translate(-24.612 -15.765)" fill="#ff3c1d"/>
        <ellipse id="Ellipse_752" data-name="Ellipse 752" cx="76.947" cy="55.145" rx="76.947" ry="55.145" transform="translate(145.088 92.935)" fill="none" stroke="#231f20" stroke-miterlimit="10" stroke-width="0.855"/>
        <path id="Path_83842" data-name="Path 83842" d="M246.633,221.482c-41.038,0-74.553-23-76.862-51.982-.086,1.026-.171,2.137-.171,3.163,0,30.437,34.455,55.145,76.947,55.145s76.947-24.709,76.947-55.145c0-1.026-.086-2.137-.086-3.163-2.308,28.983-35.823,51.982-76.862,51.982" transform="translate(-24.597 -24.583)"/>
        <path id="Path_83843" data-name="Path 83843" d="M246.633,221.482c-41.038,0-74.553-23-76.862-51.982-.086,1.026-.171,2.137-.171,3.163,0,30.437,34.455,55.145,76.947,55.145s76.947-24.709,76.947-55.145c0-1.026-.086-2.137-.086-3.163C321.186,198.483,287.671,221.482,246.633,221.482Z" transform="translate(-24.597 -24.583)" fill="none" stroke="#231f20" stroke-miterlimit="10" stroke-width="0.855"/>
        <path id="Path_83844" data-name="Path 83844" d="M263.818,156.659a4.959,4.959,0,1,1-4.959-4.959,4.959,4.959,0,0,1,4.959,4.959" transform="translate(-36.824 -22.001)"/>
        <circle id="Ellipse_753" data-name="Ellipse 753" cx="4.959" cy="4.959" r="4.959" transform="translate(215.559 131.999) rotate(-22.5)" fill="none" stroke="#231f20" stroke-miterlimit="10" stroke-width="0.855"/>
        <path id="Path_83845" data-name="Path 83845" d="M280.751,202.277a12.824,12.824,0,0,1-4.531-.855,66.345,66.345,0,0,0-46.767,0A12.839,12.839,0,0,1,220.39,177.4a92,92,0,0,1,64.892,0,12.825,12.825,0,0,1-4.531,24.794" transform="translate(-30.758 -24.871)" fill="#8e0bfa"/>
        <path id="Path_83846" data-name="Path 83846" d="M280.751,202.277a12.824,12.824,0,0,1-4.531-.855,66.345,66.345,0,0,0-46.767,0A12.839,12.839,0,0,1,220.39,177.4a92,92,0,0,1,64.892,0,12.825,12.825,0,0,1-4.531,24.794Z" transform="translate(-30.758 -24.871)" fill="none" stroke="#231f20" stroke-miterlimit="10" stroke-width="0.855"/>
        <path id="Path_83847" data-name="Path 83847" d="M282.929,191.637a79.17,79.17,0,0,0-55.829,0" transform="translate(-32.937 -27.056)" fill="none" stroke="#231f20" stroke-linecap="round" stroke-miterlimit="10" stroke-width="0.855"/>
        <path id="Path_83848" data-name="Path 83848" d="M143.713,160.473a2.565,2.565,0,0,1-1.881-.513l-6.925-5.557a2.565,2.565,0,1,1,3.163-4.018L145,155.942a2.565,2.565,0,0,1-1.282,4.531" transform="translate(-19.4 -21.712)" fill="#fdfb76"/>
        <path id="Path_83849" data-name="Path 83849" d="M143.713,160.473a2.565,2.565,0,0,1-1.881-.513l-6.925-5.557a2.565,2.565,0,1,1,3.163-4.018L145,155.942a2.565,2.565,0,0,1-1.282,4.531Z" transform="translate(-19.4 -21.712)" fill="none" stroke="#231f20" stroke-miterlimit="10" stroke-width="0.855"/>
        <path id="Path_83850" data-name="Path 83850" d="M148.912,155.055a2.565,2.565,0,0,1-1.624-1.111l-4.873-7.438a2.565,2.565,0,1,1,4.275-2.821l4.788,7.438a2.565,2.565,0,0,1-2.65,3.933" transform="translate(-20.581 -20.654)" fill="#fdfb76"/>
        <path id="Path_83851" data-name="Path 83851" d="M148.912,155.055a2.565,2.565,0,0,1-1.624-1.111l-4.873-7.438a2.565,2.565,0,1,1,4.275-2.821l4.788,7.438a2.565,2.565,0,0,1-2.65,3.933Z" transform="translate(-20.581 -20.654)" fill="none" stroke="#231f20" stroke-miterlimit="10" stroke-width="0.855"/>
        <path id="Path_83852" data-name="Path 83852" d="M299.826,92.4h0c-3.676-19.664-27.188-34.8-55.573-34.8s-51.9,15.133-55.573,34.8c-4.018,24.538-18.724,42.663-36.08,42.748H335.905c-17.441,0-32.061-18.211-36.08-42.748" transform="translate(-22.132 -8.354)" fill="#00db96"/>
        <path id="Path_83853" data-name="Path 83853" d="M299.826,92.4h0c-3.676-19.664-27.188-34.8-55.573-34.8s-51.9,15.133-55.573,34.8c-4.018,24.538-18.724,42.663-36.08,42.748H335.905C318.464,135.146,303.844,116.935,299.826,92.4Z" transform="translate(-22.132 -8.354)" fill="none" stroke="#231f20" stroke-miterlimit="10" stroke-width="0.855"/>
        <path id="Path_83854" data-name="Path 83854" d="M319.033,128.99a38.989,38.989,0,0,1-5.3-4.959c-6.84-7.695-11.8-18.809-13.936-31.634-1.624-8.806-7.267-16.672-15.475-22.657C274.147,62.217,259.87,57.6,244.138,57.6h-3.42c26.846,1.2,48.648,15.9,52.153,34.712,2.65,15.988,9.747,29.325,19.237,36.593H169.243A27.444,27.444,0,0,1,152.4,135.06H335.876a27.359,27.359,0,0,1-16.843-6.156" transform="translate(-22.103 -8.354)"/>
        <path id="Path_83855" data-name="Path 83855" d="M319.033,128.99a38.989,38.989,0,0,1-5.3-4.959c-6.84-7.695-11.8-18.809-13.936-31.634-1.624-8.806-7.267-16.672-15.475-22.657C274.147,62.217,259.87,57.6,244.138,57.6h-3.42c26.846,1.2,48.648,15.9,52.153,34.712,2.65,15.988,9.747,29.325,19.237,36.593H169.243A27.444,27.444,0,0,1,152.4,135.06H335.876A27.359,27.359,0,0,1,319.033,128.99Z" transform="translate(-22.103 -8.354)" fill="none" stroke="#231f20" stroke-miterlimit="10" stroke-width="0.855"/>
        <path id="Path_83856" data-name="Path 83856" d="M274.134,254.841H234.72a11.67,11.67,0,0,1,0-23.341h39.414a11.67,11.67,0,1,1,0,23.341" transform="translate(-32.349 -33.575)" fill="#fdfb76"/>
        <path id="Path_83857" data-name="Path 83857" d="M274.134,254.841H234.72a11.67,11.67,0,0,1,0-23.341h39.414a11.67,11.67,0,1,1,0,23.341Z" transform="translate(-32.349 -33.575)" fill="none" stroke="#231f20" stroke-miterlimit="10" stroke-width="0.855"/>
        <path id="Path_83858" data-name="Path 83858" d="M233.9,241.836a9.148,9.148,0,0,1,6.5-2.736" transform="translate(-33.923 -34.677)" fill="#fdfb76"/>
        <path id="Path_83859" data-name="Path 83859" d="M233.9,241.836a9.148,9.148,0,0,1,6.5-2.736" transform="translate(-33.923 -34.677)" fill="none" stroke="#fcf7eb" stroke-linecap="round" stroke-miterlimit="10" stroke-width="8.55"/>
        <path id="Path_83860" data-name="Path 83860" d="M235.061,246.8a11.628,11.628,0,0,0-9.661,5.13,11.628,11.628,0,0,0,9.661,5.13h39.414a11.628,11.628,0,0,0,9.661-5.13,11.628,11.628,0,0,0-9.661-5.13Z" transform="translate(-32.69 -35.794)"/>
        <path id="Path_83861" data-name="Path 83861" d="M235.061,246.8a11.628,11.628,0,0,0-9.661,5.13,11.628,11.628,0,0,0,9.661,5.13h39.414a11.628,11.628,0,0,0,9.661-5.13,11.628,11.628,0,0,0-9.661-5.13Z" transform="translate(-32.69 -35.794)" fill="none" stroke="#231f20" stroke-miterlimit="10" stroke-width="0.855"/>
        <path id="Path_83862" data-name="Path 83862" d="M274.134,276.541H234.72a11.67,11.67,0,1,1,0-23.341h39.414a11.67,11.67,0,1,1,0,23.341" transform="translate(-32.349 -36.722)" fill="#fdfb76"/>
        <path id="Path_83863" data-name="Path 83863" d="M274.134,276.541H234.72a11.67,11.67,0,1,1,0-23.341h39.414a11.67,11.67,0,1,1,0,23.341Z" transform="translate(-32.349 -36.722)" fill="none" stroke="#231f20" stroke-miterlimit="10" stroke-width="0.855"/>
        <path id="Path_83864" data-name="Path 83864" d="M233.9,263.336a9.148,9.148,0,0,1,6.5-2.736" transform="translate(-33.923 -37.795)" fill="#fdfb76"/>
        <path id="Path_83865" data-name="Path 83865" d="M233.9,263.336a9.148,9.148,0,0,1,6.5-2.736" transform="translate(-33.923 -37.795)" fill="none" stroke="#fcf7eb" stroke-linecap="round" stroke-miterlimit="10" stroke-width="8.55"/>
        <path id="Path_83866" data-name="Path 83866" d="M235.061,267.9a11.628,11.628,0,0,0-9.661,5.13,11.628,11.628,0,0,0,9.661,5.13h39.414a11.627,11.627,0,0,0,9.661-5.13,11.628,11.628,0,0,0-9.661-5.13Z" transform="translate(-32.69 -38.854)"/>
        <path id="Path_83867" data-name="Path 83867" d="M235.061,267.9a11.628,11.628,0,0,0-9.661,5.13,11.628,11.628,0,0,0,9.661,5.13h39.414a11.627,11.627,0,0,0,9.661-5.13,11.628,11.628,0,0,0-9.661-5.13Z" transform="translate(-32.69 -38.854)" fill="none" stroke="#231f20" stroke-miterlimit="10" stroke-width="0.855"/>
        <path id="Path_83868" data-name="Path 83868" d="M288.7,415.879H458.24c22.657,0,35.481-25.991,21.545-43.945L398.905,267.2,362.4,295.414l57.368,74.3H288.7Z" transform="translate(-41.871 -38.753)" fill="#ff0d5b"/>
        <path id="Path_83869" data-name="Path 83869" d="M288.7,415.879H458.24c22.657,0,35.481-25.991,21.545-43.945L398.905,267.2,362.4,295.414l57.368,74.3H288.7Z" transform="translate(-41.871 -38.753)" fill="none" stroke="#231f20" stroke-miterlimit="10" stroke-width="0.855"/>
        <line id="Line_2124" data-name="Line 2124" x2="62.926" y2="30.864" transform="translate(377.896 330.958)" fill="#ff0d5b"/>
        <line id="Line_2125" data-name="Line 2125" x2="62.926" y2="30.864" transform="translate(377.896 330.958)" fill="none" stroke="#231f20" stroke-miterlimit="10" stroke-width="0.855"/>
        <line id="Line_2126" data-name="Line 2126" x2="38.474" y2="46.168" transform="translate(377.896 330.958)" fill="#ff0d5b"/>
        <line id="Line_2127" data-name="Line 2127" x2="38.474" y2="46.168" transform="translate(377.896 330.958)" fill="none" stroke="#231f20" stroke-miterlimit="10" stroke-width="0.855"/>
        <line id="Line_2128" data-name="Line 2128" x2="60.019" y2="2.137" transform="translate(377.896 330.958)" fill="#ff0d5b"/>
        <line id="Line_2129" data-name="Line 2129" x2="60.019" y2="2.137" transform="translate(377.896 330.958)" fill="none" stroke="#231f20" stroke-miterlimit="10" stroke-width="0.855"/>
        <line id="Line_2130" data-name="Line 2130" x1="38.474" y1="46.168" transform="translate(377.896 330.958)" fill="#ff0d5b"/>
        <line id="Line_2131" data-name="Line 2131" x1="38.474" y1="46.168" transform="translate(377.896 330.958)" fill="none" stroke="#231f20" stroke-miterlimit="10" stroke-width="0.855"/>
        <line id="Line_2132" data-name="Line 2132" x2="9.319" y2="46.254" transform="translate(377.896 330.958)" fill="#ff0d5b"/>
        <line id="Line_2133" data-name="Line 2133" x2="9.319" y2="46.254" transform="translate(377.896 330.958)" fill="none" stroke="#231f20" stroke-miterlimit="10" stroke-width="0.855"/>
        <line id="Line_2134" data-name="Line 2134" y2="46.168" transform="translate(359.343 330.958)" fill="#ff0d5b"/>
        <line id="Line_2135" data-name="Line 2135" y2="46.168" transform="translate(359.343 330.958)" fill="none" stroke="#231f20" stroke-miterlimit="10" stroke-width="0.855"/>
        <line id="Line_2136" data-name="Line 2136" y2="46.168" transform="translate(330.787 330.958)" fill="#ff0d5b"/>
        <line id="Line_2137" data-name="Line 2137" y2="46.168" transform="translate(330.787 330.958)" fill="none" stroke="#231f20" stroke-miterlimit="10" stroke-width="0.855"/>
        <line id="Line_2138" data-name="Line 2138" y2="46.168" transform="translate(301.975 330.958)" fill="#ff0d5b"/>
        <line id="Line_2139" data-name="Line 2139" y2="46.168" transform="translate(301.975 330.958)" fill="none" stroke="#231f20" stroke-miterlimit="10" stroke-width="0.855"/>
        <line id="Line_2140" data-name="Line 2140" y1="23.597" x2="40.867" transform="translate(377.297 307.532)" fill="#ff0d5b"/>
        <line id="Line_2141" data-name="Line 2141" y1="23.597" x2="40.867" transform="translate(377.297 307.532)" fill="none" stroke="#231f20" stroke-miterlimit="10" stroke-width="0.855"/>
        <line id="Line_2142" data-name="Line 2142" y1="25.735" x2="38.388" transform="translate(361.993 284.448)" fill="#ff0d5b"/>
        <line id="Line_2143" data-name="Line 2143" y1="25.735" x2="38.388" transform="translate(361.993 284.448)" fill="none" stroke="#231f20" stroke-miterlimit="10" stroke-width="0.855"/>
        <path id="Path_83870" data-name="Path 83870" d="M442.954,375.643,390.715,308.1l-5.215,4.1,49.075,63.439Z" transform="translate(-55.91 -44.684)"/>
        <path id="Path_83871" data-name="Path 83871" d="M442.954,375.643,390.715,308.1l-5.215,4.1,49.075,63.439Z" transform="translate(-55.91 -44.684)" fill="none" stroke="#000" stroke-miterlimit="10" stroke-width="0.855"/>
        <path id="Path_83872" data-name="Path 83872" d="M338.4,275.317A49.417,49.417,0,1,0,387.817,225.9,49.417,49.417,0,0,0,338.4,275.317" transform="translate(-49.079 -32.763)" fill="#fdfb76"/>
        <ellipse id="Ellipse_754" data-name="Ellipse 754" cx="49.417" cy="49.417" rx="49.417" ry="49.417" transform="translate(289.321 193.137)" fill="none" stroke="#231f20" stroke-miterlimit="10" stroke-width="0.855"/>
        <path id="Path_83873" data-name="Path 83873" d="M419.532,238A49.417,49.417,0,0,1,347.8,304.089,49.417,49.417,0,1,0,419.532,238" transform="translate(-50.442 -34.518)"/>
        <path id="Path_83874" data-name="Path 83874" d="M419.532,238A49.417,49.417,0,0,1,347.8,304.089,49.417,49.417,0,1,0,419.532,238Z" transform="translate(-50.442 -34.518)" fill="none" stroke="#231f20" stroke-miterlimit="10" stroke-width="0.855"/>
        <path id="Path_83875" data-name="Path 83875" d="M197.313,415.865H27.858c-22.657,0-35.481-26.077-21.631-44.031L87.193,267.1,123.7,295.314,66.332,369.7H197.313Z" transform="translate(-0.072 -38.738)" fill="#00db96"/>
        <path id="Path_83876" data-name="Path 83876" d="M197.313,415.865H27.858c-22.657,0-35.481-26.077-21.631-44.031L87.193,267.1,123.7,295.314,66.332,369.7H197.313Z" transform="translate(-0.072 -38.738)" fill="none" stroke="#231f20" stroke-miterlimit="10" stroke-width="0.855"/>
        <line id="Line_2144" data-name="Line 2144" x1="63.011" y2="30.864" transform="translate(3.249 330.958)" fill="#00db96"/>
        <line id="Line_2145" data-name="Line 2145" x1="63.011" y2="30.864" transform="translate(3.249 330.958)" fill="none" stroke="#231f20" stroke-miterlimit="10" stroke-width="0.855"/>
        <line id="Line_2146" data-name="Line 2146" x1="38.474" y2="46.168" transform="translate(27.786 330.958)" fill="#00db96"/>
        <line id="Line_2147" data-name="Line 2147" x1="38.474" y2="46.168" transform="translate(27.786 330.958)" fill="none" stroke="#231f20" stroke-miterlimit="10" stroke-width="0.855"/>
        <line id="Line_2148" data-name="Line 2148" x1="60.104" y2="2.137" transform="translate(6.156 330.958)" fill="#00db96"/>
        <line id="Line_2149" data-name="Line 2149" x1="60.104" y2="2.137" transform="translate(6.156 330.958)" fill="none" stroke="#231f20" stroke-miterlimit="10" stroke-width="0.855"/>
        <line id="Line_2150" data-name="Line 2150" y1="46.168" x2="38.474" transform="translate(27.786 330.958)" fill="#00db96"/>
        <line id="Line_2151" data-name="Line 2151" y1="46.168" x2="38.474" transform="translate(27.786 330.958)" fill="none" stroke="#231f20" stroke-miterlimit="10" stroke-width="0.855"/>
        <line id="Line_2152" data-name="Line 2152" x1="9.405" y2="46.254" transform="translate(56.855 330.958)" fill="#00db96"/>
        <line id="Line_2153" data-name="Line 2153" x1="9.405" y2="46.254" transform="translate(56.855 330.958)" fill="none" stroke="#231f20" stroke-miterlimit="10" stroke-width="0.855"/>
        <line id="Line_2154" data-name="Line 2154" y2="46.168" transform="translate(84.813 330.958)" fill="#00db96"/>
        <line id="Line_2155" data-name="Line 2155" y2="46.168" transform="translate(84.813 330.958)" fill="none" stroke="#231f20" stroke-miterlimit="10" stroke-width="0.855"/>
        <line id="Line_2156" data-name="Line 2156" y2="46.168" transform="translate(113.283 330.958)" fill="#00db96"/>
        <line id="Line_2157" data-name="Line 2157" y2="46.168" transform="translate(113.283 330.958)" fill="none" stroke="#231f20" stroke-miterlimit="10" stroke-width="0.855"/>
        <line id="Line_2158" data-name="Line 2158" y2="46.168" transform="translate(142.181 330.958)" fill="#00db96"/>
        <line id="Line_2159" data-name="Line 2159" y2="46.168" transform="translate(142.181 330.958)" fill="none" stroke="#231f20" stroke-miterlimit="10" stroke-width="0.855"/>
        <line id="Line_2160" data-name="Line 2160" x1="40.782" y1="23.597" transform="translate(25.991 307.532)" fill="#00db96"/>
        <line id="Line_2161" data-name="Line 2161" x1="40.782" y1="23.597" transform="translate(25.991 307.532)" fill="none" stroke="#231f20" stroke-miterlimit="10" stroke-width="0.855"/>
        <line id="Line_2162" data-name="Line 2162" x1="38.303" y1="25.735" transform="translate(43.774 284.448)" fill="#00db96"/>
        <line id="Line_2163" data-name="Line 2163" x1="38.303" y1="25.735" transform="translate(43.774 284.448)" fill="none" stroke="#231f20" stroke-miterlimit="10" stroke-width="0.855"/>
        <path id="Path_83877" data-name="Path 83877" d="M66.8,375.643,118.953,308.1l5.215,4.1-48.99,63.439Z" transform="translate(-9.688 -44.684)"/>
        <path id="Path_83878" data-name="Path 83878" d="M66.8,375.643,118.953,308.1l5.215,4.1-48.99,63.439Z" transform="translate(-9.688 -44.684)" fill="none" stroke="#000" stroke-miterlimit="10" stroke-width="0.855"/>
        <path id="Path_83879" data-name="Path 83879" d="M164.334,275.317A49.417,49.417,0,1,1,114.917,225.9a49.417,49.417,0,0,1,49.417,49.417" transform="translate(-9.5 -32.763)" fill="#fdfb76"/>
        <ellipse id="Ellipse_755" data-name="Ellipse 755" cx="49.417" cy="49.417" rx="49.417" ry="49.417" transform="translate(56 193.137)" fill="none" stroke="#231f20" stroke-miterlimit="10" stroke-width="0.855"/>
        <path id="Path_83880" data-name="Path 83880" d="M146.932,238A49.417,49.417,0,0,1,75.2,304.089,49.417,49.417,0,1,0,146.932,238" transform="translate(-10.906 -34.518)"/>
        <path id="Path_83881" data-name="Path 83881" d="M146.932,238A49.417,49.417,0,0,1,75.2,304.089,49.417,49.417,0,1,0,146.932,238Z" transform="translate(-10.906 -34.518)" fill="none" stroke="#231f20" stroke-miterlimit="10" stroke-width="0.855"/>
        <path id="Path_83882" data-name="Path 83882" d="M350.754,274.1H259.7V531.531A23.768,23.768,0,0,0,281.844,517l41.808-96.013L372.9,307.871A24.11,24.11,0,0,0,350.754,274.1" transform="translate(-37.665 -39.753)" fill="#00db96"/>
        <path id="Path_83883" data-name="Path 83883" d="M350.754,274.1H259.7V531.531A23.768,23.768,0,0,0,281.844,517l41.808-96.013L372.9,307.871A24.11,24.11,0,0,0,350.754,274.1Z" transform="translate(-37.665 -39.753)" fill="none" stroke="#231f20" stroke-miterlimit="10" stroke-width="0.855"/>
        <path id="Path_83884" data-name="Path 83884" d="M149.1,274.1a24.11,24.11,0,0,0-22.144,33.771l49.332,113.112L218.1,517a23.768,23.768,0,0,0,22.144,14.534V274.1Z" transform="translate(-18.12 -39.753)" fill="#ff0d5b"/>
        <path id="Path_83885" data-name="Path 83885" d="M149.1,274.1a24.11,24.11,0,0,0-22.144,33.771l49.332,113.112L218.1,517a23.768,23.768,0,0,0,22.144,14.534V274.1Z" transform="translate(-18.12 -39.753)" fill="none" stroke="#231f20" stroke-miterlimit="10" stroke-width="0.855"/>
        <path id="Path_83886" data-name="Path 83886" d="M290.735,444.9A36.421,36.421,0,0,1,259.7,462v75.579a23.768,23.768,0,0,0,22.144-14.534l41.808-96.013L372.043,315.8Z" transform="translate(-37.665 -45.801)"/>
        <path id="Path_83887" data-name="Path 83887" d="M290.735,444.9A36.421,36.421,0,0,1,259.7,462v75.579a23.768,23.768,0,0,0,22.144-14.534l41.808-96.013L372.043,315.8Z" transform="translate(-37.665 -45.801)" fill="none" stroke="#231f20" stroke-miterlimit="10" stroke-width="0.855"/>
        <path id="Path_83888" data-name="Path 83888" d="M209.607,444.9,128.3,315.8l48.477,111.231,41.808,96.013a23.768,23.768,0,0,0,22.144,14.534V462a36.422,36.422,0,0,1-31.035-17.1" transform="translate(-18.608 -45.801)"/>
        <path id="Path_83889" data-name="Path 83889" d="M209.607,444.9,128.3,315.8l48.477,111.231,41.808,96.013a23.768,23.768,0,0,0,22.144,14.534V462A36.422,36.422,0,0,1,209.607,444.9Z" transform="translate(-18.608 -45.801)" fill="none" stroke="#231f20" stroke-miterlimit="10" stroke-width="0.855"/>
        <path id="Path_83890" data-name="Path 83890" d="M373.722,160.515A2.565,2.565,0,0,0,375.6,160l6.925-5.557a2.565,2.565,0,0,0-3.163-4.018l-6.925,5.557a2.565,2.565,0,0,0,1.282,4.531" transform="translate(-53.879 -21.754)" fill="#fdfb76"/>
        <path id="Path_83891" data-name="Path 83891" d="M373.722,160.515A2.565,2.565,0,0,0,375.6,160l6.925-5.557a2.565,2.565,0,0,0-3.163-4.018l-6.925,5.557a2.565,2.565,0,0,0,1.282,4.531Z" transform="translate(-53.879 -21.754)" fill="none" stroke="#231f20" stroke-miterlimit="10" stroke-width="0.855"/>
        <path id="Path_83892" data-name="Path 83892" d="M368.863,155.1a2.565,2.565,0,0,0,1.624-1.111l4.788-7.438A2.565,2.565,0,0,0,371,143.724l-4.873,7.438a2.565,2.565,0,0,0,2.65,3.933" transform="translate(-53.038 -20.694)" fill="#fdfb76"/>
        <path id="Path_83893" data-name="Path 83893" d="M368.863,155.1a2.565,2.565,0,0,0,1.624-1.111l4.788-7.438A2.565,2.565,0,0,0,371,143.724l-4.873,7.438a2.565,2.565,0,0,0,2.65,3.933Z" transform="translate(-53.038 -20.694)" fill="none" stroke="#231f20" stroke-miterlimit="10" stroke-width="0.855"/>
        <path id="Path_83894" data-name="Path 83894" d="M298.888,446.634H178.936a17.7,17.7,0,0,1-8.122-1.966l-19.322-10a5.13,5.13,0,0,1,3.847-8.464H322.485a5.13,5.13,0,0,1,3.847,8.464l-19.322,10a17.7,17.7,0,0,1-8.122,1.966" transform="translate(-21.792 -61.813)"/>
        <path id="Path_83895" data-name="Path 83895" d="M298.888,446.634H178.936a17.7,17.7,0,0,1-8.122-1.966l-19.322-10a5.13,5.13,0,0,1,3.847-8.464H322.485a5.13,5.13,0,0,1,3.847,8.464l-19.322,10A17.7,17.7,0,0,1,298.888,446.634Z" transform="translate(-21.792 -61.813)" fill="none" stroke="#000" stroke-miterlimit="10" stroke-width="0.855"/>
        <path id="Path_83896" data-name="Path 83896" d="M419.767,387.1H288.7v46.168H458.24a26.931,26.931,0,0,0,24.538-15.3Z" transform="translate(-41.871 -56.142)" fill="#ff0d5b"/>
        <path id="Path_83897" data-name="Path 83897" d="M419.767,387.1H288.7v46.168H458.24a26.931,26.931,0,0,0,24.538-15.3Z" transform="translate(-41.871 -56.142)" fill="none" stroke="#231f20" stroke-miterlimit="10" stroke-width="0.855"/>
        <line id="Line_2164" data-name="Line 2164" x2="38.474" y2="46.168" transform="translate(377.896 330.958)" fill="#ff0d5b"/>
        <line id="Line_2165" data-name="Line 2165" x2="38.474" y2="46.168" transform="translate(377.896 330.958)" fill="none" stroke="#231f20" stroke-miterlimit="10" stroke-width="0.855"/>
        <line id="Line_2166" data-name="Line 2166" x1="38.474" y1="46.168" transform="translate(377.896 330.958)" fill="#ff0d5b"/>
        <line id="Line_2167" data-name="Line 2167" x1="38.474" y1="46.168" transform="translate(377.896 330.958)" fill="none" stroke="#231f20" stroke-miterlimit="10" stroke-width="0.855"/>
        <line id="Line_2168" data-name="Line 2168" x2="9.319" y2="46.254" transform="translate(377.896 330.958)" fill="#ff0d5b"/>
        <line id="Line_2169" data-name="Line 2169" x2="9.319" y2="46.254" transform="translate(377.896 330.958)" fill="none" stroke="#231f20" stroke-miterlimit="10" stroke-width="0.855"/>
        <line id="Line_2170" data-name="Line 2170" y2="46.168" transform="translate(359.343 330.958)" fill="#ff0d5b"/>
        <line id="Line_2171" data-name="Line 2171" y2="46.168" transform="translate(359.343 330.958)" fill="none" stroke="#231f20" stroke-miterlimit="10" stroke-width="0.855"/>
        <line id="Line_2172" data-name="Line 2172" y2="46.168" transform="translate(330.787 330.958)" fill="#ff0d5b"/>
        <line id="Line_2173" data-name="Line 2173" y2="46.168" transform="translate(330.787 330.958)" fill="none" stroke="#231f20" stroke-miterlimit="10" stroke-width="0.855"/>
        <line id="Line_2174" data-name="Line 2174" y2="46.168" transform="translate(301.975 330.958)" fill="#ff0d5b"/>
        <line id="Line_2175" data-name="Line 2175" y2="46.168" transform="translate(301.975 330.958)" fill="none" stroke="#231f20" stroke-miterlimit="10" stroke-width="0.855"/>
        <path id="Path_83898" data-name="Path 83898" d="M458.24,424.687H288.7v10.858H458.24A27.3,27.3,0,0,0,485,402.8a27.188,27.188,0,0,1-26.76,21.887" transform="translate(-41.871 -58.419)"/>
        <path id="Path_83899" data-name="Path 83899" d="M458.24,424.687H288.7v10.858H458.24A27.3,27.3,0,0,0,485,402.8a27.188,27.188,0,0,1-26.76,21.887Z" transform="translate(-41.871 -58.419)" fill="none" stroke="#000" stroke-miterlimit="10" stroke-width="0.855"/>
        <path id="Path_83900" data-name="Path 83900" d="M66.811,387.1h0L3.8,417.964a26.931,26.931,0,0,0,24.538,15.3H197.792V387.1Z" transform="translate(-0.551 -56.142)" fill="#00db96"/>
        <path id="Path_83901" data-name="Path 83901" d="M66.811,387.1h0L3.8,417.964a26.931,26.931,0,0,0,24.538,15.3H197.792V387.1Z" transform="translate(-0.551 -56.142)" fill="none" stroke="#231f20" stroke-miterlimit="10" stroke-width="0.855"/>
        <line id="Line_2176" data-name="Line 2176" x1="38.474" y2="46.168" transform="translate(27.786 330.958)" fill="#00db96"/>
        <line id="Line_2177" data-name="Line 2177" x1="38.474" y2="46.168" transform="translate(27.786 330.958)" fill="none" stroke="#231f20" stroke-miterlimit="10" stroke-width="0.855"/>
        <line id="Line_2178" data-name="Line 2178" y1="46.168" x2="38.474" transform="translate(27.786 330.958)" fill="#00db96"/>
        <line id="Line_2179" data-name="Line 2179" y1="46.168" x2="38.474" transform="translate(27.786 330.958)" fill="none" stroke="#231f20" stroke-miterlimit="10" stroke-width="0.855"/>
        <line id="Line_2180" data-name="Line 2180" x1="9.405" y2="46.254" transform="translate(56.855 330.958)" fill="#00db96"/>
        <line id="Line_2181" data-name="Line 2181" x1="9.405" y2="46.254" transform="translate(56.855 330.958)" fill="none" stroke="#231f20" stroke-miterlimit="10" stroke-width="0.855"/>
        <line id="Line_2182" data-name="Line 2182" y2="46.168" transform="translate(84.813 330.958)" fill="#00db96"/>
        <line id="Line_2183" data-name="Line 2183" y2="46.168" transform="translate(84.813 330.958)" fill="none" stroke="#231f20" stroke-miterlimit="10" stroke-width="0.855"/>
        <line id="Line_2184" data-name="Line 2184" y2="46.168" transform="translate(113.283 330.958)" fill="#00db96"/>
        <line id="Line_2185" data-name="Line 2185" y2="46.168" transform="translate(113.283 330.958)" fill="none" stroke="#231f20" stroke-miterlimit="10" stroke-width="0.855"/>
        <line id="Line_2186" data-name="Line 2186" y2="46.168" transform="translate(142.181 330.958)" fill="#00db96"/>
        <line id="Line_2187" data-name="Line 2187" y2="46.168" transform="translate(142.181 330.958)" fill="none" stroke="#231f20" stroke-miterlimit="10" stroke-width="0.855"/>
        <path id="Path_83902" data-name="Path 83902" d="M27.865,424.687H197.32v10.858H27.865A27.3,27.3,0,0,1,1.1,402.8a27.188,27.188,0,0,0,26.761,21.973" transform="translate(-0.079 -58.419)"/>
        <path id="Path_83903" data-name="Path 83903" d="M27.865,424.687H197.32v10.858H27.865A27.3,27.3,0,0,1,1.1,402.8,27.188,27.188,0,0,0,27.865,424.687Z" transform="translate(-0.079 -58.419)" fill="none" stroke="#000" stroke-miterlimit="10" stroke-width="0.855"/>
        <path id="Path_83904" data-name="Path 83904" d="M300.213,435.249H183.425A12.825,12.825,0,0,1,170.6,422.424v-61.9A12.825,12.825,0,0,1,183.425,347.7H300.213a12.825,12.825,0,0,1,12.825,12.825v61.9a12.824,12.824,0,0,1-12.825,12.825" transform="translate(-24.742 -50.428)" fill="#8e0bfa"/>
        <rect id="Rectangle_134783" data-name="Rectangle 134783" width="142.438" height="87.549" rx="12.825" transform="translate(145.858 297.272)" fill="none" stroke="#000" stroke-miterlimit="10" stroke-width="0.855"/>
        <path id="Path_83905" data-name="Path 83905" d="M300.213,436.025H183.425A12.825,12.825,0,0,1,170.6,423.2v10.174A12.825,12.825,0,0,0,183.425,446.2H300.213a12.824,12.824,0,0,0,12.825-12.824V423.2a12.824,12.824,0,0,1-12.825,12.825" transform="translate(-24.742 -61.378)"/>
        <path id="Path_83906" data-name="Path 83906" d="M300.213,436.025H183.425A12.825,12.825,0,0,1,170.6,423.2v10.174A12.825,12.825,0,0,0,183.425,446.2H300.213a12.824,12.824,0,0,0,12.825-12.824V423.2A12.824,12.824,0,0,1,300.213,436.025Z" transform="translate(-24.742 -61.378)" fill="none" stroke="#000" stroke-miterlimit="10" stroke-width="0.855"/>
        <path id="Path_83907" data-name="Path 83907" d="M264.336,388.765a12.568,12.568,0,1,0-19.151,10.687v7.438h13.167v-7.438a12.568,12.568,0,0,0,5.985-10.687" transform="translate(-34.691 -54.558)" fill="#fcf7eb"/>
        <path id="Path_83908" data-name="Path 83908" d="M264.336,388.765a12.568,12.568,0,1,0-19.151,10.687v7.438h13.167v-7.438a12.568,12.568,0,0,0,5.985-10.687Z" transform="translate(-34.691 -54.558)" fill="none" stroke="#000" stroke-miterlimit="10" stroke-width="0.855"/>
        <line id="Line_2188" data-name="Line 2188" y2="6.412" transform="translate(219.299 345.92)" fill="none" stroke="#000" stroke-miterlimit="10" stroke-width="0.855"/>
        <line id="Line_2189" data-name="Line 2189" y2="6.412" transform="translate(215.11 345.92)" fill="none" stroke="#000" stroke-miterlimit="10" stroke-width="0.855"/>
        <path id="Path_83909" data-name="Path 83909" d="M183.8,364.859c0-2.821,3.676-4.959,7.1-4.959h18.211" transform="translate(-26.657 -52.197)" fill="none" stroke="#fff" stroke-linecap="round" stroke-miterlimit="10" stroke-width="8.55"/>
        <path id="Path_83910" data-name="Path 83910" d="M214.7,86.089c5.3-7.524,15.56-13.252,27.957-15.389" transform="translate(-31.138 -10.254)" fill="none" stroke="#fcf7eb" stroke-linecap="round" stroke-miterlimit="10" stroke-width="8.55"/>
        <path id="Path_83911" data-name="Path 83911" d="M254.35,25.3c.085,0-2.65,5.985-2.65,5.985" transform="translate(-36.505 -3.669)" fill="#8e0bfa"/>
        <path id="Path_83912" data-name="Path 83912" d="M254.35,25.3c.085,0-2.65,5.985-2.65,5.985" transform="translate(-36.505 -3.669)" fill="none" stroke="#fcf7eb" stroke-linecap="round" stroke-miterlimit="10" stroke-width="8.55"/>
        <path id="Path_83913" data-name="Path 83913" d="M92.6,249.531A37.96,37.96,0,0,1,118.762,239.1a38.387,38.387,0,0,1,5.044.342" transform="translate(-13.43 -34.677)" fill="none" stroke="#fcf7eb" stroke-linecap="round" stroke-miterlimit="10" stroke-width="8.55"/>
        <path id="Path_83914" data-name="Path 83914" d="M376.2,243.9a37.789,37.789,0,0,1,16.159-4.7" transform="translate(-54.561 -34.692)" fill="none" stroke="#fcf7eb" stroke-linecap="round" stroke-miterlimit="10" stroke-width="8.55"/>
        <line id="Line_2190" data-name="Line 2190" x1="7.609" y2="9.405" transform="translate(51.469 280.173)" fill="#8e0bfa"/>
        <line id="Line_2191" data-name="Line 2191" x1="7.609" y2="9.405" transform="translate(51.469 280.173)" fill="none" stroke="#fcf7eb" stroke-linecap="round" stroke-miterlimit="10" stroke-width="8.55"/>
        <line id="Line_2192" data-name="Line 2192" x1="3.847" y2="4.702" transform="translate(39.329 299.666)" fill="#8e0bfa"/>
        <line id="Line_2193" data-name="Line 2193" x1="3.847" y2="4.702" transform="translate(39.329 299.666)" fill="none" stroke="#fcf7eb" stroke-linecap="round" stroke-miterlimit="10" stroke-width="8.55"/>
      </g>
    </g>
  </g>
</svg>
