<svg xmlns="http://www.w3.org/2000/svg" xmlns:xlink="http://www.w3.org/1999/xlink" width="402" height="257.002" viewBox="0 0 402 257.002">
  <defs>
    <clipPath id="clip-path">
      <rect id="Rectangle_120588" data-name="Rectangle 120588" width="402" height="256.91" transform="translate(0 0)" fill="#fdfb76"/>
    </clipPath>
    <clipPath id="clip-path-2">
      <rect id="Rectangle_141417" data-name="Rectangle 141417" width="378.408" height="298.828" fill="none"/>
    </clipPath>
    <clipPath id="clip-path-3">
      <path id="Path_128060" data-name="Path 128060" d="M248.158,118.4a5.858,5.858,0,0,0,0,11.716h28.663a5.858,5.858,0,1,0,0-11.716Z" transform="translate(-242.3 -118.4)" fill="none"/>
    </clipPath>
  </defs>
  <g id="Group_21335" data-name="Group 21335" transform="translate(0)">
    <g id="Group_4016" data-name="Group 4016" transform="translate(0 0)">
      <path id="Path_9561" data-name="Path 9561" d="M0,0H401.2V257H0Z" transform="translate(0.026 0)" fill="#fdfb76"/>
      <g id="Mask_Group_3" data-name="Mask Group 3" transform="translate(0 0.093)" clip-path="url(#clip-path)">
        <g id="Artwork_40" data-name="Artwork 40" transform="translate(201 171.699)">
          <g id="Group_21334" data-name="Group 21334" transform="translate(-189.204 -149.414)">
            <g id="Group_21331" data-name="Group 21331" clip-path="url(#clip-path-2)">
              <path id="Path_128037" data-name="Path 128037" d="M294.8,134.176H211.6V42.05a41.6,41.6,0,1,1,83.2,0Z" transform="translate(-64.031 -0.136)" fill="#8e0bfa"/>
              <path id="Path_128038" data-name="Path 128038" d="M294.8,134.176H211.6V42.05a41.6,41.6,0,1,1,83.2,0Z" transform="translate(-64.031 -0.136)" fill="none" stroke="#000" stroke-miterlimit="10" stroke-width="0.697"/>
              <path id="Path_128039" data-name="Path 128039" d="M260.139,153.461H246.261A34.661,34.661,0,0,1,211.6,118.8v51.189h83.2V118.8a34.661,34.661,0,0,1-34.661,34.661" transform="translate(-64.031 -35.949)"/>
              <path id="Path_128040" data-name="Path 128040" d="M260.139,153.461H246.261A34.661,34.661,0,0,1,211.6,118.8v51.189h83.2V118.8A34.661,34.661,0,0,1,260.139,153.461Z" transform="translate(-64.031 -35.949)" fill="none" stroke="#000" stroke-miterlimit="10" stroke-width="0.697"/>
              <path id="Path_128041" data-name="Path 128041" d="M286.344,34.4a10.252,10.252,0,0,1-18.9,5.3,20.5,20.5,0,0,1-11.577,11.019A20.5,20.5,0,0,1,244.221,39.7a10.252,10.252,0,0,1-18.9-5.3A35.428,35.428,0,0,0,220.3,52.672v2.65a18.2,18.2,0,0,0,18.2,18.2h.209a8.648,8.648,0,0,0-.209,12.065h-3.278A13.251,13.251,0,0,0,221.974,98.84h0a13.251,13.251,0,0,0,13.251,13.251H276.44A13.251,13.251,0,0,0,289.691,98.84h0A13.251,13.251,0,0,0,276.44,85.589h-3.278a8.648,8.648,0,0,0-.209-12.065h.209a18.2,18.2,0,0,0,18.2-18.2v-2.65A35.427,35.427,0,0,0,286.344,34.4" transform="translate(-66.663 -10.41)" fill="#00db96"/>
              <path id="Path_128042" data-name="Path 128042" d="M286.344,34.4a10.252,10.252,0,0,1-18.9,5.3,20.5,20.5,0,0,1-11.577,11.019A20.5,20.5,0,0,1,244.221,39.7a10.252,10.252,0,0,1-18.9-5.3A35.428,35.428,0,0,0,220.3,52.672v2.65a18.2,18.2,0,0,0,18.2,18.2h.209a8.648,8.648,0,0,0-.209,12.065h-3.278A13.251,13.251,0,0,0,221.974,98.84h0a13.251,13.251,0,0,0,13.251,13.251H276.44A13.251,13.251,0,0,0,289.691,98.84h0A13.251,13.251,0,0,0,276.44,85.589h-3.278a8.648,8.648,0,0,0-.209-12.065h.209a18.2,18.2,0,0,0,18.2-18.2v-2.65A35.427,35.427,0,0,0,286.344,34.4Z" transform="translate(-66.663 -10.41)" fill="none" stroke="#000" stroke-miterlimit="10" stroke-width="0.697"/>
              <path id="Path_128043" data-name="Path 128043" d="M286.344,38.8a10.252,10.252,0,0,1-18.9,5.3,20.5,20.5,0,0,1-11.577,11.019A20.5,20.5,0,0,1,244.29,44.1a10.252,10.252,0,0,1-18.9-5.3A35.428,35.428,0,0,0,220.3,57.072v2.65a18.2,18.2,0,0,0,18.2,18.2h.209a8.648,8.648,0,0,0-.209,12.065h-3.278a13.251,13.251,0,1,0,0,26.5h41.216a13.251,13.251,0,0,0,0-26.5h-3.278a8.648,8.648,0,0,0-.209-12.065h.209a18.2,18.2,0,0,0,18.2-18.2v-2.65A35.428,35.428,0,0,0,286.344,38.8" transform="translate(-66.663 -11.741)"/>
              <path id="Path_128044" data-name="Path 128044" d="M286.344,38.8a10.252,10.252,0,0,1-18.9,5.3,20.5,20.5,0,0,1-11.577,11.019A20.5,20.5,0,0,1,244.29,44.1a10.252,10.252,0,0,1-18.9-5.3A35.428,35.428,0,0,0,220.3,57.072v2.65a18.2,18.2,0,0,0,18.2,18.2h.209a8.648,8.648,0,0,0-.209,12.065h-3.278a13.251,13.251,0,1,0,0,26.5h41.216a13.251,13.251,0,0,0,0-26.5h-3.278a8.648,8.648,0,0,0-.209-12.065h.209a18.2,18.2,0,0,0,18.2-18.2v-2.65A35.428,35.428,0,0,0,286.344,38.8Z" transform="translate(-66.663 -11.741)" fill="none" stroke="#000" stroke-miterlimit="10" stroke-width="0.697"/>
              <path id="Path_128045" data-name="Path 128045" d="M286.344,34.4a10.252,10.252,0,0,1-18.9,5.3,20.5,20.5,0,0,1-11.577,11.019A20.5,20.5,0,0,1,244.221,39.7a10.252,10.252,0,0,1-18.9-5.3A35.428,35.428,0,0,0,220.3,52.672v2.65a18.2,18.2,0,0,0,18.2,18.2h.209a8.648,8.648,0,0,0-.209,12.065h-3.278A13.251,13.251,0,0,0,221.974,98.84h0a13.251,13.251,0,0,0,13.251,13.251H276.44A13.251,13.251,0,0,0,289.691,98.84h0A13.251,13.251,0,0,0,276.44,85.589h-3.278a8.648,8.648,0,0,0-.209-12.065h.209a18.2,18.2,0,0,0,18.2-18.2v-2.65A35.427,35.427,0,0,0,286.344,34.4" transform="translate(-66.663 -10.41)" fill="#00db96"/>
              <path id="Path_128046" data-name="Path 128046" d="M286.344,34.4a10.252,10.252,0,0,1-18.9,5.3,20.5,20.5,0,0,1-11.577,11.019A20.5,20.5,0,0,1,244.221,39.7a10.252,10.252,0,0,1-18.9-5.3A35.428,35.428,0,0,0,220.3,52.672v2.65a18.2,18.2,0,0,0,18.2,18.2h.209a8.648,8.648,0,0,0-.209,12.065h-3.278A13.251,13.251,0,0,0,221.974,98.84h0a13.251,13.251,0,0,0,13.251,13.251H276.44A13.251,13.251,0,0,0,289.691,98.84h0A13.251,13.251,0,0,0,276.44,85.589h-3.278a8.648,8.648,0,0,0-.209-12.065h.209a18.2,18.2,0,0,0,18.2-18.2v-2.65A35.427,35.427,0,0,0,286.344,34.4Z" transform="translate(-66.663 -10.41)" fill="none" stroke="#000" stroke-miterlimit="10" stroke-width="0.697"/>
              <path id="Path_128047" data-name="Path 128047" d="M273.45,98.475a3.975,3.975,0,1,1-3.975-3.975,3.975,3.975,0,0,1,3.975,3.975" transform="translate(-80.341 -28.596)" fill="#8e0bfa"/>
              <path id="Path_128048" data-name="Path 128048" d="M273.45,98.475a3.975,3.975,0,1,1-3.975-3.975A3.975,3.975,0,0,1,273.45,98.475Z" transform="translate(-80.341 -28.596)" fill="none" stroke="#000" stroke-miterlimit="10" stroke-width="0.697"/>
              <path id="Path_128049" data-name="Path 128049" d="M300.359,68.75,289.828,73.7a6.277,6.277,0,0,1-5.3-11.368l10.531-4.882a6.277,6.277,0,0,1,5.3,11.3" transform="translate(-85.072 -17.282)" fill="#fcf7eb"/>
              <path id="Path_128050" data-name="Path 128050" d="M300.359,68.75,289.828,73.7a6.277,6.277,0,0,1-5.3-11.368l10.531-4.882a6.277,6.277,0,0,1,5.3,11.3Z" transform="translate(-85.072 -17.282)" fill="none" stroke="#000" stroke-miterlimit="10" stroke-width="0.697"/>
              <path id="Path_128051" data-name="Path 128051" d="M230.459,68.5l10.531,4.952a6.277,6.277,0,0,0,5.3-11.368L235.76,57.2a6.277,6.277,0,1,0-5.3,11.3" transform="translate(-68.454 -17.032)" fill="#fcf7eb"/>
              <path id="Path_128052" data-name="Path 128052" d="M230.459,68.5l10.531,4.952a6.277,6.277,0,0,0,5.3-11.368L235.76,57.2a6.277,6.277,0,1,0-5.3,11.3Z" transform="translate(-68.454 -17.032)" fill="none" stroke="#000" stroke-miterlimit="10" stroke-width="0.697"/>
              <path id="Path_128053" data-name="Path 128053" d="M297.45,68.475a3.975,3.975,0,1,1-3.975-3.975,3.975,3.975,0,0,1,3.975,3.975" transform="translate(-87.603 -19.518)"/>
              <path id="Path_128054" data-name="Path 128054" d="M297.45,68.475a3.975,3.975,0,1,1-3.975-3.975,3.975,3.975,0,0,1,3.975,3.975Z" transform="translate(-87.603 -19.518)" fill="none" stroke="#000" stroke-miterlimit="10" stroke-width="0.697"/>
              <path id="Path_128055" data-name="Path 128055" d="M240.1,68.475a3.975,3.975,0,1,0,3.975-3.975,3.975,3.975,0,0,0-3.975,3.975" transform="translate(-72.655 -19.518)"/>
              <path id="Path_128056" data-name="Path 128056" d="M240.1,68.475a3.975,3.975,0,1,0,3.975-3.975,3.975,3.975,0,0,0-3.975,3.975Z" transform="translate(-72.655 -19.518)" fill="none" stroke="#000" stroke-miterlimit="10" stroke-width="0.697"/>
              <path id="Path_128057" data-name="Path 128057" d="M275.369,132.011H246.706a9.206,9.206,0,1,1,0-18.411h28.663a9.206,9.206,0,1,1,0,18.411" transform="translate(-71.868 -34.376)" fill="#ff0d5b"/>
              <path id="Path_128058" data-name="Path 128058" d="M275.369,132.011H246.706a9.206,9.206,0,1,1,0-18.411h28.663a9.206,9.206,0,1,1,0,18.411Z" transform="translate(-71.868 -34.376)" fill="none" stroke="#000" stroke-miterlimit="10" stroke-width="0.697"/>
              <path id="Path_128059" data-name="Path 128059" d="M276.821,130.116H248.158a5.858,5.858,0,1,1,0-11.716h28.663a5.858,5.858,0,1,1,0,11.716Z" transform="translate(-73.321 -35.828)" fill="none" stroke="#000" stroke-miterlimit="10" stroke-width="0.697"/>
            </g>
            <g id="Group_21332" data-name="Group 21332" transform="translate(168.979 82.572)" clip-path="url(#clip-path-3)">
              <rect id="Rectangle_141418" data-name="Rectangle 141418" width="10.112" height="11.688" transform="translate(0 0)" fill="#fcf7eb"/>
              <rect id="Rectangle_141419" data-name="Rectangle 141419" width="10.112" height="11.688" transform="translate(0 0)" fill="none" stroke="#000" stroke-miterlimit="10" stroke-width="0.697"/>
              <rect id="Rectangle_141420" data-name="Rectangle 141420" width="10.112" height="11.688" transform="translate(10.112 0)" fill="#fcf7eb"/>
              <rect id="Rectangle_141421" data-name="Rectangle 141421" width="10.112" height="11.688" transform="translate(10.112 0)" fill="none" stroke="#000" stroke-miterlimit="10" stroke-width="0.697"/>
              <rect id="Rectangle_141422" data-name="Rectangle 141422" width="10.112" height="11.688" transform="translate(20.225 0)" fill="#fcf7eb"/>
              <rect id="Rectangle_141423" data-name="Rectangle 141423" width="10.112" height="11.688" transform="translate(20.225 0)" fill="none" stroke="#000" stroke-miterlimit="10" stroke-width="0.697"/>
              <rect id="Rectangle_141424" data-name="Rectangle 141424" width="10.112" height="11.688" transform="translate(30.267 0)" fill="#fcf7eb"/>
              <rect id="Rectangle_141425" data-name="Rectangle 141425" width="10.112" height="11.688" transform="translate(30.267 0)" fill="none" stroke="#000" stroke-miterlimit="10" stroke-width="0.697"/>
            </g>
            <g id="Group_21333" data-name="Group 21333" clip-path="url(#clip-path-2)">
              <path id="Path_128061" data-name="Path 128061" d="M276.821,130.116H248.158a5.858,5.858,0,1,1,0-11.716h28.663a5.858,5.858,0,1,1,0,11.716Z" transform="translate(-73.321 -35.828)" fill="none" stroke="#000" stroke-miterlimit="10" stroke-width="0.697"/>
              <path id="Path_128062" data-name="Path 128062" d="M307.593,281.319V194.842A23.642,23.642,0,0,0,283.951,171.2H183.526a23.642,23.642,0,0,0-23.642,23.642v86.477A39.961,39.961,0,0,0,187.5,350.292h92.545a39.961,39.961,0,0,0,27.547-68.973" transform="translate(-44.604 -51.805)" fill="#ff0d5b"/>
              <path id="Path_128063" data-name="Path 128063" d="M307.593,281.319V194.842A23.642,23.642,0,0,0,283.951,171.2H183.526a23.642,23.642,0,0,0-23.642,23.642v86.477A39.961,39.961,0,0,0,187.5,350.292h92.545a39.961,39.961,0,0,0,27.547-68.973Z" transform="translate(-44.604 -51.805)" fill="none" stroke="#000" stroke-miterlimit="10" stroke-width="0.697"/>
              <path id="Path_128064" data-name="Path 128064" d="M369.254,192.311v81.6a38.158,38.158,0,0,1,4.184,4.673V197.263A23.572,23.572,0,0,0,365,179.2a22.177,22.177,0,0,1,4.254,13.111" transform="translate(-110.45 -54.226)"/>
              <path id="Path_128065" data-name="Path 128065" d="M369.254,192.311v81.6a38.158,38.158,0,0,1,4.184,4.673V197.263A23.572,23.572,0,0,0,365,179.2a22.177,22.177,0,0,1,4.254,13.111Z" transform="translate(-110.45 -54.226)" fill="none" stroke="#000" stroke-miterlimit="10" stroke-width="0.697"/>
              <path id="Path_128066" data-name="Path 128066" d="M313.913,340.1a37.729,37.729,0,0,1-36.4,47.632H190.125a37.729,37.729,0,0,1-36.4-47.632,39.961,39.961,0,0,0,33.824,61.3h92.545a39.961,39.961,0,0,0,33.824-61.3" transform="translate(-44.647 -102.915)"/>
              <path id="Path_128067" data-name="Path 128067" d="M313.913,340.1a37.729,37.729,0,0,1-36.4,47.632H190.125a37.729,37.729,0,0,1-36.4-47.632,39.961,39.961,0,0,0,33.824,61.3h92.545a39.961,39.961,0,0,0,33.824-61.3Z" transform="translate(-44.647 -102.915)" fill="none" stroke="#000" stroke-miterlimit="10" stroke-width="0.697"/>
              <path id="Path_128068" data-name="Path 128068" d="M169.584,273.907v-81.6a22.177,22.177,0,0,1,4.254-13.111,23.572,23.572,0,0,0-8.439,18.063v81.386a38.15,38.15,0,0,1,4.184-4.673" transform="translate(-50.05 -54.226)"/>
              <path id="Path_128069" data-name="Path 128069" d="M169.584,273.907v-81.6a22.177,22.177,0,0,1,4.254-13.111,23.572,23.572,0,0,0-8.439,18.063v81.386a38.147,38.147,0,0,1,4.184-4.742Z" transform="translate(-50.05 -54.226)" fill="none" stroke="#000" stroke-miterlimit="10" stroke-width="0.697"/>
              <path id="Path_128070" data-name="Path 128070" d="M369.057,302.429A21.829,21.829,0,1,1,347.229,280.6a21.829,21.829,0,0,1,21.829,21.829" transform="translate(-98.467 -84.91)" fill="#00db96"/>
              <circle id="Ellipse_1023" data-name="Ellipse 1023" cx="21.829" cy="21.829" r="21.829" transform="translate(225.024 197.779) rotate(-5.7)" fill="none" stroke="#000" stroke-miterlimit="10" stroke-width="0.697"/>
              <path id="Path_128071" data-name="Path 128071" d="M201.4,171.3c.279,18.342,21.968,33.126,48.678,33.126s48.4-14.785,48.678-33.126Z" transform="translate(-60.944 -51.836)" fill="#00db96"/>
              <path id="Path_128072" data-name="Path 128072" d="M201.4,171.3c.279,18.342,21.968,33.126,48.678,33.126s48.4-14.785,48.678-33.126Z" transform="translate(-60.944 -51.836)" fill="none" stroke="#000" stroke-miterlimit="10" stroke-width="0.697"/>
              <path id="Path_128073" data-name="Path 128073" d="M180.6,173.5c5.579,10.182,7.462,24.2,4.184,38.845s-10.461,25.8-19.388,32.778V195.608a23.642,23.642,0,0,1,15.2-22.038" transform="translate(-50.05 -52.501)"/>
              <path id="Path_128074" data-name="Path 128074" d="M180.6,173.5c5.579,10.182,7.462,24.2,4.184,38.845s-10.461,25.8-19.388,32.778V195.608A23.642,23.642,0,0,1,180.6,173.5Z" transform="translate(-50.05 -52.501)" fill="none" stroke="#000" stroke-miterlimit="10" stroke-width="0.697"/>
              <path id="Path_128075" data-name="Path 128075" d="M241,21.683A29.221,29.221,0,0,1,258.226,14.5" transform="translate(-72.927 -4.388)" fill="none" stroke="#fcf7eb" stroke-linecap="round" stroke-miterlimit="10" stroke-width="6.974"/>
              <path id="Path_128076" data-name="Path 128076" d="M198.331,288.37c.07.837.139,1.674.139,2.511A26.71,26.71,0,0,1,147.7,302.387,26.71,26.71,0,1,0,198.331,288.3" transform="translate(-44.694 -87.24)"/>
              <path id="Path_128077" data-name="Path 128077" d="M198.331,288.37c.07.837.139,1.674.139,2.511A26.71,26.71,0,0,1,147.7,302.387,26.71,26.71,0,1,0,198.331,288.3Z" transform="translate(-44.694 -87.24)" fill="none" stroke="#000" stroke-miterlimit="10" stroke-width="0.697"/>
              <rect id="Rectangle_141426" data-name="Rectangle 141426" width="83.018" height="33.771" transform="matrix(0.821, -0.571, 0.571, 0.821, 23.379, 194.718)" fill="#8e0bfa"/>
              <rect id="Rectangle_141427" data-name="Rectangle 141427" width="83.018" height="33.771" transform="matrix(0.821, -0.571, 0.571, 0.821, 23.379, 194.718)" fill="none" stroke="#000" stroke-miterlimit="10" stroke-width="0.696"/>
              <rect id="Rectangle_141428" data-name="Rectangle 141428" width="83.018" height="7.633" transform="matrix(0.821, -0.571, 0.571, 0.821, 38.328, 216.161)"/>
              <rect id="Rectangle_141429" data-name="Rectangle 141429" width="83.018" height="7.633" transform="matrix(0.821, -0.571, 0.571, 0.821, 38.328, 216.161)" fill="none" stroke="#000" stroke-miterlimit="10" stroke-width="0.696"/>
              <path id="Path_128078" data-name="Path 128078" d="M.6,293.31A26.71,26.71,0,1,0,27.31,266.6,26.71,26.71,0,0,0,.6,293.31" transform="translate(-0.182 -80.674)" fill="#00db96"/>
              <circle id="Ellipse_1024" data-name="Ellipse 1024" cx="26.71" cy="26.71" r="26.71" transform="translate(0.349 185.926)" fill="none" stroke="#000" stroke-miterlimit="10" stroke-width="0.697"/>
              <path id="Path_128079" data-name="Path 128079" d="M51.361,288.37c.07.837.139,1.674.139,2.511A26.71,26.71,0,0,1,.8,302.387,26.71,26.71,0,1,0,51.431,288.3" transform="translate(-0.242 -87.24)"/>
              <path id="Path_128080" data-name="Path 128080" d="M51.361,288.37c.07.837.139,1.674.139,2.511A26.71,26.71,0,0,1,.8,302.387,26.71,26.71,0,1,0,51.431,288.3Z" transform="translate(-0.242 -87.24)" fill="none" stroke="#000" stroke-miterlimit="10" stroke-width="0.697"/>
              <path id="Path_128081" data-name="Path 128081" d="M59.6,322.524h77.9V288.7H69.224Z" transform="translate(-18.035 -87.361)" fill="#8e0bfa"/>
              <path id="Path_128082" data-name="Path 128082" d="M59.6,322.524h77.9V288.7H69.224Z" transform="translate(-18.035 -87.361)" fill="none" stroke="#000" stroke-miterlimit="10" stroke-width="0.697"/>
              <path id="Path_128083" data-name="Path 128083" d="M59.6,333.6h77.9v-8.3H61.762Z" transform="translate(-18.035 -98.436)"/>
              <path id="Path_128084" data-name="Path 128084" d="M59.6,333.6h77.9v-8.3H61.762Z" transform="translate(-18.035 -98.436)" fill="none" stroke="#000" stroke-miterlimit="10" stroke-width="0.697"/>
              <path id="Path_128085" data-name="Path 128085" d="M154.6,302.429A21.829,21.829,0,1,0,176.429,280.6,21.829,21.829,0,0,0,154.6,302.429" transform="translate(-46.782 -84.91)" fill="#00db96"/>
              <circle id="Ellipse_1025" data-name="Ellipse 1025" cx="21.829" cy="21.829" r="21.829" transform="translate(107.818 195.69)" fill="none" stroke="#000" stroke-miterlimit="10" stroke-width="0.697"/>
              <path id="Path_128086" data-name="Path 128086" d="M130.84,170.7a35.009,35.009,0,0,1,20.922,6.9,23.642,23.642,0,0,1,7.881-4.952c3.975,7.253,6.067,16.459,5.719,26.5a66.253,66.253,0,0,1-1.534,12.344,64.44,64.44,0,0,1-6.9,18.063,49.933,49.933,0,0,1-12.483,14.715v-5.928a35.149,35.149,0,1,1-13.6-67.648" transform="translate(-29.02 -51.654)" fill="#00db96"/>
              <path id="Path_128087" data-name="Path 128087" d="M130.84,170.7a35.009,35.009,0,0,1,20.922,6.9,23.642,23.642,0,0,1,7.881-4.952c3.975,7.253,6.067,16.459,5.719,26.5a66.253,66.253,0,0,1-1.534,12.344,64.44,64.44,0,0,1-6.9,18.063,49.933,49.933,0,0,1-12.483,14.715v-5.928a35.149,35.149,0,1,1-13.6-67.648Z" transform="translate(-29.02 -51.654)" fill="none" stroke="#000" stroke-miterlimit="10" stroke-width="0.697"/>
              <path id="Path_128088" data-name="Path 128088" d="M196.025,298.3c.07.7.07,1.395.07,2.092a21.829,21.829,0,0,1-41.5,9.415A21.829,21.829,0,1,0,196.025,298.3" transform="translate(-46.782 -90.266)"/>
              <path id="Path_128089" data-name="Path 128089" d="M196.025,298.3c.07.7.07,1.395.07,2.092a21.829,21.829,0,0,1-41.5,9.415A21.829,21.829,0,1,0,196.025,298.3Z" transform="translate(-46.782 -90.266)" fill="none" stroke="#000" stroke-miterlimit="10" stroke-width="0.697"/>
              <path id="Path_128090" data-name="Path 128090" d="M120,190.816a26.152,26.152,0,0,1,15.413-6.416" transform="translate(-36.312 -55.8)" fill="none" stroke="#fcf7eb" stroke-linecap="round" stroke-miterlimit="10" stroke-width="6.974"/>
              <path id="Path_128091" data-name="Path 128091" d="M19,284.719A23.433,23.433,0,0,1,32.808,279" transform="translate(-5.749 -84.426)" fill="none" stroke="#fcf7eb" stroke-linecap="round" stroke-miterlimit="10" stroke-width="6.974"/>
              <path id="Path_128092" data-name="Path 128092" d="M129.6,248.351a37.59,37.59,0,0,1-33.2-19.876,35.219,35.219,0,0,0,48.19,26.083v5.928A50,50,0,0,0,157,245.771a64.44,64.44,0,0,0,6.9-18.063q.349-1.6.628-3.208a37.66,37.66,0,0,1-34.94,23.851" transform="translate(-29.171 -67.934)"/>
              <path id="Path_128093" data-name="Path 128093" d="M129.6,248.351a37.59,37.59,0,0,1-33.2-19.876,35.219,35.219,0,0,0,48.19,26.083v5.928A50,50,0,0,0,157,245.771a64.44,64.44,0,0,0,6.9-18.063q.349-1.6.628-3.208a37.66,37.66,0,0,1-34.94,23.851Z" transform="translate(-29.171 -67.934)" fill="none" stroke="#000" stroke-miterlimit="10" stroke-width="0.697"/>
              <rect id="Rectangle_141430" data-name="Rectangle 141430" width="33.824" height="83.137" transform="translate(267.823 176.236) rotate(-55.6)" fill="#8e0bfa"/>
              <rect id="Rectangle_141431" data-name="Rectangle 141431" width="33.824" height="83.137" transform="translate(267.823 176.236) rotate(-55.6)" fill="none" stroke="#000" stroke-miterlimit="10" stroke-width="0.697"/>
              <rect id="Rectangle_141432" data-name="Rectangle 141432" width="7.671" height="83.137" transform="translate(267.742 176.248) rotate(-55.6)"/>
              <rect id="Rectangle_141433" data-name="Rectangle 141433" width="7.671" height="83.137" transform="translate(267.742 176.248) rotate(-55.6)" fill="none" stroke="#000" stroke-miterlimit="10" stroke-width="0.697"/>
              <path id="Path_128094" data-name="Path 128094" d="M518.821,293.31a26.71,26.71,0,1,1-26.71-26.71,26.71,26.71,0,0,1,26.71,26.71" transform="translate(-140.831 -80.674)" fill="#00db96"/>
              <circle id="Ellipse_1026" data-name="Ellipse 1026" cx="26.71" cy="26.71" r="26.71" transform="translate(324.569 185.926)" fill="none" stroke="#000" stroke-miterlimit="10" stroke-width="0.697"/>
              <path id="Path_128095" data-name="Path 128095" d="M468.037,288.37c-.07.837-.139,1.674-.139,2.511a26.71,26.71,0,0,0,50.771,11.507A26.71,26.71,0,1,1,468.037,288.3" transform="translate(-140.818 -87.24)"/>
              <path id="Path_128096" data-name="Path 128096" d="M468.037,288.37c-.07.837-.139,1.674-.139,2.511a26.71,26.71,0,0,0,50.771,11.507A26.71,26.71,0,1,1,468.037,288.3Z" transform="translate(-140.818 -87.24)" fill="none" stroke="#000" stroke-miterlimit="10" stroke-width="0.697"/>
              <path id="Path_128097" data-name="Path 128097" d="M449.2,322.524H371.3V288.7h68.275Z" transform="translate(-112.356 -87.361)" fill="#8e0bfa"/>
              <path id="Path_128098" data-name="Path 128098" d="M449.2,322.524H371.3V288.7h68.275Z" transform="translate(-112.356 -87.361)" fill="none" stroke="#000" stroke-miterlimit="10" stroke-width="0.697"/>
              <path id="Path_128099" data-name="Path 128099" d="M449.2,333.6H371.3v-8.3h75.737Z" transform="translate(-112.356 -98.436)"/>
              <path id="Path_128100" data-name="Path 128100" d="M449.2,333.6H371.3v-8.3h75.737Z" transform="translate(-112.356 -98.436)" fill="none" stroke="#000" stroke-miterlimit="10" stroke-width="0.697"/>
              <path id="Path_128101" data-name="Path 128101" d="M369.057,302.429A21.829,21.829,0,1,1,347.229,280.6a21.829,21.829,0,0,1,21.829,21.829" transform="translate(-98.467 -84.91)" fill="#00db96"/>
              <circle id="Ellipse_1027" data-name="Ellipse 1027" cx="21.829" cy="21.829" r="21.829" transform="translate(225.024 197.779) rotate(-5.7)" fill="none" stroke="#000" stroke-miterlimit="10" stroke-width="0.697"/>
              <path id="Path_128102" data-name="Path 128102" d="M381.6,170.7a35.009,35.009,0,0,0-20.922,6.9,23.642,23.642,0,0,0-7.881-4.952c-3.975,7.253-6.067,16.459-5.719,26.5a66.253,66.253,0,0,0,1.534,12.344,64.439,64.439,0,0,0,6.9,18.063,50,50,0,0,0,12.483,14.715v-5.928A35.149,35.149,0,1,0,381.6,170.7" transform="translate(-105.017 -51.654)" fill="#00db96"/>
              <path id="Path_128103" data-name="Path 128103" d="M381.6,170.7a35.009,35.009,0,0,0-20.922,6.9,23.642,23.642,0,0,0-7.881-4.952c-3.975,7.253-6.067,16.459-5.719,26.5a66.253,66.253,0,0,0,1.534,12.344,64.439,64.439,0,0,0,6.9,18.063,50,50,0,0,0,12.483,14.715v-5.928A35.149,35.149,0,1,0,381.6,170.7Z" transform="translate(-105.017 -51.654)" fill="none" stroke="#000" stroke-miterlimit="10" stroke-width="0.697"/>
              <path id="Path_128104" data-name="Path 128104" d="M327.676,298.3c-.07.7-.07,1.395-.07,2.092a21.829,21.829,0,0,0,41.5,9.415A21.829,21.829,0,1,1,327.675,298.3" transform="translate(-98.511 -90.266)"/>
              <path id="Path_128105" data-name="Path 128105" d="M327.676,298.3c-.07.7-.07,1.395-.07,2.092a21.829,21.829,0,0,0,41.5,9.415A21.829,21.829,0,1,1,327.675,298.3Z" transform="translate(-98.511 -90.266)" fill="none" stroke="#000" stroke-miterlimit="10" stroke-width="0.697"/>
              <path id="Path_128106" data-name="Path 128106" d="M517.608,284.719A23.433,23.433,0,0,0,503.8,279" transform="translate(-152.451 -84.426)" fill="none" stroke="#fcf7eb" stroke-linecap="round" stroke-miterlimit="10" stroke-width="6.974"/>
              <path id="Path_128107" data-name="Path 128107" d="M383.409,248.351a37.59,37.59,0,0,0,33.2-19.876,35.219,35.219,0,0,1-48.19,26.083v5.928a50,50,0,0,1-12.483-14.715,64.44,64.44,0,0,1-6.9-18.063q-.349-1.6-.628-3.208a37.659,37.659,0,0,0,35.009,23.851" transform="translate(-105.427 -67.934)"/>
              <path id="Path_128108" data-name="Path 128108" d="M383.409,248.351a37.59,37.59,0,0,0,33.2-19.876,35.219,35.219,0,0,1-48.19,26.083v5.928a50,50,0,0,1-12.483-14.715,64.44,64.44,0,0,1-6.9-18.063q-.349-1.6-.628-3.208A37.659,37.659,0,0,0,383.409,248.351Z" transform="translate(-105.427 -67.934)" fill="none" stroke="#000" stroke-miterlimit="10" stroke-width="0.697"/>
              <path id="Path_128109" data-name="Path 128109" d="M379.6,187.608a25.037,25.037,0,0,1,10.81-3.208" transform="translate(-114.868 -55.8)" fill="none" stroke="#fcf7eb" stroke-linecap="round" stroke-miterlimit="10" stroke-width="6.974"/>
              <path id="Path_128110" data-name="Path 128110" d="M286.8,335.968H188.951a14.436,14.436,0,0,1-6.625-1.6l-15.761-8.16a4.184,4.184,0,0,1,3.138-6.9H306.044a4.184,4.184,0,0,1,3.138,6.9l-15.761,8.16a14.437,14.437,0,0,1-6.625,1.6" transform="translate(-50.099 -96.621)"/>
              <path id="Path_128111" data-name="Path 128111" d="M286.8,335.968H188.951a14.436,14.436,0,0,1-6.625-1.6l-15.761-8.16a4.184,4.184,0,0,1,3.138-6.9H306.044a4.184,4.184,0,0,1,3.138,6.9l-15.761,8.16a14.437,14.437,0,0,1-6.625,1.6Z" transform="translate(-50.099 -96.621)" fill="none" stroke="#000" stroke-miterlimit="10" stroke-width="0.697"/>
              <path id="Path_128112" data-name="Path 128112" d="M291.626,312.214H196.361A10.461,10.461,0,0,1,185.9,301.753V251.261A10.461,10.461,0,0,1,196.361,240.8h95.265a10.461,10.461,0,0,1,10.461,10.461v50.492a10.461,10.461,0,0,1-10.461,10.461" transform="translate(-56.254 -72.867)" fill="#fdfb76"/>
              <rect id="Rectangle_141434" data-name="Rectangle 141434" width="116.186" height="71.407" rx="10.461" transform="translate(129.646 167.933)" fill="none" stroke="#000" stroke-miterlimit="10" stroke-width="0.697"/>
              <path id="Path_128113" data-name="Path 128113" d="M291.626,326.761H196.361A10.461,10.461,0,0,1,185.9,316.3v8.3a10.461,10.461,0,0,0,10.461,10.461h95.265A10.461,10.461,0,0,0,302.086,324.6v-8.3a10.461,10.461,0,0,1-10.461,10.461" transform="translate(-56.254 -95.713)"/>
              <path id="Path_128114" data-name="Path 128114" d="M291.626,326.761H196.361A10.461,10.461,0,0,1,185.9,316.3v8.3a10.461,10.461,0,0,0,10.461,10.461h95.265A10.461,10.461,0,0,0,302.086,324.6v-8.3a10.461,10.461,0,0,1-10.461,10.461Z" transform="translate(-56.254 -95.713)" fill="none" stroke="#000" stroke-miterlimit="10" stroke-width="0.697"/>
              <path id="Path_128115" data-name="Path 128115" d="M199.1,256.945c0-2.3,3-4.045,5.788-4.045h14.855" transform="translate(-60.248 -76.528)" fill="none" stroke="#fcf7eb" stroke-linecap="round" stroke-miterlimit="10" stroke-width="6.974"/>
              <path id="Path_128116" data-name="Path 128116" d="M276.4,279.545a10.252,10.252,0,1,0-15.622,8.717v6.067h10.74v-6.067a10.252,10.252,0,0,0,4.882-8.717" transform="translate(-77.435 -81.484)" fill="#fcf7eb"/>
              <path id="Path_128117" data-name="Path 128117" d="M276.4,279.545a10.252,10.252,0,1,0-15.622,8.717v6.067h10.74v-6.067A10.252,10.252,0,0,0,276.4,279.545Z" transform="translate(-77.435 -81.484)" fill="none" stroke="#000" stroke-miterlimit="10" stroke-width="0.697"/>
              <line id="Line_3439" data-name="Line 3439" y1="5.161" transform="translate(186.903 207.615)" fill="none" stroke="#000" stroke-miterlimit="10" stroke-width="0.697"/>
              <line id="Line_3440" data-name="Line 3440" y2="5.161" transform="translate(190.529 207.615)" fill="none" stroke="#000" stroke-miterlimit="10" stroke-width="0.697"/>
              <line id="Line_3441" data-name="Line 3441" y2="20.155" transform="translate(189.204 132.366)" fill="none" stroke="#000" stroke-linecap="round" stroke-miterlimit="10" stroke-width="0.697"/>
              <line id="Line_3442" data-name="Line 3442" y2="20.015" transform="translate(192.273 132.506)" fill="none" stroke="#000" stroke-linecap="round" stroke-miterlimit="10" stroke-width="0.697"/>
              <line id="Line_3443" data-name="Line 3443" y2="19.597" transform="translate(195.271 132.645)" fill="none" stroke="#000" stroke-linecap="round" stroke-miterlimit="10" stroke-width="0.697"/>
              <line id="Line_3444" data-name="Line 3444" y2="18.899" transform="translate(198.34 132.994)" fill="none" stroke="#000" stroke-linecap="round" stroke-miterlimit="10" stroke-width="0.697"/>
              <line id="Line_3445" data-name="Line 3445" y2="17.993" transform="translate(201.408 133.412)" fill="none" stroke="#000" stroke-linecap="round" stroke-miterlimit="10" stroke-width="0.697"/>
              <line id="Line_3446" data-name="Line 3446" y2="16.947" transform="translate(204.477 133.9)" fill="none" stroke="#000" stroke-linecap="round" stroke-miterlimit="10" stroke-width="0.697"/>
              <line id="Line_3447" data-name="Line 3447" y2="15.552" transform="translate(207.476 134.528)" fill="none" stroke="#000" stroke-linecap="round" stroke-miterlimit="10" stroke-width="0.697"/>
              <line id="Line_3448" data-name="Line 3448" y2="13.808" transform="translate(210.544 135.365)" fill="none" stroke="#000" stroke-linecap="round" stroke-miterlimit="10" stroke-width="0.697"/>
              <line id="Line_3449" data-name="Line 3449" y2="11.786" transform="translate(213.613 136.202)" fill="none" stroke="#000" stroke-linecap="round" stroke-miterlimit="10" stroke-width="0.697"/>
              <line id="Line_3450" data-name="Line 3450" y2="9.345" transform="translate(216.682 137.318)" fill="none" stroke="#000" stroke-linecap="round" stroke-miterlimit="10" stroke-width="0.697"/>
              <line id="Line_3451" data-name="Line 3451" y2="6.625" transform="translate(219.68 138.503)" fill="none" stroke="#000" stroke-linecap="round" stroke-miterlimit="10" stroke-width="0.697"/>
              <line id="Line_3452" data-name="Line 3452" y2="3.348" transform="translate(222.749 139.898)" fill="none" stroke="#000" stroke-linecap="round" stroke-miterlimit="10" stroke-width="0.697"/>
              <line id="Line_3453" data-name="Line 3453" y2="19.318" transform="translate(180.068 132.645)" fill="none" stroke="#000" stroke-linecap="round" stroke-miterlimit="10" stroke-width="0.697"/>
              <line id="Line_3454" data-name="Line 3454" y2="20.015" transform="translate(183.067 132.506)" fill="none" stroke="#000" stroke-linecap="round" stroke-miterlimit="10" stroke-width="0.697"/>
              <line id="Line_3455" data-name="Line 3455" y2="20.155" transform="translate(186.205 132.366)" fill="none" stroke="#000" stroke-linecap="round" stroke-miterlimit="10" stroke-width="0.697"/>
              <line id="Line_3456" data-name="Line 3456" y2="20.155" transform="translate(189.204 132.366)" fill="none" stroke="#000" stroke-linecap="round" stroke-miterlimit="10" stroke-width="0.697"/>
              <line id="Line_3457" data-name="Line 3457" y2="12.623" transform="translate(164.795 135.365)" fill="none" stroke="#000" stroke-linecap="round" stroke-miterlimit="10" stroke-width="0.697"/>
              <line id="Line_3458" data-name="Line 3458" y2="14.576" transform="translate(167.864 134.528)" fill="none" stroke="#000" stroke-linecap="round" stroke-miterlimit="10" stroke-width="0.697"/>
              <line id="Line_3459" data-name="Line 3459" y2="16.18" transform="translate(170.862 133.9)" fill="none" stroke="#000" stroke-linecap="round" stroke-miterlimit="10" stroke-width="0.697"/>
              <line id="Line_3460" data-name="Line 3460" y2="17.435" transform="translate(174.001 133.412)" fill="none" stroke="#000" stroke-linecap="round" stroke-miterlimit="10" stroke-width="0.697"/>
              <line id="Line_3461" data-name="Line 3461" y2="18.481" transform="translate(177 132.994)" fill="none" stroke="#000" stroke-linecap="round" stroke-miterlimit="10" stroke-width="0.697"/>
              <line id="Line_3462" data-name="Line 3462" y2="4.812" transform="translate(155.659 138.503)" fill="none" stroke="#000" stroke-linecap="round" stroke-miterlimit="10" stroke-width="0.697"/>
              <line id="Line_3463" data-name="Line 3463" y2="7.881" transform="translate(158.658 137.318)" fill="none" stroke="#000" stroke-linecap="round" stroke-miterlimit="10" stroke-width="0.697"/>
              <line id="Line_3464" data-name="Line 3464" y2="10.461" transform="translate(161.796 136.202)" fill="none" stroke="#000" stroke-linecap="round" stroke-miterlimit="10" stroke-width="0.697"/>
            </g>
          </g>
        </g>
      </g>
    </g>
  </g>
</svg>
