<svg id="Group_21345" data-name="Group 21345" xmlns="http://www.w3.org/2000/svg" xmlns:xlink="http://www.w3.org/1999/xlink" width="402" height="257.002" viewBox="0 0 402 257.002">
  <defs>
    <clipPath id="clip-path">
      <rect id="Rectangle_120588" data-name="Rectangle 120588" width="402" height="257.003" transform="translate(0 0)" fill="#fdfb76" stroke="#20211b" stroke-width="1"/>
    </clipPath>
    <clipPath id="clip-path-2">
      <rect id="Rectangle_141339" data-name="Rectangle 141339" width="331.555" height="367.416" fill="none"/>
    </clipPath>
  </defs>
  <g id="Group_4016" data-name="Group 4016" transform="translate(0 0)">
    <rect id="Rectangle_120587" data-name="Rectangle 120587" width="402" height="257.003" transform="translate(0)" fill="#8e0bfa"/>
    <g id="Mask_Group_3" data-name="Mask Group 3" transform="translate(0 0)" clip-path="url(#clip-path)">
      <g id="Artwork_50" data-name="Artwork 50" transform="translate(204.727 159.837)">
        <g id="Group_21322" data-name="Group 21322" transform="translate(-165.777 -183.708)">
          <path id="Path_127823" data-name="Path 127823" d="M263.938,21.942l-9.7,9.7-9.637-9.7L254.237,1.2Z" transform="translate(-88.492 -0.434)" fill="#fdfb76"/>
          <g id="Group_21320" data-name="Group 21320" clip-path="url(#clip-path-2)">
            <path id="Path_127824" data-name="Path 127824" d="M263.938,21.942l-9.7,9.7-9.637-9.7L254.237,1.2Z" transform="translate(-88.492 -0.434)" fill="none" stroke="#231f20" stroke-miterlimit="10" stroke-width="0.638"/>
          </g>
          <path id="Path_127825" data-name="Path 127825" d="M258.036,1.2l-.957,2.042,7.467,16.019L255.1,28.707l2.936,2.936,9.7-9.7Z" transform="translate(-92.29 -0.434)"/>
          <g id="Group_21321" data-name="Group 21321" clip-path="url(#clip-path-2)">
            <path id="Path_127826" data-name="Path 127826" d="M258.036,1.2l-.957,2.042,7.467,16.019L255.1,28.707l2.936,2.936,9.7-9.7Z" transform="translate(-92.29 -0.434)" fill="none" stroke="#231f20" stroke-miterlimit="10" stroke-width="0.638"/>
            <path id="Path_127827" data-name="Path 127827" d="M263.2,48.95a7.85,7.85,0,1,1-7.85-7.85,7.85,7.85,0,0,1,7.85,7.85" transform="translate(-89.541 -14.869)" fill="#fdfb76"/>
            <path id="Path_127828" data-name="Path 127828" d="M263.2,48.95a7.85,7.85,0,1,1-7.85-7.85A7.85,7.85,0,0,1,263.2,48.95Z" transform="translate(-89.541 -14.869)" fill="none" stroke="#231f20" stroke-miterlimit="10" stroke-width="0.638"/>
            <path id="Path_127829" data-name="Path 127829" d="M261.313,45.5A7.85,7.85,0,0,1,247.4,50.35q0,.1,0,.191A7.85,7.85,0,1,0,261.313,45.5" transform="translate(-89.505 -16.461)"/>
            <path id="Path_127830" data-name="Path 127830" d="M261.313,45.5A7.85,7.85,0,0,1,247.4,50.35q0,.1,0,.191A7.85,7.85,0,1,0,261.313,45.5Z" transform="translate(-89.505 -16.461)" fill="none" stroke="#231f20" stroke-miterlimit="10" stroke-width="0.638"/>
            <path id="Path_127831" data-name="Path 127831" d="M196.3,144.7H129.481a18.7,18.7,0,0,0-30.954,19.466,18.764,18.764,0,0,0-3.51,35.038,23.04,23.04,0,0,0,31.528,33.506,33.826,33.826,0,0,0,61.78-7.467h7.914Z" transform="translate(-30.557 -50.309)" fill="#8e0bfa"/>
            <path id="Path_127832" data-name="Path 127832" d="M196.3,144.7H129.481a18.7,18.7,0,0,0-30.954,19.466,18.764,18.764,0,0,0-3.51,35.038,23.04,23.04,0,0,0,31.528,33.506,33.826,33.826,0,0,0,61.78-7.467h7.914Z" transform="translate(-30.557 -50.309)" fill="none" stroke="#231f20" stroke-miterlimit="10" stroke-width="0.638"/>
            <path id="Path_127833" data-name="Path 127833" d="M259.7,144.7h66.821a18.7,18.7,0,0,1,30.954,19.466,18.764,18.764,0,0,1,3.51,35.038,23.04,23.04,0,0,1-31.528,33.506,33.826,33.826,0,0,1-61.78-7.467H259.7Z" transform="translate(-93.955 -50.309)" fill="#8e0bfa"/>
            <path id="Path_127834" data-name="Path 127834" d="M259.7,144.7h66.821a18.7,18.7,0,0,1,30.954,19.466,18.764,18.764,0,0,1,3.51,35.038,23.04,23.04,0,0,1-31.528,33.506,33.826,33.826,0,0,1-61.78-7.467H259.7Z" transform="translate(-93.955 -50.309)" fill="none" stroke="#231f20" stroke-miterlimit="10" stroke-width="0.638"/>
            <path id="Path_127835" data-name="Path 127835" d="M402.571,163a18.7,18.7,0,0,0-8.871-23.1,18.7,18.7,0,0,1,12.637,24.508,18.637,18.637,0,0,0-3.7-1.4" transform="translate(-142.433 -50.613)"/>
            <path id="Path_127836" data-name="Path 127836" d="M402.571,163a18.7,18.7,0,0,0-8.871-23.1,18.7,18.7,0,0,1,12.637,24.508,18.635,18.635,0,0,0-3.766-1.4Z" transform="translate(-142.433 -50.613)" fill="none" stroke="#231f20" stroke-linejoin="round" stroke-width="0.638"/>
            <path id="Path_127837" data-name="Path 127837" d="M384.446,251.6a23.04,23.04,0,0,0,15.892-39.633,18.764,18.764,0,0,0,.383-33.57,18.764,18.764,0,0,1,3.319,34.974A23.04,23.04,0,0,1,378,250.71a22.976,22.976,0,0,0,6.446.894" transform="translate(-136.753 -64.542)"/>
            <path id="Path_127838" data-name="Path 127838" d="M384.446,251.6a23.04,23.04,0,0,0,15.892-39.633,18.764,18.764,0,0,0,.383-33.57,18.764,18.764,0,0,1,3.319,34.974A23.04,23.04,0,0,1,378,250.71a22.976,22.976,0,0,0,6.446.894Z" transform="translate(-136.753 -64.542)" fill="none" stroke="#231f20" stroke-linejoin="round" stroke-width="0.638"/>
            <path id="Path_127839" data-name="Path 127839" d="M264.412,271.8l.447,1.468H260.2V271.8Z" transform="translate(-94.136 -98.332)"/>
            <path id="Path_127840" data-name="Path 127840" d="M264.412,271.8l.447,1.468H260.2V271.8Z" transform="translate(-94.136 -98.332)" fill="none" stroke="#231f20" stroke-linejoin="round" stroke-width="0.638"/>
            <path id="Path_127841" data-name="Path 127841" d="M311.767,300.477A33.826,33.826,0,0,0,341.061,283.5a23.165,23.165,0,0,0,3.127,2.425A33.826,33.826,0,0,1,301.3,298.817a33.761,33.761,0,0,0,10.4,1.659" transform="translate(-109.005 -102.565)"/>
            <path id="Path_127842" data-name="Path 127842" d="M311.767,300.477A33.826,33.826,0,0,0,341.061,283.5a23.165,23.165,0,0,0,3.127,2.425A33.826,33.826,0,0,1,301.3,298.817,33.763,33.763,0,0,0,311.767,300.477Z" transform="translate(-109.005 -102.565)" fill="none" stroke="#231f20" stroke-linejoin="round" stroke-width="0.638"/>
            <path id="Path_127843" data-name="Path 127843" d="M109.512,163a18.7,18.7,0,0,1,8.871-23.1,18.7,18.7,0,0,0-12.637,24.508,18.637,18.637,0,0,1,3.7-1.4" transform="translate(-37.84 -50.613)"/>
            <path id="Path_127844" data-name="Path 127844" d="M109.512,163a18.7,18.7,0,0,1,8.871-23.1,18.7,18.7,0,0,0-12.637,24.508,18.636,18.636,0,0,1,3.765-1.4Z" transform="translate(-37.84 -50.613)" fill="none" stroke="#231f20" stroke-linejoin="round" stroke-width="0.638"/>
            <path id="Path_127845" data-name="Path 127845" d="M114.72,251.6A23.04,23.04,0,0,1,98.828,211.97a18.764,18.764,0,0,1-.383-33.57,18.764,18.764,0,0,0-3.319,34.974,23.04,23.04,0,0,0,26.039,37.272,22.976,22.976,0,0,1-6.446.894" transform="translate(-30.603 -64.542)"/>
            <path id="Path_127846" data-name="Path 127846" d="M114.72,251.6A23.04,23.04,0,0,1,98.828,211.97a18.764,18.764,0,0,1-.383-33.57,18.764,18.764,0,0,0-3.319,34.974,23.04,23.04,0,0,0,26.039,37.272,22.976,22.976,0,0,1-6.446.957Z" transform="translate(-30.603 -64.542)" fill="none" stroke="#231f20" stroke-linejoin="round" stroke-width="0.638"/>
            <path id="Path_127847" data-name="Path 127847" d="M252.847,271.8l-.447,1.468h4.659V271.8Z" transform="translate(-91.314 -98.332)"/>
            <path id="Path_127848" data-name="Path 127848" d="M252.847,271.8l-.447,1.468h4.659V271.8Z" transform="translate(-91.314 -98.332)" fill="none" stroke="#231f20" stroke-linejoin="round" stroke-width="0.638"/>
            <path id="Path_127849" data-name="Path 127849" d="M183.822,300.477A33.825,33.825,0,0,1,154.527,283.5a23.231,23.231,0,0,1-3.127,2.425,33.826,33.826,0,0,0,42.888,12.892,33.761,33.761,0,0,1-10.4,1.659" transform="translate(-54.774 -102.565)"/>
            <path id="Path_127850" data-name="Path 127850" d="M183.822,300.477A33.825,33.825,0,0,1,154.527,283.5a23.231,23.231,0,0,1-3.127,2.425,33.826,33.826,0,0,0,42.888,12.892A33.762,33.762,0,0,1,183.822,300.477Z" transform="translate(-54.774 -102.565)" fill="none" stroke="#231f20" stroke-linejoin="round" stroke-width="0.638"/>
            <path id="Path_127851" data-name="Path 127851" d="M167.237,163.765a15.507,15.507,0,0,0,0-1.978V148.065H156.578a15.509,15.509,0,1,0,10.658,15.764h0Z" transform="translate(-49.294 -53.289)" fill="#ff3c1d"/>
            <path id="Path_127852" data-name="Path 127852" d="M167.237,163.765a15.507,15.507,0,0,0,0-1.978V148.065H156.578a15.509,15.509,0,1,0,10.658,15.764h0Z" transform="translate(-49.294 -53.289)" fill="none" stroke="#231f20" stroke-miterlimit="10" stroke-width="0.638"/>
            <path id="Path_127853" data-name="Path 127853" d="M351.9,147.34a15.444,15.444,0,0,0-6.127.511H334.6v14.87h0a15.509,15.509,0,1,0,17.232-15.445" transform="translate(-121.052 -53.267)" fill="#ff3c1d"/>
            <path id="Path_127854" data-name="Path 127854" d="M351.9,147.34a15.444,15.444,0,0,0-6.127.511H334.6v14.87h0a15.509,15.509,0,1,0,17.232-15.445Z" transform="translate(-121.052 -53.267)" fill="none" stroke="#231f20" stroke-miterlimit="10" stroke-width="0.638"/>
            <path id="Path_127855" data-name="Path 127855" d="M167.272,165.8h0a15.509,15.509,0,0,1-30.826,1.34,15.507,15.507,0,1,0,30.829,3.383h0a15.507,15.507,0,0,0,0-1.978Z" transform="translate(-49.33 -59.983)"/>
            <path id="Path_127856" data-name="Path 127856" d="M167.272,165.8h0a15.509,15.509,0,0,1-30.826,1.34,15.507,15.507,0,1,0,30.829,3.383h0a15.507,15.507,0,0,0,0-1.978Z" transform="translate(-49.33 -59.983)" fill="none" stroke="#231f20" stroke-miterlimit="10" stroke-width="0.638"/>
            <path id="Path_127857" data-name="Path 127857" d="M348.385,179.545A15.509,15.509,0,0,1,334.6,164.1h0v4.723h0a15.509,15.509,0,1,0,30.89-2.361,15.509,15.509,0,0,1-17.04,13.083" transform="translate(-121.052 -59.368)"/>
            <path id="Path_127858" data-name="Path 127858" d="M348.385,179.545A15.509,15.509,0,0,1,334.6,164.1h0v4.723h0a15.509,15.509,0,1,0,30.89-2.361A15.509,15.509,0,0,1,348.385,179.545Z" transform="translate(-121.052 -59.368)" fill="none" stroke="#231f20" stroke-miterlimit="10" stroke-width="0.638"/>
            <path id="Path_127859" data-name="Path 127859" d="M284.579,149.865c0,22.721-25.72,41.165-57.44,41.165s-57.44-18.445-57.44-41.165S195.42,108.7,227.14,108.7s57.44,18.445,57.44,41.165" transform="translate(-61.394 -39.326)" fill="#ff3c1d"/>
            <ellipse id="Ellipse_1017" data-name="Ellipse 1017" cx="57.44" cy="41.165" rx="57.44" ry="41.165" transform="translate(108.306 69.374)" fill="none" stroke="#231f20" stroke-miterlimit="10" stroke-width="0.638"/>
            <path id="Path_127860" data-name="Path 127860" d="M227.1,208.3c-30.634,0-55.653-17.168-57.376-38.8-.064.766-.128,1.6-.128,2.361,0,22.721,25.72,41.165,57.44,41.165s57.44-18.445,57.44-41.165c0-.766-.064-1.6-.064-2.361-1.723,21.636-26.741,38.8-57.376,38.8" transform="translate(-61.358 -61.322)"/>
            <path id="Path_127861" data-name="Path 127861" d="M227.1,208.3c-30.634,0-55.653-17.168-57.376-38.8-.064.766-.128,1.6-.128,2.361,0,22.721,25.72,41.165,57.44,41.165s57.44-18.445,57.44-41.165c0-.766-.064-1.6-.064-2.361C282.756,191.136,257.738,208.3,227.1,208.3Z" transform="translate(-61.358 -61.322)" fill="none" stroke="#231f20" stroke-miterlimit="10" stroke-width="0.638"/>
            <path id="Path_127862" data-name="Path 127862" d="M261.3,155.4a3.7,3.7,0,1,1-3.7-3.7,3.7,3.7,0,0,1,3.7,3.7" transform="translate(-91.856 -54.882)"/>
            <circle id="Ellipse_1018" data-name="Ellipse 1018" cx="3.702" cy="3.702" r="3.702" transform="translate(160.911 98.535) rotate(-22.5)" fill="none" stroke="#231f20" stroke-miterlimit="10" stroke-width="0.638"/>
            <path id="Path_127863" data-name="Path 127863" d="M263.342,194.471a9.573,9.573,0,0,1-3.383-.638,49.526,49.526,0,0,0-34.911,0,9.584,9.584,0,1,1-6.765-17.934,68.672,68.672,0,0,1,48.441,0,9.573,9.573,0,0,1-3.383,18.508" transform="translate(-76.726 -62.04)" fill="#8e0bfa"/>
            <path id="Path_127864" data-name="Path 127864" d="M263.342,194.471a9.573,9.573,0,0,1-3.383-.638,49.526,49.526,0,0,0-34.911,0,9.584,9.584,0,1,1-6.765-17.934,68.672,68.672,0,0,1,48.441,0,9.573,9.573,0,0,1-3.383,18.508Z" transform="translate(-76.726 -62.04)" fill="none" stroke="#231f20" stroke-miterlimit="10" stroke-width="0.638"/>
            <path id="Path_127865" data-name="Path 127865" d="M268.776,190.348a59.1,59.1,0,0,0-41.676,0" transform="translate(-82.161 -67.491)" fill="none" stroke="#231f20" stroke-linecap="round" stroke-miterlimit="10" stroke-width="0.638"/>
            <path id="Path_127866" data-name="Path 127866" d="M141.191,157.743a1.915,1.915,0,0,1-1.4-.383l-5.17-4.148a1.915,1.915,0,1,1,2.361-3l5.17,4.148a1.915,1.915,0,0,1-.957,3.383" transform="translate(-48.394 -54.16)" fill="#fdfb76"/>
            <path id="Path_127867" data-name="Path 127867" d="M141.191,157.743a1.915,1.915,0,0,1-1.4-.383l-5.17-4.148a1.915,1.915,0,1,1,2.361-3l5.17,4.148a1.915,1.915,0,0,1-.957,3.383Z" transform="translate(-48.394 -54.16)" fill="none" stroke="#231f20" stroke-miterlimit="10" stroke-width="0.638"/>
            <path id="Path_127868" data-name="Path 127868" d="M147.137,151.85a1.915,1.915,0,0,1-1.213-.83l-3.638-5.552a1.915,1.915,0,1,1,3.191-2.106l3.574,5.552a1.915,1.915,0,0,1-1.978,2.936" transform="translate(-51.34 -51.522)" fill="#fdfb76"/>
            <path id="Path_127869" data-name="Path 127869" d="M147.137,151.85a1.915,1.915,0,0,1-1.213-.83l-3.638-5.552a1.915,1.915,0,1,1,3.191-2.106l3.574,5.552a1.915,1.915,0,0,1-1.978,2.936Z" transform="translate(-51.34 -51.522)" fill="none" stroke="#231f20" stroke-miterlimit="10" stroke-width="0.638"/>
            <path id="Path_127870" data-name="Path 127870" d="M262.5,83.575h0C259.757,68.9,242.206,57.6,221.017,57.6s-38.74,11.3-41.484,25.975c-3,18.317-13.977,31.847-26.933,31.911H289.434c-13.02,0-23.933-13.594-26.933-31.911" transform="translate(-55.208 -20.839)" fill="#00db96"/>
            <path id="Path_127871" data-name="Path 127871" d="M262.5,83.575h0C259.757,68.9,242.206,57.6,221.017,57.6s-38.74,11.3-41.484,25.975c-3,18.317-13.977,31.847-26.933,31.911H289.434C276.414,115.486,265.5,101.892,262.5,83.575Z" transform="translate(-55.208 -20.839)" fill="none" stroke="#231f20" stroke-miterlimit="10" stroke-width="0.638"/>
            <path id="Path_127872" data-name="Path 127872" d="M276.789,110.891a29.106,29.106,0,0,1-3.957-3.7c-5.106-5.744-8.807-14.041-10.4-23.614C261.216,77,257,71.13,250.877,66.663c-7.595-5.616-18.253-9.063-30-9.063h-2.553c20.04.894,36.315,11.871,38.931,25.912,1.978,11.935,7.276,21.891,14.36,27.316H164.973a20.487,20.487,0,0,1-12.573,4.6H289.362a20.423,20.423,0,0,1-12.573-4.6" transform="translate(-55.136 -20.839)"/>
            <path id="Path_127873" data-name="Path 127873" d="M276.789,110.891a29.106,29.106,0,0,1-3.957-3.7c-5.106-5.744-8.807-14.041-10.4-23.614C261.216,77,257,71.13,250.877,66.663c-7.595-5.616-18.253-9.063-30-9.063h-2.553c20.04.894,36.315,11.871,38.931,25.912,1.978,11.935,7.276,21.891,14.36,27.316H164.973a20.487,20.487,0,0,1-12.573,4.6H289.362A20.423,20.423,0,0,1,276.789,110.891Z" transform="translate(-55.136 -20.839)" fill="none" stroke="#231f20" stroke-miterlimit="10" stroke-width="0.638"/>
            <path id="Path_127874" data-name="Path 127874" d="M261.184,248.923H231.762a8.712,8.712,0,0,1,0-17.423h29.422a8.712,8.712,0,0,1,0,17.423" transform="translate(-80.695 -83.752)" fill="#fdfb76"/>
            <path id="Path_127875" data-name="Path 127875" d="M261.184,248.923H231.762a8.712,8.712,0,0,1,0-17.423h29.422a8.712,8.712,0,0,1,0,17.423Z" transform="translate(-80.695 -83.752)" fill="none" stroke="#231f20" stroke-miterlimit="10" stroke-width="0.638"/>
            <path id="Path_127876" data-name="Path 127876" d="M233.9,241.142a6.829,6.829,0,0,1,4.85-2.042" transform="translate(-84.621 -86.502)" fill="#fdfb76"/>
            <path id="Path_127877" data-name="Path 127877" d="M233.9,241.142a6.829,6.829,0,0,1,4.85-2.042" transform="translate(-84.621 -86.502)" fill="none" stroke="#fcf7eb" stroke-linecap="round" stroke-miterlimit="10" stroke-width="6.382"/>
            <path id="Path_127878" data-name="Path 127878" d="M232.612,246.8a8.68,8.68,0,0,0-7.212,3.829,8.68,8.68,0,0,0,7.212,3.829h29.422a8.68,8.68,0,0,0,7.212-3.829,8.68,8.68,0,0,0-7.212-3.829Z" transform="translate(-81.546 -89.288)"/>
            <path id="Path_127879" data-name="Path 127879" d="M232.612,246.8a8.68,8.68,0,0,0-7.212,3.829,8.68,8.68,0,0,0,7.212,3.829h29.422a8.68,8.68,0,0,0,7.212-3.829,8.68,8.68,0,0,0-7.212-3.829Z" transform="translate(-81.546 -89.288)" fill="none" stroke="#231f20" stroke-miterlimit="10" stroke-width="0.638"/>
            <path id="Path_127880" data-name="Path 127880" d="M261.184,270.623H231.762a8.712,8.712,0,1,1,0-17.423h29.422a8.712,8.712,0,0,1,0,17.423" transform="translate(-80.695 -91.603)" fill="#fdfb76"/>
            <path id="Path_127881" data-name="Path 127881" d="M261.184,270.623H231.762a8.712,8.712,0,1,1,0-17.423h29.422a8.712,8.712,0,0,1,0,17.423Z" transform="translate(-80.695 -91.603)" fill="none" stroke="#231f20" stroke-miterlimit="10" stroke-width="0.638"/>
            <path id="Path_127882" data-name="Path 127882" d="M233.9,262.642a6.829,6.829,0,0,1,4.85-2.042" transform="translate(-84.621 -94.28)" fill="#fdfb76"/>
            <path id="Path_127883" data-name="Path 127883" d="M233.9,262.642a6.829,6.829,0,0,1,4.85-2.042" transform="translate(-84.621 -94.28)" fill="none" stroke="#fcf7eb" stroke-linecap="round" stroke-miterlimit="10" stroke-width="6.382"/>
            <path id="Path_127884" data-name="Path 127884" d="M232.612,267.9a8.68,8.68,0,0,0-7.212,3.829,8.68,8.68,0,0,0,7.212,3.829h29.422a8.68,8.68,0,0,0,7.212-3.829,8.68,8.68,0,0,0-7.212-3.829Z" transform="translate(-81.546 -96.921)"/>
            <path id="Path_127885" data-name="Path 127885" d="M232.612,267.9a8.68,8.68,0,0,0-7.212,3.829,8.68,8.68,0,0,0,7.212,3.829h29.422a8.68,8.68,0,0,0,7.212-3.829,8.68,8.68,0,0,0-7.212-3.829Z" transform="translate(-81.546 -96.921)" fill="none" stroke="#231f20" stroke-miterlimit="10" stroke-width="0.638"/>
            <path id="Path_127886" data-name="Path 127886" d="M288.7,378.186H415.259a20.328,20.328,0,0,0,16.083-32.8L370.966,267.2l-27.252,21.061,42.824,55.461H288.7Z" transform="translate(-104.446 -96.668)" fill="#ff0d5b"/>
            <path id="Path_127887" data-name="Path 127887" d="M288.7,378.186H415.259a20.328,20.328,0,0,0,16.083-32.8L370.966,267.2l-27.252,21.061,42.824,55.461H288.7Z" transform="translate(-104.446 -96.668)" fill="none" stroke="#231f20" stroke-miterlimit="10" stroke-width="0.638"/>
            <line id="Line_3328" data-name="Line 3328" x2="46.973" y2="23.04" transform="translate(282.093 247.054)" fill="#ff0d5b"/>
            <line id="Line_3329" data-name="Line 3329" x2="46.973" y2="23.04" transform="translate(282.093 247.054)" fill="none" stroke="#231f20" stroke-miterlimit="10" stroke-width="0.638"/>
            <line id="Line_3330" data-name="Line 3330" x2="28.72" y2="34.464" transform="translate(282.093 247.054)" fill="#ff0d5b"/>
            <line id="Line_3331" data-name="Line 3331" x2="28.72" y2="34.464" transform="translate(282.093 247.054)" fill="none" stroke="#231f20" stroke-miterlimit="10" stroke-width="0.638"/>
            <line id="Line_3332" data-name="Line 3332" x2="44.803" y2="1.596" transform="translate(282.093 247.054)" fill="#ff0d5b"/>
            <line id="Line_3333" data-name="Line 3333" x2="44.803" y2="1.596" transform="translate(282.093 247.054)" fill="none" stroke="#231f20" stroke-miterlimit="10" stroke-width="0.638"/>
            <line id="Line_3334" data-name="Line 3334" x1="28.72" y1="34.464" transform="translate(282.093 247.054)" fill="#ff0d5b"/>
            <line id="Line_3335" data-name="Line 3335" x1="28.72" y1="34.464" transform="translate(282.093 247.054)" fill="none" stroke="#231f20" stroke-miterlimit="10" stroke-width="0.638"/>
            <line id="Line_3336" data-name="Line 3336" x2="6.957" y2="34.528" transform="translate(282.093 247.054)" fill="#ff0d5b"/>
            <line id="Line_3337" data-name="Line 3337" x2="6.957" y2="34.528" transform="translate(282.093 247.054)" fill="none" stroke="#231f20" stroke-miterlimit="10" stroke-width="0.638"/>
            <line id="Line_3338" data-name="Line 3338" y2="34.464" transform="translate(268.243 247.054)" fill="#ff0d5b"/>
            <line id="Line_3339" data-name="Line 3339" y2="34.464" transform="translate(268.243 247.054)" fill="none" stroke="#231f20" stroke-miterlimit="10" stroke-width="0.638"/>
            <line id="Line_3340" data-name="Line 3340" y2="34.464" transform="translate(246.927 247.054)" fill="#ff0d5b"/>
            <line id="Line_3341" data-name="Line 3341" y2="34.464" transform="translate(246.927 247.054)" fill="none" stroke="#231f20" stroke-miterlimit="10" stroke-width="0.638"/>
            <line id="Line_3342" data-name="Line 3342" y2="34.464" transform="translate(225.419 247.054)" fill="#ff0d5b"/>
            <line id="Line_3343" data-name="Line 3343" y2="34.464" transform="translate(225.419 247.054)" fill="none" stroke="#231f20" stroke-miterlimit="10" stroke-width="0.638"/>
            <line id="Line_3344" data-name="Line 3344" y1="17.615" x2="30.507" transform="translate(281.646 229.567)" fill="#ff0d5b"/>
            <line id="Line_3345" data-name="Line 3345" y1="17.615" x2="30.507" transform="translate(281.646 229.567)" fill="none" stroke="#231f20" stroke-miterlimit="10" stroke-width="0.638"/>
            <line id="Line_3346" data-name="Line 3346" y1="19.21" x2="28.656" transform="translate(270.222 212.335)" fill="#ff0d5b"/>
            <line id="Line_3347" data-name="Line 3347" y1="19.21" x2="28.656" transform="translate(270.222 212.335)" fill="none" stroke="#231f20" stroke-miterlimit="10" stroke-width="0.638"/>
            <path id="Path_127888" data-name="Path 127888" d="M428.388,358.519l-39-50.419-3.893,3.063,36.634,47.356Z" transform="translate(-139.467 -111.465)"/>
            <path id="Path_127889" data-name="Path 127889" d="M428.388,358.519l-39-50.419-3.893,3.063,36.634,47.356Z" transform="translate(-139.467 -111.465)" fill="none" stroke="#000" stroke-miterlimit="10" stroke-width="0.638"/>
            <path id="Path_127890" data-name="Path 127890" d="M338.4,262.789A36.889,36.889,0,1,0,375.289,225.9,36.889,36.889,0,0,0,338.4,262.789" transform="translate(-122.427 -81.726)" fill="#fdfb76"/>
            <circle id="Ellipse_1019" data-name="Ellipse 1019" cx="36.889" cy="36.889" r="36.889" transform="translate(215.973 144.174)" fill="none" stroke="#231f20" stroke-miterlimit="10" stroke-width="0.638"/>
            <path id="Path_127891" data-name="Path 127891" d="M401.347,238A36.889,36.889,0,0,1,347.8,287.334,36.889,36.889,0,1,0,401.347,238" transform="translate(-125.828 -86.104)"/>
            <path id="Path_127892" data-name="Path 127892" d="M401.347,238A36.889,36.889,0,0,1,347.8,287.334,36.889,36.889,0,1,0,401.347,238Z" transform="translate(-125.828 -86.104)" fill="none" stroke="#231f20" stroke-miterlimit="10" stroke-width="0.638"/>
            <path id="Path_127893" data-name="Path 127893" d="M147.416,378.15H20.921A20.414,20.414,0,0,1,4.774,345.282L65.214,267.1l27.252,21.061L49.641,343.686h97.775Z" transform="translate(-0.179 -96.632)" fill="#00db96"/>
            <path id="Path_127894" data-name="Path 127894" d="M147.416,378.15H20.921A20.414,20.414,0,0,1,4.774,345.282L65.214,267.1l27.252,21.061L49.641,343.686h97.775Z" transform="translate(-0.179 -96.632)" fill="none" stroke="#231f20" stroke-miterlimit="10" stroke-width="0.638"/>
            <line id="Line_3348" data-name="Line 3348" x1="47.037" y2="23.04" transform="translate(2.425 247.054)" fill="#00db96"/>
            <line id="Line_3349" data-name="Line 3349" x1="47.037" y2="23.04" transform="translate(2.425 247.054)" fill="none" stroke="#231f20" stroke-miterlimit="10" stroke-width="0.638"/>
            <line id="Line_3350" data-name="Line 3350" x1="28.72" y2="34.464" transform="translate(20.742 247.054)" fill="#00db96"/>
            <line id="Line_3351" data-name="Line 3351" x1="28.72" y2="34.464" transform="translate(20.742 247.054)" fill="none" stroke="#231f20" stroke-miterlimit="10" stroke-width="0.638"/>
            <line id="Line_3352" data-name="Line 3352" x1="44.867" y2="1.596" transform="translate(4.595 247.054)" fill="#00db96"/>
            <line id="Line_3353" data-name="Line 3353" x1="44.867" y2="1.596" transform="translate(4.595 247.054)" fill="none" stroke="#231f20" stroke-miterlimit="10" stroke-width="0.638"/>
            <line id="Line_3354" data-name="Line 3354" y1="34.464" x2="28.72" transform="translate(20.742 247.054)" fill="#00db96"/>
            <line id="Line_3355" data-name="Line 3355" y1="34.464" x2="28.72" transform="translate(20.742 247.054)" fill="none" stroke="#231f20" stroke-miterlimit="10" stroke-width="0.638"/>
            <line id="Line_3356" data-name="Line 3356" x1="7.02" y2="34.528" transform="translate(42.442 247.054)" fill="#00db96"/>
            <line id="Line_3357" data-name="Line 3357" x1="7.02" y2="34.528" transform="translate(42.442 247.054)" fill="none" stroke="#231f20" stroke-miterlimit="10" stroke-width="0.638"/>
            <line id="Line_3358" data-name="Line 3358" y2="34.464" transform="translate(63.311 247.054)" fill="#00db96"/>
            <line id="Line_3359" data-name="Line 3359" y2="34.464" transform="translate(63.311 247.054)" fill="none" stroke="#231f20" stroke-miterlimit="10" stroke-width="0.638"/>
            <line id="Line_3360" data-name="Line 3360" y2="34.464" transform="translate(84.564 247.054)" fill="#00db96"/>
            <line id="Line_3361" data-name="Line 3361" y2="34.464" transform="translate(84.564 247.054)" fill="none" stroke="#231f20" stroke-miterlimit="10" stroke-width="0.638"/>
            <line id="Line_3362" data-name="Line 3362" y2="34.464" transform="translate(106.136 247.054)" fill="#00db96"/>
            <line id="Line_3363" data-name="Line 3363" y2="34.464" transform="translate(106.136 247.054)" fill="none" stroke="#231f20" stroke-miterlimit="10" stroke-width="0.638"/>
            <line id="Line_3364" data-name="Line 3364" x1="30.443" y1="17.615" transform="translate(19.402 229.567)" fill="#00db96"/>
            <line id="Line_3365" data-name="Line 3365" x1="30.443" y1="17.615" transform="translate(19.402 229.567)" fill="none" stroke="#231f20" stroke-miterlimit="10" stroke-width="0.638"/>
            <line id="Line_3366" data-name="Line 3366" x1="28.592" y1="19.21" transform="translate(32.677 212.335)" fill="#00db96"/>
            <line id="Line_3367" data-name="Line 3367" x1="28.592" y1="19.21" transform="translate(32.677 212.335)" fill="none" stroke="#231f20" stroke-miterlimit="10" stroke-width="0.638"/>
            <path id="Path_127895" data-name="Path 127895" d="M66.8,358.519,105.731,308.1l3.893,3.063-36.57,47.356Z" transform="translate(-24.167 -111.465)"/>
            <path id="Path_127896" data-name="Path 127896" d="M66.8,358.519,105.731,308.1l3.893,3.063-36.57,47.356Z" transform="translate(-24.167 -111.465)" fill="none" stroke="#000" stroke-miterlimit="10" stroke-width="0.638"/>
            <path id="Path_127897" data-name="Path 127897" d="M139.278,262.789A36.889,36.889,0,1,1,102.389,225.9a36.889,36.889,0,0,1,36.889,36.889" transform="translate(-23.697 -81.726)" fill="#fdfb76"/>
            <circle id="Ellipse_1020" data-name="Ellipse 1020" cx="36.889" cy="36.889" r="36.889" transform="translate(41.803 144.174)" fill="none" stroke="#231f20" stroke-miterlimit="10" stroke-width="0.638"/>
            <path id="Path_127898" data-name="Path 127898" d="M128.747,238A36.889,36.889,0,0,1,75.2,287.334,36.889,36.889,0,1,0,128.747,238" transform="translate(-27.206 -86.104)"/>
            <path id="Path_127899" data-name="Path 127899" d="M128.747,238A36.889,36.889,0,0,1,75.2,287.334,36.889,36.889,0,1,0,128.747,238Z" transform="translate(-27.206 -86.104)" fill="none" stroke="#231f20" stroke-miterlimit="10" stroke-width="0.638"/>
            <path id="Path_127900" data-name="Path 127900" d="M327.67,274.1H259.7V466.268a17.742,17.742,0,0,0,16.53-10.85l31.209-71.672L344.2,299.31a18,18,0,0,0-16.53-25.21" transform="translate(-93.955 -99.164)" fill="#00db96"/>
            <path id="Path_127901" data-name="Path 127901" d="M327.67,274.1H259.7V466.268a17.742,17.742,0,0,0,16.53-10.85l31.209-71.672L344.2,299.31a18,18,0,0,0-16.53-25.21Z" transform="translate(-93.955 -99.164)" fill="none" stroke="#231f20" stroke-miterlimit="10" stroke-width="0.638"/>
            <path id="Path_127902" data-name="Path 127902" d="M142.975,274.1a18,18,0,0,0-16.53,25.21l36.825,84.436,31.209,71.672a17.743,17.743,0,0,0,16.53,10.85V274.1Z" transform="translate(-45.2 -99.164)" fill="#ff0d5b"/>
            <path id="Path_127903" data-name="Path 127903" d="M142.975,274.1a18,18,0,0,0-16.53,25.21l36.825,84.436,31.209,71.672a17.743,17.743,0,0,0,16.53,10.85V274.1Z" transform="translate(-45.2 -99.164)" fill="none" stroke="#231f20" stroke-miterlimit="10" stroke-width="0.638"/>
            <path id="Path_127904" data-name="Path 127904" d="M282.867,412.171A27.188,27.188,0,0,1,259.7,424.935v56.419a17.742,17.742,0,0,0,16.53-10.85l31.209-71.672L343.562,315.8Z" transform="translate(-93.955 -114.251)"/>
            <path id="Path_127905" data-name="Path 127905" d="M282.867,412.171A27.188,27.188,0,0,1,259.7,424.935v56.419a17.742,17.742,0,0,0,16.53-10.85l31.209-71.672L343.562,315.8Z" transform="translate(-93.955 -114.251)" fill="none" stroke="#231f20" stroke-miterlimit="10" stroke-width="0.638"/>
            <path id="Path_127906" data-name="Path 127906" d="M188.995,412.171,128.3,315.8l36.187,83.032L195.7,470.5a17.743,17.743,0,0,0,16.53,10.85V424.935a27.188,27.188,0,0,1-23.167-12.764" transform="translate(-46.417 -114.251)"/>
            <path id="Path_127907" data-name="Path 127907" d="M188.995,412.171,128.3,315.8l36.187,83.032L195.7,470.5a17.743,17.743,0,0,0,16.53,10.85V424.935A27.188,27.188,0,0,1,188.995,412.171Z" transform="translate(-46.417 -114.251)" fill="none" stroke="#231f20" stroke-miterlimit="10" stroke-width="0.638"/>
            <path id="Path_127908" data-name="Path 127908" d="M373.157,157.848a1.915,1.915,0,0,0,1.4-.383l5.17-4.148a1.915,1.915,0,0,0-2.361-3l-5.17,4.148a1.915,1.915,0,0,0,.957,3.383" transform="translate(-134.4 -54.265)" fill="#fdfb76"/>
            <path id="Path_127909" data-name="Path 127909" d="M373.157,157.848a1.915,1.915,0,0,0,1.4-.383l5.17-4.148a1.915,1.915,0,0,0-2.361-3l-5.17,4.148a1.915,1.915,0,0,0,.957,3.383Z" transform="translate(-134.4 -54.265)" fill="none" stroke="#231f20" stroke-miterlimit="10" stroke-width="0.638"/>
            <path id="Path_127910" data-name="Path 127910" d="M368.061,151.95a1.915,1.915,0,0,0,1.213-.83l3.574-5.553a1.915,1.915,0,0,0-3.191-2.106l-3.638,5.552A1.915,1.915,0,0,0,368,151.95" transform="translate(-132.303 -51.622)" fill="#fdfb76"/>
            <path id="Path_127911" data-name="Path 127911" d="M368.061,151.95a1.915,1.915,0,0,0,1.213-.83l3.574-5.553a1.915,1.915,0,0,0-3.191-2.106l-3.638,5.552A1.915,1.915,0,0,0,368,151.95Z" transform="translate(-132.303 -51.622)" fill="none" stroke="#231f20" stroke-miterlimit="10" stroke-width="0.638"/>
            <path id="Path_127912" data-name="Path 127912" d="M261.208,441.453H171.666a13.211,13.211,0,0,1-6.063-1.468l-14.424-7.467a3.829,3.829,0,0,1,2.872-6.318H278.822a3.829,3.829,0,0,1,2.872,6.318l-14.424,7.467a13.211,13.211,0,0,1-6.063,1.468" transform="translate(-54.361 -154.191)"/>
            <path id="Path_127913" data-name="Path 127913" d="M261.208,441.453H171.666a13.211,13.211,0,0,1-6.063-1.468l-14.424-7.467a3.829,3.829,0,0,1,2.872-6.318H278.822a3.829,3.829,0,0,1,2.872,6.318l-14.424,7.467A13.211,13.211,0,0,1,261.208,441.453Z" transform="translate(-54.361 -154.191)" fill="none" stroke="#000" stroke-miterlimit="10" stroke-width="0.638"/>
            <path id="Path_127914" data-name="Path 127914" d="M386.539,387.1H288.7v34.464H415.259a20.1,20.1,0,0,0,18.317-11.424Z" transform="translate(-104.446 -140.046)" fill="#ff0d5b"/>
            <path id="Path_127915" data-name="Path 127915" d="M386.539,387.1H288.7v34.464H415.259a20.1,20.1,0,0,0,18.317-11.424Z" transform="translate(-104.446 -140.046)" fill="none" stroke="#231f20" stroke-miterlimit="10" stroke-width="0.638"/>
            <line id="Line_3368" data-name="Line 3368" x2="28.72" y2="34.464" transform="translate(282.093 247.054)" fill="#ff0d5b"/>
            <line id="Line_3369" data-name="Line 3369" x2="28.72" y2="34.464" transform="translate(282.093 247.054)" fill="none" stroke="#231f20" stroke-miterlimit="10" stroke-width="0.638"/>
            <line id="Line_3370" data-name="Line 3370" x1="28.72" y1="34.464" transform="translate(282.093 247.054)" fill="#ff0d5b"/>
            <line id="Line_3371" data-name="Line 3371" x1="28.72" y1="34.464" transform="translate(282.093 247.054)" fill="none" stroke="#231f20" stroke-miterlimit="10" stroke-width="0.638"/>
            <line id="Line_3372" data-name="Line 3372" x2="6.957" y2="34.528" transform="translate(282.093 247.054)" fill="#ff0d5b"/>
            <line id="Line_3373" data-name="Line 3373" x2="6.957" y2="34.528" transform="translate(282.093 247.054)" fill="none" stroke="#231f20" stroke-miterlimit="10" stroke-width="0.638"/>
            <line id="Line_3374" data-name="Line 3374" y2="34.464" transform="translate(268.243 247.054)" fill="#ff0d5b"/>
            <line id="Line_3375" data-name="Line 3375" y2="34.464" transform="translate(268.243 247.054)" fill="none" stroke="#231f20" stroke-miterlimit="10" stroke-width="0.638"/>
            <line id="Line_3376" data-name="Line 3376" y2="34.464" transform="translate(246.927 247.054)" fill="#ff0d5b"/>
            <line id="Line_3377" data-name="Line 3377" y2="34.464" transform="translate(246.927 247.054)" fill="none" stroke="#231f20" stroke-miterlimit="10" stroke-width="0.638"/>
            <line id="Line_3378" data-name="Line 3378" y2="34.464" transform="translate(225.419 247.054)" fill="#ff0d5b"/>
            <line id="Line_3379" data-name="Line 3379" y2="34.464" transform="translate(225.419 247.054)" fill="none" stroke="#231f20" stroke-miterlimit="10" stroke-width="0.638"/>
            <path id="Path_127916" data-name="Path 127916" d="M415.259,419.138H288.7v8.105H415.259A20.376,20.376,0,0,0,435.235,402.8a20.3,20.3,0,0,1-19.976,16.338" transform="translate(-104.446 -145.726)"/>
            <path id="Path_127917" data-name="Path 127917" d="M415.259,419.138H288.7v8.105H415.259A20.376,20.376,0,0,0,435.235,402.8,20.3,20.3,0,0,1,415.259,419.138Z" transform="translate(-104.446 -145.726)" fill="none" stroke="#000" stroke-miterlimit="10" stroke-width="0.638"/>
            <path id="Path_127918" data-name="Path 127918" d="M50.837,387.1h0L3.8,410.14a20.1,20.1,0,0,0,18.317,11.424H148.612V387.1Z" transform="translate(-1.375 -140.046)" fill="#00db96"/>
            <path id="Path_127919" data-name="Path 127919" d="M50.837,387.1h0L3.8,410.14a20.1,20.1,0,0,0,18.317,11.424H148.612V387.1Z" transform="translate(-1.375 -140.046)" fill="none" stroke="#231f20" stroke-miterlimit="10" stroke-width="0.638"/>
            <line id="Line_3380" data-name="Line 3380" x1="28.72" y2="34.464" transform="translate(20.742 247.054)" fill="#00db96"/>
            <line id="Line_3381" data-name="Line 3381" x1="28.72" y2="34.464" transform="translate(20.742 247.054)" fill="none" stroke="#231f20" stroke-miterlimit="10" stroke-width="0.638"/>
            <line id="Line_3382" data-name="Line 3382" y1="34.464" x2="28.72" transform="translate(20.742 247.054)" fill="#00db96"/>
            <line id="Line_3383" data-name="Line 3383" y1="34.464" x2="28.72" transform="translate(20.742 247.054)" fill="none" stroke="#231f20" stroke-miterlimit="10" stroke-width="0.638"/>
            <line id="Line_3384" data-name="Line 3384" x1="7.02" y2="34.528" transform="translate(42.442 247.054)" fill="#00db96"/>
            <line id="Line_3385" data-name="Line 3385" x1="7.02" y2="34.528" transform="translate(42.442 247.054)" fill="none" stroke="#231f20" stroke-miterlimit="10" stroke-width="0.638"/>
            <line id="Line_3386" data-name="Line 3386" y2="34.464" transform="translate(63.311 247.054)" fill="#00db96"/>
            <line id="Line_3387" data-name="Line 3387" y2="34.464" transform="translate(63.311 247.054)" fill="none" stroke="#231f20" stroke-miterlimit="10" stroke-width="0.638"/>
            <line id="Line_3388" data-name="Line 3388" y2="34.464" transform="translate(84.564 247.054)" fill="#00db96"/>
            <line id="Line_3389" data-name="Line 3389" y2="34.464" transform="translate(84.564 247.054)" fill="none" stroke="#231f20" stroke-miterlimit="10" stroke-width="0.638"/>
            <line id="Line_3390" data-name="Line 3390" y2="34.464" transform="translate(106.136 247.054)" fill="#00db96"/>
            <line id="Line_3391" data-name="Line 3391" y2="34.464" transform="translate(106.136 247.054)" fill="none" stroke="#231f20" stroke-miterlimit="10" stroke-width="0.638"/>
            <path id="Path_127920" data-name="Path 127920" d="M20.939,419.138H147.434v8.105H20.939A20.376,20.376,0,0,1,.963,402.8a20.3,20.3,0,0,0,19.976,16.4" transform="translate(-0.197 -145.726)"/>
            <path id="Path_127921" data-name="Path 127921" d="M20.939,419.138H147.434v8.105H20.939A20.376,20.376,0,0,1,.963,402.8,20.3,20.3,0,0,0,20.939,419.138Z" transform="translate(-0.197 -145.726)" fill="none" stroke="#000" stroke-miterlimit="10" stroke-width="0.638"/>
            <path id="Path_127922" data-name="Path 127922" d="M267.354,413.054H180.173a9.573,9.573,0,0,1-9.573-9.573V357.273a9.573,9.573,0,0,1,9.573-9.573h87.181a9.573,9.573,0,0,1,9.573,9.573V403.48a9.573,9.573,0,0,1-9.573,9.573" transform="translate(-61.72 -125.791)" fill="#8e0bfa"/>
            <rect id="Rectangle_141340" data-name="Rectangle 141340" width="106.327" height="65.354" rx="9.573" transform="translate(108.88 221.909)" fill="none" stroke="#000" stroke-miterlimit="10" stroke-width="0.638"/>
            <path id="Path_127923" data-name="Path 127923" d="M267.354,432.773H180.173A9.573,9.573,0,0,1,170.6,423.2v7.595a9.573,9.573,0,0,0,9.573,9.573h87.181a9.573,9.573,0,0,0,9.573-9.573V423.2a9.573,9.573,0,0,1-9.573,9.573" transform="translate(-61.72 -153.106)"/>
            <path id="Path_127924" data-name="Path 127924" d="M267.354,432.773H180.173A9.573,9.573,0,0,1,170.6,423.2v7.595a9.573,9.573,0,0,0,9.573,9.573h87.181a9.573,9.573,0,0,0,9.573-9.573V423.2A9.573,9.573,0,0,1,267.354,432.773Z" transform="translate(-61.72 -153.106)" fill="none" stroke="#000" stroke-miterlimit="10" stroke-width="0.638"/>
            <path id="Path_127925" data-name="Path 127925" d="M257.963,385.573a9.382,9.382,0,1,0-14.3,7.978V399.1H253.5v-5.552a9.382,9.382,0,0,0,4.468-7.978" transform="translate(-86.538 -136.094)" fill="#fcf7eb"/>
            <path id="Path_127926" data-name="Path 127926" d="M257.963,385.573a9.382,9.382,0,1,0-14.3,7.978V399.1H253.5v-5.552A9.382,9.382,0,0,0,257.963,385.573Z" transform="translate(-86.538 -136.094)" fill="none" stroke="#000" stroke-miterlimit="10" stroke-width="0.638"/>
            <line id="Line_3392" data-name="Line 3392" y2="4.787" transform="translate(163.703 258.223)" fill="none" stroke="#000" stroke-miterlimit="10" stroke-width="0.638"/>
            <line id="Line_3393" data-name="Line 3393" y2="4.787" transform="translate(160.576 258.223)" fill="none" stroke="#000" stroke-miterlimit="10" stroke-width="0.638"/>
            <path id="Path_127927" data-name="Path 127927" d="M183.8,363.6c0-2.106,2.744-3.7,5.3-3.7h13.594" transform="translate(-66.495 -130.205)" fill="none" stroke="#fff" stroke-linecap="round" stroke-miterlimit="10" stroke-width="6.382"/>
            <path id="Path_127928" data-name="Path 127928" d="M214.7,82.188c3.957-5.616,11.616-9.892,20.87-11.488" transform="translate(-77.674 -25.578)" fill="none" stroke="#fcf7eb" stroke-linecap="round" stroke-miterlimit="10" stroke-width="6.382"/>
            <path id="Path_127929" data-name="Path 127929" d="M253.678,25.3c.064,0-1.978,4.468-1.978,4.468" transform="translate(-91.06 -9.153)" fill="#8e0bfa"/>
            <path id="Path_127930" data-name="Path 127930" d="M253.678,25.3c.064,0-1.978,4.468-1.978,4.468" transform="translate(-91.06 -9.153)" fill="none" stroke="#fcf7eb" stroke-linecap="round" stroke-miterlimit="10" stroke-width="6.382"/>
            <path id="Path_127931" data-name="Path 127931" d="M92.6,246.886a28.337,28.337,0,0,1,19.529-7.786,28.66,28.66,0,0,1,3.765.255" transform="translate(-33.501 -86.502)" fill="none" stroke="#fcf7eb" stroke-linecap="round" stroke-miterlimit="10" stroke-width="6.382"/>
            <path id="Path_127932" data-name="Path 127932" d="M376.2,242.71a28.209,28.209,0,0,1,12.062-3.51" transform="translate(-136.102 -86.538)" fill="none" stroke="#fcf7eb" stroke-linecap="round" stroke-miterlimit="10" stroke-width="6.382"/>
            <line id="Line_3394" data-name="Line 3394" x1="5.68" y2="7.02" transform="translate(38.421 209.144)" fill="#8e0bfa"/>
            <line id="Line_3395" data-name="Line 3395" x1="5.68" y2="7.02" transform="translate(38.421 209.144)" fill="none" stroke="#fcf7eb" stroke-linecap="round" stroke-miterlimit="10" stroke-width="6.382"/>
            <line id="Line_3396" data-name="Line 3396" x1="2.872" y2="3.51" transform="translate(29.358 223.696)" fill="#8e0bfa"/>
            <line id="Line_3397" data-name="Line 3397" x1="2.872" y2="3.51" transform="translate(29.358 223.696)" fill="none" stroke="#fcf7eb" stroke-linecap="round" stroke-miterlimit="10" stroke-width="6.382"/>
          </g>
        </g>
      </g>
    </g>
  </g>
</svg>
