<svg xmlns="http://www.w3.org/2000/svg" xmlns:xlink="http://www.w3.org/1999/xlink" width="416.326" height="331.117" viewBox="0 0 416.326 331.117">
  <defs>
    <clipPath id="clip-path">
      <rect id="Rectangle_134731" data-name="Rectangle 134731" width="416.326" height="331.117" fill="none"/>
    </clipPath>
    <clipPath id="clip-path-2">
      <path id="Path_83554" data-name="Path 83554" d="M232.582,118.975a9.382,9.382,0,0,0,2.627,12.984c7.355,4.879,18.914,7.28,30.472,7.28s23.117-2.4,30.622-7.28A9.389,9.389,0,0,0,286.1,116.2c-8.856,5.7-31.973,5.7-40.529.075a9.382,9.382,0,0,0-12.984,2.627" transform="translate(-231.025 -114.689)" fill="none"/>
    </clipPath>
  </defs>
  <g id="Artwork_22" data-name="Artwork 22" transform="translate(208.163 165.559)">
    <g id="Artwork_22-2" data-name="Artwork 22" transform="translate(-208.163 -165.559)">
      <g id="Group_15018" data-name="Group 15018" clip-path="url(#clip-path)">
        <path id="Path_83478" data-name="Path 83478" d="M320.495,101.364c0,10.658-29.271,19.364-65.447,19.364S189.6,112.1,189.6,101.364,218.871,82,254.972,82s65.522,8.706,65.522,19.364" transform="translate(-47.297 -20.455)"/>
        <ellipse id="Ellipse_749" data-name="Ellipse 749" cx="65.447" cy="19.364" rx="65.447" ry="19.364" transform="translate(142.228 61.545)" fill="none" stroke="#000" stroke-miterlimit="10" stroke-width="0.751"/>
        <path id="Path_83479" data-name="Path 83479" d="M486.9,405.112c1.951,2.927,13.51-1.276,25.819-9.532s20.715-17.262,18.689-20.19-13.51,1.276-25.819,9.532-20.715,17.262-18.688,20.19" transform="translate(-121.385 -93.412)"/>
        <path id="Path_83480" data-name="Path 83480" d="M486.906,405.112c1.951,2.927,13.51-1.276,25.819-9.532s20.715-17.262,18.689-20.19-13.51,1.276-25.819,9.532S484.954,402.11,486.906,405.112Z" transform="translate(-121.391 -93.412)" fill="none" stroke="#000" stroke-miterlimit="10" stroke-width="0.751"/>
        <path id="Path_83481" data-name="Path 83481" d="M534.98,397.052l.15-.6.225-.976V394.35a7.28,7.28,0,0,0,.075-1.276,14.485,14.485,0,0,0-14.485-14.486c-4.879,0-12.759-3.152-15.386.6-.6-.075.3,1.051-.3,1.051-7.731,0-11.859,10.733-11.859,18.463a13.96,13.96,0,0,0,21.691,11.633l1.051.225a24.177,24.177,0,0,0,3.978.15c6.53-.375,12.684-6.53,14.636-13.134l.15-.375" transform="translate(-123.082 -94.133)" fill="#ff3c1d"/>
        <path id="Path_83482" data-name="Path 83482" d="M534.98,397.052l.15-.6.225-.976V394.35a7.28,7.28,0,0,0,.075-1.276,14.485,14.485,0,0,0-14.485-14.486c-4.879,0-12.759-3.152-15.386.6-.6-.075.3,1.051-.3,1.051-7.731,0-11.859,10.733-11.859,18.463a13.96,13.96,0,0,0,21.691,11.633l1.051.225a24.177,24.177,0,0,0,3.978.15c6.53-.375,12.684-6.53,14.636-13.134Z" transform="translate(-123.082 -94.133)" fill="none" stroke="#000" stroke-miterlimit="10" stroke-width="0.751"/>
        <path id="Path_83483" data-name="Path 83483" d="M521.27,411.339a24.09,24.09,0,0,1-3.978-.15h0l-1.051-.225a13.96,13.96,0,0,1-21.691-11.633,26.493,26.493,0,0,1,.976-6.83,26.944,26.944,0,0,0-2.026,9.907,13.96,13.96,0,0,0,21.691,11.633l1.051.225a24.164,24.164,0,0,0,3.978.15c6.53-.375,12.684-6.53,14.636-13.135l.15-.375.15-.6h0c-2.552,5.779-8.031,10.733-13.885,11.108" transform="translate(-123.107 -97.912)"/>
        <path id="Path_83484" data-name="Path 83484" d="M521.27,411.339a24.09,24.09,0,0,1-3.978-.15h0l-1.051-.225a13.96,13.96,0,0,1-21.691-11.633,26.493,26.493,0,0,1,.976-6.83,26.944,26.944,0,0,0-2.026,9.907,13.96,13.96,0,0,0,21.691,11.633l1.051.225a24.164,24.164,0,0,0,3.978.15c6.53-.375,12.684-6.53,14.636-13.135l.15-.375.15-.6h0C532.6,406.01,527.124,411.038,521.27,411.339Z" transform="translate(-123.107 -97.912)" fill="none" stroke="#000" stroke-miterlimit="10" stroke-width="0.751"/>
        <path id="Path_83485" data-name="Path 83485" d="M516.279,406.631C514.1,405.43,512,402.8,511.4,398.3c2.7,4.128,4.653,6.079,7.355,6.755s-.6,1.876-.6,1.876l-1.951-.375" transform="translate(-127.572 -99.359)"/>
        <path id="Path_83486" data-name="Path 83486" d="M516.279,406.631C514.1,405.43,512,402.8,511.4,398.3c2.7,4.128,4.653,6.079,7.355,6.755s-.6,1.876-.6,1.876l-1.951-.375" transform="translate(-127.572 -99.359)" fill="none" stroke="#000" stroke-linecap="round" stroke-miterlimit="10" stroke-width="0.751"/>
        <path id="Path_83487" data-name="Path 83487" d="M517.5,421.137c3.978,5.179,5.479,10.733,3.227,12.459s-7.205-1.126-11.258-6.3-5.479-10.733-3.227-12.459,7.205,1.126,11.258,6.3" transform="translate(-126.021 -103.357)" fill="#ff3c1d"/>
        <path id="Path_83488" data-name="Path 83488" d="M517.5,421.137c3.978,5.179,5.479,10.733,3.227,12.459s-7.205-1.126-11.258-6.3-5.479-10.733-3.227-12.459S513.451,415.958,517.5,421.137Z" transform="translate(-126.021 -103.357)" fill="none" stroke="#000" stroke-miterlimit="10" stroke-width="0.751"/>
        <path id="Path_83489" data-name="Path 83489" d="M520.711,427.931c.3,1.8,0,3.227-.9,3.9-2.177,1.726-7.205-1.126-11.258-6.3A24.77,24.77,0,0,1,505.4,420.2a21.083,21.083,0,0,0,4.128,8.556c3.978,5.179,9.006,8.031,11.258,6.3s1.276-3.9-.075-7.13" transform="translate(-126.076 -104.822)"/>
        <path id="Path_83490" data-name="Path 83490" d="M520.711,427.931c.3,1.8,0,3.227-.9,3.9-2.177,1.726-7.205-1.126-11.258-6.3A24.77,24.77,0,0,1,505.4,420.2a21.083,21.083,0,0,0,4.128,8.556c3.978,5.179,9.006,8.031,11.258,6.3S522.062,431.158,520.711,427.931Z" transform="translate(-126.076 -104.822)" fill="none" stroke="#000" stroke-linejoin="round" stroke-width="0.751"/>
        <path id="Path_83491" data-name="Path 83491" d="M526.639,417.152c4.879,6.3,6.905,12.909,4.578,14.711s-8.181-1.8-13.06-8.106-6.905-12.909-4.578-14.711,8.181,1.8,13.059,8.106" transform="translate(-127.876 -101.924)" fill="#ff3c1d"/>
        <path id="Path_83492" data-name="Path 83492" d="M526.639,417.152c4.879,6.3,6.905,12.909,4.578,14.711s-8.181-1.8-13.06-8.106-6.905-12.909-4.578-14.711S521.761,410.847,526.639,417.152Z" transform="translate(-127.876 -101.924)" fill="none" stroke="#000" stroke-miterlimit="10" stroke-width="0.751"/>
        <path id="Path_83493" data-name="Path 83493" d="M531.113,426.083c.375,1.876.075,3.377-.826,4.053-2.327,1.8-8.181-1.8-13.06-8.106a32.8,32.8,0,0,1-4.428-7.43c.525,2.927,2.4,6.83,5.4,10.658,4.878,6.3,10.733,9.982,13.059,8.106s1.2-3.828-.15-7.28" transform="translate(-127.922 -103.425)"/>
        <path id="Path_83494" data-name="Path 83494" d="M531.113,426.083c.375,1.876.075,3.377-.826,4.053-2.327,1.8-8.181-1.8-13.06-8.106a32.8,32.8,0,0,1-4.428-7.43c.525,2.927,2.4,6.83,5.4,10.658,4.878,6.3,10.733,9.982,13.059,8.106S532.464,429.461,531.113,426.083Z" transform="translate(-127.922 -103.425)" fill="none" stroke="#000" stroke-linejoin="round" stroke-width="0.751"/>
        <path id="Path_83495" data-name="Path 83495" d="M537.9,413.306c3.978,5.1,5.329,10.658,3.077,12.384s-7.28-.976-11.258-6.079-5.329-10.658-3.077-12.384,7.28.976,11.258,6.079" transform="translate(-131.102 -101.456)" fill="#ff3c1d"/>
        <path id="Path_83496" data-name="Path 83496" d="M537.9,413.306c3.978,5.1,5.329,10.658,3.077,12.384s-7.28-.976-11.258-6.079-5.329-10.658-3.077-12.384S533.919,408.2,537.9,413.306Z" transform="translate(-131.102 -101.456)" fill="none" stroke="#000" stroke-miterlimit="10" stroke-width="0.751"/>
        <path id="Path_83497" data-name="Path 83497" d="M541.011,420.03c.3,1.876,0,3.3-.976,4.053-2.252,1.726-7.28-.976-11.258-6.079a23.791,23.791,0,0,1-3.077-5.1,19.814,19.814,0,0,0,4.053,8.331c3.978,5.1,9.006,7.881,11.258,6.079s1.426-3.978,0-7.28" transform="translate(-131.14 -103.001)"/>
        <path id="Path_83498" data-name="Path 83498" d="M541.011,420.03c.3,1.876,0,3.3-.976,4.053-2.252,1.726-7.28-.976-11.258-6.079a23.791,23.791,0,0,1-3.077-5.1,19.814,19.814,0,0,0,4.053,8.331c3.978,5.1,9.006,7.881,11.258,6.079S542.362,423.258,541.011,420.03Z" transform="translate(-131.14 -103.001)" fill="none" stroke="#000" stroke-linejoin="round" stroke-width="0.751"/>
        <path id="Path_83499" data-name="Path 83499" d="M545.254,404.462c3.678,4.8,4.954,9.982,2.777,11.633s-6.83-.9-10.508-5.629-4.954-9.982-2.777-11.633,6.83.9,10.508,5.629" transform="translate(-133.131 -99.366)" fill="#ff3c1d"/>
        <path id="Path_83500" data-name="Path 83500" d="M545.254,404.459c3.678,4.8,4.954,9.982,2.777,11.633s-6.83-.9-10.508-5.629-4.954-9.982-2.777-11.633S541.576,399.656,545.254,404.459Z" transform="translate(-133.131 -99.364)" fill="none" stroke="#000" stroke-miterlimit="10" stroke-width="0.751"/>
        <path id="Path_83501" data-name="Path 83501" d="M548.06,410.48c.3,1.726,0,3.077-.976,3.828-2.1,1.651-6.83-.9-10.508-5.629A22.066,22.066,0,0,1,533.8,404.1a18.239,18.239,0,0,0,3.753,7.806c3.678,4.8,8.406,7.28,10.508,5.629s1.351-3.828,0-6.98" transform="translate(-133.16 -100.806)"/>
        <path id="Path_83502" data-name="Path 83502" d="M548.06,410.48c.3,1.726,0,3.077-.976,3.828-2.1,1.651-6.83-.9-10.508-5.629A22.066,22.066,0,0,1,533.8,404.1a18.239,18.239,0,0,0,3.753,7.806c3.678,4.8,8.406,7.28,10.508,5.629S549.411,413.632,548.06,410.48Z" transform="translate(-133.16 -100.806)" fill="none" stroke="#000" stroke-linejoin="round" stroke-width="0.751"/>
        <path id="Path_83503" data-name="Path 83503" d="M526.882,378.9a14.485,14.485,0,0,1,14.485,14.485c0,8.031-7.355,17.112-15.386,17.563A24.1,24.1,0,0,1,522,410.8h0a6,6,0,0,1,.6-11.934,5.779,5.779,0,0,0,6-4.5" transform="translate(-128.944 -94.519)" fill="#ff3c1d"/>
        <path id="Path_83504" data-name="Path 83504" d="M526.882,378.9a14.485,14.485,0,0,1,14.485,14.485c0,8.031-7.355,17.112-15.386,17.563A24.1,24.1,0,0,1,522,410.8h0a6,6,0,0,1,.6-11.934,5.779,5.779,0,0,0,6-4.5" transform="translate(-128.944 -94.519)" fill="none" stroke="#000" stroke-linecap="round" stroke-miterlimit="10" stroke-width="0.751"/>
        <path id="Path_83505" data-name="Path 83505" d="M540.467,391.75a14.561,14.561,0,0,1,.15,1.951c0,8.031-7.355,17.112-15.386,17.563a24.091,24.091,0,0,1-3.978-.15h0a6,6,0,0,1-4.653-3.152h0a6,6,0,0,0,5.329,5.929,24.179,24.179,0,0,0,3.978.15c8.031-.45,15.386-9.532,15.386-17.563a14.487,14.487,0,0,0-.826-4.879" transform="translate(-128.87 -97.687)"/>
        <path id="Path_83506" data-name="Path 83506" d="M540.467,391.8a14.562,14.562,0,0,1,.15,1.951c0,8.031-7.355,17.112-15.386,17.563a24.1,24.1,0,0,1-3.978-.15h0a6,6,0,0,1-4.653-3.152h0a6,6,0,0,0,5.329,5.929,24.169,24.169,0,0,0,3.978.15c8.031-.45,15.386-9.532,15.386-17.563A14.489,14.489,0,0,0,540.467,391.8Z" transform="translate(-128.87 -97.737)" fill="none" stroke="#000" stroke-linecap="round" stroke-linejoin="round" stroke-width="0.751"/>
        <path id="Path_83507" data-name="Path 83507" d="M472.187,334.791c12.234-8.181,23.717-12.384,25.819-9.532h0L396.982,173.8,352.4,203.522l101.023,151.46h0c-1.876-3,6.53-12.009,18.764-20.115" transform="translate(-87.909 -43.356)" fill="#fdfb76"/>
        <path id="Path_83508" data-name="Path 83508" d="M472.187,334.791c12.234-8.181,23.717-12.384,25.819-9.532h0L396.982,173.8,352.4,203.522l101.023,151.46h0C451.547,351.979,459.953,342.972,472.187,334.791Z" transform="translate(-87.909 -43.356)" fill="none" stroke="#000" stroke-miterlimit="10" stroke-width="0.751"/>
        <path id="Path_83509" data-name="Path 83509" d="M459.277,345,358.7,206.524,399.159,177.1l-2.177-3.3L352.4,203.522l101.023,151.46h0c-1.051-1.726,1.276-5.479,5.854-9.982" transform="translate(-87.909 -43.356)"/>
        <path id="Path_83510" data-name="Path 83510" d="M459.277,345,358.7,206.524,399.159,177.1l-2.177-3.3L352.4,203.522l101.023,151.46h0C452.372,353.255,454.7,349.427,459.277,345Z" transform="translate(-87.909 -43.356)" fill="none" stroke="#000" stroke-miterlimit="10" stroke-width="0.751"/>
        <path id="Path_83511" data-name="Path 83511" d="M545.1,374.65a1.876,1.876,0,0,1,.9.675h0l-.525-.826-.375.15" transform="translate(-135.979 -93.422)"/>
        <path id="Path_83512" data-name="Path 83512" d="M545.1,374.65a1.876,1.876,0,0,1,.9.675h0l-.525-.826Z" transform="translate(-135.979 -93.422)" fill="none" stroke="#000" stroke-miterlimit="10" stroke-width="0.751"/>
        <path id="Path_83513" data-name="Path 83513" d="M52.807,405.112c-1.951,2.927-13.51-1.276-25.819-9.532S6.273,378.318,8.3,375.391s13.51,1.276,25.819,9.532,20.715,17.262,18.689,20.19" transform="translate(-1.995 -93.412)"/>
        <path id="Path_83514" data-name="Path 83514" d="M52.807,405.112c-1.951,2.927-13.51-1.276-25.819-9.532S6.273,378.318,8.3,375.391s13.51,1.276,25.819,9.532S54.758,402.11,52.807,405.112Z" transform="translate(-1.995 -93.412)" fill="none" stroke="#000" stroke-miterlimit="10" stroke-width="0.751"/>
        <path id="Path_83515" data-name="Path 83515" d="M5.75,397.052l-.15-.6-.225-.976V394.35a7.282,7.282,0,0,1-.075-1.276,14.485,14.485,0,0,1,14.485-14.486c4.879,0,12.759-3.152,15.386.6.6-.075-.3,1.051.3,1.051,7.731,0,11.859,10.733,11.859,18.463A13.96,13.96,0,0,1,25.64,410.336l-1.051.225h0a24.09,24.09,0,0,1-3.978.15c-6.53-.375-12.684-6.53-14.636-13.135l-.15-.375" transform="translate(-1.322 -94.133)" fill="#ff3c1d"/>
        <path id="Path_83516" data-name="Path 83516" d="M5.75,397.052l-.15-.6-.225-.976V394.35a7.282,7.282,0,0,1-.075-1.276,14.485,14.485,0,0,1,14.485-14.486c4.879,0,12.759-3.152,15.386.6.6-.075-.3,1.051.3,1.051,7.731,0,11.859,10.733,11.859,18.463A13.96,13.96,0,0,1,25.64,410.336l-1.051.225h0a24.09,24.09,0,0,1-3.978.15c-6.53-.375-12.684-6.53-14.636-13.135Z" transform="translate(-1.322 -94.133)" fill="none" stroke="#000" stroke-miterlimit="10" stroke-width="0.751"/>
        <path id="Path_83517" data-name="Path 83517" d="M19.585,411.339a24.01,24.01,0,0,0,3.978-.15h0l1.051-.225A13.96,13.96,0,0,0,46.3,399.33a26.494,26.494,0,0,0-.976-6.83,26.945,26.945,0,0,1,2.026,9.907,13.96,13.96,0,0,1-21.691,11.633l-1.051.225h0a24.1,24.1,0,0,1-3.978.15c-6.53-.375-12.684-6.53-14.636-13.135l-.15-.375-.15-.6h0c2.552,5.779,8.031,10.733,13.885,11.108" transform="translate(-1.422 -97.912)"/>
        <path id="Path_83518" data-name="Path 83518" d="M19.585,411.339a24.01,24.01,0,0,0,3.978-.15h0l1.051-.225A13.96,13.96,0,0,0,46.3,399.33a26.494,26.494,0,0,0-.976-6.83,26.945,26.945,0,0,1,2.026,9.907,13.96,13.96,0,0,1-21.691,11.633l-1.051.225h0a24.1,24.1,0,0,1-3.978.15c-6.53-.375-12.684-6.53-14.636-13.135l-.15-.375-.15-.6h0C8.252,406.01,13.731,411.038,19.585,411.339Z" transform="translate(-1.422 -97.912)" fill="none" stroke="#000" stroke-miterlimit="10" stroke-width="0.751"/>
        <path id="Path_83519" data-name="Path 83519" d="M35.724,406.631C37.9,405.43,40,402.8,40.6,398.3c-2.7,4.128-4.653,6.079-7.355,6.755s.6,1.876.6,1.876l1.951-.375" transform="translate(-8.029 -99.359)"/>
        <path id="Path_83520" data-name="Path 83520" d="M35.724,406.631C37.9,405.43,40,402.8,40.6,398.3c-2.7,4.128-4.653,6.079-7.355,6.755s.6,1.876.6,1.876l1.951-.375" transform="translate(-8.029 -99.359)" fill="none" stroke="#000" stroke-linecap="round" stroke-miterlimit="10" stroke-width="0.751"/>
        <path id="Path_83521" data-name="Path 83521" d="M31.778,421.137C27.8,426.316,26.3,431.87,28.551,433.6s7.205-1.126,11.258-6.3,5.479-10.733,3.227-12.459-7.205,1.126-11.258,6.3" transform="translate(-6.86 -103.357)" fill="#ff3c1d"/>
        <path id="Path_83522" data-name="Path 83522" d="M31.778,421.137C27.8,426.316,26.3,431.87,28.551,433.6s7.205-1.126,11.258-6.3,5.479-10.733,3.227-12.459S35.756,415.958,31.778,421.137Z" transform="translate(-6.86 -103.357)" fill="none" stroke="#000" stroke-miterlimit="10" stroke-width="0.751"/>
        <path id="Path_83523" data-name="Path 83523" d="M28.429,427.931c-.3,1.8,0,3.227.9,3.9,2.177,1.726,7.205-1.126,11.258-6.3A24.694,24.694,0,0,0,43.74,420.2a21.084,21.084,0,0,1-4.128,8.556c-3.978,5.179-9.007,8.031-11.258,6.3s-1.276-3.9.075-7.13" transform="translate(-6.739 -104.822)"/>
        <path id="Path_83524" data-name="Path 83524" d="M28.429,427.931c-.3,1.8,0,3.227.9,3.9,2.177,1.726,7.205-1.126,11.258-6.3A24.694,24.694,0,0,0,43.74,420.2a21.084,21.084,0,0,1-4.128,8.556c-3.978,5.179-9.007,8.031-11.258,6.3S27.078,431.158,28.429,427.931Z" transform="translate(-6.739 -104.822)" fill="none" stroke="#000" stroke-linejoin="round" stroke-width="0.751"/>
        <path id="Path_83525" data-name="Path 83525" d="M21.558,417.152c-4.879,6.3-6.9,12.909-4.578,14.711s8.181-1.8,13.059-8.106,6.9-12.909,4.578-14.711-8.181,1.8-13.059,8.106" transform="translate(-3.995 -101.924)" fill="#ff3c1d"/>
        <path id="Path_83526" data-name="Path 83526" d="M21.558,417.152c-4.879,6.3-6.9,12.909-4.578,14.711s8.181-1.8,13.059-8.106,6.9-12.909,4.578-14.711S26.437,410.847,21.558,417.152Z" transform="translate(-3.995 -101.924)" fill="none" stroke="#000" stroke-miterlimit="10" stroke-width="0.751"/>
        <path id="Path_83527" data-name="Path 83527" d="M17,426.083c-.375,1.876-.075,3.377.826,4.053,2.327,1.8,8.181-1.8,13.059-8.106a32.8,32.8,0,0,0,4.428-7.43c-.525,2.927-2.4,6.83-5.4,10.658-4.879,6.3-10.733,9.982-13.059,8.106s-1.2-3.828.15-7.28" transform="translate(-3.869 -103.425)"/>
        <path id="Path_83528" data-name="Path 83528" d="M17,426.083c-.375,1.876-.075,3.377.826,4.053,2.327,1.8,8.181-1.8,13.059-8.106a32.8,32.8,0,0,0,4.428-7.43c-.525,2.927-2.4,6.83-5.4,10.658-4.879,6.3-10.733,9.982-13.059,8.106S15.653,429.461,17,426.083Z" transform="translate(-3.869 -103.425)" fill="none" stroke="#000" stroke-linejoin="round" stroke-width="0.751"/>
        <path id="Path_83529" data-name="Path 83529" d="M11.316,413.306c-3.978,5.1-5.329,10.658-3.077,12.384s7.28-.976,11.258-6.079,5.329-10.658,3.077-12.384-7.28.976-11.258,6.079" transform="translate(-1.784 -101.456)" fill="#ff3c1d"/>
        <path id="Path_83530" data-name="Path 83530" d="M11.316,413.306c-3.978,5.1-5.329,10.658-3.077,12.384s7.28-.976,11.258-6.079,5.329-10.658,3.077-12.384S15.294,408.2,11.316,413.306Z" transform="translate(-1.784 -101.456)" fill="none" stroke="#000" stroke-miterlimit="10" stroke-width="0.751"/>
        <path id="Path_83531" data-name="Path 83531" d="M8.236,420.03c-.3,1.876,0,3.3.976,4.053,2.252,1.726,7.28-.976,11.258-6.079a23.793,23.793,0,0,0,3.077-5.1,19.815,19.815,0,0,1-4.053,8.331c-3.978,5.1-9.007,7.881-11.258,6.079s-1.426-3.978,0-7.28" transform="translate(-1.706 -103.001)"/>
        <path id="Path_83532" data-name="Path 83532" d="M8.236,420.03c-.3,1.876,0,3.3.976,4.053,2.252,1.726,7.28-.976,11.258-6.079a23.793,23.793,0,0,0,3.077-5.1,19.815,19.815,0,0,1-4.053,8.331c-3.978,5.1-9.007,7.881-11.258,6.079S6.81,423.258,8.236,420.03Z" transform="translate(-1.706 -103.001)" fill="none" stroke="#000" stroke-linejoin="round" stroke-width="0.751"/>
        <path id="Path_83533" data-name="Path 83533" d="M4.323,404.437C.645,409.165-.63,414.344,1.546,416s6.83-.9,10.508-5.629,4.954-9.982,2.777-11.633-6.83.9-10.508,5.629" transform="translate(-0.12 -99.341)" fill="#ff3c1d"/>
        <path id="Path_83534" data-name="Path 83534" d="M4.323,404.437C.645,409.166-.63,414.344,1.546,416s6.83-.9,10.508-5.629,4.954-9.982,2.777-11.633S8,399.634,4.323,404.437Z" transform="translate(-0.12 -99.341)" fill="none" stroke="#000" stroke-miterlimit="10" stroke-width="0.751"/>
        <path id="Path_83535" data-name="Path 83535" d="M1.465,410.48c-.3,1.726,0,3.077.976,3.828,2.1,1.651,6.83-.9,10.508-5.629a21.991,21.991,0,0,0,2.777-4.578,18.238,18.238,0,0,1-3.753,7.806c-3.678,4.8-8.406,7.28-10.508,5.629s-1.351-3.828,0-6.98" transform="translate(-0.039 -100.806)"/>
        <path id="Path_83536" data-name="Path 83536" d="M1.465,410.48c-.3,1.726,0,3.077.976,3.828,2.1,1.651,6.83-.9,10.508-5.629a21.991,21.991,0,0,0,2.777-4.578,18.238,18.238,0,0,1-3.753,7.806c-3.678,4.8-8.406,7.28-10.508,5.629S.114,413.632,1.465,410.48Z" transform="translate(-0.039 -100.806)" fill="none" stroke="#000" stroke-linejoin="round" stroke-width="0.751"/>
        <path id="Path_83537" data-name="Path 83537" d="M19.685,378.9A14.486,14.486,0,0,0,5.2,393.461c0,8.031,7.355,17.112,15.386,17.563a24.09,24.09,0,0,0,3.978-.15h0a6,6,0,0,0-.6-11.934,5.779,5.779,0,0,1-6-4.5" transform="translate(-1.297 -94.519)" fill="#ff3c1d"/>
        <path id="Path_83538" data-name="Path 83538" d="M19.685,378.9A14.486,14.486,0,0,0,5.2,393.461c0,8.031,7.355,17.112,15.386,17.563a24.09,24.09,0,0,0,3.978-.15h0a6,6,0,0,0-.6-11.934,5.779,5.779,0,0,1-6-4.5" transform="translate(-1.297 -94.519)" fill="none" stroke="#000" stroke-linecap="round" stroke-miterlimit="10" stroke-width="0.751"/>
        <path id="Path_83539" data-name="Path 83539" d="M6.026,391.8a14.561,14.561,0,0,0-.15,1.951c0,8.031,7.355,17.112,15.386,17.563a24.1,24.1,0,0,0,3.978-.15h0a6,6,0,0,0,4.653-3.152h0a6,6,0,0,1-5.329,5.929h0a24.087,24.087,0,0,1-3.978.15c-8.106-.3-15.386-9.382-15.386-17.413a14.486,14.486,0,0,1,.826-4.879" transform="translate(-1.297 -97.737)"/>
        <path id="Path_83540" data-name="Path 83540" d="M6.026,391.8a14.561,14.561,0,0,0-.15,1.951c0,8.031,7.355,17.112,15.386,17.563a24.1,24.1,0,0,0,3.978-.15h0a6,6,0,0,0,4.653-3.152h0a6,6,0,0,1-5.329,5.929h0a24.087,24.087,0,0,1-3.978.15c-8.106-.3-15.386-9.382-15.386-17.413a14.486,14.486,0,0,1,.826-4.879Z" transform="translate(-1.297 -97.737)" fill="none" stroke="#000" stroke-linecap="round" stroke-linejoin="round" stroke-width="0.751"/>
        <path id="Path_83541" data-name="Path 83541" d="M34.119,334.791C21.885,326.611,10.4,322.408,8.3,325.26h0L109.323,173.8l44.582,29.721L52.882,354.981h0c1.876-3-6.53-12.009-18.764-20.115" transform="translate(-2.07 -43.356)" fill="#fdfb76"/>
        <path id="Path_83542" data-name="Path 83542" d="M34.119,334.791C21.885,326.611,10.4,322.408,8.3,325.26h0L109.323,173.8l44.582,29.721L52.882,354.981h0C54.759,351.979,46.353,342.972,34.119,334.791Z" transform="translate(-2.07 -43.356)" fill="none" stroke="#000" stroke-miterlimit="10" stroke-width="0.751"/>
        <path id="Path_83543" data-name="Path 83543" d="M59.9,345,160.473,206.524,120.018,177.1l2.177-3.3,44.582,29.721L65.754,354.981h0c1.051-1.726-1.276-5.479-5.854-9.982" transform="translate(-14.942 -43.356)"/>
        <path id="Path_83544" data-name="Path 83544" d="M59.9,345,160.473,206.524,120.018,177.1l2.177-3.3,44.582,29.721L65.754,354.981h0C66.805,353.255,64.478,349.427,59.9,345Z" transform="translate(-14.942 -43.356)" fill="none" stroke="#000" stroke-miterlimit="10" stroke-width="0.751"/>
        <path id="Path_83545" data-name="Path 83545" d="M9.3,374.65a1.876,1.876,0,0,0-.9.675h0l.525-.826.375.15" transform="translate(-2.095 -93.422)"/>
        <path id="Path_83546" data-name="Path 83546" d="M9.3,374.65a1.876,1.876,0,0,0-.9.675h0l.525-.826Z" transform="translate(-2.095 -93.422)" fill="none" stroke="#000" stroke-miterlimit="10" stroke-width="0.751"/>
        <path id="Path_83547" data-name="Path 83547" d="M257.094,8h0A61.094,61.094,0,0,0,196,69.094v40.529H318.188V69.094A61.094,61.094,0,0,0,257.094,8" transform="translate(-48.894 -1.996)" fill="#ff3c1d"/>
        <path id="Path_83548" data-name="Path 83548" d="M257.094,8h0A61.094,61.094,0,0,0,196,69.094v40.529H318.188V69.094A61.094,61.094,0,0,0,257.094,8Z" transform="translate(-48.894 -1.996)" fill="none" stroke="#000" stroke-miterlimit="10" stroke-width="0.751"/>
        <path id="Path_83549" data-name="Path 83549" d="M264.181,142.768c-12.609,0-25.218-2.7-33.4-8.181a14.636,14.636,0,0,1,16.137-24.393c2.477,1.651,8.856,3.377,17.187,3.377h.075c8.406,0,15.011-1.8,17.488-3.452a14.656,14.656,0,0,1,15.912,24.618c-8.331,5.4-20.865,8.106-33.4,8.106" transform="translate(-56.055 -26.884)"/>
        <path id="Path_83550" data-name="Path 83550" d="M264.181,142.768c-12.609,0-25.218-2.7-33.4-8.181a14.636,14.636,0,0,1,16.137-24.393c2.477,1.651,8.856,3.377,17.187,3.377h.075c8.406,0,15.011-1.8,17.488-3.452a14.656,14.656,0,0,1,15.912,24.618C289.249,140.066,276.715,142.768,264.181,142.768Z" transform="translate(-56.055 -26.884)" fill="none" stroke="#000" stroke-miterlimit="10" stroke-width="0.751"/>
        <path id="Path_83551" data-name="Path 83551" d="M265.769,139.24c-11.558,0-23.117-2.4-30.472-7.28a9.4,9.4,0,0,1,10.357-15.686c8.631,5.7,31.748,5.629,40.529-.075a9.389,9.389,0,0,1,10.207,15.761c-7.505,4.8-19.064,7.28-30.547,7.28" transform="translate(-57.644 -28.61)" fill="#fff"/>
        <path id="Path_83552" data-name="Path 83552" d="M265.769,139.24c-11.558,0-23.117-2.4-30.472-7.28a9.4,9.4,0,0,1,10.357-15.686c8.631,5.7,31.748,5.629,40.529-.075a9.389,9.389,0,0,1,10.207,15.761C288.811,136.838,277.252,139.24,265.769,139.24Z" transform="translate(-57.644 -28.61)" fill="none" stroke="#000" stroke-miterlimit="10" stroke-width="0.751"/>
        <path id="Path_83553" data-name="Path 83553" d="M265.769,139.24c-11.558,0-23.117-2.4-30.472-7.28a9.4,9.4,0,0,1,10.357-15.686c8.631,5.7,31.748,5.629,40.529-.075a9.389,9.389,0,0,1,10.207,15.761c-7.505,4.8-19.064,7.28-30.547,7.28" transform="translate(-57.644 -28.61)" fill="#fcf7eb"/>
      </g>
      <g id="Group_15019" data-name="Group 15019" transform="translate(173.394 86.079)" clip-path="url(#clip-path-2)">
        <rect id="Rectangle_134732" data-name="Rectangle 134732" width="12.684" height="32.378" transform="translate(47.49 -2.544)" fill="#fcf7eb"/>
        <rect id="Rectangle_134733" data-name="Rectangle 134733" width="12.684" height="32.378" transform="translate(47.49 -2.544)" fill="none" stroke="#000" stroke-miterlimit="10" stroke-width="0.751"/>
        <rect id="Rectangle_134734" data-name="Rectangle 134734" width="12.684" height="32.378" transform="translate(34.806 -2.544)" fill="#fcf7eb"/>
        <rect id="Rectangle_134735" data-name="Rectangle 134735" width="12.684" height="32.378" transform="translate(34.806 -2.544)" fill="none" stroke="#000" stroke-miterlimit="10" stroke-width="0.751"/>
        <rect id="Rectangle_134736" data-name="Rectangle 134736" width="12.684" height="32.378" transform="translate(22.047 -2.544)" fill="#fcf7eb"/>
        <rect id="Rectangle_134737" data-name="Rectangle 134737" width="12.684" height="32.378" transform="translate(22.047 -2.544)" fill="none" stroke="#000" stroke-miterlimit="10" stroke-width="0.751"/>
        <rect id="Rectangle_134738" data-name="Rectangle 134738" width="12.684" height="32.378" transform="translate(9.363 -2.544)" fill="#fcf7eb"/>
        <rect id="Rectangle_134739" data-name="Rectangle 134739" width="12.684" height="32.378" transform="translate(9.363 -2.544)" fill="none" stroke="#000" stroke-miterlimit="10" stroke-width="0.751"/>
      </g>
      <g id="Group_15020" data-name="Group 15020" clip-path="url(#clip-path)">
        <path id="Path_83555" data-name="Path 83555" d="M265.769,139.24c-11.558,0-23.117-2.4-30.472-7.28a9.4,9.4,0,0,1,10.357-15.686c8.631,5.7,31.748,5.629,40.529-.075a9.389,9.389,0,0,1,10.207,15.761C288.811,136.838,277.252,139.24,265.769,139.24Z" transform="translate(-57.644 -28.61)" fill="none" stroke="#000" stroke-miterlimit="10" stroke-width="0.751"/>
        <path id="Path_83556" data-name="Path 83556" d="M256.519,68.782c28.371,0,52.463,5.329,61.545,12.759V69.082a61.132,61.132,0,0,0-122.263,0V80.79c9.757-7.055,33.249-12.084,60.644-12.084" transform="translate(-48.844 -1.983)"/>
        <path id="Path_83557" data-name="Path 83557" d="M256.519,68.782c28.371,0,52.463,5.329,61.545,12.759V69.082a61.132,61.132,0,0,0-122.263,0V80.79C205.632,73.735,229.124,68.782,256.519,68.782Z" transform="translate(-48.844 -1.983)" fill="none" stroke="#000" stroke-miterlimit="10" stroke-width="0.751"/>
        <path id="Path_83558" data-name="Path 83558" d="M306.062,16.336A65.9,65.9,0,0,0,263.131.5h0A65.9,65.9,0,0,0,220.2,16.336a37,37,0,0,1,35.276,37.077,37.528,37.528,0,0,1-.976,8.406l8.631-.15,8.631.15a37.452,37.452,0,0,1-.976-8.406,37,37,0,0,1,35.276-37.077" transform="translate(-54.93 -0.125)" fill="#8e0bfa"/>
        <path id="Path_83559" data-name="Path 83559" d="M306.062,16.336A65.9,65.9,0,0,0,263.131.5h0A65.9,65.9,0,0,0,220.2,16.336a37,37,0,0,1,35.276,37.077,37.528,37.528,0,0,1-.976,8.406l8.631-.15,8.631.15a37.452,37.452,0,0,1-.976-8.406,37,37,0,0,1,35.276-37.077Z" transform="translate(-54.93 -0.125)" fill="none" stroke="#000" stroke-miterlimit="10" stroke-width="0.751"/>
        <path id="Path_83560" data-name="Path 83560" d="M212.492,21.6A65.973,65.973,0,0,0,189.3,71.886V88.7h.075a8.557,8.557,0,0,1,.676-2.477c.075-9.832,24.768-17.938,56.816-19.139a37.532,37.532,0,0,0,.9-8.406A37,37,0,0,0,212.492,21.6" transform="translate(-47.222 -5.388)" fill="#00db96"/>
        <path id="Path_83561" data-name="Path 83561" d="M212.492,21.6A65.973,65.973,0,0,0,189.3,71.886V88.7h.075a8.557,8.557,0,0,1,.676-2.477c.075-9.832,24.768-17.938,56.816-19.139a37.532,37.532,0,0,0,.9-8.406A37,37,0,0,0,212.492,21.6Z" transform="translate(-47.222 -5.388)" fill="none" stroke="#000" stroke-miterlimit="10" stroke-width="0.751"/>
        <path id="Path_83562" data-name="Path 83562" d="M322.875,21.6A37,37,0,0,0,287.6,58.677a37.45,37.45,0,0,0,.976,8.406c32.048,1.276,56.816,9.382,56.816,19.139a8.558,8.558,0,0,1,.675,2.477h.075V71.886A65.973,65.973,0,0,0,322.951,21.6" transform="translate(-71.744 -5.388)" fill="#00db96"/>
        <path id="Path_83563" data-name="Path 83563" d="M322.875,21.6A37,37,0,0,0,287.6,58.677a37.451,37.451,0,0,0,.976,8.406c32.048,1.276,56.816,9.382,56.816,19.139a8.558,8.558,0,0,1,.675,2.477h.075V71.886A65.973,65.973,0,0,0,322.875,21.6Z" transform="translate(-71.744 -5.388)" fill="none" stroke="#000" stroke-miterlimit="10" stroke-width="0.751"/>
        <path id="Path_83564" data-name="Path 83564" d="M285.843,99.11l-12.684,9.007L260.4,99.11,263.777,85h18.689Z" transform="translate(-64.959 -21.204)"/>
        <path id="Path_83565" data-name="Path 83565" d="M285.843,99.11l-12.684,9.007L260.4,99.11,263.777,85h18.689Z" transform="translate(-64.959 -21.204)" fill="none" stroke="#000" stroke-miterlimit="10" stroke-width="0.751"/>
        <path id="Path_83566" data-name="Path 83566" d="M285.367,95.485l-11.934,8.406L261.5,95.485,264.652,82.2H282.14Z" transform="translate(-65.233 -20.505)" fill="#8e0bfa"/>
        <path id="Path_83567" data-name="Path 83567" d="M285.367,95.485l-11.934,8.406L261.5,95.485,264.652,82.2H282.14Z" transform="translate(-65.233 -20.505)" fill="none" stroke="#000" stroke-miterlimit="10" stroke-width="0.751"/>
        <path id="Path_83568" data-name="Path 83568" d="M326.768,365.186H154.218A24.618,24.618,0,0,1,129.6,340.569V166.818A24.618,24.618,0,0,1,154.218,142.2h172.55a24.618,24.618,0,0,1,24.618,24.618V340.569a24.618,24.618,0,0,1-24.618,24.618" transform="translate(-32.33 -35.473)" fill="#00db96"/>
        <rect id="Rectangle_134740" data-name="Rectangle 134740" width="221.785" height="222.994" rx="24.618" transform="translate(97.27 106.727)" fill="none" stroke="#000" stroke-miterlimit="10" stroke-width="0.751"/>
        <path id="Path_83569" data-name="Path 83569" d="M351.385,275.5H301.324v-2.1H281.285v2.1H199.4v-2.1h-20.04v2.1H129.6v15.236h49.761v2.777H199.4v-2.777h81.884v2.777h20.039v-2.777h50.061Z" transform="translate(-32.33 -68.202)"/>
        <path id="Path_83570" data-name="Path 83570" d="M351.385,275.5H301.324v-2.1H281.285v2.1H199.4v-2.1h-20.04v2.1H129.6v15.236h49.761v2.777H199.4v-2.777h81.884v2.777h20.039v-2.777h50.061Z" transform="translate(-32.33 -68.202)" fill="none" stroke="#000" stroke-miterlimit="10" stroke-width="0.751"/>
        <rect id="Rectangle_134741" data-name="Rectangle 134741" width="221.785" height="15.244" transform="translate(97.27 202.947)" fill="#fcf7eb"/>
        <rect id="Rectangle_134742" data-name="Rectangle 134742" width="221.785" height="15.244" transform="translate(97.27 202.947)" fill="none" stroke="#000" stroke-miterlimit="10" stroke-width="0.751"/>
        <path id="Path_83571" data-name="Path 83571" d="M144.7,163.358A22.817,22.817,0,0,1,164.064,152.7h14.11" transform="translate(-36.096 -38.092)" fill="none" stroke="#fcf7eb" stroke-linecap="round" stroke-miterlimit="10" stroke-width="7.505"/>
        <path id="Path_83572" data-name="Path 83572" d="M192.291,238.72v7.656h15.236V238.72c0-11.558-3.528-59.293-20.265-96.52H170.3c18.013,34.9,21.991,85.787,21.991,96.52" transform="translate(-42.483 -35.473)" fill="#fcf7eb"/>
        <path id="Path_83573" data-name="Path 83573" d="M192.291,238.72v7.656h15.236V238.72c0-11.558-3.528-59.293-20.265-96.52H170.3C188.388,177.1,192.291,227.987,192.291,238.72Z" transform="translate(-42.483 -35.473)" fill="none" stroke="#000" stroke-miterlimit="10" stroke-width="0.751"/>
        <path id="Path_83574" data-name="Path 83574" d="M354.765,142.2c-16.737,37.227-20.265,85.037-20.265,96.52v7.656h15.236V238.72c0-10.808,3.9-61.62,21.991-96.52Z" transform="translate(-83.443 -35.473)" fill="#fcf7eb"/>
        <path id="Path_83575" data-name="Path 83575" d="M354.765,142.2c-16.737,37.227-20.265,85.037-20.265,96.52v7.656h15.236V238.72c0-10.808,3.9-61.62,21.991-96.52Z" transform="translate(-83.443 -35.473)" fill="none" stroke="#000" stroke-miterlimit="10" stroke-width="0.751"/>
        <rect id="Rectangle_134743" data-name="Rectangle 134743" width="20.039" height="20.07" transform="translate(147.031 200.92)" fill="#8e0bfa"/>
        <rect id="Rectangle_134744" data-name="Rectangle 134744" width="20.039" height="20.07" transform="translate(147.031 200.92)" fill="none" stroke="#000" stroke-miterlimit="10" stroke-width="0.751"/>
        <rect id="Rectangle_134745" data-name="Rectangle 134745" width="20.039" height="20.07" transform="translate(248.955 200.92)" fill="#8e0bfa"/>
        <rect id="Rectangle_134746" data-name="Rectangle 134746" width="20.039" height="20.07" transform="translate(248.955 200.92)" fill="none" stroke="#000" stroke-miterlimit="10" stroke-width="0.751"/>
        <path id="Path_83576" data-name="Path 83576" d="M254.3,64.1c-38.353,0-69.5,10.132-69.5,22.591V96.824h3.978c.075-10.658,29.346-19.364,65.447-19.364s65.447,8.631,65.447,19.364h3.978V86.766c0-12.459-31.073-22.591-69.5-22.591" transform="translate(-46.1 -15.99)" fill="#8e0bfa"/>
        <path id="Path_83577" data-name="Path 83577" d="M254.3,64.1c-38.353,0-69.5,10.132-69.5,22.591V96.824h3.978c.075-10.658,29.346-19.364,65.447-19.364s65.447,8.631,65.447,19.364h3.978V86.766C323.726,74.232,292.653,64.1,254.3,64.1Z" transform="translate(-46.1 -15.99)" fill="none" stroke="#000" stroke-miterlimit="10" stroke-width="0.751"/>
        <path id="Path_83578" data-name="Path 83578" d="M254.3,77.7c-38.353,0-69.5,10.132-69.5,22.591,0,3.9,3,7.58,8.331,10.733v-3.753c-2.777-2.177-4.353-4.5-4.353-6.98,0-10.658,29.271-19.364,65.447-19.364s65.447,8.631,65.447,19.364c0,2.477-1.576,4.8-4.353,6.98v3.753c5.329-3.227,8.331-6.83,8.331-10.733,0-12.459-31.072-22.591-69.5-22.591" transform="translate(-46.1 -19.383)" fill="#fcf7eb"/>
        <path id="Path_83579" data-name="Path 83579" d="M254.3,77.7c-38.353,0-69.5,10.132-69.5,22.591,0,3.9,3,7.58,8.331,10.733v-3.753c-2.777-2.177-4.353-4.5-4.353-6.98,0-10.658,29.271-19.364,65.447-19.364s65.447,8.631,65.447,19.364c0,2.477-1.576,4.8-4.353,6.98v3.753c5.329-3.227,8.331-6.83,8.331-10.733C323.726,87.832,292.653,77.7,254.3,77.7Z" transform="translate(-46.1 -19.383)" fill="none" stroke="#000" stroke-miterlimit="10" stroke-width="0.751"/>
        <path id="Path_83580" data-name="Path 83580" d="M190.154,109.5a12.609,12.609,0,1,0,0,23.417Z" transform="translate(-43.122 -27.091)" fill="#ff3c1d"/>
        <path id="Path_83581" data-name="Path 83581" d="M190.154,109.5a12.609,12.609,0,1,0,0,23.417Z" transform="translate(-43.122 -27.091)" fill="none" stroke="#000" stroke-miterlimit="10" stroke-width="0.751"/>
        <path id="Path_83582" data-name="Path 83582" d="M363.078,108.7a12.534,12.534,0,0,0-4.278.751v23.642a12.609,12.609,0,1,0,4.278-24.393" transform="translate(-89.505 -27.115)" fill="#ff3c1d"/>
        <path id="Path_83583" data-name="Path 83583" d="M363.078,108.7a12.534,12.534,0,0,0-4.278.751v23.642a12.609,12.609,0,1,0,4.278-24.393Z" transform="translate(-89.505 -27.115)" fill="none" stroke="#000" stroke-miterlimit="10" stroke-width="0.751"/>
        <path id="Path_83584" data-name="Path 83584" d="M323.841,314.586a31.448,31.448,0,0,1-31.072,26.419H188.217a31.448,31.448,0,0,1-31.072-26.344L131.927,161.1a24.468,24.468,0,0,0-2.327,10.433V345.283A24.618,24.618,0,0,0,154.218,369.9h172.55a24.618,24.618,0,0,0,24.618-24.618V171.533a24.468,24.468,0,0,0-2.327-10.433Z" transform="translate(-32.33 -40.188)"/>
        <path id="Path_83585" data-name="Path 83585" d="M323.841,314.586a31.448,31.448,0,0,1-31.072,26.419H188.217a31.448,31.448,0,0,1-31.072-26.344L131.927,161.1a24.468,24.468,0,0,0-2.327,10.433V345.283A24.618,24.618,0,0,0,154.218,369.9h172.55a24.618,24.618,0,0,0,24.618-24.618V171.533a24.468,24.468,0,0,0-2.327-10.433Z" transform="translate(-32.33 -40.188)" fill="none" stroke="#000" stroke-miterlimit="10" stroke-width="0.751"/>
        <path id="Path_83586" data-name="Path 83586" d="M235.4,19.931A60.569,60.569,0,0,1,267.223,11" transform="translate(-58.722 -2.744)" fill="none" stroke="#fcf7eb" stroke-linecap="round" stroke-miterlimit="10" stroke-width="7.505"/>
      </g>
    </g>
  </g>
</svg>
