<svg xmlns="http://www.w3.org/2000/svg" xmlns:xlink="http://www.w3.org/1999/xlink" width="54.732" height="48.075" viewBox="0 0 54.732 48.075">
  <defs>
    <clipPath id="clip-path">
      <rect id="Rectangle_128220" data-name="Rectangle 128220" width="54.732" height="48.075" fill="none"/>
    </clipPath>
  </defs>
  <g id="Artwork_42" data-name="Artwork 42" transform="translate(27.366 24.038)">
    <g id="Group_7189" data-name="Group 7189" transform="translate(-27.366 -24.038)" clip-path="url(#clip-path)">
      <path id="Path_40932" data-name="Path 40932" d="M74.374,10.23a9.737,9.737,0,1,0-12.156,9.419V47.906h4.9V19.649a9.737,9.737,0,0,0,7.255-9.419m-13.365,0A3.628,3.628,0,0,1,64.637,6.6H65.4a3.628,3.628,0,1,1-4.391,3.564" transform="translate(-19.96 -0.174)" fill="#00db96"/>
      <path id="Path_40933" data-name="Path 40933" d="M74.374,10.23a9.737,9.737,0,1,0-12.156,9.419V47.906h4.9V19.649a9.737,9.737,0,0,0,7.255-9.419Zm-13.365,0A3.628,3.628,0,0,1,64.637,6.6H65.4a3.628,3.628,0,1,1-4.391,3.564Z" transform="translate(-19.96 -0.174)" fill="none" stroke="#000" stroke-miterlimit="10" stroke-width="0.636"/>
      <path id="Path_40934" data-name="Path 40934" d="M34.721,25.366H7.1V13.91a13.81,13.81,0,0,1,27.621,0ZM11.428,21.1H30.457V13.91a9.546,9.546,0,0,0-19.029,0Z" transform="translate(-2.581 -0.036)"/>
      <path id="Path_40935" data-name="Path 40935" d="M33.848,58.448H3.428A2.928,2.928,0,0,1,.5,55.52V36.428A2.928,2.928,0,0,1,3.428,33.5H33.848a2.928,2.928,0,0,1,2.928,2.928V55.52a2.928,2.928,0,0,1-2.928,2.928" transform="translate(-0.182 -12.18)" fill="#fdfb76"/>
      <rect id="Rectangle_128219" data-name="Rectangle 128219" width="36.212" height="24.884" rx="2.928" transform="translate(0.318 21.384)" fill="none" stroke="#000" stroke-miterlimit="10" stroke-width="0.636"/>
      <path id="Path_40936" data-name="Path 40936" d="M49.882,33.6H44.6a2.928,2.928,0,0,1,2.928,2.928V55.62A2.928,2.928,0,0,1,44.6,58.548h5.282A2.928,2.928,0,0,0,52.81,55.62V36.528A2.928,2.928,0,0,0,49.882,33.6" transform="translate(-16.216 -12.216)"/>
      <path id="Path_40937" data-name="Path 40937" d="M49.882,33.6H44.6a2.928,2.928,0,0,1,2.928,2.928V55.62A2.928,2.928,0,0,1,44.6,58.548h5.282A2.928,2.928,0,0,0,52.81,55.62V36.528A2.928,2.928,0,0,0,49.882,33.6Z" transform="translate(-16.216 -12.216)" fill="none" stroke="#000" stroke-miterlimit="10" stroke-width="0.636"/>
      <path id="Path_40938" data-name="Path 40938" d="M25.882,51.909v3.819a1.336,1.336,0,0,0,2.673,0V51.909a3.118,3.118,0,1,0-2.673,0" transform="translate(-8.762 -16.715)"/>
      <path id="Path_40939" data-name="Path 40939" d="M25.882,51.909v3.819a1.336,1.336,0,0,0,2.673,0V51.909a3.118,3.118,0,1,0-2.673,0Z" transform="translate(-8.762 -16.715)" fill="none" stroke="#000" stroke-miterlimit="10" stroke-width="0.636"/>
      <path id="Path_40940" data-name="Path 40940" d="M79.937,53.1V48.264L70.2,48.2V62.838h9.737V58H77.519V53.1Z" transform="translate(-25.523 -17.524)" fill="#ff3c1d"/>
      <path id="Path_40941" data-name="Path 40941" d="M79.937,53.1V48.264L70.2,48.2V62.838h9.737V58H77.519V53.1Z" transform="translate(-25.523 -17.524)" fill="none" stroke="#000" stroke-miterlimit="10" stroke-width="0.636"/>
      <path id="Path_40942" data-name="Path 40942" d="M79.937,53.1V48.264L70.2,48.2l7.255.064V53.1H75.037V58h2.418v4.837h2.482V58H77.519V53.1Z" transform="translate(-25.523 -17.524)"/>
      <path id="Path_40943" data-name="Path 40943" d="M79.937,53.1V48.264L70.2,48.2l7.255.064V53.1H75.037V58h2.418v4.837h2.482V58H77.519V53.1Z" transform="translate(-25.523 -17.524)" fill="none" stroke="#000" stroke-miterlimit="10" stroke-width="0.636"/>
      <path id="Path_40944" data-name="Path 40944" d="M79.21,10.237A9.737,9.737,0,0,0,69.473.5H68.2a9.737,9.737,0,0,1,1.209,19.029V47.913h2.482V19.656a9.737,9.737,0,0,0,7.319-9.419" transform="translate(-24.796 -0.182)"/>
      <path id="Path_40945" data-name="Path 40945" d="M79.21,10.237A9.737,9.737,0,0,0,69.473.5H68.2a9.737,9.737,0,0,1,1.209,19.029V47.913h2.482V19.656a9.737,9.737,0,0,0,7.319-9.419Z" transform="translate(-24.796 -0.182)" fill="none" stroke="#000" stroke-linejoin="round" stroke-width="0.636"/>
    </g>
  </g>
</svg>
