<svg xmlns="http://www.w3.org/2000/svg" xmlns:xlink="http://www.w3.org/1999/xlink" width="54.732" height="52.338" viewBox="0 0 54.732 52.338">
  <defs>
    <clipPath id="clip-path">
      <rect id="Rectangle_128202" data-name="Rectangle 128202" width="54.732" height="52.338" fill="none"/>
    </clipPath>
    <clipPath id="clip-path-2">
      <rect id="Rectangle_128201" data-name="Rectangle 128201" width="54.731" height="52.338" fill="none"/>
    </clipPath>
  </defs>
  <g id="Artwork_41" data-name="Artwork 41" transform="translate(0)">
    <g id="Group_7173" data-name="Group 7173" transform="translate(0 0)">
      <g id="Group_7172" data-name="Group 7172" clip-path="url(#clip-path)">
        <g id="Group_7171" data-name="Group 7171">
          <g id="Group_7170" data-name="Group 7170" clip-path="url(#clip-path-2)">
            <path id="Path_40621" data-name="Path 40621" d="M390.008,271.332h-3.266l2.9,29.026-2.9-2.9v16.327h3.266a3.275,3.275,0,0,0,3.265-3.265V274.6a3.275,3.275,0,0,0-3.265-3.265" transform="translate(-338.86 -271.014)"/>
            <path id="Path_40622" data-name="Path 40622" d="M390.008,271.332h-3.266l2.9,29.026-2.9-2.9v16.327h3.266a3.275,3.275,0,0,0,3.265-3.265V274.6A3.275,3.275,0,0,0,390.008,271.332Z" transform="translate(-338.86 -271.014)" fill="none" stroke="#000" stroke-miterlimit="10" stroke-width="1"/>
            <path id="Path_40623" data-name="Path 40623" d="M351.3,338.063l-9.158,3.265-.347,1.214a4.6,4.6,0,0,1-4.163,3.14v.816h18.993Z" transform="translate(-320.991 -295.295)" fill="#fa391c"/>
            <path id="Path_40624" data-name="Path 40624" d="M351.3,338.063l-9.158,3.265-.347,1.214a4.6,4.6,0,0,1-4.163,3.14v.816h18.993Z" transform="translate(-320.991 -295.295)" fill="none" stroke="#000" stroke-miterlimit="10" stroke-width="1"/>
            <path id="Path_40625" data-name="Path 40625" d="M357.495,340.674l-1.28-4.479-5.279-3.265-5.279,3.265-.933,3.265h9.158l.347,1.214a4.594,4.594,0,0,0,4.162,3.14l1.633.816,1.632-.816a4.594,4.594,0,0,1-4.162-3.14" transform="translate(-323.57 -293.427)"/>
            <path id="Path_40626" data-name="Path 40626" d="M357.495,340.674l-1.28-4.479-5.279-3.265-5.279,3.265-.933,3.265h9.158l.347,1.214a4.594,4.594,0,0,0,4.162,3.14l1.633.816,1.632-.816A4.594,4.594,0,0,1,357.495,340.674Z" transform="translate(-323.57 -293.427)" fill="none" stroke="#000" stroke-miterlimit="10" stroke-width="1"/>
            <path id="Path_40627" data-name="Path 40627" d="M311.97,321.723a3.275,3.275,0,0,0,3.265,3.265h44.3a3.275,3.275,0,0,0,3.266-3.265V302.131l-50.83,13.062Z" transform="translate(-311.652 -282.221)" fill="#fa391c"/>
            <path id="Path_40628" data-name="Path 40628" d="M311.97,321.723a3.275,3.275,0,0,0,3.265,3.265h44.3a3.275,3.275,0,0,0,3.266-3.265V302.131l-50.83,13.062Z" transform="translate(-311.652 -282.221)" fill="none" stroke="#000" stroke-miterlimit="10" stroke-width="1"/>
            <path id="Path_40629" data-name="Path 40629" d="M362.8,274.6a3.276,3.276,0,0,0-3.266-3.265h-44.3a3.275,3.275,0,0,0-3.265,3.265v29.389H362.8V300.72l-23.783-13.063Z" transform="translate(-311.652 -271.014)" fill="#701793"/>
            <path id="Path_40630" data-name="Path 40630" d="M362.8,274.6a3.276,3.276,0,0,0-3.266-3.265h-44.3a3.275,3.275,0,0,0-3.265,3.265v29.389H362.8V300.72l-23.783-13.063Z" transform="translate(-311.652 -271.014)" fill="none" stroke="#000" stroke-miterlimit="10" stroke-width="1"/>
            <path id="Path_40631" data-name="Path 40631" d="M364.668,276.463l-3.265,0,0,0-44.288,0s-.005,26.125-.009,26.125l44.3,0,0,0,3.265,0V276.463" transform="translate(-313.52 -272.88)" fill="#1fb384"/>
            <path id="Path_40632" data-name="Path 40632" d="M364.668,276.463l-3.265,0,0,0-44.288,0s-.005,26.125-.009,26.125l44.3,0,0,0,3.265,0Z" transform="translate(-313.52 -272.88)" fill="none" stroke="#000" stroke-miterlimit="10" stroke-width="1"/>
            <path id="Path_40633" data-name="Path 40633" d="M353.556,327.8a1.633,1.633,0,1,1-1.632,1.633,1.633,1.633,0,0,1,1.632-1.633" transform="translate(-326.19 -291.56)"/>
            <path id="Path_40634" data-name="Path 40634" d="M353.556,327.8a1.633,1.633,0,1,1-1.632,1.633A1.633,1.633,0,0,1,353.556,327.8Z" transform="translate(-326.19 -291.56)" fill="none" stroke="#000" stroke-miterlimit="10" stroke-width="1"/>
            <path id="Path_40635" data-name="Path 40635" d="M361.243,351.673H327.5a.816.816,0,0,1,0-1.633h33.742a.816.816,0,0,1,0,1.633" transform="translate(-317.006 -299.653)"/>
            <path id="Path_40636" data-name="Path 40636" d="M361.243,351.673H327.5a.816.816,0,0,1,0-1.633h33.742a.816.816,0,0,1,0,1.633Z" transform="translate(-317.006 -299.653)" fill="none" stroke="#000" stroke-miterlimit="10" stroke-width="1"/>
            <path id="Path_40637" data-name="Path 40637" d="M350.367,300.814l-.908.477a.5.5,0,0,1-.464,0l-.909-.477a14.479,14.479,0,0,1-8.061-12.7v-3.2a.5.5,0,0,1,.441-.5,3.624,3.624,0,0,0,3.3-2.969.5.5,0,0,1,.495-.437h9.924a.5.5,0,0,1,.495.437,3.624,3.624,0,0,0,3.3,2.969.5.5,0,0,1,.441.5v3.2a14.48,14.48,0,0,1-8.062,12.7" transform="translate(-321.86 -274.538)" fill="#f2f876"/>
            <path id="Path_40638" data-name="Path 40638" d="M350.367,300.814l-.908.477a.5.5,0,0,1-.464,0l-.909-.477a14.479,14.479,0,0,1-8.061-12.7v-3.2a.5.5,0,0,1,.441-.5,3.624,3.624,0,0,0,3.3-2.969.5.5,0,0,1,.495-.437h9.924a.5.5,0,0,1,.495.437,3.624,3.624,0,0,0,3.3,2.969.5.5,0,0,1,.441.5v3.2A14.48,14.48,0,0,1,350.367,300.814Z" transform="translate(-321.86 -274.538)" fill="none" stroke="#000" stroke-miterlimit="10" stroke-width="1"/>
            <path id="Path_40639" data-name="Path 40639" d="M363.171,284.423a3.623,3.623,0,0,1-3.3-2.969.5.5,0,0,0-.5-.437h-.134a3.924,3.924,0,0,0,3.3,3.865.5.5,0,0,1,.44.5v3.2c0,5.236-3.614,10.074-8.6,12.7l-.1.055a.5.5,0,0,0,.372-.036l.908-.478a14.48,14.48,0,0,0,8.061-12.7v-3.2a.5.5,0,0,0-.44-.5" transform="translate(-327.044 -274.538)"/>
            <path id="Path_40640" data-name="Path 40640" d="M350.164,299.99a12.987,12.987,0,0,1-4.942-4.487,11.249,11.249,0,0,1-1.779-6.028v-1.649a.581.581,0,0,1,.366-.541,5.108,5.108,0,0,0,2.747-2.524.58.58,0,0,1,.525-.329h6.777a.581.581,0,0,1,.525.329,5.106,5.106,0,0,0,2.746,2.524.582.582,0,0,1,.367.541v1.649a11.244,11.244,0,0,1-1.78,6.028,12.986,12.986,0,0,1-4.941,4.487l-.034.018a.581.581,0,0,1-.543,0Z" transform="translate(-323.104 -275.78)" fill="#fa391c"/>
            <path id="Path_40641" data-name="Path 40641" d="M350.164,299.99a12.987,12.987,0,0,1-4.942-4.487,11.249,11.249,0,0,1-1.779-6.028v-1.649a.581.581,0,0,1,.366-.541,5.108,5.108,0,0,0,2.747-2.524.58.58,0,0,1,.525-.329h6.777a.581.581,0,0,1,.525.329,5.106,5.106,0,0,0,2.746,2.524.582.582,0,0,1,.367.541v1.649a11.244,11.244,0,0,1-1.78,6.028,12.986,12.986,0,0,1-4.941,4.487l-.034.018a.581.581,0,0,1-.543,0Z" transform="translate(-323.104 -275.78)" fill="none" stroke="#000" stroke-miterlimit="10" stroke-width="1"/>
            <path id="Path_40642" data-name="Path 40642" d="M361.149,287.285l-.029-.012-.047-.019-.081-.034-.046-.02-.085-.039-.039-.018-.121-.059-.01-.005-.11-.058-.039-.021-.079-.044-.044-.025-.074-.044-.043-.026-.076-.048-.037-.024c-.035-.022-.069-.046-.1-.069l-.008-.005-.108-.078-.033-.024-.074-.055-.038-.03-.067-.053-.038-.031-.067-.057-.034-.029-.082-.073-.017-.015c-.032-.029-.064-.059-.095-.09l-.027-.027-.066-.066-.033-.034c-.02-.02-.039-.041-.059-.062l-.034-.036-.057-.064-.031-.035-.066-.078-.019-.022-.081-.1-.02-.027c-.02-.025-.04-.052-.059-.078l-.027-.038-.049-.069-.028-.041-.048-.071c-.008-.013-.017-.026-.025-.039l-.051-.081-.018-.03c-.023-.037-.044-.074-.066-.112l-.014-.024-.049-.091q-.011-.02-.021-.04c-.014-.025-.027-.051-.039-.076l-.022-.044c-.006-.011-.012-.022-.016-.034a.583.583,0,0,0-.526-.329h-3.388v15.644a.585.585,0,0,0,.272-.067l.034-.018a12.981,12.981,0,0,0,4.941-4.488,11.243,11.243,0,0,0,1.781-6.028v-1.648a.582.582,0,0,0-.367-.541" transform="translate(-327.124 -275.78)" fill="#fa285c"/>
            <path id="Path_40643" data-name="Path 40643" d="M361.149,287.285l-.029-.012-.047-.019-.081-.034-.046-.02-.085-.039-.039-.018-.121-.059-.01-.005-.11-.058-.039-.021-.079-.044-.044-.025-.074-.044-.043-.026-.076-.048-.037-.024c-.035-.022-.069-.046-.1-.069l-.008-.005-.108-.078-.033-.024-.074-.055-.038-.03-.067-.053-.038-.031-.067-.057-.034-.029-.082-.073-.017-.015c-.032-.029-.064-.059-.095-.09l-.027-.027-.066-.066-.033-.034c-.02-.02-.039-.041-.059-.062l-.034-.036-.057-.064-.031-.035-.066-.078-.019-.022-.081-.1-.02-.027c-.02-.025-.04-.052-.059-.078l-.027-.038-.049-.069-.028-.041-.048-.071c-.008-.013-.017-.026-.025-.039l-.051-.081-.018-.03c-.023-.037-.044-.074-.066-.112l-.014-.024-.049-.091q-.011-.02-.021-.04c-.014-.025-.027-.051-.039-.076l-.022-.044c-.006-.011-.012-.022-.016-.034a.583.583,0,0,0-.526-.329h-3.388v15.644a.585.585,0,0,0,.272-.067l.034-.018a12.981,12.981,0,0,0,4.941-4.488,11.243,11.243,0,0,0,1.781-6.028v-1.648A.582.582,0,0,0,361.149,287.285Z" transform="translate(-327.124 -275.78)" fill="none" stroke="#000" stroke-miterlimit="10" stroke-width="1"/>
            <path id="Path_40644" data-name="Path 40644" d="M361.149,287.285l-.029-.012-.047-.019-.081-.034-.046-.02-.085-.039-.039-.018-.121-.059-.01-.005-.11-.058-.039-.021-.079-.044-.044-.025-.074-.044-.043-.026-.076-.048-.037-.024c-.035-.022-.069-.046-.1-.069l-.008-.005-.108-.078-.033-.024-.074-.055-.038-.03-.067-.053-.038-.031-.067-.057-.034-.029-.082-.073-.017-.015c-.032-.029-.064-.059-.095-.09l-.027-.027-.066-.066-.033-.034c-.02-.02-.039-.041-.059-.062l-.034-.036-.057-.064-.031-.035-.066-.078-.019-.022-.081-.1-.02-.027c-.02-.025-.04-.052-.059-.078l-.027-.038-.049-.069-.028-.041-.048-.071c-.008-.013-.017-.026-.025-.039l-.051-.081-.018-.03c-.023-.037-.044-.074-.066-.112l-.014-.024-.049-.091q-.011-.02-.021-.04c-.014-.025-.027-.051-.039-.076l-.022-.044c-.006-.011-.012-.022-.016-.034a.583.583,0,0,0-.526-.329h-.4a5.088,5.088,0,0,1,.413.621.33.33,0,0,1,.016.034c.008.015.015.029.022.044l.039.076c.007.013.013.027.021.041l.05.09.013.025c.021.038.043.074.065.111l.019.031c.016.027.033.054.05.081l.026.039.046.07.028.041c.016.024.033.046.05.069l.027.038.059.078.02.026c.027.034.053.068.081.1l.018.023.066.077.031.035.057.064.034.036.059.062.034.034.066.066.027.027c.031.031.064.06.1.09a.2.2,0,0,0,.017.015c.027.025.054.049.081.073l.034.03.067.057.039.031.066.053.039.03c.024.019.048.038.073.055l.034.025c.035.026.071.052.108.077l.007.005.1.069.038.024.076.048.043.025.074.045.043.025.08.044.039.021.11.058.009.005.122.059.038.018.085.039.046.02.08.034.048.02.029.011a.582.582,0,0,1,.366.542v1.648a11.247,11.247,0,0,1-1.779,6.028,15.842,15.842,0,0,1-4.738,4.265v.015a.585.585,0,0,0,.272-.067l.034-.018a12.981,12.981,0,0,0,4.941-4.488,11.243,11.243,0,0,0,1.781-6.028v-1.648a.582.582,0,0,0-.367-.541" transform="translate(-327.124 -275.78)"/>
          </g>
        </g>
      </g>
    </g>
  </g>
</svg>
