<svg xmlns="http://www.w3.org/2000/svg" xmlns:xlink="http://www.w3.org/1999/xlink" width="404.4" height="259.402" viewBox="0 0 404.4 259.402">
  <defs>
    <clipPath id="clip-path">
      <rect id="Rectangle_120588" data-name="Rectangle 120588" width="402" height="257.003" fill="#8e0bfa" stroke="#20211b" stroke-width="1"/>
    </clipPath>
    <clipPath id="clip-path-2">
      <rect id="Rectangle_120586" data-name="Rectangle 120586" width="654.475" height="278.942" transform="translate(0)"/>
    </clipPath>
    <clipPath id="clip-path-3">
      <rect id="Rectangle_121045" data-name="Rectangle 121045" width="264.007" height="317.298" fill="none"/>
    </clipPath>
    <clipPath id="clip-path-4">
      <path id="Path_8352" data-name="Path 8352" d="M189.187,246.944,164.307,282.9l-24.88,35.952L114.611,282.9l-24.88-35.952L20.5,225.5,80,311.4l59.432,85.966,59.5-85.966,59.5-85.9Z" transform="translate(-20.5 -225.5)" fill="none"/>
    </clipPath>
    <clipPath id="clip-path-6">
      <rect id="Rectangle_121049" data-name="Rectangle 121049" width="102.701" height="129.433" fill="none"/>
    </clipPath>
    <clipPath id="clip-path-8">
      <path id="Path_8397" data-name="Path 8397" d="M212.119,161c-5.854,2.418-12.344,4.645-19.726,4.645s-13.808-2.227-19.662-4.645a4.78,4.78,0,0,0-3.627,8.845c6.427,2.673,14.253,5.409,23.353,5.409s16.862-2.736,23.353-5.409A4.78,4.78,0,0,0,212.182,161" transform="translate(-166.136 -160.636)" fill="none"/>
    </clipPath>
  </defs>
  <g id="Group_4017" data-name="Group 4017" transform="translate(-25.8 24.2)">
    <g id="Group_4016" data-name="Group 4016" transform="translate(27 -23)">
      <rect id="Rectangle_120587" data-name="Rectangle 120587" width="402" height="257.003" transform="translate(0)" fill="#8e0bfa"/>
      <path id="Rectangle_120587_-_Outline" data-name="Rectangle 120587 - Outline" d="M0,0V257H402V0H0M-1.2-1.2H403.2V258.2H-1.2Z" transform="translate(0)"/>
      <g id="Mask_Group_3" data-name="Mask Group 3" transform="translate(0 0)" clip-path="url(#clip-path)">
        <g id="Group_3924" data-name="Group 3924" transform="translate(-125.012 14.103)" clip-path="url(#clip-path-2)">
          <g id="Artwork_20" data-name="Artwork 20" transform="translate(195.234 0.367)">
            <g id="Artwork_20-2" data-name="Artwork 20">
              <rect id="Rectangle_121043" data-name="Rectangle 121043" width="102.701" height="129.433" transform="translate(80.685 155.133)" fill="#fcf7eb"/>
              <path id="Rectangle_121044" data-name="Rectangle 121044" d="M-.22-.22H102.921V129.652H-.22Zm102.7.44H.22V129.213H102.481Z" transform="translate(80.685 155.133)"/>
              <g id="Group_4065" data-name="Group 4065" clip-path="url(#clip-path-3)">
                <path id="Path_8297" data-name="Path 8297" d="M219.463,141.125a18.262,18.262,0,0,0,17.817-14.19c-2.036,2.927-5.6,5.536-9.481,5.536a11.527,11.527,0,0,1-11.2-9.863C213.864,106,204.637,34.1,197.829,19.717a48.549,48.549,0,0,0-5.091-8.272C188.284,5.4,179.185.5,167.54.5s-20.68,4.9-25.2,11.008a48.613,48.613,0,0,0-5.091,8.272c-6.809,14.381-16.035,86.284-18.771,102.892a11.427,11.427,0,0,1-11.2,9.863c-3.882,0-7.445-2.609-9.481-5.536a18.262,18.262,0,0,0,25.962,12.217,7.572,7.572,0,0,1-7.127,9.99H115.49a22.144,22.144,0,0,0,26.152-4.327,8.654,8.654,0,0,1-4.327,12.472,15.462,15.462,0,0,0,19.6-14.89l10.69-7,10.69,7a15.462,15.462,0,0,0,19.535,14.826,8.654,8.654,0,0,1-4.327-12.472,22.144,22.144,0,0,0,26.153,4.327h-1.145a7.572,7.572,0,0,1-7.127-9.99,18.2,18.2,0,0,0,8.145,1.909" transform="translate(-35.569 -0.182)" fill="#ff0d5b"/>
                <path id="Path_8298" data-name="Path 8298" d="M141.45,158.135a15.68,15.68,0,0,1-4.194-.572l-.639-.177.618-.239a8.434,8.434,0,0,0,4.36-11.9,22.352,22.352,0,0,1-15.933,6.663,22.444,22.444,0,0,1-10.274-2.5l-.8-.415h2.048a7.352,7.352,0,0,0,6.995-9.46,18.482,18.482,0,0,1-26.044-12.478l-.257-1.112.652.937a14.014,14.014,0,0,0,3.985,3.8,10.123,10.123,0,0,0,5.316,1.637,10.781,10.781,0,0,0,7.29-2.8,11.8,11.8,0,0,0,3.692-6.879c.566-3.434,1.4-9.158,2.452-16.4,2-13.723,4.729-32.517,7.634-49.279,1.587-9.155,3.075-16.813,4.422-22.763,1.573-6.946,3.013-11.827,4.282-14.505a48.944,48.944,0,0,1,5.114-8.311,25.958,25.958,0,0,1,10.009-7.861,33.987,33.987,0,0,1,7.1-2.368A39.01,39.01,0,0,1,167.54.28a36.922,36.922,0,0,1,15.388,3.226,25.668,25.668,0,0,1,9.987,7.808,48.863,48.863,0,0,1,5.111,8.307c1.269,2.68,2.71,7.56,4.282,14.507,1.347,5.95,2.835,13.608,4.422,22.763,2.906,16.762,5.639,35.556,7.634,49.279,1.054,7.246,1.886,12.97,2.452,16.4a12.04,12.04,0,0,0,3.74,6.88,10.651,10.651,0,0,0,7.242,2.8,10.123,10.123,0,0,0,5.316-1.637,14.014,14.014,0,0,0,3.985-3.8l.648-.931-.253,1.105a18.472,18.472,0,0,1-18.016,14.361h-.015a18.522,18.522,0,0,1-7.949-1.881,7.352,7.352,0,0,0,7,9.459h2.047l-.8.415a22.364,22.364,0,0,1-18.953.756,22.211,22.211,0,0,1-7.255-4.915,8.434,8.434,0,0,0,4.36,11.9l.623.241-.644.176a15.682,15.682,0,0,1-19.811-14.919L167.6,135.725l-10.471,6.856a15.682,15.682,0,0,1-15.682,15.554ZM138,157.3a15.243,15.243,0,0,0,18.7-14.837v-.119L167.6,135.2l10.909,7.143v.118a15.242,15.242,0,0,0,18.631,14.772,8.874,8.874,0,0,1-3.832-12.528l.147-.249.2.209a21.914,21.914,0,0,0,15.821,6.739,22.009,22.009,0,0,0,9.226-2.04h-.2a7.792,7.792,0,0,1-7.335-10.28l.081-.241.227.115a18.073,18.073,0,0,0,7.984,1.949h.013a18.033,18.033,0,0,0,17.311-12.96,14.436,14.436,0,0,1-3.442,3.042,10.56,10.56,0,0,1-5.549,1.7,11.128,11.128,0,0,1-4.113-.778,11.306,11.306,0,0,1-3.424-2.134,12.483,12.483,0,0,1-3.879-7.133c-.567-3.439-1.4-9.165-2.453-16.413-2-13.72-4.728-32.511-7.633-49.267-1.586-9.147-3.072-16.8-4.417-22.741-1.566-6.915-3-11.765-4.25-14.414a48.43,48.43,0,0,0-5.067-8.233,25.232,25.232,0,0,0-9.82-7.673A36.48,36.48,0,0,0,167.54.72a38.569,38.569,0,0,0-8.168.856,33.547,33.547,0,0,0-7.011,2.337,25.522,25.522,0,0,0-9.842,7.726,48.51,48.51,0,0,0-5.069,8.237c-1.253,2.648-2.683,7.5-4.249,14.412-1.346,5.943-2.832,13.594-4.417,22.741-2.9,16.757-5.637,35.547-7.633,49.267-1.054,7.248-1.887,12.973-2.453,16.411a12.241,12.241,0,0,1-3.832,7.135,11.221,11.221,0,0,1-7.584,2.912,10.56,10.56,0,0,1-5.549-1.7,14.434,14.434,0,0,1-3.436-3.034,18.042,18.042,0,0,0,25.367,11l.226-.113.081.239a7.792,7.792,0,0,1-7.334,10.28h-.2a21.923,21.923,0,0,0,17.734.326,21.782,21.782,0,0,0,7.313-5.025l.2-.209.147.249A8.874,8.874,0,0,1,138,157.3Z" transform="translate(-35.569 -0.182)"/>
                <path id="Path_8299" data-name="Path 8299" d="M217.647,100.9a23.289,23.289,0,0,0,2.673-10.754c0-16.862-18.771-30.543-41.869-30.543s-41.869,13.681-41.869,30.543a23.29,23.29,0,0,0,2.673,10.754c-7.19,6.109-11.454,14-11.454,22.525,0,19.662,22.716,35.57,50.651,35.57s50.651-15.908,50.651-35.57c0-8.527-4.327-16.417-11.454-22.526" transform="translate(-46.479 -21.676)"/>
                <path id="Path_8300" data-name="Path 8300" d="M178.451,59.38A55.373,55.373,0,0,1,194.8,61.791a45.254,45.254,0,0,1,13.375,6.579,32.228,32.228,0,0,1,9.04,9.776,23.253,23.253,0,0,1,.707,22.7,35.338,35.338,0,0,1,8.367,10.331,25.923,25.923,0,0,1,3.031,12.249,26.77,26.77,0,0,1-4.017,13.965,38.052,38.052,0,0,1-10.926,11.372,55.576,55.576,0,0,1-16.165,7.65,71.088,71.088,0,0,1-39.523,0,55.575,55.575,0,0,1-16.165-7.65A38.051,38.051,0,0,1,131.6,137.388a26.231,26.231,0,0,1-.963-26.237,34.54,34.54,0,0,1,8.343-10.309,23.253,23.253,0,0,1,.707-22.7,32.228,32.228,0,0,1,9.04-9.776A45.254,45.254,0,0,1,162.1,61.791,55.373,55.373,0,0,1,178.451,59.38Zm0,99.392a68.949,68.949,0,0,0,19.636-2.784,55.137,55.137,0,0,0,16.038-7.588,37.616,37.616,0,0,0,10.8-11.239,26.338,26.338,0,0,0,3.954-13.739,25.49,25.49,0,0,0-2.982-12.044,34.987,34.987,0,0,0-8.4-10.314l-.133-.114.081-.155a22.815,22.815,0,0,0-.617-22.427,31.793,31.793,0,0,0-8.918-9.641,44.817,44.817,0,0,0-13.245-6.515,56.217,56.217,0,0,0-32.444,0,44.817,44.817,0,0,0-13.245,6.515,31.793,31.793,0,0,0-8.918,9.641,22.816,22.816,0,0,0-.617,22.427l.082.156-.134.114a34.178,34.178,0,0,0-8.37,10.289,25.792,25.792,0,0,0,.948,25.808,37.616,37.616,0,0,0,10.8,11.239,55.137,55.137,0,0,0,16.038,7.588A68.949,68.949,0,0,0,178.451,158.772Z" transform="translate(-46.479 -21.676)"/>
                <path id="Path_8301" data-name="Path 8301" d="M123.825,211.517a10.626,10.626,0,0,0-1.591-3.182,18.326,18.326,0,0,1-20.68-5.409A14.127,14.127,0,0,1,97.8,199.3a18.262,18.262,0,0,0,25.962,12.217" transform="translate(-35.569 -72.483)"/>
                <path id="Path_8302" data-name="Path 8302" d="M115.592,213.666A18.482,18.482,0,0,1,97.586,199.35l-.251-1.086.645.909a13.852,13.852,0,0,0,3.7,3.571l.027.018.021.025a18.1,18.1,0,0,0,20.432,5.344l.157-.06.1.136a10.82,10.82,0,0,1,1.624,3.247l.086.284h-.309A18.579,18.579,0,0,1,115.592,213.666ZM98.291,200.3a18.042,18.042,0,0,0,25.259,11.076,10.375,10.375,0,0,0-1.4-2.776,18.462,18.462,0,0,1-6.489,1.175,18.692,18.692,0,0,1-7.82-1.727,18.392,18.392,0,0,1-6.44-4.956A14.282,14.282,0,0,1,98.291,200.3Z" transform="translate(-35.569 -72.483)"/>
                <path id="Path_8303" data-name="Path 8303" d="M216.268,228.862H216.2A15.462,15.462,0,0,1,200.742,213.4l-10.69-7-10.69,7A15.462,15.462,0,0,1,163.9,228.862h-.064a8.654,8.654,0,0,1-4.136,3.309,15.462,15.462,0,0,0,19.6-14.89l10.69-7,10.69,7a15.462,15.462,0,0,0,19.662,14.89,8.653,8.653,0,0,1-4.136-3.309" transform="translate(-58.081 -75.065)"/>
                <path id="Path_8304" data-name="Path 8304" d="M216.142,232.972h0A15.682,15.682,0,0,1,200.459,217.4l-10.471-6.856L179.518,217.4a15.682,15.682,0,0,1-19.877,14.982L159,232.2l.626-.238a8.386,8.386,0,0,0,4.031-3.225l.065-.1h.182A15.243,15.243,0,0,0,179.142,213.4v-.119l10.91-7.143,10.91,7.143v.119A15.243,15.243,0,0,0,216.2,228.642h.182l.065.1a8.39,8.39,0,0,0,3.969,3.225l.608.239-.628.177A15.677,15.677,0,0,1,216.142,232.972Zm-26.154-22.953,10.91,7.143v.119a15.243,15.243,0,0,0,15.244,15.251h0a15.233,15.233,0,0,0,3.527-.414,8.817,8.817,0,0,1-3.519-3.037,15.682,15.682,0,0,1-15.628-15.563l-10.471-6.856-10.471,6.856a15.783,15.783,0,0,1-.441,3.6Zm-29.6,22.1a15.243,15.243,0,0,0,18.692-14.751,15.7,15.7,0,0,1-15.125,11.714A8.813,8.813,0,0,1,160.386,232.119Z" transform="translate(-58.081 -75.065)"/>
                <path id="Path_8305" data-name="Path 8305" d="M150.262,223.5a22.335,22.335,0,0,1-14.508,5.345,21.061,21.061,0,0,1-3.945-.382,7.508,7.508,0,0,1-4.963,1.845H125.7a22.144,22.144,0,0,0,26.152-4.327,22.206,22.206,0,0,0-1.591-2.418" transform="translate(-45.715 -81.284)"/>
                <path id="Path_8306" data-name="Path 8306" d="M150.3,223.18l.14.19a22.508,22.508,0,0,1,1.607,2.506l.078.142-.112.117a22.352,22.352,0,0,1-16.138,6.874,22.444,22.444,0,0,1-10.274-2.5l-.8-.415h2.081a7.288,7.288,0,0,0,4.786-1.791l.081-.07.105.02a20.892,20.892,0,0,0,3.9.378h.01a22.133,22.133,0,0,0,14.355-5.292Zm1.283,2.766a22.087,22.087,0,0,0-1.358-2.126,22.573,22.573,0,0,1-14.459,5.245h-.01a21.334,21.334,0,0,1-3.882-.366,7.728,7.728,0,0,1-4.993,1.829h-.231a21.923,21.923,0,0,0,17.734.326A21.775,21.775,0,0,0,151.581,225.946Z" transform="translate(-45.715 -81.284)"/>
                <path id="Path_8307" data-name="Path 8307" d="M276.2,211.517a10.628,10.628,0,0,1,1.591-3.182,18.326,18.326,0,0,0,20.68-5.409,14.126,14.126,0,0,0,3.754-3.627,18.262,18.262,0,0,1-25.962,12.217" transform="translate(-100.45 -72.483)"/>
                <path id="Path_8308" data-name="Path 8308" d="M284.433,213.666a18.578,18.578,0,0,1-8.221-1.929H275.9l.086-.284a10.821,10.821,0,0,1,1.624-3.247l.1-.136.157.06a18.1,18.1,0,0,0,20.432-5.344l.021-.025.027-.018a13.851,13.851,0,0,0,3.7-3.571l.645-.909-.251,1.086a18.482,18.482,0,0,1-18.006,14.317Zm-7.958-2.29A18.041,18.041,0,0,0,301.734,200.3a14.282,14.282,0,0,1-3.115,2.792,18.391,18.391,0,0,1-6.44,4.956,18.694,18.694,0,0,1-7.82,1.727,18.46,18.46,0,0,1-6.489-1.175A10.379,10.379,0,0,0,276.475,211.377Z" transform="translate(-100.45 -72.483)"/>
                <path id="Path_8309" data-name="Path 8309" d="M249.691,223.5a22.335,22.335,0,0,0,14.508,5.345,21.063,21.063,0,0,0,3.945-.382,7.508,7.508,0,0,0,4.963,1.845h1.145a22.144,22.144,0,0,1-26.152-4.327,22.2,22.2,0,0,1,1.591-2.418" transform="translate(-90.231 -81.284)"/>
                <path id="Path_8310" data-name="Path 8310" d="M249.654,223.18l.179.153a22.133,22.133,0,0,0,14.355,5.292h.01a20.892,20.892,0,0,0,3.9-.378l.105-.02.081.07a7.288,7.288,0,0,0,4.786,1.791h2.081l-.8.415a22.365,22.365,0,0,1-18.953.756,22.219,22.219,0,0,1-7.46-5.126l-.112-.117.078-.142a22.515,22.515,0,0,1,1.607-2.506Zm14.534,5.885a22.573,22.573,0,0,1-14.459-5.245,22.1,22.1,0,0,0-1.358,2.126,21.912,21.912,0,0,0,15.708,6.623,22.009,22.009,0,0,0,9.226-2.04h-.231a7.728,7.728,0,0,1-4.993-1.829,21.336,21.336,0,0,1-3.882.366Z" transform="translate(-90.231 -81.284)"/>
                <path id="Path_8311" data-name="Path 8311" d="M208.738,32.81c-6.363,9.545,1.336,19.153,7.7,23.353s14.444-1.527,20.807-11.072,8.463-19.28,2.163-23.48-24.307,1.654-30.67,11.2" transform="translate(-75.049 -7.358)" fill="#00db96"/>
                <path id="Path_8312" data-name="Path 8312" d="M233.648,20.011h0a10.563,10.563,0,0,1,5.882,1.417,8.325,8.325,0,0,1,3.3,4.207,12.362,12.362,0,0,1,.463,5.739c-.524,4.084-2.552,8.869-5.865,13.838a39.765,39.765,0,0,1-7.991,9.05c-2.947,2.333-5.783,3.517-8.431,3.517a8.389,8.389,0,0,1-4.689-1.433c-4.018-2.652-8.731-7.557-9.907-13.368a13.258,13.258,0,0,1,2.146-10.29c2.317-3.475,6.356-6.721,11.374-9.14A33.3,33.3,0,0,1,233.648,20.011ZM221.006,57.34c4.963,0,10.815-4.509,16.056-12.371,3.276-4.913,5.28-9.634,5.8-13.65a11.931,11.931,0,0,0-.441-5.535,7.894,7.894,0,0,0-3.129-3.989,10.288,10.288,0,0,0-5.638-1.343,32.847,32.847,0,0,0-13.528,3.493c-4.948,2.385-8.925,5.578-11.2,8.988a12.833,12.833,0,0,0-2.081,9.959c1.15,5.679,5.774,10.485,9.719,13.088A7.957,7.957,0,0,0,221.006,57.34Z" transform="translate(-75.049 -7.358)"/>
                <path id="Path_8313" data-name="Path 8313" d="M185.084,32.81c6.363,9.545-1.336,19.153-7.7,23.353s-14.444-1.527-20.807-11.072-8.527-19.28-2.163-23.48,24.307,1.654,30.67,11.2" transform="translate(-54.767 -7.358)" fill="#00db96"/>
                <path id="Path_8314" data-name="Path 8314" d="M160.2,20.011a33.222,33.222,0,0,1,13.711,3.537c5.005,2.417,9.038,5.663,11.356,9.14a13.258,13.258,0,0,1,2.146,10.29c-1.176,5.811-5.889,10.716-9.907,13.368a8.389,8.389,0,0,1-4.689,1.433c-2.648,0-5.484-1.183-8.431-3.517a39.765,39.765,0,0,1-7.991-9.05,40.974,40.974,0,0,1-4.918-9.715,16.858,16.858,0,0,1-.883-8.521,8.409,8.409,0,0,1,3.7-5.55A10.681,10.681,0,0,1,160.2,20.011ZM172.816,57.34a7.956,7.956,0,0,0,4.447-1.361c3.945-2.6,8.569-7.409,9.719-13.088a12.833,12.833,0,0,0-2.081-9.959c-2.275-3.413-6.246-6.6-11.181-8.988a32.772,32.772,0,0,0-13.52-3.493,10.407,10.407,0,0,0-5.665,1.344,7.984,7.984,0,0,0-3.51,5.271,16.434,16.434,0,0,0,.869,8.3,40.538,40.538,0,0,0,4.866,9.608C162,52.831,167.853,57.34,172.816,57.34Z" transform="translate(-54.767 -7.358)"/>
                <path id="Path_8315" data-name="Path 8315" d="M185.084,32.81c6.363,9.545-1.336,19.153-7.7,23.353s-14.444-1.527-20.807-11.072-8.527-19.28-2.163-23.48,24.307,1.654,30.67,11.2" transform="translate(-54.767 -7.358)" fill="#00db96"/>
                <path id="Path_8316" data-name="Path 8316" d="M160.2,20.011a33.222,33.222,0,0,1,13.711,3.537c5.005,2.417,9.038,5.663,11.356,9.14a13.258,13.258,0,0,1,2.146,10.29c-1.176,5.811-5.889,10.716-9.907,13.368a8.389,8.389,0,0,1-4.689,1.433c-2.648,0-5.484-1.183-8.431-3.517a39.765,39.765,0,0,1-7.991-9.05,40.974,40.974,0,0,1-4.918-9.715,16.858,16.858,0,0,1-.883-8.521,8.409,8.409,0,0,1,3.7-5.55A10.681,10.681,0,0,1,160.2,20.011ZM172.816,57.34a7.956,7.956,0,0,0,4.447-1.361c3.945-2.6,8.569-7.409,9.719-13.088a12.833,12.833,0,0,0-2.081-9.959c-2.275-3.413-6.246-6.6-11.181-8.988a32.772,32.772,0,0,0-13.52-3.493,10.407,10.407,0,0,0-5.665,1.344,7.984,7.984,0,0,0-3.51,5.271,16.434,16.434,0,0,0,.869,8.3,40.538,40.538,0,0,0,4.866,9.608C162,52.831,167.853,57.34,172.816,57.34Z" transform="translate(-54.767 -7.358)"/>
                <path id="Path_8317" data-name="Path 8317" d="M212.026,35.127c0,4.709-4.709,8.527-10.563,8.527S190.9,39.835,190.9,35.127s4.709-8.527,10.563-8.527,10.563,3.818,10.563,8.527" transform="translate(-69.428 -9.674)" fill="#00db96"/>
                <path id="Path_8318" data-name="Path 8318" d="M201.463,43.873a12.1,12.1,0,0,1-7.615-2.546,7.651,7.651,0,0,1,0-12.4,12.659,12.659,0,0,1,15.23,0,7.651,7.651,0,0,1,0,12.4A12.1,12.1,0,0,1,201.463,43.873Zm0-17.053a11.663,11.663,0,0,0-7.339,2.449,7.213,7.213,0,0,0,0,11.716,12.221,12.221,0,0,0,14.677,0,7.213,7.213,0,0,0,0-11.716A11.663,11.663,0,0,0,201.463,26.82Z" transform="translate(-69.428 -9.674)"/>
                <path id="Path_8319" data-name="Path 8319" d="M112.243,439.135c0-12.344-7.89-22.335-17.562-22.335L87.3,433.917v12.408a5.027,5.027,0,0,0,3.818,4.836v7.827l-.891-.191a2.609,2.609,0,0,0-2.609,2.609,2.671,2.671,0,0,0,.064.509h0c.382,1.718,2.418,3.054,4.836,3.054l1.209-.127a2.609,2.609,0,0,0,2.545,3.245,9.29,9.29,0,0,0,4.2-.891,2.609,2.609,0,0,0,2.291,1.336c5.154,0,9.417-4.454,9.545-9.926h0v-19.28h0V439.2" transform="translate(-31.75 -151.584)" fill="#fdfb76"/>
                <path id="Path_8320" data-name="Path 8320" d="M94.537,416.58h.145c9.8,0,17.766,10.1,17.782,22.519l.064.191v19.321a10.66,10.66,0,0,1-2.948,7.162,9.409,9.409,0,0,1-6.816,2.979h-.013a2.831,2.831,0,0,1-2.363-1.275,9.574,9.574,0,0,1-3.889.832l-.227,0h-.013a2.812,2.812,0,0,1-2.226-1.083,2.85,2.85,0,0,1-.576-2.132l-.937.1a6.19,6.19,0,0,1-3.3-.917,3.8,3.8,0,0,1-1.751-2.309,2.9,2.9,0,0,1-.069-.551v-.006a2.832,2.832,0,0,1,2.829-2.829h.023l.648.139V451.33a5.245,5.245,0,0,1-3.818-5V433.871Zm17.551,22.781-.064-.191v-.036c0-12.133-7.7-22.015-17.2-22.114L87.52,433.962v12.363a4.805,4.805,0,0,0,3.651,4.623l.167.041v8.27l-1.133-.243a2.392,2.392,0,0,0-2.366,2.386,2.456,2.456,0,0,0,.058.464c.365,1.641,2.345,2.879,4.61,2.883l1.51-.159-.077.305a2.4,2.4,0,0,0,.437,2.057,2.375,2.375,0,0,0,1.88.915h.021a9.125,9.125,0,0,0,4.1-.87l.186-.088.1.179a2.391,2.391,0,0,0,2.085,1.224h.012c5.017,0,9.2-4.355,9.326-9.709Z" transform="translate(-31.75 -151.584)"/>
                <path id="Path_8321" data-name="Path 8321" d="M87.9,485.5a2.609,2.609,0,0,1,4.327-1.973" transform="translate(-31.968 -175.619)" fill="#fdfb76"/>
                <path id="Path_8322" data-name="Path 8322" d="M87.68,485.5a2.829,2.829,0,0,1,4.691-2.139l-.289.331A2.389,2.389,0,0,0,88.12,485.5Z" transform="translate(-31.968 -175.619)"/>
                <path id="Path_8323" data-name="Path 8323" d="M92.8,483.828c-2.823,0-5.119-1.726-5.119-3.847h.44c0,1.879,2.1,3.407,4.68,3.407a4.939,4.939,0,0,0,3.329-1.2,4.108,4.108,0,0,0,1.351-3.1V467.7h.44v11.39a4.542,4.542,0,0,1-1.5,3.424A5.377,5.377,0,0,1,92.8,483.828Z" transform="translate(-31.968 -170.096)"/>
                <path id="Path_8324" data-name="Path 8324" d="M101.5,487.962c4.645,0,8.4-3.309,8.4-7.381V471.1" transform="translate(-36.914 -171.333)" fill="#fdfb76"/>
                <path id="Path_8325" data-name="Path 8325" d="M101.5,488.182v-.44c4.51,0,8.18-3.213,8.18-7.161V471.1h.44v9.481C110.119,484.772,106.253,488.182,101.5,488.182Z" transform="translate(-36.914 -171.333)"/>
                <path id="Path_8326" data-name="Path 8326" d="M121.081,482.3c0,5.6-4.263,10.117-9.481,10.117" transform="translate(-40.587 -175.406)" fill="#fdfb76"/>
                <path id="Path_8327" data-name="Path 8327" d="M111.6,492.637v-.44c5.107,0,9.261-4.44,9.261-9.9h.44C121.3,488,116.949,492.637,111.6,492.637Z" transform="translate(-40.587 -175.406)"/>
                <path id="Path_8328" data-name="Path 8328" d="M46.829,333.349a11.1,11.1,0,0,1-1.591-15.081L78.518,275.89a18.135,18.135,0,1,0-28.507-22.4L6.742,308.6C-3.5,321.641-.767,338.5,12.468,348.493l35.125,26.471a5.854,5.854,0,0,0,4.836,1.082c3.118-.7,7-3.054,10.5-6.554s6.3-8.208,6.681-11.454a3.945,3.945,0,0,0-1.145-3.245L46.829,333.349" transform="translate(-0.188 -89.513)" fill="#8e0bfa"/>
                <path id="Path_8329" data-name="Path 8329" d="M51.169,376.4h0a6.105,6.105,0,0,1-3.71-1.265L12.336,348.669C5.69,343.652,1.491,336.749.514,329.234a26.254,26.254,0,0,1,.8-10.609A29.469,29.469,0,0,1,6.569,308.46l43.267-55.1a18.355,18.355,0,1,1,28.852,22.67L45.411,318.4a10.409,10.409,0,0,0-2.142,7.642,11.467,11.467,0,0,0,3.708,7.141l.007.006,21.635,21.444a4.142,4.142,0,0,1,1.209,3.426c-.38,3.23-3.153,7.994-6.744,11.584a30.777,30.777,0,0,1-5.432,4.358,17.443,17.443,0,0,1-5.174,2.255A6.085,6.085,0,0,1,51.169,376.4ZM64.6,246.347a17.916,17.916,0,0,0-14.41,7.274l0,.005-43.269,55.1a29.032,29.032,0,0,0-5.182,10.013A25.817,25.817,0,0,0,.95,329.177c.961,7.4,5.1,14.2,11.65,19.141l35.124,26.471a5.665,5.665,0,0,0,3.444,1.175h0a5.644,5.644,0,0,0,1.213-.132c3.146-.706,7.031-3.134,10.391-6.495,3.527-3.527,6.249-8.184,6.618-11.324a3.7,3.7,0,0,0-1.082-3.063L46.678,333.508a11.906,11.906,0,0,1-3.845-7.412,10.847,10.847,0,0,1,2.232-7.963l33.284-42.384a17.917,17.917,0,0,0-13.752-29.4Z" transform="translate(-0.188 -89.513)"/>
                <path id="Path_8330" data-name="Path 8330" d="M12.463,380.962A29.4,29.4,0,0,1,1.01,363.4c-2.036,10.181,2.1,20.68,11.454,27.743l35.125,26.471a5.854,5.854,0,0,0,4.836,1.082,18.132,18.132,0,0,0,5.536-2.482c-7.636-5.854-39.451-30.67-45.433-35.252" transform="translate(-0.182 -132.164)"/>
                <path id="Path_8331" data-name="Path 8331" d="M1.009,362.284l.216,1.072a27.335,27.335,0,0,0,3.859,9.421,31.313,31.313,0,0,0,7.512,8.009c2.94,2.228,11.871,9.173,21.327,16.526,9.938,7.728,20.214,15.719,24.17,18.726l.245.186-.256.171a18.308,18.308,0,0,1-5.6,2.512l-.008,0a6.074,6.074,0,0,1-5.018-1.122L12.331,391.319a30.743,30.743,0,0,1-10.069-12.8A26.369,26.369,0,0,1,.794,363.357ZM57.579,416.2c-4.125-3.143-14.188-10.969-23.926-18.541-9.455-7.352-18.385-14.3-21.322-16.523a31.751,31.751,0,0,1-7.616-8.121,27.9,27.9,0,0,1-3.681-8.5,25.955,25.955,0,0,0,1.635,13.841,30.3,30.3,0,0,0,9.927,12.61L47.72,417.438a5.634,5.634,0,0,0,4.652,1.043A17.866,17.866,0,0,0,57.579,416.2Z" transform="translate(-0.182 -132.164)"/>
                <path id="Path_8332" data-name="Path 8332" d="M100.315,273.445l-37.606,48.3c-3.627,4.645-2.736,11.072,1.591,15.081l3.563,3.5a10.932,10.932,0,0,1-.764-14.253l33.279-42.378A18.135,18.135,0,0,0,103.5,267.4a18.073,18.073,0,0,1-3.118,6.109" transform="translate(-21.985 -97.25)"/>
                <path id="Path_8333" data-name="Path 8333" d="M103.5,266.632l.208.707a18.393,18.393,0,0,1-3.156,16.487L67.272,326.2a10.158,10.158,0,0,0-2.22,7.1,11.454,11.454,0,0,0,2.974,6.874l-.317.3-3.561-3.5a12.078,12.078,0,0,1-3.845-7.435,10.812,10.812,0,0,1,2.232-7.939l37.606-48.3a17.778,17.778,0,0,0,3.145-5.974ZM66.142,338.324a11.635,11.635,0,0,1-1.529-5,10.59,10.59,0,0,1,2.314-7.4l33.278-42.378a17.955,17.955,0,0,0,3.272-15.385,18.2,18.2,0,0,1-2.991,5.413l-37.6,48.294a10.375,10.375,0,0,0-2.142,7.619,11.64,11.64,0,0,0,3.709,7.166l0,0Z" transform="translate(-21.985 -97.25)"/>
                <path id="Path_8334" data-name="Path 8334" d="M288.364,439.135c0-12.344,7.89-22.335,17.562-22.335l7.381,17.117v12.408a5.027,5.027,0,0,1-3.818,4.836v7.827l.891-.191a2.609,2.609,0,0,1,2.609,2.609,2.67,2.67,0,0,1-.064.509h0c-.382,1.718-2.418,3.054-4.836,3.054l-1.209-.127a2.609,2.609,0,0,1-2.545,3.245,9.289,9.289,0,0,1-4.2-.954,2.609,2.609,0,0,1-2.291,1.336c-5.154,0-9.417-4.454-9.545-9.927h0V439.326h0V439.2" transform="translate(-104.851 -151.584)" fill="#fdfb76"/>
                <path id="Path_8335" data-name="Path 8335" d="M305.926,416.58h.145l7.456,17.291v12.454a5.246,5.246,0,0,1-3.818,5.005v7.386l.648-.139h.023a2.832,2.832,0,0,1,2.829,2.829v.006a2.9,2.9,0,0,1-.069.551,3.8,3.8,0,0,1-1.751,2.309,6.19,6.19,0,0,1-3.3.917h-.023l-.914-.1a2.851,2.851,0,0,1-.576,2.132,2.812,2.812,0,0,1-2.226,1.083h-.113a9.565,9.565,0,0,1-4.018-.891,2.831,2.831,0,0,1-2.362,1.272h-.015a9.408,9.408,0,0,1-6.815-2.979,10.66,10.66,0,0,1-2.948-7.163V439.29l.064-.191C288.159,426.679,296.13,416.58,305.926,416.58Zm7.161,17.382-7.306-16.942c-9.5.1-17.2,9.981-17.2,22.114v.036l-.064.191V458.54c.126,5.354,4.309,9.709,9.325,9.709h.013a2.391,2.391,0,0,0,2.085-1.224l.1-.182.187.092a9.125,9.125,0,0,0,4.1.932h.018a2.375,2.375,0,0,0,1.88-.915,2.4,2.4,0,0,0,.437-2.057l-.077-.305,1.51.159c2.265,0,4.245-1.242,4.61-2.882a2.456,2.456,0,0,0,.058-.465,2.392,2.392,0,0,0-2.366-2.386l-1.133.243v-8.271l.167-.041a4.806,4.806,0,0,0,3.651-4.624Z" transform="translate(-104.851 -151.584)"/>
                <path id="Path_8336" data-name="Path 8336" d="M324.527,485.5a2.609,2.609,0,0,0-4.327-1.973" transform="translate(-116.452 -175.619)" fill="#fdfb76"/>
                <path id="Path_8337" data-name="Path 8337" d="M324.747,485.5l-.44,0a2.389,2.389,0,0,0-3.962-1.806l-.289-.331a2.829,2.829,0,0,1,4.691,2.139Z" transform="translate(-116.452 -175.619)"/>
                <path id="Path_8338" data-name="Path 8338" d="M316.5,483.828a5.377,5.377,0,0,1-3.623-1.313,4.542,4.542,0,0,1-1.5-3.424V467.7h.44v11.39a4.108,4.108,0,0,0,1.351,3.1,4.939,4.939,0,0,0,3.329,1.2c2.58,0,4.68-1.528,4.68-3.407h.44C321.619,482.1,319.322,483.828,316.5,483.828Z" transform="translate(-113.325 -170.096)"/>
                <path id="Path_8339" data-name="Path 8339" d="M308.6,487.962c-4.645,0-8.4-3.309-8.4-7.381V471.1" transform="translate(-109.179 -171.333)" fill="#fdfb76"/>
                <path id="Path_8340" data-name="Path 8340" d="M308.6,488.182c-4.753,0-8.619-3.41-8.619-7.6V471.1h.44v9.481c0,3.949,3.669,7.161,8.18,7.161Z" transform="translate(-109.179 -171.333)"/>
                <path id="Path_8341" data-name="Path 8341" d="M288.4,482.3c0,5.6,4.263,10.117,9.481,10.117" transform="translate(-104.887 -175.406)" fill="#fdfb76"/>
                <path id="Path_8342" data-name="Path 8342" d="M297.881,492.637c-5.349,0-9.7-4.637-9.7-10.337h.44c0,5.458,4.155,9.9,9.261,9.9Z" transform="translate(-104.887 -175.406)"/>
                <path id="Path_8343" data-name="Path 8343" d="M321.078,333.349a11.1,11.1,0,0,0,1.591-15.081L289.389,275.89a18.135,18.135,0,1,1,28.507-22.4l43.269,55.1c10.245,13.044,7.508,29.907-5.727,39.9l-35.125,26.471a5.854,5.854,0,0,1-4.836,1.082c-3.118-.7-7-3.054-10.5-6.554s-6.3-8.208-6.681-11.454a3.945,3.945,0,0,1,1.145-3.245l21.571-21.444" transform="translate(-103.713 -89.513)" fill="#8e0bfa"/>
                <path id="Path_8344" data-name="Path 8344" d="M316.738,376.4a6.084,6.084,0,0,1-1.307-.142,17.443,17.443,0,0,1-5.175-2.255,30.781,30.781,0,0,1-5.432-4.358c-3.591-3.591-6.364-8.354-6.744-11.583a4.142,4.142,0,0,1,1.209-3.427l21.641-21.45a11.467,11.467,0,0,0,3.708-7.141A10.41,10.41,0,0,0,322.5,318.4l-33.277-42.375a18.355,18.355,0,1,1,28.853-22.67l43.267,55.1a29.469,29.469,0,0,1,5.259,10.164,26.254,26.254,0,0,1,.8,10.609c-.977,7.516-5.175,14.418-11.822,19.435l-35.125,26.471A6.1,6.1,0,0,1,316.738,376.4Zm4.491-42.895L299.6,354.949a3.7,3.7,0,0,0-1.082,3.064c.369,3.139,3.091,7.8,6.618,11.323,3.361,3.361,7.246,5.789,10.392,6.495a5.634,5.634,0,0,0,4.654-1.041l35.126-26.472c6.551-4.945,10.689-11.743,11.65-19.14a25.817,25.817,0,0,0-.782-10.432,29.032,29.032,0,0,0-5.182-10.013l-43.273-55.11a17.915,17.915,0,1,0-28.161,22.127l0,.005,33.279,42.378a10.847,10.847,0,0,1,2.233,7.964A11.906,11.906,0,0,1,321.229,333.508Z" transform="translate(-103.713 -89.513)"/>
                <path id="Path_8345" data-name="Path 8345" d="M369.6,380.962A29.4,29.4,0,0,0,381.05,363.4c2.036,10.181-2.1,20.68-11.454,27.743l-35.124,26.471a5.854,5.854,0,0,1-4.836,1.082,18.133,18.133,0,0,1-5.536-2.482c7.636-5.854,39.451-30.67,45.433-35.252" transform="translate(-117.871 -132.164)"/>
                <path id="Path_8346" data-name="Path 8346" d="M381.051,362.284l.215,1.073a26.37,26.37,0,0,1-1.468,15.167,30.743,30.743,0,0,1-10.069,12.795L334.6,417.789a6.074,6.074,0,0,1-5.016,1.121l-.008,0a18.309,18.309,0,0,1-5.6-2.512l-.256-.171.245-.186c3.956-3.008,14.233-11,24.172-18.728,9.455-7.352,18.385-14.3,21.324-16.524a31.314,31.314,0,0,0,7.512-8.009,27.335,27.335,0,0,0,3.859-9.421ZM330.9,418.613a5.664,5.664,0,0,0,3.442-1.173l35.126-26.472a30.3,30.3,0,0,0,9.927-12.61,25.956,25.956,0,0,0,1.635-13.841,27.9,27.9,0,0,1-3.681,8.5,31.752,31.752,0,0,1-7.617,8.122c-2.937,2.226-11.866,9.169-21.32,16.52-9.739,7.573-19.8,15.4-23.929,18.543a17.869,17.869,0,0,0,5.207,2.281A5.644,5.644,0,0,0,330.9,418.613Z" transform="translate(-117.871 -132.164)"/>
                <path id="Path_8347" data-name="Path 8347" d="M289.6,273.445l37.67,48.3c3.627,4.645,2.736,11.072-1.591,15.081l-3.563,3.5a10.932,10.932,0,0,0,.764-14.253L289.6,283.69a18.135,18.135,0,0,1-3.118-16.29,18.072,18.072,0,0,0,3.118,6.109" transform="translate(-103.921 -97.25)"/>
                <path id="Path_8348" data-name="Path 8348" d="M286.479,266.622l.211.716a17.775,17.775,0,0,0,3.08,5.971l37.67,48.3a10.812,10.812,0,0,1,2.232,7.939,12.079,12.079,0,0,1-3.845,7.435l-3.561,3.5-.317-.3a11.454,11.454,0,0,0,2.974-6.874,10.157,10.157,0,0,0-2.22-7.095l-33.28-42.379a18.392,18.392,0,0,1-3.156-16.487Zm37.354,71.7,1.694-1.663a11.64,11.64,0,0,0,3.709-7.166,10.375,10.375,0,0,0-2.142-7.618l-37.67-48.3a18.2,18.2,0,0,1-2.928-5.4,17.955,17.955,0,0,0,3.275,15.376l33.279,42.378a10.59,10.59,0,0,1,2.313,7.4A11.634,11.634,0,0,1,323.833,338.324Z" transform="translate(-103.921 -97.25)"/>
              </g>
              <g id="Group_4066" data-name="Group 4066" transform="translate(13.044 143.489)" clip-path="url(#clip-path-4)">
                <path id="Path_8349" data-name="Path 8349" d="M321.078,333.349a11.1,11.1,0,0,0,1.591-15.081L289.389,275.89a18.135,18.135,0,1,1,28.507-22.4l43.269,55.1c10.245,13.044,7.508,29.907-5.727,39.9l-35.125,26.471a5.854,5.854,0,0,1-4.836,1.082c-3.118-.7-7-3.054-10.5-6.554s-6.3-8.208-6.681-11.454a3.945,3.945,0,0,1,1.145-3.245l21.571-21.444" transform="translate(-116.758 -233.002)"/>
                <path id="Path_8350" data-name="Path 8350" d="M46.829,333.349a11.1,11.1,0,0,1-1.591-15.081L78.518,275.89a18.135,18.135,0,1,0-28.507-22.4L6.742,308.6C-3.5,321.641-.767,338.5,12.468,348.493l35.125,26.471a5.854,5.854,0,0,0,4.836,1.082c3.118-.7,7-3.054,10.5-6.554s6.3-8.208,6.681-11.454a3.945,3.945,0,0,0-1.145-3.245L46.829,333.349" transform="translate(-13.232 -233.002)"/>
                <path id="Path_8351" data-name="Path 8351" d="M51.169,376.4h0a6.105,6.105,0,0,1-3.71-1.265L12.336,348.669C5.69,343.652,1.491,336.749.514,329.234a26.254,26.254,0,0,1,.8-10.609A29.469,29.469,0,0,1,6.569,308.46l43.267-55.1a18.355,18.355,0,1,1,28.852,22.67L45.411,318.4a10.409,10.409,0,0,0-2.142,7.642,11.467,11.467,0,0,0,3.708,7.141l.007.006,21.635,21.444a4.142,4.142,0,0,1,1.209,3.426c-.38,3.23-3.153,7.994-6.744,11.584a30.777,30.777,0,0,1-5.432,4.358,17.443,17.443,0,0,1-5.174,2.255A6.085,6.085,0,0,1,51.169,376.4ZM64.6,246.347a17.916,17.916,0,0,0-14.41,7.274l0,.005-43.269,55.1a29.032,29.032,0,0,0-5.182,10.013A25.817,25.817,0,0,0,.95,329.177c.961,7.4,5.1,14.2,11.65,19.141l35.124,26.471a5.665,5.665,0,0,0,3.444,1.175h0a5.644,5.644,0,0,0,1.213-.132c3.146-.706,7.031-3.134,10.391-6.495,3.527-3.527,6.249-8.184,6.618-11.324a3.7,3.7,0,0,0-1.082-3.063L46.678,333.508a11.906,11.906,0,0,1-3.845-7.412,10.847,10.847,0,0,1,2.232-7.963l33.284-42.384a17.917,17.917,0,0,0-13.752-29.4Z" transform="translate(-13.232 -233.002)"/>
              </g>
              <g id="Group_4067" data-name="Group 4067" clip-path="url(#clip-path-3)">
                <rect id="Rectangle_121046" data-name="Rectangle 121046" width="27.489" height="28.036" transform="translate(118.227 129.617)" fill="#fdfb76"/>
                <path id="Rectangle_121047" data-name="Rectangle 121047" d="M-.22-.22H27.709V28.256H-.22ZM27.269.22H.22v27.6H27.269Z" transform="translate(118.227 129.617)"/>
                <path id="Path_8353" data-name="Path 8353" d="M185.8,212.545a71.4,71.4,0,0,0,27.489,0V203.7H185.8Z" transform="translate(-67.573 -74.083)"/>
                <path id="Path_8354" data-name="Path 8354" d="M199.544,214.1a71.783,71.783,0,0,1-13.787-1.34l-.177-.035V203.48h27.928v9.245l-.177.035A71.783,71.783,0,0,1,199.544,214.1Zm-13.525-1.736a71.176,71.176,0,0,0,27.049,0V203.92H186.02Z" transform="translate(-67.573 -74.083)"/>
                <path id="Path_8355" data-name="Path 8355" d="M228.774,85.824c0,25.2-22.335,45.624-49.887,45.624S129,111.022,129,85.824,151.335,40.2,178.887,40.2s49.887,20.426,49.887,45.624" transform="translate(-46.916 -14.62)" fill="#ff0d5b"/>
                <path id="Ellipse_367" data-name="Ellipse 367" d="M49.887-.22a53.822,53.822,0,0,1,19.5,3.6A50.434,50.434,0,0,1,85.311,13.2,45.7,45.7,0,0,1,96.053,27.773a42.4,42.4,0,0,1,0,35.7A45.7,45.7,0,0,1,85.311,78.047a50.434,50.434,0,0,1-15.926,9.82,54.6,54.6,0,0,1-39,0,50.434,50.434,0,0,1-15.926-9.82A45.7,45.7,0,0,1,3.721,63.475a42.4,42.4,0,0,1,0-35.7A45.7,45.7,0,0,1,14.463,13.2,50.434,50.434,0,0,1,30.389,3.38,53.822,53.822,0,0,1,49.887-.22Zm0,91.247a53.384,53.384,0,0,0,19.339-3.571,50,50,0,0,0,15.788-9.735A45.261,45.261,0,0,0,95.654,63.29a41.963,41.963,0,0,0,0-35.333,45.26,45.26,0,0,0-10.64-14.432A50,50,0,0,0,69.226,3.79a54.158,54.158,0,0,0-38.678,0A50,50,0,0,0,14.76,13.525,45.26,45.26,0,0,0,4.12,27.957a41.963,41.963,0,0,0,0,35.333A45.261,45.261,0,0,0,14.76,77.722a50,50,0,0,0,15.788,9.735A53.384,53.384,0,0,0,49.887,91.028Z" transform="translate(82.084 25.58)"/>
                <path id="Path_8356" data-name="Path 8356" d="M217.647,95.6a23.289,23.289,0,0,0,2.673-10.754c0-16.862-18.771-30.543-41.869-30.543s-41.869,13.681-41.869,30.543A23.29,23.29,0,0,0,139.254,95.6c-7.19,6.109-11.454,14-11.454,22.526,0,19.662,22.716,35.57,50.651,35.57s50.651-15.908,50.651-35.57c0-8.527-4.327-16.417-11.454-22.526" transform="translate(-46.479 -19.748)" fill="#fdfb76"/>
                <path id="Path_8357" data-name="Path 8357" d="M178.451,54.08A55.373,55.373,0,0,1,194.8,56.491a45.254,45.254,0,0,1,13.375,6.58,32.228,32.228,0,0,1,9.04,9.776,23.253,23.253,0,0,1,.707,22.7,34.731,34.731,0,0,1,8.366,10.308,26.017,26.017,0,0,1,3.031,12.272,26.77,26.77,0,0,1-4.017,13.965,38.051,38.051,0,0,1-10.926,11.372,55.576,55.576,0,0,1-16.165,7.65,71.088,71.088,0,0,1-39.523,0,55.576,55.576,0,0,1-16.165-7.65A38.051,38.051,0,0,1,131.6,132.089a26.231,26.231,0,0,1-.963-26.237,34.54,34.54,0,0,1,8.343-10.309,23.253,23.253,0,0,1,.707-22.7,32.228,32.228,0,0,1,9.04-9.776,45.254,45.254,0,0,1,13.375-6.58A55.373,55.373,0,0,1,178.451,54.08Zm0,99.392a68.949,68.949,0,0,0,19.636-2.784,55.137,55.137,0,0,0,16.038-7.588,37.616,37.616,0,0,0,10.8-11.239,26.338,26.338,0,0,0,3.954-13.739,25.584,25.584,0,0,0-2.982-12.068,34.374,34.374,0,0,0-8.394-10.29l-.134-.114.082-.156a22.815,22.815,0,0,0-.617-22.427,31.793,31.793,0,0,0-8.918-9.641,44.816,44.816,0,0,0-13.245-6.515,56.217,56.217,0,0,0-32.444,0,44.816,44.816,0,0,0-13.245,6.515,31.793,31.793,0,0,0-8.918,9.641,22.816,22.816,0,0,0-.617,22.427l.082.156-.134.114a34.178,34.178,0,0,0-8.37,10.289,25.792,25.792,0,0,0,.948,25.808,37.616,37.616,0,0,0,10.8,11.239,55.137,55.137,0,0,0,16.038,7.588A68.949,68.949,0,0,0,178.451,153.472Z" transform="translate(-46.479 -19.748)"/>
                <path id="Path_8358" data-name="Path 8358" d="M162.2,80.443a2.2,2.2,0,0,1-1.576-3.73,33.4,33.4,0,0,1,8.46-6.212,44.645,44.645,0,0,1,10.825-3.944,2.2,2.2,0,0,1,.981,4.285,40.252,40.252,0,0,0-9.76,3.549,29.024,29.024,0,0,0-7.353,5.385A2.192,2.192,0,0,1,162.2,80.443Z" transform="translate(-58.99 -24.985)" fill="#fcf7eb"/>
                <path id="Path_8359" data-name="Path 8359" d="M260.7,139.1a13.3,13.3,0,1,1-13.3-13.3,13.3,13.3,0,0,1,13.3,13.3" transform="translate(-85.139 -45.752)" fill="#ff3c1d"/>
                <path id="Path_8360" data-name="Path 8360" d="M247.4,152.618a13.519,13.519,0,1,1,9.559-3.96A13.43,13.43,0,0,1,247.4,152.618Zm0-26.6a13.079,13.079,0,1,0,9.248,3.831A12.994,12.994,0,0,0,247.4,126.02Z" transform="translate(-85.139 -45.752)"/>
                <path id="Path_8361" data-name="Path 8361" d="M165.6,139.1a13.3,13.3,0,1,1-13.3-13.3,13.3,13.3,0,0,1,13.3,13.3" transform="translate(-50.552 -45.752)" fill="#ff3c1d"/>
                <path id="Path_8362" data-name="Path 8362" d="M152.3,152.618a13.519,13.519,0,1,1,9.559-3.96A13.43,13.43,0,0,1,152.3,152.618Zm0-26.6a13.079,13.079,0,1,0,9.248,3.831A12.993,12.993,0,0,0,152.3,126.02Z" transform="translate(-50.552 -45.752)"/>
                <path id="Path_8363" data-name="Path 8363" d="M152.5,135.627a7.954,7.954,0,0,1,4.709-1.527" transform="translate(-55.462 -48.77)" fill="#ff3c1d"/>
                <path id="Path_8364" data-name="Path 8364" d="M152.5,137.825a2.2,2.2,0,0,1-1.3-3.974,10.084,10.084,0,0,1,6.01-1.949,2.2,2.2,0,0,1-.006,4.4h-.023A5.718,5.718,0,0,0,153.8,137.4,2.188,2.188,0,0,1,152.5,137.825Z" transform="translate(-55.462 -48.77)" fill="#fcf7eb"/>
                <path id="Path_8365" data-name="Path 8365" d="M247.6,135.627a7.954,7.954,0,0,1,4.709-1.527" transform="translate(-90.049 -48.77)" fill="#ff3c1d"/>
                <path id="Path_8366" data-name="Path 8366" d="M247.6,137.825a2.2,2.2,0,0,1-1.3-3.974,10.086,10.086,0,0,1,5.981-1.949h.029a2.2,2.2,0,0,1-.006,4.4h-.023A5.718,5.718,0,0,0,248.9,137.4,2.188,2.188,0,0,1,247.6,137.825Z" transform="translate(-90.049 -48.77)" fill="#fcf7eb"/>
                <path id="Path_8367" data-name="Path 8367" d="M208.79,139.745a3.245,3.245,0,1,1-3.245-3.245,3.245,3.245,0,0,1,3.245,3.245" transform="translate(-73.574 -49.643)"/>
                <path id="Path_8368" data-name="Path 8368" d="M205.545,136.28a3.465,3.465,0,1,1-3.465,3.465A3.469,3.469,0,0,1,205.545,136.28Zm0,6.49a3.025,3.025,0,1,0-3.025-3.025A3.029,3.029,0,0,0,205.545,142.771Z" transform="translate(-73.574 -49.643)"/>
                <path id="Path_8369" data-name="Path 8369" d="M189.954,180.544c-9.545,0-17.626-2.8-24.307-5.6a8.718,8.718,0,1,1,6.618-16.035c5.345,2.227,11.2,4.263,17.69,4.263s12.344-2.036,17.69-4.263a8.718,8.718,0,1,1,6.618,16.035c-6.681,2.736-14.762,5.6-24.307,5.6" transform="translate(-57.982 -57.417)"/>
                <path id="Path_8370" data-name="Path 8370" d="M189.954,180.764a52.3,52.3,0,0,1-13.283-1.757,82.92,82.92,0,0,1-11.1-3.855,8.937,8.937,0,1,1,6.786-16.441c5.291,2.2,11.084,4.242,17.6,4.242s12.3-2.038,17.6-4.242a8.937,8.937,0,1,1,6.787,16.441,80.439,80.439,0,0,1-11.052,3.855A52.475,52.475,0,0,1,189.954,180.764ZM168.147,158.1a8.5,8.5,0,0,0-2.438,16.638l.022.008c6.588,2.76,14.617,5.582,24.222,5.582a52.042,52.042,0,0,0,13.22-1.743,80.054,80.054,0,0,0,11-3.839l.023-.008a8.5,8.5,0,1,0-6.451-15.631l-.019.009c-5.335,2.223-11.181,4.28-17.774,4.28s-12.439-2.057-17.774-4.28l-.019-.009A8.524,8.524,0,0,0,168.147,158.1Z" transform="translate(-57.982 -57.417)"/>
                <path id="Path_8371" data-name="Path 8371" d="M190,177.013c-9.8,0-18.071-2.863-24.943-5.727a8.928,8.928,0,1,1,6.872-16.481c5.472,2.291,11.454,4.391,18.135,4.391s12.663-2.1,18.135-4.391a8.916,8.916,0,1,1,6.809,16.481c-6.809,2.8-15.144,5.727-24.943,5.727" transform="translate(-58.032 -56.05)" fill="#ff0d5b"/>
                <path id="Path_8372" data-name="Path 8372" d="M190,177.233c-9.907,0-18.211-2.9-25.028-5.744a9.148,9.148,0,1,1,7.041-16.886c5.426,2.272,11.369,4.374,18.05,4.374s12.624-2.1,18.05-4.374a9.136,9.136,0,1,1,6.977,16.886,91.165,91.165,0,0,1-11.435,3.923A53.761,53.761,0,0,1,190,177.233Zm-21.5-22.9a8.71,8.71,0,0,0-3.355,16.748c6.776,2.823,15.029,5.71,24.859,5.71a53.328,53.328,0,0,0,13.546-1.806,90.747,90.747,0,0,0,11.378-3.9,8.7,8.7,0,1,0-6.642-16.074c-5.468,2.289-11.46,4.407-18.219,4.407s-12.751-2.118-18.22-4.408A8.656,8.656,0,0,0,168.5,154.335Z" transform="translate(-58.032 -56.05)"/>
                <path id="Path_8373" data-name="Path 8373" d="M192.357,175.248c-9.036,0-16.862-2.736-23.353-5.409A4.78,4.78,0,1,1,172.631,161c5.854,2.418,12.345,4.645,19.726,4.645s13.808-2.227,19.726-4.645a4.78,4.78,0,1,1,3.627,8.845c-6.427,2.673-14.253,5.409-23.353,5.409" transform="translate(-60.385 -58.421)" fill="#fcf7eb"/>
                <path id="Path_8374" data-name="Path 8374" d="M192.357,175.468c-9.042,0-16.921-2.743-23.436-5.425a5,5,0,1,1,3.794-9.251,72.767,72.767,0,0,0,9.263,3.22,40.511,40.511,0,0,0,10.38,1.409c7.307,0,13.759-2.225,19.643-4.629a5,5,0,0,1,3.794,9.252C209.342,172.726,201.512,175.468,192.357,175.468Zm-21.537-14.612a4.561,4.561,0,0,0-1.732,8.78c6.476,2.666,14.3,5.392,23.269,5.392,9.078,0,16.857-2.726,23.268-5.392a4.56,4.56,0,1,0-3.459-8.438c-5.925,2.421-12.426,4.662-19.809,4.662a40.944,40.944,0,0,1-10.491-1.423,73.176,73.176,0,0,1-9.318-3.239A4.534,4.534,0,0,0,170.819,160.856Z" transform="translate(-60.385 -58.421)"/>
                <path id="Path_8375" data-name="Path 8375" d="M237.251,103.034a17.88,17.88,0,0,1,5.472.827,11.962,11.962,0,1,0-21.826,9.8,17.88,17.88,0,0,1,16.354-10.627" transform="translate(-79.955 -35.203)" fill="#fcf7eb"/>
                <path id="Path_8376" data-name="Path 8376" d="M231.8,96.576a12.184,12.184,0,0,1,11.12,7.2l.2.447-.467-.147a17.647,17.647,0,0,0-5.405-.817h-.012a17.675,17.675,0,0,0-16.142,10.5l-.2.45-.2-.449A12.188,12.188,0,0,1,231.8,96.576Zm10.509,6.933a11.743,11.743,0,0,0-21.408,9.609,18.116,18.116,0,0,1,16.335-10.3h.107A18.075,18.075,0,0,1,242.313,103.509Z" transform="translate(-79.955 -35.203)"/>
                <path id="Path_8377" data-name="Path 8377" d="M234.991,104.045a2.545,2.545,0,1,1-2.545-2.545,2.545,2.545,0,0,1,2.545,2.545" transform="translate(-83.611 -36.914)"/>
                <path id="Path_8378" data-name="Path 8378" d="M232.445,106.81a2.765,2.765,0,1,1,2.765-2.765A2.768,2.768,0,0,1,232.445,106.81Zm0-5.09a2.325,2.325,0,1,0,2.325,2.325A2.328,2.328,0,0,0,232.445,101.72Z" transform="translate(-83.611 -36.914)"/>
                <path id="Path_8379" data-name="Path 8379" d="M164.572,103.034a17.88,17.88,0,0,0-5.472.827,11.962,11.962,0,1,1,21.826,9.8,17.88,17.88,0,0,0-16.354-10.627" transform="translate(-57.862 -35.203)" fill="#fcf7eb"/>
                <path id="Path_8380" data-name="Path 8380" d="M170.02,96.576a12.185,12.185,0,0,1,11.107,17.175l-.2.449-.2-.45a17.675,17.675,0,0,0-16.142-10.5h-.107a17.639,17.639,0,0,0-5.31.817l-.467.147.2-.447a12.185,12.185,0,0,1,11.12-7.2Zm10.9,16.542a11.743,11.743,0,0,0-21.408-9.609,18.076,18.076,0,0,1,4.966-.695h.107A18.117,18.117,0,0,1,180.918,113.118Z" transform="translate(-57.862 -35.203)"/>
                <path id="Path_8381" data-name="Path 8381" d="M177,104.045a2.545,2.545,0,1,0,2.545-2.545A2.545,2.545,0,0,0,177,104.045" transform="translate(-64.372 -36.914)"/>
                <path id="Path_8382" data-name="Path 8382" d="M179.545,106.81a2.765,2.765,0,1,1,2.765-2.765A2.768,2.768,0,0,1,179.545,106.81Zm0-5.09a2.325,2.325,0,1,0,2.326,2.325A2.328,2.328,0,0,0,179.545,101.72Z" transform="translate(-64.372 -36.914)"/>
                <path id="Path_8383" data-name="Path 8383" d="M197.835,236.59c-9.227,0-16.735-2.927-16.735-6.49v8.336c0,3.563,7.509,6.49,16.735,6.49s16.735-2.927,16.735-6.49V230.1c0,3.563-7.509,6.49-16.735,6.49" transform="translate(-65.864 -83.684)" fill="#fcf7eb"/>
                <path id="Path_8384" data-name="Path 8384" d="M180.88,230.1h.44a3.251,3.251,0,0,0,1.246,2.355,11.281,11.281,0,0,0,3.521,2.021,37.455,37.455,0,0,0,23.519,0,11.18,11.18,0,0,0,3.506-2.021,3.256,3.256,0,0,0,1.237-2.356h.44v8.336c0,1.822-1.793,3.522-5.048,4.786a37.81,37.81,0,0,1-23.814,0c-3.255-1.264-5.048-2.964-5.048-4.786Zm16.955,6.71a34.015,34.015,0,0,1-11.907-1.924c-2.316-.9-3.892-2.02-4.608-3.248v6.8a3.251,3.251,0,0,0,1.246,2.355,11.281,11.281,0,0,0,3.521,2.021,37.381,37.381,0,0,0,23.5,0,11.281,11.281,0,0,0,3.521-2.021,3.251,3.251,0,0,0,1.246-2.355v-6.792c-.714,1.227-2.281,2.345-4.584,3.242A34.027,34.027,0,0,1,197.835,236.81Z" transform="translate(-65.864 -83.684)"/>
                <path id="Path_8385" data-name="Path 8385" d="M233.664,230.545V230.1a2.608,2.608,0,0,1-.064.445Z" transform="translate(-84.957 -83.684)" fill="#fff"/>
                <path id="Path_8386" data-name="Path 8386" d="M233.883,230.765h-.56l.063-.269a2.4,2.4,0,0,0,.058-.408l.439.012Z" transform="translate(-84.957 -83.684)"/>
                <path id="Path_8387" data-name="Path 8387" d="M205.853,235.727a38.942,38.942,0,0,1-8.018.764c-9.227,0-16.735-2.927-16.735-6.49v8.336c0,3.563,7.509,6.49,16.735,6.49a38.94,38.94,0,0,0,8.018-.764Z" transform="translate(-65.864 -83.648)" fill="#00db96"/>
                <path id="Path_8388" data-name="Path 8388" d="M180.88,230h.44a3.251,3.251,0,0,0,1.246,2.355,11.281,11.281,0,0,0,3.521,2.021,33.571,33.571,0,0,0,11.748,1.894h.336a38.808,38.808,0,0,0,7.638-.761l.263-.053v8.784l-.176.036a39.243,39.243,0,0,1-8.063.768,34.011,34.011,0,0,1-11.905-1.924c-3.255-1.264-5.048-2.964-5.048-4.786Zm17.291,6.712h-.338a34.01,34.01,0,0,1-11.905-1.924c-2.316-.9-3.892-2.02-4.608-3.248v6.8a3.251,3.251,0,0,0,1.246,2.355,11.281,11.281,0,0,0,3.521,2.021,33.572,33.572,0,0,0,11.748,1.894h.337a38.809,38.809,0,0,0,7.461-.726v-7.888A39.254,39.254,0,0,1,198.171,236.712Z" transform="translate(-65.864 -83.648)"/>
                <path id="Path_8389" data-name="Path 8389" d="M215.682,245.391a1.591,1.591,0,1,1-1.591-1.591,1.591,1.591,0,0,1,1.591,1.591" transform="translate(-77.283 -88.667)"/>
                <path id="Ellipse_368" data-name="Ellipse 368" d="M1.591-.22A1.811,1.811,0,1,1-.22,1.591,1.813,1.813,0,0,1,1.591-.22Zm0,3.182A1.371,1.371,0,1,0,.22,1.591,1.373,1.373,0,0,0,1.591,2.962Z" transform="translate(134.928 157.987) rotate(-76.7)"/>
              </g>
              <g id="Group_4068" data-name="Group 4068" transform="translate(80.685 155.133)" clip-path="url(#clip-path-6)">
                <path id="Path_8390" data-name="Path 8390" d="M189.187,246.944,164.307,282.9l-24.88,35.952L114.611,282.9l-24.88-35.952L20.5,225.5,80,311.4l59.432,85.966,59.5-85.966,59.5-85.9Z" transform="translate(-88.14 -237.145)"/>
                <path id="Path_8391" data-name="Path 8391" d="M19.957,225.1l69.912,21.655.043.062,24.88,35.952,24.636,35.69,49.622-71.7.073-.022L258.961,225.1,199.1,311.528l-59.676,86.227L79.815,311.527Zm69.637,22.03L21.043,225.9l59.133,85.379,59.251,85.7,59.314-85.7L257.874,225.9l-68.55,21.233-49.9,72.1-.181-.262L114.43,283.02Z" transform="translate(-88.14 -237.145)"/>
              </g>
              <g id="Group_4069" data-name="Group 4069" clip-path="url(#clip-path-3)">
                <path id="Path_8392" data-name="Path 8392" d="M189.187,231.507l-24.88,35.952-24.88,35.952-24.816-35.952-24.88-35.952L20.5,210,80,295.966l59.432,85.966,59.5-85.966L258.418,210Z" transform="translate(-7.456 -76.374)" fill="#00db96"/>
                <path id="Path_8393" data-name="Path 8393" d="M19.957,209.6,89.869,231.32l24.923,36.014,24.636,35.69,49.622-71.7.072-.022,69.84-21.7L139.427,382.318,79.815,296.091Zm69.637,22.094-68.55-21.3,59.133,85.442,59.251,85.7L257.874,210.4l-68.55,21.3-49.9,72.1-.181-.262L114.43,267.584Z" transform="translate(-7.456 -76.374)"/>
                <path id="Path_8394" data-name="Path 8394" d="M90.634,271.423l61.6,89.084,61.659-89.084L248.821,220.9l-24.307,7.572L194.8,271.423l-42.569,61.532-42.506-61.532L80.007,228.472,55.7,220.9Z" transform="translate(-20.257 -80.338)" fill="#ff3c1d"/>
                <path id="Path_8395" data-name="Path 8395" d="M55.157,220.5l24.988,7.784.043.062L109.9,271.3l42.325,61.27,72.147-104.284,24.988-7.784-35.3,51.048-61.84,89.345-.181-.261Zm97.072,139.62L213.707,271.3l34.571-50-23.626,7.36L152.229,333.341l-42.686-61.793L79.87,228.659,56.243,221.3Z" transform="translate(-20.257 -80.338)"/>
              </g>
              <g id="Group_4070" data-name="Group 4070" transform="translate(105.715 102.215)" clip-path="url(#clip-path-8)">
                <path id="Path_8396" data-name="Path 8396" d="M192.6,172.392c-7.781,0-18.718-2.9-26-6.9l.211-.385a58.516,58.516,0,0,0,12.685,4.9,53.364,53.364,0,0,0,13.107,1.949A56.578,56.578,0,0,0,206.017,170a46.9,46.9,0,0,0,12.364-4.89l.232.374a47.337,47.337,0,0,1-12.485,4.941A57.031,57.031,0,0,1,192.6,172.392Z" transform="translate(-166.341 -162.332)"/>
                <path id="Line_177" data-name="Line 177" d="M.22,12.726H-.22V0H.22Z" transform="translate(26.257 3.477)"/>
                <path id="Line_178" data-name="Line 178" d="M3.352,12.342-.211.061.211-.061,3.774,12.22Z" transform="translate(38.219 1.631)"/>
                <path id="Line_179" data-name="Line 179" d="M4.312,12.04-.206.078.206-.078,4.723,11.885Z" transform="translate(44.646 -0.341)"/>
                <path id="Line_180" data-name="Line 180" d="M1.947,12.636-.217.037.217-.037l2.163,12.6Z" transform="translate(32.047 3.095)"/>
                <path id="Line_181" data-name="Line 181" d="M.211,12.279l-.422-.123L3.352-.062l.422.123Z" transform="translate(10.794 1.504)"/>
                <path id="Line_182" data-name="Line 182" d="M.205,11.977l-.411-.156L4.312-.078l.411.156Z" transform="translate(3.413 -0.469)"/>
                <path id="Line_183" data-name="Line 183" d="M.217,12.636l-.433-.074L1.947-.037,2.38.037Z" transform="translate(18.366 2.968)"/>
              </g>
              <g id="Group_4071" data-name="Group 4071" clip-path="url(#clip-path-3)">
                <path id="Path_8398" data-name="Path 8398" d="M192.357,175.468c-9.042,0-16.921-2.743-23.436-5.425a5,5,0,1,1,3.794-9.251,72.767,72.767,0,0,0,9.263,3.22,40.511,40.511,0,0,0,10.38,1.409c7.307,0,13.759-2.225,19.643-4.629a5,5,0,0,1,3.794,9.252C209.342,172.726,201.512,175.468,192.357,175.468Zm-21.537-14.612a4.561,4.561,0,0,0-1.732,8.78c6.476,2.666,14.3,5.392,23.269,5.392,9.078,0,16.857-2.726,23.268-5.392a4.56,4.56,0,1,0-3.459-8.438c-5.925,2.421-12.426,4.662-19.809,4.662a40.944,40.944,0,0,1-10.491-1.423,73.176,73.176,0,0,1-9.318-3.239A4.534,4.534,0,0,0,170.819,160.856Z" transform="translate(-60.385 -58.421)"/>
                <path id="Path_8399" data-name="Path 8399" d="M184.091,224.2c-1.845,1.082-2.991,2.354-2.991,3.691s1.082,2.673,2.991,3.691Z" transform="translate(-65.864 -81.538)"/>
                <path id="Path_8400" data-name="Path 8400" d="M184.311,223.816v8.131l-.323-.172c-1.975-1.053-3.107-2.469-3.107-3.885,0-1.35,1.072-2.692,3.1-3.88Zm-.44,7.391V224.59c-1.671,1.05-2.551,2.186-2.551,3.3C181.32,229.063,182.244,230.259,183.871,231.207Z" transform="translate(-65.864 -81.538)"/>
                <path id="Path_8401" data-name="Path 8401" d="M229.1,224.2v7.381c1.845-1.082,2.991-2.354,2.991-3.691s-1.082-2.673-2.991-3.691" transform="translate(-83.321 -81.538)"/>
                <path id="Path_8402" data-name="Path 8402" d="M228.88,223.816l.331.194c2.028,1.189,3.1,2.53,3.1,3.88s-1.072,2.692-3.1,3.88l-.331.194Zm.44,7.374c1.671-1.05,2.551-2.186,2.551-3.3s-.88-2.25-2.551-3.3Z" transform="translate(-83.321 -81.538)"/>
                <path id="Path_8403" data-name="Path 8403" d="M199.081,9.924a20.235,20.235,0,0,0-7.127.445,16.035,16.035,0,0,0-5.154,2.036" transform="translate(-67.937 -3.561)" fill="#ff0d5b"/>
                <path id="Path_8404" data-name="Path 8404" d="M186.8,14.6a2.2,2.2,0,0,1-1.151-4.072,18.18,18.18,0,0,1,5.82-2.307,22.36,22.36,0,0,1,7.861-.484,2.2,2.2,0,0,1-.5,4.367,17.978,17.978,0,0,0-6.353.4l-.08.018a13.8,13.8,0,0,0-4.448,1.757A2.188,2.188,0,0,1,186.8,14.6Z" transform="translate(-67.937 -3.561)" fill="#fcf7eb"/>
                <path id="Path_8405" data-name="Path 8405" d="M169.217,31.166c-2.609-1.527-6.681-1.909-8.272-.891a3.945,3.945,0,0,0-1.145,1.209" transform="translate(-58.117 -10.804)" fill="#00db96"/>
                <path id="Path_8406" data-name="Path 8406" d="M159.8,33.683a2.2,2.2,0,0,1-1.877-3.339,6.1,6.1,0,0,1,1.783-1.883l.056-.037a6.05,6.05,0,0,1,2.5-.834,11.615,11.615,0,0,1,2.665-.011,13.688,13.688,0,0,1,5.4,1.689,2.2,2.2,0,0,1-2.221,3.794,9.486,9.486,0,0,0-3.609-1.108,5.029,5.029,0,0,0-2.351.161,1.735,1.735,0,0,0-.469.508A2.2,2.2,0,0,1,159.8,33.683Z" transform="translate(-58.117 -10.804)" fill="#fcf7eb"/>
                <path id="Path_8407" data-name="Path 8407" d="M240.772,30.3a31.752,31.752,0,0,0-6.172,1.909" transform="translate(-85.321 -11.02)" fill="#00db96"/>
                <path id="Path_8408" data-name="Path 8408" d="M234.6,34.408a2.2,2.2,0,0,1-.861-4.222,34.02,34.02,0,0,1,6.6-2.041,2.2,2.2,0,1,1,.865,4.31,29.616,29.616,0,0,0-5.745,1.777A2.192,2.192,0,0,1,234.6,34.408Z" transform="translate(-85.321 -11.02)" fill="#fcf7eb"/>
              </g>
            </g>
          </g>
        </g>
      </g>
    </g>
  </g>
</svg>
