<svg xmlns="http://www.w3.org/2000/svg" xmlns:xlink="http://www.w3.org/1999/xlink" width="403.598" height="259.403" viewBox="0 0 403.598 259.403">
  <defs>
    <clipPath id="clip-path">
      <rect id="Rectangle_120588" data-name="Rectangle 120588" width="402" height="256.908" transform="translate(0 0)" fill="#fdfb76" stroke="#000" stroke-width="1.2"/>
    </clipPath>
    <clipPath id="clip-path-2">
      <rect id="Rectangle_121139" data-name="Rectangle 121139" width="330.612" height="346.203" fill="none"/>
    </clipPath>
    <clipPath id="clip-path-3">
      <path id="Path_9169" data-name="Path 9169" d="M375.16,442.077a13.1,13.1,0,0,0,1.017,18.487l24.589,21.957a13.1,13.1,0,1,0,17.41-19.5l-24.59-21.957a13.1,13.1,0,0,0-18.487,1.017" transform="translate(-371.824 -437.724)" fill="none"/>
    </clipPath>
    <clipPath id="clip-path-5">
      <path id="Path_9174" data-name="Path 9174" d="M400.368,419.084a13.1,13.1,0,0,0,1.316,18.427l24.888,21.6a13.1,13.1,0,1,0,17.171-19.743l-24.949-21.6a13.1,13.1,0,0,0-18.427,1.316" transform="translate(-397.192 -414.592)" fill="none"/>
    </clipPath>
    <clipPath id="clip-path-7">
      <path id="Path_9179" data-name="Path 9179" d="M426.668,394.384a13.1,13.1,0,0,0,1.316,18.427l24.948,21.6a13.1,13.1,0,1,0,17.111-19.743l-24.948-21.6a13.1,13.1,0,0,0-18.427,1.316" transform="translate(-423.492 -389.892)" fill="none"/>
    </clipPath>
    <clipPath id="clip-path-9">
      <path id="Path_9184" data-name="Path 9184" d="M446.285,378.1a13.1,13.1,0,0,0,3.111,18.248l26.923,19.025A13.1,13.1,0,1,0,491.4,394.01l-26.923-19.025a13.1,13.1,0,0,0-18.248,3.111" transform="translate(-443.879 -372.579)" fill="none"/>
    </clipPath>
    <clipPath id="clip-path-11">
      <path id="Path_9189" data-name="Path 9189" d="M453.678,371.884a13.1,13.1,0,0,0,9.812,15.675l32.128,7.479a13.1,13.1,0,0,0,5.923-25.487l-32.128-7.479a13.043,13.043,0,0,0-15.675,9.812" transform="translate(-453.348 -361.732)" fill="none"/>
    </clipPath>
    <clipPath id="clip-path-13">
      <path id="Path_9194" data-name="Path 9194" d="M499,343.2l-32.966,1.795a13.1,13.1,0,0,0,1.436,26.145l32.965-1.795a13.1,13.1,0,0,0-.718-26.145H499" transform="translate(-454.163 -343.2)" fill="none"/>
    </clipPath>
    <clipPath id="clip-path-15">
      <path id="Path_9200" data-name="Path 9200" d="M487.161,317.361,456.23,328.788a13.1,13.1,0,0,0,9.094,24.53l30.931-11.427a13.1,13.1,0,1,0-9.094-24.53" transform="translate(-448.381 -316.26)" fill="none"/>
    </clipPath>
    <clipPath id="clip-path-17">
      <path id="Path_9206" data-name="Path 9206" d="M467.785,287.224l-28.06,17.35a13.1,13.1,0,0,0,13.761,22.256l28.06-17.35a13.1,13.1,0,1,0-13.761-22.256" transform="translate(-434.104 -284.878)" fill="none"/>
    </clipPath>
    <clipPath id="clip-path-19">
      <path id="Path_9212" data-name="Path 9212" d="M444.228,260.733l-23.752,22.854A13.1,13.1,0,1,0,438.6,302.433l23.752-22.855a13.1,13.1,0,1,0-18.128-18.846" transform="translate(-415.824 -256.463)" fill="none"/>
    </clipPath>
    <clipPath id="clip-path-21">
      <path id="Path_9218" data-name="Path 9218" d="M422.829,236.262l-22.376,24.231A13.1,13.1,0,1,0,419.718,278.2l22.376-24.29A13.1,13.1,0,1,0,422.829,236.2" transform="translate(-396.51 -231.441)" fill="none"/>
    </clipPath>
    <clipPath id="clip-path-23">
      <path id="Path_9236" data-name="Path 9236" d="M124.39,441.349,99.8,463.306a13.1,13.1,0,1,0,17.41,19.5l24.59-21.957a13.1,13.1,0,0,0-17.41-19.5" transform="translate(-94.738 -438.591)" fill="none"/>
    </clipPath>
    <clipPath id="clip-path-25">
      <path id="Path_9241" data-name="Path 9241" d="M100.05,417.285l-24.889,21.6a13.1,13.1,0,0,0,17.111,19.743l24.948-21.6a13.1,13.1,0,1,0-17.111-19.743" transform="translate(-71.38 -413.39)" fill="none"/>
    </clipPath>
    <clipPath id="clip-path-27">
      <path id="Path_9246" data-name="Path 9246" d="M73.65,392.585l-24.889,21.6a13.1,13.1,0,0,0,17.111,19.743l24.948-21.6A13.1,13.1,0,1,0,73.71,392.585" transform="translate(-44.98 -388.69)" fill="none"/>
    </clipPath>
    <clipPath id="clip-path-29">
      <path id="Path_9251" data-name="Path 9251" d="M52,374.527,25.074,393.553a13.1,13.1,0,1,0,15.077,21.359l26.923-19.025A13.1,13.1,0,1,0,52,374.527" transform="translate(-18.781 -371.589)" fill="none"/>
    </clipPath>
    <clipPath id="clip-path-31">
      <path id="Path_9256" data-name="Path 9256" d="M44.583,361.95l-32.128,7.479a13.1,13.1,0,0,0,5.923,25.487l32.128-7.479a13.1,13.1,0,1,0-5.923-25.487" transform="translate(-3.006 -361.43)" fill="none"/>
    </clipPath>
    <clipPath id="clip-path-33">
      <path id="Path_9261" data-name="Path 9261" d="M.488,355.484a13.1,13.1,0,0,0,12.325,13.761l32.965,1.795a13.1,13.1,0,1,0,1.436-26.145L14.248,343.1h-.718A13.1,13.1,0,0,0,.488,355.484" transform="translate(-0.47 -343.1)" fill="none"/>
    </clipPath>
    <clipPath id="clip-path-35">
      <path id="Path_9267" data-name="Path 9267" d="M10.754,325.263a13.1,13.1,0,0,0,7.718,16.812L49.463,353.5a13.1,13.1,0,0,0,9.094-24.53L27.566,317.545a13.043,13.043,0,0,0-16.812,7.718" transform="translate(-9.941 -316.718)" fill="none"/>
    </clipPath>
    <clipPath id="clip-path-37">
      <path id="Path_9273" data-name="Path 9273" d="M30.891,291.739a13.1,13.1,0,0,0,4.248,18.008L63.2,327.1a13.1,13.1,0,0,0,13.761-22.256L48.9,287.491a13.1,13.1,0,0,0-18.008,4.248" transform="translate(-28.941 -285.541)" fill="none"/>
    </clipPath>
    <clipPath id="clip-path-39">
      <path id="Path_9279" data-name="Path 9279" d="M55.956,261.515A13.1,13.1,0,0,0,56.315,280l23.752,22.854A13.1,13.1,0,0,0,98.195,284.01L74.443,261.156a13.1,13.1,0,0,0-18.487.359" transform="translate(-52.315 -257.515)" fill="none"/>
    </clipPath>
    <clipPath id="clip-path-41">
      <path id="Path_9285" data-name="Path 9285" d="M78.465,235.847a13.1,13.1,0,0,0-.778,18.487l22.376,24.29a13.1,13.1,0,1,0,19.2-17.769l-22.376-24.29a13.1,13.1,0,0,0-18.487-.778" transform="translate(-74.244 -232.344)" fill="none"/>
    </clipPath>
    <clipPath id="clip-path-43">
      <path id="Path_9289" data-name="Path 9289" d="M206.387,197.6H122.926A22.256,22.256,0,0,0,102.7,229.249l44.453,95.845,39.008,83.939c7.957,17.171,32.427,17.171,40.384,0L265.5,325.094l44.453-95.845A22.256,22.256,0,0,0,289.728,197.6Z" transform="translate(-100.624 -197.6)" fill="none"/>
    </clipPath>
    <clipPath id="clip-path-45">
      <path id="Path_9302" data-name="Path 9302" d="M190.6,52.431A51.931,51.931,0,1,0,242.531.5,51.931,51.931,0,0,0,190.6,52.431" transform="translate(-190.6 -0.5)" fill="none"/>
    </clipPath>
    <clipPath id="clip-path-47">
      <path id="Path_9325" data-name="Path 9325" d="M209.42,57.535V77.219A48.7,48.7,0,0,0,221.385,82.3a22.494,22.494,0,0,0,5.684.6c8.436,0,15.316-4.966,17.53-11.367a5.8,5.8,0,0,1,10.769,0c2.214,6.4,9.094,11.367,17.53,11.367a22.494,22.494,0,0,0,5.684-.6l.778-.239a47.564,47.564,0,0,0,11.188-4.846V57.535c-8.436-5.265-23.453-8.735-40.624-8.735S217.8,52.33,209.3,57.535" transform="translate(-209.3 -48.8)" fill="none"/>
    </clipPath>
  </defs>
  <g id="Group_4017" data-name="Group 4017" transform="translate(1.174 1.2)">
    <g id="Group_4016" data-name="Group 4016" transform="translate(0 0)">
      <path id="Path_9561" data-name="Path 9561" d="M0,0H401.2V257H0Z" transform="translate(0.026 0)" fill="#00db96"/>
      <path id="Path_9561_-_Outline" data-name="Path 9561 - Outline" d="M0,0V257H401.2V0H0M-1.2-1.2H402.4V258.2H-1.2Z" transform="translate(0.026 0)"/>
      <g id="Mask_Group_3" data-name="Mask Group 3" transform="translate(0 0.093)" clip-path="url(#clip-path)">
        <g id="Artwork_21" data-name="Artwork 21" transform="translate(201 193.172)">
          <g id="Artwork_21-2" data-name="Artwork 21" transform="translate(-165.306 -173.102)">
            <g id="Group_4191" data-name="Group 4191" clip-path="url(#clip-path-2)">
              <path id="Path_9153" data-name="Path 9153" d="M351.4,483.813c0-14.837,9.453-23.213,21.179-23.213l8.855,16.872v14.957a6.043,6.043,0,0,1-4.607,5.863v9.453a3.105,3.105,0,0,1,1.077-.179,3.171,3.171,0,0,1,3.171,3.171,3.231,3.231,0,0,1-.06.6v.12c-.479,2.094-2.872,3.649-5.8,3.649l-1.436-.179a3.1,3.1,0,0,1,.12.718,3.171,3.171,0,0,1-3.171,3.171,11.244,11.244,0,0,1-5.026-1.2,3.111,3.111,0,0,1-2.752,1.615c-6.222,0-11.367-5.325-11.487-11.966h0V483.993h0v-.18" transform="translate(-141.163 -185.03)" fill="#fcf7eb"/>
              <path id="Path_9154" data-name="Path 9154" d="M372.579,460.3h.181l8.973,17.1v15.031a6.328,6.328,0,0,1-4.607,6.094v8.825a3.4,3.4,0,0,1,.741-.082h.04a3.473,3.473,0,0,1,3.467,3.47,3.541,3.541,0,0,1-.06.627v.125l-.008.033a4.6,4.6,0,0,1-2.113,2.8,7.5,7.5,0,0,1-3.982,1.086l-.037,0-1.016-.127a3.4,3.4,0,0,1,.036.354v.014a3.474,3.474,0,0,1-3.47,3.47,11.608,11.608,0,0,1-4.911-1.107,3.409,3.409,0,0,1-2.842,1.526h-.027a11.386,11.386,0,0,1-8.245-3.584,12.786,12.786,0,0,1-3.539-8.675V484.088a.549.549,0,0,1-.06-.275c0-7.135,2.17-13.144,6.277-17.379a19.631,19.631,0,0,1,6.834-4.571A22.366,22.366,0,0,1,372.579,460.3Zm8.556,17.244L372.4,460.9a21.722,21.722,0,0,0-7.964,1.518,19.038,19.038,0,0,0-6.627,4.433c-4,4.12-6.107,9.984-6.108,16.958l.06.06v23.394a12.19,12.19,0,0,0,3.372,8.268,10.794,10.794,0,0,0,7.816,3.4h.025a2.811,2.811,0,0,0,2.465-1.46l.139-.253.258.13a11,11,0,0,0,4.892,1.165,2.875,2.875,0,0,0,2.871-2.865,2.809,2.809,0,0,0-.108-.642l-.127-.437,1.869.234c2.718-.006,5.017-1.426,5.486-3.385v-.114l.006-.028a2.941,2.941,0,0,0,.054-.543,2.875,2.875,0,0,0-2.872-2.87h-.036a2.8,2.8,0,0,0-.94.162l-.4.142V498.057l.228-.056a5.732,5.732,0,0,0,4.379-5.573Z" transform="translate(-141.163 -185.03)"/>
              <path id="Path_9155" data-name="Path 9155" d="M397.265,542.3A3.171,3.171,0,0,0,392,539.969" transform="translate(-157.473 -216.597)" fill="#fcf7eb"/>
              <path id="Path_9156" data-name="Path 9156" d="M397.265,542.6a.3.3,0,0,1-.3-.295,2.872,2.872,0,0,0-4.768-2.113.3.3,0,1,1-.4-.449,3.47,3.47,0,0,1,5.762,2.553.3.3,0,0,1-.295.3Z" transform="translate(-157.473 -216.597)"/>
              <path id="Path_9157" data-name="Path 9157" d="M386.923,539.1a6.548,6.548,0,0,1-4.395-1.587,5.5,5.5,0,0,1-1.827-4.157V519.6a.3.3,0,0,1,.6,0v13.76a4.906,4.906,0,0,0,1.628,3.711,5.952,5.952,0,0,0,4,1.434c3.1,0,5.624-1.825,5.624-4.068a.3.3,0,0,1,.6,0C393.145,537.011,390.354,539.1,386.923,539.1Z" transform="translate(-153.054 -208.732)"/>
              <path id="Path_9158" data-name="Path 9158" d="M376.571,544.282c-5.624,0-10.171-3.948-10.171-8.914V524" transform="translate(-147.189 -210.499)" fill="#fcf7eb"/>
              <path id="Path_9159" data-name="Path 9159" d="M376.571,544.581a11.188,11.188,0,0,1-7.391-2.669,8.636,8.636,0,0,1-3.079-6.544V524a.3.3,0,1,1,.6,0v11.367a8.046,8.046,0,0,0,2.874,6.094,10.59,10.59,0,0,0,7,2.521.3.3,0,0,1,0,.6Z" transform="translate(-147.189 -210.499)"/>
              <path id="Path_9160" data-name="Path 9160" d="M351.4,538.3c0,6.7,5.086,12.145,11.368,12.145" transform="translate(-141.163 -216.243)" fill="#fcf7eb"/>
              <path id="Path_9161" data-name="Path 9161" d="M362.767,550.744a11.234,11.234,0,0,1-8.258-3.655,12.8,12.8,0,0,1-3.409-8.79.3.3,0,1,1,.6,0c0,6.532,4.965,11.846,11.068,11.846a.3.3,0,0,1,0,.6Z" transform="translate(-141.163 -216.243)"/>
              <path id="Path_9162" data-name="Path 9162" d="M393.9,516.063v2.214a6.043,6.043,0,0,0,4.607-5.863V510.2a6.043,6.043,0,0,1-4.607,5.863" transform="translate(-158.236 -204.955)"/>
              <path id="Path_9163" data-name="Path 9163" d="M393.6,518.658v-2.83l.228-.056a5.731,5.731,0,0,0,4.379-5.573h.6v2.213a6.329,6.329,0,0,1-4.835,6.154Zm.6-2.365v1.589a5.729,5.729,0,0,0,3.984-4.941A6.327,6.327,0,0,1,394.2,516.294Z" transform="translate(-158.236 -204.955)"/>
              <path id="Path_9164" data-name="Path 9164" d="M379.958,508.523h0c.12,2.692-2.991,4.188-6.342,4.188H372.9a5.085,5.085,0,0,1-3.709-2.812l-.12-.239c0,.957,1.137,3.53,1.137,3.769a3.82,3.82,0,0,1-3.231,3.53,5.24,5.24,0,0,1-4.547-1.556h0a1.8,1.8,0,0,1-.658.6,3.829,3.829,0,0,1-4.966-.957,12.444,12.444,0,0,1-2.812-7.718h0V483.993h0v-.179c0-13.7,8.077-21.9,18.487-23.034v-.18c-11.726,0-21.179,8.376-21.179,23.214v.179h0v23.273h0c.12,6.641,5.265,11.966,11.487,11.966h.538l.479-.12h0a3.172,3.172,0,0,0,1.795-1.436,11.188,11.188,0,0,0,4.368,1.137,3.709,3.709,0,0,0,3.231-1.5,2.632,2.632,0,0,0,.479-2.333h0l1.436.18c2.932,0,5.385-1.556,5.8-3.65v-.12a3.347,3.347,0,0,0,.06-.6,18.212,18.212,0,0,0-1.017-2.214" transform="translate(-141.123 -185.03)"/>
              <path id="Path_9165" data-name="Path 9165" d="M363.325,519.531h-.538a11.387,11.387,0,0,1-8.248-3.584A12.786,12.786,0,0,1,351,507.271s0,0,0-.005V483.814c0-7.135,2.17-13.145,6.277-17.379a19.632,19.632,0,0,1,6.834-4.572,22.366,22.366,0,0,1,8.368-1.562.3.3,0,0,1,.3.3v.18a.3.3,0,0,1-.267.3,20.476,20.476,0,0,0-7.176,2.121,18.886,18.886,0,0,0-5.776,4.581c-3.447,4.052-5.268,9.6-5.268,16.035v23.512a12.189,12.189,0,0,0,2.744,7.529l0,.006a3.529,3.529,0,0,0,4.578.883l.011-.006a1.5,1.5,0,0,0,.549-.5.3.3,0,0,1,.444-.063,5.185,5.185,0,0,0,3.508,1.548,5.634,5.634,0,0,0,.8-.061A3.62,3.62,0,0,0,369,515.549a3.132,3.132,0,0,0,.906-2.1c-.021-.1-.156-.461-.276-.783a11.948,11.948,0,0,1-.861-3,.3.3,0,0,1,.567-.134l.12.239,0,0a4.8,4.8,0,0,0,3.466,2.642h.691a7.351,7.351,0,0,0,5.22-1.75,2.8,2.8,0,0,0,.823-2.125.3.3,0,0,1,.574-.131c.049.113.157.322.283.564a5.784,5.784,0,0,1,.758,1.827,3.665,3.665,0,0,1-.06.626v.092a.3.3,0,0,1-.006.059c-.451,2.254-3.015,3.89-6.1,3.89l-.037,0-1.027-.128a2.943,2.943,0,0,1-.613,2.168,4.024,4.024,0,0,1-3.219,1.621c-.089,0-.18,0-.269-.009a11.41,11.41,0,0,1-4.237-1.051,3.461,3.461,0,0,1-1.816,1.337l-.017,0-.479.12A.3.3,0,0,1,363.325,519.531ZM351.6,507.263a12.19,12.19,0,0,0,3.371,8.269,10.794,10.794,0,0,0,7.816,3.4h.5l.434-.108a2.865,2.865,0,0,0,1.617-1.3.3.3,0,0,1,.391-.118,10.827,10.827,0,0,0,4.251,1.106c.08.005.157.008.233.008a3.423,3.423,0,0,0,2.741-1.383l.006-.008a2.341,2.341,0,0,0,.424-2.068.3.3,0,0,1,.326-.376l1.417.177a6.976,6.976,0,0,0,3.666-.993,3.849,3.849,0,0,0,1.82-2.387v-.089a.3.3,0,0,1,.005-.056,3.055,3.055,0,0,0,.055-.545,5.638,5.638,0,0,0-.532-1.24,3.525,3.525,0,0,1-.876,1.522,7.94,7.94,0,0,1-5.653,1.935H372.9a.3.3,0,0,1-.052,0,5.4,5.4,0,0,1-3.069-1.7c.141.413.293.822.414,1.145a4,4,0,0,1,.314.975,3.722,3.722,0,0,1-1.068,2.531,4.228,4.228,0,0,1-2.419,1.3,6.226,6.226,0,0,1-.887.067,5.584,5.584,0,0,1-3.657-1.492,2.1,2.1,0,0,1-.557.433,4.127,4.127,0,0,1-5.346-1.032,12.793,12.793,0,0,1-2.877-7.9V483.814c0-6.582,1.871-12.261,5.411-16.422a19.481,19.481,0,0,1,5.958-4.726,20.407,20.407,0,0,1,3.768-1.483,20.878,20.878,0,0,0-4.5,1.235,19.038,19.038,0,0,0-6.627,4.433c-4,4.121-6.108,9.986-6.108,16.963Z" transform="translate(-141.123 -185.03)"/>
              <path id="Path_9166" data-name="Path 9166" d="M418.693,463.305,394.1,441.348a13.1,13.1,0,0,0-17.41,19.5l24.589,21.957a13.1,13.1,0,0,0,17.41-19.5" transform="translate(-149.824 -176.189)"/>
            </g>
            <g id="Group_4192" data-name="Group 4192" transform="translate(222.457 261.884)" clip-path="url(#clip-path-3)">
              <path id="Path_9167" data-name="Path 9167" d="M415.2,452.762l-26.5-19.684a13.1,13.1,0,1,0-15.615,21l26.5,19.684a13.1,13.1,0,1,0,15.615-21" transform="translate(-369.98 -434.649)" fill="#8e0bfa"/>
              <path id="Path_9168" data-name="Path 9168" d="M380.334,429.769a13.433,13.433,0,0,1,8.543,3.074l26.492,19.674A13.4,13.4,0,1,1,399.4,474L372.9,454.323a13.4,13.4,0,0,1,7.429-24.554Zm27.6,46.7a12.8,12.8,0,0,0,7.092-23.462l-.013-.009L388.5,433.309a12.8,12.8,0,1,0-15.259,20.52l.013.009,26.516,19.693A12.834,12.834,0,0,0,407.938,476.473Z" transform="translate(-369.98 -434.649)"/>
            </g>
            <g id="Group_4193" data-name="Group 4193" clip-path="url(#clip-path-2)">
              <path id="Path_9170" data-name="Path 9170" d="M409.318,485.866a13.276,13.276,0,0,1-8.218-2.82l-.016-.013-24.6-21.971a13.4,13.4,0,0,1,17.807-19.949l.016.013,24.6,21.971a13.4,13.4,0,0,1-9.589,22.77Zm-7.843-3.287a12.682,12.682,0,0,0,7.843,2.688,12.8,12.8,0,0,0,9.168-21.746l-24.574-21.943a12.683,12.683,0,0,0-7.843-2.688,12.8,12.8,0,0,0-9.168,21.746Z" transform="translate(-149.824 -176.189)"/>
              <path id="Path_9171" data-name="Path 9171" d="M443.192,438.883l-24.949-21.6a13.1,13.1,0,1,0-17.111,19.743l24.889,21.6a13.1,13.1,0,1,0,17.171-19.743" transform="translate(-159.007 -166.065)"/>
            </g>
            <g id="Group_4194" data-name="Group 4194" transform="translate(237.634 248.044)" clip-path="url(#clip-path-5)">
              <path id="Path_9172" data-name="Path 9172" d="M438.364,426.967,411.621,407.7a13.1,13.1,0,1,0-15.256,21.239l26.743,19.265a13.1,13.1,0,1,0,15.256-21.239" transform="translate(-394.385 -410.629)" fill="#8e0bfa"/>
              <path id="Path_9173" data-name="Path 9173" d="M403.306,404.429h0a13.439,13.439,0,0,1,8.5,3.037l26.727,19.253a13.4,13.4,0,1,1-15.6,21.726L396.2,429.19a13.4,13.4,0,0,1,7.109-24.762Zm34.972,22.838h-.01l-.078-.056-26.758-19.276a12.8,12.8,0,1,0-14.908,20.754l.016.011L423.3,447.975a12.8,12.8,0,1,0,14.98-20.709Z" transform="translate(-394.385 -410.629)"/>
            </g>
            <g id="Group_4195" data-name="Group 4195" clip-path="url(#clip-path-2)">
              <path id="Path_9175" data-name="Path 9175" d="M435.15,462.627h0a13.4,13.4,0,0,1-9.331-3.78l-24.874-21.585a13.4,13.4,0,1,1,17.5-20.2l24.934,21.585a13.4,13.4,0,0,1-8.232,23.976ZM408.92,413.689a12.8,12.8,0,0,0-7.61,23.1l.018.015,24.9,21.609a12.8,12.8,0,0,0,8.92,3.617h0a12.8,12.8,0,0,0,7.858-22.91l-.012-.01L418.03,417.495a12.8,12.8,0,0,0-9.11-3.806Z" transform="translate(-159.007 -166.065)"/>
              <path id="Path_9176" data-name="Path 9176" d="M470.521,415.074l-24.948-21.6a13.1,13.1,0,0,0-17.111,19.743l24.948,21.6a13.1,13.1,0,1,0,17.111-19.743" transform="translate(-170.601 -157.034)"/>
            </g>
            <g id="Group_4196" data-name="Group 4196" transform="translate(253.369 233.266)" clip-path="url(#clip-path-7)">
              <path id="Path_9177" data-name="Path 9177" d="M462.364,399.967,435.621,380.7a13.1,13.1,0,1,0-15.256,21.239l26.743,19.265a13.1,13.1,0,1,0,15.256-21.239" transform="translate(-419.762 -385.006)" fill="#8e0bfa"/>
              <path id="Path_9178" data-name="Path 9178" d="M427.306,377.429h0a13.439,13.439,0,0,1,8.5,3.037l26.728,19.254a13.4,13.4,0,1,1-15.606,21.725L420.2,402.19a13.4,13.4,0,0,1,7.108-24.762Zm28.117,46.454a12.8,12.8,0,0,0,6.783-23.661l-.016-.011-26.758-19.276a12.8,12.8,0,1,0-14.908,20.754l.016.011L447.3,420.975A12.838,12.838,0,0,0,455.423,423.882Z" transform="translate(-419.762 -385.006)"/>
            </g>
            <g id="Group_4197" data-name="Group 4197" clip-path="url(#clip-path-2)">
              <path id="Path_9180" data-name="Path 9180" d="M462.732,439.012a13.4,13.4,0,0,1-9.527-3.975L428.248,413.43a13.4,13.4,0,0,1,17.5-20.194l.018.014,24.94,21.591a13.4,13.4,0,0,1-7.975,24.171ZM428.666,413l24.957,21.606a12.8,12.8,0,1,0,16.72-19.293l-.018-.014-24.94-21.591A12.8,12.8,0,0,0,428.666,413Z" transform="translate(-170.601 -157.034)"/>
              <path id="Path_9181" data-name="Path 9181" d="M491.953,394.243,465.03,375.218a13.1,13.1,0,0,0-15.077,21.359L476.876,415.6a13.1,13.1,0,1,0,15.077-21.359" transform="translate(-178.811 -149.964)"/>
            </g>
            <g id="Group_4198" data-name="Group 4198" transform="translate(265.566 222.908)" clip-path="url(#clip-path-9)">
              <path id="Path_9182" data-name="Path 9182" d="M482.79,378.024l-28.538-16.513a13.1,13.1,0,0,0-13.1,22.615l28.538,16.513a13.1,13.1,0,0,0,13.1-22.615" transform="translate(-440.479 -367.602)" fill="#8e0bfa"/>
              <path id="Path_9183" data-name="Path 9183" d="M448.526,359.89h0a13.279,13.279,0,0,1,5.855,1.353l.019.01,28.557,16.524a13.4,13.4,0,0,1-13.4,23.131l-.019-.01-28.557-16.524a13.4,13.4,0,0,1,7.545-24.484Zm5.585,1.886a12.685,12.685,0,0,0-5.584-1.288h0a12.8,12.8,0,0,0-7.217,23.385l28.519,16.5a12.682,12.682,0,0,0,5.584,1.288,12.8,12.8,0,0,0,7.219-23.385Z" transform="translate(-440.479 -367.602)"/>
            </g>
            <g id="Group_4199" data-name="Group 4199" clip-path="url(#clip-path-2)">
              <path id="Path_9185" data-name="Path 9185" d="M458.23,373.009h0a13.384,13.384,0,0,1,6.954,1.953l.017.011,26.915,19.02A13.4,13.4,0,1,1,476.7,415.841l-26.931-19.032a13.4,13.4,0,0,1,8.466-23.8Zm6.636,2.459a12.786,12.786,0,0,0-6.635-1.86h0a12.8,12.8,0,0,0-8.1,22.73l26.931,19.032A12.8,12.8,0,1,0,491.8,394.5l-.017-.011Z" transform="translate(-178.811 -149.964)"/>
              <path id="Path_9186" data-name="Path 9186" d="M502.006,369.645l-32.128-7.478a13.1,13.1,0,0,0-5.923,25.487l32.128,7.479a13.1,13.1,0,0,0,5.923-25.487" transform="translate(-182.582 -145.408)"/>
            </g>
            <g id="Group_4200" data-name="Group 4200" transform="translate(271.231 216.419)" clip-path="url(#clip-path-11)">
              <path id="Path_9187" data-name="Path 9187" d="M496.706,357.585l-32.128-7.419a13.1,13.1,0,0,0-5.923,25.487l32.128,7.419a13.1,13.1,0,0,0,5.923-25.487" transform="translate(-451.684 -357.006)" fill="#8e0bfa"/>
              <path id="Path_9188" data-name="Path 9188" d="M462.3,349.667h0a13.518,13.518,0,0,1,2.332.2l.016,0,32.36,7.472v.015a13.4,13.4,0,0,1-6.274,26l-.016,0-32.144-7.423a13.4,13.4,0,0,1,3.725-26.273Zm2.222.792a12.917,12.917,0,0,0-2.221-.194h0a12.8,12.8,0,0,0-3.566,25.1l32.112,7.415a12.8,12.8,0,0,0,5.786-24.9Z" transform="translate(-451.684 -357.006)"/>
            </g>
            <g id="Group_4201" data-name="Group 4201" clip-path="url(#clip-path-2)">
              <path id="Path_9190" data-name="Path 9190" d="M467.6,361.667h0a13.518,13.518,0,0,1,2.332.2l.016,0,32.144,7.483a13.4,13.4,0,0,1-6.058,26.069l-.016,0-32.143-7.483a13.4,13.4,0,0,1,3.725-26.273Zm2.222.792a12.917,12.917,0,0,0-2.221-.194h0a12.8,12.8,0,0,0-3.566,25.1l32.112,7.475a12.8,12.8,0,0,0,5.788-24.9Z" transform="translate(-182.582 -145.408)"/>
              <path id="Path_9191" data-name="Path 9191" d="M499,343.161l-32.966,1.795a13.1,13.1,0,0,0,1.436,26.145l32.965-1.795A13.1,13.1,0,1,0,499,343.161" transform="translate(-182.444 -137.83)"/>
            </g>
            <g id="Group_4202" data-name="Group 4202" transform="translate(271.718 205.331)" clip-path="url(#clip-path-13)">
              <path id="Path_9192" data-name="Path 9192" d="M502.041,337.136,469.076,335.7a13.1,13.1,0,0,0-1.137,26.145l32.965,1.436a13.1,13.1,0,0,0,1.137-26.145" transform="translate(-454.934 -340.187)" fill="#8e0bfa"/>
              <path id="Path_9193" data-name="Path 9193" d="M469.081,335.4h.008l32.981,1.437a13.4,13.4,0,0,1-1.163,26.742h-.016l-32.981-1.437a13.4,13.4,0,0,1,1.163-26.742Zm32.939,2.034L469.07,336a12.8,12.8,0,0,0-1.111,25.547l32.95,1.435a12.8,12.8,0,0,0,1.111-25.547Z" transform="translate(-454.934 -340.187)"/>
            </g>
            <g id="Group_4203" data-name="Group 4203" clip-path="url(#clip-path-2)">
              <path id="Path_9195" data-name="Path 9195" d="M500.233,342.8h0a13.4,13.4,0,0,1,.209,26.8L467.472,371.4l-.21,0A13.4,13.4,0,0,1,466,344.658h.012l32.96-1.795C499.392,342.823,499.815,342.8,500.233,342.8Zm-32.776,28,32.971-1.795a12.8,12.8,0,0,0-.194-25.605h0c-.4,0-.808.019-1.208.057h-.012l-32.96,1.795a12.8,12.8,0,0,0,1.209,25.549Z" transform="translate(-182.444 -137.83)"/>
              <path id="Path_9196" data-name="Path 9196" d="M487.161,317.361,456.23,328.788a13.1,13.1,0,0,0,9.094,24.53l30.931-11.427a13.1,13.1,0,1,0-9.094-24.53" transform="translate(-180.122 -127.047)"/>
            </g>
            <g id="Group_4204" data-name="Group 4204" transform="translate(268.259 189.213)" clip-path="url(#clip-path-15)">
              <path id="Path_9197" data-name="Path 9197" d="M491.147,311.322,459.258,319.7A13.1,13.1,0,1,0,465.9,345l31.889-8.376a13.1,13.1,0,0,0-6.641-25.307" transform="translate(-448.538 -314.169)" fill="#8e0bfa"/>
              <path id="Path_9198" data-name="Path 9198" d="M493.772,310.757h0a13.4,13.4,0,0,1,4.107,26.157l-.016,0-31.881,8.374a13.4,13.4,0,1,1-6.793-25.886l31.9-8.378A13.484,13.484,0,0,1,493.772,310.757Zm3.931,25.585a12.8,12.8,0,0,0-3.931-24.987h0a12.882,12.882,0,0,0-2.558.258l-31.9,8.378a12.8,12.8,0,1,0,6.489,24.73l.016,0Z" transform="translate(-448.538 -314.169)"/>
              <path id="Path_9199" data-name="Path 9199" d="M525.571,330.409a2.977,2.977,0,0,1-1.656-.5,4.48,4.48,0,0,0-1.364-.611,2.992,2.992,0,0,1,1.5-5.792,10.45,10.45,0,0,1,3.182,1.424,2.992,2.992,0,0,1-1.662,5.481Z" transform="translate(-478.477 -320.333)" fill="#fcf7eb"/>
            </g>
            <g id="Group_4205" data-name="Group 4205" clip-path="url(#clip-path-2)">
              <path id="Path_9201" data-name="Path 9201" d="M492.416,315.961h0a13.4,13.4,0,0,1,3.935,26.213L465.412,353.6a13.4,13.4,0,0,1-9.3-25.09l.016-.007,30.922-11.424A13.317,13.317,0,0,1,492.416,315.961Zm-27.188,37.073,30.939-11.43a12.8,12.8,0,0,0-7.444-24.5l-32.381,11.963a12.8,12.8,0,0,0,8.886,23.969Z" transform="translate(-180.122 -127.047)"/>
              <path id="Path_9202" data-name="Path 9202" d="M467.785,287.723l-28.06,17.35a13.1,13.1,0,0,0,13.761,22.256l28.06-17.35a13.1,13.1,0,0,0-13.761-22.256" transform="translate(-174.386 -114.939)"/>
            </g>
            <g id="Group_4206" data-name="Group 4206" transform="translate(259.718 170.438)" clip-path="url(#clip-path-17)">
              <path id="Path_9203" data-name="Path 9203" d="M475.288,279.093l-29.615,14.538a13.1,13.1,0,0,0,11.487,23.513l29.615-14.538a13.1,13.1,0,1,0-11.487-23.513" transform="translate(-436.043 -281.892)" fill="#8e0bfa"/>
              <path id="Path_9204" data-name="Path 9204" d="M481.65,277.145h0a13.4,13.4,0,0,1,5.249,25.733l-29.623,14.542a13.4,13.4,0,0,1-11.749-24.049l.013-.007,29.608-14.535A13.432,13.432,0,0,1,481.65,277.145Zm-24.614,39.727,29.622-14.542a12.8,12.8,0,1,0-11.225-22.976l-.013.007L445.812,293.9a12.8,12.8,0,0,0,11.224,22.975Z" transform="translate(-436.043 -281.892)"/>
              <path id="Path_9205" data-name="Path 9205" transform="translate(-461.7 -288.783)" fill="#fcf7eb"/>
            </g>
            <g id="Group_4207" data-name="Group 4207" clip-path="url(#clip-path-2)">
              <path id="Path_9207" data-name="Path 9207" d="M474.053,285.82a13.4,13.4,0,0,1,7.663,24.4l-.014.009L453.63,327.592a13.4,13.4,0,0,1-14.075-22.764l.014-.009L467.7,287.424h.009A13.42,13.42,0,0,1,474.053,285.82Zm7.328,23.909a12.8,12.8,0,0,0-13.447-21.747L439.89,305.323a12.8,12.8,0,0,0,13.446,21.747Z" transform="translate(-174.386 -114.939)"/>
              <path id="Path_9208" data-name="Path 9208" d="M445.052,261.526,421.3,284.38a13.1,13.1,0,0,0,18.128,18.846l23.752-22.854a13.1,13.1,0,0,0-18.128-18.846" transform="translate(-167.867 -103.818)"/>
            </g>
            <g id="Group_4208" data-name="Group 4208" transform="translate(248.781 153.438)" clip-path="url(#clip-path-19)">
              <path id="Path_9209" data-name="Path 9209" d="M454.924,250.833l-25.846,20.461a13.1,13.1,0,0,0,16.213,20.521l25.846-20.461a13.1,13.1,0,0,0-16.214-20.521" transform="translate(-419.4 -253.264)" fill="#8e0bfa"/>
              <path id="Path_9210" data-name="Path 9210" d="M462.377,248.2h0a13.528,13.528,0,0,1,5.763,1.3,13.4,13.4,0,0,1,3.2,22.08l-.014.012-25.861,20.473a13.328,13.328,0,0,1-7.624,2.386,13.527,13.527,0,0,1-5.763-1.3,13.4,13.4,0,0,1-3.2-22.08l.014-.012,25.861-20.473A13.328,13.328,0,0,1,462.377,248.2Zm8.567,22.925a12.807,12.807,0,0,0-3.061-21.088,12.926,12.926,0,0,0-5.506-1.239h0a12.731,12.731,0,0,0-7.275,2.275l-25.831,20.45a12.807,12.807,0,0,0,3.061,21.088,12.925,12.925,0,0,0,5.506,1.239,12.732,12.732,0,0,0,7.275-2.275Z" transform="translate(-419.4 -253.264)"/>
              <path id="Path_9211" data-name="Path 9211" d="M485.23,272.123a2.988,2.988,0,0,1-2.482-1.318,4.132,4.132,0,0,0-.59-.694,4.27,4.27,0,0,0-1.969-.984,2.991,2.991,0,0,1,1.221-5.857,9.882,9.882,0,0,1,6.3,4.186,2.992,2.992,0,0,1-2.476,4.666Z" transform="translate(-441.926 -260.374)" fill="#fcf7eb"/>
            </g>
            <g id="Group_4209" data-name="Group 4209" clip-path="url(#clip-path-2)">
              <path id="Path_9213" data-name="Path 9213" d="M453.5,258.137h0a13.4,13.4,0,0,1,9.9,22.436l-.014.014-23.766,22.867a13.4,13.4,0,0,1-18.542-19.276l.014-.014L444.859,261.3A13.414,13.414,0,0,1,453.5,258.137Zm9.468,22.026a12.8,12.8,0,0,0-9.467-21.427h0a12.813,12.813,0,0,0-8.245,3.013l-23.738,22.841A12.8,12.8,0,0,0,439.228,303Z" transform="translate(-167.867 -103.818)"/>
              <path id="Path_9214" data-name="Path 9214" d="M423.463,236.262l-22.376,24.231A13.1,13.1,0,0,0,420.352,278.2l22.376-24.29A13.1,13.1,0,1,0,423.463,236.2" transform="translate(-159.919 -92.973)"/>
            </g>
            <g id="Group_4210" data-name="Group 4210" transform="translate(237.226 138.467)" clip-path="url(#clip-path-21)">
              <path id="Path_9215" data-name="Path 9215" d="M434.89,224.389,410.3,246.406a13.1,13.1,0,1,0,17.41,19.5L452.3,243.953a13.1,13.1,0,0,0-17.41-19.5" transform="translate(-400.017 -227.524)" fill="#8e0bfa"/>
              <path id="Path_9216" data-name="Path 9216" d="M442.925,221.392a13.4,13.4,0,0,1,9.589,22.77l-.015.014-24.582,21.95a13.4,13.4,0,1,1-17.809-19.95l25.08-22.456v.134A13.261,13.261,0,0,1,442.925,221.392Zm9.169,22.344a12.8,12.8,0,0,0-17.02-19.052l-.483.375v0l-24.107,21.584A12.8,12.8,0,1,0,427.5,265.7l.015-.014Z" transform="translate(-400.017 -227.524)"/>
              <path id="Path_9217" data-name="Path 9217" d="M464.43,247.323a2.988,2.988,0,0,1-2.483-1.32,4.076,4.076,0,0,0-.586-.69,4.27,4.27,0,0,0-1.971-.985,2.991,2.991,0,1,1,1.22-5.857,10.3,10.3,0,0,1,4.808,2.446,10.171,10.171,0,0,1,1.49,1.742,2.992,2.992,0,0,1-2.478,4.663Z" transform="translate(-422.015 -235.442)" fill="#fcf7eb"/>
            </g>
            <g id="Group_4211" data-name="Group 4211" clip-path="url(#clip-path-2)">
              <path id="Path_9219" data-name="Path 9219" d="M433.566,231.142h0a13.4,13.4,0,0,1,9.376,22.978l-22.381,24.3a13.4,13.4,0,0,1-19.7-18.114l.011-.013,22.3-24.145v-.05l.068-.083A13.358,13.358,0,0,1,433.566,231.142Zm-13.429,46.852,22.381-24.3a12.8,12.8,0,1,0-18.756-17.387v.069l-.079.086-22.37,24.224a12.8,12.8,0,0,0,18.825,17.3Z" transform="translate(-159.919 -92.973)"/>
              <path id="Path_9220" data-name="Path 9220" d="M181.094,483.813c0-14.837-9.453-23.213-21.179-23.213L151,477.531v14.957a6.042,6.042,0,0,0,4.607,5.863V507.8a3.109,3.109,0,0,0-1.077-.179,3.171,3.171,0,0,0-3.171,3.171,3.237,3.237,0,0,0,.06.6v.12c.479,2.094,2.872,3.65,5.8,3.65l1.436-.179a3.111,3.111,0,0,0-.12.718,3.171,3.171,0,0,0,3.171,3.171,11.25,11.25,0,0,0,5.026-1.2,3.111,3.111,0,0,0,2.752,1.615c6.222,0,11.367-5.325,11.487-11.966h0V483.993h0v-.18" transform="translate(-60.659 -185.03)" fill="#fcf7eb"/>
              <path id="Path_9221" data-name="Path 9221" d="M159.734,460.3h.181a22.366,22.366,0,0,1,8.368,1.562,19.632,19.632,0,0,1,6.834,4.571c4.106,4.235,6.277,10.244,6.277,17.379a.447.447,0,0,1-.12.328v23.19a12.786,12.786,0,0,1-3.539,8.675,11.387,11.387,0,0,1-8.248,3.584h-.024a3.41,3.41,0,0,1-2.843-1.526,11.614,11.614,0,0,1-4.91,1.107,3.474,3.474,0,0,1-3.471-3.47v-.014a3.412,3.412,0,0,1,.036-.354l-1.053.129a7.5,7.5,0,0,1-3.982-1.086,4.6,4.6,0,0,1-2.113-2.8l-.008-.033v-.125a3.546,3.546,0,0,1-.06-.625,3.474,3.474,0,0,1,3.47-3.472h.035a3.4,3.4,0,0,1,.743.082v-8.826a6.327,6.327,0,0,1-4.607-6.093V477.457Zm21.061,23.447c-.013-6.948-2.124-12.79-6.108-16.9a19.039,19.039,0,0,0-6.627-4.433,21.723,21.723,0,0,0-7.965-1.518l-8.8,16.706v14.883a5.731,5.731,0,0,0,4.379,5.572l.228.056v10.112l-.4-.142a2.8,2.8,0,0,0-.942-.162h-.032a2.876,2.876,0,0,0-2.875,2.872,2.94,2.94,0,0,0,.054.541l.006.028v.114c.469,1.959,2.768,3.378,5.486,3.385l1.868-.233-.127.437a2.815,2.815,0,0,0-.108.642,2.875,2.875,0,0,0,2.872,2.865,11.007,11.007,0,0,0,4.891-1.165l.258-.13.139.253a2.812,2.812,0,0,0,2.466,1.46h.022a10.8,10.8,0,0,0,7.819-3.4,12.19,12.19,0,0,0,3.372-8.269V483.808Z" transform="translate(-60.659 -185.03)"/>
              <path id="Path_9222" data-name="Path 9222" d="M151.8,542.3a3.171,3.171,0,0,1,5.265-2.333" transform="translate(-60.98 -216.597)" fill="#fcf7eb"/>
              <path id="Path_9223" data-name="Path 9223" d="M151.8,542.6h0a.3.3,0,0,1-.295-.3,3.47,3.47,0,0,1,5.762-2.554.3.3,0,1,1-.4.449,2.872,2.872,0,0,0-4.768,2.113A.3.3,0,0,1,151.8,542.6Z" transform="translate(-60.98 -216.597)"/>
              <path id="Path_9224" data-name="Path 9224" d="M157.723,539.1c-3.431,0-6.222-2.093-6.222-4.667a.3.3,0,0,1,.6,0c0,2.243,2.523,4.068,5.624,4.068a5.952,5.952,0,0,0,4-1.434,4.906,4.906,0,0,0,1.628-3.711V519.6a.3.3,0,1,1,.6,0v13.76a5.5,5.5,0,0,1-1.827,4.157A6.548,6.548,0,0,1,157.723,539.1Z" transform="translate(-60.98 -208.732)"/>
              <path id="Path_9225" data-name="Path 9225" d="M169.2,544.282c5.624,0,10.171-3.948,10.171-8.914V524" transform="translate(-67.97 -210.499)" fill="#fcf7eb"/>
              <path id="Path_9226" data-name="Path 9226" d="M169.2,544.581a.3.3,0,1,1,0-.6,10.59,10.59,0,0,0,7-2.521,8.046,8.046,0,0,0,2.874-6.094V524a.3.3,0,0,1,.6,0v11.367a8.636,8.636,0,0,1-3.079,6.544A11.188,11.188,0,0,1,169.2,544.581Z" transform="translate(-67.97 -210.499)"/>
              <path id="Path_9227" data-name="Path 9227" d="M193.567,538.3c0,6.7-5.085,12.145-11.367,12.145" transform="translate(-73.193 -216.243)" fill="#fcf7eb"/>
              <path id="Path_9228" data-name="Path 9228" d="M182.2,550.744a.3.3,0,1,1,0-.6c6.1,0,11.068-5.314,11.068-11.846a.3.3,0,0,1,.6,0,12.8,12.8,0,0,1-3.409,8.79A11.234,11.234,0,0,1,182.2,550.744Z" transform="translate(-73.193 -216.243)"/>
              <path id="Path_9229" data-name="Path 9229" d="M155.707,516.063v2.214a6.043,6.043,0,0,1-4.607-5.863V510.2a6.043,6.043,0,0,0,4.607,5.863" transform="translate(-60.699 -204.955)"/>
              <path id="Path_9230" data-name="Path 9230" d="M156.006,518.658l-.37-.091a6.329,6.329,0,0,1-4.835-6.154V510.2h.6a5.731,5.731,0,0,0,4.379,5.573l.228.056Zm-4.582-5.716a5.729,5.729,0,0,0,3.984,4.941v-1.589A6.328,6.328,0,0,1,151.424,512.942Z" transform="translate(-60.699 -204.955)"/>
              <path id="Path_9231" data-name="Path 9231" d="M152.717,508.523h0c-.12,2.692,2.991,4.188,6.342,4.188h.718a5.085,5.085,0,0,0,3.709-2.812l.12-.239c0,.957-1.137,3.53-1.137,3.769a3.82,3.82,0,0,0,3.231,3.53,5.24,5.24,0,0,0,4.547-1.556h0a1.8,1.8,0,0,0,.658.6,3.829,3.829,0,0,0,4.966-.957,12.444,12.444,0,0,0,2.812-7.718h0V483.993h0v-.179c0-13.7-8.077-21.9-18.487-23.034v-.18c11.726,0,21.179,8.376,21.179,23.214v.179h0v23.273h0c-.12,6.641-5.265,11.966-11.487,11.966h-.538l-.479-.12a3.172,3.172,0,0,1-1.795-1.436,11.186,11.186,0,0,1-4.367,1.137,3.709,3.709,0,0,1-3.231-1.5,2.633,2.633,0,0,1-.479-2.333l-1.436.18c-2.932,0-5.385-1.556-5.8-3.65v-.12a3.291,3.291,0,0,1-.06-.6,18.206,18.206,0,0,1,1.017-2.214" transform="translate(-60.94 -185.03)"/>
              <path id="Path_9232" data-name="Path 9232" d="M169.888,519.531h-.538a.3.3,0,0,1-.072-.009l-.479-.12-.017,0a3.461,3.461,0,0,1-1.816-1.337,11.415,11.415,0,0,1-4.242,1.051c-.085.006-.175.009-.265.009a4.023,4.023,0,0,1-3.219-1.621,2.943,2.943,0,0,1-.613-2.167l-1.027.128-.037,0c-3.082,0-5.646-1.636-6.1-3.89a.3.3,0,0,1-.006-.059v-.091a3.6,3.6,0,0,1-.06-.624,5.765,5.765,0,0,1,.758-1.829c.126-.242.235-.451.283-.565a.3.3,0,0,1,.574.131,2.8,2.8,0,0,0,.823,2.125,7.351,7.351,0,0,0,5.22,1.75h.692a4.8,4.8,0,0,0,3.466-2.642l0,0,.12-.239a.3.3,0,0,1,.567.134,11.948,11.948,0,0,1-.861,3c-.12.322-.255.685-.276.783a3.132,3.132,0,0,0,.906,2.1,3.619,3.619,0,0,0,2.068,1.113,5.628,5.628,0,0,0,.8.061,5.185,5.185,0,0,0,3.508-1.548.3.3,0,0,1,.444.063,1.5,1.5,0,0,0,.549.5l.011.006a3.529,3.529,0,0,0,4.578-.883l0-.006a12.191,12.191,0,0,0,2.744-7.532V483.814c0-6.438-1.822-11.983-5.268-16.035a18.886,18.886,0,0,0-5.776-4.581,20.477,20.477,0,0,0-7.176-2.121.3.3,0,0,1-.267-.3v-.18a.3.3,0,0,1,.3-.3,22.366,22.366,0,0,1,8.368,1.562,19.632,19.632,0,0,1,6.834,4.572c4.106,4.235,6.277,10.244,6.277,17.379v23.453s0,0,0,.005a12.786,12.786,0,0,1-3.539,8.675A11.387,11.387,0,0,1,169.888,519.531Zm-.5-.6h.5a10.794,10.794,0,0,0,7.816-3.4,12.19,12.19,0,0,0,3.372-8.269v-23.45c0-6.976-2.112-12.842-6.108-16.963a19.038,19.038,0,0,0-6.627-4.433,20.881,20.881,0,0,0-4.5-1.235,20.4,20.4,0,0,1,3.768,1.483,19.481,19.481,0,0,1,5.958,4.726c3.54,4.162,5.411,9.841,5.411,16.422v23.512a12.8,12.8,0,0,1-2.877,7.9,4.127,4.127,0,0,1-5.346,1.032,2.1,2.1,0,0,1-.557-.433,5.584,5.584,0,0,1-3.657,1.492,6.221,6.221,0,0,1-.887-.067,4.228,4.228,0,0,1-2.419-1.3,3.722,3.722,0,0,1-1.068-2.531,4,4,0,0,1,.314-.975c.121-.324.273-.732.414-1.145a5.4,5.4,0,0,1-3.069,1.7.3.3,0,0,1-.052,0h-.718a7.94,7.94,0,0,1-5.653-1.935,3.524,3.524,0,0,1-.876-1.522A5.6,5.6,0,0,0,152,510.8a3,3,0,0,0,.054.542.3.3,0,0,1,.005.057v.089a3.849,3.849,0,0,0,1.82,2.387,6.976,6.976,0,0,0,3.666.993l1.417-.177a.3.3,0,0,1,.326.376,2.341,2.341,0,0,0,.424,2.068l.006.008a3.422,3.422,0,0,0,2.741,1.383c.076,0,.153,0,.229-.008a10.831,10.831,0,0,0,4.255-1.107.3.3,0,0,1,.391.118,2.866,2.866,0,0,0,1.617,1.3Z" transform="translate(-60.94 -185.03)"/>
              <path id="Path_9233" data-name="Path 9233" d="M99.8,463.306l24.589-21.957a13.1,13.1,0,0,1,17.41,19.5l-24.59,21.957a13.1,13.1,0,1,1-17.41-19.5" transform="translate(-38.058 -176.189)"/>
            </g>
            <g id="Group_4212" data-name="Group 4212" transform="translate(56.68 262.402)" clip-path="url(#clip-path-23)">
              <path id="Path_9234" data-name="Path 9234" d="M101.376,452.762l26.5-19.683a13.1,13.1,0,1,1,15.615,21l-26.5,19.684a13.1,13.1,0,1,1-15.615-21" transform="translate(-95.058 -435.167)" fill="#8e0bfa"/>
              <path id="Path_9235" data-name="Path 9235" d="M136.238,429.769a13.4,13.4,0,0,1,7.429,24.554L117.176,474a13.4,13.4,0,1,1-15.972-21.48L127.7,432.843A13.433,13.433,0,0,1,136.238,429.769Zm-27.6,46.7a12.834,12.834,0,0,0,8.167-2.942l.012-.01,26.517-19.693a12.8,12.8,0,1,0-15.259-20.52l-.012.01-26.517,19.692a12.8,12.8,0,0,0,7.092,23.462Z" transform="translate(-95.058 -435.167)"/>
            </g>
            <g id="Group_4213" data-name="Group 4213" clip-path="url(#clip-path-2)">
              <path id="Path_9237" data-name="Path 9237" d="M107.84,487.053a13.4,13.4,0,0,1-8.231-23.977l24.6-21.963a13.276,13.276,0,0,1,8.218-2.82,13.4,13.4,0,0,1,9.589,22.77l-.015.014-24.582,21.95a13.4,13.4,0,0,1-9.578,4.027Zm16.742-45.474-24.6,21.963A12.8,12.8,0,1,0,117,482.6l.015-.014,24.582-21.95a12.8,12.8,0,0,0-17.012-19.058Z" transform="translate(-38.058 -176.189)"/>
              <path id="Path_9238" data-name="Path 9238" d="M74.132,438.883l24.948-21.6a13.1,13.1,0,1,1,17.111,19.743l-24.948,21.6a13.1,13.1,0,1,1-17.111-19.743" transform="translate(-27.646 -166.065)"/>
            </g>
            <g id="Group_4214" data-name="Group 4214" transform="translate(42.706 247.325)" clip-path="url(#clip-path-25)">
              <path id="Path_9239" data-name="Path 9239" d="M77.865,426.967,104.608,407.7a13.1,13.1,0,1,1,15.256,21.239L93.121,448.206a13.1,13.1,0,1,1-15.256-21.239" transform="translate(-71.511 -409.91)" fill="#8e0bfa"/>
              <path id="Path_9240" data-name="Path 9240" d="M112.923,404.429a13.4,13.4,0,0,1,7.108,24.761L93.3,448.444a13.4,13.4,0,1,1-15.6-21.726l26.726-19.253A13.44,13.44,0,0,1,112.923,404.429ZM84.806,450.882a12.839,12.839,0,0,0,8.125-2.907l.015-.012,26.76-19.276A12.8,12.8,0,1,0,104.8,407.934l-.015.012L77.565,427.552v-.031a12.8,12.8,0,0,0,7.241,23.361Z" transform="translate(-71.511 -409.91)"/>
            </g>
            <g id="Group_4215" data-name="Group 4215" clip-path="url(#clip-path-2)">
              <path id="Path_9242" data-name="Path 9242" d="M81.921,462.82a13.4,13.4,0,0,1-7.975-24.171l24.931-21.583a13.4,13.4,0,1,1,17.5,20.2L91.448,458.845a13.4,13.4,0,0,1-9.527,3.975ZM108.4,413.689a12.8,12.8,0,0,0-9.11,3.806l-.017.016L74.31,439.123a12.8,12.8,0,1,0,16.72,19.293l.017-.016,24.966-21.613a12.8,12.8,0,0,0-7.61-23.1Z" transform="translate(-27.646 -166.065)"/>
              <path id="Path_9243" data-name="Path 9243" d="M47.732,414.183l24.948-21.6a13.1,13.1,0,1,1,17.111,19.743L64.843,433.986a13.1,13.1,0,1,1-17.111-19.743" transform="translate(-17.04 -156.143)"/>
            </g>
            <g id="Group_4216" data-name="Group 4216" transform="translate(26.911 232.547)" clip-path="url(#clip-path-27)">
              <path id="Path_9244" data-name="Path 9244" d="M53.8,399.967,80.548,380.7A13.1,13.1,0,1,1,95.8,401.942L69.121,421.206a13.1,13.1,0,1,1-15.256-21.239" transform="translate(-46.075 -384.286)" fill="#8e0bfa"/>
              <path id="Path_9245" data-name="Path 9245" d="M88.863,377.429a13.4,13.4,0,0,1,7.109,24.761L69.3,421.444A13.4,13.4,0,1,1,52.89,400.266h-.012l27.488-19.8A13.439,13.439,0,0,1,88.863,377.429ZM60.806,423.882a12.839,12.839,0,0,0,8.125-2.907l.015-.011,26.7-19.276a12.8,12.8,0,1,0-14.908-20.754l-.015.012L54.732,399.668h.176l-.885.553a12.8,12.8,0,0,0,6.783,23.661Z" transform="translate(-46.075 -384.286)"/>
            </g>
            <g id="Group_4217" data-name="Group 4217" clip-path="url(#clip-path-2)">
              <path id="Path_9247" data-name="Path 9247" d="M55.521,438.18a13.4,13.4,0,0,1-8.087-24.087v-.047l25.043-21.68a13.4,13.4,0,1,1,17.5,20.2L65.048,434.2a13.4,13.4,0,0,1-9.528,3.976Zm-7.489-23.861v.074l-.121.09a12.8,12.8,0,1,0,16.72,19.293l.017-.016,24.967-21.673a12.8,12.8,0,1,0-16.72-19.293l-.017.016Z" transform="translate(-17.04 -156.143)"/>
              <path id="Path_9248" data-name="Path 9248" d="M25.074,394.243,52,375.218a13.1,13.1,0,0,1,15.077,21.359L40.151,415.6a13.1,13.1,0,1,1-15.077-21.359" transform="translate(-7.544 -149.964)"/>
            </g>
            <g id="Group_4218" data-name="Group 4218" transform="translate(11.236 222.316)" clip-path="url(#clip-path-29)">
              <path id="Path_9249" data-name="Path 9249" d="M33.971,378.024l28.538-16.513a13.1,13.1,0,0,1,13.1,22.615L47.073,400.7a13.1,13.1,0,0,1-13.1-22.675" transform="translate(-22.412 -367.009)" fill="#8e0bfa"/>
              <path id="Path_9250" data-name="Path 9250" d="M68.233,359.89a13.4,13.4,0,0,1,7.546,24.484l-.018.011L47.213,400.963a13.4,13.4,0,0,1-13.4-23.192l.009-.005,28.557-16.523A13.276,13.276,0,0,1,68.233,359.89Zm7.218,23.984a12.8,12.8,0,0,0-12.8-22.1l-28.524,16.5a12.806,12.806,0,0,0,.487,21.989,12.795,12.795,0,0,0,12.315.168Z" transform="translate(-22.412 -367.009)"/>
            </g>
            <g id="Group_4219" data-name="Group 4219" clip-path="url(#clip-path-2)">
              <path id="Path_9252" data-name="Path 9252" d="M58.8,373.01a13.4,13.4,0,0,1,8.467,23.8l-.016.012-26.915,19.02A13.4,13.4,0,1,1,24.91,393.993l26.932-19.031A13.382,13.382,0,0,1,58.8,373.01Zm8.1,23.329a12.8,12.8,0,0,0-14.732-20.87L25.23,394.5A12.8,12.8,0,1,0,39.962,415.37l.016-.012Z" transform="translate(-7.544 -149.964)"/>
              <path id="Path_9253" data-name="Path 9253" d="M12.415,369.645l32.128-7.479a13.1,13.1,0,0,1,5.923,25.487l-32.188,7.478a13.1,13.1,0,0,1-5.923-25.487" transform="translate(-1.167 -145.408)"/>
            </g>
            <g id="Group_4220" data-name="Group 4220" transform="translate(1.798 216.238)" clip-path="url(#clip-path-31)">
              <path id="Path_9254" data-name="Path 9254" d="M16.725,357.369l32.128-7.419a13.1,13.1,0,1,1,5.923,25.487l-32.128,7.419a13.1,13.1,0,1,1-5.923-25.487" transform="translate(-4.164 -356.609)" fill="#8e0bfa"/>
              <path id="Path_9255" data-name="Path 9255" d="M52.507,349.131a13.4,13.4,0,0,1,2.328,26.6l-32.112,7.415a13.4,13.4,0,1,1-6.058-26.07l32.112-7.415A13.393,13.393,0,0,1,52.507,349.131ZM18.993,383.078a12.8,12.8,0,0,0,3.571-.509l.016,0,32.143-7.422a12.8,12.8,0,1,0-5.788-24.9l-.016,0-32.143,7.422a12.8,12.8,0,0,0,2.216,25.414Z" transform="translate(-4.164 -356.609)"/>
            </g>
            <g id="Group_4221" data-name="Group 4221" clip-path="url(#clip-path-2)">
              <path id="Path_9257" data-name="Path 9257" d="M46.823,361.667a13.4,13.4,0,0,1,3.726,26.273l-.016,0-32.2,7.482a13.374,13.374,0,0,1-10.612-2.671,13.4,13.4,0,0,1,4.554-23.4l.041-.012h.068l32.11-7.474A13.519,13.519,0,0,1,46.823,361.667Zm3.567,25.7a12.8,12.8,0,0,0-5.788-24.9l-32.153,7.484H12.4a12.8,12.8,0,0,0,5.82,24.894Z" transform="translate(-1.167 -145.408)"/>
              <path id="Path_9258" data-name="Path 9258" d="M13.874,343.161l32.965,1.795A13.1,13.1,0,0,1,45.4,371.1l-32.965-1.795a13.1,13.1,0,1,1,1.436-26.145" transform="translate(0.186 -137.83)"/>
            </g>
            <g id="Group_4222" data-name="Group 4222" transform="translate(0.281 205.271)" clip-path="url(#clip-path-33)">
              <path id="Path_9259" data-name="Path 9259" d="M11.739,337.136,44.7,335.7a13.1,13.1,0,0,1,1.137,26.145l-32.965,1.436a13.1,13.1,0,0,1-1.137-26.145" transform="translate(-0.234 -340.127)" fill="#8e0bfa"/>
              <path id="Path_9260" data-name="Path 9260" d="M44.7,335.4h.008a13.4,13.4,0,0,1,1.163,26.742h-.015L12.881,363.58h-.008a13.4,13.4,0,0,1-1.163-26.742h.015Zm1.121,26.146A12.8,12.8,0,0,0,44.71,336l-32.95,1.435a12.8,12.8,0,0,0,1.111,25.547Z" transform="translate(-0.234 -340.127)"/>
            </g>
            <g id="Group_4223" data-name="Group 4223" clip-path="url(#clip-path-2)">
              <path id="Path_9262" data-name="Path 9262" d="M12.637,342.8c.418,0,.842.02,1.259.059l32.972,1.8A13.4,13.4,0,0,1,45.4,371.4h-.012L12.427,369.6a13.4,13.4,0,0,1,.209-26.8Zm34.18,2.451-32.971-1.8c-.4-.038-.807-.057-1.209-.057a12.8,12.8,0,0,0-.194,25.605h.012l32.96,1.794h.195a12.8,12.8,0,0,0,1.208-25.549Z" transform="translate(0.186 -137.83)"/>
              <path id="Path_9263" data-name="Path 9263" d="M28.024,317.712,58.955,329.14a13.1,13.1,0,1,1-9.094,24.53L18.93,342.242a13.1,13.1,0,0,1,9.094-24.53" transform="translate(-4.452 -127.398)"/>
            </g>
            <g id="Group_4224" data-name="Group 4224" transform="translate(5.948 189.488)" clip-path="url(#clip-path-35)">
              <path id="Path_9264" data-name="Path 9264" d="M22.545,311.322,54.433,319.7A13.1,13.1,0,1,1,47.792,345L15.9,336.629a13.1,13.1,0,0,1,6.641-25.307" transform="translate(-8.689 -314.444)" fill="#8e0bfa"/>
              <path id="Path_9265" data-name="Path 9265" d="M19.919,310.757a13.487,13.487,0,0,1,2.686.272l.016,0L54.5,319.406a13.4,13.4,0,1,1-6.793,25.886l-31.9-8.378a13.4,13.4,0,0,1,4.107-26.157Zm2.558.856a12.8,12.8,0,0,0-6.489,24.729l31.9,8.378a12.8,12.8,0,1,0,6.489-24.73l-.016,0Z" transform="translate(-8.689 -314.444)"/>
              <path id="Path_9266" data-name="Path 9266" d="M25.6,330.409a2.992,2.992,0,0,1-1.662-5.481,10.446,10.446,0,0,1,3.183-1.424,2.992,2.992,0,0,1,1.5,5.792,4.477,4.477,0,0,0-1.364.61A2.978,2.978,0,0,1,25.6,330.409Z" transform="translate(-16.232 -320.608)" fill="#fcf7eb"/>
            </g>
            <g id="Group_4225" data-name="Group 4225" clip-path="url(#clip-path-2)">
              <path id="Path_9268" data-name="Path 9268" d="M24.184,316.836a13.4,13.4,0,0,1,3.927.59l.016.005,30.924,11.424a13.4,13.4,0,1,1-9.3,25.091L18.81,342.516a13.4,13.4,0,0,1,5.374-25.68ZM27.928,318a12.8,12.8,0,0,0-8.886,23.969L49.981,353.4a12.723,12.723,0,0,0,5.135,1.076,12.8,12.8,0,0,0,3.752-25.045l-.016-.005Z" transform="translate(-4.452 -127.398)"/>
              <path id="Path_9269" data-name="Path 9269" d="M49.286,287.723l28.06,17.35A13.1,13.1,0,0,1,63.585,327.33l-28.06-17.35a13.1,13.1,0,0,1,13.761-22.256" transform="translate(-12.013 -114.938)"/>
            </g>
            <g id="Group_4226" data-name="Group 4226" transform="translate(17.315 170.835)" clip-path="url(#clip-path-37)">
              <path id="Path_9270" data-name="Path 9270" d="M40.874,279.545l29.615,14.538A13.1,13.1,0,1,1,59,317.6L29.327,303a13.1,13.1,0,0,1,11.547-23.453" transform="translate(-26.48 -282.741)" fill="#8e0bfa"/>
              <path id="Path_9271" data-name="Path 9271" d="M35.925,278.271a13.327,13.327,0,0,1,5.063,1l.019.008,29.608,14.535a13.4,13.4,0,1,1-11.75,24.05l-29.687-14.6a13.4,13.4,0,0,1,6.748-24.986Zm4.827,1.548a12.8,12.8,0,0,0-11.283,22.916l29.679,14.6a12.8,12.8,0,1,0,11.225-22.976l-.015-.007Z" transform="translate(-26.48 -282.741)"/>
              <path id="Path_9272" data-name="Path 9272" d="M43.14,298.937a2.862,2.862,0,0,1-2.345-1.061A2.674,2.674,0,0,1,41.031,294l.6-.479a10.439,10.439,0,0,1,5.24-1.9,2.991,2.991,0,1,1,.437,5.967,4.314,4.314,0,0,0-2.119.741A3.672,3.672,0,0,1,43.14,298.937Z" transform="translate(-34.549 -289.18)" fill="#fcf7eb"/>
            </g>
            <g id="Group_4227" data-name="Group 4227" clip-path="url(#clip-path-2)">
              <path id="Path_9274" data-name="Path 9274" d="M43.018,285.82a13.421,13.421,0,0,1,6.411,1.641l.156.085v.011l27.931,17.271a13.4,13.4,0,0,1-14.075,22.764l-.014-.008L35.355,310.225a13.4,13.4,0,0,1,7.663-24.4Zm6.116,2.161A12.8,12.8,0,0,0,35.69,309.729l28.046,17.342a12.8,12.8,0,0,0,13.446-21.747Z" transform="translate(-12.013 -114.938)"/>
              <path id="Path_9275" data-name="Path 9275" d="M74,260.733l23.752,22.855a13.1,13.1,0,0,1-18.128,18.846L55.876,279.579A13.1,13.1,0,1,1,74,260.733" transform="translate(-20.577 -103.025)"/>
            </g>
            <g id="Group_4228" data-name="Group 4228" transform="translate(31.299 154.067)" clip-path="url(#clip-path-39)">
              <path id="Path_9276" data-name="Path 9276" d="M63.592,250.833l25.846,20.461a13.1,13.1,0,0,1-16.214,20.521L47.378,271.354a13.1,13.1,0,0,1,16.214-20.521" transform="translate(-48.584 -253.894)" fill="#8e0bfa"/>
              <path id="Path_9277" data-name="Path 9277" d="M56.138,248.2a13.328,13.328,0,0,1,7.624,2.387l.015.011,25.86,20.473a13.405,13.405,0,0,1-3.2,22.08,13.526,13.526,0,0,1-5.763,1.3,13.328,13.328,0,0,1-7.624-2.387l-.015-.011-25.86-20.473a13.405,13.405,0,0,1,3.2-22.08A13.526,13.526,0,0,1,56.138,248.2Zm7.275,2.873a12.733,12.733,0,0,0-7.275-2.275,12.924,12.924,0,0,0-5.506,1.239,12.805,12.805,0,0,0-3.061,21.088L73.4,291.575a12.732,12.732,0,0,0,7.275,2.275,12.924,12.924,0,0,0,5.506-1.239,12.805,12.805,0,0,0,3.061-21.088Z" transform="translate(-48.584 -253.894)"/>
              <path id="Path_9278" data-name="Path 9278" d="M64.461,271.707A2.587,2.587,0,0,1,63,271.284c-1.369-.925-2-2.457-1.078-3.827a10.126,10.126,0,0,1,1.445-1.7,10.35,10.35,0,0,1,4.851-2.487,2.991,2.991,0,1,1,1.221,5.857,4.313,4.313,0,0,0-2.013,1.024A3.715,3.715,0,0,1,64.461,271.707Z" transform="translate(-57.17 -261.004)" fill="#fcf7eb"/>
            </g>
            <g id="Group_4229" data-name="Group 4229" clip-path="url(#clip-path-2)">
              <path id="Path_9280" data-name="Path 9280" d="M64.326,256.164a13.432,13.432,0,0,1,9.893,4.36l23.758,22.862a13.4,13.4,0,0,1-18.542,19.276l-.014-.013L55.676,279.8a13.4,13.4,0,0,1,8.65-23.637ZM97.542,283.8,73.783,260.934A12.8,12.8,0,1,0,56.069,279.35l.014.013,23.745,22.848A12.8,12.8,0,0,0,97.542,283.8Z" transform="translate(-20.577 -103.025)"/>
              <path id="Path_9281" data-name="Path 9281" d="M96.618,236.3l22.316,24.23a13.1,13.1,0,1,1-19.265,17.709L77.353,254.012A13.1,13.1,0,1,1,96.618,236.3" transform="translate(-29.49 -93.014)"/>
            </g>
            <g id="Group_4230" data-name="Group 4230" transform="translate(44.419 139.008)" clip-path="url(#clip-path-41)">
              <path id="Path_9282" data-name="Path 9282" d="M82.771,223.552l24.589,22.017a13.1,13.1,0,1,1-17.41,19.5L65.3,243.056a13.1,13.1,0,1,1,17.41-19.5" transform="translate(-68.618 -227.227)" fill="#8e0bfa"/>
              <path id="Path_9283" data-name="Path 9283" d="M73.34,219.309a13.4,13.4,0,0,1,9.5,3.944h.049l.085.076,24.582,22.01a13.4,13.4,0,1,1-17.809,19.95l-24.634-22a13.4,13.4,0,0,1,8.231-23.977Zm9.317,4.542h-.071l-.088-.09A12.8,12.8,0,1,0,65.484,242.82l.016.013,24.664,22.031A12.8,12.8,0,1,0,107.177,245.8l-.016-.013Z" transform="translate(-68.618 -227.227)"/>
              <path id="Path_9284" data-name="Path 9284" d="M85.261,246.909a2.588,2.588,0,0,1-1.461-.422c-1.37-.923-2-2.457-1.081-3.827a10.067,10.067,0,0,1,1.448-1.7,10.346,10.346,0,0,1,4.85-2.485,2.991,2.991,0,0,1,1.22,5.857,4.312,4.312,0,0,0-2.013,1.024A3.713,3.713,0,0,1,85.261,246.909Z" transform="translate(-78.645 -235.982)" fill="#fcf7eb"/>
            </g>
            <g id="Group_4231" data-name="Group 4231" clip-path="url(#clip-path-2)">
              <path id="Path_9286" data-name="Path 9286" d="M86.514,231.242a13.358,13.358,0,0,1,10.33,4.864l22.305,24.219a13.4,13.4,0,1,1-19.7,18.115L77.138,254.22a13.4,13.4,0,0,1,9.375-22.979Zm23.259,51.463a12.8,12.8,0,0,0,8.952-21.958l-.011-.011L96.387,236.493a12.8,12.8,0,1,0-18.825,17.3l.011.011L99.9,278.052A12.762,12.762,0,0,0,109.773,282.705Z" transform="translate(-29.49 -93.014)"/>
              <path id="Path_9287" data-name="Path 9287" d="M122.881,197.3H289.893a22.555,22.555,0,0,1,20.448,32.075L265.828,325.22,226.82,409.16a22.355,22.355,0,0,1-8.664,9.788,22.966,22.966,0,0,1-23.6,0,22.355,22.355,0,0,1-8.664-9.789L146.945,325.22l-44.512-95.845A22.555,22.555,0,0,1,122.881,197.3Zm166.967.6H122.881a21.957,21.957,0,0,0-19.905,31.224l44.513,95.845,38.948,83.939a22.38,22.38,0,0,0,3.645,5.56,21.246,21.246,0,0,0,4.787,3.969,22.367,22.367,0,0,0,22.978,0,21.247,21.247,0,0,0,4.787-3.969,22.38,22.38,0,0,0,3.645-5.56l39.008-83.94L309.8,229.123A21.957,21.957,0,0,0,289.893,197.9Z" transform="translate(-40.422 -79.379)"/>
              <path id="Path_9288" data-name="Path 9288" d="M206.387,197.6h83.461a22.256,22.256,0,0,1,20.222,31.649l-44.512,95.845-39.008,83.939c-7.957,17.171-32.427,17.171-40.384,0l-38.948-83.939L102.7,229.249A22.256,22.256,0,0,1,122.926,197.6Z" transform="translate(-40.422 -79.379)" fill="#ff0d5b"/>
            </g>
            <g id="Group_4232" data-name="Group 4232" transform="translate(60.202 118.221)" clip-path="url(#clip-path-43)">
              <rect id="Rectangle_121160" data-name="Rectangle 121160" width="178.408" height="11.966" transform="translate(116.052 172.124) rotate(-82.3)" fill="#fdfb76"/>
              <path id="Rectangle_121161" data-name="Rectangle 121161" d="M-.3-.3H178.708V12.265H-.3ZM178.109.3H.3V11.667h177.81Z" transform="translate(116.052 172.124) rotate(-82.3)"/>
              <rect id="Rectangle_121162" data-name="Rectangle 121162" width="178.408" height="5.983" transform="translate(132.351 172.465) rotate(-82.3)" fill="#fdfb76"/>
              <path id="Rectangle_121163" data-name="Rectangle 121163" d="M-.3-.3H178.708V6.282H-.3ZM178.109.3H.3V5.684h177.81Z" transform="translate(132.351 172.465) rotate(-82.3)"/>
            </g>
            <g id="Group_4233" data-name="Group 4233" clip-path="url(#clip-path-2)">
              <path id="Path_9290" data-name="Path 9290" d="M122.881,197.3H289.893a22.555,22.555,0,0,1,20.448,32.075L265.828,325.22,226.82,409.16a22.355,22.355,0,0,1-8.664,9.788,22.966,22.966,0,0,1-23.6,0,22.355,22.355,0,0,1-8.664-9.789L146.945,325.22l-44.512-95.845A22.555,22.555,0,0,1,122.881,197.3Zm166.967.6H122.881a21.957,21.957,0,0,0-19.905,31.224l44.513,95.845,38.948,83.939a22.38,22.38,0,0,0,3.645,5.56,21.246,21.246,0,0,0,4.787,3.969,22.367,22.367,0,0,0,22.978,0,21.247,21.247,0,0,0,4.787-3.969,22.38,22.38,0,0,0,3.645-5.56l39.008-83.94L309.8,229.123A21.957,21.957,0,0,0,289.893,197.9Z" transform="translate(-40.422 -79.379)"/>
              <path id="Path_9291" data-name="Path 9291" d="M275.686,322.752l-2.932,4.966c-24.649,41.82-100.153,41.82-124.862,0l-2.932-4.966L110.5,264.3l40.624,87.589,39.008,83.939c7.957,17.171,32.427,17.171,40.384,0l38.948-83.939L310.088,264.3Z" transform="translate(-44.39 -106.173)"/>
              <path id="Path_9292" data-name="Path 9292" d="M110.758,264.148,145.219,322.6l2.932,4.966a56.064,56.064,0,0,0,11.388,13.649,65.556,65.556,0,0,0,14.951,9.757,86.171,86.171,0,0,0,71.7,0,65.429,65.429,0,0,0,14.937-9.757A55.946,55.946,0,0,0,272.5,327.566l2.932-4.966,34.4-58.452.529.278-40.624,87.589-38.948,83.939a22.355,22.355,0,0,1-8.664,9.788,22.966,22.966,0,0,1-23.6,0,22.355,22.355,0,0,1-8.664-9.788l-39.008-83.939-40.624-87.589Zm99.589,95.234a84.2,84.2,0,0,1-36.115-7.871,66.153,66.153,0,0,1-15.087-9.846,56.663,56.663,0,0,1-11.509-13.8L144.7,322.9l-31.377-53.221,38.068,82.08L190.4,435.7a22.38,22.38,0,0,0,3.645,5.56,21.248,21.248,0,0,0,4.787,3.969,22.368,22.368,0,0,0,22.978,0,21.248,21.248,0,0,0,4.787-3.969,22.379,22.379,0,0,0,3.645-5.56l38.948-83.94,38.048-82.037-31.3,53.178-2.932,4.966a56.543,56.543,0,0,1-11.489,13.8,66.027,66.027,0,0,1-15.073,9.847A84.126,84.126,0,0,1,210.346,359.382Z" transform="translate(-44.39 -106.173)"/>
              <rect id="Rectangle_121164" data-name="Rectangle 121164" width="88.845" height="68.504" transform="translate(121.392 277.424)" fill="#00db96"/>
              <path id="Rectangle_121165" data-name="Rectangle 121165" d="M-.3-.3H89.144V68.8H-.3ZM88.546.3H.3V68.2H88.546Z" transform="translate(121.392 277.424)"/>
              <path id="Path_9293" data-name="Path 9293" d="M278.4,504.443h0c-9.154,28.119-53.008,28.119-62.222,0L202.9,463.7h0v68.5h88.845V463.7h0Z" transform="translate(-81.508 -186.276)"/>
              <path id="Path_9294" data-name="Path 9294" d="M292.044,532.5H202.6V461.817l13.865,42.533a28.947,28.947,0,0,0,12.2,15.657,33.135,33.135,0,0,0,8.92,3.919,36.86,36.86,0,0,0,19.459,0,33.057,33.057,0,0,0,8.912-3.919,28.86,28.86,0,0,0,12.164-15.657l13.925-42.525Zm-88.845-.6h88.247v-66.33l-12.758,38.961a29.458,29.458,0,0,1-12.412,15.977,33.655,33.655,0,0,1-9.073,3.99,37.458,37.458,0,0,1-19.778,0,33.735,33.735,0,0,1-9.081-3.99A29.544,29.544,0,0,1,215.9,504.536l-12.7-38.953Z" transform="translate(-81.508 -186.276)"/>
              <path id="Path_9295" data-name="Path 9295" d="M272.69,186.63H254.024A12.624,12.624,0,0,1,241.4,174.006V162.1h43.017v12.8A11.726,11.726,0,0,1,272.69,186.63" transform="translate(-96.974 -65.118)" fill="#fcf7eb"/>
              <path id="Path_9296" data-name="Path 9296" d="M272.69,186.929H254.024A12.923,12.923,0,0,1,241.1,174.006V161.8h43.615v13.1a12.026,12.026,0,0,1-12.026,12.026ZM241.7,162.4v11.607a12.325,12.325,0,0,0,12.325,12.325H272.69A11.427,11.427,0,0,0,284.118,174.9V162.4Z" transform="translate(-96.974 -65.118)"/>
              <path id="Path_9297" data-name="Path 9297" d="M294.362,52.431a52.007,52.007,0,0,1-46.8,51.681c-1.5.156,4.194-18.2,2.358-18.2-.2,0-7.907,18.445-8.372,18.439a51.932,51.932,0,1,1,52.878-51.924" transform="translate(-76.527 -0.201)" fill="#ff0d5b"/>
              <path id="Ellipse_381" data-name="Ellipse 381" d="M51.931-.3a52.244,52.244,0,0,1,20.33,100.356A52.244,52.244,0,0,1,31.6,3.805,51.9,51.9,0,0,1,51.931-.3Zm0,103.862a51.646,51.646,0,0,0,20.1-99.207A51.645,51.645,0,0,0,31.834,99.506,51.308,51.308,0,0,0,51.931,103.563Z" transform="translate(92.512 52.217) rotate(-45)"/>
              <path id="Path_9298" data-name="Path 9298" d="M242.531,126.664A51.931,51.931,0,0,1,190.839,79.4c-.12,1.556-.239,3.111-.239,4.667a51.931,51.931,0,0,0,103.8,0,40.626,40.626,0,0,0-.239-4.667,51.931,51.931,0,0,1-51.692,47.264" transform="translate(-76.567 -31.896)"/>
              <path id="Path_9299" data-name="Path 9299" d="M242.5,134.534a52.19,52.19,0,0,1-52.2-50.458v-.01c0-1.566.122-3.153.24-4.687l.6-.007a51.57,51.57,0,0,0,102.728,0l.262-2.9.334,2.891a40.933,40.933,0,0,1,.241,4.7v.01a52.19,52.19,0,0,1-52.2,50.458ZM190.9,84.062a51.631,51.631,0,0,0,103.2,0q0-.775-.021-1.494a52.168,52.168,0,0,1-103.152.065C190.911,83.11,190.9,83.587,190.9,84.062Z" transform="translate(-76.567 -31.896)"/>
            </g>
            <g id="Group_4234" data-name="Group 4234" transform="translate(114.033 0.299)" clip-path="url(#clip-path-45)">
              <path id="Path_9300" data-name="Path 9300" d="M276.747-20.8,266.218,9.713l-10.47,30.572L245.218,9.713,234.748-20.8H223.5l16.154,46.905,16.094,46.846,16.094-46.846L287.935-20.8Z" transform="translate(-203.816 8.057)" fill="#fdfb76"/>
              <path id="Path_9301" data-name="Path 9301" d="M223.081-21.1h11.881L245.5,9.615l10.246,29.748L265.935,9.616l10.6-30.715h11.82l-16.23,47.3L255.748,73.872,239.371,26.2Zm11.454.6H223.919l16.017,46.509L255.748,72.03l15.811-46.022L287.516-20.5H276.961L266.5,9.81l-10.752,31.4L244.935,9.81Z" transform="translate(-203.816 8.057)"/>
            </g>
            <g id="Group_4235" data-name="Group 4235" clip-path="url(#clip-path-2)">
              <path id="Ellipse_382" data-name="Ellipse 382" d="M51.931-.3a52.244,52.244,0,0,1,20.33,100.356A52.244,52.244,0,0,1,31.6,3.805,51.9,51.9,0,0,1,51.931-.3Zm0,103.862a51.646,51.646,0,0,0,20.1-99.207A51.645,51.645,0,0,0,31.834,99.506,51.308,51.308,0,0,0,51.931,103.563Z" transform="translate(92.512 52.217) rotate(-45)"/>
              <path id="Path_9303" data-name="Path 9303" d="M241.4,173.467a32.427,32.427,0,0,0,43.017,0V162.1H241.4Z" transform="translate(-96.974 -65.118)"/>
              <path id="Path_9304" data-name="Path 9304" d="M262.908,181.926a32.7,32.7,0,0,1-21.707-8.235l-.1-.089V161.8h43.615v11.8l-.1.089A32.7,32.7,0,0,1,262.908,181.926ZM241.7,173.332a32.128,32.128,0,0,0,42.418,0V162.4H241.7Z" transform="translate(-96.974 -65.118)"/>
              <path id="Path_9305" data-name="Path 9305" d="M255.627,130.135h0A32.427,32.427,0,0,1,223.2,97.708V44.7h64.854V97.708a32.427,32.427,0,0,1-32.427,32.427" transform="translate(-89.663 -17.957)" fill="#fcf7eb"/>
              <path id="Path_9306" data-name="Path 9306" d="M255.627,130.434A32.7,32.7,0,0,1,222.9,97.708V44.4h65.452V97.708a32.7,32.7,0,0,1-32.726,32.726ZM223.5,45V97.708a32.128,32.128,0,1,0,64.256,0V45Z" transform="translate(-89.663 -17.957)"/>
              <path id="Path_9307" data-name="Path 9307" d="M251.6,140.815c0,3.47,6.94,6.222,15.436,6.222s15.436-2.812,15.436-6.222a2.931,2.931,0,0,0-.539-1.615H252.138a2.931,2.931,0,0,0-.538,1.615" transform="translate(-101.072 -55.919)"/>
              <path id="Path_9308" data-name="Path 9308" d="M251.984,138.9h30.1l.089.126a3.219,3.219,0,0,1,.594,1.78v.008c0,1.781-1.676,3.439-4.719,4.667a33.846,33.846,0,0,1-22.031.023c-3.044-1.221-4.72-2.886-4.72-4.69v-.008a3.22,3.22,0,0,1,.593-1.78Zm29.789.6H252.3a2.622,2.622,0,0,0-.4,1.32,3.105,3.105,0,0,0,1.124,2.216,10.14,10.14,0,0,0,3.22,1.915,33.263,33.263,0,0,0,21.584-.022c2.759-1.114,4.342-2.611,4.345-4.109A2.622,2.622,0,0,0,281.773,139.5Z" transform="translate(-101.072 -55.919)"/>
              <path id="Path_9309" data-name="Path 9309" d="M251.6,137.615c0,3.47,6.94,6.222,15.436,6.222s15.436-2.812,15.436-6.222a2.931,2.931,0,0,0-.539-1.615H252.138a2.931,2.931,0,0,0-.538,1.615" transform="translate(-101.072 -54.633)" fill="#ff3c1d"/>
              <path id="Path_9310" data-name="Path 9310" d="M251.984,135.7h30.1l.089.126a3.219,3.219,0,0,1,.594,1.78v.008c0,1.781-1.676,3.439-4.719,4.667a33.847,33.847,0,0,1-22.031.023c-3.044-1.221-4.72-2.886-4.72-4.69v-.008a3.22,3.22,0,0,1,.593-1.78Zm29.789.6H252.3a2.622,2.622,0,0,0-.4,1.32,3.105,3.105,0,0,0,1.124,2.216,10.14,10.14,0,0,0,3.22,1.915,33.263,33.263,0,0,0,21.584-.022c2.759-1.114,4.342-2.611,4.345-4.108A2.622,2.622,0,0,0,281.773,136.3Z" transform="translate(-101.072 -54.633)"/>
              <path id="Path_9311" data-name="Path 9311" d="M267.317,124.1c-8.316,0-15.017,2.034-15.017,4.547,0,.957.957,1.795,2.513,2.513h25.068c1.615-.718,2.513-1.615,2.513-2.513,0-2.513-6.761-4.547-15.017-4.547" transform="translate(-101.353 -49.853)" fill="#ff3c1d"/>
              <path id="Path_9312" data-name="Path 9312" d="M267.317,123.8a38.648,38.648,0,0,1,10.721,1.344,11.639,11.639,0,0,1,3.317,1.488,2.649,2.649,0,0,1,1.338,2.007v.007c0,1.026-.955,2.015-2.69,2.786l-.058.026h-25.2l-.06-.028c-1.783-.823-2.687-1.76-2.687-2.784a2.578,2.578,0,0,1,1.3-2.014,11.443,11.443,0,0,1,3.3-1.488A38.536,38.536,0,0,1,267.317,123.8Zm14.778,4.85c-.029-1.06-1.57-2.129-4.23-2.933a42.824,42.824,0,0,0-21.088,0c-2.655.8-4.178,1.872-4.178,2.929,0,.524.4,1.332,2.28,2.214h24.938C281.263,130.207,282.092,129.4,282.095,128.651Z" transform="translate(-101.353 -49.853)"/>
              <path id="Path_9313" data-name="Path 9313" d="M246.7,128.713a11.906,11.906,0,0,0-1.5-23.513" transform="translate(-98.501 -42.261)" fill="#fcf7eb"/>
              <path id="Path_9314" data-name="Path 9314" d="M246.758,129.005l-.124-.585a11.607,11.607,0,0,0-1.458-22.922l.049-.6a12.2,12.2,0,0,1,1.533,24.1Z" transform="translate(-98.501 -42.261)"/>
              <path id="Path_9315" data-name="Path 9315" d="M300.265,128.713a11.906,11.906,0,0,1,1.5-23.513" transform="translate(-116.831 -42.261)" fill="#fcf7eb"/>
              <path id="Path_9316" data-name="Path 9316" d="M300.2,129.005a12.2,12.2,0,0,1,1.533-24.1l.049.6a11.607,11.607,0,0,0-1.458,22.922Z" transform="translate(-116.831 -42.261)"/>
              <path id="Path_9317" data-name="Path 9317" d="M278.521,99.31a3.41,3.41,0,1,1-3.41-3.41,3.41,3.41,0,0,1,3.41,3.41" transform="translate(-109.146 -38.525)"/>
              <path id="Path_9318" data-name="Path 9318" d="M275.11,95.6A3.709,3.709,0,1,1,271.4,99.31,3.714,3.714,0,0,1,275.11,95.6Zm0,6.82A3.111,3.111,0,1,0,272,99.31,3.115,3.115,0,0,0,275.11,102.421Z" transform="translate(-109.146 -38.525)"/>
              <path id="Path_9319" data-name="Path 9319" d="M288.054,59.106c-8.5-3.051-19.923-4.906-32.427-4.906s-23.872,1.855-32.427,4.906V86.448l3.829,1.256a22.437,22.437,0,0,0,5.684.6c8.436,0,15.316-4.966,17.53-11.367a5.8,5.8,0,0,1,10.769,0c2.214,6.4,9.094,11.367,17.53,11.367a22.5,22.5,0,0,0,5.684-.6l.778-.239,2.991-1.017Z" transform="translate(-89.663 -21.773)"/>
              <path id="Path_9320" data-name="Path 9320" d="M255.627,53.9c12.136,0,23.688,1.749,32.528,4.924l.2.071-.061,27.766-3.2,1.089-.8.244a22.841,22.841,0,0,1-5.756.606,20.155,20.155,0,0,1-11.261-3.334,16.644,16.644,0,0,1-6.545-8.228,5.5,5.5,0,0,0-10.209,0,16.644,16.644,0,0,1-6.546,8.228A20.153,20.153,0,0,1,232.716,88.6,22.77,22.77,0,0,1,226.96,88l-.024-.007L222.9,86.664V58.9l.2-.071C232,55.649,243.553,53.9,255.627,53.9Zm32.128,5.416C279,56.209,267.605,54.5,255.627,54.5c-11.918,0-23.316,1.71-32.128,4.818V86.231l3.611,1.185a22.185,22.185,0,0,0,5.6.587h.007a19.559,19.559,0,0,0,10.932-3.233,16.041,16.041,0,0,0,6.315-7.933l.005-.014a6.1,6.1,0,0,1,11.324,0l.005.014a16.041,16.041,0,0,0,6.315,7.933A19.559,19.559,0,0,0,278.541,88h.007a22.238,22.238,0,0,0,5.6-.588l.764-.235,2.785-.947Z" transform="translate(-89.663 -21.773)"/>
              <path id="Path_9321" data-name="Path 9321" d="M250.123,48.8c-17.111,0-32.128,3.53-40.623,8.735V77.218A48.7,48.7,0,0,0,221.466,82.3a22.5,22.5,0,0,0,5.684.658c8.436,0,15.316-4.966,17.53-11.367a5.8,5.8,0,0,1,10.769,0c2.214,6.4,9.094,11.367,17.53,11.367a22.5,22.5,0,0,0,5.684-.6l.778-.239a47.563,47.563,0,0,0,11.188-4.846V57.535C282.192,52.27,267.175,48.8,250,48.8" transform="translate(-84.159 -19.604)" fill="#00db96"/>
              <path id="Path_9322" data-name="Path 9322" d="M250.123,48.5a111.891,111.891,0,0,1,23.592,2.4c6.962,1.53,12.865,3.737,17.071,6.381l.14.088V77.448l-.146.087a47.885,47.885,0,0,1-11.256,4.876l-.794.244a22.837,22.837,0,0,1-5.756.606,20.154,20.154,0,0,1-11.261-3.334,16.644,16.644,0,0,1-6.546-8.228,5.5,5.5,0,0,0-10.209,0,16.643,16.643,0,0,1-6.545,8.228,20.155,20.155,0,0,1-11.264,3.334l-.276,0a22.816,22.816,0,0,1-5.48-.669l-.007,0a49.008,49.008,0,0,1-12.039-5.117l-.146-.087V57.367l.143-.088a57.242,57.242,0,0,1,17.173-6.356A111.619,111.619,0,0,1,250.123,48.5Zm40.2,9.2c-4.139-2.569-9.923-4.717-16.741-6.216a116.091,116.091,0,0,0-46.941.022A57.014,57.014,0,0,0,209.8,57.7V77.048a48.413,48.413,0,0,0,11.742,4.967,22.213,22.213,0,0,0,5.6.648,19.562,19.562,0,0,0,10.935-3.233A16.041,16.041,0,0,0,244.4,71.5l.005-.014a6.1,6.1,0,0,1,11.324,0l.005.014a16.041,16.041,0,0,0,6.315,7.933,19.559,19.559,0,0,0,10.932,3.233h.007a22.238,22.238,0,0,0,5.6-.588l.773-.238a47.29,47.29,0,0,0,10.972-4.729Z" transform="translate(-84.159 -19.604)"/>
              <path id="Path_9323" data-name="Path 9323" d="M288.205,42.435C279.77,37.17,264.813,33.7,247.761,33.7s-32.008,3.53-40.444,8.735c-4.607,2.872-4.128,6.222-4.128,9.872s-.479,6.82,3.769,9.632V51.469c8.436-5.265,23.453-8.735,40.623-8.735s32.128,3.47,40.624,8.735V62.178c4.607-2.872,4.128-6.222,4.128-9.872s.479-7-4.128-9.872" transform="translate(-81.618 -13.538)" fill="#8e0bfa"/>
              <path id="Path_9324" data-name="Path 9324" d="M247.761,33.4a111.3,111.3,0,0,1,23.517,2.4c6.939,1.529,12.847,3.735,17.085,6.38,4.333,2.737,4.3,5.913,4.274,9.277,0,.278-.005.565-.005.849,0,.315,0,.632.007.939.038,3.33.074,6.475-4.276,9.187l-.457.285V51.636a55.971,55.971,0,0,0-16.824-6.217,117.03,117.03,0,0,0-47.024,0c-6.825,1.5-12.629,3.645-16.8,6.216V62.5l-.464-.307a7.965,7.965,0,0,1-3.468-4.215,14.277,14.277,0,0,1-.444-4.664c0-.327.008-.665.008-1,0-.315,0-.632-.007-.939-.038-3.33-.074-6.475,4.276-9.187,4.259-2.628,10.166-4.826,17.085-6.358A110.739,110.739,0,0,1,247.761,33.4ZM288.5,61.626c3.605-2.459,3.573-5.209,3.537-8.374,0-.308-.007-.627-.007-.945,0-.287,0-.575.005-.854.03-3.33.056-6.207-3.994-8.764-4.18-2.609-10.023-4.788-16.9-6.3a115.287,115.287,0,0,0-46.777.022,56.017,56.017,0,0,0-16.9,6.282c-4.064,2.533-4.031,5.378-3.993,8.672,0,.308.007.627.007.945,0,.341,0,.681-.008,1.01a13.844,13.844,0,0,0,.414,4.471,7.1,7.1,0,0,0,2.765,3.579V51.3l.141-.088c4.239-2.646,10.162-4.852,17.13-6.38a112.411,112.411,0,0,1,23.651-2.4c16.665,0,31.91,3.282,40.781,8.78l.142.088Z" transform="translate(-81.618 -13.538)"/>
            </g>
            <g id="Group_4236" data-name="Group 4236" transform="translate(125.221 29.196)" clip-path="url(#clip-path-47)">
              <path id="Line_209" data-name="Line 209" d="M2.449,33.965l-4.9-3.435L20.166-1.718l4.9,3.435Z" transform="translate(38.47 -5.923)" fill="#fcf7eb"/>
              <path id="Line_210" data-name="Line 210" d="M2.449,34.026l-4.9-3.437L20.226-1.719l4.9,3.437Z" transform="translate(44.273 -0.838)" fill="#fcf7eb"/>
            </g>
            <g id="Group_4237" data-name="Group 4237" clip-path="url(#clip-path-2)">
              <path id="Path_9326" data-name="Path 9326" d="M250.123,48.5a111.891,111.891,0,0,1,23.592,2.4c6.962,1.53,12.865,3.737,17.071,6.381l.14.088V77.448l-.146.087a47.885,47.885,0,0,1-11.256,4.876l-.794.244a22.837,22.837,0,0,1-5.756.606,20.154,20.154,0,0,1-11.261-3.334,16.644,16.644,0,0,1-6.546-8.228,5.5,5.5,0,0,0-10.209,0,16.643,16.643,0,0,1-6.545,8.228,20.155,20.155,0,0,1-11.264,3.334l-.276,0a22.816,22.816,0,0,1-5.48-.669l-.007,0a49.008,49.008,0,0,1-12.039-5.117l-.146-.087V57.367l.143-.088a57.242,57.242,0,0,1,17.173-6.356A111.619,111.619,0,0,1,250.123,48.5Zm40.2,9.2c-4.139-2.569-9.923-4.717-16.741-6.216a116.091,116.091,0,0,0-46.941.022A57.014,57.014,0,0,0,209.8,57.7V77.048a48.413,48.413,0,0,0,11.742,4.967,22.213,22.213,0,0,0,5.6.648,19.562,19.562,0,0,0,10.935-3.233A16.041,16.041,0,0,0,244.4,71.5l.005-.014a6.1,6.1,0,0,1,11.324,0l.005.014a16.041,16.041,0,0,0,6.315,7.933,19.559,19.559,0,0,0,10.932,3.233h.007a22.238,22.238,0,0,0,5.6-.588l.773-.238a47.29,47.29,0,0,0,10.972-4.729Z" transform="translate(-84.159 -19.604)"/>
              <path id="Path_9327" data-name="Path 9327" d="M313.405,73.1a6.1,6.1,0,1,1-6.1-6.1,6.1,6.1,0,0,1,6.1,6.1" transform="translate(-120.997 -26.915)" fill="#fcf7eb"/>
              <path id="Path_9328" data-name="Path 9328" d="M307.3,66.7a6.4,6.4,0,1,1-6.4,6.4A6.409,6.409,0,0,1,307.3,66.7Zm0,12.205a5.8,5.8,0,1,0-5.8-5.8A5.81,5.81,0,0,0,307.3,78.906Z" transform="translate(-120.997 -26.915)"/>
              <path id="Path_9329" data-name="Path 9329" d="M312.481,74.991a3.291,3.291,0,1,1-3.291-3.291,3.291,3.291,0,0,1,3.291,3.291" transform="translate(-122.885 -28.803)"/>
              <path id="Path_9330" data-name="Path 9330" d="M309.191,71.4a3.59,3.59,0,1,1-3.59,3.59A3.594,3.594,0,0,1,309.191,71.4Zm0,6.581a2.991,2.991,0,1,0-2.991-2.991A2.995,2.995,0,0,0,309.191,77.982Z" transform="translate(-122.885 -28.803)"/>
              <path id="Path_9331" data-name="Path 9331" d="M251.205,73.1a6.1,6.1,0,1,1-6.1-6.1,6.1,6.1,0,0,1,6.1,6.1" transform="translate(-96.01 -26.915)" fill="#fcf7eb"/>
              <path id="Ellipse_383" data-name="Ellipse 383" d="M6.1-.3A6.4,6.4,0,1,1-.3,6.1,6.409,6.409,0,0,1,6.1-.3Zm0,12.2A5.8,5.8,0,1,0,.3,6.1,5.81,5.81,0,0,0,6.1,11.906Z" transform="translate(141.171 49.497) rotate(-67.5)"/>
              <path id="Path_9332" data-name="Path 9332" d="M250.281,74.991a3.291,3.291,0,1,1-3.291-3.291,3.291,3.291,0,0,1,3.291,3.291" transform="translate(-97.898 -28.803)"/>
              <path id="Path_9333" data-name="Path 9333" d="M246.991,71.4a3.59,3.59,0,1,1-3.59,3.59A3.594,3.594,0,0,1,246.991,71.4Zm0,6.581A2.991,2.991,0,1,0,244,74.991,2.995,2.995,0,0,0,246.991,77.982Z" transform="translate(-97.898 -28.803)"/>
              <path id="Path_9334" data-name="Path 9334" d="M250.123,48.8c-17.111,0-32.128,3.53-40.623,8.735v4.008c8.436-5.265,23.453-8.735,40.623-8.735s32.128,3.47,40.624,8.735V57.535c-8.436-5.265-23.453-8.735-40.624-8.735" transform="translate(-84.159 -19.604)"/>
              <path id="Path_9335" data-name="Path 9335" d="M250.123,48.5a112.181,112.181,0,0,1,23.607,2.4c6.967,1.528,12.906,3.734,17.174,6.38l.142.088v4.712l-.457-.283c-4.216-2.613-10.082-4.792-16.965-6.3a117.03,117.03,0,0,0-47.024,0c-6.9,1.514-12.76,3.694-16.942,6.3l-.458.286V57.367l.143-.088a57.242,57.242,0,0,1,17.173-6.356A111.619,111.619,0,0,1,250.123,48.5Zm40.324,9.2A56.028,56.028,0,0,0,273.6,51.485a116.164,116.164,0,0,0-46.957.022A57.014,57.014,0,0,0,209.8,57.7V61.01a56.783,56.783,0,0,1,16.673-6.1,112.411,112.411,0,0,1,23.651-2.4c16.382,0,31.393,3.172,40.324,8.5Z" transform="translate(-84.159 -19.604)"/>
              <path id="Path_9336" data-name="Path 9336" d="M238.2,22.052a2.992,2.992,0,0,1-1.6-5.523,47.5,47.5,0,0,1,22.606-7.216,2.991,2.991,0,0,1,.334,5.974,41.5,41.5,0,0,0-19.752,6.305A2.978,2.978,0,0,1,238.2,22.052Z" transform="translate(-95.689 -4.941)" fill="#fcf7eb"/>
              <path id="Path_9337" data-name="Path 9337" d="M283.189,266.6c5.8,23.154,16.453,41.76,26.983,49.059,5.8-11.427,6.461-32.846.658-56S294.377,217.9,283.847,210.6c-5.8,11.427-6.461,32.846-.658,56" transform="translate(-112.14 -84.601)"/>
              <path id="Path_9338" data-name="Path 9338" d="M310.283,316.1l-.282-.2c-5.284-3.663-10.594-10.124-15.355-18.685a134.682,134.682,0,0,1-15.78-63.023c.166-9.781,1.8-17.988,4.714-23.733l.155-.306.282.2c5.284,3.663,10.594,10.124,15.355,18.685a134.68,134.68,0,0,1,15.78,63.023c-.166,9.781-1.8,17.988-4.714,23.733ZM283.959,211.044c-2.78,5.649-4.333,13.647-4.495,23.163a134.087,134.087,0,0,0,15.7,62.722c4.632,8.328,9.774,14.641,14.89,18.285,2.78-5.649,4.333-13.647,4.495-23.163a134.086,134.086,0,0,0-15.7-62.722C294.218,221,289.076,214.689,283.959,211.044Z" transform="translate(-112.14 -84.601)"/>
              <path id="Path_9339" data-name="Path 9339" d="M252.017,191.77a111.924,111.924,0,0,0-12.085-4.846,1.974,1.974,0,0,0-2.633,1.915v1.795a7.18,7.18,0,0,0,2.991,5.8c5.145,3.709,12.624,6.043,21,6.043a43.025,43.025,0,0,0,7.9-.718,102.431,102.431,0,0,0-17.111-9.932" transform="translate(-95.327 -75.045)"/>
              <path id="Path_9340" data-name="Path 9340" d="M239.273,186.512h0a2.268,2.268,0,0,1,.756.129,112.659,112.659,0,0,1,12.115,4.858,102.959,102.959,0,0,1,17.218,10.019l.569.409-.689.127a43.436,43.436,0,0,1-7.882.723h-.07a41.79,41.79,0,0,1-11.8-1.643,30.85,30.85,0,0,1-9.379-4.457A7.5,7.5,0,0,1,237,190.635v-1.792a2.274,2.274,0,0,1,2.273-2.331Zm29.161,15.079a102.38,102.38,0,0,0-16.542-9.549,112.065,112.065,0,0,0-12.056-4.834l0,0a1.675,1.675,0,0,0-2.234,1.624v1.8a6.9,6.9,0,0,0,2.867,5.56,30.256,30.256,0,0,0,9.2,4.368,41.193,41.193,0,0,0,11.627,1.618h.07A42.85,42.85,0,0,0,268.435,201.591Z" transform="translate(-95.327 -75.045)"/>
              <path id="Path_9341" data-name="Path 9341" d="M284.589,257.3c5.8,23.154,16.453,41.76,26.983,49.059,5.8-11.427,6.461-32.846.658-56S295.777,208.6,285.247,201.3c-5.8,11.427-6.461,32.846-.658,56" transform="translate(-112.702 -80.865)" fill="#8e0bfa"/>
              <path id="Path_9342" data-name="Path 9342" d="M311.683,306.8l-.282-.2c-5.284-3.663-10.594-10.124-15.355-18.685a134.682,134.682,0,0,1-15.78-63.023c.166-9.781,1.8-17.988,4.714-23.733l.155-.306.282.2c5.284,3.663,10.594,10.124,15.355,18.685a134.68,134.68,0,0,1,15.78,63.023c-.166,9.781-1.8,17.988-4.714,23.733ZM285.359,201.744c-2.78,5.649-4.333,13.647-4.495,23.163a134.087,134.087,0,0,0,15.7,62.722c4.632,8.328,9.774,14.641,14.89,18.285,2.78-5.649,4.333-13.647,4.495-23.163a134.085,134.085,0,0,0-15.7-62.722C295.618,211.7,290.476,205.389,285.359,201.744Z" transform="translate(-112.702 -80.865)"/>
              <path id="Path_9343" data-name="Path 9343" d="M299.735,251.7c9.991,15.5,22.376,26.444,31.888,29.137,1.436-9.812-3.41-25.607-13.4-41.1s-22.376-26.444-31.889-29.136c-1.436,9.812,3.41,25.607,13.4,41.1" transform="translate(-114.925 -84.601)"/>
              <path id="Path_9344" data-name="Path 9344" d="M331.87,281.219l-.328-.093c-4.781-1.353-10.274-4.753-15.884-9.833a104.2,104.2,0,0,1-27.194-42.182c-2.31-7.2-3.149-13.618-2.427-18.554l.049-.337.328.093c4.781,1.353,10.274,4.753,15.884,9.833a104.194,104.194,0,0,1,27.194,42.182c2.31,7.2,3.149,13.618,2.427,18.554Zm-45.288-70.235c-.622,4.8.223,10.994,2.452,17.944A103.6,103.6,0,0,0,316.06,270.85c5.413,4.9,10.7,8.215,15.315,9.6.623-4.8-.222-10.994-2.451-17.944A103.6,103.6,0,0,0,301.9,220.589C296.485,215.688,291.2,212.374,286.583,210.984Z" transform="translate(-114.925 -84.601)"/>
              <path id="Path_9345" data-name="Path 9345" d="M301.035,242.4c9.991,15.5,22.376,26.444,31.888,29.137,1.436-9.812-3.41-25.607-13.4-41.1s-22.376-26.444-31.888-29.136c-1.436,9.812,3.41,25.607,13.4,41.1" transform="translate(-115.447 -80.865)" fill="#8e0bfa"/>
              <path id="Path_9346" data-name="Path 9346" d="M333.17,271.919l-.328-.093c-4.781-1.353-10.274-4.753-15.884-9.833a104.2,104.2,0,0,1-27.194-42.182c-2.31-7.2-3.149-13.618-2.427-18.554l.049-.337.328.093c4.781,1.353,10.274,4.753,15.884,9.833a104.2,104.2,0,0,1,27.194,42.182c2.31,7.2,3.149,13.618,2.427,18.554Zm-45.288-70.235c-.623,4.8.222,10.994,2.451,17.944A103.6,103.6,0,0,0,317.36,261.55c5.413,4.9,10.7,8.215,15.315,9.6.623-4.8-.222-10.994-2.451-17.944A103.6,103.6,0,0,0,303.2,211.289C297.785,206.388,292.5,203.074,287.883,201.684Z" transform="translate(-115.447 -80.865)"/>
              <path id="Path_9347" data-name="Path 9347" d="M305.569,189.312a2.034,2.034,0,0,0-3.051-1.795l-.957.538c-7.12,4.128-12.205,9.513-13.761,14.12a33.52,33.52,0,0,0,15.256-5.983,6.461,6.461,0,0,0,2.513-5.145Z" transform="translate(-115.614 -75.219)"/>
              <path id="Path_9348" data-name="Path 9348" d="M303.535,186.945h0a2.333,2.333,0,0,1,2.333,2.372v1.73a6.8,6.8,0,0,1-2.629,5.382,33.713,33.713,0,0,1-15.4,6.042l-.483.071.156-.463a20.645,20.645,0,0,1,4.862-7.351,41.941,41.941,0,0,1,9.032-6.931l.961-.54A2.333,2.333,0,0,1,303.535,186.945ZM288.253,201.8a32.874,32.874,0,0,0,14.623-5.85,6.2,6.2,0,0,0,2.394-4.9v-1.736a1.735,1.735,0,0,0-1.735-1.768h0a1.737,1.737,0,0,0-.868.233l-.96.54a41.329,41.329,0,0,0-8.9,6.827A20.827,20.827,0,0,0,288.253,201.8Z" transform="translate(-115.614 -75.219)"/>
              <path id="Path_9349" data-name="Path 9349" d="M305.669,185.112a2.034,2.034,0,0,0-3.051-1.795l-.957.538c-7.12,4.128-12.205,9.513-13.761,14.12a33.522,33.522,0,0,0,15.256-5.983,6.462,6.462,0,0,0,2.513-5.145Z" transform="translate(-115.654 -73.532)" fill="#8e0bfa"/>
              <path id="Path_9350" data-name="Path 9350" d="M303.635,182.745h0a2.333,2.333,0,0,1,2.333,2.372v1.73a6.8,6.8,0,0,1-2.629,5.382,33.716,33.716,0,0,1-15.4,6.042l-.483.071.156-.463a20.645,20.645,0,0,1,4.862-7.351,41.942,41.942,0,0,1,9.032-6.931l.961-.54A2.333,2.333,0,0,1,303.635,182.745ZM288.353,197.6a32.876,32.876,0,0,0,14.624-5.85,6.2,6.2,0,0,0,2.394-4.905v-1.736a1.735,1.735,0,0,0-1.735-1.768h0a1.737,1.737,0,0,0-.868.233l-.96.54a41.329,41.329,0,0,0-8.9,6.827A20.827,20.827,0,0,0,288.353,197.6Z" transform="translate(-115.654 -73.532)"/>
              <path id="Path_9351" data-name="Path 9351" d="M252.017,187.57a111.877,111.877,0,0,0-12.085-4.846,1.974,1.974,0,0,0-2.633,1.915v1.795a7.18,7.18,0,0,0,2.991,5.8c5.145,3.709,12.624,6.043,21,6.043a43.076,43.076,0,0,0,7.9-.718,102.373,102.373,0,0,0-17.111-9.931" transform="translate(-95.327 -73.358)" fill="#8e0bfa"/>
              <path id="Path_9352" data-name="Path 9352" d="M239.273,182.312a2.267,2.267,0,0,1,.756.13,112.6,112.6,0,0,1,12.115,4.858,102.9,102.9,0,0,1,17.218,10.019l.569.41-.689.127a43.488,43.488,0,0,1-7.887.723h-.065a41.79,41.79,0,0,1-11.8-1.643,30.85,30.85,0,0,1-9.379-4.457A7.5,7.5,0,0,1,237,186.435v-1.792a2.274,2.274,0,0,1,2.273-2.331Zm29.161,15.079a102.319,102.319,0,0,0-16.542-9.548,112.019,112.019,0,0,0-12.056-4.834l0,0a1.675,1.675,0,0,0-2.234,1.624v1.8a6.9,6.9,0,0,0,2.867,5.56,30.256,30.256,0,0,0,9.2,4.368,41.193,41.193,0,0,0,11.627,1.618h.065A42.9,42.9,0,0,0,268.435,197.39Z" transform="translate(-95.327 -73.358)"/>
              <path id="Path_9353" data-name="Path 9353" d="M291.522,206.15c.538,2.034-1.735,4.367-5.085,5.205s-6.4-.12-6.88-2.154,1.735-4.367,5.085-5.205,6.4.12,6.88,2.154" transform="translate(-112.276 -81.827)"/>
              <path id="Path_9354" data-name="Path 9354" d="M286.96,203.408c2.5,0,4.408,1.048,4.85,2.669a3.069,3.069,0,0,1-.408,2.372,7.871,7.871,0,0,1-4.893,3.2,10.128,10.128,0,0,1-2.451.312c-2.527,0-4.409-1.055-4.793-2.687a3.626,3.626,0,0,1,1.183-3.328,8.7,8.7,0,0,1,4.121-2.236A9.881,9.881,0,0,1,286.96,203.408Zm-2.9,7.957a9.531,9.531,0,0,0,2.306-.294,7.379,7.379,0,0,0,4.523-2.926,2.486,2.486,0,0,0,.345-1.912,2.659,2.659,0,0,0-1.414-1.6,6.134,6.134,0,0,0-2.859-.626,9.283,9.283,0,0,0-2.246.286c-3.128.782-5.311,2.956-4.867,4.846C280.166,210.491,281.819,211.365,284.058,211.365Z" transform="translate(-112.276 -81.832)"/>
              <path id="Path_9355" data-name="Path 9355" d="M291.522,202.05c.538,2.034-1.735,4.367-5.085,5.205s-6.4-.12-6.88-2.154,1.735-4.368,5.085-5.205,6.4.12,6.88,2.154" transform="translate(-112.276 -80.18)" fill="#8e0bfa"/>
              <path id="Path_9356" data-name="Path 9356" d="M287.021,199.294c2.525,0,4.406,1.053,4.792,2.684a3.069,3.069,0,0,1-.41,2.365,7.871,7.871,0,0,1-4.893,3.2,10.13,10.13,0,0,1-2.451.312c-2.527,0-4.409-1.055-4.793-2.687a3.626,3.626,0,0,1,1.183-3.328,8.7,8.7,0,0,1,4.121-2.236A10.13,10.13,0,0,1,287.021,199.294Zm-2.962,7.965a9.532,9.532,0,0,0,2.306-.294,7.379,7.379,0,0,0,4.523-2.926,2.486,2.486,0,0,0,.345-1.912l0-.008c-.318-1.352-1.971-2.226-4.21-2.226a9.532,9.532,0,0,0-2.306.294c-3.128.782-5.311,2.956-4.867,4.846C280.166,206.385,281.819,207.259,284.058,207.259Z" transform="translate(-112.276 -80.18)"/>
            </g>
          </g>
        </g>
      </g>
    </g>
  </g>
</svg>
