<svg xmlns="http://www.w3.org/2000/svg" xmlns:xlink="http://www.w3.org/1999/xlink" width="47.459" height="45.406" viewBox="0 0 47.459 45.406">
  <defs>
    <clipPath id="clip-path">
      <rect id="Rectangle_130514" data-name="Rectangle 130514" width="47.459" height="45.406" fill="none"/>
    </clipPath>
  </defs>
  <g id="Artwork_44" data-name="Artwork 44" transform="translate(23.729 22.703)">
    <g id="Group_12009" data-name="Group 12009" transform="translate(-23.729 -22.703)" clip-path="url(#clip-path)">
      <path id="Path_55274" data-name="Path 55274" d="M78.114.5H75.3l2.538,25.164L75.3,23.126V37.308h2.814a2.814,2.814,0,0,0,2.814-2.814V3.314A2.814,2.814,0,0,0,78.114.5" transform="translate(-33.746 -0.224)"/>
      <path id="Path_55275" data-name="Path 55275" d="M78.114.5H75.3l2.538,25.164L75.3,23.126V37.308h2.814a2.814,2.814,0,0,0,2.814-2.814V3.314A2.814,2.814,0,0,0,78.114.5Z" transform="translate(-33.746 -0.224)" fill="none" stroke="#000" stroke-miterlimit="10" stroke-width="0.552"/>
      <path id="Path_55276" data-name="Path 55276" d="M38.109,67.2l-7.947,2.87-.276,1.049a3.973,3.973,0,0,1-3.587,2.7v.717H42.69Z" transform="translate(-11.786 -30.116)" fill="#ff3c1d"/>
      <path id="Path_55277" data-name="Path 55277" d="M38.109,67.2l-7.947,2.87-.276,1.049a3.973,3.973,0,0,1-3.587,2.7v.717H42.69Z" transform="translate(-11.786 -30.116)" fill="none" stroke="#000" stroke-miterlimit="10" stroke-width="0.552"/>
      <path id="Path_55278" data-name="Path 55278" d="M44.292,68.833l-1.1-3.863-4.58-2.87-4.58,2.814L33.2,67.729h8l.276,1.049a3.973,3.973,0,0,0,3.587,2.7L46.5,72.2l1.435-.717a3.973,3.973,0,0,1-3.587-2.7" transform="translate(-14.879 -27.83)"/>
      <path id="Path_55279" data-name="Path 55279" d="M44.292,68.833l-1.1-3.863-4.58-2.87-4.58,2.814L33.2,67.729h8l.276,1.049a3.973,3.973,0,0,0,3.587,2.7L46.5,72.2l1.435-.717a3.973,3.973,0,0,1-3.642-2.649Z" transform="translate(-14.879 -27.83)" fill="none" stroke="#000" stroke-miterlimit="10" stroke-width="0.552"/>
      <path id="Path_55280" data-name="Path 55280" d="M.5,48.3a2.814,2.814,0,0,0,2.814,2.814H41.778A2.814,2.814,0,0,0,44.592,48.3v-17L.5,42.613Z" transform="translate(-0.224 -14.027)" fill="#ff3c1d"/>
      <path id="Path_55281" data-name="Path 55281" d="M.5,48.3a2.814,2.814,0,0,0,2.814,2.814H41.778A2.814,2.814,0,0,0,44.592,48.3v-17L.5,42.613Z" transform="translate(-0.224 -14.027)" fill="none" stroke="#000" stroke-miterlimit="10" stroke-width="0.552"/>
      <path id="Path_55282" data-name="Path 55282" d="M44.592,3.314A2.814,2.814,0,0,0,41.778.5H3.314A2.814,2.814,0,0,0,.5,3.314v25.5H44.592V26L23.953,14.682Z" transform="translate(-0.224 -0.224)" fill="#8e0bfa"/>
      <path id="Path_55283" data-name="Path 55283" d="M44.592,3.314A2.814,2.814,0,0,0,41.778.5H3.314A2.814,2.814,0,0,0,.5,3.314v25.5H44.592V26L23.953,14.682Z" transform="translate(-0.224 -0.224)" fill="none" stroke="#000" stroke-miterlimit="10" stroke-width="0.552"/>
      <path id="Path_55284" data-name="Path 55284" d="M46.878,5.6H5.6V28.281H46.878V5.6" transform="translate(-2.51 -2.51)" fill="#00db96"/>
      <path id="Path_55285" data-name="Path 55285" d="M46.878,5.6H5.6V28.281H46.878Z" transform="translate(-2.51 -2.51)" fill="none" stroke="#000" stroke-miterlimit="10" stroke-width="0.552"/>
      <path id="Path_55286" data-name="Path 55286" d="M41.835,57A1.435,1.435,0,1,1,40.4,58.435,1.435,1.435,0,0,1,41.835,57" transform="translate(-18.105 -25.545)"/>
      <path id="Path_55287" data-name="Path 55287" d="M41.835,57A1.435,1.435,0,1,1,40.4,58.435,1.435,1.435,0,0,1,41.835,57Z" transform="translate(-18.105 -25.545)" fill="none" stroke="#000" stroke-miterlimit="10" stroke-width="0.552"/>
      <path id="Path_55288" data-name="Path 55288" d="M45.165,80.635H15.917a.717.717,0,0,1,0-1.435H45.165a.717.717,0,0,1,0,1.435" transform="translate(-6.812 -35.494)"/>
      <path id="Path_55289" data-name="Path 55289" d="M45.165,80.635H15.917a.717.717,0,0,1,0-1.435H45.165a.717.717,0,0,1,0,1.435Z" transform="translate(-6.812 -35.494)" fill="none" stroke="#000" stroke-miterlimit="10" stroke-width="0.552"/>
      <path id="Path_55290" data-name="Path 55290" d="M42.475,23.085l-.11.166L26.14,12.379l.11-.166a1.49,1.49,0,1,0-2.594-.221,1.49,1.49,0,1,0,1.159,2.373l.11-.166L41.205,25.071l-.11.166a1.49,1.49,0,1,0,2.594.221,1.49,1.49,0,1,0-1.214-2.373" transform="translate(-9.916 -4.432)" fill="#fdfb76"/>
      <path id="Path_55291" data-name="Path 55291" d="M42.475,23.085l-.11.166L26.14,12.379l.11-.166a1.49,1.49,0,1,0-2.594-.221,1.49,1.49,0,1,0,1.159,2.373l.11-.166L41.205,25.071l-.11.166a1.49,1.49,0,1,0,2.594.221,1.49,1.49,0,1,0-1.214-2.373Z" transform="translate(-9.916 -4.432)" fill="none" stroke="#000" stroke-miterlimit="10" stroke-width="0.552"/>
      <path id="Path_55292" data-name="Path 55292" d="M24.816,23.085l.11.166L41.205,12.379l-.11-.166a1.49,1.49,0,1,1,2.594-.221,1.49,1.49,0,1,1-1.214,2.373l-.11-.166L26.14,25.071l.11.166a1.49,1.49,0,1,1-2.594.221,1.49,1.49,0,1,1,1.159-2.373" transform="translate(-9.916 -4.432)" fill="#fdfb76"/>
      <path id="Path_55293" data-name="Path 55293" d="M24.816,23.085l.11.166L41.205,12.379l-.11-.166a1.49,1.49,0,1,1,2.594-.221,1.49,1.49,0,1,1-1.214,2.373l-.11-.166L26.14,25.071l.11.166a1.49,1.49,0,1,1-2.594.221,1.49,1.49,0,1,1,1.159-2.373Z" transform="translate(-9.916 -4.432)" fill="none" stroke="#000" stroke-miterlimit="10" stroke-width="0.552"/>
      <path id="Path_55294" data-name="Path 55294" d="M44.023,19.7a6.512,6.512,0,1,0-9.768,5.629v1.6A1.049,1.049,0,0,0,35.3,27.98h4.415a1.049,1.049,0,0,0,1.049-1.049v-1.6a6.512,6.512,0,0,0,3.311-5.684" transform="translate(-13.892 -5.907)" fill="#fcf7eb"/>
      <path id="Path_55295" data-name="Path 55295" d="M44.023,19.7a6.512,6.512,0,1,0-9.768,5.629v1.6A1.049,1.049,0,0,0,35.3,27.98h4.415a1.049,1.049,0,0,0,1.049-1.049v-1.6A6.512,6.512,0,0,0,44.023,19.7Z" transform="translate(-13.892 -5.907)" fill="none" stroke="#000" stroke-miterlimit="10" stroke-width="0.552"/>
      <path id="Path_55296" data-name="Path 55296" d="M42.317,13.1H41.6a6.512,6.512,0,0,1,2.814,11.975.552.552,0,0,0-.276.5v1.269a1.049,1.049,0,0,1-1.049,1.1h1.38A1.049,1.049,0,0,0,45.518,26.9V25.3a6.512,6.512,0,0,0-3.2-12.2" transform="translate(-18.643 -5.871)"/>
      <path id="Path_55297" data-name="Path 55297" d="M35.29,24.6a1.711,1.711,0,1,1-.505,1.214A1.711,1.711,0,0,1,35.29,24.6" transform="translate(-15.589 -10.801)"/>
      <path id="Path_55298" data-name="Path 55298" d="M45.526,24.3a1.711,1.711,0,1,1-.946.934,1.711,1.711,0,0,1,.946-.934" transform="translate(-19.92 -10.836)"/>
      <path id="Path_55299" data-name="Path 55299" d="M41.63,31.814l-.221-.11a.331.331,0,0,1,0-.5l.5-.5.221-.11h0l.221.11.5.5a.351.351,0,0,1-.5.5l-.276-.276L41.8,31.7l-.221.11" transform="translate(-18.507 -13.714)"/>
      <path id="Path_55300" data-name="Path 55300" d="M39.917,38.633V37.309a.359.359,0,0,0-.717,0v1.324Z" transform="translate(-17.568 -16.559)"/>
      <path id="Path_55301" data-name="Path 55301" d="M45.431,37a.331.331,0,0,0-.331.331v1.324h.717V37.331A.331.331,0,0,0,45.486,37" transform="translate(-20.212 -16.582)"/>
      <path id="Path_55302" data-name="Path 55302" d="M42.817,37.309a.359.359,0,0,0-.717,0v1.324h.717Z" transform="translate(-18.867 -16.559)"/>
    </g>
  </g>
</svg>
