<svg xmlns="http://www.w3.org/2000/svg" xmlns:xlink="http://www.w3.org/1999/xlink" width="55.833" height="46.006" viewBox="0 0 55.833 46.006">
  <defs>
    <clipPath id="clip-path">
      <rect id="Rectangle_128210" data-name="Rectangle 128210" width="50.012" height="37.897" fill="none"/>
    </clipPath>
  </defs>
  <g id="Artwork_43" data-name="Artwork 43" transform="matrix(0.985, -0.174, 0.174, 0.985, 0, 8.685)">
    <g id="Group_7181" data-name="Group 7181">
      <g id="Group_7180" data-name="Group 7180" clip-path="url(#clip-path)">
        <g id="Group_7179" data-name="Group 7179" transform="translate(0 0)">
          <g id="Group_7178" data-name="Group 7178" clip-path="url(#clip-path)">
            <path id="Path_40783" data-name="Path 40783" d="M2.5,19.1a8.545,8.545,0,0,1,0-12.072L7.028,2.5A8.536,8.536,0,0,1,19.1,14.567L14.567,19.1A8.546,8.546,0,0,1,2.5,19.1M16.226,5.37a4.475,4.475,0,0,0-6.323,0L5.371,9.9a4.471,4.471,0,0,0,6.323,6.323l4.532-4.532a4.476,4.476,0,0,0,0-6.323" transform="translate(0.29 16.011)" fill="#1fb384"/>
            <path id="Path_40784" data-name="Path 40784" d="M2.5,19.1a8.545,8.545,0,0,1,0-12.072L7.028,2.5A8.536,8.536,0,0,1,19.1,14.567L14.567,19.1A8.546,8.546,0,0,1,2.5,19.1ZM16.226,5.37a4.475,4.475,0,0,0-6.323,0L5.371,9.9a4.471,4.471,0,0,0,6.323,6.323l4.532-4.532A4.476,4.476,0,0,0,16.226,5.37Z" transform="translate(0.29 16.011)" fill="none" stroke="#000" stroke-miterlimit="10" stroke-width="1"/>
            <path id="Path_40785" data-name="Path 40785" d="M.292,12.4A8.546,8.546,0,0,1,6.328,1.95L12.519.292a8.535,8.535,0,1,1,4.418,16.489L10.746,18.44A8.546,8.546,0,0,1,.292,12.4M19.046,7.379a4.476,4.476,0,0,0-5.476-3.161L7.38,5.877a4.471,4.471,0,0,0,2.314,8.638l6.192-1.659a4.476,4.476,0,0,0,3.161-5.476" transform="translate(26.456 1.251)" fill="#1fb384"/>
            <path id="Path_40786" data-name="Path 40786" d="M.292,12.4A8.546,8.546,0,0,1,6.328,1.95L12.519.292a8.535,8.535,0,1,1,4.418,16.489L10.746,18.44A8.546,8.546,0,0,1,.292,12.4ZM19.046,7.379a4.476,4.476,0,0,0-5.476-3.161L7.38,5.877a4.471,4.471,0,0,0,2.314,8.638l6.192-1.659A4.476,4.476,0,0,0,19.046,7.379Z" transform="translate(26.456 1.251)" fill="none" stroke="#000" stroke-miterlimit="10" stroke-width="1"/>
            <path id="Path_40787" data-name="Path 40787" d="M4.28,9.3a1,1,0,0,0,1.773-.944L1.892.533a1,1,0,0,0-1.774.944Z" transform="translate(14.111 0)"/>
            <path id="Path_40788" data-name="Path 40788" d="M.927,5.906c.026,0,.053,0,.079,0a1,1,0,0,0,1-.927l.3-3.9a1,1,0,1,0-2-.156L0,4.827A1,1,0,0,0,.927,5.906" transform="translate(22.742 0.81)"/>
            <path id="Path_40789" data-name="Path 40789" d="M.817,1.992l3.6.686A1,1,0,0,0,4.792.7L1.193.018A1,1,0,0,0,.817,1.992" transform="translate(11.135 10.179)"/>
            <path id="Path_40790" data-name="Path 40790" d="M1.954,12.695a4.476,4.476,0,0,1,.532-5.676L7.019,2.487A4.476,4.476,0,0,1,12.7,1.954,4.459,4.459,0,0,0,5.84,1.307L1.307,5.839a4.459,4.459,0,0,0,.647,6.855" transform="translate(3.174 18.894)"/>
            <path id="Path_40791" data-name="Path 40791" d="M1.954,12.695a4.476,4.476,0,0,1,.532-5.676L7.019,2.487A4.476,4.476,0,0,1,12.7,1.954,4.459,4.459,0,0,0,5.84,1.307L1.307,5.839a4.459,4.459,0,0,0,.647,6.855Z" transform="translate(3.174 18.894)" fill="none" stroke="#000" stroke-miterlimit="10" stroke-width="1"/>
            <path id="Path_40792" data-name="Path 40792" d="M17.163.56c-.2-.2-.406-.385-.62-.56a8.548,8.548,0,0,1-.559,11.453l-4.532,4.532A8.547,8.547,0,0,1,0,16.544c.175.213.36.42.56.619a8.545,8.545,0,0,0,12.071,0l4.532-4.531a8.545,8.545,0,0,0,0-12.072" transform="translate(2.227 17.947)"/>
            <path id="Path_40793" data-name="Path 40793" d="M17.163.56c-.2-.2-.406-.385-.62-.56a8.548,8.548,0,0,1-.559,11.453l-4.532,4.532A8.547,8.547,0,0,1,0,16.544c.175.213.36.42.56.619a8.545,8.545,0,0,0,12.071,0l4.532-4.531A8.545,8.545,0,0,0,17.163.56Z" transform="translate(2.227 17.947)" fill="none" stroke="#000" stroke-miterlimit="10" stroke-width="1"/>
            <path id="Path_40794" data-name="Path 40794" d="M1.957,9.82a4.461,4.461,0,0,1,2.537-6.83l6.192-1.659a4.456,4.456,0,0,1,3.671.629A4.475,4.475,0,0,0,9.505.152L3.315,1.811A4.465,4.465,0,0,0,1.957,9.82" transform="translate(29.343 4.137)"/>
            <path id="Path_40795" data-name="Path 40795" d="M1.957,9.82a4.461,4.461,0,0,1,2.537-6.83l6.192-1.659a4.456,4.456,0,0,1,3.671.629A4.475,4.475,0,0,0,9.505.152L3.315,1.811A4.465,4.465,0,0,0,1.957,9.82Z" transform="translate(29.343 4.137)" fill="none" stroke="#000" stroke-miterlimit="10" stroke-width="1"/>
            <path id="Path_40796" data-name="Path 40796" d="M21.036,4.37A8.479,8.479,0,0,0,18.213,0a8.52,8.52,0,0,1-4.391,13.645L7.63,15.3A8.525,8.525,0,0,1,0,13.638a8.541,8.541,0,0,0,8.81,2.845L15,14.824A8.545,8.545,0,0,0,21.036,4.37" transform="translate(28.393 3.208)"/>
            <path id="Path_40797" data-name="Path 40797" d="M21.036,4.37A8.479,8.479,0,0,0,18.213,0a8.52,8.52,0,0,1-4.391,13.645L7.63,15.3A8.525,8.525,0,0,1,0,13.638a8.541,8.541,0,0,0,8.81,2.845L15,14.824A8.545,8.545,0,0,0,21.036,4.37Z" transform="translate(28.393 3.208)" fill="none" stroke="#000" stroke-miterlimit="10" stroke-width="1"/>
            <path id="Path_40798" data-name="Path 40798" d="M8.314,0H6.351L.6,5.756A2.032,2.032,0,0,0,3.47,8.63l6.582-6.582H8.314Z" transform="translate(12.479 16.159)" fill="#f2f876"/>
            <path id="Path_40799" data-name="Path 40799" d="M8.314,0H6.351L.6,5.756A2.032,2.032,0,0,0,3.47,8.63l6.582-6.582H8.314Z" transform="translate(12.479 16.159)" fill="none" stroke="#000" stroke-miterlimit="10" stroke-width="1"/>
            <path id="Path_40800" data-name="Path 40800" d="M10.839,1.507A2.032,2.032,0,0,0,8.35.07L0,2.307l1.7.981L.675,5.063l1.5.868L9.4,4a2.032,2.032,0,0,0,1.437-2.489" transform="translate(24.507 9.819)" fill="#f2f876"/>
            <path id="Path_40801" data-name="Path 40801" d="M10.839,1.507A2.032,2.032,0,0,0,8.35.07L0,2.307l1.7.981L.675,5.063l1.5.868L9.4,4A2.032,2.032,0,0,0,10.839,1.507Z" transform="translate(24.507 9.819)" fill="none" stroke="#000" stroke-miterlimit="10" stroke-width="1"/>
            <path id="Path_40802" data-name="Path 40802" d="M8.178.621V0L2.155,6.024A2.03,2.03,0,0,1,0,6.484,2.01,2.01,0,0,0,.46,7.2a2.032,2.032,0,0,0,2.874,0L9.916.621Z" transform="translate(12.614 17.586)"/>
            <path id="Path_40803" data-name="Path 40803" d="M8.178.621V0L2.155,6.024A2.03,2.03,0,0,1,0,6.484,2.01,2.01,0,0,0,.46,7.2a2.032,2.032,0,0,0,2.874,0L9.916.621Z" transform="translate(12.614 17.586)" fill="none" stroke="#000" stroke-linejoin="round" stroke-width="1"/>
            <path id="Path_40804" data-name="Path 40804" d="M10.164,1.374A2.027,2.027,0,0,0,8.911,0a2.005,2.005,0,0,1,.074.195A2.033,2.033,0,0,1,7.548,2.684L.17,4.634,0,4.929,1.5,5.8,8.727,3.863a2.032,2.032,0,0,0,1.437-2.49" transform="translate(25.183 9.953)"/>
            <path id="Path_40805" data-name="Path 40805" d="M10.164,1.374A2.027,2.027,0,0,0,8.911,0a2.005,2.005,0,0,1,.074.195A2.033,2.033,0,0,1,7.548,2.684L.17,4.634,0,4.929,1.5,5.8,8.727,3.863A2.032,2.032,0,0,0,10.164,1.374Z" transform="translate(25.183 9.953)" fill="none" stroke="#000" stroke-linejoin="round" stroke-width="1"/>
          </g>
        </g>
      </g>
    </g>
  </g>
</svg>
