<svg xmlns="http://www.w3.org/2000/svg" xmlns:xlink="http://www.w3.org/1999/xlink" width="404.4" height="259.402" viewBox="0 0 404.4 259.402">
  <defs>
    <clipPath id="clip-path">
      <rect id="Rectangle_120588" data-name="Rectangle 120588" width="402" height="257.003" fill="#8e0bfa" stroke="#000" stroke-width="1.2"/>
    </clipPath>
    <clipPath id="clip-path-2">
      <rect id="Rectangle_131402" data-name="Rectangle 131402" width="404.452" height="299.755" fill="none"/>
    </clipPath>
    <clipPath id="clip-path-3">
      <path id="Path_60706" data-name="Path 60706" d="M355.6,308.654l1.3,22.8,27.662-1.575a8.148,8.148,0,0,0,7.669-8.627L391.41,306.6Z" transform="translate(-355.6 -306.6)" fill="none"/>
    </clipPath>
    <clipPath id="clip-path-5">
      <path id="Path_60737" data-name="Path 60737" d="M181.595,321.221a8.148,8.148,0,0,0,7.669,8.559l27.662,1.575,1.3-22.8-35.81-2.054Z" transform="translate(-181.584 -306.5)" fill="none"/>
    </clipPath>
  </defs>
  <g id="Group_4017" data-name="Group 4017" transform="translate(1.2 1.2)">
    <g id="Group_4016" data-name="Group 4016" transform="translate(0 0)">
      <g id="Path_61058" data-name="Path 61058" transform="translate(0)" fill="#ff0d5b">
        <path d="M 402.5998229980469 257.6025085449219 L 401.9998168945312 257.6025085449219 L 8.447265827271622e-06 257.6025085449219 L -0.5999915599822998 257.6025085449219 L -0.5999915599822998 257.0025024414062 L -0.5999915599822998 1.647949284233619e-05 L -0.5999915599822998 -0.5999835133552551 L 8.447265827271622e-06 -0.5999835133552551 L 401.9998168945312 -0.5999835133552551 L 402.5998229980469 -0.5999835133552551 L 402.5998229980469 1.647949284233619e-05 L 402.5998229980469 257.0025024414062 L 402.5998229980469 257.6025085449219 Z" stroke="none"/>
        <path d="M 0 3.0517578125e-05 L 0 257.0025024414062 L 401.9998168945312 257.0025024414062 L 401.9998168945312 3.0517578125e-05 L 0 3.0517578125e-05 M -1.199981689453125 -1.199981689453125 L 403.1997985839844 -1.199981689453125 L 403.1997985839844 258.2025146484375 L -1.199981689453125 258.2025146484375 L -1.199981689453125 -1.199981689453125 Z" stroke="none" fill="#000"/>
      </g>
      <g id="Mask_Group_3" data-name="Mask Group 3" transform="translate(0 0)" clip-path="url(#clip-path)">
        <g id="Artwork_18" data-name="Artwork 18" transform="translate(202.226 166.128)">
          <g id="Artwork_18-2" data-name="Artwork 18" transform="translate(-202.226 -149.877)">
            <g id="Group_12254" data-name="Group 12254" clip-path="url(#clip-path-2)">
              <path id="Path_60624" data-name="Path 60624" d="M72.327,321.727h0a22.116,22.116,0,0,0,0-31.222L46.651,264.828a22.116,22.116,0,0,0-31.222,31.222L41.1,321.727a22.116,22.116,0,0,0,31.222,0" transform="translate(-3.104 -81.74)" fill="#8e0bfa"/>
              <path id="Path_60625" data-name="Path 60625" d="M72.327,321.727h0a22.116,22.116,0,0,0,0-31.222L46.651,264.828a22.116,22.116,0,0,0-31.222,31.222L41.1,321.727A22.116,22.116,0,0,0,72.327,321.727Z" transform="translate(-3.104 -81.74)" fill="none" stroke="#000" stroke-miterlimit="10" stroke-width="0.685"/>
              <path id="Path_60626" data-name="Path 60626" d="M111.127,282.927h0a22.116,22.116,0,0,0,0-31.222L85.451,226.028a22.116,22.116,0,0,0-31.222,31.222L79.9,282.927a22.116,22.116,0,0,0,31.222,0" transform="translate(-15.337 -69.506)" fill="#8e0bfa"/>
              <path id="Path_60627" data-name="Path 60627" d="M111.127,282.927h0a22.116,22.116,0,0,0,0-31.222L85.451,226.028a22.116,22.116,0,0,0-31.222,31.222L79.9,282.927A22.116,22.116,0,0,0,111.127,282.927Z" transform="translate(-15.337 -69.506)" fill="none" stroke="#000" stroke-miterlimit="10" stroke-width="0.685"/>
              <path id="Path_60628" data-name="Path 60628" d="M71.9,292.236l-9.654-9.586a18.145,18.145,0,0,1-26.087,19.035L21.441,294.29a18.213,18.213,0,0,1-3.834-29.99A22.116,22.116,0,0,0,15,297.85l25.676,25.676A22.116,22.116,0,0,0,71.9,292.3" transform="translate(-2.68 -83.334)"/>
              <path id="Path_60629" data-name="Path 60629" d="M71.9,292.236l-9.654-9.586a18.145,18.145,0,0,1-26.087,19.035L21.441,294.29a18.213,18.213,0,0,1-3.834-29.99A22.116,22.116,0,0,0,15,297.85l25.676,25.676A22.116,22.116,0,0,0,71.9,292.3Z" transform="translate(-2.68 -83.334)" fill="none" stroke="#000" stroke-miterlimit="10" stroke-width="0.685"/>
              <path id="Path_60630" data-name="Path 60630" d="M111.127,282.927h0a22.116,22.116,0,0,0,0-31.222L85.451,226.028a22.116,22.116,0,0,0-31.222,31.222L79.9,282.927a22.116,22.116,0,0,0,31.222,0" transform="translate(-15.337 -69.506)" fill="#8e0bfa"/>
              <path id="Path_60631" data-name="Path 60631" d="M111.127,282.927h0a22.116,22.116,0,0,0,0-31.222L85.451,226.028a22.116,22.116,0,0,0-31.222,31.222L79.9,282.927A22.116,22.116,0,0,0,111.127,282.927Z" transform="translate(-15.337 -69.506)" fill="none" stroke="#000" stroke-miterlimit="10" stroke-width="0.685"/>
              <path id="Path_60632" data-name="Path 60632" d="M110.735,253.136l-9.586-9.586a18.145,18.145,0,0,1-26.087,19.035L60.341,255.19a18.213,18.213,0,0,1-3.834-29.99,22.116,22.116,0,0,0-2.67,33.482l25.676,25.676a22.116,22.116,0,0,0,31.222,0h0a22.116,22.116,0,0,0,0-31.222" transform="translate(-14.945 -71.006)"/>
              <path id="Path_60633" data-name="Path 60633" d="M110.735,253.136l-9.586-9.586a18.145,18.145,0,0,1-26.087,19.035L60.341,255.19a18.213,18.213,0,0,1-3.834-29.99,22.116,22.116,0,0,0-2.67,33.482l25.676,25.676a22.116,22.116,0,0,0,31.222,0h0a22.116,22.116,0,0,0,0-31.222Z" transform="translate(-14.945 -71.006)" fill="none" stroke="#000" stroke-miterlimit="10" stroke-width="0.685"/>
              <path id="Path_60634" data-name="Path 60634" d="M149.627,244.427h0a22.116,22.116,0,0,0,0-31.222l-25.676-25.676a22.116,22.116,0,0,0-31.222,31.222L118.4,244.427a22.116,22.116,0,0,0,31.222,0" transform="translate(-27.476 -57.367)" fill="#8e0bfa"/>
              <path id="Path_60635" data-name="Path 60635" d="M149.627,244.427h0a22.116,22.116,0,0,0,0-31.222l-25.676-25.676a22.116,22.116,0,0,0-31.222,31.222L118.4,244.427A22.116,22.116,0,0,0,149.627,244.427Z" transform="translate(-27.476 -57.367)" fill="none" stroke="#000" stroke-miterlimit="10" stroke-width="0.685"/>
              <path id="Path_60636" data-name="Path 60636" d="M130.4,239.377,98.353,222.4a22.116,22.116,0,0,1,12.119-41.561,22.116,22.116,0,0,0-18.145,37.59L118,244.1a22.116,22.116,0,0,0,35.6-6.231,22.116,22.116,0,0,1-23.211,1.575" transform="translate(-27.076 -56.973)"/>
              <path id="Path_60637" data-name="Path 60637" d="M130.4,239.377,98.353,222.4a22.116,22.116,0,0,1,12.119-41.561,22.116,22.116,0,0,0-18.145,37.59L118,244.1a22.116,22.116,0,0,0,35.6-6.231A22.116,22.116,0,0,1,130.4,239.377Z" transform="translate(-27.076 -56.973)" fill="none" stroke="#000" stroke-miterlimit="10" stroke-width="0.685"/>
              <path id="Path_60638" data-name="Path 60638" d="M447.83,282.528h0a22.116,22.116,0,0,1,0-31.222l25.676-25.676a22.116,22.116,0,0,1,31.222,0h0a22.116,22.116,0,0,1,0,31.222l-25.676,25.676a22.116,22.116,0,0,1-31.222,0" transform="translate(-139.167 -69.107)" fill="#8e0bfa"/>
              <path id="Path_60639" data-name="Path 60639" d="M447.83,282.528h0a22.116,22.116,0,0,1,0-31.222l25.676-25.676a22.116,22.116,0,0,1,31.222,0h0a22.116,22.116,0,0,1,0,31.222l-25.676,25.676A22.116,22.116,0,0,1,447.83,282.528Z" transform="translate(-139.167 -69.107)" fill="none" stroke="#000" stroke-miterlimit="10" stroke-width="0.685"/>
              <path id="Path_60640" data-name="Path 60640" d="M508.961,236.2a22.116,22.116,0,0,1-11.982,20.952l-12.119,6.162a22.047,22.047,0,0,1-30.88-12.393l-5.751,5.751a22.116,22.116,0,0,0,31.222,31.222l25.676-25.676a22.116,22.116,0,0,0,3.9-26.019" transform="translate(-139.566 -74.474)"/>
              <path id="Path_60641" data-name="Path 60641" d="M508.961,236.2a22.116,22.116,0,0,1-11.982,20.952l-12.119,6.162a22.047,22.047,0,0,1-30.88-12.393l-5.751,5.751a22.116,22.116,0,0,0,31.222,31.222l25.676-25.676A22.116,22.116,0,0,0,508.961,236.2Z" transform="translate(-139.566 -74.474)" fill="none" stroke="#000" stroke-miterlimit="10" stroke-width="0.685"/>
              <path id="Path_60642" data-name="Path 60642" d="M486.63,321.328h0a22.116,22.116,0,0,1,0-31.222l25.676-25.676a22.116,22.116,0,0,1,31.222,0h0a22.116,22.116,0,0,1,0,31.222l-25.676,25.676a22.116,22.116,0,0,1-31.222,0" transform="translate(-151.401 -81.341)" fill="#8e0bfa"/>
              <path id="Path_60643" data-name="Path 60643" d="M486.63,321.328h0a22.116,22.116,0,0,1,0-31.222l25.676-25.676a22.116,22.116,0,0,1,31.222,0h0a22.116,22.116,0,0,1,0,31.222l-25.676,25.676a22.116,22.116,0,0,1-31.222,0Z" transform="translate(-151.401 -81.341)" fill="none" stroke="#000" stroke-miterlimit="10" stroke-width="0.685"/>
              <path id="Path_60644" data-name="Path 60644" d="M547.83,275.3a22.116,22.116,0,0,1-11.982,20.952l-12.119,6.162a22.047,22.047,0,0,1-30.948-12.393l-5.752,5.751a22.116,22.116,0,0,0,31.222,31.222l25.676-25.676a22.116,22.116,0,0,0,3.9-26.019" transform="translate(-151.799 -86.802)"/>
              <path id="Path_60645" data-name="Path 60645" d="M547.83,275.3a22.116,22.116,0,0,1-11.982,20.952l-12.119,6.162a22.047,22.047,0,0,1-30.948-12.393l-5.752,5.751a22.116,22.116,0,0,0,31.222,31.222l25.676-25.676a22.116,22.116,0,0,0,3.9-26.019Z" transform="translate(-151.799 -86.802)" fill="none" stroke="#000" stroke-miterlimit="10" stroke-width="0.685"/>
              <path id="Path_60646" data-name="Path 60646" d="M409.33,243.579h0a22.116,22.116,0,0,1,0-31.222l25.676-25.676A22.116,22.116,0,1,1,466.228,217.9l-25.676,25.676a22.116,22.116,0,0,1-31.222,0" transform="translate(-127.028 -56.519)" fill="#8e0bfa"/>
              <path id="Path_60647" data-name="Path 60647" d="M409.33,243.579h0a22.116,22.116,0,0,1,0-31.222l25.676-25.676A22.116,22.116,0,1,1,466.228,217.9l-25.676,25.676A22.116,22.116,0,0,1,409.33,243.579Z" transform="translate(-127.028 -56.519)" fill="none" stroke="#000" stroke-miterlimit="10" stroke-width="0.685"/>
              <path id="Path_60648" data-name="Path 60648" d="M467.448,191.3a22.116,22.116,0,0,1-5.888,27.525l-10.681,8.422a22.116,22.116,0,0,1-35.81-16.433l-5.341,5.341a22.116,22.116,0,0,0,31.222,31.222L466.627,221.7a22.116,22.116,0,0,0,.753-30.4" transform="translate(-127.426 -60.317)"/>
              <path id="Path_60649" data-name="Path 60649" d="M467.448,191.3a22.116,22.116,0,0,1-5.888,27.525l-10.681,8.422a22.116,22.116,0,0,1-35.81-16.433l-5.341,5.341a22.116,22.116,0,0,0,31.222,31.222L466.627,221.7a22.116,22.116,0,0,0,.822-30.4Z" transform="translate(-127.426 -60.317)" fill="none" stroke="#000" stroke-miterlimit="10" stroke-width="0.685"/>
              <path id="Path_60650" data-name="Path 60650" d="M424.814,217.782h0a22.116,22.116,0,0,1,3.629-31.017l10.681-8.422a22.116,22.116,0,1,1,27.388,34.646l-10.681,8.422a22.116,22.116,0,0,1-31.017-3.629" transform="translate(-132.448 -54.481)" fill="#8e0bfa"/>
              <path id="Path_60651" data-name="Path 60651" d="M424.814,217.782h0a22.116,22.116,0,0,1,3.629-31.017l10.681-8.422a22.116,22.116,0,1,1,27.388,34.646l-10.681,8.422A22.116,22.116,0,0,1,424.814,217.782Z" transform="translate(-132.448 -54.481)" fill="none" stroke="#000" stroke-miterlimit="10" stroke-width="0.685"/>
              <path id="Path_60652" data-name="Path 60652" d="M219.234,416.175h-68.2a22.937,22.937,0,0,1,0-45.875h68.2a22.937,22.937,0,1,1,0,45.875" transform="translate(-40.39 -116.756)" fill="#8e0bfa"/>
              <path id="Path_60653" data-name="Path 60653" d="M219.234,416.175h-68.2a22.937,22.937,0,0,1,0-45.875h68.2a22.937,22.937,0,1,1,0,45.875Z" transform="translate(-40.39 -116.756)" fill="none" stroke="#000" stroke-miterlimit="10" stroke-width="0.685"/>
              <path id="Path_60654" data-name="Path 60654" d="M219.241,418.314h-68.2A22.937,22.937,0,0,1,128.382,398.8a22.937,22.937,0,0,0,22.664,26.361h68.2A22.937,22.937,0,0,0,241.9,398.8a22.937,22.937,0,0,1-22.664,19.514" transform="translate(-40.398 -125.742)"/>
              <path id="Path_60655" data-name="Path 60655" d="M219.241,418.314h-68.2A22.937,22.937,0,0,1,128.382,398.8a22.937,22.937,0,0,0,22.664,26.361h68.2A22.937,22.937,0,0,0,241.9,398.8,22.937,22.937,0,0,1,219.241,418.314Z" transform="translate(-40.398 -125.742)" fill="none" stroke="#000" stroke-miterlimit="10" stroke-width="0.685"/>
              <path id="Path_60656" data-name="Path 60656" d="M386.434,416.175h-68.2a22.937,22.937,0,0,1,0-45.875h68.2a22.937,22.937,0,0,1,0,45.875" transform="translate(-93.108 -116.756)" fill="#8e0bfa"/>
              <path id="Path_60657" data-name="Path 60657" d="M386.434,416.175h-68.2a22.937,22.937,0,0,1,0-45.875h68.2a22.937,22.937,0,0,1,0,45.875Z" transform="translate(-93.108 -116.756)" fill="none" stroke="#000" stroke-miterlimit="10" stroke-width="0.685"/>
              <path id="Path_60658" data-name="Path 60658" d="M386.441,418.314h-68.2A22.937,22.937,0,0,1,295.582,398.8a22.937,22.937,0,0,0,22.664,26.361h68.2A22.937,22.937,0,0,0,409.1,398.8a22.937,22.937,0,0,1-22.664,19.514" transform="translate(-93.116 -125.742)"/>
              <path id="Path_60659" data-name="Path 60659" d="M386.441,418.314h-68.2A22.937,22.937,0,0,1,295.582,398.8a22.937,22.937,0,0,0,22.664,26.361h68.2A22.937,22.937,0,0,0,409.1,398.8,22.937,22.937,0,0,1,386.441,418.314Z" transform="translate(-93.116 -125.742)" fill="none" stroke="#000" stroke-miterlimit="10" stroke-width="0.685"/>
              <path id="Path_60660" data-name="Path 60660" d="M333.715,363.675H151.037a22.937,22.937,0,0,1,0-45.875H333.715a22.937,22.937,0,1,1,0,45.875" transform="translate(-40.39 -100.202)" fill="#8e0bfa"/>
              <path id="Path_60661" data-name="Path 60661" d="M333.715,363.675H151.037a22.937,22.937,0,0,1,0-45.875H333.715a22.937,22.937,0,1,1,0,45.875Z" transform="translate(-40.39 -100.202)" fill="none" stroke="#000" stroke-miterlimit="10" stroke-width="0.685"/>
              <path id="Path_60662" data-name="Path 60662" d="M333.715,310.175H151.037a22.937,22.937,0,0,1,0-45.875H333.715a22.937,22.937,0,1,1,0,45.875" transform="translate(-40.39 -83.334)" fill="#8e0bfa"/>
              <path id="Path_60663" data-name="Path 60663" d="M333.715,310.175H151.037a22.937,22.937,0,0,1,0-45.875H333.715a22.937,22.937,0,1,1,0,45.875Z" transform="translate(-40.39 -83.334)" fill="none" stroke="#000" stroke-miterlimit="10" stroke-width="0.685"/>
              <path id="Path_60664" data-name="Path 60664" d="M333.715,258.175H151.037a22.937,22.937,0,1,1,0-45.875H333.715a22.937,22.937,0,1,1,0,45.875" transform="translate(-40.39 -66.938)" fill="#8e0bfa"/>
              <path id="Path_60665" data-name="Path 60665" d="M333.715,258.175H151.037a22.937,22.937,0,1,1,0-45.875H333.715a22.937,22.937,0,1,1,0,45.875Z" transform="translate(-40.39 -66.938)" fill="none" stroke="#000" stroke-miterlimit="10" stroke-width="0.685"/>
              <path id="Path_60666" data-name="Path 60666" d="M333.715,208.775H151.037a22.937,22.937,0,0,1,0-45.875H333.715a22.937,22.937,0,0,1,0,45.875" transform="translate(-40.39 -51.362)" fill="#8e0bfa"/>
              <path id="Path_60667" data-name="Path 60667" d="M333.715,208.775H151.037a22.937,22.937,0,0,1,0-45.875H333.715a22.937,22.937,0,0,1,0,45.875Z" transform="translate(-40.39 -51.362)" fill="none" stroke="#000" stroke-miterlimit="10" stroke-width="0.685"/>
              <path id="Path_60668" data-name="Path 60668" d="M333.714,211.755H151.036A22.938,22.938,0,0,1,128.3,191.9a22.937,22.937,0,0,0,22.732,26.021H333.714A22.937,22.937,0,0,0,356.446,191.9a22.937,22.937,0,0,1-22.732,19.856" transform="translate(-40.388 -60.505)"/>
              <path id="Path_60669" data-name="Path 60669" d="M333.714,211.755H151.036A22.938,22.938,0,0,1,128.3,191.9a22.937,22.937,0,0,0,22.732,26.021H333.714A22.937,22.937,0,0,0,356.446,191.9,22.937,22.937,0,0,1,333.714,211.755Z" transform="translate(-40.388 -60.505)" fill="none" stroke="#000" stroke-miterlimit="10" stroke-width="0.685"/>
              <path id="Path_60670" data-name="Path 60670" d="M333.714,261.055H151.036A22.938,22.938,0,0,1,128.3,241.2a22.937,22.937,0,0,0,22.732,26.021H333.714A22.937,22.937,0,0,0,356.446,241.2a22.937,22.937,0,0,1-22.732,19.856" transform="translate(-40.388 -76.049)"/>
              <path id="Path_60671" data-name="Path 60671" d="M333.714,261.055H151.036A22.938,22.938,0,0,1,128.3,241.2a22.937,22.937,0,0,0,22.732,26.021H333.714A22.937,22.937,0,0,0,356.446,241.2,22.937,22.937,0,0,1,333.714,261.055Z" transform="translate(-40.388 -76.049)" fill="none" stroke="#000" stroke-miterlimit="10" stroke-width="0.685"/>
              <path id="Path_60672" data-name="Path 60672" d="M333.714,365.655H151.036A22.938,22.938,0,0,1,128.3,345.8a22.937,22.937,0,0,0,22.732,26.021H333.714A22.937,22.937,0,0,0,356.446,345.8a22.937,22.937,0,0,1-22.732,19.856" transform="translate(-40.388 -109.03)"/>
              <path id="Path_60673" data-name="Path 60673" d="M333.714,365.655H151.036A22.938,22.938,0,0,1,128.3,345.8a22.937,22.937,0,0,0,22.732,26.021H333.714A22.937,22.937,0,0,0,356.446,345.8a22.937,22.937,0,0,1-22.732,19.856Z" transform="translate(-40.388 -109.03)" fill="none" stroke="#000" stroke-miterlimit="10" stroke-width="0.685"/>
              <rect id="Rectangle_131399" data-name="Rectangle 131399" width="7.258" height="153.989" transform="translate(198.358 134.543)" fill="#ff3c1d"/>
              <rect id="Rectangle_131400" data-name="Rectangle 131400" width="7.258" height="153.989" transform="translate(198.358 134.543)" fill="none" stroke="#000" stroke-miterlimit="10" stroke-width="0.685"/>
              <path id="Path_60674" data-name="Path 60674" d="M144.2,180.642A14.036,14.036,0,0,1,156.114,174h20.062" transform="translate(-45.466 -54.862)" fill="none" stroke="#fcf7eb" stroke-linecap="round" stroke-miterlimit="10" stroke-width="6.847"/>
              <path id="Path_60675" data-name="Path 60675" d="M100.5,200.988a14.1,14.1,0,0,1,7.532-5.888" transform="translate(-31.688 -61.515)" fill="none" stroke="#fcf7eb" stroke-linecap="round" stroke-miterlimit="10" stroke-width="6.847"/>
              <path id="Path_60676" data-name="Path 60676" d="M64.4,239.7l.89-1.3" transform="translate(-20.305 -75.168)" fill="none" stroke="#fcf7eb" stroke-linecap="round" stroke-miterlimit="10" stroke-width="6.847"/>
              <path id="Path_60677" data-name="Path 60677" d="M310.088,350.264H214.025a14.173,14.173,0,0,1-6.5-1.575l-15.474-8.011a4.108,4.108,0,0,1,3.081-6.779H328.986a4.108,4.108,0,0,1,3.081,6.779l-15.474,8.011a14.174,14.174,0,0,1-6.5,1.575" transform="translate(-60.241 -105.279)"/>
              <path id="Path_60678" data-name="Path 60678" d="M310.088,350.264H214.025a14.173,14.173,0,0,1-6.5-1.575l-15.474-8.011a4.108,4.108,0,0,1,3.081-6.779H328.986a4.108,4.108,0,0,1,3.081,6.779l-15.474,8.011a14.174,14.174,0,0,1-6.5,1.575Z" transform="translate(-60.241 -105.279)" fill="none" stroke="#000" stroke-miterlimit="10" stroke-width="0.685"/>
              <path id="Path_60679" data-name="Path 60679" d="M547.816,335.378h0A22.116,22.116,0,0,1,525.7,313.262V300.116A22.116,22.116,0,0,1,547.816,278h0a22.116,22.116,0,0,1,22.116,22.116v13.215a22.116,22.116,0,0,1-22.116,22.047" transform="translate(-165.753 -87.653)" fill="#8e0bfa"/>
              <rect id="Rectangle_131401" data-name="Rectangle 131401" width="44.163" height="57.398" rx="22.082" transform="translate(359.947 190.347)" fill="none" stroke="#000" stroke-miterlimit="10" stroke-width="0.685"/>
              <path id="Path_60680" data-name="Path 60680" d="M569.889,304.435a21.98,21.98,0,0,0-4.04-12.735,22.25,22.25,0,0,1,.274,3.629v13.215A22.116,22.116,0,0,1,526,321.279a22.116,22.116,0,0,0,21.773,18.487h0a22.116,22.116,0,0,0,22.116-22.116Z" transform="translate(-165.848 -91.973)"/>
              <path id="Path_60681" data-name="Path 60681" d="M569.889,304.435a21.98,21.98,0,0,0-4.04-12.735,22.25,22.25,0,0,1,.274,3.629v13.215A22.116,22.116,0,0,1,526,321.279a22.116,22.116,0,0,0,21.773,18.487h0a22.116,22.116,0,0,0,22.116-22.116Z" transform="translate(-165.848 -91.973)" fill="none" stroke="#000" stroke-miterlimit="10" stroke-width="0.685"/>
              <path id="Path_60682" data-name="Path 60682" d="M504.516,335.944h0A22.116,22.116,0,0,1,482.4,313.828V300.682a22.116,22.116,0,0,1,44.163,0V313.9a22.116,22.116,0,0,1-22.116,22.116" transform="translate(-152.101 -88.22)" fill="#8e0bfa"/>
              <path id="Path_60683" data-name="Path 60683" d="M504.516,335.944h0A22.116,22.116,0,0,1,482.4,313.828V300.682a22.116,22.116,0,0,1,44.163,0V313.9A22.116,22.116,0,0,1,504.516,335.944Z" transform="translate(-152.101 -88.22)" fill="none" stroke="#000" stroke-miterlimit="10" stroke-width="0.685"/>
              <path id="Path_60684" data-name="Path 60684" d="M526.589,304.435a21.979,21.979,0,0,0-4.04-12.735,22.25,22.25,0,0,1,.274,3.629v13.215A22.116,22.116,0,0,1,482.7,321.279a22.116,22.116,0,0,0,43.889-3.629Z" transform="translate(-152.195 -91.973)"/>
              <path id="Path_60685" data-name="Path 60685" d="M526.589,304.435a21.979,21.979,0,0,0-4.04-12.735,22.25,22.25,0,0,1,.274,3.629v13.215A22.116,22.116,0,0,1,482.7,321.279a22.116,22.116,0,0,0,43.889-3.629Z" transform="translate(-152.195 -91.973)" fill="none" stroke="#000" stroke-miterlimit="10" stroke-width="0.685"/>
              <path id="Path_60686" data-name="Path 60686" d="M459.216,335.944h0A22.116,22.116,0,0,1,437.1,313.828V300.682a22.116,22.116,0,0,1,44.163,0V313.9a22.116,22.116,0,0,1-22.116,22.116" transform="translate(-137.818 -88.22)" fill="#8e0bfa"/>
              <path id="Path_60687" data-name="Path 60687" d="M459.216,335.944h0A22.116,22.116,0,0,1,437.1,313.828V300.682a22.116,22.116,0,0,1,44.163,0V313.9A22.116,22.116,0,0,1,459.216,335.944Z" transform="translate(-137.818 -88.22)" fill="none" stroke="#000" stroke-miterlimit="10" stroke-width="0.685"/>
              <path id="Path_60688" data-name="Path 60688" d="M481.089,304.435a21.979,21.979,0,0,0-4.04-12.735,22.253,22.253,0,0,1,.274,3.629v13.215A22.116,22.116,0,0,1,437.2,321.279a22.116,22.116,0,0,0,43.889-3.629Z" transform="translate(-137.849 -91.973)"/>
              <path id="Path_60689" data-name="Path 60689" d="M481.089,304.435a21.979,21.979,0,0,0-4.04-12.735,22.253,22.253,0,0,1,.274,3.629v13.215A22.116,22.116,0,0,1,437.2,321.279a22.116,22.116,0,0,0,43.889-3.629Z" transform="translate(-137.849 -91.973)" fill="none" stroke="#000" stroke-miterlimit="10" stroke-width="0.685"/>
              <path id="Path_60690" data-name="Path 60690" d="M455.3,293.992a14.1,14.1,0,0,1,6.642-3.492" transform="translate(-143.556 -91.595)" fill="none" stroke="#fcf7eb" stroke-linecap="round" stroke-miterlimit="10" stroke-width="6.847"/>
              <path id="Path_60691" data-name="Path 60691" d="M414.416,335.944h0A22.116,22.116,0,0,1,392.3,313.828V300.682a22.116,22.116,0,0,1,44.163,0V313.9a22.116,22.116,0,0,1-22.116,22.116" transform="translate(-123.692 -88.22)" fill="#8e0bfa"/>
              <path id="Path_60692" data-name="Path 60692" d="M414.416,335.944h0A22.116,22.116,0,0,1,392.3,313.828V300.682a22.116,22.116,0,0,1,44.163,0V313.9A22.116,22.116,0,0,1,414.416,335.944Z" transform="translate(-123.692 -88.22)" fill="none" stroke="#000" stroke-miterlimit="10" stroke-width="0.685"/>
              <path id="Path_60693" data-name="Path 60693" d="M436.789,304.435a21.979,21.979,0,0,0-4.04-12.735,22.246,22.246,0,0,1,.274,3.629v13.215A22.116,22.116,0,0,1,392.9,321.279a22.116,22.116,0,0,0,43.889-3.629Z" transform="translate(-123.881 -91.973)"/>
              <path id="Path_60694" data-name="Path 60694" d="M436.789,304.435a21.979,21.979,0,0,0-4.04-12.735,22.246,22.246,0,0,1,.274,3.629v13.215A22.116,22.116,0,0,1,392.9,321.279a22.116,22.116,0,0,0,43.889-3.629Z" transform="translate(-123.881 -91.973)" fill="none" stroke="#000" stroke-miterlimit="10" stroke-width="0.685"/>
              <path id="Path_60695" data-name="Path 60695" d="M408.6,295.567a14.1,14.1,0,0,1,8.079-5.067" transform="translate(-128.832 -91.595)" fill="none" stroke="#fcf7eb" stroke-linecap="round" stroke-miterlimit="10" stroke-width="6.847"/>
              <path id="Path_60696" data-name="Path 60696" d="M395.606,297.637H390.54v2.6c-2.465,2.807-4.04,7.532-4.04,12.941s1.575,10.2,4.04,12.941v2.6h5.067c5,0,9.107-6.984,9.107-15.611s-4.04-15.611-9.107-15.611" transform="translate(-121.864 -93.802)" fill="#ff3c1d"/>
              <path id="Path_60697" data-name="Path 60697" d="M395.606,297.7H390.54v2.6c-2.465,2.807-4.04,7.532-4.04,12.941s1.575,10.2,4.04,12.941v2.6h5.067c5,0,9.107-6.984,9.107-15.611S400.6,297.7,395.606,297.7Z" transform="translate(-121.864 -93.865)" fill="none" stroke="#000" stroke-miterlimit="10" stroke-width="0.685"/>
              <path id="Path_60698" data-name="Path 60698" d="M397.313,313.211c0,8.627-4.04,15.611-9.106,15.611s-9.107-6.984-9.107-15.611,4.04-15.611,9.107-15.611,9.106,6.984,9.106,15.611" transform="translate(-119.53 -93.833)"/>
              <path id="Path_60699" data-name="Path 60699" d="M397.313,313.211c0,8.627-4.04,15.611-9.106,15.611s-9.107-6.984-9.107-15.611,4.04-15.611,9.107-15.611S397.313,304.652,397.313,313.211Z" transform="translate(-119.53 -93.833)" fill="none" stroke="#000" stroke-miterlimit="10" stroke-width="0.685"/>
              <path id="Path_60700" data-name="Path 60700" d="M384.167,313.211c0-7.121,2.807-13.078,6.573-14.995a5.683,5.683,0,0,0-2.533-.616c-5,0-9.107,6.984-9.107,15.611s4.04,15.611,9.107,15.611a5.683,5.683,0,0,0,2.533-.616c-3.766-1.849-6.573-7.874-6.573-14.995" transform="translate(-119.53 -93.833)" fill="#ff3c1d"/>
              <path id="Path_60701" data-name="Path 60701" d="M384.167,313.211c0-7.121,2.807-13.078,6.573-14.995a5.683,5.683,0,0,0-2.533-.616c-5,0-9.107,6.984-9.107,15.611s4.04,15.611,9.107,15.611a5.683,5.683,0,0,0,2.533-.616C386.974,326.357,384.167,320.332,384.167,313.211Z" transform="translate(-119.53 -93.833)" fill="none" stroke="#000" stroke-miterlimit="10" stroke-width="0.685"/>
              <path id="Path_60702" data-name="Path 60702" d="M384.563,329.78,356.9,331.355l-1.3-22.8,35.81-2.054.822,14.653a8.148,8.148,0,0,1-7.669,8.559" transform="translate(-112.121 -96.64)" fill="#00db96"/>
              <path id="Path_60703" data-name="Path 60703" d="M384.563,329.78,356.9,331.355l-1.3-22.8,35.81-2.054.822,14.653a8.148,8.148,0,0,1-7.669,8.627Z" transform="translate(-112.121 -96.64)" fill="none" stroke="#000" stroke-miterlimit="10" stroke-width="0.685"/>
            </g>
            <g id="Group_12255" data-name="Group 12255" transform="translate(243.479 209.929)" clip-path="url(#clip-path-3)">
              <path id="Path_60704" data-name="Path 60704" d="M386.878,298.54,381.4,299.7c5.478-1.164,11.366,4.793,13.078,13.215s-1.3,16.159-6.779,17.323l5.478-1.164c5.478-1.164,8.49-8.9,6.779-17.323s-7.6-14.31-13.078-13.215" transform="translate(-363.735 -304.017)"/>
              <path id="Path_60705" data-name="Path 60705" d="M386.878,298.533,381.4,299.7c5.478-1.164,11.366,4.793,13.078,13.215s-1.3,16.159-6.779,17.323l5.478-1.164c5.478-1.164,8.49-8.9,6.779-17.323S392.355,297.369,386.878,298.533Z" transform="translate(-363.735 -304.011)" fill="none" stroke="#000" stroke-miterlimit="10" stroke-width="0.685"/>
            </g>
            <g id="Group_12256" data-name="Group 12256" clip-path="url(#clip-path-2)">
              <path id="Path_60707" data-name="Path 60707" d="M397.467,297.7H392.4c5,0,9.107,6.984,9.107,15.611s-4.04,15.611-9.107,15.611h5.067c5,0,9.107-6.984,9.107-15.611s-4.04-15.611-9.107-15.611" transform="translate(-123.724 -93.865)" fill="#ff3c1d"/>
              <path id="Path_60708" data-name="Path 60708" d="M397.467,297.7H392.4c5,0,9.107,6.984,9.107,15.611s-4.04,15.611-9.107,15.611h5.067c5,0,9.107-6.984,9.107-15.611S402.465,297.7,397.467,297.7Z" transform="translate(-123.724 -93.865)" fill="none" stroke="#000" stroke-miterlimit="10" stroke-width="0.685"/>
              <path id="Path_60709" data-name="Path 60709" d="M506.5,291.969l.616-.274a13.966,13.966,0,0,1,3.218-1.1" transform="translate(-159.7 -91.626)" fill="none" stroke="#fcf7eb" stroke-linecap="round" stroke-miterlimit="10" stroke-width="6.847"/>
              <path id="Path_60710" data-name="Path 60710" d="M555.5,290.911l1.369-.411" transform="translate(-175.149 -91.595)" fill="none" stroke="#fcf7eb" stroke-linecap="round" stroke-miterlimit="10" stroke-width="6.847"/>
              <path id="Path_60711" data-name="Path 60711" d="M22.6,334.811h0a22.116,22.116,0,0,0,22.047-22.047V299.549a22.116,22.116,0,1,0-44.163,0v13.215A22.116,22.116,0,0,0,22.6,334.88" transform="translate(-0.142 -87.087)" fill="#8e0bfa"/>
              <path id="Path_60712" data-name="Path 60712" d="M22.6,334.811h0a22.116,22.116,0,0,0,22.047-22.047V299.549a22.116,22.116,0,1,0-44.163,0v13.215A22.116,22.116,0,0,0,22.6,334.811Z" transform="translate(-0.142 -87.087)" fill="none" stroke="#000" stroke-miterlimit="10" stroke-width="0.685"/>
              <path id="Path_60713" data-name="Path 60713" d="M44.789,304.435A21.979,21.979,0,0,0,40.75,291.7a22.183,22.183,0,0,1,.274,3.629v13.215A22.116,22.116,0,0,1,.9,321.279a22.116,22.116,0,0,0,43.889-3.629Z" transform="translate(-0.284 -91.973)"/>
              <path id="Path_60714" data-name="Path 60714" d="M44.789,304.435A21.979,21.979,0,0,0,40.75,291.7a22.183,22.183,0,0,1,.274,3.629v13.215A22.116,22.116,0,0,1,.9,321.279a22.116,22.116,0,0,0,43.889-3.629Z" transform="translate(-0.284 -91.973)" fill="none" stroke="#000" stroke-miterlimit="10" stroke-width="0.685"/>
              <path id="Path_60715" data-name="Path 60715" d="M65.832,334.811h0A22.116,22.116,0,0,0,87.947,312.7V299.549a22.116,22.116,0,1,0-44.163,0v13.215a22.116,22.116,0,0,0,22.047,22.047" transform="translate(-13.794 -87.087)" fill="#8e0bfa"/>
              <path id="Path_60716" data-name="Path 60716" d="M65.832,334.811h0A22.116,22.116,0,0,0,87.947,312.7V299.549a22.116,22.116,0,1,0-44.163,0v13.215A22.116,22.116,0,0,0,65.832,334.811Z" transform="translate(-13.794 -87.087)" fill="none" stroke="#000" stroke-miterlimit="10" stroke-width="0.685"/>
              <path id="Path_60717" data-name="Path 60717" d="M89.089,304.435A21.979,21.979,0,0,0,85.05,291.7a22.184,22.184,0,0,1,.274,3.629v13.215A22.116,22.116,0,0,1,45.2,321.279a22.116,22.116,0,0,0,43.889-3.629Z" transform="translate(-14.252 -91.973)"/>
              <path id="Path_60718" data-name="Path 60718" d="M89.089,304.435A21.979,21.979,0,0,0,85.05,291.7a22.184,22.184,0,0,1,.274,3.629v13.215A22.116,22.116,0,0,1,45.2,321.279a22.116,22.116,0,0,0,43.889-3.629Z" transform="translate(-14.252 -91.973)" fill="none" stroke="#000" stroke-miterlimit="10" stroke-width="0.685"/>
              <path id="Path_60719" data-name="Path 60719" d="M111.132,334.811h0A22.116,22.116,0,0,0,133.247,312.7V299.549a22.116,22.116,0,1,0-44.163,0v13.215A22.116,22.116,0,0,0,111.2,334.88" transform="translate(-28.077 -87.087)" fill="#8e0bfa"/>
              <path id="Path_60720" data-name="Path 60720" d="M111.132,334.811h0A22.116,22.116,0,0,0,133.247,312.7V299.549a22.116,22.116,0,1,0-44.163,0v13.215a22.116,22.116,0,0,0,22.047,22.047Z" transform="translate(-28.077 -87.087)" fill="none" stroke="#000" stroke-miterlimit="10" stroke-width="0.685"/>
              <path id="Path_60721" data-name="Path 60721" d="M133.589,304.435a21.979,21.979,0,0,0-4.04-12.735,22.185,22.185,0,0,1,.274,3.629v13.215A22.116,22.116,0,0,1,89.7,321.279a22.116,22.116,0,0,0,43.889-3.629Z" transform="translate(-28.282 -91.973)"/>
              <path id="Path_60722" data-name="Path 60722" d="M133.589,304.435a21.979,21.979,0,0,0-4.04-12.735,22.185,22.185,0,0,1,.274,3.629v13.215A22.116,22.116,0,0,1,89.7,321.279a22.116,22.116,0,0,0,43.889-3.629Z" transform="translate(-28.282 -91.973)" fill="none" stroke="#000" stroke-miterlimit="10" stroke-width="0.685"/>
              <path id="Path_60723" data-name="Path 60723" d="M155.932,334.811h0A22.116,22.116,0,0,0,178.047,312.7V299.549a22.116,22.116,0,1,0-44.163,0v13.215A22.116,22.116,0,0,0,156,334.88" transform="translate(-42.203 -87.087)" fill="#8e0bfa"/>
              <path id="Path_60724" data-name="Path 60724" d="M155.932,334.811h0A22.116,22.116,0,0,0,178.047,312.7V299.549a22.116,22.116,0,1,0-44.163,0v13.215A22.116,22.116,0,0,0,155.932,334.811Z" transform="translate(-42.203 -87.087)" fill="none" stroke="#000" stroke-miterlimit="10" stroke-width="0.685"/>
              <path id="Path_60725" data-name="Path 60725" d="M177.889,304.435a21.979,21.979,0,0,0-4.04-12.735,22.252,22.252,0,0,1,.274,3.629v13.215A22.116,22.116,0,0,1,134,321.279a22.116,22.116,0,0,0,43.889-3.629Z" transform="translate(-42.25 -91.973)"/>
              <path id="Path_60726" data-name="Path 60726" d="M177.889,304.435a21.979,21.979,0,0,0-4.04-12.735,22.252,22.252,0,0,1,.274,3.629v13.215A22.116,22.116,0,0,1,134,321.279a22.116,22.116,0,0,0,43.889-3.629Z" transform="translate(-42.25 -91.973)" fill="none" stroke="#000" stroke-miterlimit="10" stroke-width="0.685"/>
              <path id="Path_60727" data-name="Path 60727" d="M186.706,297.637h5.067v2.6c2.465,2.807,4.04,7.532,4.04,12.941s-1.575,10.2-4.04,12.941v2.6h-5.067c-5,0-9.107-6.984-9.107-15.611s4.04-15.611,9.107-15.611" transform="translate(-55.997 -93.802)" fill="#ff3c1d"/>
              <path id="Path_60728" data-name="Path 60728" d="M186.706,297.7h5.067v2.6c2.465,2.807,4.04,7.532,4.04,12.941s-1.575,10.2-4.04,12.941v2.6h-5.067c-5,0-9.107-6.984-9.107-15.611S181.708,297.7,186.706,297.7Z" transform="translate(-55.997 -93.865)" fill="none" stroke="#000" stroke-miterlimit="10" stroke-width="0.685"/>
              <path id="Path_60729" data-name="Path 60729" d="M185,313.211c0,8.627,4.04,15.611,9.107,15.611s9.107-6.984,9.107-15.611-4.04-15.611-9.107-15.611S185,304.652,185,313.211" transform="translate(-58.331 -93.833)"/>
              <path id="Path_60730" data-name="Path 60730" d="M185,313.211c0,8.627,4.04,15.611,9.107,15.611s9.107-6.984,9.107-15.611-4.04-15.611-9.107-15.611S185,304.652,185,313.211Z" transform="translate(-58.331 -93.833)" fill="none" stroke="#000" stroke-miterlimit="10" stroke-width="0.685"/>
              <path id="Path_60731" data-name="Path 60731" d="M201.173,313.211c0-7.121-2.807-13.078-6.573-14.995a5.682,5.682,0,0,1,2.533-.616c5,0,9.107,6.984,9.107,15.611s-4.04,15.611-9.107,15.611a5.683,5.683,0,0,1-2.533-.616c3.766-1.849,6.573-7.874,6.573-14.995" transform="translate(-61.357 -93.833)" fill="#ff3c1d"/>
              <path id="Path_60732" data-name="Path 60732" d="M201.173,313.211c0-7.121-2.807-13.078-6.573-14.995a5.682,5.682,0,0,1,2.533-.616c5,0,9.107,6.984,9.107,15.611s-4.04,15.611-9.107,15.611a5.683,5.683,0,0,1-2.533-.616C198.434,326.357,201.173,320.332,201.173,313.211Z" transform="translate(-61.357 -93.833)" fill="none" stroke="#000" stroke-miterlimit="10" stroke-width="0.685"/>
              <path id="Path_60733" data-name="Path 60733" d="M189.263,329.78l27.662,1.575,1.3-22.8-35.81-2.054-.822,14.721a8.148,8.148,0,0,0,7.669,8.559" transform="translate(-57.253 -96.64)" fill="#00db96"/>
              <path id="Path_60734" data-name="Path 60734" d="M189.263,329.78l27.662,1.575,1.3-22.8-35.81-2.054-.822,14.721A8.148,8.148,0,0,0,189.263,329.78Z" transform="translate(-57.253 -96.64)" fill="none" stroke="#000" stroke-miterlimit="10" stroke-width="0.685"/>
            </g>
            <g id="Group_12257" data-name="Group 12257" transform="translate(124.33 209.86)" clip-path="url(#clip-path-5)">
              <path id="Path_60735" data-name="Path 60735" d="M195.057,298.54l5.478,1.164c-5.478-1.164-11.366,4.793-13.078,13.215s1.3,16.159,6.779,17.323l-5.478-1.164c-5.478-1.164-8.49-8.9-6.779-17.323s7.6-14.31,13.078-13.215" transform="translate(-181.557 -303.949)"/>
              <path id="Path_60736" data-name="Path 60736" d="M195.057,298.533l5.478,1.164c-5.478-1.164-11.366,4.793-13.078,13.215s1.3,16.159,6.779,17.323l-5.478-1.164c-5.478-1.164-8.49-8.9-6.779-17.323S189.579,297.369,195.057,298.533Z" transform="translate(-181.557 -303.942)" fill="none" stroke="#000" stroke-miterlimit="10" stroke-width="0.685"/>
            </g>
            <g id="Group_12258" data-name="Group 12258" clip-path="url(#clip-path-2)">
              <path id="Path_60738" data-name="Path 60738" d="M186.706,297.7h5.067c-5,0-9.107,6.984-9.107,15.611s4.04,15.611,9.107,15.611h-5.067c-5,0-9.107-6.984-9.107-15.611s4.04-15.611,9.107-15.611" transform="translate(-55.997 -93.865)" fill="#ff3c1d"/>
              <path id="Path_60739" data-name="Path 60739" d="M186.706,297.7h5.067c-5,0-9.107,6.984-9.107,15.611s4.04,15.611,9.107,15.611h-5.067c-5,0-9.107-6.984-9.107-15.611S181.708,297.7,186.706,297.7Z" transform="translate(-55.997 -93.865)" fill="none" stroke="#000" stroke-miterlimit="10" stroke-width="0.685"/>
              <path id="Path_60740" data-name="Path 60740" d="M16.6,295.567a14.1,14.1,0,0,1,8.079-5.067" transform="translate(-5.234 -91.595)" fill="none" stroke="#fcf7eb" stroke-linecap="round" stroke-miterlimit="10" stroke-width="6.847"/>
              <path id="Path_60741" data-name="Path 60741" d="M63.4,293.992a14.1,14.1,0,0,1,6.642-3.492" transform="translate(-19.99 -91.595)" fill="none" stroke="#fcf7eb" stroke-linecap="round" stroke-miterlimit="10" stroke-width="6.847"/>
              <path id="Path_60742" data-name="Path 60742" d="M114.5,291.969l.616-.274a13.967,13.967,0,0,1,3.218-1.1" transform="translate(-36.102 -91.626)" fill="none" stroke="#fcf7eb" stroke-linecap="round" stroke-miterlimit="10" stroke-width="6.847"/>
              <path id="Path_60743" data-name="Path 60743" d="M163.6,290.911l1.369-.411" transform="translate(-51.583 -91.595)" fill="none" stroke="#fcf7eb" stroke-linecap="round" stroke-miterlimit="10" stroke-width="6.847"/>
              <path id="Path_60744" data-name="Path 60744" d="M315.2,325.513H221.67a10.27,10.27,0,0,1-10.27-10.27V265.671A10.271,10.271,0,0,1,221.67,255.4H315.2a10.27,10.27,0,0,1,10.27,10.271v49.572a10.27,10.27,0,0,1-10.27,10.27" transform="translate(-66.654 -80.528)" fill="#fdfb76"/>
              <rect id="Rectangle_131404" data-name="Rectangle 131404" width="114.071" height="70.113" rx="10.27" transform="translate(144.746 174.872)" fill="none" stroke="#000" stroke-miterlimit="10" stroke-width="0.685"/>
              <path id="Path_60745" data-name="Path 60745" d="M315.2,341.17H221.67A10.27,10.27,0,0,1,211.4,330.9v8.148a10.27,10.27,0,0,0,10.27,10.271H315.2a10.27,10.27,0,0,0,10.27-10.271V330.9a10.27,10.27,0,0,1-10.27,10.271" transform="translate(-66.654 -104.333)"/>
              <path id="Path_60746" data-name="Path 60746" d="M315.2,341.17H221.67A10.27,10.27,0,0,1,211.4,330.9v8.148a10.27,10.27,0,0,0,10.27,10.271H315.2a10.27,10.27,0,0,0,10.27-10.271V330.9a10.27,10.27,0,0,1-10.27,10.271Z" transform="translate(-66.654 -104.333)" fill="none" stroke="#000" stroke-miterlimit="10" stroke-width="0.685"/>
              <path id="Path_60747" data-name="Path 60747" d="M300.13,293.926a10.065,10.065,0,1,0-15.337,8.49v5.957h10.544v-5.957a10.065,10.065,0,0,0,4.793-8.559" transform="translate(-88.284 -89.475)" fill="#fcf7eb"/>
              <path id="Path_60748" data-name="Path 60748" d="M300.13,293.926a10.065,10.065,0,1,0-15.337,8.49v5.957h10.544v-5.957a10.065,10.065,0,0,0,4.793-8.49Z" transform="translate(-88.284 -89.475)" fill="none" stroke="#000" stroke-miterlimit="10" stroke-width="0.685"/>
              <line id="Line_594" data-name="Line 594" y1="5.067" transform="translate(200.001 213.832)" fill="none" stroke="#000" stroke-miterlimit="10" stroke-width="0.685"/>
              <line id="Line_595" data-name="Line 595" y2="5.067" transform="translate(203.561 213.832)" fill="none" stroke="#000" stroke-miterlimit="10" stroke-width="0.685"/>
              <path id="Path_60749" data-name="Path 60749" d="M224.6,271.471c0-2.259,2.944-3.971,5.683-3.971h14.584" transform="translate(-70.816 -84.343)" fill="none" stroke="#fff" stroke-linecap="round" stroke-miterlimit="10" stroke-width="6.847"/>
              <path id="Path_60750" data-name="Path 60750" d="M327.969,91.865a30.744,30.744,0,0,0-2.533-12.188h0l-.205-.411-.411-.959-26.5-57.515h0l-.274-.548-.411-.753-.342-.616-.411-.753-.342-.548-.753-1.164-.411-.548-.479-.685-.411-.548-.685-.89-.479-.616-.616-.753-.411-.479-.616-.685-.411-.411-1.027-.959-.411-.411-.753-.616L288.6,8.4l-.89-.685-.411-.274-.958-.616-.479-.342-.89-.548-.411-.274-1.232-.753-.342-.205-1.027-.548-.479-.205-1.1-.479-.274-.137-1.369-.548-.411-.137L277.1,2.306l-.411-.137-1.506-.411h-.205l-1.3-.274h-.479l-1.232-.411h-.342L270.043.8h-7.532l-1.575.205h-.342l-1.232.205h-.479l-1.3.274h-.205L255.87,1.9l-.411.137-1.1.342-.411.137-1.369.548-.274.137-1.1.479-.479.205-1.027.548-.342.205L248,5.661l-.411.274-.89.548-.479.342-1.027.753-.411.274-.89.685-.479.411-.753.616-.411.411-1.027.959-.411.411-.616.685-.411.479-.616.753-.479.616-.685.89-.411.548-.479.685-.411.548-.753,1.164-.342.548-.411.753-.342.616-.411.753-.274.548h0l-26.5,57.515-.411.959-.205.411h0a30.88,30.88,0,0,0,15.474,40.192h0l31.222,13.557h0l2.944,1.1h0l1.438.411h.068l1.369.342h.205l1.3.274h.274l1.232.137h7.326l1.232-.137h.274l1.3-.274h.205l1.369-.342h.068l1.438-.411h0l2.944-1.1h0l31.222-13.557h0A30.88,30.88,0,0,0,327.9,92" transform="translate(-64.497 -0.252)"/>
              <path id="Path_60751" data-name="Path 60751" d="M327.969,91.865a30.744,30.744,0,0,0-2.533-12.188h0l-.205-.411-.411-.959-26.5-57.515h0l-.274-.548-.411-.753-.342-.616-.411-.753-.342-.548-.753-1.164-.411-.548-.479-.685-.411-.548-.685-.89-.479-.616-.616-.753-.411-.479-.616-.685-.411-.411-1.027-.959-.411-.411-.753-.616L288.6,8.4l-.89-.685-.411-.274-.958-.616-.479-.342-.89-.548-.411-.274-1.232-.753-.342-.205-1.027-.548-.479-.205-1.1-.479-.274-.137-1.369-.548-.411-.137L277.1,2.306l-.411-.137-1.506-.411h-.205l-1.3-.274h-.479l-1.232-.411h-.342L270.043.8h-7.532l-1.575.205h-.342l-1.232.205h-.479l-1.3.274h-.205L255.87,1.9l-.411.137-1.1.342-.411.137-1.369.548-.274.137-1.1.479-.479.205-1.027.548-.342.205L248,5.661l-.411.274-.89.548-.479.342-1.027.753-.411.274-.89.685-.479.411-.753.616-.411.411-1.027.959-.411.411-.616.685-.411.479-.616.753-.479.616-.685.89-.411.548-.479.685-.411.548-.753,1.164-.342.548-.411.753-.342.616-.411.753-.274.548h0l-26.5,57.515-.411.959-.205.411h0a30.88,30.88,0,0,0,15.474,40.192h0l31.222,13.557h0l2.944,1.1h0l1.438.411h.068l1.369.342h.205l1.3.274h.274l1.232.137h7.326l1.232-.137h.274l1.3-.274h.205l1.369-.342h.068l1.438-.411h0l2.944-1.1h0l31.222-13.557h0a30.88,30.88,0,0,0,18.008-28.141Z" transform="translate(-64.497 -0.252)" fill="none" stroke="#000" stroke-miterlimit="10" stroke-width="0.685"/>
              <path id="Path_60752" data-name="Path 60752" d="M270.453,165.893H268.4l-1.369-.137h-.274l-1.643-.205h-.274l-1.438-.274H263.2l-3.15-.822h-.137l-3.013-1.164h0L233,153.363h0c-9.107-3.9-15.2-11.024-15.2-19.172,0-5.546,2.807-10.613,7.463-14.516h0l16.775-14.584.959-.822.822-.685.137-.137h0l1.232-.89.411-.274.89-.616.548-.342.822-.479.616-.342.822-.479.616-.342.822-.411.685-.274.822-.342.685-.274.822-.342.685-.274.89-.274.753-.274.89-.274.753-.205.959-.274.753-.205.959-.205.753-.137.959-.205.753-.137,1.027-.137h.753l1.1-.137h8.97l1.1.137h1.027l1.027.137.753.137.959.205.753.137.959.205.753.205.959.274.753.205.89.274.753.274.89.274.685.274.822.342.685.274.822.342.685.274.822.411.616.342.822.479.616.342.822.479.548.342.89.616.411.274,1.232.89h0l.137.137.822.685.959.822,16.775,14.584h0c4.656,3.9,7.463,8.97,7.463,14.516,0,8.148-6.094,15.269-15.2,19.172h0l-23.9,9.928h0l-3.013,1.164h-.137l-3.15.822H277.3l-1.438.274h-.274l-1.643.205h-.274l-1.369.137h-2.054" transform="translate(-68.672 -30.048)" fill="#8e0bfa"/>
              <path id="Path_60753" data-name="Path 60753" d="M270.453,165.893H268.4l-1.369-.137h-.274l-1.643-.205h-.274l-1.438-.274H263.2l-3.15-.822h-.137l-3.013-1.164h0L233,153.363h0c-9.107-3.9-15.2-11.024-15.2-19.172,0-5.546,2.807-10.613,7.463-14.516h0l16.775-14.584.959-.822.822-.685.137-.137h0l1.232-.89.411-.274.89-.616.548-.342.822-.479.616-.342.822-.479.616-.342.822-.411.685-.274.822-.342.685-.274.822-.342.685-.274.89-.274.753-.274.89-.274.753-.205.959-.274.753-.205.959-.205.753-.137.959-.205.753-.137,1.027-.137h.753l1.1-.137h8.97l1.1.137h1.027l1.027.137.753.137.959.205.753.137.959.205.753.205.959.274.753.205.89.274.753.274.89.274.685.274.822.342.685.274.822.342.685.274.822.411.616.342.822.479.616.342.822.479.548.342.89.616.411.274,1.232.89h0l.137.137.822.685.959.822,16.775,14.584h0c4.656,3.9,7.463,8.97,7.463,14.516,0,8.148-6.094,15.269-15.2,19.172h0l-23.9,9.928h0l-3.013,1.164h-.137l-3.15.822H277.3l-1.438.274h-.274l-1.643.205h-.274l-1.369.137h-2.054" transform="translate(-68.672 -30.048)" fill="none" stroke="#000" stroke-miterlimit="10" stroke-width="0.685"/>
              <path id="Path_60754" data-name="Path 60754" d="M324.067,162.9H215.2a30.949,30.949,0,0,0,10.681,8.148h0L257.1,184.6h0l2.944,1.1h0l1.438.411h.068l1.369.342h.205l1.3.274h.274l1.232.137h7.326l1.232-.137h.274l1.3-.274h.205l1.369-.342h.069l1.438-.411h0l2.944-1.1h0l31.222-13.557h0A30.948,30.948,0,0,0,324,162.9" transform="translate(-67.853 -51.362)" fill="#ff0d5b"/>
              <path id="Path_60755" data-name="Path 60755" d="M324.067,162.9H215.2a30.949,30.949,0,0,0,10.681,8.148h0L257.1,184.6h0l2.944,1.1h0l1.438.411h.068l1.369.342h.205l1.3.274h.274l1.232.137h7.326l1.232-.137h.274l1.3-.274h.205l1.369-.342h.069l1.438-.411h0l2.944-1.1h0l31.222-13.557h0A30.948,30.948,0,0,0,324.067,162.9Z" transform="translate(-67.853 -51.362)" fill="none" stroke="#000" stroke-miterlimit="10" stroke-width="0.685"/>
              <path id="Path_60756" data-name="Path 60756" d="M244.361,101.38A9.38,9.38,0,1,1,234.98,92a9.38,9.38,0,0,1,9.38,9.38" transform="translate(-71.132 -29.008)" fill="#00db96"/>
              <path id="Path_60757" data-name="Path 60757" d="M244.361,101.38A9.38,9.38,0,1,1,234.98,92,9.38,9.38,0,0,1,244.361,101.38Z" transform="translate(-71.132 -29.008)" fill="none" stroke="#000" stroke-miterlimit="10" stroke-width="0.685"/>
              <path id="Path_60758" data-name="Path 60758" d="M355.661,100.98a9.38,9.38,0,1,1-9.38-9.38,9.38,9.38,0,0,1,9.38,9.38" transform="translate(-106.225 -28.882)" fill="#00db96"/>
              <path id="Path_60759" data-name="Path 60759" d="M355.661,100.98a9.38,9.38,0,1,1-9.38-9.38A9.38,9.38,0,0,1,355.661,100.98Z" transform="translate(-106.225 -28.882)" fill="none" stroke="#000" stroke-miterlimit="10" stroke-width="0.685"/>
              <path id="Path_60760" data-name="Path 60760" d="M346.312,91.7A9.38,9.38,0,0,0,337,100.464a9.312,9.312,0,0,1,15.474,7.052v.616a9.312,9.312,0,0,0-6.162-16.364" transform="translate(-106.256 -28.913)"/>
              <path id="Path_60761" data-name="Path 60761" d="M346.312,91.7A9.38,9.38,0,0,0,337,100.464a9.312,9.312,0,0,1,15.474,7.052v.616a9.312,9.312,0,0,0-6.162-16.364Z" transform="translate(-106.256 -28.913)" fill="none" stroke="#000" stroke-miterlimit="10" stroke-width="0.685"/>
              <path id="Path_60762" data-name="Path 60762" d="M235.074,91.7a9.38,9.38,0,0,1,9.312,8.764,9.312,9.312,0,0,0-15.474,7.052q0,.308,0,.616a9.312,9.312,0,0,1,6.162-16.364" transform="translate(-71.157 -28.913)"/>
              <path id="Path_60763" data-name="Path 60763" d="M235.074,91.7a9.38,9.38,0,0,1,9.312,8.764,9.312,9.312,0,0,0-15.474,7.052q0,.308,0,.616a9.312,9.312,0,0,1,6.162-16.364Z" transform="translate(-71.157 -28.913)" fill="none" stroke="#000" stroke-miterlimit="10" stroke-width="0.685"/>
              <path id="Path_60764" data-name="Path 60764" d="M279.093,9.6h0A33.893,33.893,0,0,0,245.2,43.493v74.5c8.7,4.382,20.678,7.052,33.893,7.052s25.2-2.67,33.893-7.052v-74.5A33.893,33.893,0,0,0,279.093,9.6" transform="translate(-77.312 -3.027)" fill="#00db96"/>
              <path id="Path_60765" data-name="Path 60765" d="M279.093,9.6h0A33.893,33.893,0,0,0,245.2,43.493v74.5c8.7,4.382,20.678,7.052,33.893,7.052s25.2-2.67,33.893-7.052v-74.5A33.893,33.893,0,0,0,279.093,9.6Z" transform="translate(-77.312 -3.027)" fill="none" stroke="#000" stroke-miterlimit="10" stroke-width="0.685"/>
              <path id="Path_60766" data-name="Path 60766" d="M279.3,64.761c14.31,0,26.84,3.766,33.687,9.449V50.793a33.893,33.893,0,0,0-67.785,0V74.483c6.779-5.82,19.514-9.791,34.1-9.791" transform="translate(-77.312 -5.329)"/>
              <path id="Path_60767" data-name="Path 60767" d="M279.3,64.761c14.31,0,26.84,3.766,33.687,9.449V50.793a33.893,33.893,0,0,0-67.785,0V74.483C251.979,68.732,264.714,64.761,279.3,64.761Z" transform="translate(-77.312 -5.329)" fill="none" stroke="#000" stroke-miterlimit="10" stroke-width="0.685"/>
              <path id="Path_60768" data-name="Path 60768" d="M296.049,127.63H273.865a10.065,10.065,0,0,1,0-20.13h22.253a10.065,10.065,0,0,1,0,20.13" transform="translate(-83.176 -33.895)" fill="#ff0d5b"/>
              <path id="Path_60769" data-name="Path 60769" d="M296.049,127.63H273.865a10.065,10.065,0,0,1,0-20.13h22.253a10.065,10.065,0,0,1,0,20.13Z" transform="translate(-83.176 -33.895)" fill="none" stroke="#000" stroke-miterlimit="10" stroke-width="0.685"/>
              <path id="Path_60770" data-name="Path 60770" d="M298.729,124.49H276.545a4.245,4.245,0,1,1,0-8.49H298.8a4.245,4.245,0,1,1,0,8.49" transform="translate(-85.856 -36.575)" fill="#fcf7eb"/>
              <path id="Path_60771" data-name="Path 60771" d="M298.729,124.49H276.545a4.245,4.245,0,1,1,0-8.49H298.8a4.245,4.245,0,1,1,0,8.49Z" transform="translate(-85.856 -36.575)" fill="none" stroke="#000" stroke-miterlimit="10" stroke-width="0.685"/>
              <path id="Path_60772" data-name="Path 60772" d="M296.4,97.75a3.15,3.15,0,1,1-3.15-3.15,3.15,3.15,0,0,1,3.15,3.15" transform="translate(-91.469 -29.827)"/>
              <path id="Path_60773" data-name="Path 60773" d="M296.4,97.75a3.15,3.15,0,1,1-3.15-3.15A3.15,3.15,0,0,1,296.4,97.75Z" transform="translate(-91.469 -29.827)" fill="none" stroke="#000" stroke-miterlimit="10" stroke-width="0.685"/>
              <path id="Path_60774" data-name="Path 60774" d="M323.028,108.923a30.743,30.743,0,0,0-7.463-20.13h0l-16.844-20.2-.959-1.164-.822-.959-.137-.137h0L295.572,65.1l-.411-.411-.89-.822-.548-.479-.822-.685-.616-.479-.822-.616-.616-.479-.822-.548-.685-.411-.822-.548-.685-.411-.822-.479-.685-.342-.89-.411-.753-.342-.89-.411-.753-.274-.959-.342-.753-.274-.959-.274-.753-.205-.959-.274-.753-.205-1.027-.205-.753-.137-1.1-.137h-8.97l-1.1.137-.753.137-1.027.205-.753.205-.959.274-.753.205-.959.274-.753.274-.959.342-.753.274-.89.411-.753.342-.89.411-.685.342-.822.479-.685.411-.822.548-.685.411-.822.548-.616.479-.822.616-.616.479-.822.685-.548.479-.959.685-.411.411L244.219,66.2h0l-.137.137-.822.959-.959,1.164L225.527,88.793h0a30.812,30.812,0,0,0,7.669,46.765h0l23.9,13.762h0a25.264,25.264,0,0,0,3.013,1.575h.137a25.065,25.065,0,0,0,3.15,1.164h.205l1.438.342h.274l1.643.274h.274l1.369.137h4.177l1.369-.137h.274l1.643-.274h.274l1.438-.342h.205a25.062,25.062,0,0,0,3.15-1.164h.137a25.271,25.271,0,0,0,3.013-1.575h0l23.9-13.762h0A30.812,30.812,0,0,0,323.028,108.923Z" transform="translate(-68.731 -17.31)" fill="none" stroke="#000" stroke-miterlimit="10" stroke-width="0.685"/>
              <path id="Path_60775" data-name="Path 60775" d="M236.9,161.481c8.764,6.368,23.211,10.476,39.576,10.476s30.88-4.177,39.576-10.476l-5.683-3.081c-7.874,5.067-20.13,8.353-33.893,8.353s-26.019-3.287-33.893-8.353Z" transform="translate(-74.695 -49.944)" fill="#ff3c1d"/>
              <path id="Path_60776" data-name="Path 60776" d="M236.9,161.481c8.764,6.368,23.211,10.476,39.576,10.476s30.88-4.177,39.576-10.476l-5.683-3.081c-7.874,5.067-20.13,8.353-33.893,8.353s-26.019-3.287-33.893-8.353Z" transform="translate(-74.695 -49.944)" fill="none" stroke="#000" stroke-miterlimit="10" stroke-width="0.685"/>
              <path id="Path_60777" data-name="Path 60777" d="M298.729,124.49H276.545a4.245,4.245,0,1,1,0-8.49H298.8a4.245,4.245,0,1,1,0,8.49" transform="translate(-85.856 -36.575)" fill="#fcf7eb"/>
              <path id="Path_60778" data-name="Path 60778" d="M298.729,124.49H276.545a4.245,4.245,0,1,1,0-8.49H298.8a4.245,4.245,0,1,1,0,8.49Z" transform="translate(-85.856 -36.575)" fill="none" stroke="#000" stroke-miterlimit="10" stroke-width="0.685"/>
              <line id="Line_596" data-name="Line 596" y2="8.49" transform="translate(201.781 79.425)" fill="none" stroke="#000" stroke-miterlimit="10" stroke-width="0.685"/>
              <line id="Line_597" data-name="Line 597" y2="8.49" transform="translate(196.646 79.425)" fill="none" stroke="#000" stroke-miterlimit="10" stroke-width="0.685"/>
              <line id="Line_598" data-name="Line 598" y2="8.49" transform="translate(191.579 79.425)" fill="none" stroke="#000" stroke-miterlimit="10" stroke-width="0.685"/>
              <line id="Line_599" data-name="Line 599" y2="8.49" transform="translate(212.052 79.425)" fill="none" stroke="#000" stroke-miterlimit="10" stroke-width="0.685"/>
              <line id="Line_600" data-name="Line 600" y2="8.49" transform="translate(206.916 79.425)" fill="none" stroke="#000" stroke-miterlimit="10" stroke-width="0.685"/>
              <path id="Path_60779" data-name="Path 60779" d="M327.969,91.865a30.744,30.744,0,0,0-2.533-12.188h0l-.205-.411-.411-.959-26.5-57.515h0l-.274-.548-.411-.753-.342-.616-.411-.753-.342-.548-.753-1.164-.411-.548-.479-.685-.411-.548-.685-.89-.479-.616-.616-.753-.411-.479-.616-.685-.411-.411-1.027-.959-.411-.411-.753-.616L288.6,8.4l-.89-.685-.411-.274-.958-.616-.479-.342-.89-.548-.411-.274-1.232-.753-.342-.205-1.027-.548-.479-.205-1.1-.479-.274-.137-1.369-.548-.411-.137L277.1,2.306l-.411-.137-1.506-.411h-.205l-1.3-.274h-.479l-1.232-.411h-.342L270.043.8h-7.532l-1.575.205h-.342l-1.232.205h-.479l-1.3.274h-.205L255.87,1.9l-.411.137-1.1.342-.411.137-1.369.548-.274.137-1.1.479-.479.205-1.027.548-.342.205L248,5.661l-.411.274-.89.548-.479.342-1.027.753-.411.274-.89.685-.479.411-.753.616-.411.411-1.027.959-.411.411-.616.685-.411.479-.616.753-.479.616-.685.89-.411.548-.479.685-.411.548-.753,1.164-.342.548-.411.753-.342.616-.411.753-.274.548h0l-26.5,57.515-.411.959-.205.411h0a30.88,30.88,0,0,0,15.474,40.192h0l31.222,13.557h0l2.944,1.1h0l1.438.411h.068l1.369.342h.205l1.3.274h.274l1.232.137h1.506l-1.369-.137h-.274l-1.643-.274h-.274l-1.438-.342h-.205a25.059,25.059,0,0,1-3.15-1.164H255.6a25.266,25.266,0,0,1-3.013-1.575h0l-23.9-13.762h0a30.811,30.811,0,0,1-7.395-46.833h0l16.775-20.2.959-1.164.822-.959.137-.137h0l1.232-1.232.411-.411.89-.822.548-.479.822-.685.616-.479.822-.616.616-.479.822-.548.685-.411.822-.548.685-.411.822-.479.685-.342.89-.411.753-.342.89-.411.753-.274.959-.342.753-.274.959-.274.753-.205.959-.274.753-.205,1.027-.205.753-.137,1.1-.137h8.97l1.1.137.753.137,1.027.205.753.205.959.274.753.205.959.274.753.274.959.342.753.274.89.411.753.342.89.411.685.342.822.479.685.411.822.548.685.411.822.548.616.479.822.616.616.479.822.685.548.479.89.822.411.411,1.232,1.232h0l.137.137.822.959.959,1.164,16.775,20.2h0a30.811,30.811,0,0,1-7.669,46.765h0l-23.9,13.762h0a25.266,25.266,0,0,1-3.013,1.575h-.137A25.061,25.061,0,0,1,273.33,135h-.205l-1.438.342h-.274l-1.643.274H269.5l-1.369.137h1.78l1.232-.137h.274l1.3-.274h.205l1.369-.342h.068l1.438-.411h0l2.944-1.1h0l31.222-13.557h0a30.88,30.88,0,0,0,17.939-28" transform="translate(-64.497 -0.252)" fill="#8e0bfa"/>
              <path id="Path_60780" data-name="Path 60780" d="M327.969,91.865a30.744,30.744,0,0,0-2.533-12.188h0l-.205-.411-.411-.959-26.5-57.515h0l-.274-.548-.411-.753-.342-.616-.411-.753-.342-.548-.753-1.164-.411-.548-.479-.685-.411-.548-.685-.89-.479-.616-.616-.753-.411-.479-.616-.685-.411-.411-1.027-.959-.411-.411-.753-.616L288.6,8.4l-.89-.685-.411-.274-.958-.616-.479-.342-.89-.548-.411-.274-1.232-.753-.342-.205-1.027-.548-.479-.205-1.1-.479-.274-.137-1.369-.548-.411-.137L277.1,2.306l-.411-.137-1.506-.411h-.205l-1.3-.274h-.479l-1.232-.411h-.342L270.043.8h-7.532l-1.575.205h-.342l-1.232.205h-.479l-1.3.274h-.205L255.87,1.9l-.411.137-1.1.342-.411.137-1.369.548-.274.137-1.1.479-.479.205-1.027.548-.342.205L248,5.661l-.411.274-.89.548-.479.342-1.027.753-.411.274-.89.685-.479.411-.753.616-.411.411-1.027.959-.411.411-.616.685-.411.479-.616.753-.479.616-.685.89-.411.548-.479.685-.411.548-.753,1.164-.342.548-.411.753-.342.616-.411.753-.274.548h0l-26.5,57.515-.411.959-.205.411h0a30.88,30.88,0,0,0,15.474,40.192h0l31.222,13.557h0l2.944,1.1h0l1.438.411h.068l1.369.342h.205l1.3.274h.274l1.232.137h1.506l-1.369-.137h-.274l-1.643-.274h-.274l-1.438-.342h-.205a25.059,25.059,0,0,1-3.15-1.164H255.6a25.266,25.266,0,0,1-3.013-1.575h0l-23.9-13.762h0a30.811,30.811,0,0,1-7.395-46.833h0l16.775-20.2.959-1.164.822-.959.137-.137h0l1.232-1.232.411-.411.89-.822.548-.479.822-.685.616-.479.822-.616.616-.479.822-.548.685-.411.822-.548.685-.411.822-.479.685-.342.89-.411.753-.342.89-.411.753-.274.959-.342.753-.274.959-.274.753-.205.959-.274.753-.205,1.027-.205.753-.137,1.1-.137h8.97l1.1.137.753.137,1.027.205.753.205.959.274.753.205.959.274.753.274.959.342.753.274.89.411.753.342.89.411.685.342.822.479.685.411.822.548.685.411.822.548.616.479.822.616.616.479.822.685.548.479.89.822.411.411,1.232,1.232h0l.137.137.822.959.959,1.164,16.775,20.2h0a30.811,30.811,0,0,1-7.669,46.765h0l-23.9,13.762h0a25.266,25.266,0,0,1-3.013,1.575h-.137A25.061,25.061,0,0,1,273.33,135h-.205l-1.438.342h-.274l-1.643.274H269.5l-1.369.137h1.78l1.232-.137h.274l1.3-.274h.205l1.369-.342h.068l1.438-.411h0l2.944-1.1h0l31.222-13.557h0a30.88,30.88,0,0,0,18.008-28.073Z" transform="translate(-64.497 -0.252)" fill="none" stroke="#000" stroke-miterlimit="10" stroke-width="0.685"/>
              <path id="Path_60781" data-name="Path 60781" d="M278.329,13.4l-1.1.137h-.205l-.89.137H275.8l-.89.205h-.137l-1.027.274h-.274l-.753.274-.274.137-.959.411h-.205l-.753.342-.342.137-.685.342-.274.137-.89.479-.274.205-.616.411-.342.205-.685.479-.274.205-.616.479-.342.274-.479.411-.274.274-.685.685-.274.274-.411.479-.274.342-.411.479-.342.411-.479.616-.274.342-.342.479-.274.411-.479.753-.205.342-.274.548-.205.411" transform="translate(-81.82 -4.225)" fill="none" stroke="#fcf7eb" stroke-linecap="round" stroke-miterlimit="10" stroke-width="6.847"/>
              <path id="Path_60782" data-name="Path 60782" d="M264.141,176.04l-1.369-.137H262.5l-1.643-.274h-.274l-1.438-.342h-.205a25.061,25.061,0,0,1-3.15-1.164h-.137a25.266,25.266,0,0,1-3.013-1.575h0l-23.9-13.762h0a31.017,31.017,0,0,1-10.2-9.723,30.88,30.88,0,0,1-13.9-21.363,30.811,30.811,0,0,0,17.6,32.592h0l31.222,13.557h0l2.944,1.1h0l1.438.411h.068l1.369.342h.205l1.3.274h.274l1.232.137H263.8" transform="translate(-64.414 -40.264)"/>
              <path id="Path_60783" data-name="Path 60783" d="M264.141,176.04l-1.369-.137H262.5l-1.643-.274h-.274l-1.438-.342h-.205a25.061,25.061,0,0,1-3.15-1.164h-.137a25.266,25.266,0,0,1-3.013-1.575h0l-23.9-13.762h0a31.017,31.017,0,0,1-10.2-9.723,30.88,30.88,0,0,1-13.9-21.363,30.811,30.811,0,0,0,17.6,32.592h0l31.222,13.557h0l2.944,1.1h0l1.438.411h.068l1.369.342h.205l1.3.274h.274l1.232.137H263.8Z" transform="translate(-64.414 -40.264)" fill="none" stroke="#000" stroke-miterlimit="10" stroke-width="0.685"/>
              <path id="Path_60784" data-name="Path 60784" d="M343.1,148.531a31.017,31.017,0,0,1-10.2,9.723h0L309,172.016h0a25.262,25.262,0,0,1-3.013,1.575h-.137a25.122,25.122,0,0,1-3.15,1.164H302.5l-1.438.342h-.274l-1.643.274h-.274l-1.369.137h1.712l1.232-.137h.274l1.3-.274h.205l1.369-.342h.069l1.438-.411h0l2.944-1.1h0l31.222-13.557h0a30.811,30.811,0,0,0,17.6-32.592,30.88,30.88,0,0,1-13.9,21.363" transform="translate(-93.802 -40.075)"/>
              <path id="Path_60785" data-name="Path 60785" d="M343.1,148.531a31.017,31.017,0,0,1-10.2,9.723h0L309,172.016h0a25.262,25.262,0,0,1-3.013,1.575h-.137a25.122,25.122,0,0,1-3.15,1.164H302.5l-1.438.342h-.274l-1.643.274h-.274l-1.369.137h1.712l1.232-.137h.274l1.3-.274h.205l1.369-.342h.069l1.438-.411h0l2.944-1.1h0l31.222-13.557h0a30.811,30.811,0,0,0,17.6-32.592A30.88,30.88,0,0,1,343.1,148.531Z" transform="translate(-93.802 -40.075)" fill="none" stroke="#000" stroke-miterlimit="10" stroke-width="0.685"/>
            </g>
          </g>
        </g>
      </g>
    </g>
  </g>
</svg>
