<svg xmlns="http://www.w3.org/2000/svg" xmlns:xlink="http://www.w3.org/1999/xlink" width="403.598" height="259.403" viewBox="0 0 403.598 259.403">
  <defs>
    <clipPath id="clip-path">
      <rect id="Rectangle_120588" data-name="Rectangle 120588" width="402" height="256.91" transform="translate(0 0)" fill="#fdfb76" stroke="#000" stroke-width="1.2"/>
    </clipPath>
    <clipPath id="clip-path-2">
      <rect id="Rectangle_131361" data-name="Rectangle 131361" width="378.408" height="298.828" fill="none"/>
    </clipPath>
    <clipPath id="clip-path-3">
      <path id="Path_60485" data-name="Path 60485" d="M248.158,118.4a5.858,5.858,0,0,0,0,11.716h28.663a5.858,5.858,0,1,0,0-11.716Z" transform="translate(-242.3 -118.4)" fill="none"/>
    </clipPath>
  </defs>
  <g id="Group_4017" data-name="Group 4017" transform="translate(1.174 1.2)">
    <g id="Group_4016" data-name="Group 4016" transform="translate(0 0)">
      <g id="Path_9561" data-name="Path 9561" transform="translate(0.026 0)" fill="#fdfb76">
        <path d="M 401.7982788085938 257.6025085449219 L 401.1982727050781 257.6025085449219 L 2.109375054715201e-05 257.6025085449219 L -0.5999789237976074 257.6025085449219 L -0.5999789237976074 257.0025024414062 L -0.5999789237976074 1.220703097715159e-06 L -0.5999789237976074 -0.5999987721443176 L 2.109375054715201e-05 -0.5999987721443176 L 401.1982727050781 -0.5999987721443176 L 401.7982788085938 -0.5999987721443176 L 401.7982788085938 1.220703097715159e-06 L 401.7982788085938 257.0025024414062 L 401.7982788085938 257.6025085449219 Z" stroke="none"/>
        <path d="M -3.0517578125e-05 0 L -3.0517578125e-05 257.0025024414062 L 401.1982116699219 257.0025024414062 L 401.1982116699219 0 L -3.0517578125e-05 0 M -1.200042724609375 -1.20001220703125 L 402.3982238769531 -1.20001220703125 L 402.3982238769531 258.2025146484375 L -1.200042724609375 258.2025146484375 L -1.200042724609375 -1.20001220703125 Z" stroke="none" fill="#000"/>
      </g>
      <g id="Mask_Group_3" data-name="Mask Group 3" transform="translate(0 0.093)" clip-path="url(#clip-path)">
        <g id="Artwork_40" data-name="Artwork 40" transform="translate(201 171.699)">
          <g id="Artwork_40-2" data-name="Artwork 40" transform="translate(-189.204 -149.414)">
            <g id="Group_12247" data-name="Group 12247" clip-path="url(#clip-path-2)">
              <path id="Path_60462" data-name="Path 60462" d="M294.8,134.176H211.6V42.05a41.6,41.6,0,0,1,83.2,0Z" transform="translate(-64.031 -0.136)" fill="#8e0bfa"/>
              <path id="Path_60463" data-name="Path 60463" d="M294.8,134.176H211.6V42.05a41.6,41.6,0,0,1,83.2,0Z" transform="translate(-64.031 -0.136)" fill="none" stroke="#000" stroke-miterlimit="10" stroke-width="0.697"/>
              <path id="Path_60464" data-name="Path 60464" d="M260.139,153.461H246.261A34.661,34.661,0,0,1,211.6,118.8v51.189h83.2V118.8a34.661,34.661,0,0,1-34.661,34.661" transform="translate(-64.031 -35.949)"/>
              <path id="Path_60465" data-name="Path 60465" d="M260.139,153.461H246.261A34.661,34.661,0,0,1,211.6,118.8v51.189h83.2V118.8A34.661,34.661,0,0,1,260.139,153.461Z" transform="translate(-64.031 -35.949)" fill="none" stroke="#000" stroke-miterlimit="10" stroke-width="0.697"/>
              <path id="Path_60466" data-name="Path 60466" d="M286.344,34.4a10.252,10.252,0,0,1-18.9,5.3,20.5,20.5,0,0,1-11.577,11.019A20.5,20.5,0,0,1,244.221,39.7a10.252,10.252,0,0,1-18.9-5.3A35.428,35.428,0,0,0,220.3,52.672v2.65a18.2,18.2,0,0,0,18.2,18.2h.209a8.648,8.648,0,0,0-.209,12.065h-3.278A13.251,13.251,0,0,0,221.974,98.84h0a13.251,13.251,0,0,0,13.251,13.251H276.44A13.251,13.251,0,0,0,289.691,98.84h0A13.251,13.251,0,0,0,276.44,85.589h-3.278a8.648,8.648,0,0,0-.209-12.065h.209a18.2,18.2,0,0,0,18.2-18.2v-2.65A35.427,35.427,0,0,0,286.344,34.4" transform="translate(-66.663 -10.41)" fill="#00db96"/>
              <path id="Path_60467" data-name="Path 60467" d="M286.344,34.4a10.252,10.252,0,0,1-18.9,5.3,20.5,20.5,0,0,1-11.577,11.019A20.5,20.5,0,0,1,244.221,39.7a10.252,10.252,0,0,1-18.9-5.3A35.428,35.428,0,0,0,220.3,52.672v2.65a18.2,18.2,0,0,0,18.2,18.2h.209a8.648,8.648,0,0,0-.209,12.065h-3.278A13.251,13.251,0,0,0,221.974,98.84h0a13.251,13.251,0,0,0,13.251,13.251H276.44A13.251,13.251,0,0,0,289.691,98.84h0A13.251,13.251,0,0,0,276.44,85.589h-3.278a8.648,8.648,0,0,0-.209-12.065h.209a18.2,18.2,0,0,0,18.2-18.2v-2.65A35.427,35.427,0,0,0,286.344,34.4Z" transform="translate(-66.663 -10.41)" fill="none" stroke="#000" stroke-miterlimit="10" stroke-width="0.697"/>
              <path id="Path_60468" data-name="Path 60468" d="M286.344,38.8a10.252,10.252,0,0,1-18.9,5.3,20.5,20.5,0,0,1-11.577,11.019A20.5,20.5,0,0,1,244.29,44.1a10.252,10.252,0,0,1-18.9-5.3A35.428,35.428,0,0,0,220.3,57.072v2.65a18.2,18.2,0,0,0,18.2,18.2h.209a8.648,8.648,0,0,0-.209,12.065h-3.278a13.251,13.251,0,1,0,0,26.5h41.216a13.251,13.251,0,0,0,0-26.5h-3.278a8.648,8.648,0,0,0-.209-12.065h.209a18.2,18.2,0,0,0,18.2-18.2v-2.65A35.428,35.428,0,0,0,286.344,38.8" transform="translate(-66.663 -11.741)"/>
              <path id="Path_60469" data-name="Path 60469" d="M286.344,38.8a10.252,10.252,0,0,1-18.9,5.3,20.5,20.5,0,0,1-11.577,11.019A20.5,20.5,0,0,1,244.29,44.1a10.252,10.252,0,0,1-18.9-5.3A35.428,35.428,0,0,0,220.3,57.072v2.65a18.2,18.2,0,0,0,18.2,18.2h.209a8.648,8.648,0,0,0-.209,12.065h-3.278a13.251,13.251,0,1,0,0,26.5h41.216a13.251,13.251,0,0,0,0-26.5h-3.278a8.648,8.648,0,0,0-.209-12.065h.209a18.2,18.2,0,0,0,18.2-18.2v-2.65A35.428,35.428,0,0,0,286.344,38.8Z" transform="translate(-66.663 -11.741)" fill="none" stroke="#000" stroke-miterlimit="10" stroke-width="0.697"/>
              <path id="Path_60470" data-name="Path 60470" d="M286.344,34.4a10.252,10.252,0,0,1-18.9,5.3,20.5,20.5,0,0,1-11.577,11.019A20.5,20.5,0,0,1,244.221,39.7a10.252,10.252,0,0,1-18.9-5.3A35.428,35.428,0,0,0,220.3,52.672v2.65a18.2,18.2,0,0,0,18.2,18.2h.209a8.648,8.648,0,0,0-.209,12.065h-3.278A13.251,13.251,0,0,0,221.974,98.84h0a13.251,13.251,0,0,0,13.251,13.251H276.44A13.251,13.251,0,0,0,289.691,98.84h0A13.251,13.251,0,0,0,276.44,85.589h-3.278a8.648,8.648,0,0,0-.209-12.065h.209a18.2,18.2,0,0,0,18.2-18.2v-2.65A35.427,35.427,0,0,0,286.344,34.4" transform="translate(-66.663 -10.41)" fill="#00db96"/>
              <path id="Path_60471" data-name="Path 60471" d="M286.344,34.4a10.252,10.252,0,0,1-18.9,5.3,20.5,20.5,0,0,1-11.577,11.019A20.5,20.5,0,0,1,244.221,39.7a10.252,10.252,0,0,1-18.9-5.3A35.428,35.428,0,0,0,220.3,52.672v2.65a18.2,18.2,0,0,0,18.2,18.2h.209a8.648,8.648,0,0,0-.209,12.065h-3.278A13.251,13.251,0,0,0,221.974,98.84h0a13.251,13.251,0,0,0,13.251,13.251H276.44A13.251,13.251,0,0,0,289.691,98.84h0A13.251,13.251,0,0,0,276.44,85.589h-3.278a8.648,8.648,0,0,0-.209-12.065h.209a18.2,18.2,0,0,0,18.2-18.2v-2.65A35.427,35.427,0,0,0,286.344,34.4Z" transform="translate(-66.663 -10.41)" fill="none" stroke="#000" stroke-miterlimit="10" stroke-width="0.697"/>
              <path id="Path_60472" data-name="Path 60472" d="M273.45,98.475a3.975,3.975,0,1,1-3.975-3.975,3.975,3.975,0,0,1,3.975,3.975" transform="translate(-80.341 -28.596)" fill="#8e0bfa"/>
              <path id="Path_60473" data-name="Path 60473" d="M273.45,98.475a3.975,3.975,0,1,1-3.975-3.975A3.975,3.975,0,0,1,273.45,98.475Z" transform="translate(-80.341 -28.596)" fill="none" stroke="#000" stroke-miterlimit="10" stroke-width="0.697"/>
              <path id="Path_60474" data-name="Path 60474" d="M300.359,68.75,289.828,73.7a6.277,6.277,0,0,1-5.3-11.368l10.531-4.882a6.277,6.277,0,0,1,5.3,11.3" transform="translate(-85.072 -17.282)" fill="#fcf7eb"/>
              <path id="Path_60475" data-name="Path 60475" d="M300.359,68.75,289.828,73.7a6.277,6.277,0,0,1-5.3-11.368l10.531-4.882a6.277,6.277,0,0,1,5.3,11.3Z" transform="translate(-85.072 -17.282)" fill="none" stroke="#000" stroke-miterlimit="10" stroke-width="0.697"/>
              <path id="Path_60476" data-name="Path 60476" d="M230.459,68.5l10.531,4.952a6.277,6.277,0,0,0,5.3-11.368L235.76,57.2a6.277,6.277,0,1,0-5.3,11.3" transform="translate(-68.454 -17.032)" fill="#fcf7eb"/>
              <path id="Path_60477" data-name="Path 60477" d="M230.459,68.5l10.531,4.952a6.277,6.277,0,0,0,5.3-11.368L235.76,57.2a6.277,6.277,0,1,0-5.3,11.3Z" transform="translate(-68.454 -17.032)" fill="none" stroke="#000" stroke-miterlimit="10" stroke-width="0.697"/>
              <path id="Path_60478" data-name="Path 60478" d="M297.45,68.475a3.975,3.975,0,1,1-3.975-3.975,3.975,3.975,0,0,1,3.975,3.975" transform="translate(-87.603 -19.518)"/>
              <path id="Path_60479" data-name="Path 60479" d="M297.45,68.475a3.975,3.975,0,1,1-3.975-3.975,3.975,3.975,0,0,1,3.975,3.975Z" transform="translate(-87.603 -19.518)" fill="none" stroke="#000" stroke-miterlimit="10" stroke-width="0.697"/>
              <path id="Path_60480" data-name="Path 60480" d="M240.1,68.475a3.975,3.975,0,1,0,3.975-3.975,3.975,3.975,0,0,0-3.975,3.975" transform="translate(-72.655 -19.518)"/>
              <path id="Path_60481" data-name="Path 60481" d="M240.1,68.475a3.975,3.975,0,1,0,3.975-3.975A3.975,3.975,0,0,0,240.1,68.475Z" transform="translate(-72.655 -19.518)" fill="none" stroke="#000" stroke-miterlimit="10" stroke-width="0.697"/>
              <path id="Path_60482" data-name="Path 60482" d="M275.369,132.011H246.706a9.206,9.206,0,1,1,0-18.411h28.663a9.206,9.206,0,1,1,0,18.411" transform="translate(-71.868 -34.376)" fill="#ff0d5b"/>
              <path id="Path_60483" data-name="Path 60483" d="M275.369,132.011H246.706a9.206,9.206,0,1,1,0-18.411h28.663a9.206,9.206,0,1,1,0,18.411Z" transform="translate(-71.868 -34.376)" fill="none" stroke="#000" stroke-miterlimit="10" stroke-width="0.697"/>
              <path id="Path_60484" data-name="Path 60484" d="M276.821,130.116H248.158a5.858,5.858,0,1,1,0-11.716h28.663a5.858,5.858,0,0,1,0,11.716Z" transform="translate(-73.32 -35.828)" fill="none" stroke="#000" stroke-miterlimit="10" stroke-width="0.697"/>
            </g>
            <g id="Group_12248" data-name="Group 12248" transform="translate(168.98 82.572)" clip-path="url(#clip-path-3)">
              <rect id="Rectangle_131362" data-name="Rectangle 131362" width="10.112" height="11.688" transform="translate(0 0)" fill="#fcf7eb"/>
              <rect id="Rectangle_131363" data-name="Rectangle 131363" width="10.112" height="11.688" transform="translate(0 0)" fill="none" stroke="#000" stroke-miterlimit="10" stroke-width="0.697"/>
              <rect id="Rectangle_131364" data-name="Rectangle 131364" width="10.112" height="11.688" transform="translate(10.112 0)" fill="#fcf7eb"/>
              <rect id="Rectangle_131365" data-name="Rectangle 131365" width="10.112" height="11.688" transform="translate(10.112 0)" fill="none" stroke="#000" stroke-miterlimit="10" stroke-width="0.697"/>
              <rect id="Rectangle_131366" data-name="Rectangle 131366" width="10.112" height="11.688" transform="translate(20.225 0)" fill="#fcf7eb"/>
              <rect id="Rectangle_131367" data-name="Rectangle 131367" width="10.112" height="11.688" transform="translate(20.225 0)" fill="none" stroke="#000" stroke-miterlimit="10" stroke-width="0.697"/>
              <rect id="Rectangle_131368" data-name="Rectangle 131368" width="10.112" height="11.688" transform="translate(30.267 0)" fill="#fcf7eb"/>
              <rect id="Rectangle_131369" data-name="Rectangle 131369" width="10.112" height="11.688" transform="translate(30.267 0)" fill="none" stroke="#000" stroke-miterlimit="10" stroke-width="0.697"/>
            </g>
            <g id="Group_12249" data-name="Group 12249" clip-path="url(#clip-path-2)">
              <path id="Path_60486" data-name="Path 60486" d="M276.821,130.116H248.158a5.858,5.858,0,1,1,0-11.716h28.663a5.858,5.858,0,0,1,0,11.716Z" transform="translate(-73.32 -35.828)" fill="none" stroke="#000" stroke-miterlimit="10" stroke-width="0.697"/>
              <path id="Path_60487" data-name="Path 60487" d="M307.593,281.319V194.842A23.642,23.642,0,0,0,283.951,171.2H183.526a23.642,23.642,0,0,0-23.642,23.642v86.477A39.961,39.961,0,0,0,187.5,350.292h92.545a39.961,39.961,0,0,0,27.547-68.973" transform="translate(-44.604 -51.805)" fill="#ff0d5b"/>
              <path id="Path_60488" data-name="Path 60488" d="M307.593,281.319V194.842A23.642,23.642,0,0,0,283.951,171.2H183.526a23.642,23.642,0,0,0-23.642,23.642v86.477A39.961,39.961,0,0,0,187.5,350.292h92.545a39.961,39.961,0,0,0,27.547-68.973Z" transform="translate(-44.604 -51.805)" fill="none" stroke="#000" stroke-miterlimit="10" stroke-width="0.697"/>
              <path id="Path_60489" data-name="Path 60489" d="M369.254,192.311v81.6a38.143,38.143,0,0,1,4.184,4.673V197.263A23.572,23.572,0,0,0,365,179.2a22.178,22.178,0,0,1,4.254,13.111" transform="translate(-110.45 -54.226)"/>
              <path id="Path_60490" data-name="Path 60490" d="M369.254,192.311v81.6a38.143,38.143,0,0,1,4.184,4.673V197.263A23.572,23.572,0,0,0,365,179.2,22.178,22.178,0,0,1,369.254,192.311Z" transform="translate(-110.45 -54.226)" fill="none" stroke="#000" stroke-miterlimit="10" stroke-width="0.697"/>
              <path id="Path_60491" data-name="Path 60491" d="M313.913,340.1a37.729,37.729,0,0,1-36.4,47.632H190.125a37.729,37.729,0,0,1-36.4-47.632,39.961,39.961,0,0,0,33.824,61.3h92.545a39.961,39.961,0,0,0,33.824-61.3" transform="translate(-44.647 -102.915)"/>
              <path id="Path_60492" data-name="Path 60492" d="M313.913,340.1a37.729,37.729,0,0,1-36.4,47.632H190.125a37.729,37.729,0,0,1-36.4-47.632,39.961,39.961,0,0,0,33.824,61.3h92.545a39.961,39.961,0,0,0,33.824-61.3Z" transform="translate(-44.647 -102.915)" fill="none" stroke="#000" stroke-miterlimit="10" stroke-width="0.697"/>
              <path id="Path_60493" data-name="Path 60493" d="M169.584,273.907v-81.6a22.178,22.178,0,0,1,4.254-13.111,23.572,23.572,0,0,0-8.439,18.063v81.386a38.15,38.15,0,0,1,4.184-4.673" transform="translate(-50.05 -54.226)"/>
              <path id="Path_60494" data-name="Path 60494" d="M169.584,273.907v-81.6a22.178,22.178,0,0,1,4.254-13.111,23.572,23.572,0,0,0-8.439,18.063v81.386a38.151,38.151,0,0,1,4.184-4.742Z" transform="translate(-50.05 -54.226)" fill="none" stroke="#000" stroke-miterlimit="10" stroke-width="0.697"/>
              <path id="Path_60495" data-name="Path 60495" d="M369.057,302.428A21.829,21.829,0,1,1,347.229,280.6a21.829,21.829,0,0,1,21.829,21.828" transform="translate(-98.467 -84.91)" fill="#00db96"/>
              <ellipse id="Ellipse_514" data-name="Ellipse 514" cx="21.829" cy="21.829" rx="21.829" ry="21.829" transform="translate(225.024 197.779) rotate(-5.7)" fill="none" stroke="#000" stroke-miterlimit="10" stroke-width="0.697"/>
              <path id="Path_60496" data-name="Path 60496" d="M201.4,171.3c.279,18.342,21.968,33.126,48.678,33.126s48.4-14.785,48.678-33.126Z" transform="translate(-60.944 -51.836)" fill="#00db96"/>
              <path id="Path_60497" data-name="Path 60497" d="M201.4,171.3c.279,18.342,21.968,33.126,48.678,33.126s48.4-14.785,48.678-33.126Z" transform="translate(-60.944 -51.836)" fill="none" stroke="#000" stroke-miterlimit="10" stroke-width="0.697"/>
              <path id="Path_60498" data-name="Path 60498" d="M180.6,173.5c5.579,10.182,7.462,24.2,4.184,38.845s-10.461,25.8-19.388,32.778V195.607a23.642,23.642,0,0,1,15.2-22.038" transform="translate(-50.05 -52.501)"/>
              <path id="Path_60499" data-name="Path 60499" d="M180.6,173.5c5.579,10.182,7.462,24.2,4.184,38.845s-10.461,25.8-19.388,32.778V195.607A23.642,23.642,0,0,1,180.6,173.5Z" transform="translate(-50.05 -52.501)" fill="none" stroke="#000" stroke-miterlimit="10" stroke-width="0.697"/>
              <path id="Path_60500" data-name="Path 60500" d="M241,21.683A29.221,29.221,0,0,1,258.226,14.5" transform="translate(-72.927 -4.388)" fill="none" stroke="#fcf7eb" stroke-linecap="round" stroke-miterlimit="10" stroke-width="6.974"/>
              <path id="Path_60501" data-name="Path 60501" d="M198.331,288.37c.07.837.139,1.674.139,2.511A26.71,26.71,0,0,1,147.7,302.387,26.71,26.71,0,1,0,198.331,288.3" transform="translate(-44.694 -87.24)"/>
              <path id="Path_60502" data-name="Path 60502" d="M198.331,288.37c.07.837.139,1.674.139,2.511A26.71,26.71,0,0,1,147.7,302.387,26.71,26.71,0,1,0,198.331,288.3Z" transform="translate(-44.694 -87.24)" fill="none" stroke="#000" stroke-miterlimit="10" stroke-width="0.697"/>
              <rect id="Rectangle_131370" data-name="Rectangle 131370" width="83.018" height="33.771" transform="matrix(0.821, -0.571, 0.571, 0.821, 23.379, 194.718)" fill="#8e0bfa"/>
              <rect id="Rectangle_131371" data-name="Rectangle 131371" width="83.018" height="33.771" transform="matrix(0.821, -0.571, 0.571, 0.821, 23.379, 194.718)" fill="none" stroke="#000" stroke-miterlimit="10" stroke-width="0.696"/>
              <rect id="Rectangle_131372" data-name="Rectangle 131372" width="83.018" height="7.633" transform="matrix(0.821, -0.571, 0.571, 0.821, 38.328, 216.161)"/>
              <rect id="Rectangle_131373" data-name="Rectangle 131373" width="83.018" height="7.633" transform="matrix(0.821, -0.571, 0.571, 0.821, 38.328, 216.161)" fill="none" stroke="#000" stroke-miterlimit="10" stroke-width="0.696"/>
              <path id="Path_60503" data-name="Path 60503" d="M.6,293.31A26.71,26.71,0,1,0,27.31,266.6,26.71,26.71,0,0,0,.6,293.31" transform="translate(-0.182 -80.674)" fill="#00db96"/>
              <circle id="Ellipse_515" data-name="Ellipse 515" cx="26.71" cy="26.71" r="26.71" transform="translate(0.349 185.926)" fill="none" stroke="#000" stroke-miterlimit="10" stroke-width="0.697"/>
              <path id="Path_60504" data-name="Path 60504" d="M51.361,288.37c.07.837.139,1.674.139,2.511A26.71,26.71,0,0,1,.8,302.387,26.71,26.71,0,1,0,51.431,288.3" transform="translate(-0.242 -87.24)"/>
              <path id="Path_60505" data-name="Path 60505" d="M51.361,288.37c.07.837.139,1.674.139,2.511A26.71,26.71,0,0,1,.8,302.387,26.71,26.71,0,1,0,51.431,288.3Z" transform="translate(-0.242 -87.24)" fill="none" stroke="#000" stroke-miterlimit="10" stroke-width="0.697"/>
              <path id="Path_60506" data-name="Path 60506" d="M59.6,322.524h77.9V288.7H69.224Z" transform="translate(-18.035 -87.361)" fill="#8e0bfa"/>
              <path id="Path_60507" data-name="Path 60507" d="M59.6,322.524h77.9V288.7H69.224Z" transform="translate(-18.035 -87.361)" fill="none" stroke="#000" stroke-miterlimit="10" stroke-width="0.697"/>
              <path id="Path_60508" data-name="Path 60508" d="M59.6,333.6h77.9v-8.3H61.762Z" transform="translate(-18.035 -98.436)"/>
              <path id="Path_60509" data-name="Path 60509" d="M59.6,333.6h77.9v-8.3H61.762Z" transform="translate(-18.035 -98.436)" fill="none" stroke="#000" stroke-miterlimit="10" stroke-width="0.697"/>
              <path id="Path_60510" data-name="Path 60510" d="M154.6,302.428A21.829,21.829,0,1,0,176.429,280.6,21.829,21.829,0,0,0,154.6,302.428" transform="translate(-46.782 -84.91)" fill="#00db96"/>
              <ellipse id="Ellipse_516" data-name="Ellipse 516" cx="21.829" cy="21.829" rx="21.829" ry="21.829" transform="translate(107.818 195.69)" fill="none" stroke="#000" stroke-miterlimit="10" stroke-width="0.697"/>
              <path id="Path_60511" data-name="Path 60511" d="M130.84,170.7a35.009,35.009,0,0,1,20.922,6.9,23.642,23.642,0,0,1,7.881-4.952c3.975,7.253,6.067,16.459,5.719,26.5a66.254,66.254,0,0,1-1.534,12.344,64.44,64.44,0,0,1-6.9,18.063,49.933,49.933,0,0,1-12.483,14.715v-5.928a35.149,35.149,0,1,1-13.6-67.648" transform="translate(-29.02 -51.654)" fill="#00db96"/>
              <path id="Path_60512" data-name="Path 60512" d="M130.84,170.7a35.009,35.009,0,0,1,20.922,6.9,23.642,23.642,0,0,1,7.881-4.952c3.975,7.253,6.067,16.459,5.719,26.5a66.254,66.254,0,0,1-1.534,12.344,64.44,64.44,0,0,1-6.9,18.063,49.933,49.933,0,0,1-12.483,14.715v-5.928a35.149,35.149,0,1,1-13.6-67.648Z" transform="translate(-29.02 -51.654)" fill="none" stroke="#000" stroke-miterlimit="10" stroke-width="0.697"/>
              <path id="Path_60513" data-name="Path 60513" d="M196.025,298.3c.07.7.07,1.395.07,2.092a21.829,21.829,0,0,1-41.5,9.415A21.829,21.829,0,1,0,196.025,298.3" transform="translate(-46.782 -90.266)"/>
              <path id="Path_60514" data-name="Path 60514" d="M196.025,298.3c.07.7.07,1.395.07,2.092a21.829,21.829,0,0,1-41.5,9.415A21.829,21.829,0,1,0,196.025,298.3Z" transform="translate(-46.782 -90.266)" fill="none" stroke="#000" stroke-miterlimit="10" stroke-width="0.697"/>
              <path id="Path_60515" data-name="Path 60515" d="M120,190.816a26.153,26.153,0,0,1,15.413-6.416" transform="translate(-36.312 -55.8)" fill="none" stroke="#fcf7eb" stroke-linecap="round" stroke-miterlimit="10" stroke-width="6.974"/>
              <path id="Path_60516" data-name="Path 60516" d="M19,284.719A23.433,23.433,0,0,1,32.808,279" transform="translate(-5.749 -84.426)" fill="none" stroke="#fcf7eb" stroke-linecap="round" stroke-miterlimit="10" stroke-width="6.974"/>
              <path id="Path_60517" data-name="Path 60517" d="M129.6,248.351a37.59,37.59,0,0,1-33.2-19.876,35.219,35.219,0,0,0,48.19,26.083v5.928A50,50,0,0,0,157,245.771a64.441,64.441,0,0,0,6.9-18.063q.349-1.6.628-3.208a37.659,37.659,0,0,1-34.94,23.851" transform="translate(-29.171 -67.934)"/>
              <path id="Path_60518" data-name="Path 60518" d="M129.6,248.351a37.59,37.59,0,0,1-33.2-19.876,35.219,35.219,0,0,0,48.19,26.083v5.928A50,50,0,0,0,157,245.771a64.441,64.441,0,0,0,6.9-18.063q.349-1.6.628-3.208a37.659,37.659,0,0,1-34.94,23.851Z" transform="translate(-29.171 -67.934)" fill="none" stroke="#000" stroke-miterlimit="10" stroke-width="0.697"/>
              <rect id="Rectangle_131374" data-name="Rectangle 131374" width="33.824" height="83.137" transform="translate(267.823 176.236) rotate(-55.6)" fill="#8e0bfa"/>
              <rect id="Rectangle_131375" data-name="Rectangle 131375" width="33.824" height="83.137" transform="translate(267.823 176.236) rotate(-55.6)" fill="none" stroke="#000" stroke-miterlimit="10" stroke-width="0.697"/>
              <rect id="Rectangle_131376" data-name="Rectangle 131376" width="7.671" height="83.137" transform="translate(267.742 176.248) rotate(-55.6)"/>
              <rect id="Rectangle_131377" data-name="Rectangle 131377" width="7.671" height="83.137" transform="translate(267.742 176.248) rotate(-55.6)" fill="none" stroke="#000" stroke-miterlimit="10" stroke-width="0.697"/>
              <path id="Path_60519" data-name="Path 60519" d="M518.821,293.31a26.71,26.71,0,1,1-26.71-26.71,26.71,26.71,0,0,1,26.71,26.71" transform="translate(-140.831 -80.674)" fill="#00db96"/>
              <circle id="Ellipse_517" data-name="Ellipse 517" cx="26.71" cy="26.71" r="26.71" transform="translate(324.569 185.926)" fill="none" stroke="#000" stroke-miterlimit="10" stroke-width="0.697"/>
              <path id="Path_60520" data-name="Path 60520" d="M468.037,288.37c-.07.837-.139,1.674-.139,2.511a26.71,26.71,0,0,0,50.771,11.507A26.71,26.71,0,1,1,468.037,288.3" transform="translate(-140.818 -87.24)"/>
              <path id="Path_60521" data-name="Path 60521" d="M468.037,288.37c-.07.837-.139,1.674-.139,2.511a26.71,26.71,0,0,0,50.771,11.507A26.71,26.71,0,1,1,468.037,288.3Z" transform="translate(-140.818 -87.24)" fill="none" stroke="#000" stroke-miterlimit="10" stroke-width="0.697"/>
              <path id="Path_60522" data-name="Path 60522" d="M449.2,322.524H371.3V288.7h68.275Z" transform="translate(-112.356 -87.361)" fill="#8e0bfa"/>
              <path id="Path_60523" data-name="Path 60523" d="M449.2,322.524H371.3V288.7h68.275Z" transform="translate(-112.356 -87.361)" fill="none" stroke="#000" stroke-miterlimit="10" stroke-width="0.697"/>
              <path id="Path_60524" data-name="Path 60524" d="M449.2,333.6H371.3v-8.3h75.737Z" transform="translate(-112.356 -98.436)"/>
              <path id="Path_60525" data-name="Path 60525" d="M449.2,333.6H371.3v-8.3h75.737Z" transform="translate(-112.356 -98.436)" fill="none" stroke="#000" stroke-miterlimit="10" stroke-width="0.697"/>
              <path id="Path_60526" data-name="Path 60526" d="M369.057,302.428A21.829,21.829,0,1,1,347.229,280.6a21.829,21.829,0,0,1,21.829,21.828" transform="translate(-98.467 -84.91)" fill="#00db96"/>
              <ellipse id="Ellipse_518" data-name="Ellipse 518" cx="21.829" cy="21.829" rx="21.829" ry="21.829" transform="translate(225.024 197.779) rotate(-5.7)" fill="none" stroke="#000" stroke-miterlimit="10" stroke-width="0.697"/>
              <path id="Path_60527" data-name="Path 60527" d="M381.6,170.7a35.009,35.009,0,0,0-20.922,6.9,23.643,23.643,0,0,0-7.881-4.952c-3.975,7.253-6.067,16.459-5.719,26.5a66.25,66.25,0,0,0,1.534,12.344,64.44,64.44,0,0,0,6.9,18.063,50,50,0,0,0,12.483,14.715v-5.928A35.149,35.149,0,1,0,381.6,170.7" transform="translate(-105.017 -51.654)" fill="#00db96"/>
              <path id="Path_60528" data-name="Path 60528" d="M381.6,170.7a35.009,35.009,0,0,0-20.922,6.9,23.643,23.643,0,0,0-7.881-4.952c-3.975,7.253-6.067,16.459-5.719,26.5a66.25,66.25,0,0,0,1.534,12.344,64.44,64.44,0,0,0,6.9,18.063,50,50,0,0,0,12.483,14.715v-5.928A35.149,35.149,0,1,0,381.6,170.7Z" transform="translate(-105.017 -51.654)" fill="none" stroke="#000" stroke-miterlimit="10" stroke-width="0.697"/>
              <path id="Path_60529" data-name="Path 60529" d="M327.676,298.3c-.07.7-.07,1.395-.07,2.092a21.829,21.829,0,0,0,41.5,9.415A21.829,21.829,0,1,1,327.676,298.3" transform="translate(-98.511 -90.266)"/>
              <path id="Path_60530" data-name="Path 60530" d="M327.676,298.3c-.07.7-.07,1.395-.07,2.092a21.829,21.829,0,0,0,41.5,9.415A21.829,21.829,0,1,1,327.676,298.3Z" transform="translate(-98.511 -90.266)" fill="none" stroke="#000" stroke-miterlimit="10" stroke-width="0.697"/>
              <path id="Path_60531" data-name="Path 60531" d="M517.608,284.719A23.432,23.432,0,0,0,503.8,279" transform="translate(-152.451 -84.426)" fill="none" stroke="#fcf7eb" stroke-linecap="round" stroke-miterlimit="10" stroke-width="6.974"/>
              <path id="Path_60532" data-name="Path 60532" d="M383.409,248.351a37.59,37.59,0,0,0,33.2-19.876,35.219,35.219,0,0,1-48.19,26.083v5.928a50,50,0,0,1-12.483-14.715,64.438,64.438,0,0,1-6.9-18.063q-.349-1.6-.628-3.208a37.659,37.659,0,0,0,35.009,23.851" transform="translate(-105.427 -67.934)"/>
              <path id="Path_60533" data-name="Path 60533" d="M383.409,248.351a37.59,37.59,0,0,0,33.2-19.876,35.219,35.219,0,0,1-48.19,26.083v5.928a50,50,0,0,1-12.483-14.715,64.438,64.438,0,0,1-6.9-18.063q-.349-1.6-.628-3.208A37.659,37.659,0,0,0,383.409,248.351Z" transform="translate(-105.427 -67.934)" fill="none" stroke="#000" stroke-miterlimit="10" stroke-width="0.697"/>
              <path id="Path_60534" data-name="Path 60534" d="M379.6,187.608a25.037,25.037,0,0,1,10.81-3.208" transform="translate(-114.868 -55.8)" fill="none" stroke="#fcf7eb" stroke-linecap="round" stroke-miterlimit="10" stroke-width="6.974"/>
              <path id="Path_60535" data-name="Path 60535" d="M286.8,335.968H188.951a14.436,14.436,0,0,1-6.625-1.6l-15.761-8.16a4.184,4.184,0,0,1,3.138-6.9H306.044a4.184,4.184,0,0,1,3.138,6.9l-15.761,8.16a14.436,14.436,0,0,1-6.625,1.6" transform="translate(-50.099 -96.621)"/>
              <path id="Path_60536" data-name="Path 60536" d="M286.8,335.968H188.951a14.436,14.436,0,0,1-6.625-1.6l-15.761-8.16a4.184,4.184,0,0,1,3.138-6.9H306.044a4.184,4.184,0,0,1,3.138,6.9l-15.761,8.16a14.436,14.436,0,0,1-6.625,1.6Z" transform="translate(-50.099 -96.621)" fill="none" stroke="#000" stroke-miterlimit="10" stroke-width="0.697"/>
              <path id="Path_60537" data-name="Path 60537" d="M291.625,312.214H196.361A10.461,10.461,0,0,1,185.9,301.753V251.261A10.461,10.461,0,0,1,196.361,240.8h95.265a10.461,10.461,0,0,1,10.461,10.461v50.492a10.461,10.461,0,0,1-10.461,10.461" transform="translate(-56.254 -72.867)" fill="#fdfb76"/>
              <rect id="Rectangle_131378" data-name="Rectangle 131378" width="116.186" height="71.407" rx="10.461" transform="translate(129.646 167.933)" fill="none" stroke="#000" stroke-miterlimit="10" stroke-width="0.697"/>
              <path id="Path_60538" data-name="Path 60538" d="M291.625,326.761H196.361A10.461,10.461,0,0,1,185.9,316.3v8.3a10.461,10.461,0,0,0,10.461,10.461h95.265A10.461,10.461,0,0,0,302.087,324.6v-8.3a10.461,10.461,0,0,1-10.461,10.461" transform="translate(-56.254 -95.713)"/>
              <path id="Path_60539" data-name="Path 60539" d="M291.625,326.761H196.361A10.461,10.461,0,0,1,185.9,316.3v8.3a10.461,10.461,0,0,0,10.461,10.461h95.265A10.461,10.461,0,0,0,302.087,324.6v-8.3a10.461,10.461,0,0,1-10.461,10.461Z" transform="translate(-56.254 -95.713)" fill="none" stroke="#000" stroke-miterlimit="10" stroke-width="0.697"/>
              <path id="Path_60540" data-name="Path 60540" d="M199.1,256.945c0-2.3,3-4.045,5.788-4.045h14.855" transform="translate(-60.248 -76.528)" fill="none" stroke="#fcf7eb" stroke-linecap="round" stroke-miterlimit="10" stroke-width="6.974"/>
              <path id="Path_60541" data-name="Path 60541" d="M276.4,279.545a10.252,10.252,0,1,0-15.622,8.717v6.067h10.74v-6.067a10.252,10.252,0,0,0,4.882-8.717" transform="translate(-77.435 -81.484)" fill="#fcf7eb"/>
              <path id="Path_60542" data-name="Path 60542" d="M276.4,279.545a10.252,10.252,0,1,0-15.622,8.717v6.067h10.74v-6.067A10.252,10.252,0,0,0,276.4,279.545Z" transform="translate(-77.435 -81.484)" fill="none" stroke="#000" stroke-miterlimit="10" stroke-width="0.697"/>
              <line id="Line_542" data-name="Line 542" y1="5.161" transform="translate(186.903 207.615)" fill="none" stroke="#000" stroke-miterlimit="10" stroke-width="0.697"/>
              <line id="Line_543" data-name="Line 543" y2="5.161" transform="translate(190.529 207.615)" fill="none" stroke="#000" stroke-miterlimit="10" stroke-width="0.697"/>
              <line id="Line_544" data-name="Line 544" y2="20.155" transform="translate(189.204 132.366)" fill="none" stroke="#000" stroke-linecap="round" stroke-miterlimit="10" stroke-width="0.697"/>
              <line id="Line_545" data-name="Line 545" y2="20.015" transform="translate(192.273 132.506)" fill="none" stroke="#000" stroke-linecap="round" stroke-miterlimit="10" stroke-width="0.697"/>
              <line id="Line_546" data-name="Line 546" y2="19.597" transform="translate(195.271 132.645)" fill="none" stroke="#000" stroke-linecap="round" stroke-miterlimit="10" stroke-width="0.697"/>
              <line id="Line_547" data-name="Line 547" y2="18.899" transform="translate(198.34 132.994)" fill="none" stroke="#000" stroke-linecap="round" stroke-miterlimit="10" stroke-width="0.697"/>
              <line id="Line_548" data-name="Line 548" y2="17.993" transform="translate(201.408 133.412)" fill="none" stroke="#000" stroke-linecap="round" stroke-miterlimit="10" stroke-width="0.697"/>
              <line id="Line_549" data-name="Line 549" y2="16.947" transform="translate(204.477 133.9)" fill="none" stroke="#000" stroke-linecap="round" stroke-miterlimit="10" stroke-width="0.697"/>
              <line id="Line_550" data-name="Line 550" y2="15.552" transform="translate(207.476 134.528)" fill="none" stroke="#000" stroke-linecap="round" stroke-miterlimit="10" stroke-width="0.697"/>
              <line id="Line_551" data-name="Line 551" y2="13.808" transform="translate(210.544 135.365)" fill="none" stroke="#000" stroke-linecap="round" stroke-miterlimit="10" stroke-width="0.697"/>
              <line id="Line_552" data-name="Line 552" y2="11.786" transform="translate(213.613 136.202)" fill="none" stroke="#000" stroke-linecap="round" stroke-miterlimit="10" stroke-width="0.697"/>
              <line id="Line_553" data-name="Line 553" y2="9.345" transform="translate(216.682 137.318)" fill="none" stroke="#000" stroke-linecap="round" stroke-miterlimit="10" stroke-width="0.697"/>
              <line id="Line_554" data-name="Line 554" y2="6.625" transform="translate(219.68 138.503)" fill="none" stroke="#000" stroke-linecap="round" stroke-miterlimit="10" stroke-width="0.697"/>
              <line id="Line_555" data-name="Line 555" y2="3.348" transform="translate(222.749 139.898)" fill="none" stroke="#000" stroke-linecap="round" stroke-miterlimit="10" stroke-width="0.697"/>
              <line id="Line_556" data-name="Line 556" y2="19.318" transform="translate(180.068 132.645)" fill="none" stroke="#000" stroke-linecap="round" stroke-miterlimit="10" stroke-width="0.697"/>
              <line id="Line_557" data-name="Line 557" y2="20.015" transform="translate(183.067 132.506)" fill="none" stroke="#000" stroke-linecap="round" stroke-miterlimit="10" stroke-width="0.697"/>
              <line id="Line_558" data-name="Line 558" y2="20.155" transform="translate(186.205 132.366)" fill="none" stroke="#000" stroke-linecap="round" stroke-miterlimit="10" stroke-width="0.697"/>
              <line id="Line_559" data-name="Line 559" y2="20.155" transform="translate(189.204 132.366)" fill="none" stroke="#000" stroke-linecap="round" stroke-miterlimit="10" stroke-width="0.697"/>
              <line id="Line_560" data-name="Line 560" y2="12.623" transform="translate(164.795 135.365)" fill="none" stroke="#000" stroke-linecap="round" stroke-miterlimit="10" stroke-width="0.697"/>
              <line id="Line_561" data-name="Line 561" y2="14.576" transform="translate(167.864 134.528)" fill="none" stroke="#000" stroke-linecap="round" stroke-miterlimit="10" stroke-width="0.697"/>
              <line id="Line_562" data-name="Line 562" y2="16.18" transform="translate(170.862 133.9)" fill="none" stroke="#000" stroke-linecap="round" stroke-miterlimit="10" stroke-width="0.697"/>
              <line id="Line_563" data-name="Line 563" y2="17.435" transform="translate(174.001 133.412)" fill="none" stroke="#000" stroke-linecap="round" stroke-miterlimit="10" stroke-width="0.697"/>
              <line id="Line_564" data-name="Line 564" y2="18.481" transform="translate(177 132.994)" fill="none" stroke="#000" stroke-linecap="round" stroke-miterlimit="10" stroke-width="0.697"/>
              <line id="Line_565" data-name="Line 565" y2="4.812" transform="translate(155.659 138.503)" fill="none" stroke="#000" stroke-linecap="round" stroke-miterlimit="10" stroke-width="0.697"/>
              <line id="Line_566" data-name="Line 566" y2="7.881" transform="translate(158.658 137.318)" fill="none" stroke="#000" stroke-linecap="round" stroke-miterlimit="10" stroke-width="0.697"/>
              <line id="Line_567" data-name="Line 567" y2="10.461" transform="translate(161.796 136.202)" fill="none" stroke="#000" stroke-linecap="round" stroke-miterlimit="10" stroke-width="0.697"/>
            </g>
          </g>
        </g>
      </g>
    </g>
  </g>
</svg>
