<svg xmlns="http://www.w3.org/2000/svg" xmlns:xlink="http://www.w3.org/1999/xlink" width="404.4" height="259.403" viewBox="0 0 404.4 259.403">
  <defs>
    <clipPath id="clip-path">
      <rect id="Rectangle_120588" data-name="Rectangle 120588" width="402" height="257.003" transform="translate(0 0)" fill="#fdfb76" stroke="#20211b" stroke-width="1"/>
    </clipPath>
    <clipPath id="clip-path-2">
      <rect id="Rectangle_131413" data-name="Rectangle 131413" width="331.555" height="367.416" fill="none"/>
    </clipPath>
  </defs>
  <g id="Group_4017" data-name="Group 4017" transform="translate(1.2 1.2)">
    <g id="Group_4016" data-name="Group 4016" transform="translate(0 0)">
      <g id="Rectangle_120587" data-name="Rectangle 120587" transform="translate(0)" fill="#8e0bfa" stroke="#000" stroke-width="1.2">
        <rect width="402" height="257.003" stroke="none"/>
        <rect x="-0.6" y="-0.6" width="403.2" height="258.203" fill="none"/>
      </g>
      <g id="Mask_Group_3" data-name="Mask Group 3" transform="translate(0 0)" clip-path="url(#clip-path)">
        <g id="Artwork_50" data-name="Artwork 50" transform="translate(204.727 159.837)">
          <g id="Group_12267" data-name="Group 12267" transform="translate(-165.777 -183.708)">
            <path id="Path_60948" data-name="Path 60948" d="M263.938,21.942l-9.7,9.7-9.637-9.7L254.237,1.2Z" transform="translate(-88.492 -0.434)" fill="#fdfb76"/>
            <g id="Group_12265" data-name="Group 12265" clip-path="url(#clip-path-2)">
              <path id="Path_60949" data-name="Path 60949" d="M263.938,21.942l-9.7,9.7-9.637-9.7L254.237,1.2Z" transform="translate(-88.492 -0.434)" fill="none" stroke="#231f20" stroke-miterlimit="10" stroke-width="0.638"/>
            </g>
            <path id="Path_60950" data-name="Path 60950" d="M258.036,1.2l-.957,2.042,7.467,16.019L255.1,28.707l2.936,2.936,9.7-9.7Z" transform="translate(-92.29 -0.434)"/>
            <g id="Group_12266" data-name="Group 12266" clip-path="url(#clip-path-2)">
              <path id="Path_60951" data-name="Path 60951" d="M258.036,1.2l-.957,2.042,7.467,16.019L255.1,28.707l2.936,2.936,9.7-9.7Z" transform="translate(-92.29 -0.434)" fill="none" stroke="#231f20" stroke-miterlimit="10" stroke-width="0.638"/>
              <path id="Path_60952" data-name="Path 60952" d="M263.2,48.95a7.85,7.85,0,1,1-7.85-7.85,7.85,7.85,0,0,1,7.85,7.85" transform="translate(-89.541 -14.869)" fill="#fdfb76"/>
              <path id="Path_60953" data-name="Path 60953" d="M263.2,48.95a7.85,7.85,0,1,1-7.85-7.85A7.85,7.85,0,0,1,263.2,48.95Z" transform="translate(-89.541 -14.869)" fill="none" stroke="#231f20" stroke-miterlimit="10" stroke-width="0.638"/>
              <path id="Path_60954" data-name="Path 60954" d="M261.313,45.5A7.85,7.85,0,0,1,247.4,50.35q0,.1,0,.191A7.85,7.85,0,1,0,261.313,45.5" transform="translate(-89.505 -16.461)"/>
              <path id="Path_60955" data-name="Path 60955" d="M261.313,45.5A7.85,7.85,0,0,1,247.4,50.35q0,.1,0,.191A7.85,7.85,0,1,0,261.313,45.5Z" transform="translate(-89.505 -16.461)" fill="none" stroke="#231f20" stroke-miterlimit="10" stroke-width="0.638"/>
              <path id="Path_60956" data-name="Path 60956" d="M196.3,144.7H129.481a18.7,18.7,0,0,0-30.954,19.466,18.764,18.764,0,0,0-3.51,35.038,23.04,23.04,0,0,0,31.528,33.507,33.826,33.826,0,0,0,61.78-7.467h7.914Z" transform="translate(-30.557 -50.309)" fill="#8e0bfa"/>
              <path id="Path_60957" data-name="Path 60957" d="M196.3,144.7H129.481a18.7,18.7,0,0,0-30.954,19.466,18.764,18.764,0,0,0-3.51,35.038,23.04,23.04,0,0,0,31.528,33.507,33.826,33.826,0,0,0,61.78-7.467h7.914Z" transform="translate(-30.557 -50.309)" fill="none" stroke="#231f20" stroke-miterlimit="10" stroke-width="0.638"/>
              <path id="Path_60958" data-name="Path 60958" d="M259.7,144.7h66.821a18.7,18.7,0,0,1,30.954,19.466,18.764,18.764,0,0,1,3.51,35.038,23.04,23.04,0,0,1-31.528,33.506,33.826,33.826,0,0,1-61.779-7.467H259.7Z" transform="translate(-93.955 -50.309)" fill="#8e0bfa"/>
              <path id="Path_60959" data-name="Path 60959" d="M259.7,144.7h66.821a18.7,18.7,0,0,1,30.954,19.466,18.764,18.764,0,0,1,3.51,35.038,23.04,23.04,0,0,1-31.528,33.506,33.826,33.826,0,0,1-61.779-7.467H259.7Z" transform="translate(-93.955 -50.309)" fill="none" stroke="#231f20" stroke-miterlimit="10" stroke-width="0.638"/>
              <path id="Path_60960" data-name="Path 60960" d="M402.571,163a18.7,18.7,0,0,0-8.871-23.1,18.7,18.7,0,0,1,12.637,24.508,18.639,18.639,0,0,0-3.7-1.4" transform="translate(-142.433 -50.613)"/>
              <path id="Path_60961" data-name="Path 60961" d="M402.571,163a18.7,18.7,0,0,0-8.871-23.1,18.7,18.7,0,0,1,12.637,24.508,18.635,18.635,0,0,0-3.766-1.4Z" transform="translate(-142.433 -50.613)" fill="none" stroke="#231f20" stroke-linejoin="round" stroke-width="0.638"/>
              <path id="Path_60962" data-name="Path 60962" d="M384.446,251.6a23.04,23.04,0,0,0,15.892-39.633,18.764,18.764,0,0,0,.383-33.57,18.764,18.764,0,0,1,3.319,34.974A23.04,23.04,0,0,1,378,250.71a22.977,22.977,0,0,0,6.446.894" transform="translate(-136.753 -64.542)"/>
              <path id="Path_60963" data-name="Path 60963" d="M384.446,251.6a23.04,23.04,0,0,0,15.892-39.633,18.764,18.764,0,0,0,.383-33.57,18.764,18.764,0,0,1,3.319,34.974A23.04,23.04,0,0,1,378,250.71a22.977,22.977,0,0,0,6.446.894Z" transform="translate(-136.753 -64.542)" fill="none" stroke="#231f20" stroke-linejoin="round" stroke-width="0.638"/>
              <path id="Path_60964" data-name="Path 60964" d="M264.412,271.8l.447,1.468H260.2V271.8Z" transform="translate(-94.136 -98.332)"/>
              <path id="Path_60965" data-name="Path 60965" d="M264.412,271.8l.447,1.468H260.2V271.8Z" transform="translate(-94.136 -98.332)" fill="none" stroke="#231f20" stroke-linejoin="round" stroke-width="0.638"/>
              <path id="Path_60966" data-name="Path 60966" d="M311.767,300.477A33.825,33.825,0,0,0,341.061,283.5a23.163,23.163,0,0,0,3.127,2.425A33.826,33.826,0,0,1,301.3,298.817a33.761,33.761,0,0,0,10.4,1.659" transform="translate(-109.005 -102.565)"/>
              <path id="Path_60967" data-name="Path 60967" d="M311.767,300.477A33.825,33.825,0,0,0,341.061,283.5a23.163,23.163,0,0,0,3.127,2.425A33.826,33.826,0,0,1,301.3,298.817,33.761,33.761,0,0,0,311.767,300.477Z" transform="translate(-109.005 -102.565)" fill="none" stroke="#231f20" stroke-linejoin="round" stroke-width="0.638"/>
              <path id="Path_60968" data-name="Path 60968" d="M109.512,163a18.7,18.7,0,0,1,8.871-23.1,18.7,18.7,0,0,0-12.637,24.508,18.636,18.636,0,0,1,3.7-1.4" transform="translate(-37.84 -50.613)"/>
              <path id="Path_60969" data-name="Path 60969" d="M109.512,163a18.7,18.7,0,0,1,8.871-23.1,18.7,18.7,0,0,0-12.637,24.508,18.637,18.637,0,0,1,3.766-1.4Z" transform="translate(-37.84 -50.613)" fill="none" stroke="#231f20" stroke-linejoin="round" stroke-width="0.638"/>
              <path id="Path_60970" data-name="Path 60970" d="M114.72,251.6A23.04,23.04,0,0,1,98.828,211.97a18.764,18.764,0,0,1-.383-33.57,18.764,18.764,0,0,0-3.319,34.974,23.04,23.04,0,0,0,26.039,37.272,22.976,22.976,0,0,1-6.446.893" transform="translate(-30.603 -64.542)"/>
              <path id="Path_60971" data-name="Path 60971" d="M114.72,251.6A23.04,23.04,0,0,1,98.828,211.97a18.764,18.764,0,0,1-.383-33.57,18.764,18.764,0,0,0-3.319,34.974,23.04,23.04,0,0,0,26.039,37.272A22.975,22.975,0,0,1,114.72,251.6Z" transform="translate(-30.603 -64.542)" fill="none" stroke="#231f20" stroke-linejoin="round" stroke-width="0.638"/>
              <path id="Path_60972" data-name="Path 60972" d="M252.847,271.8l-.447,1.468h4.659V271.8Z" transform="translate(-91.314 -98.332)"/>
              <path id="Path_60973" data-name="Path 60973" d="M252.847,271.8l-.447,1.468h4.659V271.8Z" transform="translate(-91.314 -98.332)" fill="none" stroke="#231f20" stroke-linejoin="round" stroke-width="0.638"/>
              <path id="Path_60974" data-name="Path 60974" d="M183.821,300.477A33.825,33.825,0,0,1,154.527,283.5a23.227,23.227,0,0,1-3.127,2.425,33.825,33.825,0,0,0,42.888,12.892,33.762,33.762,0,0,1-10.4,1.659" transform="translate(-54.774 -102.565)"/>
              <path id="Path_60975" data-name="Path 60975" d="M183.821,300.477A33.825,33.825,0,0,1,154.527,283.5a23.227,23.227,0,0,1-3.127,2.425,33.825,33.825,0,0,0,42.888,12.892A33.762,33.762,0,0,1,183.821,300.477Z" transform="translate(-54.774 -102.565)" fill="none" stroke="#231f20" stroke-linejoin="round" stroke-width="0.638"/>
              <path id="Path_60976" data-name="Path 60976" d="M167.237,163.765a15.507,15.507,0,0,0,0-1.978V148.065H156.578a15.509,15.509,0,1,0,10.658,15.764h0Z" transform="translate(-49.294 -53.289)" fill="#ff3c1d"/>
              <path id="Path_60977" data-name="Path 60977" d="M167.237,163.765a15.507,15.507,0,0,0,0-1.978V148.065H156.578a15.509,15.509,0,1,0,10.658,15.764h0Z" transform="translate(-49.294 -53.289)" fill="none" stroke="#231f20" stroke-miterlimit="10" stroke-width="0.638"/>
              <path id="Path_60978" data-name="Path 60978" d="M351.9,147.34a15.446,15.446,0,0,0-6.127.511H334.6v14.87h0a15.509,15.509,0,1,0,17.232-15.445" transform="translate(-121.052 -53.266)" fill="#ff3c1d"/>
              <path id="Path_60979" data-name="Path 60979" d="M351.9,147.34a15.446,15.446,0,0,0-6.127.511H334.6v14.87h0a15.509,15.509,0,1,0,17.232-15.445Z" transform="translate(-121.052 -53.266)" fill="none" stroke="#231f20" stroke-miterlimit="10" stroke-width="0.638"/>
              <path id="Path_60980" data-name="Path 60980" d="M167.272,165.8h0a15.509,15.509,0,0,1-30.826,1.34,15.507,15.507,0,1,0,30.829,3.383h0a15.507,15.507,0,0,0,0-1.979Z" transform="translate(-49.33 -59.983)"/>
              <path id="Path_60981" data-name="Path 60981" d="M167.272,165.8h0a15.509,15.509,0,0,1-30.826,1.34,15.507,15.507,0,1,0,30.829,3.383h0a15.507,15.507,0,0,0,0-1.979Z" transform="translate(-49.33 -59.983)" fill="none" stroke="#231f20" stroke-miterlimit="10" stroke-width="0.638"/>
              <path id="Path_60982" data-name="Path 60982" d="M348.385,179.545A15.509,15.509,0,0,1,334.6,164.1h0v4.723h0a15.509,15.509,0,1,0,30.89-2.361,15.509,15.509,0,0,1-17.04,13.083" transform="translate(-121.052 -59.368)"/>
              <path id="Path_60983" data-name="Path 60983" d="M348.385,179.545A15.509,15.509,0,0,1,334.6,164.1h0v4.723h0a15.509,15.509,0,1,0,30.89-2.361A15.509,15.509,0,0,1,348.385,179.545Z" transform="translate(-121.052 -59.368)" fill="none" stroke="#231f20" stroke-miterlimit="10" stroke-width="0.638"/>
              <path id="Path_60984" data-name="Path 60984" d="M284.579,149.865c0,22.721-25.72,41.165-57.44,41.165s-57.44-18.445-57.44-41.165S195.42,108.7,227.14,108.7s57.44,18.445,57.44,41.165" transform="translate(-61.394 -39.326)" fill="#ff3c1d"/>
              <ellipse id="Ellipse_524" data-name="Ellipse 524" cx="57.44" cy="41.165" rx="57.44" ry="41.165" transform="translate(108.306 69.374)" fill="none" stroke="#231f20" stroke-miterlimit="10" stroke-width="0.638"/>
              <path id="Path_60985" data-name="Path 60985" d="M227.1,208.3c-30.634,0-55.653-17.168-57.376-38.8-.064.766-.128,1.6-.128,2.361,0,22.721,25.72,41.165,57.44,41.165s57.44-18.445,57.44-41.165c0-.766-.064-1.6-.064-2.361-1.723,21.636-26.741,38.8-57.376,38.8" transform="translate(-61.358 -61.322)"/>
              <path id="Path_60986" data-name="Path 60986" d="M227.1,208.3c-30.634,0-55.653-17.168-57.376-38.8-.064.766-.128,1.6-.128,2.361,0,22.721,25.72,41.165,57.44,41.165s57.44-18.445,57.44-41.165c0-.766-.064-1.6-.064-2.361C282.756,191.136,257.738,208.3,227.1,208.3Z" transform="translate(-61.358 -61.322)" fill="none" stroke="#231f20" stroke-miterlimit="10" stroke-width="0.638"/>
              <path id="Path_60987" data-name="Path 60987" d="M261.3,155.4a3.7,3.7,0,1,1-3.7-3.7,3.7,3.7,0,0,1,3.7,3.7" transform="translate(-91.856 -54.882)"/>
              <ellipse id="Ellipse_525" data-name="Ellipse 525" cx="3.702" cy="3.702" rx="3.702" ry="3.702" transform="translate(160.911 98.535) rotate(-22.5)" fill="none" stroke="#231f20" stroke-miterlimit="10" stroke-width="0.638"/>
              <path id="Path_60988" data-name="Path 60988" d="M263.341,194.471a9.573,9.573,0,0,1-3.383-.638,49.526,49.526,0,0,0-34.911,0,9.584,9.584,0,0,1-6.765-17.934,68.672,68.672,0,0,1,48.441,0,9.573,9.573,0,0,1-3.383,18.508" transform="translate(-76.726 -62.04)" fill="#8e0bfa"/>
              <path id="Path_60989" data-name="Path 60989" d="M263.341,194.471a9.573,9.573,0,0,1-3.383-.638,49.526,49.526,0,0,0-34.911,0,9.584,9.584,0,0,1-6.765-17.934,68.672,68.672,0,0,1,48.441,0,9.573,9.573,0,0,1-3.383,18.508Z" transform="translate(-76.726 -62.04)" fill="none" stroke="#231f20" stroke-miterlimit="10" stroke-width="0.638"/>
              <path id="Path_60990" data-name="Path 60990" d="M268.776,190.348a59.1,59.1,0,0,0-41.676,0" transform="translate(-82.161 -67.491)" fill="none" stroke="#231f20" stroke-linecap="round" stroke-miterlimit="10" stroke-width="0.638"/>
              <path id="Path_60991" data-name="Path 60991" d="M141.191,157.743a1.915,1.915,0,0,1-1.4-.383l-5.17-4.148a1.915,1.915,0,1,1,2.361-3l5.17,4.148a1.915,1.915,0,0,1-.957,3.383" transform="translate(-48.394 -54.16)" fill="#fdfb76"/>
              <path id="Path_60992" data-name="Path 60992" d="M141.191,157.743a1.915,1.915,0,0,1-1.4-.383l-5.17-4.148a1.915,1.915,0,1,1,2.361-3l5.17,4.148a1.915,1.915,0,0,1-.957,3.383Z" transform="translate(-48.394 -54.16)" fill="none" stroke="#231f20" stroke-miterlimit="10" stroke-width="0.638"/>
              <path id="Path_60993" data-name="Path 60993" d="M147.137,151.85a1.915,1.915,0,0,1-1.213-.83l-3.638-5.553a1.915,1.915,0,1,1,3.191-2.106l3.574,5.553a1.915,1.915,0,0,1-1.978,2.936" transform="translate(-51.34 -51.522)" fill="#fdfb76"/>
              <path id="Path_60994" data-name="Path 60994" d="M147.137,151.85a1.915,1.915,0,0,1-1.213-.83l-3.638-5.553a1.915,1.915,0,1,1,3.191-2.106l3.574,5.553a1.915,1.915,0,0,1-1.978,2.936Z" transform="translate(-51.34 -51.522)" fill="none" stroke="#231f20" stroke-miterlimit="10" stroke-width="0.638"/>
              <path id="Path_60995" data-name="Path 60995" d="M262.5,83.575h0C259.757,68.9,242.206,57.6,221.017,57.6s-38.74,11.3-41.484,25.975c-3,18.317-13.977,31.847-26.933,31.911H289.434c-13.02,0-23.933-13.594-26.933-31.911" transform="translate(-55.208 -20.839)" fill="#00db96"/>
              <path id="Path_60996" data-name="Path 60996" d="M262.5,83.575h0C259.757,68.9,242.206,57.6,221.017,57.6s-38.74,11.3-41.484,25.975c-3,18.317-13.977,31.847-26.933,31.911H289.434C276.414,115.486,265.5,101.892,262.5,83.575Z" transform="translate(-55.208 -20.839)" fill="none" stroke="#231f20" stroke-miterlimit="10" stroke-width="0.638"/>
              <path id="Path_60997" data-name="Path 60997" d="M276.789,110.891a29.1,29.1,0,0,1-3.957-3.7c-5.106-5.744-8.807-14.041-10.4-23.614C261.216,77,257,71.13,250.877,66.663c-7.595-5.616-18.253-9.063-30-9.063h-2.553c20.04.894,36.315,11.871,38.931,25.912,1.978,11.935,7.276,21.891,14.36,27.316H164.973a20.487,20.487,0,0,1-12.573,4.6H289.362a20.423,20.423,0,0,1-12.573-4.6" transform="translate(-55.136 -20.839)"/>
              <path id="Path_60998" data-name="Path 60998" d="M276.789,110.891a29.1,29.1,0,0,1-3.957-3.7c-5.106-5.744-8.807-14.041-10.4-23.614C261.216,77,257,71.13,250.877,66.663c-7.595-5.616-18.253-9.063-30-9.063h-2.553c20.04.894,36.315,11.871,38.931,25.912,1.978,11.935,7.276,21.891,14.36,27.316H164.973a20.487,20.487,0,0,1-12.573,4.6H289.362A20.423,20.423,0,0,1,276.789,110.891Z" transform="translate(-55.136 -20.839)" fill="none" stroke="#231f20" stroke-miterlimit="10" stroke-width="0.638"/>
              <path id="Path_60999" data-name="Path 60999" d="M261.184,248.923H231.762a8.712,8.712,0,0,1,0-17.423h29.422a8.712,8.712,0,0,1,0,17.423" transform="translate(-80.695 -83.752)" fill="#fdfb76"/>
              <path id="Path_61000" data-name="Path 61000" d="M261.184,248.923H231.762a8.712,8.712,0,0,1,0-17.423h29.422a8.712,8.712,0,0,1,0,17.423Z" transform="translate(-80.695 -83.752)" fill="none" stroke="#231f20" stroke-miterlimit="10" stroke-width="0.638"/>
              <path id="Path_61001" data-name="Path 61001" d="M233.9,241.142a6.829,6.829,0,0,1,4.85-2.042" transform="translate(-84.621 -86.502)" fill="#fdfb76"/>
              <path id="Path_61002" data-name="Path 61002" d="M233.9,241.142a6.829,6.829,0,0,1,4.85-2.042" transform="translate(-84.621 -86.502)" fill="none" stroke="#fcf7eb" stroke-linecap="round" stroke-miterlimit="10" stroke-width="6.382"/>
              <path id="Path_61003" data-name="Path 61003" d="M232.612,246.8a8.68,8.68,0,0,0-7.212,3.829,8.68,8.68,0,0,0,7.212,3.829h29.422a8.68,8.68,0,0,0,7.212-3.829,8.68,8.68,0,0,0-7.212-3.829Z" transform="translate(-81.546 -89.288)"/>
              <path id="Path_61004" data-name="Path 61004" d="M232.612,246.8a8.68,8.68,0,0,0-7.212,3.829,8.68,8.68,0,0,0,7.212,3.829h29.422a8.68,8.68,0,0,0,7.212-3.829,8.68,8.68,0,0,0-7.212-3.829Z" transform="translate(-81.546 -89.288)" fill="none" stroke="#231f20" stroke-miterlimit="10" stroke-width="0.638"/>
              <path id="Path_61005" data-name="Path 61005" d="M261.184,270.623H231.762a8.712,8.712,0,1,1,0-17.423h29.422a8.712,8.712,0,0,1,0,17.423" transform="translate(-80.695 -91.603)" fill="#fdfb76"/>
              <path id="Path_61006" data-name="Path 61006" d="M261.184,270.623H231.762a8.712,8.712,0,1,1,0-17.423h29.422a8.712,8.712,0,0,1,0,17.423Z" transform="translate(-80.695 -91.603)" fill="none" stroke="#231f20" stroke-miterlimit="10" stroke-width="0.638"/>
              <path id="Path_61007" data-name="Path 61007" d="M233.9,262.642a6.829,6.829,0,0,1,4.85-2.042" transform="translate(-84.621 -94.28)" fill="#fdfb76"/>
              <path id="Path_61008" data-name="Path 61008" d="M233.9,262.642a6.829,6.829,0,0,1,4.85-2.042" transform="translate(-84.621 -94.28)" fill="none" stroke="#fcf7eb" stroke-linecap="round" stroke-miterlimit="10" stroke-width="6.382"/>
              <path id="Path_61009" data-name="Path 61009" d="M232.612,267.9a8.68,8.68,0,0,0-7.212,3.829,8.68,8.68,0,0,0,7.212,3.829h29.422a8.68,8.68,0,0,0,7.212-3.829,8.68,8.68,0,0,0-7.212-3.829Z" transform="translate(-81.546 -96.921)"/>
              <path id="Path_61010" data-name="Path 61010" d="M232.612,267.9a8.68,8.68,0,0,0-7.212,3.829,8.68,8.68,0,0,0,7.212,3.829h29.422a8.68,8.68,0,0,0,7.212-3.829,8.68,8.68,0,0,0-7.212-3.829Z" transform="translate(-81.546 -96.921)" fill="none" stroke="#231f20" stroke-miterlimit="10" stroke-width="0.638"/>
              <path id="Path_61011" data-name="Path 61011" d="M288.7,378.186H415.259a20.328,20.328,0,0,0,16.083-32.8L370.966,267.2l-27.252,21.061,42.824,55.461H288.7Z" transform="translate(-104.446 -96.668)" fill="#ff0d5b"/>
              <path id="Path_61012" data-name="Path 61012" d="M288.7,378.186H415.259a20.328,20.328,0,0,0,16.083-32.8L370.966,267.2l-27.252,21.061,42.824,55.461H288.7Z" transform="translate(-104.446 -96.668)" fill="none" stroke="#231f20" stroke-miterlimit="10" stroke-width="0.638"/>
              <line id="Line_608" data-name="Line 608" x2="46.973" y2="23.04" transform="translate(282.093 247.054)" fill="#ff0d5b"/>
              <line id="Line_609" data-name="Line 609" x2="46.973" y2="23.04" transform="translate(282.093 247.054)" fill="none" stroke="#231f20" stroke-miterlimit="10" stroke-width="0.638"/>
              <line id="Line_610" data-name="Line 610" x2="28.72" y2="34.464" transform="translate(282.093 247.054)" fill="#ff0d5b"/>
              <line id="Line_611" data-name="Line 611" x2="28.72" y2="34.464" transform="translate(282.093 247.054)" fill="none" stroke="#231f20" stroke-miterlimit="10" stroke-width="0.638"/>
              <line id="Line_612" data-name="Line 612" x2="44.803" y2="1.596" transform="translate(282.093 247.054)" fill="#ff0d5b"/>
              <line id="Line_613" data-name="Line 613" x2="44.803" y2="1.596" transform="translate(282.093 247.054)" fill="none" stroke="#231f20" stroke-miterlimit="10" stroke-width="0.638"/>
              <line id="Line_614" data-name="Line 614" x1="28.72" y1="34.464" transform="translate(282.093 247.054)" fill="#ff0d5b"/>
              <line id="Line_615" data-name="Line 615" x1="28.72" y1="34.464" transform="translate(282.093 247.054)" fill="none" stroke="#231f20" stroke-miterlimit="10" stroke-width="0.638"/>
              <line id="Line_616" data-name="Line 616" x2="6.957" y2="34.528" transform="translate(282.093 247.054)" fill="#ff0d5b"/>
              <line id="Line_617" data-name="Line 617" x2="6.957" y2="34.528" transform="translate(282.093 247.054)" fill="none" stroke="#231f20" stroke-miterlimit="10" stroke-width="0.638"/>
              <line id="Line_618" data-name="Line 618" y2="34.464" transform="translate(268.243 247.054)" fill="#ff0d5b"/>
              <line id="Line_619" data-name="Line 619" y2="34.464" transform="translate(268.243 247.054)" fill="none" stroke="#231f20" stroke-miterlimit="10" stroke-width="0.638"/>
              <line id="Line_620" data-name="Line 620" y2="34.464" transform="translate(246.927 247.054)" fill="#ff0d5b"/>
              <line id="Line_621" data-name="Line 621" y2="34.464" transform="translate(246.927 247.054)" fill="none" stroke="#231f20" stroke-miterlimit="10" stroke-width="0.638"/>
              <line id="Line_622" data-name="Line 622" y2="34.464" transform="translate(225.419 247.054)" fill="#ff0d5b"/>
              <line id="Line_623" data-name="Line 623" y2="34.464" transform="translate(225.419 247.054)" fill="none" stroke="#231f20" stroke-miterlimit="10" stroke-width="0.638"/>
              <line id="Line_624" data-name="Line 624" y1="17.615" x2="30.507" transform="translate(281.646 229.567)" fill="#ff0d5b"/>
              <line id="Line_625" data-name="Line 625" y1="17.615" x2="30.507" transform="translate(281.646 229.567)" fill="none" stroke="#231f20" stroke-miterlimit="10" stroke-width="0.638"/>
              <line id="Line_626" data-name="Line 626" y1="19.21" x2="28.656" transform="translate(270.222 212.335)" fill="#ff0d5b"/>
              <line id="Line_627" data-name="Line 627" y1="19.21" x2="28.656" transform="translate(270.222 212.335)" fill="none" stroke="#231f20" stroke-miterlimit="10" stroke-width="0.638"/>
              <path id="Path_61013" data-name="Path 61013" d="M428.388,358.519l-39-50.419-3.893,3.063,36.634,47.356Z" transform="translate(-139.467 -111.465)"/>
              <path id="Path_61014" data-name="Path 61014" d="M428.388,358.519l-39-50.419-3.893,3.063,36.634,47.356Z" transform="translate(-139.467 -111.465)" fill="none" stroke="#000" stroke-miterlimit="10" stroke-width="0.638"/>
              <path id="Path_61015" data-name="Path 61015" d="M338.4,262.789A36.889,36.889,0,1,0,375.289,225.9,36.889,36.889,0,0,0,338.4,262.789" transform="translate(-122.427 -81.726)" fill="#fdfb76"/>
              <ellipse id="Ellipse_526" data-name="Ellipse 526" cx="36.889" cy="36.889" rx="36.889" ry="36.889" transform="translate(215.973 144.174)" fill="none" stroke="#231f20" stroke-miterlimit="10" stroke-width="0.638"/>
              <path id="Path_61016" data-name="Path 61016" d="M401.346,238A36.889,36.889,0,0,1,347.8,287.334,36.889,36.889,0,1,0,401.346,238" transform="translate(-125.828 -86.104)"/>
              <path id="Path_61017" data-name="Path 61017" d="M401.346,238A36.889,36.889,0,0,1,347.8,287.334,36.889,36.889,0,1,0,401.346,238Z" transform="translate(-125.828 -86.104)" fill="none" stroke="#231f20" stroke-miterlimit="10" stroke-width="0.638"/>
              <path id="Path_61018" data-name="Path 61018" d="M147.416,378.15H20.921A20.414,20.414,0,0,1,4.774,345.282L65.214,267.1l27.252,21.061L49.641,343.686h97.775Z" transform="translate(-0.179 -96.632)" fill="#00db96"/>
              <path id="Path_61019" data-name="Path 61019" d="M147.416,378.15H20.921A20.414,20.414,0,0,1,4.774,345.282L65.214,267.1l27.252,21.061L49.641,343.686h97.775Z" transform="translate(-0.179 -96.632)" fill="none" stroke="#231f20" stroke-miterlimit="10" stroke-width="0.638"/>
              <line id="Line_628" data-name="Line 628" x1="47.037" y2="23.04" transform="translate(2.425 247.054)" fill="#00db96"/>
              <line id="Line_629" data-name="Line 629" x1="47.037" y2="23.04" transform="translate(2.425 247.054)" fill="none" stroke="#231f20" stroke-miterlimit="10" stroke-width="0.638"/>
              <line id="Line_630" data-name="Line 630" x1="28.72" y2="34.464" transform="translate(20.742 247.054)" fill="#00db96"/>
              <line id="Line_631" data-name="Line 631" x1="28.72" y2="34.464" transform="translate(20.742 247.054)" fill="none" stroke="#231f20" stroke-miterlimit="10" stroke-width="0.638"/>
              <line id="Line_632" data-name="Line 632" x1="44.867" y2="1.596" transform="translate(4.595 247.054)" fill="#00db96"/>
              <line id="Line_633" data-name="Line 633" x1="44.867" y2="1.596" transform="translate(4.595 247.054)" fill="none" stroke="#231f20" stroke-miterlimit="10" stroke-width="0.638"/>
              <line id="Line_634" data-name="Line 634" y1="34.464" x2="28.72" transform="translate(20.742 247.054)" fill="#00db96"/>
              <line id="Line_635" data-name="Line 635" y1="34.464" x2="28.72" transform="translate(20.742 247.054)" fill="none" stroke="#231f20" stroke-miterlimit="10" stroke-width="0.638"/>
              <line id="Line_636" data-name="Line 636" x1="7.02" y2="34.528" transform="translate(42.442 247.054)" fill="#00db96"/>
              <line id="Line_637" data-name="Line 637" x1="7.02" y2="34.528" transform="translate(42.442 247.054)" fill="none" stroke="#231f20" stroke-miterlimit="10" stroke-width="0.638"/>
              <line id="Line_638" data-name="Line 638" y2="34.464" transform="translate(63.311 247.054)" fill="#00db96"/>
              <line id="Line_639" data-name="Line 639" y2="34.464" transform="translate(63.311 247.054)" fill="none" stroke="#231f20" stroke-miterlimit="10" stroke-width="0.638"/>
              <line id="Line_640" data-name="Line 640" y2="34.464" transform="translate(84.564 247.054)" fill="#00db96"/>
              <line id="Line_641" data-name="Line 641" y2="34.464" transform="translate(84.564 247.054)" fill="none" stroke="#231f20" stroke-miterlimit="10" stroke-width="0.638"/>
              <line id="Line_642" data-name="Line 642" y2="34.464" transform="translate(106.136 247.054)" fill="#00db96"/>
              <line id="Line_643" data-name="Line 643" y2="34.464" transform="translate(106.136 247.054)" fill="none" stroke="#231f20" stroke-miterlimit="10" stroke-width="0.638"/>
              <line id="Line_644" data-name="Line 644" x1="30.443" y1="17.615" transform="translate(19.402 229.567)" fill="#00db96"/>
              <line id="Line_645" data-name="Line 645" x1="30.443" y1="17.615" transform="translate(19.402 229.567)" fill="none" stroke="#231f20" stroke-miterlimit="10" stroke-width="0.638"/>
              <line id="Line_646" data-name="Line 646" x1="28.592" y1="19.21" transform="translate(32.677 212.335)" fill="#00db96"/>
              <line id="Line_647" data-name="Line 647" x1="28.592" y1="19.21" transform="translate(32.677 212.335)" fill="none" stroke="#231f20" stroke-miterlimit="10" stroke-width="0.638"/>
              <path id="Path_61020" data-name="Path 61020" d="M66.8,358.519,105.731,308.1l3.893,3.063-36.57,47.356Z" transform="translate(-24.167 -111.465)"/>
              <path id="Path_61021" data-name="Path 61021" d="M66.8,358.519,105.731,308.1l3.893,3.063-36.57,47.356Z" transform="translate(-24.167 -111.465)" fill="none" stroke="#000" stroke-miterlimit="10" stroke-width="0.638"/>
              <path id="Path_61022" data-name="Path 61022" d="M139.278,262.789A36.889,36.889,0,1,1,102.389,225.9a36.889,36.889,0,0,1,36.889,36.889" transform="translate(-23.697 -81.726)" fill="#fdfb76"/>
              <ellipse id="Ellipse_527" data-name="Ellipse 527" cx="36.889" cy="36.889" rx="36.889" ry="36.889" transform="translate(41.803 144.174)" fill="none" stroke="#231f20" stroke-miterlimit="10" stroke-width="0.638"/>
              <path id="Path_61023" data-name="Path 61023" d="M128.747,238A36.889,36.889,0,0,1,75.2,287.334,36.889,36.889,0,1,0,128.747,238" transform="translate(-27.206 -86.104)"/>
              <path id="Path_61024" data-name="Path 61024" d="M128.747,238A36.889,36.889,0,0,1,75.2,287.334,36.889,36.889,0,1,0,128.747,238Z" transform="translate(-27.206 -86.104)" fill="none" stroke="#231f20" stroke-miterlimit="10" stroke-width="0.638"/>
              <path id="Path_61025" data-name="Path 61025" d="M327.67,274.1H259.7V466.268a17.742,17.742,0,0,0,16.53-10.85l31.209-71.672L344.2,299.31a18,18,0,0,0-16.53-25.21" transform="translate(-93.955 -99.164)" fill="#00db96"/>
              <path id="Path_61026" data-name="Path 61026" d="M327.67,274.1H259.7V466.268a17.742,17.742,0,0,0,16.53-10.85l31.209-71.672L344.2,299.31a18,18,0,0,0-16.53-25.21Z" transform="translate(-93.955 -99.164)" fill="none" stroke="#231f20" stroke-miterlimit="10" stroke-width="0.638"/>
              <path id="Path_61027" data-name="Path 61027" d="M142.975,274.1a18,18,0,0,0-16.53,25.21l36.825,84.436,31.209,71.672a17.743,17.743,0,0,0,16.53,10.85V274.1Z" transform="translate(-45.2 -99.164)" fill="#ff0d5b"/>
              <path id="Path_61028" data-name="Path 61028" d="M142.975,274.1a18,18,0,0,0-16.53,25.21l36.825,84.436,31.209,71.672a17.743,17.743,0,0,0,16.53,10.85V274.1Z" transform="translate(-45.2 -99.164)" fill="none" stroke="#231f20" stroke-miterlimit="10" stroke-width="0.638"/>
              <path id="Path_61029" data-name="Path 61029" d="M282.867,412.171A27.188,27.188,0,0,1,259.7,424.935v56.419a17.742,17.742,0,0,0,16.53-10.85l31.209-71.672L343.562,315.8Z" transform="translate(-93.955 -114.251)"/>
              <path id="Path_61030" data-name="Path 61030" d="M282.867,412.171A27.188,27.188,0,0,1,259.7,424.935v56.419a17.742,17.742,0,0,0,16.53-10.85l31.209-71.672L343.562,315.8Z" transform="translate(-93.955 -114.251)" fill="none" stroke="#231f20" stroke-miterlimit="10" stroke-width="0.638"/>
              <path id="Path_61031" data-name="Path 61031" d="M188.995,412.171,128.3,315.8l36.187,83.032L195.7,470.5a17.743,17.743,0,0,0,16.53,10.85V424.935a27.188,27.188,0,0,1-23.167-12.764" transform="translate(-46.417 -114.251)"/>
              <path id="Path_61032" data-name="Path 61032" d="M188.995,412.171,128.3,315.8l36.187,83.032L195.7,470.5a17.743,17.743,0,0,0,16.53,10.85V424.935A27.188,27.188,0,0,1,188.995,412.171Z" transform="translate(-46.417 -114.251)" fill="none" stroke="#231f20" stroke-miterlimit="10" stroke-width="0.638"/>
              <path id="Path_61033" data-name="Path 61033" d="M373.157,157.848a1.915,1.915,0,0,0,1.4-.383l5.17-4.148a1.915,1.915,0,0,0-2.361-3l-5.17,4.148a1.915,1.915,0,0,0,.957,3.383" transform="translate(-134.4 -54.265)" fill="#fdfb76"/>
              <path id="Path_61034" data-name="Path 61034" d="M373.157,157.848a1.915,1.915,0,0,0,1.4-.383l5.17-4.148a1.915,1.915,0,0,0-2.361-3l-5.17,4.148a1.915,1.915,0,0,0,.957,3.383Z" transform="translate(-134.4 -54.265)" fill="none" stroke="#231f20" stroke-miterlimit="10" stroke-width="0.638"/>
              <path id="Path_61035" data-name="Path 61035" d="M368.061,151.95a1.915,1.915,0,0,0,1.213-.83l3.574-5.553a1.915,1.915,0,0,0-3.191-2.106l-3.638,5.552A1.915,1.915,0,0,0,368,151.95" transform="translate(-132.303 -51.622)" fill="#fdfb76"/>
              <path id="Path_61036" data-name="Path 61036" d="M368.061,151.95a1.915,1.915,0,0,0,1.213-.83l3.574-5.553a1.915,1.915,0,0,0-3.191-2.106l-3.638,5.552A1.915,1.915,0,0,0,368,151.95Z" transform="translate(-132.303 -51.622)" fill="none" stroke="#231f20" stroke-miterlimit="10" stroke-width="0.638"/>
              <path id="Path_61037" data-name="Path 61037" d="M261.208,441.453H171.666a13.211,13.211,0,0,1-6.063-1.468l-14.424-7.467a3.829,3.829,0,0,1,2.872-6.318H278.822a3.829,3.829,0,0,1,2.872,6.318l-14.424,7.467a13.211,13.211,0,0,1-6.063,1.468" transform="translate(-54.361 -154.191)"/>
              <path id="Path_61038" data-name="Path 61038" d="M261.208,441.453H171.666a13.211,13.211,0,0,1-6.063-1.468l-14.424-7.467a3.829,3.829,0,0,1,2.872-6.318H278.822a3.829,3.829,0,0,1,2.872,6.318l-14.424,7.467A13.211,13.211,0,0,1,261.208,441.453Z" transform="translate(-54.361 -154.191)" fill="none" stroke="#000" stroke-miterlimit="10" stroke-width="0.638"/>
              <path id="Path_61039" data-name="Path 61039" d="M386.539,387.1H288.7v34.464H415.259a20.1,20.1,0,0,0,18.317-11.424Z" transform="translate(-104.446 -140.046)" fill="#ff0d5b"/>
              <path id="Path_61040" data-name="Path 61040" d="M386.539,387.1H288.7v34.464H415.259a20.1,20.1,0,0,0,18.317-11.424Z" transform="translate(-104.446 -140.046)" fill="none" stroke="#231f20" stroke-miterlimit="10" stroke-width="0.638"/>
              <line id="Line_648" data-name="Line 648" x2="28.72" y2="34.464" transform="translate(282.093 247.054)" fill="#ff0d5b"/>
              <line id="Line_649" data-name="Line 649" x2="28.72" y2="34.464" transform="translate(282.093 247.054)" fill="none" stroke="#231f20" stroke-miterlimit="10" stroke-width="0.638"/>
              <line id="Line_650" data-name="Line 650" x1="28.72" y1="34.464" transform="translate(282.093 247.054)" fill="#ff0d5b"/>
              <line id="Line_651" data-name="Line 651" x1="28.72" y1="34.464" transform="translate(282.093 247.054)" fill="none" stroke="#231f20" stroke-miterlimit="10" stroke-width="0.638"/>
              <line id="Line_652" data-name="Line 652" x2="6.957" y2="34.528" transform="translate(282.093 247.054)" fill="#ff0d5b"/>
              <line id="Line_653" data-name="Line 653" x2="6.957" y2="34.528" transform="translate(282.093 247.054)" fill="none" stroke="#231f20" stroke-miterlimit="10" stroke-width="0.638"/>
              <line id="Line_654" data-name="Line 654" y2="34.464" transform="translate(268.243 247.054)" fill="#ff0d5b"/>
              <line id="Line_655" data-name="Line 655" y2="34.464" transform="translate(268.243 247.054)" fill="none" stroke="#231f20" stroke-miterlimit="10" stroke-width="0.638"/>
              <line id="Line_656" data-name="Line 656" y2="34.464" transform="translate(246.927 247.054)" fill="#ff0d5b"/>
              <line id="Line_657" data-name="Line 657" y2="34.464" transform="translate(246.927 247.054)" fill="none" stroke="#231f20" stroke-miterlimit="10" stroke-width="0.638"/>
              <line id="Line_658" data-name="Line 658" y2="34.464" transform="translate(225.419 247.054)" fill="#ff0d5b"/>
              <line id="Line_659" data-name="Line 659" y2="34.464" transform="translate(225.419 247.054)" fill="none" stroke="#231f20" stroke-miterlimit="10" stroke-width="0.638"/>
              <path id="Path_61041" data-name="Path 61041" d="M415.259,419.138H288.7v8.105H415.259A20.376,20.376,0,0,0,435.235,402.8a20.3,20.3,0,0,1-19.976,16.338" transform="translate(-104.446 -145.726)"/>
              <path id="Path_61042" data-name="Path 61042" d="M415.259,419.138H288.7v8.105H415.259A20.376,20.376,0,0,0,435.235,402.8,20.3,20.3,0,0,1,415.259,419.138Z" transform="translate(-104.446 -145.726)" fill="none" stroke="#000" stroke-miterlimit="10" stroke-width="0.638"/>
              <path id="Path_61043" data-name="Path 61043" d="M50.837,387.1h0L3.8,410.14a20.1,20.1,0,0,0,18.317,11.424H148.612V387.1Z" transform="translate(-1.375 -140.046)" fill="#00db96"/>
              <path id="Path_61044" data-name="Path 61044" d="M50.837,387.1h0L3.8,410.14a20.1,20.1,0,0,0,18.317,11.424H148.612V387.1Z" transform="translate(-1.375 -140.046)" fill="none" stroke="#231f20" stroke-miterlimit="10" stroke-width="0.638"/>
              <line id="Line_660" data-name="Line 660" x1="28.72" y2="34.464" transform="translate(20.742 247.054)" fill="#00db96"/>
              <line id="Line_661" data-name="Line 661" x1="28.72" y2="34.464" transform="translate(20.742 247.054)" fill="none" stroke="#231f20" stroke-miterlimit="10" stroke-width="0.638"/>
              <line id="Line_662" data-name="Line 662" y1="34.464" x2="28.72" transform="translate(20.742 247.054)" fill="#00db96"/>
              <line id="Line_663" data-name="Line 663" y1="34.464" x2="28.72" transform="translate(20.742 247.054)" fill="none" stroke="#231f20" stroke-miterlimit="10" stroke-width="0.638"/>
              <line id="Line_664" data-name="Line 664" x1="7.02" y2="34.528" transform="translate(42.442 247.054)" fill="#00db96"/>
              <line id="Line_665" data-name="Line 665" x1="7.02" y2="34.528" transform="translate(42.442 247.054)" fill="none" stroke="#231f20" stroke-miterlimit="10" stroke-width="0.638"/>
              <line id="Line_666" data-name="Line 666" y2="34.464" transform="translate(63.311 247.054)" fill="#00db96"/>
              <line id="Line_667" data-name="Line 667" y2="34.464" transform="translate(63.311 247.054)" fill="none" stroke="#231f20" stroke-miterlimit="10" stroke-width="0.638"/>
              <line id="Line_668" data-name="Line 668" y2="34.464" transform="translate(84.564 247.054)" fill="#00db96"/>
              <line id="Line_669" data-name="Line 669" y2="34.464" transform="translate(84.564 247.054)" fill="none" stroke="#231f20" stroke-miterlimit="10" stroke-width="0.638"/>
              <line id="Line_670" data-name="Line 670" y2="34.464" transform="translate(106.136 247.054)" fill="#00db96"/>
              <line id="Line_671" data-name="Line 671" y2="34.464" transform="translate(106.136 247.054)" fill="none" stroke="#231f20" stroke-miterlimit="10" stroke-width="0.638"/>
              <path id="Path_61045" data-name="Path 61045" d="M20.939,419.138H147.434v8.105H20.939A20.376,20.376,0,0,1,.963,402.8a20.3,20.3,0,0,0,19.976,16.4" transform="translate(-0.197 -145.726)"/>
              <path id="Path_61046" data-name="Path 61046" d="M20.939,419.138H147.434v8.105H20.939A20.376,20.376,0,0,1,.963,402.8,20.3,20.3,0,0,0,20.939,419.138Z" transform="translate(-0.197 -145.726)" fill="none" stroke="#000" stroke-miterlimit="10" stroke-width="0.638"/>
              <path id="Path_61047" data-name="Path 61047" d="M267.354,413.054H180.173a9.573,9.573,0,0,1-9.573-9.573V357.273a9.573,9.573,0,0,1,9.573-9.573h87.181a9.573,9.573,0,0,1,9.573,9.573V403.48a9.573,9.573,0,0,1-9.573,9.573" transform="translate(-61.72 -125.791)" fill="#8e0bfa"/>
              <rect id="Rectangle_131414" data-name="Rectangle 131414" width="106.327" height="65.354" rx="9.573" transform="translate(108.88 221.909)" fill="none" stroke="#000" stroke-miterlimit="10" stroke-width="0.638"/>
              <path id="Path_61048" data-name="Path 61048" d="M267.354,432.773H180.173A9.573,9.573,0,0,1,170.6,423.2v7.595a9.573,9.573,0,0,0,9.573,9.573h87.181a9.573,9.573,0,0,0,9.573-9.573V423.2a9.573,9.573,0,0,1-9.573,9.573" transform="translate(-61.72 -153.106)"/>
              <path id="Path_61049" data-name="Path 61049" d="M267.354,432.773H180.173A9.573,9.573,0,0,1,170.6,423.2v7.595a9.573,9.573,0,0,0,9.573,9.573h87.181a9.573,9.573,0,0,0,9.573-9.573V423.2A9.573,9.573,0,0,1,267.354,432.773Z" transform="translate(-61.72 -153.106)" fill="none" stroke="#000" stroke-miterlimit="10" stroke-width="0.638"/>
              <path id="Path_61050" data-name="Path 61050" d="M257.963,385.573a9.382,9.382,0,1,0-14.3,7.978V399.1H253.5v-5.552a9.382,9.382,0,0,0,4.468-7.978" transform="translate(-86.537 -136.094)" fill="#fcf7eb"/>
              <path id="Path_61051" data-name="Path 61051" d="M257.963,385.573a9.382,9.382,0,1,0-14.3,7.978V399.1H253.5v-5.552A9.382,9.382,0,0,0,257.963,385.573Z" transform="translate(-86.537 -136.094)" fill="none" stroke="#000" stroke-miterlimit="10" stroke-width="0.638"/>
              <line id="Line_672" data-name="Line 672" y2="4.787" transform="translate(163.703 258.223)" fill="none" stroke="#000" stroke-miterlimit="10" stroke-width="0.638"/>
              <line id="Line_673" data-name="Line 673" y2="4.787" transform="translate(160.576 258.223)" fill="none" stroke="#000" stroke-miterlimit="10" stroke-width="0.638"/>
              <path id="Path_61052" data-name="Path 61052" d="M183.8,363.6c0-2.106,2.744-3.7,5.3-3.7h13.594" transform="translate(-66.495 -130.205)" fill="none" stroke="#fff" stroke-linecap="round" stroke-miterlimit="10" stroke-width="6.382"/>
              <path id="Path_61053" data-name="Path 61053" d="M214.7,82.188c3.957-5.616,11.616-9.892,20.87-11.488" transform="translate(-77.674 -25.578)" fill="none" stroke="#fcf7eb" stroke-linecap="round" stroke-miterlimit="10" stroke-width="6.382"/>
              <path id="Path_61054" data-name="Path 61054" d="M253.678,25.3c.064,0-1.978,4.468-1.978,4.468" transform="translate(-91.06 -9.153)" fill="#8e0bfa"/>
              <path id="Path_61055" data-name="Path 61055" d="M253.678,25.3c.064,0-1.978,4.468-1.978,4.468" transform="translate(-91.06 -9.153)" fill="none" stroke="#fcf7eb" stroke-linecap="round" stroke-miterlimit="10" stroke-width="6.382"/>
              <path id="Path_61056" data-name="Path 61056" d="M92.6,246.886a28.337,28.337,0,0,1,19.529-7.786,28.655,28.655,0,0,1,3.765.255" transform="translate(-33.501 -86.502)" fill="none" stroke="#fcf7eb" stroke-linecap="round" stroke-miterlimit="10" stroke-width="6.382"/>
              <path id="Path_61057" data-name="Path 61057" d="M376.2,242.71a28.209,28.209,0,0,1,12.062-3.51" transform="translate(-136.102 -86.538)" fill="none" stroke="#fcf7eb" stroke-linecap="round" stroke-miterlimit="10" stroke-width="6.382"/>
              <line id="Line_674" data-name="Line 674" x1="5.68" y2="7.02" transform="translate(38.421 209.144)" fill="#8e0bfa"/>
              <line id="Line_675" data-name="Line 675" x1="5.68" y2="7.02" transform="translate(38.421 209.144)" fill="none" stroke="#fcf7eb" stroke-linecap="round" stroke-miterlimit="10" stroke-width="6.382"/>
              <line id="Line_676" data-name="Line 676" x1="2.872" y2="3.51" transform="translate(29.358 223.696)" fill="#8e0bfa"/>
              <line id="Line_677" data-name="Line 677" x1="2.872" y2="3.51" transform="translate(29.358 223.696)" fill="none" stroke="#fcf7eb" stroke-linecap="round" stroke-miterlimit="10" stroke-width="6.382"/>
            </g>
          </g>
        </g>
      </g>
    </g>
  </g>
</svg>
