<svg xmlns="http://www.w3.org/2000/svg" xmlns:xlink="http://www.w3.org/1999/xlink" width="100.3" height="69" viewBox="0 0 100.3 69">
  <defs>
    <clipPath id="clip-path">
      <rect id="Rectangle_124657" data-name="Rectangle 124657" width="100.3" height="68.98" fill="none"/>
    </clipPath>
    <clipPath id="clip-path-5">
      <rect id="Rectangle_124660" data-name="Rectangle 124660" width="10.5" height="9.79" transform="translate(38 55.1)" fill="none"/>
    </clipPath>
    <clipPath id="clip-path-6">
      <rect id="Rectangle_124661" data-name="Rectangle 124661" width="31.1" height="13.15" transform="translate(11.7 46)" fill="none"/>
    </clipPath>
  </defs>
  <g id="Artwork_38" data-name="Artwork 38" transform="translate(50.15 34.5)">
    <g id="Group_5505" data-name="Group 5505" transform="translate(-50.15 -34.5)">
      <path id="Path_24909" data-name="Path 24909" d="M51,2.9V20.1l-8.1,8.6V11.4Z" fill="#ff0d5b"/>
      <path id="Path_24910" data-name="Path 24910" d="M51,2.9V20.1l-8.1,8.6V11.4Z" fill="none" stroke="#000" stroke-linejoin="round" stroke-width="1"/>
      <path id="Path_24911" data-name="Path 24911" d="M85.3,12.4V29.7L74.2,26.2V8.9Z" fill="#fdfb76"/>
      <path id="Path_24912" data-name="Path 24912" d="M85.3,12.4V29.7L74.2,26.2V8.9Z" fill="none" stroke="#000" stroke-linejoin="round" stroke-width="1"/>
      <path id="Path_24913" data-name="Path 24913" d="M31.5,13.3l-.1,17.3L14.8,25.3V8Z" fill="#fdfb76"/>
      <path id="Path_24914" data-name="Path 24914" d="M31.5,13.3l-.1,17.3L14.8,25.3V8Z" fill="none" stroke="#000" stroke-linejoin="round" stroke-width="1"/>
      <path id="Path_24915" data-name="Path 24915" d="M59.6,16.7,59.5,34l-4,4.3V21Z" fill="#ff0d5b"/>
      <path id="Path_24916" data-name="Path 24916" d="M59.6,16.7,59.5,34l-4,4.3V21Z" fill="none" stroke="#000" stroke-linejoin="round" stroke-width="1"/>
      <path id="Path_24917" data-name="Path 24917" d="M55.5,21V38.3L38.8,33V15.7Z" fill="#fdfb76"/>
      <path id="Path_24918" data-name="Path 24918" d="M55.5,21V38.3L38.8,33V15.7Z" fill="none" stroke="#000" stroke-linejoin="round" stroke-width="1"/>
      <path id="Path_24919" data-name="Path 24919" d="M30.7,24.2V41.5l-7.4-2.3V21.9Z" fill="#fdfb76"/>
      <path id="Path_24920" data-name="Path 24920" d="M30.7,24.2V41.5l-7.4-2.3V21.9Z" fill="none" stroke="#000" stroke-linejoin="round" stroke-width="1"/>
      <path id="Path_24921" data-name="Path 24921" d="M38.8,15.7V33l-8.1,8.5V24.2Z" fill="#ff0d5b"/>
      <path id="Path_24922" data-name="Path 24922" d="M38.8,15.7V33l-8.1,8.5V24.2Z" fill="none" stroke="#000" stroke-linejoin="round" stroke-width="1"/>
      <path id="Path_24923" data-name="Path 24923" d="M35.5,9.1,18.9,3.7,14.8,8l16.7,5.3-8.2,8.6,7.4,2.3,8.1-8.5L55.5,21l4.1-4.3L42.9,11.4,51,2.9,43.6.5Z" fill="#8e0bfa"/>
      <g id="Group_5497" data-name="Group 5497" clip-path="url(#clip-path)">
        <path id="Path_24924" data-name="Path 24924" d="M51,2.9l-8.1,8.5,16.7,5.3L55.5,21,38.8,15.7l-8.1,8.5-7.4-2.3,8.2-8.6L14.8,8l4.1-4.3L35.5,9.1,43.6.5Z" fill="none" stroke="#000" stroke-linejoin="round" stroke-width="1"/>
      </g>
      <path id="Path_24925" data-name="Path 24925" d="M99.8,7.3V24.6L71.4,54.5V37.2Z" fill="#ff0d5b"/>
      <g id="Group_5498" data-name="Group 5498" clip-path="url(#clip-path)">
        <path id="Path_24926" data-name="Path 24926" d="M99.8,7.3V24.6L71.4,54.5V37.2Z" fill="none" stroke="#000" stroke-linejoin="round" stroke-width="1"/>
      </g>
      <path id="Path_24927" data-name="Path 24927" d="M71.4,37.2V54.5L64,52.2V34.9Z" fill="#fdfb76"/>
      <path id="Path_24928" data-name="Path 24928" d="M71.4,37.2V54.5L64,52.2V34.9Z" fill="none" stroke="#000" stroke-linejoin="round" stroke-width="1"/>
      <path id="Path_24929" data-name="Path 24929" d="M99.8,7.3,71.4,37.2,64,34.9,85.3,12.4,74.2,8.9l3.1-3.2,11,3.5,4.1-4.3Z" fill="#8e0bfa"/>
      <g id="Group_5499" data-name="Group 5499" clip-path="url(#clip-path)">
        <path id="Path_24930" data-name="Path 24930" d="M99.8,7.3,71.4,37.2,64,34.9,85.3,12.4,74.2,8.9l3.1-3.2,11,3.5,4.1-4.3Z" fill="none" stroke="#000" stroke-linejoin="round" stroke-width="1"/>
      </g>
      <path id="Path_24931" data-name="Path 24931" d="M.8,50.5l7.3,2.3L9,51.7,1.8,49.4Z"/>
      <path id="Path_24932" data-name="Path 24932" d="M11.9,51.3l-1,1L9,51.7l1-1Z"/>
      <path id="Path_24933" data-name="Path 24933" d="M15.6,44.8l-1,1.1L7.4,43.6l.9-1.1Z"/>
      <path id="Path_24934" data-name="Path 24934" d="M15.4,47.5l-1.8-.6,1-1,1.8.6Z"/>
      <g id="Group_5504" data-name="Group 5504" clip-path="url(#clip-path)">
        <g id="Group_5501" data-name="Group 5501" style="isolation: isolate">
          <g id="Group_5500" data-name="Group 5500" clip-path="url(#clip-path-5)">
            <path id="Path_24935" data-name="Path 24935" d="M47.6,60.9l-5.5-1.7-2.2,2.4L38,61l5.6-5.9,1.8.6-2.3,2.4,5.5,1.8Z"/>
            <path id="Path_24936" data-name="Path 24936" d="M47.1,63.9l-1,1-7.2-2.3,1-1Z"/>
          </g>
        </g>
        <g id="Group_5503" data-name="Group 5503" style="isolation: isolate">
          <g id="Group_5502" data-name="Group 5502" clip-path="url(#clip-path-6)">
            <path id="Path_24937" data-name="Path 24937" d="M21,46.6l-7.5,7.9-1.8-.6L19.2,46Z"/>
            <path id="Path_24938" data-name="Path 24938" d="M18.3,51.9l1.8.6-2,2.1L16.3,54Z"/>
            <path id="Path_24939" data-name="Path 24939" d="M31.9,50l-6.6,6.9-1.8-.6,6.6-6.9Z"/>
            <path id="Path_24940" data-name="Path 24940" d="M18.1,54.6l5.4,1.7-1,1.1-5.4-1.7Z"/>
            <path id="Path_24941" data-name="Path 24941" d="M42.8,53.5l-1,1.1-7.3-2.4-2.3,2.4,5.5,1.8-1,1-5.5-1.7L28,59.1l-1.8-.6,7.5-7.9Z"/>
          </g>
        </g>
      </g>
      <path id="Path_24942" data-name="Path 24942" d="M0,48.8l1.8.6,5.6-5.8L5.5,43Z"/>
      <path id="Path_24943" data-name="Path 24943" d="M47.9,65.5l1.9.6L53,62.6l5.5,1.8-1,1,1.8.6L57,68.4l1.8.6,3.3-3.5L60.3,65l1-1.1L54,61.6l2.3-2.4,7.3,2.3-2.3,2.4,1.8.6,2.3-2.4-1.8-.6.9-1-9-2.9Z"/>
      <path id="Path_24944" data-name="Path 24944" d="M53.7,57l-1,1-7.3-2.3,1-1Z"/>
    </g>
  </g>
</svg>
