<svg xmlns="http://www.w3.org/2000/svg" xmlns:xlink="http://www.w3.org/1999/xlink" width="27.622" height="30" viewBox="0 0 27.622 30">
  <defs>
    <clipPath id="clip-path">
      <rect id="Rectangle_133617" data-name="Rectangle 133617" width="27.622" height="30" fill="none"/>
    </clipPath>
  </defs>
  <g id="Artwork_32" data-name="Artwork 32" transform="translate(13.811 15)">
    <g id="Group_13945" data-name="Group 13945" transform="translate(-13.811 -15)" clip-path="url(#clip-path)">
      <path id="Path_73447" data-name="Path 73447" d="M53.864,20.4,40.6,26.468V43.189l.282-.106,11.889-5.644a1.9,1.9,0,0,0,1.094-1.729V20.788a1.94,1.94,0,0,0-.035-.353M49.067,31.371c-.106.847-.741,1.482-1.376,1.411s-1.058-.847-.952-1.729.741-1.482,1.341-1.411,1.058.847.952,1.729" transform="translate(-26.277 -13.203)"/>
      <path id="Path_73448" data-name="Path 73448" d="M.035,20.4A1.9,1.9,0,0,0,0,20.753V35.71a1.9,1.9,0,0,0,1.094,1.729l11.889,5.644.282.106V26.468ZM3.457,35.922c-.635.035-1.2-.635-1.235-1.517s.423-1.587,1.058-1.623,1.2.635,1.235,1.517-.423,1.587-1.058,1.623m6.6-5.68c-.635.035-1.2-.635-1.235-1.517s.423-1.587,1.058-1.623,1.2.635,1.235,1.517-.423,1.587-1.058,1.623" transform="translate(0 -13.203)"/>
      <path id="Path_73449" data-name="Path 73449" d="M27.5,5.831,15.611.152a1.9,1.9,0,0,0-1.658,0L2.064,5.831a1.9,1.9,0,0,0-.564.423l13.264,6.068,13.3-6.1A1.9,1.9,0,0,0,27.5,5.8M9.3,7.207c-.882.035-1.587-.423-1.623-1.058s.635-1.2,1.517-1.235,1.587.423,1.623,1.058-.635,1.2-1.517,1.235m3.775-3.7c-.035-.635.635-1.2,1.517-1.235s1.587.423,1.623,1.058-.635,1.2-1.517,1.235S13.106,4.138,13.071,3.5m2.011,6.421c-.882.035-1.587-.423-1.623-1.058s.635-1.2,1.517-1.235,1.587.423,1.623,1.058-.635,1.2-1.517,1.235m5.327-2.5c-.882.035-1.587-.423-1.623-1.058s.635-1.2,1.517-1.235,1.587.423,1.623,1.058-.635,1.2-1.517,1.235" transform="translate(-0.971 0.025)"/>
    </g>
  </g>
</svg>
