<svg xmlns="http://www.w3.org/2000/svg" xmlns:xlink="http://www.w3.org/1999/xlink" width="79.1" height="86.04" viewBox="0 0 79.1 86.04">
  <defs>
    <clipPath id="clip-path">
      <rect id="Rectangle_133616" data-name="Rectangle 133616" width="79.1" height="86.04" fill="none"/>
    </clipPath>
  </defs>
  <g id="Artwork_31" data-name="Artwork 31" transform="translate(39.55 43.02)">
    <g id="Group_13944" data-name="Group 13944" transform="translate(-39.55 -43.02)" clip-path="url(#clip-path)">
      <path id="Path_73418" data-name="Path 73418" d="M78.6,21.9V64.1A5.4,5.4,0,0,1,75.5,69L41.9,85a5.4,5.4,0,0,1-4.7,0L3.6,69A5.4,5.4,0,0,1,.5,64.1V21.9A5.4,5.4,0,0,1,3.6,17L37.2,1a5.4,5.4,0,0,1,4.7,0L75.5,17a5.4,5.4,0,0,1,3.1,4.9" fill="#ff3c1d"/>
      <path id="Path_73419" data-name="Path 73419" d="M78.6,21.9V64.1A5.4,5.4,0,0,1,75.5,69L41.9,85a5.4,5.4,0,0,1-4.7,0L3.6,69A5.4,5.4,0,0,1,.5,64.1V21.9A5.4,5.4,0,0,1,3.6,17L37.2,1a5.4,5.4,0,0,1,4.7,0L75.5,17a5.4,5.4,0,0,1,3.1,4.9Z" fill="none" stroke="#000" stroke-miterlimit="10" stroke-width="1"/>
      <path id="Path_73420" data-name="Path 73420" d="M77.7,18.9A5.4,5.4,0,0,0,75.5,17L41.9,1a5.4,5.4,0,0,0-4.7,0H37L70.3,17a5.4,5.4,0,0,1,3.1,4.9V64.1A5.4,5.4,0,0,1,70.3,69L37,84.9h.2a5.4,5.4,0,0,0,4.7,0L75.5,69a5.4,5.4,0,0,0,3.1-4.9V21.9a5.4,5.4,0,0,0-.9-3"/>
      <path id="Path_73421" data-name="Path 73421" d="M77.7,18.9A5.4,5.4,0,0,0,75.5,17L41.9,1a5.4,5.4,0,0,0-4.7,0H37L70.3,17a5.4,5.4,0,0,1,3.1,4.9V64.1A5.4,5.4,0,0,1,70.3,69L37,84.9h.2a5.4,5.4,0,0,0,4.7,0L75.5,69a5.4,5.4,0,0,0,3.1-4.9V21.9a5.4,5.4,0,0,0-.9-3Z" fill="none" stroke="#000" stroke-miterlimit="10" stroke-width="1"/>
      <path id="Path_73422" data-name="Path 73422" d="M39.5,37.1V85.5a5.4,5.4,0,0,1-2.3-.5L3.6,69A5.4,5.4,0,0,1,.5,64.1V21.9a5.4,5.4,0,0,1,.9-3Z" fill="#fdfb76"/>
      <path id="Path_73423" data-name="Path 73423" d="M39.5,37.1V85.5a5.4,5.4,0,0,1-2.3-.5L3.6,69A5.4,5.4,0,0,1,.5,64.1V21.9a5.4,5.4,0,0,1,.9-3Z" fill="none" stroke="#000" stroke-miterlimit="10" stroke-width="1"/>
      <path id="Path_73424" data-name="Path 73424" d="M78.6,21.9V64.1a5.4,5.4,0,0,1-3,4.9h-.1L41.9,85a5.4,5.4,0,0,1-2.3.5V37.1L77.7,18.9a5.4,5.4,0,0,1,.9,3" fill="#ff0d5b"/>
      <path id="Path_73425" data-name="Path 73425" d="M78.6,21.9V64.1a5.4,5.4,0,0,1-3,4.9h-.1L41.9,85a5.4,5.4,0,0,1-2.3.5V37.1L77.7,18.9A5.4,5.4,0,0,1,78.6,21.9Z" fill="none" stroke="#000" stroke-miterlimit="10" stroke-width="1"/>
      <path id="Path_73426" data-name="Path 73426" d="M77.7,18.9,73.3,21a5.4,5.4,0,0,1,.1.9V64.1a5.4,5.4,0,0,1-3,4.9h-.1L39.5,83.7v1.9a5.4,5.4,0,0,0,2.3-.5L75.5,69h.1a5.4,5.4,0,0,0,3-4.9V21.9a5.4,5.4,0,0,0-.9-3"/>
      <path id="Path_73427" data-name="Path 73427" d="M77.7,18.9,73.3,21a5.4,5.4,0,0,1,.1.9V64.1a5.4,5.4,0,0,1-3,4.9h-.1L39.5,83.7v1.9a5.4,5.4,0,0,0,2.3-.5L75.5,69h.1a5.4,5.4,0,0,0,3-4.9V21.9a5.4,5.4,0,0,0-.9-3Z" fill="none" stroke="#000" stroke-miterlimit="10" stroke-width="1"/>
      <path id="Path_73428" data-name="Path 73428" d="M58.5,51c.3-2.4,2-4.2,3.8-4s3,2.4,2.6,4.8-2,4.2-3.8,4-3-2.4-2.6-4.8" fill="#8e0bfa"/>
      <path id="Path_73429" data-name="Path 73429" d="M58.5,51c.3-2.4,2-4.2,3.8-4s3,2.4,2.6,4.8-2,4.2-3.8,4S58.2,53.4,58.5,51Z" fill="none" stroke="#000" stroke-miterlimit="10" stroke-width="1"/>
      <path id="Path_73430" data-name="Path 73430" d="M9.8,55.9c1.8-.1,3.4,1.8,3.5,4.3s-1.2,4.5-3,4.6S6.9,63,6.8,60.5,8,56,9.8,55.9" fill="#8e0bfa"/>
      <path id="Path_73431" data-name="Path 73431" d="M9.8,55.9c1.8-.1,3.4,1.8,3.5,4.3s-1.2,4.5-3,4.6S6.9,63,6.8,60.5,8,56,9.8,55.9Z" fill="none" stroke="#000" stroke-miterlimit="10" stroke-width="1"/>
      <path id="Path_73432" data-name="Path 73432" d="M23.6,14.6c2.4-.1,4.5,1.2,4.6,3s-1.8,3.4-4.3,3.5-4.5-1.2-4.6-3,1.8-3.4,4.3-3.5" fill="#8e0bfa"/>
      <path id="Path_73433" data-name="Path 73433" d="M23.6,14.6c2.4-.1,4.5,1.2,4.6,3s-1.8,3.4-4.3,3.5-4.5-1.2-4.6-3S21.2,14.7,23.6,14.6Z" fill="none" stroke="#000" stroke-miterlimit="10" stroke-width="1"/>
      <path id="Path_73434" data-name="Path 73434" d="M39,6.9c2.4-.1,4.5,1.2,4.6,3s-1.8,3.4-4.3,3.5-4.5-1.2-4.6-3S36.5,7.1,39,6.9" fill="#8e0bfa"/>
      <path id="Path_73435" data-name="Path 73435" d="M39,6.9c2.4-.1,4.5,1.2,4.6,3s-1.8,3.4-4.3,3.5-4.5-1.2-4.6-3S36.5,7.1,39,6.9Z" fill="none" stroke="#000" stroke-miterlimit="10" stroke-width="1"/>
      <path id="Path_73436" data-name="Path 73436" d="M55.1,15.1c2.4-.1,4.5,1.2,4.6,3s-1.8,3.4-4.3,3.5-4.5-1.2-4.6-3,1.8-3.4,4.3-3.5" fill="#8e0bfa"/>
      <path id="Path_73437" data-name="Path 73437" d="M55.1,15.1c2.4-.1,4.5,1.2,4.6,3s-1.8,3.4-4.3,3.5-4.5-1.2-4.6-3S52.7,15.2,55.1,15.1Z" fill="none" stroke="#000" stroke-miterlimit="10" stroke-width="1"/>
      <path id="Path_73438" data-name="Path 73438" d="M40.1,22.1c2.4-.1,4.5,1.2,4.6,3s-1.8,3.4-4.3,3.5-4.5-1.2-4.6-3,1.8-3.4,4.3-3.5" fill="#8e0bfa"/>
      <path id="Path_73439" data-name="Path 73439" d="M40.1,22.1c2.4-.1,4.5,1.2,4.6,3s-1.8,3.4-4.3,3.5-4.5-1.2-4.6-3S37.6,22.3,40.1,22.1Z" fill="none" stroke="#000" stroke-miterlimit="10" stroke-width="1"/>
      <path id="Path_73440" data-name="Path 73440" d="M28.4,39.8c1.8-.1,3.4,1.8,3.5,4.3s-1.2,4.5-3,4.6-3.4-1.8-3.5-4.3,1.2-4.5,3-4.6" fill="#8e0bfa"/>
      <path id="Path_73441" data-name="Path 73441" d="M28.4,39.8c1.8-.1,3.4,1.8,3.5,4.3s-1.2,4.5-3,4.6-3.4-1.8-3.5-4.3S26.6,39.9,28.4,39.8Z" fill="none" stroke="#000" stroke-miterlimit="10" stroke-width="1"/>
      <path id="Path_73442" data-name="Path 73442" d="M62.3,47a3.2,3.2,0,0,0-3,1.7c1.6.4,2.7,2.5,2.4,4.8a5.6,5.6,0,0,1-.8,2.2h.3c1.8.2,3.5-1.5,3.8-4s-.9-4.6-2.6-4.8"/>
      <path id="Path_73443" data-name="Path 73443" d="M23.6,14.6a5.3,5.3,0,0,0-3.2,1.2H21c2.5-.1,4.5,1.2,4.6,3a2.9,2.9,0,0,1-1,2.2c2.1-.3,3.7-1.8,3.7-3.4s-2.2-3.1-4.6-3"/>
      <path id="Path_73444" data-name="Path 73444" d="M39,6.9a5.3,5.3,0,0,0-3.2,1.2h.6c2.5-.1,4.5,1.2,4.6,3a2.9,2.9,0,0,1-1,2.3c2.1-.3,3.7-1.8,3.7-3.4s-2.2-3.1-4.6-3"/>
      <path id="Path_73445" data-name="Path 73445" d="M55.1,15.1a5.3,5.3,0,0,0-3.2,1.2h.6c2.5-.1,4.5,1.2,4.6,3A2.9,2.9,0,0,1,56,21.6c2.1-.3,3.7-1.8,3.7-3.4s-2.2-3.1-4.6-3"/>
      <path id="Path_73446" data-name="Path 73446" d="M40.1,22.1a5.3,5.3,0,0,0-3.2,1.2h.6c2.5-.1,4.5,1.2,4.6,3A2.8,2.8,0,0,1,41,28.6c2.1-.3,3.7-1.8,3.7-3.4s-2.2-3.1-4.6-3"/>
    </g>
  </g>
</svg>
