<svg xmlns="http://www.w3.org/2000/svg" width="79.101" height="86.142" viewBox="0 0 79.101 86.142">
  <g id="Artwork_31" data-name="Artwork 31" transform="translate(39.55 43.091)">
    <path id="Path_105077" data-name="Path 105077" d="M78.6,21.9V64.1A5.4,5.4,0,0,1,75.5,69L41.9,85a5.4,5.4,0,0,1-4.7,0L3.6,69A5.4,5.4,0,0,1,.5,64.1V21.9A5.4,5.4,0,0,1,3.6,17L37.2,1a5.4,5.4,0,0,1,4.7,0L75.5,17a5.4,5.4,0,0,1,3.1,4.9" transform="translate(-39.55 -43.02)" fill="#ff3c1d"/>
    <path id="Path_105078" data-name="Path 105078" d="M78.6,21.9V64.1A5.4,5.4,0,0,1,75.5,69L41.9,85a5.4,5.4,0,0,1-4.7,0L3.6,69A5.4,5.4,0,0,1,.5,64.1V21.9A5.4,5.4,0,0,1,3.6,17L37.2,1a5.4,5.4,0,0,1,4.7,0L75.5,17a5.4,5.4,0,0,1,3.1,4.9Z" transform="translate(-39.55 -43.02)" fill="none" stroke="#000" stroke-miterlimit="10" stroke-width="1"/>
    <path id="Path_105079" data-name="Path 105079" d="M77.7,18.9A5.4,5.4,0,0,0,75.5,17L41.9,1a5.4,5.4,0,0,0-4.7,0L70.3,17a5.4,5.4,0,0,1,3.1,4.9V64.1A5.4,5.4,0,0,1,70.3,69L37,84.9h.2a5.4,5.4,0,0,0,4.7,0L75.5,69a5.4,5.4,0,0,0,3.1-4.9V21.9a5.4,5.4,0,0,0-.9-3" transform="translate(-39.55 -43.02)"/>
    <path id="Path_105080" data-name="Path 105080" d="M77.7,18.9A5.4,5.4,0,0,0,75.5,17L41.9,1a5.4,5.4,0,0,0-4.7,0L70.3,17a5.4,5.4,0,0,1,3.1,4.9V64.1A5.4,5.4,0,0,1,70.3,69L37.2,84.9c.848.41,3.67-1.15,38.3-15.9a5.4,5.4,0,0,0,3.1-4.9V21.9a5.4,5.4,0,0,0-.9-3Z" transform="translate(-39.55 -43.02)" fill="none" stroke="#000" stroke-miterlimit="10" stroke-width="1"/>
    <path id="Path_105081" data-name="Path 105081" d="M39.5,37.1V85.5a5.4,5.4,0,0,1-2.3-.5L3.6,69A5.4,5.4,0,0,1,.5,64.1V21.9a5.4,5.4,0,0,1,.9-3Z" transform="translate(-39.55 -43.02)" fill="#fdfb76"/>
    <path id="Path_105082" data-name="Path 105082" d="M39.5,37.1V85.5a5.4,5.4,0,0,1-2.3-.5L3.6,69A5.4,5.4,0,0,1,.5,64.1V21.9a5.4,5.4,0,0,1,.9-3Z" transform="translate(-39.55 -43.02)" fill="none" stroke="#000" stroke-miterlimit="10" stroke-width="1"/>
    <path id="Path_105083" data-name="Path 105083" d="M78.6,21.9V64.1a5.4,5.4,0,0,1-3,4.9h-.1L41.9,85a5.4,5.4,0,0,1-2.3.5V37.1L77.7,18.9a5.4,5.4,0,0,1,.9,3" transform="translate(-39.55 -43.02)" fill="#ff0d5b"/>
    <path id="Path_105084" data-name="Path 105084" d="M78.6,21.9V64.1a5.4,5.4,0,0,1-3,4.9h-.1L41.9,85a5.4,5.4,0,0,1-2.3.5V37.1L77.7,18.9A5.4,5.4,0,0,1,78.6,21.9Z" transform="translate(-39.55 -43.02)" fill="none" stroke="#000" stroke-miterlimit="10" stroke-width="1"/>
    <path id="Path_105085" data-name="Path 105085" d="M77.7,18.9,73.3,21a5.4,5.4,0,0,1,.1.9V64.1a5.4,5.4,0,0,1-3,4.9h-.1L39.5,83.7v1.9a5.4,5.4,0,0,0,2.3-.5L75.5,69h.1a5.4,5.4,0,0,0,3-4.9V21.9a5.4,5.4,0,0,0-.9-3" transform="translate(-39.55 -43.02)"/>
    <path id="Path_105086" data-name="Path 105086" d="M77.7,18.9,73.3,21a5.4,5.4,0,0,1,.1.9V64.1a5.4,5.4,0,0,1-3,4.9h-.1L39.5,83.7v1.765a5.3,5.3,0,0,0,2.3-.365L75.5,69h.1a5.4,5.4,0,0,0,3-4.9V21.9a5.4,5.4,0,0,0-.9-3Z" transform="translate(-39.55 -43.02)" fill="none" stroke="#000" stroke-miterlimit="10" stroke-width="1"/>
    <path id="Path_105087" data-name="Path 105087" d="M58.5,51c.3-2.4,2-4.2,3.8-4s3,2.4,2.6,4.8-2,4.2-3.8,4-3-2.4-2.6-4.8" transform="translate(-39.55 -43.02)" fill="#8e0bfa"/>
    <path id="Path_105088" data-name="Path 105088" d="M58.5,51c.3-2.4,2-4.2,3.8-4s3,2.4,2.6,4.8-2,4.2-3.8,4S58.2,53.4,58.5,51Z" transform="translate(-39.55 -43.02)" fill="none" stroke="#000" stroke-miterlimit="10" stroke-width="1"/>
    <path id="Path_105089" data-name="Path 105089" d="M9.8,55.9c1.8-.1,3.4,1.8,3.5,4.3s-1.2,4.5-3,4.6S6.9,63,6.8,60.5,8,56,9.8,55.9" transform="translate(-39.55 -43.02)" fill="#8e0bfa"/>
    <path id="Path_105090" data-name="Path 105090" d="M9.8,55.9c1.8-.1,3.4,1.8,3.5,4.3s-1.2,4.5-3,4.6S6.9,63,6.8,60.5,8,56,9.8,55.9Z" transform="translate(-39.55 -43.02)" fill="none" stroke="#000" stroke-miterlimit="10" stroke-width="1"/>
    <path id="Path_105091" data-name="Path 105091" d="M23.6,14.6c2.4-.1,4.5,1.2,4.6,3s-1.8,3.4-4.3,3.5-4.5-1.2-4.6-3,1.8-3.4,4.3-3.5" transform="translate(-39.55 -43.02)" fill="#8e0bfa"/>
    <path id="Path_105092" data-name="Path 105092" d="M23.6,14.6c2.4-.1,4.5,1.2,4.6,3s-1.8,3.4-4.3,3.5-4.5-1.2-4.6-3S21.2,14.7,23.6,14.6Z" transform="translate(-39.55 -43.02)" fill="none" stroke="#000" stroke-miterlimit="10" stroke-width="1"/>
    <path id="Path_105093" data-name="Path 105093" d="M39,6.9c2.4-.1,4.5,1.2,4.6,3s-1.8,3.4-4.3,3.5-4.5-1.2-4.6-3S36.5,7.1,39,6.9" transform="translate(-39.55 -43.02)" fill="#8e0bfa"/>
    <path id="Path_105094" data-name="Path 105094" d="M39,6.9c2.4-.1,4.5,1.2,4.6,3s-1.8,3.4-4.3,3.5-4.5-1.2-4.6-3S36.5,7.1,39,6.9Z" transform="translate(-39.55 -43.02)" fill="none" stroke="#000" stroke-miterlimit="10" stroke-width="1"/>
    <path id="Path_105095" data-name="Path 105095" d="M55.1,15.1c2.4-.1,4.5,1.2,4.6,3s-1.8,3.4-4.3,3.5-4.5-1.2-4.6-3,1.8-3.4,4.3-3.5" transform="translate(-39.55 -43.02)" fill="#8e0bfa"/>
    <path id="Path_105096" data-name="Path 105096" d="M55.1,15.1c2.4-.1,4.5,1.2,4.6,3s-1.8,3.4-4.3,3.5-4.5-1.2-4.6-3S52.7,15.2,55.1,15.1Z" transform="translate(-39.55 -43.02)" fill="none" stroke="#000" stroke-miterlimit="10" stroke-width="1"/>
    <path id="Path_105097" data-name="Path 105097" d="M40.1,22.1c2.4-.1,4.5,1.2,4.6,3s-1.8,3.4-4.3,3.5-4.5-1.2-4.6-3,1.8-3.4,4.3-3.5" transform="translate(-39.55 -43.02)" fill="#8e0bfa"/>
    <path id="Path_105098" data-name="Path 105098" d="M40.1,22.1c2.4-.1,4.5,1.2,4.6,3s-1.8,3.4-4.3,3.5-4.5-1.2-4.6-3S37.6,22.3,40.1,22.1Z" transform="translate(-39.55 -43.02)" fill="none" stroke="#000" stroke-miterlimit="10" stroke-width="1"/>
    <path id="Path_105099" data-name="Path 105099" d="M28.4,39.8c1.8-.1,3.4,1.8,3.5,4.3s-1.2,4.5-3,4.6-3.4-1.8-3.5-4.3,1.2-4.5,3-4.6" transform="translate(-39.55 -43.02)" fill="#8e0bfa"/>
    <path id="Path_105100" data-name="Path 105100" d="M28.4,39.8c1.8-.1,3.4,1.8,3.5,4.3s-1.2,4.5-3,4.6-3.4-1.8-3.5-4.3S26.6,39.9,28.4,39.8Z" transform="translate(-39.55 -43.02)" fill="none" stroke="#000" stroke-miterlimit="10" stroke-width="1"/>
    <path id="Path_105101" data-name="Path 105101" d="M62.3,47a3.2,3.2,0,0,0-3,1.7c1.6.4,2.7,2.5,2.4,4.8a5.6,5.6,0,0,1-.8,2.2h.3c1.8.2,3.5-1.5,3.8-4s-.9-4.6-2.6-4.8" transform="translate(-39.55 -43.02)"/>
    <path id="Path_105102" data-name="Path 105102" d="M23.6,14.6a5.3,5.3,0,0,0-3.2,1.2H21c2.5-.1,4.5,1.2,4.6,3a2.9,2.9,0,0,1-1,2.2c2.1-.3,3.7-1.8,3.7-3.4s-2.2-3.1-4.6-3" transform="translate(-39.55 -43.02)"/>
    <path id="Path_105103" data-name="Path 105103" d="M39,6.9a5.3,5.3,0,0,0-3.2,1.2h.6c2.5-.1,4.5,1.2,4.6,3a2.9,2.9,0,0,1-1,2.3c2.1-.3,3.7-1.8,3.7-3.4s-2.2-3.1-4.6-3" transform="translate(-39.55 -43.02)"/>
    <path id="Path_105104" data-name="Path 105104" d="M55.1,15.1a5.3,5.3,0,0,0-3.2,1.2h.6c2.5-.1,4.5,1.2,4.6,3A2.9,2.9,0,0,1,56,21.6c2.1-.3,3.7-1.8,3.7-3.4s-2.2-3.1-4.6-3" transform="translate(-39.55 -43.02)"/>
    <path id="Path_105105" data-name="Path 105105" d="M40.1,22.1a5.3,5.3,0,0,0-3.2,1.2h.6c2.5-.1,4.5,1.2,4.6,3A2.8,2.8,0,0,1,41,28.6c2.1-.3,3.7-1.8,3.7-3.4s-2.2-3.1-4.6-3" transform="translate(-39.55 -43.02)"/>
  </g>
</svg>
