<svg xmlns="http://www.w3.org/2000/svg" xmlns:xlink="http://www.w3.org/1999/xlink" width="204.625" height="171.05" viewBox="0 0 204.625 171.05">
  <defs>
    <clipPath id="clip-path">
      <rect id="Rectangle_125498" data-name="Rectangle 125498" width="204.625" height="171.05" fill="none"/>
    </clipPath>
  </defs>
  <g id="Artwork_39" data-name="Artwork 39" transform="translate(102.312 85.525)">
    <g id="Group_5841" data-name="Group 5841" transform="translate(-102.312 -85.525)" clip-path="url(#clip-path)">
      <path id="Path_28207" data-name="Path 28207" d="M195.013,76.1H9.524A9.024,9.024,0,0,0,.5,85.124v69.694a9.024,9.024,0,0,0,9.024,9.024H195.013a9.024,9.024,0,0,0,9.024-9.024V85.124a9.024,9.024,0,0,0-9.024-9.024" transform="translate(0.044 6.641)" fill="#8e0bfa"/>
      <rect id="Rectangle_125496" data-name="Rectangle 125496" width="203.537" height="87.776" rx="9.024" transform="translate(0.544 82.741)" fill="none" stroke="#000" stroke-miterlimit="10" stroke-width="1.087"/>
      <path id="Path_28208" data-name="Path 28208" d="M185.133,86.1H17.693A7.393,7.393,0,0,0,10.3,93.493V144.7a7.393,7.393,0,0,0,7.393,7.393h167.44a7.393,7.393,0,0,0,7.393-7.393V93.493a7.393,7.393,0,0,0-7.393-7.393" transform="translate(0.899 7.514)" fill="#00db96"/>
      <path id="Path_28209" data-name="Path 28209" d="M185.133,86.1H17.693A7.393,7.393,0,0,0,10.3,93.493V144.7a7.393,7.393,0,0,0,7.393,7.393h167.44a7.393,7.393,0,0,0,7.393-7.393V93.493A7.393,7.393,0,0,0,185.133,86.1Z" transform="translate(0.899 7.514)" fill="none" stroke="#000" stroke-miterlimit="10" stroke-width="1.087"/>
      <path id="Path_28210" data-name="Path 28210" d="M95.871,151.111H41.29L23.459,133.28a3.914,3.914,0,0,1-1.848-3.588,4.24,4.24,0,0,1,1.087-2.827l2.827-3.588-7.176-7.393c-1.522-.652-1.848-2.283-1.848-4.24a4.24,4.24,0,0,1,4.349-4.349,3.044,3.044,0,0,1,1.3.217l9.568,2.936-.435-9.242C31.4,98.27,33.135,97.4,35.636,97.4s3.479.326,4.24,1.957l8.807,8.481a9.025,9.025,0,0,1,1.848-.544,3.914,3.914,0,0,1,3.588,1.848l14.352,14.352Z" transform="translate(1.44 8.5)"/>
      <path id="Path_28211" data-name="Path 28211" d="M95.871,151.111H41.29L23.459,133.28a3.914,3.914,0,0,1-1.848-3.588,4.24,4.24,0,0,1,1.087-2.827l2.827-3.588-7.176-7.393c-1.522-.652-1.848-2.283-1.848-4.24a4.24,4.24,0,0,1,4.349-4.349,3.044,3.044,0,0,1,1.3.217l9.568,2.936-.435-9.242C31.4,98.27,33.135,97.4,35.636,97.4s3.479.326,4.24,1.957l8.807,8.481a9.025,9.025,0,0,1,1.848-.544,3.914,3.914,0,0,1,3.588,1.848l14.352,14.352Z" transform="translate(1.44 8.5)" fill="none" stroke="#000" stroke-miterlimit="10" stroke-width="1.087"/>
      <path id="Path_28212" data-name="Path 28212" d="M135.971,151.139H81.39L63.559,133.308a3.914,3.914,0,0,1-1.848-3.588,4.24,4.24,0,0,1,1.087-2.827l2.827-3.588-7.176-7.393c-1.522-.652-1.848-2.283-1.848-4.24a4.24,4.24,0,0,1,4.349-4.349,3.044,3.044,0,0,1,1.3.217l9.568,2.936-.435-9.242A3.914,3.914,0,0,1,75.736,97.1a4.349,4.349,0,0,1,4.132,2.283l8.372,8.155.87-.326,1.3-.217A4.349,4.349,0,0,1,94,109.279Z" transform="translate(4.94 8.472)"/>
      <path id="Path_28213" data-name="Path 28213" d="M135.971,151.139H81.39L63.559,133.308a3.914,3.914,0,0,1-1.848-3.588,4.24,4.24,0,0,1,1.087-2.827l2.827-3.588-7.176-7.393c-1.522-.652-1.848-2.283-1.848-4.24a4.24,4.24,0,0,1,4.349-4.349,3.044,3.044,0,0,1,1.3.217l9.568,2.936-.435-9.242A3.914,3.914,0,0,1,75.736,97.1a4.349,4.349,0,0,1,4.132,2.283l8.372,8.155.87-.326,1.3-.217A4.349,4.349,0,0,1,94,109.279Z" transform="translate(4.94 8.472)" fill="none" stroke="#000" stroke-miterlimit="10" stroke-width="1.087"/>
      <path id="Path_28214" data-name="Path 28214" d="M176.215,151.148H121.633L103.8,133.316a4.023,4.023,0,0,1-1.2-6.306L105,123.531l.435-.544-6.85-7.067c-1.522-.652-2.283-2.283-2.283-4.24a5,5,0,0,1,4.784-4.784,3.044,3.044,0,0,1,1.3.217l9.133,2.936-.435-8.916C111.2,98.306,113.37,97,115.762,97A4.349,4.349,0,0,1,120,99.285l8.372,8.155.87-.326,1.3-.217a4.349,4.349,0,0,1,3.588,2.283l14.352,14.352Z" transform="translate(8.404 8.464)"/>
      <path id="Path_28215" data-name="Path 28215" d="M176.215,151.148H121.633L103.8,133.316a4.023,4.023,0,0,1-1.2-6.306L105,123.531l.435-.544-6.85-7.067c-1.522-.652-2.283-2.283-2.283-4.24a5,5,0,0,1,4.784-4.784,3.044,3.044,0,0,1,1.3.217l9.133,2.936-.435-8.916C111.2,98.306,113.37,97,115.762,97A4.349,4.349,0,0,1,120,99.285l8.372,8.155.87-.326,1.3-.217a4.349,4.349,0,0,1,3.588,2.283l14.352,14.352Z" transform="translate(8.404 8.464)" fill="none" stroke="#000" stroke-miterlimit="10" stroke-width="1.087"/>
      <path id="Path_28216" data-name="Path 28216" d="M181.522,116.255v27.508a7.393,7.393,0,0,1-7.393,7.393H161.733L143.9,133.325a4.023,4.023,0,0,1-1.2-6.306l2.392-3.479.435-.544-6.85-7.067c-1.522-.652-2.283-2.283-2.283-4.24a5,5,0,0,1,4.784-4.784,3.044,3.044,0,0,1,1.3.217l9.133,2.936-.435-8.916c.109-2.936,2.283-4.24,4.675-4.24a4.349,4.349,0,0,1,4.24,2.283l8.372,8.155.87-.326,1.3-.217a4.349,4.349,0,0,1,3.588,2.283Z" transform="translate(11.904 8.455)"/>
      <path id="Path_28217" data-name="Path 28217" d="M181.522,116.255v27.508a7.393,7.393,0,0,1-7.393,7.393H161.733L143.9,133.325a4.023,4.023,0,0,1-1.2-6.306l2.392-3.479.435-.544-6.85-7.067c-1.522-.652-2.283-2.283-2.283-4.24a5,5,0,0,1,4.784-4.784,3.044,3.044,0,0,1,1.3.217l9.133,2.936-.435-8.916c.109-2.936,2.283-4.24,4.675-4.24a4.349,4.349,0,0,1,4.24,2.283l8.372,8.155.87-.326,1.3-.217a4.349,4.349,0,0,1,3.588,2.283Z" transform="translate(11.904 8.455)" fill="none" stroke="#000" stroke-miterlimit="10" stroke-width="1.087"/>
      <path id="Path_28218" data-name="Path 28218" d="M49.162,127.126a4.349,4.349,0,0,1,.652,2.5c0,2.827-2.827,4.675-5.328,4.675a3.7,3.7,0,0,1-3.262-1.631l-5.654-8.7-5.763,8.807a3.153,3.153,0,0,1-3.044,1.522c-2.066,0-5.545-1.631-5.545-4.567a4.24,4.24,0,0,1,1.087-2.827l5.654-8.155-9.024-2.609C16.979,115.71,16,113.97,16,111.687a5,5,0,0,1,4.784-4.784,3.044,3.044,0,0,1,1.3.217l9.133,2.936-.435-8.916c.109-2.827,2.283-4.24,4.675-4.24s4.567,1.3,4.675,4.24l-.326,9.024,9.242-3.153,1.3-.217c2.718,0,4.567,2.827,4.567,5.436a3.7,3.7,0,0,1-2.936,3.805L43.073,118.1Z" transform="translate(1.396 8.457)" fill="#ff0d5b"/>
      <path id="Path_28219" data-name="Path 28219" d="M49.162,127.126a4.349,4.349,0,0,1,.652,2.5c0,2.827-2.827,4.675-5.328,4.675a3.7,3.7,0,0,1-3.262-1.631l-5.654-8.7-5.763,8.807a3.153,3.153,0,0,1-3.044,1.522c-2.066,0-5.545-1.631-5.545-4.567a4.24,4.24,0,0,1,1.087-2.827l5.654-8.155-9.024-2.609C16.979,115.71,16,113.97,16,111.687a5,5,0,0,1,4.784-4.784,3.044,3.044,0,0,1,1.3.217l9.133,2.936-.435-8.916c.109-2.827,2.283-4.24,4.675-4.24s4.567,1.3,4.675,4.24l-.326,9.024,9.242-3.153,1.3-.217c2.718,0,4.567,2.827,4.567,5.436a3.7,3.7,0,0,1-2.936,3.805L43.073,118.1Z" transform="translate(1.396 8.457)" fill="none" stroke="#000" stroke-miterlimit="10" stroke-width="1.087"/>
      <path id="Path_28220" data-name="Path 28220" d="M89.253,127.126a4.349,4.349,0,0,1,.652,2.5c0,2.827-2.827,4.675-5.328,4.675a3.7,3.7,0,0,1-3.262-1.631l-5.654-8.7L69.9,132.78a3.153,3.153,0,0,1-3.044,1.522c-2.066,0-5.545-1.631-5.545-4.567a4.24,4.24,0,0,1,1.087-2.827l5.763-8.155-9.024-2.609c-1.957-.435-2.936-2.175-2.936-4.458a5,5,0,0,1,4.784-4.784,3.044,3.044,0,0,1,1.3.217l9.133,2.936-.435-8.916c.109-2.827,2.283-4.24,4.675-4.24s4.567,1.3,4.675,4.24l-.326,9.024,9.242-3.153,1.3-.217c2.718,0,4.567,2.827,4.567,5.436a3.7,3.7,0,0,1-2.936,3.805l-9.024,2.283Z" transform="translate(4.905 8.457)" fill="#ff0d5b"/>
      <path id="Path_28221" data-name="Path 28221" d="M89.253,127.126a4.349,4.349,0,0,1,.652,2.5c0,2.827-2.827,4.675-5.328,4.675a3.7,3.7,0,0,1-3.262-1.631l-5.654-8.7L69.9,132.78a3.153,3.153,0,0,1-3.044,1.522c-2.066,0-5.545-1.631-5.545-4.567a4.24,4.24,0,0,1,1.087-2.827l5.763-8.155-9.024-2.609c-1.957-.435-2.936-2.175-2.936-4.458a5,5,0,0,1,4.784-4.784,3.044,3.044,0,0,1,1.3.217l9.133,2.936-.435-8.916c.109-2.827,2.283-4.24,4.675-4.24s4.567,1.3,4.675,4.24l-.326,9.024,9.242-3.153,1.3-.217c2.718,0,4.567,2.827,4.567,5.436a3.7,3.7,0,0,1-2.936,3.805l-9.024,2.283Z" transform="translate(4.905 8.457)" fill="none" stroke="#000" stroke-miterlimit="10" stroke-width="1.087"/>
      <path id="Path_28222" data-name="Path 28222" d="M129.462,127.126a4.349,4.349,0,0,1,.652,2.5c0,2.827-2.827,4.675-5.328,4.675a3.7,3.7,0,0,1-3.262-1.631l-5.654-8.7-5.763,8.807a3.153,3.153,0,0,1-3.044,1.522c-2.066,0-5.545-1.631-5.545-4.567a4.24,4.24,0,0,1,1.087-2.827l5.763-8.155-9.133-2.609c-1.957-.435-2.936-2.175-2.936-4.458a5,5,0,0,1,4.784-4.784,3.044,3.044,0,0,1,1.3.217l9.133,2.936-.435-8.916c.109-2.827,2.283-4.24,4.675-4.24s4.567,1.3,4.675,4.24l-.326,9.024,9.242-3.153,1.3-.217c2.718,0,4.567,2.827,4.567,5.436a3.7,3.7,0,0,1-2.936,3.805l-8.916,2.066Z" transform="translate(8.404 8.457)" fill="#ff0d5b"/>
      <path id="Path_28223" data-name="Path 28223" d="M129.462,127.126a4.349,4.349,0,0,1,.652,2.5c0,2.827-2.827,4.675-5.328,4.675a3.7,3.7,0,0,1-3.262-1.631l-5.654-8.7-5.763,8.807a3.153,3.153,0,0,1-3.044,1.522c-2.066,0-5.545-1.631-5.545-4.567a4.24,4.24,0,0,1,1.087-2.827l5.763-8.155-9.133-2.609c-1.957-.435-2.936-2.175-2.936-4.458a5,5,0,0,1,4.784-4.784,3.044,3.044,0,0,1,1.3.217l9.133,2.936-.435-8.916c.109-2.827,2.283-4.24,4.675-4.24s4.567,1.3,4.675,4.24l-.326,9.024,9.242-3.153,1.3-.217c2.718,0,4.567,2.827,4.567,5.436a3.7,3.7,0,0,1-2.936,3.805l-8.916,2.066Z" transform="translate(8.404 8.457)" fill="none" stroke="#000" stroke-miterlimit="10" stroke-width="1.087"/>
      <path id="Path_28224" data-name="Path 28224" d="M169.553,127.126a4.349,4.349,0,0,1,.652,2.5c0,2.827-2.827,4.675-5.328,4.675a3.7,3.7,0,0,1-3.262-1.631l-5.654-8.7L150.2,132.78a3.153,3.153,0,0,1-3.044,1.522c-2.066,0-5.545-1.631-5.545-4.567a4.24,4.24,0,0,1,1.087-2.827l5.763-8.155-9.024-2.609c-1.957-.435-2.936-2.175-2.936-4.458a5,5,0,0,1,4.784-4.784,3.044,3.044,0,0,1,1.3.217l9.133,2.936-.435-8.916c.109-2.827,2.283-4.24,4.675-4.24s4.567,1.3,4.675,4.24l-.326,9.024,9.242-3.153,1.3-.217c2.718,0,4.567,2.827,4.567,5.436a3.7,3.7,0,0,1-2.936,3.805l-8.916,2.066Z" transform="translate(11.913 8.457)" fill="#ff0d5b"/>
      <path id="Path_28225" data-name="Path 28225" d="M169.553,127.126a4.349,4.349,0,0,1,.652,2.5c0,2.827-2.827,4.675-5.328,4.675a3.7,3.7,0,0,1-3.262-1.631l-5.654-8.7L150.2,132.78a3.153,3.153,0,0,1-3.044,1.522c-2.066,0-5.545-1.631-5.545-4.567a4.24,4.24,0,0,1,1.087-2.827l5.763-8.155-9.024-2.609c-1.957-.435-2.936-2.175-2.936-4.458a5,5,0,0,1,4.784-4.784,3.044,3.044,0,0,1,1.3.217l9.133,2.936-.435-8.916c.109-2.827,2.283-4.24,4.675-4.24s4.567,1.3,4.675,4.24l-.326,9.024,9.242-3.153,1.3-.217c2.718,0,4.567,2.827,4.567,5.436a3.7,3.7,0,0,1-2.936,3.805l-8.916,2.066Z" transform="translate(11.913 8.457)" fill="none" stroke="#000" stroke-miterlimit="10" stroke-width="1.087"/>
      <path id="Path_28226" data-name="Path 28226" d="M132.817,30.225a2.718,2.718,0,0,1,1.522-3.588l4.023-1.522a2.736,2.736,0,1,1,1.957,5.11L136.3,31.747a2.718,2.718,0,0,1-3.588-1.522" transform="translate(11.573 2.176)"/>
      <path id="Path_28227" data-name="Path 28227" d="M132.333,35.111a2.718,2.718,0,0,1,3.805-.979l3.7,2.175a2.732,2.732,0,0,1-2.827,4.675l-3.7-2.175A2.718,2.718,0,0,1,132.333,35" transform="translate(11.513 2.943)"/>
      <path id="Path_28228" data-name="Path 28228" d="M129.066,26.964a2.718,2.718,0,0,0,3.371-1.848l1.2-4.132a2.77,2.77,0,1,0-5.328-1.522l-1.2,4.132a2.718,2.718,0,0,0,1.848,3.371" transform="translate(11.084 1.523)"/>
      <path id="Path_28229" data-name="Path 28229" d="M123.7,47.992H72.6V27.551a25.551,25.551,0,1,1,51.1,0Z" transform="translate(6.336 0.175)" fill="none" stroke="#000" stroke-miterlimit="10" stroke-width="4.349"/>
      <path id="Path_28230" data-name="Path 28230" d="M132.765,95.072H66.115A6.415,6.415,0,0,1,59.7,88.657V47.015A6.415,6.415,0,0,1,66.115,40.6h66.65a6.415,6.415,0,0,1,6.415,6.415V88.766a6.415,6.415,0,0,1-6.415,6.415" transform="translate(5.21 3.543)" fill="#fdfb76"/>
      <rect id="Rectangle_125497" data-name="Rectangle 125497" width="79.371" height="54.505" rx="6.415" transform="translate(65.019 44.143)" fill="none" stroke="#000" stroke-miterlimit="10" stroke-width="1.087"/>
      <path id="Path_28231" data-name="Path 28231" d="M127.825,40.6H116.3a6.415,6.415,0,0,1,6.415,6.415V88.766a6.415,6.415,0,0,1-6.415,6.415h11.525a6.415,6.415,0,0,0,6.415-6.415V47.015a6.415,6.415,0,0,0-6.415-6.415" transform="translate(10.15 3.543)"/>
      <path id="Path_28232" data-name="Path 28232" d="M127.825,40.6H116.3a6.415,6.415,0,0,1,6.415,6.415V88.766a6.415,6.415,0,0,1-6.415,6.415h11.525a6.415,6.415,0,0,0,6.415-6.415V47.015a6.415,6.415,0,0,0-6.415-6.415Z" transform="translate(10.15 3.543)" fill="none" stroke="#000" stroke-miterlimit="10" stroke-width="1.087"/>
      <path id="Path_28233" data-name="Path 28233" d="M93.914,69.547V77.81a2.936,2.936,0,1,0,5.871,0V69.547a6.85,6.85,0,1,0-5.871,0" transform="translate(7.854 4.932)"/>
      <path id="Path_28234" data-name="Path 28234" d="M93.914,69.547V77.81a2.936,2.936,0,1,0,5.871,0V69.547a6.85,6.85,0,1,0-5.871,0Z" transform="translate(7.854 4.932)" fill="none" stroke="#000" stroke-miterlimit="10" stroke-width="1.087"/>
    </g>
  </g>
</svg>
