<svg id="Help_knop_-_user" data-name="Help knop - user" xmlns="http://www.w3.org/2000/svg" width="25.184" height="25.185" viewBox="0 0 25.184 25.185">
  <path id="Path_7452" data-name="Path 7452" d="M7126.125,3357h12.621l4.184,4.207v12.577l-4.237,4.222H7126.1l-4.2-4.222v-12.577Z" transform="translate(-7119.823 -3354.91)" fill="#fdfb76"/>
  <text id="_" data-name="?" transform="translate(14 21)" font-size="16" font-family="PixelArial11, 'Pixel Arial \31 1'"><tspan x="-6" y="0">?</tspan></text>
  <g id="Artwork_30" data-name="Artwork 30" transform="translate(12.592 12.592)">
    <g id="Group_4645" data-name="Group 4645" transform="translate(-12.592 -12.592)">
      <rect id="Rectangle_122143" data-name="Rectangle 122143" width="12.045" height="2.19" transform="translate(6.57 0)"/>
      <rect id="Rectangle_122144" data-name="Rectangle 122144" width="2.19" height="2.19" transform="translate(4.38 2.19)"/>
      <rect id="Rectangle_122145" data-name="Rectangle 122145" width="2.19" height="2.19" transform="translate(2.19 4.38)"/>
      <rect id="Rectangle_122146" data-name="Rectangle 122146" width="2.19" height="2.19" transform="translate(18.615 2.19)"/>
      <rect id="Rectangle_122147" data-name="Rectangle 122147" width="2.19" height="2.19" transform="translate(20.805 4.38)"/>
      <rect id="Rectangle_122148" data-name="Rectangle 122148" width="2.19" height="12.045" transform="translate(22.995 6.57)"/>
      <rect id="Rectangle_122149" data-name="Rectangle 122149" width="2.19" height="12.045" transform="translate(0 6.57)"/>
      <rect id="Rectangle_122150" data-name="Rectangle 122150" width="2.19" height="2.19" transform="translate(2.19 18.615)"/>
      <rect id="Rectangle_122151" data-name="Rectangle 122151" width="2.19" height="2.19" transform="translate(4.38 20.805)"/>
      <rect id="Rectangle_122152" data-name="Rectangle 122152" width="2.19" height="2.19" transform="translate(20.805 18.615)"/>
      <rect id="Rectangle_122153" data-name="Rectangle 122153" width="2.19" height="2.19" transform="translate(18.615 20.805)"/>
      <rect id="Rectangle_122154" data-name="Rectangle 122154" width="12.045" height="2.19" transform="translate(6.57 22.995)"/>
    </g>
  </g>
</svg>
