<svg xmlns="http://www.w3.org/2000/svg" viewBox="0 0 25.19 25.19"><defs><style>.cls-1{fill:#f9f07d;}.cls-2{fill:#231f20;}</style></defs><g id="Layer_2" data-name="Layer 2"><g id="Layer_1-2" data-name="Layer 1"><path id="Path_7452" data-name="Path 7452" class="cls-1" d="M6.3,2.09H18.92L23.11,6.3V18.87L18.87,23.1H6.28l-4.2-4.23V6.3Z"/><g id="Artwork_30" data-name="Artwork 30"><g id="Group_4645" data-name="Group 4645"><rect id="Rectangle_122143" data-name="Rectangle 122143" x="6.57" width="12.05" height="2.19"/><rect id="Rectangle_122144" data-name="Rectangle 122144" x="4.38" y="2.19" width="2.19" height="2.19"/><rect id="Rectangle_122145" data-name="Rectangle 122145" x="2.19" y="4.38" width="2.19" height="2.19"/><rect id="Rectangle_122146" data-name="Rectangle 122146" x="18.61" y="2.19" width="2.19" height="2.19"/><rect id="Rectangle_122147" data-name="Rectangle 122147" x="20.81" y="4.38" width="2.19" height="2.19"/><rect id="Rectangle_122148" data-name="Rectangle 122148" x="23" y="6.57" width="2.19" height="12.05"/><rect id="Rectangle_122149" data-name="Rectangle 122149" y="6.57" width="2.19" height="12.05"/><rect id="Rectangle_122150" data-name="Rectangle 122150" x="2.19" y="18.61" width="2.19" height="2.19"/><rect id="Rectangle_122151" data-name="Rectangle 122151" x="4.38" y="20.81" width="2.19" height="2.19"/><rect id="Rectangle_122152" data-name="Rectangle 122152" x="20.81" y="18.61" width="2.19" height="2.19"/><rect id="Rectangle_122153" data-name="Rectangle 122153" x="18.61" y="20.81" width="2.19" height="2.19"/><rect id="Rectangle_122154" data-name="Rectangle 122154" x="6.57" y="23" width="12.05" height="2.19"/></g></g><path class="cls-2" d="M8.64,7.75h1.77V9.5H8.64ZM10.41,6h5.23V7.75H10.41Zm1.73,7h1.77v3.5H12.14Zm0,5.25h1.77V20H12.14Zm1.77-7h1.73V13H13.91Zm1.73-3.5h1.77v3.5H15.64Z"/></g></g></svg>