<svg xmlns="http://www.w3.org/2000/svg" width="91.618" height="185.55" viewBox="0 0 91.618 185.55">
  <g id="Group_5849" data-name="Group 5849" transform="translate(-127.5 -15.5)">
    <path id="Path_28319" data-name="Path 28319" d="M128,16a22.654,22.654,0,0,1,22.654,22.654V49.982H139.327A11.327,11.327,0,0,1,128,38.654V16Z" fill="#8e0bfa" stroke="#000" stroke-miterlimit="10" stroke-width="1"/>
    <path id="Path_28320" data-name="Path 28320" d="M250.327,49.982H239V38.654A22.654,22.654,0,0,1,261.654,16h0V38.654A11.327,11.327,0,0,1,250.327,49.982Z" transform="translate(-43.037)" fill="#8e0bfa" stroke="#000" stroke-miterlimit="10" stroke-width="1"/>
    <path id="Path_28321" data-name="Path 28321" d="M128,82.827v34.953a38.674,38.674,0,0,0,11.327,27.346,38.674,38.674,0,0,1,11.327,27.346v17.963a5.663,5.663,0,0,0,5.664,5.664H190.3a5.663,5.663,0,0,0,5.664-5.664V172.473a38.674,38.674,0,0,1,11.327-27.346,38.674,38.674,0,0,0,11.327-27.346V82.827A11.327,11.327,0,0,0,207.29,71.5H139.327A11.327,11.327,0,0,0,128,82.827Z" transform="translate(0 -21.518)" fill="#8e0bfa" stroke="#000" stroke-miterlimit="10" stroke-width="1"/>
    <circle id="Ellipse_458" data-name="Ellipse 458" cx="5.664" cy="5.664" r="5.664" transform="translate(144.991 78.3)" stroke="#000" stroke-miterlimit="10" stroke-width="1"/>
    <circle id="Ellipse_459" data-name="Ellipse 459" cx="5.664" cy="5.664" r="5.664" transform="translate(190.3 78.3)" stroke="#000" stroke-miterlimit="10" stroke-width="1"/>
    <path id="Path_28322" data-name="Path 28322" d="M128,82.827v5.664a5.663,5.663,0,0,0,5.664,5.664h16.991a11.327,11.327,0,0,1,11.327,11.327v62.3a11.327,11.327,0,0,0-11.327,11.327v11.327a5.663,5.663,0,0,0,5.664,5.664H190.3a5.663,5.663,0,0,0,5.664-5.664V179.108a11.327,11.327,0,0,0-11.327-11.327v-62.3a11.327,11.327,0,0,1,11.327-11.327h16.991a5.663,5.663,0,0,0,5.664-5.664V82.827A11.327,11.327,0,0,0,207.29,71.5H139.327A11.327,11.327,0,0,0,128,82.827Z" transform="translate(0 -21.518)" fill="#fcf7eb" stroke="#000" stroke-miterlimit="10" stroke-width="1"/>
    <path id="Path_28323" data-name="Path 28323" d="M174.25,275h33.982v2.832a8.5,8.5,0,0,1-8.5,8.5H182.745a8.5,8.5,0,0,1-8.5-8.5V275Z" transform="translate(-17.932 -100.419)" fill="#fcf7eb" stroke="#000" stroke-miterlimit="10" stroke-width="1"/>
    <g id="Group_5846" data-name="Group 5846" transform="translate(150.654 38.654)">
      <path id="Path_28324" data-name="Path 28324" d="M187.747,247.25A4.248,4.248,0,0,1,192,251.5v12.743h-8.5V251.5A4.248,4.248,0,0,1,187.747,247.25Z" transform="translate(-172.173 -128.314)" stroke="#000" stroke-miterlimit="10" stroke-width="1"/>
      <path id="Path_28325" data-name="Path 28325" d="M210.872,247.25a4.248,4.248,0,0,1,4.248,4.248v12.743h-8.5V251.5A4.248,4.248,0,0,1,210.872,247.25Z" transform="translate(-181.139 -128.314)" stroke="#000" stroke-miterlimit="10" stroke-width="1"/>
      <path id="Path_28326" data-name="Path 28326" d="M183.5,53h11.327V64.327A11.327,11.327,0,0,1,183.5,75.654h0V53Z" transform="translate(-172.173 -53)" fill="#00db96" stroke="#000" stroke-miterlimit="10" stroke-width="1"/>
      <path id="Path_28327" data-name="Path 28327" d="M170.664,53h5.664V64.327A11.327,11.327,0,0,1,165,75.654h0V58.664A5.663,5.663,0,0,1,170.664,53Z" transform="translate(-165 -53)" fill="#00db96" stroke="#000" stroke-miterlimit="10" stroke-width="1"/>
      <path id="Path_28328" data-name="Path 28328" d="M213.327,75.654A11.327,11.327,0,0,1,202,64.327V53h11.327V75.654Z" transform="translate(-179.346 -53)" fill="#00db96" stroke="#000" stroke-miterlimit="10" stroke-width="1"/>
      <path id="Path_28329" data-name="Path 28329" d="M231.827,75.654A11.327,11.327,0,0,1,220.5,64.327V53h5.664a5.663,5.663,0,0,1,5.664,5.664V75.654Z" transform="translate(-186.518 -53)" fill="#00db96" stroke="#000" stroke-miterlimit="10" stroke-width="1"/>
    </g>
    <g id="Group_5848" data-name="Group 5848" transform="translate(128.109 106.403)">
      <path id="Path_28330" data-name="Path 28330" d="M197.782,211.128c-1.462,5.414-6.438,10.707-20.3,10.707s-18.91-5.3-20.439-10.712a37.383,37.383,0,0,1-16.345-3.985c-.154.445-6.738,19.752,5.271,29.165,0,0,.538,14.793,9.774,20.524,0,0,7.323,17.83,21.738,17.83s21.738-17.83,21.738-17.83c9.237-5.732,9.774-20.524,9.774-20.524,12-9.408,5.433-28.7,5.272-29.165a37.444,37.444,0,0,1-16.481,3.989Z" transform="translate(-132.279 -180.511)" fill="#00db96" stroke="#000" stroke-miterlimit="10" stroke-width="1"/>
      <g id="Group_5847" data-name="Group 5847" transform="translate(7.322 26.627)">
        <path id="Path_28331" data-name="Path 28331" d="M250.076,207.139a37.444,37.444,0,0,1-16.481,3.989,12.268,12.268,0,0,1-2.469,4.77c.383.014.77.023,1.168.023a37.43,37.43,0,0,0,18.874-4.6A35.955,35.955,0,0,0,250.076,207.139Z" transform="translate(-175.415 -207.138)" stroke="#000" stroke-miterlimit="10" stroke-width="1"/>
        <path id="Path_28332" data-name="Path 28332" d="M141.229,207.138a35.785,35.785,0,0,0-1.092,4.179,37.431,37.431,0,0,0,18.875,4.6c.372,0,.736-.008,1.095-.02a12.462,12.462,0,0,1-2.532-4.777A37.384,37.384,0,0,1,141.229,207.138Z" transform="translate(-140.137 -207.138)" stroke="#000" stroke-miterlimit="10" stroke-width="1"/>
        <path id="Path_28333" data-name="Path 28333" d="M189.335,303.185c-8.931,0-15.608-4.685-20-9.252,2.952,5.184,9.646,14.376,20,14.376s17.045-9.192,20-14.376c-4.389,4.567-11.066,9.252-20,9.252Z" transform="translate(-151.459 -240.79)" stroke="#000" stroke-miterlimit="10" stroke-width="1"/>
      </g>
      <path id="Path_28334" data-name="Path 28334" d="M173.377,183.975s3.933,10.31,19,10.31c12.844,0,20.741-4.961,25.25-9.43a3.171,3.171,0,0,0-2.428-5.422c-13.874.967-16.1-11.721-26.222-15.06-10.65-3.512-15.6,6.911-15.6,6.911s-4.953-10.423-15.6-6.911c-10.126,3.339-12.347,16.028-26.222,15.06a3.171,3.171,0,0,0-2.427,5.422c4.508,4.47,12.405,9.43,25.249,9.43,15.069,0,19-10.31,19-10.31Z" transform="translate(-128.178 -163.65)" fill="#00db96" stroke="#000" stroke-miterlimit="10" stroke-width="1"/>
      <path id="Path_28335" data-name="Path 28335" d="M217.629,191.006c-4.509,4.47-12.405,9.43-25.25,9.43a19.4,19.4,0,0,1-18.146-11.568.947.947,0,0,0-1.713,0,19.4,19.4,0,0,1-18.146,11.568c-12.844,0-20.741-4.96-25.249-9.43a3.285,3.285,0,0,1-.446-.55,3.156,3.156,0,0,0,.446,3.966c4.508,4.47,12.405,9.43,25.249,9.43,15.069,0,19-10.31,19-10.31s3.933,10.31,19,10.31c12.844,0,20.741-4.96,25.25-9.43a3.156,3.156,0,0,0,.446-3.966,3.347,3.347,0,0,1-.446.55Z" transform="translate(-128.178 -173.217)" stroke="#000" stroke-miterlimit="10" stroke-width="1"/>
    </g>
  </g>
</svg>
