<svg id="Layer_1" data-name="Layer 1" xmlns="http://www.w3.org/2000/svg" viewBox="0 0 78.27 85.04"><path d="M49.58,70.73a1.22,1.22,0,0,0-.38,0c-1.82-3.61-4.15-9.32-4.28-15A9,9,0,0,0,49,53.81a1.12,1.12,0,0,0,.3-.76V50.84a1.28,1.28,0,0,0-.1-.47,4.21,4.21,0,0,0-2.43-1.79,9.93,9.93,0,1,0-14.79,0,4.21,4.21,0,0,0-2.43,1.79,1.1,1.1,0,0,0-.1.47v2.21a1.12,1.12,0,0,0,.3.76,9,9,0,0,0,4.09,1.93c-.13,5.64-2.47,11.35-4.29,15a1.15,1.15,0,0,0-.37,0c-1.91.48-6.35,1.86-6.35,4.38v4.41a1.13,1.13,0,0,0,.2.64c.14.2,3.58,4.88,16.34,4.88s16.21-4.68,16.35-4.88a1.1,1.1,0,0,0,.2-.63V75.11C55.93,72.59,51.49,71.21,49.58,70.73Z"/><path d="M25.29,32.9a2.12,2.12,0,0,1-1.15-.33,2.19,2.19,0,0,1-.72-3,18.75,18.75,0,0,1,31.81-.21,2.21,2.21,0,0,1-3.73,2.36,14.34,14.34,0,0,0-24.32.16A2.21,2.21,0,0,1,25.29,32.9Z"/><path d="M18.06,26.29a2.21,2.21,0,0,1-1.88-3.37,27.18,27.18,0,0,1,46.09-.3A2.21,2.21,0,0,1,58.54,25a22.76,22.76,0,0,0-38.6.26A2.22,2.22,0,0,1,18.06,26.29Z"/><path d="M11.34,20a2.12,2.12,0,0,1-1.15-.33,2.2,2.2,0,0,1-.72-3,35,35,0,0,1,59.31-.4,2.2,2.2,0,1,1-3.72,2.36,30.59,30.59,0,0,0-51.84.35A2.19,2.19,0,0,1,11.34,20Z"/></svg>