<svg id="Layer_1" data-name="Layer 1" xmlns="http://www.w3.org/2000/svg" xmlns:xlink="http://www.w3.org/1999/xlink" viewBox="0 0 63.73 87.25"><defs><style>.cls-1,.cls-6,.cls-8{fill:#fcf7eb;}.cls-1,.cls-10,.cls-11,.cls-15,.cls-2,.cls-3,.cls-4,.cls-5,.cls-6{stroke:#000;}.cls-1,.cls-10,.cls-11,.cls-15{stroke-linejoin:round;}.cls-13,.cls-2{fill:#ff3c1d;}.cls-2,.cls-3,.cls-4,.cls-5,.cls-6{stroke-miterlimit:10;}.cls-3{fill:#00db96;}.cls-5{fill:#8e0bfa;}.cls-7{isolation:isolate;}.cls-9{clip-path:url(#clip-path);}.cls-10{fill:#fdfb76;}.cls-11{fill:none;}.cls-12{clip-path:url(#clip-path-2);}.cls-14{clip-path:url(#clip-path-3);}.cls-15{fill:#ff0d5b;}</style><clipPath id="clip-path"><polygon class="cls-1" points="20.05 36.42 25.7 23.49 41.12 35.32 35.47 48.25 20.05 36.42"/></clipPath><clipPath id="clip-path-2"><polygon class="cls-1" points="25.7 23.49 37.24 13.76 52.66 25.59 41.12 35.32 25.7 23.49"/></clipPath><clipPath id="clip-path-3"><polygon class="cls-1" points="41.12 35.32 52.66 25.59 47.02 38.52 35.47 48.25 41.12 35.32"/></clipPath></defs><path class="cls-2" d="M7.56.5H33.7a0,0,0,0,1,0,0V86.75a0,0,0,0,1,0,0H9.87A9.37,9.37,0,0,1,.5,77.38V7.56A7.06,7.06,0,0,1,7.56.5Z"/><path class="cls-3" d="M9.84.5V70.9H63.23V.5Z"/><path class="cls-4" d="M63.23,77.62v9.07H9.2a9.08,9.08,0,0,1,0-18.14h54Z"/><path class="cls-5" d="M63.23,70.9V84.05H9.84V70.9Z"/><path class="cls-6" d="M59.13,77.66v6.77H9.75a6.77,6.77,0,0,1,0-13.53H59.13Z"/><path class="cls-6" d="M9.75,76.31a1.36,1.36,0,0,0,0,2.71H59.13V76.31Z"/><g class="cls-7"><polygon class="cls-1" points="20.05 36.42 25.7 23.49 41.12 35.32 35.47 48.25 20.05 36.42"/><g class="cls-7"><polygon class="cls-8" points="20.05 36.42 25.7 23.49 41.12 35.32 35.47 48.25 20.05 36.42"/><g class="cls-9"><path class="cls-10" d="M19.91,36.43l15.63,12,5.72-13.11-15.63-12L19.91,36.43"/><path d="M30.06,37.07c.79.6,1.66.55,1.95-.11a2.15,2.15,0,0,0-.9-2.28c-.79-.61-1.66-.56-1.95.1a2.16,2.16,0,0,0,.9,2.29"/></g><polygon class="cls-11" points="20.05 36.42 25.7 23.49 41.12 35.32 35.47 48.25 20.05 36.42"/></g><polygon class="cls-1" points="25.7 23.49 37.24 13.76 52.66 25.59 41.12 35.32 25.7 23.49"/><g class="cls-7"><polygon class="cls-8" points="25.7 23.49 37.24 13.76 52.66 25.59 41.12 35.32 25.7 23.49"/><g class="cls-12"><path class="cls-13" d="M52.77,25.67l-15.63-12L25.59,23.41l15.63,12,11.55-9.73"/><path d="M39.11,17.84a2.1,2.1,0,0,0-2.48-.21c-.58.49-.41,1.38.37,2a2.12,2.12,0,0,0,2.48.21c.58-.49.41-1.38-.37-2"/><path d="M47.59,24.34a2.12,2.12,0,0,0-2.48-.2c-.58.49-.41,1.38.37,2a2.14,2.14,0,0,0,2.48.21c.58-.49.41-1.38-.37-2"/><path d="M40.23,23.65a2.1,2.1,0,0,0-2.47-.2c-.58.49-.42,1.37.37,2a2.12,2.12,0,0,0,2.48.2c.58-.49.41-1.37-.38-2"/><path d="M32.91,23.06a2.12,2.12,0,0,0-2.48-.2c-.58.49-.41,1.37.37,2a2.12,2.12,0,0,0,2.48.2c.58-.49.41-1.37-.37-2"/><path d="M41.39,29.57a2.14,2.14,0,0,0-2.48-.21c-.58.49-.41,1.38.37,2a2.12,2.12,0,0,0,2.48.2c.58-.49.42-1.38-.37-2"/></g><polygon class="cls-11" points="25.7 23.49 37.24 13.76 52.66 25.59 41.12 35.32 25.7 23.49"/></g><polygon class="cls-1" points="41.12 35.32 52.66 25.59 47.02 38.52 35.47 48.25 41.12 35.32"/><g class="cls-7"><polygon class="cls-8" points="41.12 35.32 52.66 25.59 47.02 38.52 35.47 48.25 41.12 35.32"/><g class="cls-14"><path class="cls-15" d="M47,38.61,52.7,25.5,41.16,35.24l-5.73,13.1L47,38.61"/><path d="M49.69,30c.29-.66.05-.8-.53-.31a6.84,6.84,0,0,0-1.57,2.08c-.29.66-.05.8.53.31A6.68,6.68,0,0,0,49.69,30"/><path d="M45.12,36c.29-.66.05-.79-.53-.3A6.76,6.76,0,0,0,43,37.81c-.28.66,0,.8.53.31A6.76,6.76,0,0,0,45.12,36"/><path d="M40.45,42.21c.28-.65,0-.79-.53-.3A6.72,6.72,0,0,0,38.34,44c-.29.66-.05.8.53.31a6.92,6.92,0,0,0,1.58-2.09"/></g><polygon class="cls-11" points="41.12 35.32 52.66 25.59 47.02 38.52 35.47 48.25 41.12 35.32"/></g></g><ellipse class="cls-4" cx="36.36" cy="55.07" rx="14.49" ry="2.71"/></svg>