<svg xmlns="http://www.w3.org/2000/svg" width="303.395" height="273.156" viewBox="0 0 303.395 273.156">
  <g id="Group_4014" data-name="Group 4014" transform="translate(0.5 0.5)">
    <rect id="Rectangle_1271" data-name="Rectangle 1271" width="30.24" height="30.24" transform="translate(0 0)" stroke="#000" stroke-width="1"/>
    <rect id="Rectangle_1272" data-name="Rectangle 1272" width="30.24" height="30.24" transform="translate(30.24 30.24)" stroke="#000" stroke-width="1"/>
    <rect id="Rectangle_1273" data-name="Rectangle 1273" width="30.24" height="30.24" transform="translate(60.479 60.479)" stroke="#000" stroke-width="1"/>
    <rect id="Rectangle_1274" data-name="Rectangle 1274" width="30.24" height="30.24" transform="translate(60.479 0)" stroke="#000" stroke-width="1"/>
    <rect id="Rectangle_1275" data-name="Rectangle 1275" width="30.24" height="30.24" transform="translate(0 60.479)" stroke="#000" stroke-width="1"/>
    <rect id="Rectangle_1276" data-name="Rectangle 1276" width="30.24" height="30.24" transform="translate(211.677 0)" stroke="#000" stroke-width="1"/>
    <rect id="Rectangle_1277" data-name="Rectangle 1277" width="30.24" height="30.24" transform="translate(241.916 30.24)" stroke="#000" stroke-width="1"/>
    <rect id="Rectangle_1278" data-name="Rectangle 1278" width="30.24" height="30.24" transform="translate(272.156 60.479)" stroke="#000" stroke-width="1"/>
    <rect id="Rectangle_1279" data-name="Rectangle 1279" width="30.24" height="30.24" transform="translate(272.156 0)" stroke="#000" stroke-width="1"/>
    <rect id="Rectangle_1280" data-name="Rectangle 1280" width="30.24" height="30.24" transform="translate(211.677 60.479)" stroke="#000" stroke-width="1"/>
    <rect id="Rectangle_1281" data-name="Rectangle 1281" width="30.24" height="30.24" transform="translate(120.958 151.198)" stroke="#000" stroke-width="1"/>
    <rect id="Rectangle_1282" data-name="Rectangle 1282" width="30.24" height="30.24" transform="translate(151.198 151.198)" stroke="#000" stroke-width="1"/>
    <rect id="Rectangle_1283" data-name="Rectangle 1283" width="30.24" height="30.24" transform="translate(90.719 120.958)" stroke="#000" stroke-width="1"/>
    <rect id="Rectangle_1284" data-name="Rectangle 1284" width="30.24" height="30.24" transform="translate(181.438 120.958)" stroke="#000" stroke-width="1"/>
    <rect id="Rectangle_1285" data-name="Rectangle 1285" width="30.24" height="30.24" transform="translate(120.958 211.677)" stroke="#000" stroke-width="1"/>
    <rect id="Rectangle_1286" data-name="Rectangle 1286" width="30.24" height="30.24" transform="translate(151.198 211.677)" stroke="#000" stroke-width="1"/>
    <rect id="Rectangle_1287" data-name="Rectangle 1287" width="30.24" height="30.24" transform="translate(181.438 211.677)" stroke="#000" stroke-width="1"/>
    <rect id="Rectangle_1288" data-name="Rectangle 1288" width="30.24" height="30.24" transform="translate(211.677 241.916)" stroke="#000" stroke-width="1"/>
    <rect id="Rectangle_1289" data-name="Rectangle 1289" width="30.24" height="30.24" transform="translate(60.479 241.916)" stroke="#000" stroke-width="1"/>
    <rect id="Rectangle_1290" data-name="Rectangle 1290" width="30.24" height="30.24" transform="translate(90.719 211.677)" stroke="#000" stroke-width="1"/>
  </g>
</svg>
