<svg xmlns="http://www.w3.org/2000/svg" xmlns:xlink="http://www.w3.org/1999/xlink" width="674.564" height="680.482" viewBox="0 0 674.564 680.482">
  <defs>
    <clipPath id="clip-path">
      <path id="Path_127010" data-name="Path 127010" d="M0,0H674.565V680.482H0V0Z" transform="translate(8.284 9.468)" fill="#ef225b" stroke="#000" stroke-width="1"/>
    </clipPath>
    <clipPath id="clip-path-2">
      <rect id="Rectangle_141048" data-name="Rectangle 141048" width="805.977" height="222.519" fill="none"/>
    </clipPath>
    <clipPath id="clip-path-8">
      <path id="Path_121219" data-name="Path 121219" d="M0,0H674.565V680.482H0V0Z" transform="translate(8.284 9.469)" fill="#ef225b" stroke="#000" stroke-width="1"/>
    </clipPath>
    <clipPath id="clip-path-9">
      <rect id="Rectangle_138017" data-name="Rectangle 138017" width="651.615" height="698.307" fill="none"/>
    </clipPath>
    <clipPath id="clip-path-10">
      <path id="Path_117544" data-name="Path 117544" d="M229.4,513.9,370.6,719.687a36.3,36.3,0,0,0,59.788,0L571.489,513.9Z" transform="translate(-229.4 -513.9)" fill="none"/>
    </clipPath>
  </defs>
  <g id="Group_21009" data-name="Group 21009" transform="translate(6201.716 3291.532)">
    <g id="Group_3915" data-name="Group 3915" transform="translate(-6210 -3301)">
      <g id="Group_503" data-name="Group 503" transform="translate(0)">
        <g id="Group_24" data-name="Group 24" clip-path="url(#clip-path)">
          <g id="Artwork_78" data-name="Artwork 78" transform="translate(346 332.896)">
            <g id="Group_21008" data-name="Group 21008" transform="translate(-402.989 -111.26)">
              <path id="Path_126938" data-name="Path 126938" d="M191.8,114.549,275.459,17.18h0v-.1h-.19l.1-.1h-.1v-.1h-.19l.1-.1h-.1v-.1h-.19l.1-.1h-.1v-.1h-.19l.1-.1h-.1v-.1h-.19l.1-.1h-.1v-.1h-.19l.1-.1h-.1v-.1h-.19l.1-.1h-.1v-.1h-.19l.1-.1h-.1v-.1h-.1v-.1h-.19l.1-.1h-.1v-.1h-.19l.1-.1h-.1v-.1h-.19l.1-.1h-.1v-.1h-.19l.1-.1h-.1v-.1h-.19l.1-.1h-.1v-.1h-.19l.1-.1h-.1v-.1h-.19l.1-.1h-.1v-.1h-.19l.1-.1h-.19l.1-.1h-.19l.1-.1h-.19l.1-.1h-.19l.1-.1h-.19l.1-.1h-.1v-.1h-.19l.1-.1h-.1v-.1h-.19l.1-.1h-.1v-.1h-.19l.1-.1h-.1v-.1h-.19l.1-.1h-.1v-.1h-.19l.1-.1h-.1v-.1h-.19l.1-.1h-.19l.1-.1h-.19l.1-.1h-.19l.1-.1h-.19l.1-.1h-.19l.1-.1h-.1v-.1h-.19l.1-.1h-.1v-.1h-.19l.1-.1h-.1v-.1h-.19l.1-.1h-.1v-.1h-.19l.1-.1h-.1v-.1h-.19l.1-.1h-.1v-.1h-.19l.1-.1h-.19l.1-.1h-.19l.1-.1h-.19l.1-.1h-.19l.1-.1h-.19l.1-.1h-.1v-.1h-.19l.1-.1h-.1v-.1h-.19l.1-.1h-.1v-.1h-.19l.1-.1h-.1v-.1h-.19l.1-.1h-.1v-.1h-.19l.1-.1h-.19l.1-.1h-.19l.1-.1h-.19l.1-.1h-.19l.1-.1h-.19l.1-.1h-.19l.1-.1h-.19l.1-.1h-.19l.1-.1h-.19l.1-.1h-.19l.1-.1h-.19l.1-.1h-.1v-.1h-.19l.1-.1h-.1v-.1h-.19l.1-.1h-.19l.1-.1h-.19l.1-.1h-.19l.1-.1h-.19l.1-.1h-.19l.1-.1h-.19l.1-.1h-.19l.1-.1h-.19l.1-.1h-.19l.1-.1h-.19l.1-.1h-.19l.1-.1h-.19l.1-.1h-.19l.1-.1h-.1v-.1h-.19l.1-.1h-.1v-.1h-.19l.1-.1h-.19l.1-.1h-.19l.1-.1h-.19l.1-.1h-.19l.1-.1h-.19l.1-.1h-.19l.1-.1h-.19l.1-.1h-.19l.1-.1h-.19l.1-.1h-.19l.1-.1h-.19l.1-.1h-.19l.1-.1h-.19l.1-.1h-.1V5h-.19l.1-.1h-.1v-.1h-.19l.1-.1h-.19v-.1h-.1l.1-.1h-.19v-.1h-.1l.1-.1h-.19l.1-.1h-.19l.1-.1h-.19l.1-.1h-.19l.1-.1h-.19l.1-.1h-.19l.1-.1h-.19l.1-.1h-.19l.1-.1h-.19l.1-.1h-.19l.1-.1h-.19l.1-.1h-.19v-.1h-.1l.1-.1h-.19V3h-.1l.1-.1h-.19v-.1h-.1l.1-.1h-.19l.1-.1h-.19l.1-.1h-.19l.1-.1h-.19l.1-.1h-.19l.1-.1h-.19l.1-.1h-.19l.1-.1h-.19l.1-.1h-.19l.1-.1h-.19l.1-.1h-.19l.1-.1h-.19v-.1h-.1l.1-.1h-.19v-.1h-.1l.1-.1h-.19v-.1h-.1l.1-.1h-.19l.1-.1h-80.9L136.688,52.682l-28.934-35.5h0v-.1h-.1v-.1h-.1v-.1h-.1v-.1h-.1v-.1h-.1v-.1h-.1v-.1h-.1v-.1h-.1v-.1h-.1v-.1h-.1v-.1h-.1v-.1h-.1v-.1h-.1v-.1h-.1v-.1h-.1v-.1h-.1v-.1h-.1v-.1h-.1v-.1h-.1v-.1h-.1v-.1h-.1v-.1h-.1v-.1h-.1v-.1h-.1v-.1h-.1v-.1h-.1v-.1h-.1v-.1h-.1v-.1h-.1v-.1h-.1v-.1h-.1v-.1h-.1v-.1h-.1v-.1h-.1v-.1h-.1v-.1h-.1v-.1h-.1v-.1h-.1v-.1h-.1v-.1h-.1v-.1h-.1v-.1h-.1v-.1h-.1v-.1h-.1v-.1h-.1v-.1h-.1v-.1h-.1v-.1h-.1v-.1h-.1v-.1h-.1l-.1-.1h0v-.1h-.1v-.1h-.1v-.1h-.1v-.1h-.1v-.1h-.1v-.1h-.1v-.1h-.1v-.1h-.1v-.1h-.1v-.1h-.1v-.1h-.1v-.1h-.1v-.1h-.1v-.1h-.1v-.1h-.1v-.1h-.1l-.1-.1h0v-.1h-.1l-.1-.1h0v-.1H101v-.1h-.1v-.1h-.1v-.1h-.1v-.1h-.1v-.1h-.1v-.1h-.1v-.1h-.1v-.1h-.1v-.1h-.1v-.1h-.1v-.1h-.1l-.1-.1h0v-.1h-.1l-.1-.1h0V9h-.1l-.1-.1h0V8.8h-.1v-.1h-.1v-.1h-.1v-.1h-.1v-.1H99v-.1h-.1v-.1h-.1v-.1h-.1v-.1h-.1v-.1h-.1l-.1-.1h0v-.1h-.1l-.1-.1h0v-.1h-.1l-.1-.1h0v-.1h-.1l-.1-.1h0v-.1h-.1l-.1-.1h0V7h-.1V6.9h-.1v-.1h-.1v-.1h-.1v-.1h-.1v-.1h-.1v-.1H97v-.1h-.1l-.1-.1h0v-.1h-.1l-.1-.1h0v-.1h-.1l-.1-.1h0v-.1h-.1l-.1-.1h0v-.1h-.1l-.1-.1h0v-.1h-.1l-.1-.1h0v-.1h-.1v-.1h-.1V5h-.1V4.9h-.1v-.1h-.1v-.1h-.1l-.1-.1h0v-.1h-.1l-.1-.1h0v-.1h-.1l-.1-.1h0v-.1h-.1l-.1-.1h0v-.1h-.1l-.1-.1h0v-.1h-.1l-.1-.1h0v-.1h-.1v-.1h-.1v-.1h-.1v-.1h-.1l-.1-.1h0v-.1h-.1l-.1-.1h0V2.9h-.1l-.1-.1h0v-.1h-.1l-.1-.1h0v-.1h-.1l-.1-.1h0v-.1h-.1l-.1-.1h0v-.1h-.1l-.1-.1h0v-.1h-.1l-.1-.1h0v-.1h-.1v-.1h-.1l-.1-.1h0v-.1h-.1l-.1-.1h0v-.1h-.1l-.1-.1h0V1.1h-.1l-.1-.1H10.481L94.143,98.368,2.2,205.445h.1l-.1.1h.19l-.1.1h.19l-.1.1h.19l-.1.1h.19l-.1.1h.19l-.1.1h.19l-.1.1h.19l-.1.1h.19v.1h.1l-.1.1h.19v.1h.1l-.1.1h.19v.1h.1l-.1.1h.19v.1h.1l-.1.1h.19v.1h.1l-.1.1h.19l-.1.1H4.1l-.1.1H4.2l-.1.1h.19l-.1.1h.19l-.1.1h.19l-.1.1h.19l-.1.1h.19v.1h.1l-.1.1h.19v.1h.1l-.1.1h.19v.1h.1l-.1.1h.19v.1h.1l-.1.1h.19v.1h.1l-.1.1h.19l-.1.1h.19l-.1.1h.19l-.1.1h.19l-.1.1h.19l-.1.1H6.1v.1h.1l-.1.1h.19v.1h.1l-.1.1h.19v.1h.1l-.1.1h.19v.1h.1l-.1.1h.19v.1h.1l-.1.1h.19v.1h.1l-.1.1h.19v.1h.1l-.1.1h.19l-.1.1h.19v.1h.1l-.1.1h.19v.1h.1l-.1.1h.19v.1h.1l-.1.1H8.1v.1h.1l-.1.1h.19v.1h.1l-.1.1h.19v.1h.1l-.1.1h.19v.1h.1l-.1.1h.19v.1h.1l-.1.1h.19l-.1.1h.19l-.1.1h.19l-.1.1h.19v.1h.1l-.1.1h.19v.1h.1l-.1.1h.19v.1h.1l-.1.1h.19v.1H10l-.1.1h.19v.1h.1l-.1.1h.19v.1h.1l-.1.1h.19v.1h.1l-.1.1h.19v.1h.1v.1h.1l-.1.1h.19v.1h.1l-.1.1h.19v.1h.1l-.1.1h.19v.1h.1l-.1.1h.19v.1h.1l-.1.1h.19v.1h.1l-.1.1h.19v.1H12l-.1.1h.19v.1h.1l-.1.1h.19v.1h.1v.1h.1v.1h.1v.1h.1l-.1.1h.19v.1h.1l-.1.1h.19v.1h.1l-.1.1h.19v.1h.1l-.1.1h.19v.1h.1l-.1.1h.19v.1h.1l-.1.1h.19v.1h.1v.1h.1v.1H14v.1h.1v.1h.1v.1h.1l-.1.1h.19v.1h.1l-.1.1h.19v.1h.1l-.1.1h.19v.1h.1l-.1.1h.19v.1h.1l-.1.1h.19v.1h.1v.1h.1v.1h.1v.1h.1v.1h.1v.1h.1v.1h.1v.1h.1v.1H16v.1h.1l-.1.1h.19v.1h.1l-.1.1h.19v.1h.1l-.1.1h.19v.1h.1l-.1.1h.19v.1h.1v.1h.1v.1h.1v.1h.1v.1h.1v.1h.1v.1h.1v.1h.1v.1h.1v.1h.1v.1h.1v.1h.1l-.1.1H18v.1h.1l-.1.1h.19v.1h.1l-.1.1h.19v.1H99.188l50.445-61.391,37.12,45.21h0v.1h.1v.1h.1v.1h.1v.1h.1v.1h.1v.1h.1v.1h.1v.1h.1v.1h.1v.1h.1v.1h.1v.1h.1v.1h.1v.1h.1v.1h.1v.1h.1v.1h.1v.1h.1v.1h.1v.1h.1v.1h.1v.1h.1v.1h.1v.1h.1v.1h.1v.1h.1v.1h.1v.1h.1v.1h.1v.1h.1v.1h.1v.1h.1v.1h.1v.1h.1v.1h.1v.1h.1v.1h.1v.1h.1v.1h.1v.1h.1v.1h.1v.1h.1v.1h.1v.1h.1v.1h.1v.1h.1v.1h.1v.1h.1v.1h.1v.1h.1v.1h.1v.1h.1v.1h.1v.1h.1v.1h.1v.1h.1v.1h.1v.1h.1v.1h.1v.1h.1v.1h.1v.1h.1v.1h.1v.1h.1v.1h.1v.1h.1v.1h.1v.1h.1v.1h.1v.1h.1v.1h.1v.1h.1v.1h.1v.1h.1v.1h.1v.1h.1v.1h.1v.1h.1v.1h.1v.1h.1v.1h.1v.1h.1v.1h.1v.1h.1v.1h.1v.1h.1v.1h.1v.1h.1v.1h.1v.1h.1v.1h.1v.1h.1v.1h.1v.1h.1v.1h.1v.1h.1v.1h.1v.1h.1v.1h.1v.1h.1v.1h.1v.1h.1v.1h.1v.1h.1v.1h.1v.1h.1v.1h.1v.1h.1v.1h.1v.1h.1v.1h.1v.1h.1v.1h.1v.1h.1v.1h.1v.1h.1v.1h.1v.1h.1v.1h.1v.1h.1v.1h.1v.1h.1v.1h.1v.1h.1v.1h.1v.1h.1v.1h.1v.1h.1v.1h.1v.1h.1v.1h.1v.1h.1v.1h.1v.1h.1v.1h.1v.1h.1v.1h.1v.1h.1v.1h.1v.1h.1v.1h.1v.1h.1v.1h.1v.1h.1v.1h.1v.1h.1v.1h.1v.1h.1v.1h.1v.1h.1v.1h.1v.1h.1v.1h.1v.1h.1v.1h.1v.1h.1v.1h.1v.1h.1v.1h.1v.1h.1v.1h.1v.1h.1v.1h.1v.1h.1v.1h.1v.1h.1v.1h.1v.1h.1v.1h.1v.1h81.188Z" transform="translate(-0.106 -0.048)"/>
              <g id="Group_21002" data-name="Group 21002" clip-path="url(#clip-path-2)">
                <path id="Path_126939" data-name="Path 126939" d="M191.8,114.549,275.459,17.18h0v-.1h-.19l.1-.1h-.1v-.1h-.19l.1-.1h-.1v-.1h-.19l.1-.1h-.1v-.1h-.19l.1-.1h-.1v-.1h-.19l.1-.1h-.1v-.1h-.19l.1-.1h-.1v-.1h-.19l.1-.1h-.1v-.1h-.19l.1-.1h-.1v-.1h-.1v-.1h-.19l.1-.1h-.1v-.1h-.19l.1-.1h-.1v-.1h-.19l.1-.1h-.1v-.1h-.19l.1-.1h-.1v-.1h-.19l.1-.1h-.1v-.1h-.19l.1-.1h-.1v-.1h-.19l.1-.1h-.1v-.1h-.19l.1-.1h-.19l.1-.1h-.19l.1-.1h-.19l.1-.1h-.19l.1-.1h-.19l.1-.1h-.1v-.1h-.19l.1-.1h-.1v-.1h-.19l.1-.1h-.1v-.1h-.19l.1-.1h-.1v-.1h-.19l.1-.1h-.1v-.1h-.19l.1-.1h-.1v-.1h-.19l.1-.1h-.19l.1-.1h-.19l.1-.1h-.19l.1-.1h-.19l.1-.1h-.19l.1-.1h-.1v-.1h-.19l.1-.1h-.1v-.1h-.19l.1-.1h-.1v-.1h-.19l.1-.1h-.1v-.1h-.19l.1-.1h-.1v-.1h-.19l.1-.1h-.1v-.1h-.19l.1-.1h-.19l.1-.1h-.19l.1-.1h-.19l.1-.1h-.19l.1-.1h-.19l.1-.1h-.1v-.1h-.19l.1-.1h-.1v-.1h-.19l.1-.1h-.1v-.1h-.19l.1-.1h-.1v-.1h-.19l.1-.1h-.1v-.1h-.19l.1-.1h-.19l.1-.1h-.19l.1-.1h-.19l.1-.1h-.19l.1-.1h-.19l.1-.1h-.19l.1-.1h-.19l.1-.1h-.19l.1-.1h-.19l.1-.1h-.19l.1-.1h-.19l.1-.1h-.1v-.1h-.19l.1-.1h-.1v-.1h-.19l.1-.1h-.19l.1-.1h-.19l.1-.1h-.19l.1-.1h-.19l.1-.1h-.19l.1-.1h-.19l.1-.1h-.19l.1-.1h-.19l.1-.1h-.19l.1-.1h-.19l.1-.1h-.19l.1-.1h-.19l.1-.1h-.19l.1-.1h-.1v-.1h-.19l.1-.1h-.1v-.1h-.19l.1-.1h-.19l.1-.1h-.19l.1-.1h-.19l.1-.1h-.19l.1-.1h-.19l.1-.1h-.19l.1-.1h-.19l.1-.1h-.19l.1-.1h-.19l.1-.1h-.19l.1-.1h-.19l.1-.1h-.19l.1-.1h-.19l.1-.1h-.1V5h-.19l.1-.1h-.1v-.1h-.19l.1-.1h-.19v-.1h-.1l.1-.1h-.19v-.1h-.1l.1-.1h-.19l.1-.1h-.19l.1-.1h-.19l.1-.1h-.19l.1-.1h-.19l.1-.1h-.19l.1-.1h-.19l.1-.1h-.19l.1-.1h-.19l.1-.1h-.19l.1-.1h-.19l.1-.1h-.19v-.1h-.1l.1-.1h-.19V3h-.1l.1-.1h-.19v-.1h-.1l.1-.1h-.19l.1-.1h-.19l.1-.1h-.19l.1-.1h-.19l.1-.1h-.19l.1-.1h-.19l.1-.1h-.19l.1-.1h-.19l.1-.1h-.19l.1-.1h-.19l.1-.1h-.19l.1-.1h-.19v-.1h-.1l.1-.1h-.19v-.1h-.1l.1-.1h-.19v-.1h-.1l.1-.1h-.19l.1-.1h-80.9L136.688,52.682l-28.934-35.5h0v-.1h-.1v-.1h-.1v-.1h-.1v-.1h-.1v-.1h-.1v-.1h-.1v-.1h-.1v-.1h-.1v-.1h-.1v-.1h-.1v-.1h-.1v-.1h-.1v-.1h-.1v-.1h-.1v-.1h-.1v-.1h-.1v-.1h-.1v-.1h-.1v-.1h-.1v-.1h-.1v-.1h-.1v-.1h-.1v-.1h-.1v-.1h-.1v-.1h-.1v-.1h-.1v-.1h-.1v-.1h-.1v-.1h-.1v-.1h-.1v-.1h-.1v-.1h-.1v-.1h-.1v-.1h-.1v-.1h-.1v-.1h-.1v-.1h-.1v-.1h-.1v-.1h-.1v-.1h-.1v-.1h-.1v-.1h-.1v-.1h-.1v-.1h-.1v-.1h-.1v-.1h-.1v-.1h-.1v-.1h-.1v-.1h-.1v-.1h-.1l-.1-.1h0v-.1h-.1v-.1h-.1v-.1h-.1v-.1h-.1v-.1h-.1v-.1h-.1v-.1h-.1v-.1h-.1v-.1h-.1v-.1h-.1v-.1h-.1v-.1h-.1v-.1h-.1v-.1h-.1v-.1h-.1v-.1h-.1l-.1-.1h0v-.1h-.1l-.1-.1h0v-.1H101v-.1h-.1v-.1h-.1v-.1h-.1v-.1h-.1v-.1h-.1v-.1h-.1v-.1h-.1v-.1h-.1v-.1h-.1v-.1h-.1v-.1h-.1l-.1-.1h0v-.1h-.1l-.1-.1h0V9h-.1l-.1-.1h0V8.8h-.1v-.1h-.1v-.1h-.1v-.1h-.1v-.1H99v-.1h-.1v-.1h-.1v-.1h-.1v-.1h-.1v-.1h-.1l-.1-.1h0v-.1h-.1l-.1-.1h0v-.1h-.1l-.1-.1h0v-.1h-.1l-.1-.1h0v-.1h-.1l-.1-.1h0V7h-.1V6.9h-.1v-.1h-.1v-.1h-.1v-.1h-.1v-.1h-.1v-.1H97v-.1h-.1l-.1-.1h0v-.1h-.1l-.1-.1h0v-.1h-.1l-.1-.1h0v-.1h-.1l-.1-.1h0v-.1h-.1l-.1-.1h0v-.1h-.1l-.1-.1h0v-.1h-.1v-.1h-.1V5h-.1V4.9h-.1v-.1h-.1v-.1h-.1l-.1-.1h0v-.1h-.1l-.1-.1h0v-.1h-.1l-.1-.1h0v-.1h-.1l-.1-.1h0v-.1h-.1l-.1-.1h0v-.1h-.1l-.1-.1h0v-.1h-.1v-.1h-.1v-.1h-.1v-.1h-.1l-.1-.1h0v-.1h-.1l-.1-.1h0V2.9h-.1l-.1-.1h0v-.1h-.1l-.1-.1h0v-.1h-.1l-.1-.1h0v-.1h-.1l-.1-.1h0v-.1h-.1l-.1-.1h0v-.1h-.1l-.1-.1h0v-.1h-.1v-.1h-.1l-.1-.1h0v-.1h-.1l-.1-.1h0v-.1h-.1l-.1-.1h0V1.1h-.1l-.1-.1H10.481L94.143,98.368,2.2,205.445h.1l-.1.1h.19l-.1.1h.19l-.1.1h.19l-.1.1h.19l-.1.1h.19l-.1.1h.19l-.1.1h.19l-.1.1h.19v.1h.1l-.1.1h.19v.1h.1l-.1.1h.19v.1h.1l-.1.1h.19v.1h.1l-.1.1h.19v.1h.1l-.1.1h.19l-.1.1H4.1l-.1.1H4.2l-.1.1h.19l-.1.1h.19l-.1.1h.19l-.1.1h.19l-.1.1h.19v.1h.1l-.1.1h.19v.1h.1l-.1.1h.19v.1h.1l-.1.1h.19v.1h.1l-.1.1h.19v.1h.1l-.1.1h.19l-.1.1h.19l-.1.1h.19l-.1.1h.19l-.1.1h.19l-.1.1H6.1v.1h.1l-.1.1h.19v.1h.1l-.1.1h.19v.1h.1l-.1.1h.19v.1h.1l-.1.1h.19v.1h.1l-.1.1h.19v.1h.1l-.1.1h.19v.1h.1l-.1.1h.19l-.1.1h.19v.1h.1l-.1.1h.19v.1h.1l-.1.1h.19v.1h.1l-.1.1H8.1v.1h.1l-.1.1h.19v.1h.1l-.1.1h.19v.1h.1l-.1.1h.19v.1h.1l-.1.1h.19v.1h.1l-.1.1h.19l-.1.1h.19l-.1.1h.19l-.1.1h.19v.1h.1l-.1.1h.19v.1h.1l-.1.1h.19v.1h.1l-.1.1h.19v.1H10l-.1.1h.19v.1h.1l-.1.1h.19v.1h.1l-.1.1h.19v.1h.1l-.1.1h.19v.1h.1v.1h.1l-.1.1h.19v.1h.1l-.1.1h.19v.1h.1l-.1.1h.19v.1h.1l-.1.1h.19v.1h.1l-.1.1h.19v.1h.1l-.1.1h.19v.1H12l-.1.1h.19v.1h.1l-.1.1h.19v.1h.1v.1h.1v.1h.1v.1h.1l-.1.1h.19v.1h.1l-.1.1h.19v.1h.1l-.1.1h.19v.1h.1l-.1.1h.19v.1h.1l-.1.1h.19v.1h.1l-.1.1h.19v.1h.1v.1h.1v.1H14v.1h.1v.1h.1v.1h.1l-.1.1h.19v.1h.1l-.1.1h.19v.1h.1l-.1.1h.19v.1h.1l-.1.1h.19v.1h.1l-.1.1h.19v.1h.1v.1h.1v.1h.1v.1h.1v.1h.1v.1h.1v.1h.1v.1h.1v.1H16v.1h.1l-.1.1h.19v.1h.1l-.1.1h.19v.1h.1l-.1.1h.19v.1h.1l-.1.1h.19v.1h.1v.1h.1v.1h.1v.1h.1v.1h.1v.1h.1v.1h.1v.1h.1v.1h.1v.1h.1v.1h.1v.1h.1l-.1.1H18v.1h.1l-.1.1h.19v.1h.1l-.1.1h.19v.1H99.188l50.445-61.391,37.12,45.21h0v.1h.1v.1h.1v.1h.1v.1h.1v.1h.1v.1h.1v.1h.1v.1h.1v.1h.1v.1h.1v.1h.1v.1h.1v.1h.1v.1h.1v.1h.1v.1h.1v.1h.1v.1h.1v.1h.1v.1h.1v.1h.1v.1h.1v.1h.1v.1h.1v.1h.1v.1h.1v.1h.1v.1h.1v.1h.1v.1h.1v.1h.1v.1h.1v.1h.1v.1h.1v.1h.1v.1h.1v.1h.1v.1h.1v.1h.1v.1h.1v.1h.1v.1h.1v.1h.1v.1h.1v.1h.1v.1h.1v.1h.1v.1h.1v.1h.1v.1h.1v.1h.1v.1h.1v.1h.1v.1h.1v.1h.1v.1h.1v.1h.1v.1h.1v.1h.1v.1h.1v.1h.1v.1h.1v.1h.1v.1h.1v.1h.1v.1h.1v.1h.1v.1h.1v.1h.1v.1h.1v.1h.1v.1h.1v.1h.1v.1h.1v.1h.1v.1h.1v.1h.1v.1h.1v.1h.1v.1h.1v.1h.1v.1h.1v.1h.1v.1h.1v.1h.1v.1h.1v.1h.1v.1h.1v.1h.1v.1h.1v.1h.1v.1h.1v.1h.1v.1h.1v.1h.1v.1h.1v.1h.1v.1h.1v.1h.1v.1h.1v.1h.1v.1h.1v.1h.1v.1h.1v.1h.1v.1h.1v.1h.1v.1h.1v.1h.1v.1h.1v.1h.1v.1h.1v.1h.1v.1h.1v.1h.1v.1h.1v.1h.1v.1h.1v.1h.1v.1h.1v.1h.1v.1h.1v.1h.1v.1h.1v.1h.1v.1h.1v.1h.1v.1h.1v.1h.1v.1h.1v.1h.1v.1h.1v.1h.1v.1h.1v.1h.1v.1h.1v.1h.1v.1h.1v.1h.1v.1h.1v.1h.1v.1h.1v.1h.1v.1h.1v.1h.1v.1h.1v.1h.1v.1h.1v.1h.1v.1h.1v.1h.1v.1h.1v.1h.1v.1h.1v.1h.1v.1h.1v.1h.1v.1h.1v.1h.1v.1h.1v.1h.1v.1h.1v.1h.1v.1h.1v.1h.1v.1h.1v.1h.1v.1h.1v.1h.1v.1h81.188Z" transform="translate(-0.106 -0.048)" fill="none" stroke="#000" stroke-miterlimit="10" stroke-width="1.904"/>
              </g>
              <path id="Path_126940" data-name="Path 126940" d="M464.9,114.549,548.655,17.18h-.1v-.1h-.1v-.1h-.1v-.1h-.1v-.1h-.1v-.1h-.1v-.1h-.1v-.1h-.1v-.1h-.1v-.1h-.1v-.1h-.1v-.1h-.1v-.1h-.1v-.1h-.1v-.1h-.1v-.1h-.1v-.1h-.1v-.1h-.1v-.1h-.1v-.1h-.1v-.1h-.1v-.1h-.1v-.1h-.1v-.1h-.1v-.1h-.1v-.1h-.1v-.1h-.1v-.1h-.1v-.1h-.1v-.1h-.1v-.1h-.1v-.1h-.1v-.1h-.1v-.1h-.1v-.1h-.1v-.1h-.1v-.1h-.1v-.1h-.1v-.1h-.1v-.1h-.1v-.1h-.1v-.1h-.1v-.1h-.1v-.1h-.1v-.1h-.1v-.1h-.1v-.1h-.1v-.1h-.1v-.1h-.1v-.1h-.1v-.1h-.1v-.1h-.1v-.1h-.1v-.1h-.1v-.1h-.1v-.1h-.1v-.1h-.1v-.1h-.1v-.1h-.1v-.1h-.1v-.1h-.1v-.1h-.1v-.1h-.1v-.1h-.1v-.1h-.1v-.1h-.1v-.1h-.1v-.1h-.1v-.1h-.1v-.1h-.1v-.1h-.1v-.1h-.1v-.1h-.1v-.1h-.1v-.1h-.1v-.1h-.1v-.1h-.1v-.1h-.1v-.1h-.1v-.1h-.1v-.1h-.1v-.1h-.1v-.1h-.1v-.1h-.1v-.1h-.1v-.1h-.1V9h-.1V8.9h-.1V8.8h-.1v-.1h-.1v-.1h-.1v-.1h-.1v-.1h-.1v-.1h-.1v-.1h-.1v-.1h-.1v-.1h-.1v-.1h-.1v-.1h-.1v-.1h-.1v-.1h-.1v-.1h-.1v-.1h-.1v-.1h-.1v-.1h-.1v-.1h-.1v-.1h-.1V7h-.1V6.9h-.1v-.1h-.1v-.1h-.1v-.1h-.1v-.1h-.1v-.1h-.1v-.1h-.1v-.1h-.1v-.1h-.1v-.1h-.1v-.1h-.1v-.1h-.1v-.1h-.1v-.1h-.1v-.1h-.1v-.1h-.1v-.1h-.1v-.1h-.1v-.1h-.1v-.1h-.1V5h-.1V4.9h-.1v-.1h-.1v-.1h-.1v-.1H536v-.1h-.1v-.1h-.1v-.1h-.1v-.1h-.1v-.1h-.1v-.1h-.1v-.1h-.1v-.1h-.1v-.1h-.1v-.1h-.1v-.1h-.1v-.1h-.1v-.1h-.1v-.1h-.1v-.1h-.1v-.1h-.1V3h-.1V2.9h-.1v-.1h-.1v-.1h-.1v-.1H534v-.1h-.1v-.1h-.1v-.1h-.1v-.1h-.1v-.1h-.1v-.1h-.1v-.1h-.1v-.1h-.1v-.1h-.1v-.1h-.1v-.1h-.1v-.1h-.1v-.1h-.1v-.1h-.1v-.1h-.1V1.1h-.1V1h-80.9L409.788,52.682l-28.839-35.5h-.1v-.1h-.1v-.1h-.1v-.1h-.1v-.1h-.1v-.1h-.1v-.1h-.1v-.1h-.1v-.1h-.1v-.1H380v-.1h-.1v-.1h-.1v-.1h-.1v-.1h-.1v-.1h-.1v-.1h-.1v-.1h-.1v-.1h-.1v-.1h-.1v-.1h-.1v-.1h-.1v-.1h-.1v-.1h-.1v-.1h-.1v-.1h-.1v-.1h-.1v-.1h-.1v-.1h-.1v-.1h-.1v-.1h-.1v-.1H378v-.1h-.1v-.1h-.1v-.1h-.1v-.1h-.1v-.1h-.1v-.1h-.1v-.1h-.1v-.1h-.1v-.1h-.1v-.1h-.1v-.1h-.1v-.1h-.1v-.1h-.1v-.1h-.1v-.1h-.1v-.1h-.1v-.1h-.1v-.1h-.1v-.1h-.1v-.1h-.1v-.1H376v-.1h-.1v-.1h-.1v-.1h-.1v-.1h-.1v-.1h-.1v-.1h-.1v-.1h-.1v-.1h-.1v-.1h-.1v-.1h-.1v-.1h-.1v-.1h-.1v-.1h-.1v-.1h-.1v-.1h-.1v-.1h-.1v-.1h-.1v-.1h-.1v-.1h-.1v-.1h-.1v-.1H374v-.1h-.1v-.1h-.1v-.1h-.1v-.1h-.1v-.1h-.1v-.1h-.1v-.1h-.1v-.1h-.1v-.1h-.1v-.1h-.1v-.1h-.1v-.1h-.1v-.1h-.1V9h-.1V8.9h-.1V8.8h-.1v-.1h-.1v-.1h-.1v-.1h-.1v-.1h-.1v-.1H372v-.1h-.1v-.1h-.1v-.1h-.1v-.1h-.1v-.1h-.1v-.1h-.1v-.1h-.1v-.1h-.1v-.1h-.1v-.1h-.1v-.1h-.1v-.1h-.1v-.1h-.1V7h-.1V6.9h-.1v-.1h-.1v-.1h-.1v-.1h-.1v-.1h-.1v-.1h-.1v-.1H370v-.1h-.1v-.1h-.1v-.1h-.1v-.1h-.1v-.1h-.1v-.1h-.1v-.1h-.1v-.1h-.1v-.1h-.1v-.1h-.1v-.1h-.1v-.1h-.1v-.1h-.1V5h-.1V4.9h-.1v-.1h-.1v-.1h-.1v-.1h-.1v-.1h-.1v-.1h-.1v-.1H368v-.1h-.1v-.1h-.1v-.1h-.1v-.1h-.1v-.1h-.1v-.1h-.1v-.1h-.1v-.1h-.1v-.1h-.1v-.1h-.1v-.1h-.1v-.1h-.1v-.1h-.1V3h-.1V2.9h-.1v-.1h-.1v-.1h-.1v-.1h-.1v-.1h-.1v-.1h-.1v-.1h-.1v-.1h-.1v-.1h-.1v-.1h-.1v-.1h-.1v-.1h-.1v-.1h-.1v-.1h-.1v-.1h-.1v-.1h-.1v-.1h-.1v-.1h-.1v-.1h-.1V1.1h-.1V1H283.581l83.758,97.368L275.3,205.445h.1v.1h.1v.1h.1v.1h.1v.1h.1v.1h.1v.1h.1v.1h.1v.1h.1v.1h.1v.1h.1v.1h.1v.1h.1v.1h.1v.1h.1v.1h.1v.1h.1v.1h.1v.1h.1v.1h.1v.1h.1v.1h.1v.1h.1v.1h.1v.1h.1v.1h.1v.1h.1v.1h.1v.1h.1v.1h.1v.1h.1v.1h.1v.1h.1v.1h.1v.1h.1v.1h.1v.1h.1v.1h.1v.1h.1v.1h.1v.1h.1v.1h.1v.1h.1v.1h.1v.1h.1v.1h.1v.1h.1v.1h.1v.1h.1v.1h.1v.1h.1v.1h.1v.1h.1v.1h.1v.1h.1v.1h.1v.1h.1v.1h.1v.1h.1v.1h.1v.1h.1v.1h.1v.1h.1v.1h.1v.1h.1v.1h.1v.1h.1v.1h.1v.1h.1v.1h.1v.1h.1v.1h.1v.1h.1v.1h.1v.1h.1v.1h.1v.1h.1v.1h.1v.1h.1v.1h.1v.1h.1v.1h.1v.1h.1v.1h.1v.1h.1v.1h.1v.1h.1v.1h.1v.1h.1v.1h.1v.1h.1v.1h.1v.1h.1v.1h.1v.1h.1v.1h.1v.1h.1v.1h.1v.1h.1v.1h.1v.1h.1v.1h.1v.1h.1v.1h.1v.1h.1v.1h.1v.1h.1v.1h.1v.1h.1v.1h.1v.1h.1v.1h.1v.1h.1v.1h.1v.1h.1v.1h.1v.1h.1v.1h.1v.1h.1v.1h.1v.1h.1v.1h.1v.1h.1v.1h.1v.1h.1v.1h.1v.1h.1v.1h.1v.1h.1v.1h.1v.1h.1v.1h.1v.1h.1v.1h.1v.1h.1v.1h.1v.1h.1v.1h.1v.1h.1v.1h.1v.1h.1v.1h.1v.1h.1v.1h.1v.1h.1v.1h.1v.1h.1v.1h.1v.1h.1v.1h.1v.1h.1v.1h.1v.1h.1v.1h.1v.1h.1v.1h.1v.1h.1v.1h.1v.1h.1v.1h.1v.1h.1v.1h.1v.1h.1v.1h.1v.1h.1v.1h.1v.1h.1v.1h.1v.1h.1v.1h.1v.1h80.9l50.35-61.391,37.12,45.21h0v.1h.1v.1h.1v.1h.1v.1h.1v.1h.1v.1h.1v.1h.1v.1h.1v.1h.1v.1h.1v.1h.1v.1h.1v.1h.1v.1h.1v.1h.1v.1h.1v.1h.1v.1h.1v.1h.1v.1h.1v.1h.1v.1h.1v.1h.1v.1h.1v.1h.1v.1h.1v.1h.1v.1h.1v.1h.1v.1h.1v.1h.1v.1h.1v.1h.1v.1h.1v.1h.1v.1h.1v.1h.1v.1h.1v.1h.1v.1h.1v.1h.1v.1h.1v.1h.1v.1h.1v.1h.1v.1h.1v.1h.1v.1h.1v.1h.1v.1h.1v.1h.1v.1h.1v.1h.1v.1h.1v.1h.1l.1.1h0v.1h.1v.1h.1v.1h.1v.1h.1v.1h.1v.1h.1v.1h.1v.1h.1v.1h.1v.1h.1v.1h.1v.1h.1v.1h.1v.1h.1v.1h.1v.1h.1v.1h.1v.1h.1l.1.1h0v.1h.1v.1h.1v.1h.1v.1h.1v.1h.1v.1h.1v.1h.1v.1h.1v.1h.1v.1h.1v.1h.1v.1h.1v.1h.1v.1h.1l.1.1h0v.1h.1l.1.1h0v.1h.1l.1.1h0v.1h.1v.1h.1v.1h.1v.1h.1v.1h.1v.1h.1v.1h.1v.1h.1v.1h.1v.1h.1v.1h.1v.1h.1l.1.1h0v.1h.1l.1.1h0v.1h.1l.1.1h0v.1h.1v.1h.1v.1h.1v.1h.1v.1h.1v.1h.1v.1h.1v.1h.1v.1h.1v.1h.1l.1.1h0v.1h.1l.1.1h0v.1h.1l.1.1h0v.1h.1l.1.1h0v.1h.1l.1.1h0v.1h.1v.1h.1v.1h.1v.1h.1v.1h.1v.1h.1l.1.1h0v.1h.1l.1.1h0v.1h.1l.1.1h0v.1h.1l.1.1h0v.1h.1l.1.1h0v.1h.1l.1.1h0v.1h.1l.1.1h0v.1h.1v.1h.1v.1h.1v.1h.1l.1.1h0v.1h.1l.1.1h0v.1h.1l.1.1h0v.1h.1l.1.1h0v.1h.1l.1.1h0v.1h.1l.1.1h0v.1h.1l.1.1h0v.1h.1v.1h.1v.1h.1v.1h81.188Z" transform="translate(-13.272 -0.048)"/>
              <g id="Group_21003" data-name="Group 21003" clip-path="url(#clip-path-2)">
                <path id="Path_126941" data-name="Path 126941" d="M464.9,114.549,548.655,17.18h-.1v-.1h-.1v-.1h-.1v-.1h-.1v-.1h-.1v-.1h-.1v-.1h-.1v-.1h-.1v-.1h-.1v-.1h-.1v-.1h-.1v-.1h-.1v-.1h-.1v-.1h-.1v-.1h-.1v-.1h-.1v-.1h-.1v-.1h-.1v-.1h-.1v-.1h-.1v-.1h-.1v-.1h-.1v-.1h-.1v-.1h-.1v-.1h-.1v-.1h-.1v-.1h-.1v-.1h-.1v-.1h-.1v-.1h-.1v-.1h-.1v-.1h-.1v-.1h-.1v-.1h-.1v-.1h-.1v-.1h-.1v-.1h-.1v-.1h-.1v-.1h-.1v-.1h-.1v-.1h-.1v-.1h-.1v-.1h-.1v-.1h-.1v-.1h-.1v-.1h-.1v-.1h-.1v-.1h-.1v-.1h-.1v-.1h-.1v-.1h-.1v-.1h-.1v-.1h-.1v-.1h-.1v-.1h-.1v-.1h-.1v-.1h-.1v-.1h-.1v-.1h-.1v-.1h-.1v-.1h-.1v-.1h-.1v-.1h-.1v-.1h-.1v-.1h-.1v-.1h-.1v-.1h-.1v-.1h-.1v-.1h-.1v-.1h-.1v-.1h-.1v-.1h-.1v-.1h-.1v-.1h-.1v-.1h-.1v-.1h-.1v-.1h-.1v-.1h-.1v-.1h-.1v-.1h-.1v-.1h-.1v-.1h-.1v-.1h-.1v-.1h-.1v-.1h-.1v-.1h-.1V9h-.1V8.9h-.1V8.8h-.1v-.1h-.1v-.1h-.1v-.1h-.1v-.1h-.1v-.1h-.1v-.1h-.1v-.1h-.1v-.1h-.1v-.1h-.1v-.1h-.1v-.1h-.1v-.1h-.1v-.1h-.1v-.1h-.1v-.1h-.1v-.1h-.1v-.1h-.1v-.1h-.1V7h-.1V6.9h-.1v-.1h-.1v-.1h-.1v-.1h-.1v-.1h-.1v-.1h-.1v-.1h-.1v-.1h-.1v-.1h-.1v-.1h-.1v-.1h-.1v-.1h-.1v-.1h-.1v-.1h-.1v-.1h-.1v-.1h-.1v-.1h-.1v-.1h-.1v-.1h-.1v-.1h-.1V5h-.1V4.9h-.1v-.1h-.1v-.1h-.1v-.1H536v-.1h-.1v-.1h-.1v-.1h-.1v-.1h-.1v-.1h-.1v-.1h-.1v-.1h-.1v-.1h-.1v-.1h-.1v-.1h-.1v-.1h-.1v-.1h-.1v-.1h-.1v-.1h-.1v-.1h-.1v-.1h-.1V3h-.1V2.9h-.1v-.1h-.1v-.1h-.1v-.1H534v-.1h-.1v-.1h-.1v-.1h-.1v-.1h-.1v-.1h-.1v-.1h-.1v-.1h-.1v-.1h-.1v-.1h-.1v-.1h-.1v-.1h-.1v-.1h-.1v-.1h-.1v-.1h-.1v-.1h-.1V1.1h-.1V1h-80.9L409.788,52.682l-28.839-35.5h-.1v-.1h-.1v-.1h-.1v-.1h-.1v-.1h-.1v-.1h-.1v-.1h-.1v-.1h-.1v-.1h-.1v-.1H380v-.1h-.1v-.1h-.1v-.1h-.1v-.1h-.1v-.1h-.1v-.1h-.1v-.1h-.1v-.1h-.1v-.1h-.1v-.1h-.1v-.1h-.1v-.1h-.1v-.1h-.1v-.1h-.1v-.1h-.1v-.1h-.1v-.1h-.1v-.1h-.1v-.1h-.1v-.1h-.1v-.1H378v-.1h-.1v-.1h-.1v-.1h-.1v-.1h-.1v-.1h-.1v-.1h-.1v-.1h-.1v-.1h-.1v-.1h-.1v-.1h-.1v-.1h-.1v-.1h-.1v-.1h-.1v-.1h-.1v-.1h-.1v-.1h-.1v-.1h-.1v-.1h-.1v-.1h-.1v-.1h-.1v-.1H376v-.1h-.1v-.1h-.1v-.1h-.1v-.1h-.1v-.1h-.1v-.1h-.1v-.1h-.1v-.1h-.1v-.1h-.1v-.1h-.1v-.1h-.1v-.1h-.1v-.1h-.1v-.1h-.1v-.1h-.1v-.1h-.1v-.1h-.1v-.1h-.1v-.1h-.1v-.1h-.1v-.1H374v-.1h-.1v-.1h-.1v-.1h-.1v-.1h-.1v-.1h-.1v-.1h-.1v-.1h-.1v-.1h-.1v-.1h-.1v-.1h-.1v-.1h-.1v-.1h-.1v-.1h-.1V9h-.1V8.9h-.1V8.8h-.1v-.1h-.1v-.1h-.1v-.1h-.1v-.1h-.1v-.1H372v-.1h-.1v-.1h-.1v-.1h-.1v-.1h-.1v-.1h-.1v-.1h-.1v-.1h-.1v-.1h-.1v-.1h-.1v-.1h-.1v-.1h-.1v-.1h-.1v-.1h-.1V7h-.1V6.9h-.1v-.1h-.1v-.1h-.1v-.1h-.1v-.1h-.1v-.1h-.1v-.1H370v-.1h-.1v-.1h-.1v-.1h-.1v-.1h-.1v-.1h-.1v-.1h-.1v-.1h-.1v-.1h-.1v-.1h-.1v-.1h-.1v-.1h-.1v-.1h-.1v-.1h-.1V5h-.1V4.9h-.1v-.1h-.1v-.1h-.1v-.1h-.1v-.1h-.1v-.1h-.1v-.1H368v-.1h-.1v-.1h-.1v-.1h-.1v-.1h-.1v-.1h-.1v-.1h-.1v-.1h-.1v-.1h-.1v-.1h-.1v-.1h-.1v-.1h-.1v-.1h-.1v-.1h-.1V3h-.1V2.9h-.1v-.1h-.1v-.1h-.1v-.1h-.1v-.1h-.1v-.1h-.1v-.1h-.1v-.1h-.1v-.1h-.1v-.1h-.1v-.1h-.1v-.1h-.1v-.1h-.1v-.1h-.1v-.1h-.1v-.1h-.1v-.1h-.1v-.1h-.1v-.1h-.1V1.1h-.1V1H283.581l83.758,97.368L275.3,205.445h.1v.1h.1v.1h.1v.1h.1v.1h.1v.1h.1v.1h.1v.1h.1v.1h.1v.1h.1v.1h.1v.1h.1v.1h.1v.1h.1v.1h.1v.1h.1v.1h.1v.1h.1v.1h.1v.1h.1v.1h.1v.1h.1v.1h.1v.1h.1v.1h.1v.1h.1v.1h.1v.1h.1v.1h.1v.1h.1v.1h.1v.1h.1v.1h.1v.1h.1v.1h.1v.1h.1v.1h.1v.1h.1v.1h.1v.1h.1v.1h.1v.1h.1v.1h.1v.1h.1v.1h.1v.1h.1v.1h.1v.1h.1v.1h.1v.1h.1v.1h.1v.1h.1v.1h.1v.1h.1v.1h.1v.1h.1v.1h.1v.1h.1v.1h.1v.1h.1v.1h.1v.1h.1v.1h.1v.1h.1v.1h.1v.1h.1v.1h.1v.1h.1v.1h.1v.1h.1v.1h.1v.1h.1v.1h.1v.1h.1v.1h.1v.1h.1v.1h.1v.1h.1v.1h.1v.1h.1v.1h.1v.1h.1v.1h.1v.1h.1v.1h.1v.1h.1v.1h.1v.1h.1v.1h.1v.1h.1v.1h.1v.1h.1v.1h.1v.1h.1v.1h.1v.1h.1v.1h.1v.1h.1v.1h.1v.1h.1v.1h.1v.1h.1v.1h.1v.1h.1v.1h.1v.1h.1v.1h.1v.1h.1v.1h.1v.1h.1v.1h.1v.1h.1v.1h.1v.1h.1v.1h.1v.1h.1v.1h.1v.1h.1v.1h.1v.1h.1v.1h.1v.1h.1v.1h.1v.1h.1v.1h.1v.1h.1v.1h.1v.1h.1v.1h.1v.1h.1v.1h.1v.1h.1v.1h.1v.1h.1v.1h.1v.1h.1v.1h.1v.1h.1v.1h.1v.1h.1v.1h.1v.1h.1v.1h.1v.1h.1v.1h.1v.1h.1v.1h.1v.1h.1v.1h.1v.1h.1v.1h.1v.1h.1v.1h.1v.1h.1v.1h.1v.1h.1v.1h.1v.1h.1v.1h.1v.1h.1v.1h.1v.1h.1v.1h.1v.1h.1v.1h.1v.1h.1v.1h.1v.1h.1v.1h.1v.1h.1v.1h80.9l50.35-61.391,37.12,45.21h0v.1h.1v.1h.1v.1h.1v.1h.1v.1h.1v.1h.1v.1h.1v.1h.1v.1h.1v.1h.1v.1h.1v.1h.1v.1h.1v.1h.1v.1h.1v.1h.1v.1h.1v.1h.1v.1h.1v.1h.1v.1h.1v.1h.1v.1h.1v.1h.1v.1h.1v.1h.1v.1h.1v.1h.1v.1h.1v.1h.1v.1h.1v.1h.1v.1h.1v.1h.1v.1h.1v.1h.1v.1h.1v.1h.1v.1h.1v.1h.1v.1h.1v.1h.1v.1h.1v.1h.1v.1h.1v.1h.1v.1h.1v.1h.1v.1h.1v.1h.1v.1h.1v.1h.1v.1h.1v.1h.1v.1h.1l.1.1h0v.1h.1v.1h.1v.1h.1v.1h.1v.1h.1v.1h.1v.1h.1v.1h.1v.1h.1v.1h.1v.1h.1v.1h.1v.1h.1v.1h.1v.1h.1v.1h.1v.1h.1v.1h.1l.1.1h0v.1h.1v.1h.1v.1h.1v.1h.1v.1h.1v.1h.1v.1h.1v.1h.1v.1h.1v.1h.1v.1h.1v.1h.1v.1h.1v.1h.1l.1.1h0v.1h.1l.1.1h0v.1h.1l.1.1h0v.1h.1v.1h.1v.1h.1v.1h.1v.1h.1v.1h.1v.1h.1v.1h.1v.1h.1v.1h.1v.1h.1v.1h.1l.1.1h0v.1h.1l.1.1h0v.1h.1l.1.1h0v.1h.1v.1h.1v.1h.1v.1h.1v.1h.1v.1h.1v.1h.1v.1h.1v.1h.1v.1h.1l.1.1h0v.1h.1l.1.1h0v.1h.1l.1.1h0v.1h.1l.1.1h0v.1h.1l.1.1h0v.1h.1v.1h.1v.1h.1v.1h.1v.1h.1v.1h.1l.1.1h0v.1h.1l.1.1h0v.1h.1l.1.1h0v.1h.1l.1.1h0v.1h.1l.1.1h0v.1h.1l.1.1h0v.1h.1l.1.1h0v.1h.1v.1h.1v.1h.1v.1h.1l.1.1h0v.1h.1l.1.1h0v.1h.1l.1.1h0v.1h.1l.1.1h0v.1h.1l.1.1h0v.1h.1l.1.1h0v.1h.1l.1.1h0v.1h.1v.1h.1v.1h.1v.1h81.188Z" transform="translate(-13.272 -0.048)" fill="none" stroke="#000" stroke-miterlimit="10" stroke-width="1.904"/>
              </g>
              <path id="Path_126942" data-name="Path 126942" d="M738,114.549,821.759,17.18h-.1v-.1h-.1v-.1h-.1v-.1h-.1v-.1h-.1v-.1h-.1v-.1h-.1v-.1H821v-.1h-.1v-.1h-.1v-.1h-.1v-.1h-.1v-.1h-.1v-.1h-.1v-.1h-.1v-.1h-.1v-.1h-.1l.1-.1h-.19v-.1h-.1v-.1h-.1v-.1h-.1v-.1h-.1v-.1h-.1v-.1h-.1v-.1h-.1v-.1h-.1v-.1h-.1v-.1h-.1v-.1H819v-.1h-.1v-.1h-.1v-.1h-.1v-.1h-.1v-.1h-.1v-.1h-.1v-.1h-.1v-.1h-.1v-.1h-.1v-.1h-.1v-.1h-.1v-.1h-.1v-.1h-.1v-.1h-.1v-.1h-.1v-.1h-.1v-.1h-.1v-.1h-.1v-.1h-.1v-.1h-.1v-.1H817v-.1h-.1v-.1h-.1v-.1h-.1v-.1h-.1v-.1h-.1v-.1h-.1v-.1h-.1v-.1h-.1v-.1h-.1v-.1h-.1v-.1h-.1v-.1h-.1v-.1h-.1v-.1h-.1v-.1h-.1v-.1h-.1v-.1h-.1v-.1h-.1v-.1h-.1v-.1h-.1v-.1H815v-.1h-.1v-.1h-.1v-.1h-.1v-.1h-.1v-.1h-.1v-.1h-.1v-.1h-.1v-.1h-.1v-.1h-.1v-.1h-.1v-.1h-.1v-.1h-.1v-.1h-.1v-.1h-.1v-.1h-.1V9h-.1V8.9h-.1V8.8h-.1v-.1h-.1v-.1h-.1v-.1H813v-.1h-.1v-.1h-.1v-.1h-.1v-.1h-.1v-.1h-.1v-.1h-.1v-.1h-.1v-.1h-.1v-.1h-.1v-.1h-.1v-.1h-.1v-.1h-.1v-.1h-.1v-.1h-.1v-.1h-.1V7h-.1V6.9h-.1v-.1h-.1v-.1h-.1v-.1h-.1v-.1H811v-.1h-.1v-.1h-.1v-.1h-.1v-.1h-.1v-.1h-.1v-.1h-.1v-.1h-.1v-.1h-.1v-.1h-.1v-.1h-.1v-.1h-.1v-.1h-.1v-.1h-.1v-.1h-.1v-.1h-.1V5h-.1V4.9h-.1v-.1h-.1v-.1h-.1v-.1h-.1v-.1h-.1v-.1h-.1v-.1h-.1v-.1h-.1v-.1h-.1v-.1h-.1v-.1h-.1v-.1h-.1v-.1h-.1v-.1h-.1v-.1h-.1v-.1h-.1v-.1h-.1v-.1h-.1v-.1h-.1v-.1h-.1V3h-.1V2.9h-.1v-.1h-.1v-.1h-.1v-.1h-.1v-.1h-.1v-.1h-.1v-.1h-.1v-.1h-.1v-.1h-.1v-.1h-.1v-.1h-.1v-.1h-.1v-.1h-.1v-.1h-.1v-.1h-.1v-.1h-.1v-.1h-.1v-.1h-.1v-.1h-.1V1.1h-.1V1h-80.9L682.988,52.682l-28.934-35.5h0l-.1-.1h-.1v-.1h0l-.1-.1h-.1v-.1h0l-.1-.1h-.1v-.1h0l-.1-.1h-.1v-.1h0l-.1-.1h-.1v-.1h0l-.1-.1h-.1v-.1h0l-.1-.1h-.1v-.1h0l-.1-.1h-.1v-.1h0l-.1-.1h0l-.1-.1h-.1v-.1h0l-.1-.1h-.1v-.1h0l-.1-.1h-.1v-.1h0l-.1-.1h-.1v-.1h0l-.1-.1h-.1v-.1h0l-.1-.1h-.1v-.1h0l-.1-.1h-.1v-.1h0l-.1-.1h-.1v-.1h-.1v-.1h0l-.1-.1h-.1v-.1h0l-.1-.1h-.1v-.1h0l-.1-.1h-.1v-.1h0l-.1-.1h-.1v-.1h0l-.1-.1h-.1v-.1h0l-.1-.1h-.1v-.1h0l-.1-.1h-.1v-.1h0l-.1-.1h-.1v-.1h-.1v-.1h-.1v-.1h-.1v-.1h-.1v-.1h-.1v-.1h0l-.1-.1h-.1v-.1h0l-.1-.1h-.1v-.1h0l-.1-.1h-.1v-.1h0l-.1-.1h-.1v-.1h0l-.1-.1h-.1v-.1h0l-.1-.1h-.1v-.1h-.1v-.1h-.1v-.1h-.1v-.1h-.1v-.1h-.1v-.1h0l-.1-.1h-.1v-.1h0l-.1-.1h-.1v-.1h0l-.1-.1h-.1v-.1h0l-.1-.1h-.1v-.1h0l-.1-.1h-.1v-.1h-.1v-.1h-.1v-.1h-.1v-.1h-.1V9h-.1V8.9h-.1V8.8h-.1v-.1h0l-.1-.1h-.1v-.1h0l-.1-.1h-.1v-.1h0l-.1-.1h-.1v-.1h0l-.1-.1h-.1v-.1h-.1v-.1h-.1v-.1h-.1v-.1h-.1v-.1h-.1v-.1h-.1v-.1h-.1v-.1h-.1v-.1h-.1v-.1h-.1V7h-.1V6.9h-.1v-.1h-.1v-.1h0l-.1-.1h-.1v-.1h0l-.1-.1h-.1v-.1h-.1v-.1h-.1v-.1h-.1v-.1h-.1v-.1h-.1v-.1h-.1v-.1h-.1v-.1h-.1v-.1h-.1v-.1h-.1v-.1h-.1v-.1h-.1v-.1h-.1v-.1h0l-.1-.1h-.1V4.9h0l-.1-.1h-.1v-.1h-.1v-.1h-.1v-.1h-.1v-.1h-.1v-.1h-.1v-.1h-.1v-.1h-.1v-.1h-.1v-.1h-.1v-.1h-.1v-.1h-.1v-.1h-.1v-.1h-.1v-.1h0l-.1-.1h-.1v-.1h-.1v-.1h-.1v-.1h-.1V3h-.1V2.9h-.1v-.1h-.1v-.1h-.1v-.1h-.1v-.1h-.1v-.1h-.1v-.1h-.1v-.1h-.1v-.1h-.1v-.1h-.1v-.1h-.1v-.1h-.1v-.1h-.1v-.1h-.1v-.1h-.1v-.1h-.1v-.1h-.1v-.1h-.1v-.1h-.1V1.1h-.1V1H556.685l83.758,97.368L548.5,205.445h0v.1h.1v.1h.1v.1h.1v.1h.1v.1h.1v.1h.1v.1h.1v.1h.1v.1h.1v.1h.1v.1h.1v.1h.1v.1h.1v.1h.1v.1h.1v.1h.1v.1h.1v.1h.1v.1h.1v.1h.1v.1h.1v.1h.1v.1h.1v.1h.1v.1h.1v.1h.1v.1h.1v.1h.1v.1h.1v.1h.1v.1h.1v.1h.1v.1h.1v.1h.1v.1h.1v.1h.1v.1h.1v.1h.1v.1h.1v.1h.1v.1h.1v.1h.1v.1h.1v.1h.1v.1h.1v.1h.1v.1h.1v.1h.1v.1h.1v.1h.1v.1h.1v.1h.1v.1h.1v.1h.1v.1h.1v.1h.1v.1h.1v.1h.1v.1h.1v.1h.1v.1h.1v.1h.1v.1h.1v.1h.1v.1h.1v.1h.1v.1h.1v.1h.1v.1h.1v.1h.1v.1h.1v.1h.1v.1h.1v.1h.1v.1h.1v.1h.1v.1h.1v.1h.1v.1h.1v.1h.1v.1h.1v.1h.1v.1h.1v.1h.1v.1h.1v.1h.1v.1h.1v.1h.1v.1h.19l-.1.1h.1v.1h.1v.1h.1v.1h.1v.1h.1v.1h.1v.1h.1v.1h.1v.1h.1v.1h.1v.1h.1v.1h.1v.1h.1v.1h.1v.1h.1v.1h.1v.1h.19l-.1.1h.1v.1h.19l-.1.1h.1v.1h.1v.1h.1v.1h.1v.1h.1v.1h.1v.1h.1v.1h.1v.1h.1v.1h.1v.1h.1v.1h.1v.1h.19l-.1.1h.1v.1h.19l-.1.1h.1v.1h.19l-.1.1h.1v.1h.1v.1h.1v.1h.1v.1h.1v.1h.1v.1h.1v.1h.1v.1h.1v.1h.1v.1h.19l-.1.1h.1v.1h.19l-.1.1h.1v.1h.19l-.1.1h.1v.1h.19l-.1.1h.1v.1h.19l-.1.1h.1v.1h.1v.1h.1v.1h.1v.1h.1v.1h.1v.1h.1v.1h.1v.1h.19l-.1.1h.1v.1h.19l-.1.1h.1v.1h.19l-.1.1h.1v.1h.19l-.1.1h.1v.1h.19l-.1.1h.1v.1h.19l-.1.1h.1v.1h.1v.1h.1v.1h.1v.1h.1v.1h.1v.1h80.9l50.35-61.391,37.12,45.21h0l.1.1h0l.1.1h0l.1.1h0l.1.1h0l.1.1h0l.1.1h0v.1h.1l.1.1h.1v.1h0l.1.1h.1v.1h0l.1.1h0l.1.1h0l.1.1h0l.1.1h0l.1.1h0l.1.1h0l.1.1h0l.1.1h0l.1.1h0l.1.1h0l.1.1h0l.1.1h0v.1h.1l.1.1h.1v.1h0l.1.1h.1v.1h0l.1.1h.1v.1h0l.1.1h0l.1.1h0l.1.1h0l.1.1h0l.1.1h0l.1.1h0l.1.1h0l.1.1h0l.1.1h0l.1.1h.1v.1h0l.1.1h.1v.1h0l.1.1h.1v.1h0l.1.1h.1v.1h0l.1.1h0l.1.1h0l.1.1h0l.1.1h0l.1.1h0l.1.1h0l.1.1h0l.1.1h.1v.1h0l.1.1h.1v.1h0l.1.1h.1v.1h0l.1.1h.1v.1h0l.1.1h.1v.1h0l.1.1h.1v.1h0l.1.1h0l.1.1h0l.1.1h0l.1.1h0l.1.1h0l.1.1h0l.1.1h0l.1.1h.1v.1h0l.1.1h.1v.1h0l.1.1h.1v.1h0l.1.1h.1v.1h0l.1.1h.1v.1h0l.1.1h.1v.1h0l.1.1h0l.1.1h0l.1.1h0l.1.1h.1v.1h0l.1.1h.1v.1h0l.1.1h.1v.1h0l.1.1h.1v.1h0l.1.1h.1v.1h0l.1.1h.1v.1h0l.1.1h.1v.1h0l.1.1h0l.1.1h0l.1.1h0l.1.1h.1v.1h0l.1.1h.1v.1h0l.1.1h.1v.1h0l.1.1h.1v.1h0l.1.1h.1v.1h0l.1.1h.1v.1h0l.1.1h.1v.1h0l.1.1h.1v.1h.1v.1h0l.1.1h.1v.1h0l.1.1h.1v.1h0l.1.1h.1v.1h0l.1.1h.1v.1h0l.1.1h.1v.1h0l.1.1h.1v.1h0l.1.1h.1v.1h.1v.1h.1v.1h.1v.1h.1v.1h.1v.1h0l.1.1h.1v.1h0l.1.1h.1v.1h0l.1.1h.1v.1h0l.1.1h.1v.1h0l.1.1h.1v.1h0l.1.1h.1v.1h.1v.1h.1v.1h.1v.1h.1v.1h.1v.1h0l.1.1h.1v.1h0l.1.1h.1v.1h0l.1.1h.1v.1h0l.1.1h.1v.1h0l.1.1h.1v.1h0l.1.1h.1v.1h81.188Z" transform="translate(-26.442 -0.048)"/>
              <g id="Group_21004" data-name="Group 21004" clip-path="url(#clip-path-2)">
                <path id="Path_126943" data-name="Path 126943" d="M738,114.549,821.759,17.18h-.1v-.1h-.1v-.1h-.1v-.1h-.1v-.1h-.1v-.1h-.1v-.1h-.1v-.1H821v-.1h-.1v-.1h-.1v-.1h-.1v-.1h-.1v-.1h-.1v-.1h-.1v-.1h-.1v-.1h-.1v-.1h-.1l.1-.1h-.19v-.1h-.1v-.1h-.1v-.1h-.1v-.1h-.1v-.1h-.1v-.1h-.1v-.1h-.1v-.1h-.1v-.1h-.1v-.1h-.1v-.1H819v-.1h-.1v-.1h-.1v-.1h-.1v-.1h-.1v-.1h-.1v-.1h-.1v-.1h-.1v-.1h-.1v-.1h-.1v-.1h-.1v-.1h-.1v-.1h-.1v-.1h-.1v-.1h-.1v-.1h-.1v-.1h-.1v-.1h-.1v-.1h-.1v-.1h-.1v-.1h-.1v-.1H817v-.1h-.1v-.1h-.1v-.1h-.1v-.1h-.1v-.1h-.1v-.1h-.1v-.1h-.1v-.1h-.1v-.1h-.1v-.1h-.1v-.1h-.1v-.1h-.1v-.1h-.1v-.1h-.1v-.1h-.1v-.1h-.1v-.1h-.1v-.1h-.1v-.1h-.1v-.1h-.1v-.1H815v-.1h-.1v-.1h-.1v-.1h-.1v-.1h-.1v-.1h-.1v-.1h-.1v-.1h-.1v-.1h-.1v-.1h-.1v-.1h-.1v-.1h-.1v-.1h-.1v-.1h-.1v-.1h-.1v-.1h-.1V9h-.1V8.9h-.1V8.8h-.1v-.1h-.1v-.1h-.1v-.1H813v-.1h-.1v-.1h-.1v-.1h-.1v-.1h-.1v-.1h-.1v-.1h-.1v-.1h-.1v-.1h-.1v-.1h-.1v-.1h-.1v-.1h-.1v-.1h-.1v-.1h-.1v-.1h-.1v-.1h-.1V7h-.1V6.9h-.1v-.1h-.1v-.1h-.1v-.1h-.1v-.1H811v-.1h-.1v-.1h-.1v-.1h-.1v-.1h-.1v-.1h-.1v-.1h-.1v-.1h-.1v-.1h-.1v-.1h-.1v-.1h-.1v-.1h-.1v-.1h-.1v-.1h-.1v-.1h-.1v-.1h-.1V5h-.1V4.9h-.1v-.1h-.1v-.1h-.1v-.1h-.1v-.1h-.1v-.1h-.1v-.1h-.1v-.1h-.1v-.1h-.1v-.1h-.1v-.1h-.1v-.1h-.1v-.1h-.1v-.1h-.1v-.1h-.1v-.1h-.1v-.1h-.1v-.1h-.1v-.1h-.1v-.1h-.1V3h-.1V2.9h-.1v-.1h-.1v-.1h-.1v-.1h-.1v-.1h-.1v-.1h-.1v-.1h-.1v-.1h-.1v-.1h-.1v-.1h-.1v-.1h-.1v-.1h-.1v-.1h-.1v-.1h-.1v-.1h-.1v-.1h-.1v-.1h-.1v-.1h-.1v-.1h-.1V1.1h-.1V1h-80.9L682.988,52.682l-28.934-35.5h0l-.1-.1h-.1v-.1h0l-.1-.1h-.1v-.1h0l-.1-.1h-.1v-.1h0l-.1-.1h-.1v-.1h0l-.1-.1h-.1v-.1h0l-.1-.1h-.1v-.1h0l-.1-.1h-.1v-.1h0l-.1-.1h-.1v-.1h0l-.1-.1h0l-.1-.1h-.1v-.1h0l-.1-.1h-.1v-.1h0l-.1-.1h-.1v-.1h0l-.1-.1h-.1v-.1h0l-.1-.1h-.1v-.1h0l-.1-.1h-.1v-.1h0l-.1-.1h-.1v-.1h0l-.1-.1h-.1v-.1h-.1v-.1h0l-.1-.1h-.1v-.1h0l-.1-.1h-.1v-.1h0l-.1-.1h-.1v-.1h0l-.1-.1h-.1v-.1h0l-.1-.1h-.1v-.1h0l-.1-.1h-.1v-.1h0l-.1-.1h-.1v-.1h0l-.1-.1h-.1v-.1h-.1v-.1h-.1v-.1h-.1v-.1h-.1v-.1h-.1v-.1h0l-.1-.1h-.1v-.1h0l-.1-.1h-.1v-.1h0l-.1-.1h-.1v-.1h0l-.1-.1h-.1v-.1h0l-.1-.1h-.1v-.1h0l-.1-.1h-.1v-.1h-.1v-.1h-.1v-.1h-.1v-.1h-.1v-.1h-.1v-.1h0l-.1-.1h-.1v-.1h0l-.1-.1h-.1v-.1h0l-.1-.1h-.1v-.1h0l-.1-.1h-.1v-.1h0l-.1-.1h-.1v-.1h-.1v-.1h-.1v-.1h-.1v-.1h-.1V9h-.1V8.9h-.1V8.8h-.1v-.1h0l-.1-.1h-.1v-.1h0l-.1-.1h-.1v-.1h0l-.1-.1h-.1v-.1h0l-.1-.1h-.1v-.1h-.1v-.1h-.1v-.1h-.1v-.1h-.1v-.1h-.1v-.1h-.1v-.1h-.1v-.1h-.1v-.1h-.1v-.1h-.1V7h-.1V6.9h-.1v-.1h-.1v-.1h0l-.1-.1h-.1v-.1h0l-.1-.1h-.1v-.1h-.1v-.1h-.1v-.1h-.1v-.1h-.1v-.1h-.1v-.1h-.1v-.1h-.1v-.1h-.1v-.1h-.1v-.1h-.1v-.1h-.1v-.1h-.1v-.1h-.1v-.1h0l-.1-.1h-.1V4.9h0l-.1-.1h-.1v-.1h-.1v-.1h-.1v-.1h-.1v-.1h-.1v-.1h-.1v-.1h-.1v-.1h-.1v-.1h-.1v-.1h-.1v-.1h-.1v-.1h-.1v-.1h-.1v-.1h-.1v-.1h0l-.1-.1h-.1v-.1h-.1v-.1h-.1v-.1h-.1V3h-.1V2.9h-.1v-.1h-.1v-.1h-.1v-.1h-.1v-.1h-.1v-.1h-.1v-.1h-.1v-.1h-.1v-.1h-.1v-.1h-.1v-.1h-.1v-.1h-.1v-.1h-.1v-.1h-.1v-.1h-.1v-.1h-.1v-.1h-.1v-.1h-.1v-.1h-.1V1.1h-.1V1H556.685l83.758,97.368L548.5,205.445h0v.1h.1v.1h.1v.1h.1v.1h.1v.1h.1v.1h.1v.1h.1v.1h.1v.1h.1v.1h.1v.1h.1v.1h.1v.1h.1v.1h.1v.1h.1v.1h.1v.1h.1v.1h.1v.1h.1v.1h.1v.1h.1v.1h.1v.1h.1v.1h.1v.1h.1v.1h.1v.1h.1v.1h.1v.1h.1v.1h.1v.1h.1v.1h.1v.1h.1v.1h.1v.1h.1v.1h.1v.1h.1v.1h.1v.1h.1v.1h.1v.1h.1v.1h.1v.1h.1v.1h.1v.1h.1v.1h.1v.1h.1v.1h.1v.1h.1v.1h.1v.1h.1v.1h.1v.1h.1v.1h.1v.1h.1v.1h.1v.1h.1v.1h.1v.1h.1v.1h.1v.1h.1v.1h.1v.1h.1v.1h.1v.1h.1v.1h.1v.1h.1v.1h.1v.1h.1v.1h.1v.1h.1v.1h.1v.1h.1v.1h.1v.1h.1v.1h.1v.1h.1v.1h.1v.1h.1v.1h.1v.1h.1v.1h.1v.1h.1v.1h.1v.1h.1v.1h.1v.1h.1v.1h.1v.1h.19l-.1.1h.1v.1h.1v.1h.1v.1h.1v.1h.1v.1h.1v.1h.1v.1h.1v.1h.1v.1h.1v.1h.1v.1h.1v.1h.1v.1h.1v.1h.1v.1h.1v.1h.19l-.1.1h.1v.1h.19l-.1.1h.1v.1h.1v.1h.1v.1h.1v.1h.1v.1h.1v.1h.1v.1h.1v.1h.1v.1h.1v.1h.1v.1h.1v.1h.19l-.1.1h.1v.1h.19l-.1.1h.1v.1h.19l-.1.1h.1v.1h.1v.1h.1v.1h.1v.1h.1v.1h.1v.1h.1v.1h.1v.1h.1v.1h.1v.1h.19l-.1.1h.1v.1h.19l-.1.1h.1v.1h.19l-.1.1h.1v.1h.19l-.1.1h.1v.1h.19l-.1.1h.1v.1h.1v.1h.1v.1h.1v.1h.1v.1h.1v.1h.1v.1h.1v.1h.19l-.1.1h.1v.1h.19l-.1.1h.1v.1h.19l-.1.1h.1v.1h.19l-.1.1h.1v.1h.19l-.1.1h.1v.1h.19l-.1.1h.1v.1h.1v.1h.1v.1h.1v.1h.1v.1h.1v.1h80.9l50.35-61.391,37.12,45.21h0l.1.1h0l.1.1h0l.1.1h0l.1.1h0l.1.1h0l.1.1h0v.1h.1l.1.1h.1v.1h0l.1.1h.1v.1h0l.1.1h0l.1.1h0l.1.1h0l.1.1h0l.1.1h0l.1.1h0l.1.1h0l.1.1h0l.1.1h0l.1.1h0l.1.1h0l.1.1h0v.1h.1l.1.1h.1v.1h0l.1.1h.1v.1h0l.1.1h.1v.1h0l.1.1h0l.1.1h0l.1.1h0l.1.1h0l.1.1h0l.1.1h0l.1.1h0l.1.1h0l.1.1h0l.1.1h.1v.1h0l.1.1h.1v.1h0l.1.1h.1v.1h0l.1.1h.1v.1h0l.1.1h0l.1.1h0l.1.1h0l.1.1h0l.1.1h0l.1.1h0l.1.1h0l.1.1h.1v.1h0l.1.1h.1v.1h0l.1.1h.1v.1h0l.1.1h.1v.1h0l.1.1h.1v.1h0l.1.1h.1v.1h0l.1.1h0l.1.1h0l.1.1h0l.1.1h0l.1.1h0l.1.1h0l.1.1h0l.1.1h.1v.1h0l.1.1h.1v.1h0l.1.1h.1v.1h0l.1.1h.1v.1h0l.1.1h.1v.1h0l.1.1h.1v.1h0l.1.1h0l.1.1h0l.1.1h0l.1.1h.1v.1h0l.1.1h.1v.1h0l.1.1h.1v.1h0l.1.1h.1v.1h0l.1.1h.1v.1h0l.1.1h.1v.1h0l.1.1h.1v.1h0l.1.1h0l.1.1h0l.1.1h0l.1.1h.1v.1h0l.1.1h.1v.1h0l.1.1h.1v.1h0l.1.1h.1v.1h0l.1.1h.1v.1h0l.1.1h.1v.1h0l.1.1h.1v.1h0l.1.1h.1v.1h.1v.1h0l.1.1h.1v.1h0l.1.1h.1v.1h0l.1.1h.1v.1h0l.1.1h.1v.1h0l.1.1h.1v.1h0l.1.1h.1v.1h0l.1.1h.1v.1h.1v.1h.1v.1h.1v.1h.1v.1h.1v.1h0l.1.1h.1v.1h0l.1.1h.1v.1h0l.1.1h.1v.1h0l.1.1h.1v.1h0l.1.1h.1v.1h0l.1.1h.1v.1h.1v.1h.1v.1h.1v.1h.1v.1h.1v.1h0l.1.1h.1v.1h0l.1.1h.1v.1h0l.1.1h.1v.1h0l.1.1h.1v.1h0l.1.1h.1v.1h0l.1.1h.1v.1h81.188Z" transform="translate(-26.442 -0.048)" fill="none" stroke="#000" stroke-miterlimit="10" stroke-width="1.904"/>
              </g>
              <path id="Path_126944" data-name="Path 126944" d="M135.165,54.491,178.472,1h80.807L175.616,98.368l92.229,107.077H186.657l-51.777-63.2-51.873,63.2H2.2L94.143,98.368,10.481,1H91.573Z" transform="translate(-0.106 -0.048)" fill="#ff3c1d"/>
              <g id="Group_21005" data-name="Group 21005" clip-path="url(#clip-path-2)">
                <path id="Path_126945" data-name="Path 126945" d="M135.165,54.491,178.472,1h80.807L175.616,98.368l92.229,107.077H186.657l-51.777-63.2-51.873,63.2H2.2L94.143,98.368,10.481,1H91.573Z" transform="translate(-0.106 -0.048)" fill="none" stroke="#000" stroke-miterlimit="10" stroke-width="1.904"/>
              </g>
              <path id="Path_126946" data-name="Path 126946" d="M408.265,54.491,451.572,1h80.9L448.716,98.368l92.229,107.077H459.852l-51.873-63.2-51.777,63.2H275.3L367.243,98.368,283.581,1h81.093Z" transform="translate(-13.272 -0.048)" fill="#ff3c1d"/>
              <g id="Group_21006" data-name="Group 21006" clip-path="url(#clip-path-2)">
                <path id="Path_126947" data-name="Path 126947" d="M408.265,54.491,451.572,1h80.9L448.716,98.368l92.229,107.077H459.852l-51.873-63.2-51.777,63.2H275.3L367.243,98.368,283.581,1h81.093Z" transform="translate(-13.272 -0.048)" fill="none" stroke="#000" stroke-miterlimit="10" stroke-width="1.904"/>
              </g>
              <path id="Path_126948" data-name="Path 126948" d="M681.365,54.491,724.672,1h80.9L721.816,98.368,814.14,205.445H732.952l-51.873-63.2-51.777,63.2H548.4L640.438,98.368,556.681,1h81.188Z" transform="translate(-26.438 -0.048)" fill="#ff3c1d"/>
              <g id="Group_21007" data-name="Group 21007" clip-path="url(#clip-path-2)">
                <path id="Path_126949" data-name="Path 126949" d="M681.365,54.491,724.672,1h80.9L721.816,98.368,814.14,205.445H732.952l-51.873-63.2-51.777,63.2H548.4L640.438,98.368,556.681,1h81.188Z" transform="translate(-26.438 -0.048)" fill="none" stroke="#000" stroke-miterlimit="10" stroke-width="1.904"/>
                <path id="Path_126950" data-name="Path 126950" d="M190.7,18.364l3.712-4.664H209.26" transform="translate(-9.193 -0.66)" fill="none" stroke="#fcf7eb" stroke-linecap="round" stroke-miterlimit="10" stroke-width="9.518"/>
                <path id="Path_126951" data-name="Path 126951" d="M50.571,23.6,42.1,13.7H81.5" transform="translate(-2.03 -0.66)" fill="none" stroke="#fcf7eb" stroke-linecap="round" stroke-miterlimit="10" stroke-width="9.518"/>
                <path id="Path_126952" data-name="Path 126952" d="M460.9,18.364l3.807-4.664h14.848" transform="translate(-22.219 -0.66)" fill="none" stroke="#fcf7eb" stroke-linecap="round" stroke-miterlimit="10" stroke-width="9.518"/>
                <path id="Path_126953" data-name="Path 126953" d="M320.871,23.6,312.4,13.7h39.4" transform="translate(-15.06 -0.66)" fill="none" stroke="#fcf7eb" stroke-linecap="round" stroke-miterlimit="10" stroke-width="9.518"/>
                <path id="Path_126954" data-name="Path 126954" d="M734.9,18.364l3.807-4.664H753.46" transform="translate(-35.428 -0.66)" fill="none" stroke="#fcf7eb" stroke-linecap="round" stroke-miterlimit="10" stroke-width="9.518"/>
                <path id="Path_126955" data-name="Path 126955" d="M594.771,23.6,586.3,13.7h39.4" transform="translate(-28.265 -0.66)" fill="none" stroke="#fcf7eb" stroke-linecap="round" stroke-miterlimit="10" stroke-width="9.518"/>
              </g>
            </g>
          </g>
        </g>
        <g id="Mask_Group_23" data-name="Mask Group 23" clip-path="url(#clip-path-8)">
          <g id="Artwork_77" data-name="Artwork 77" transform="translate(285.721 649.586)">
            <g id="Group_17979" data-name="Group 17979" transform="translate(-325.808 -349.153)">
              <g id="Group_17976" data-name="Group 17976" clip-path="url(#clip-path-9)">
                <path id="Path_117504" data-name="Path 117504" d="M553.133,89.559C531.6,38.045,465.5.5,387.471.5S243.34,38.045,221.721,89.559c-17.616,39.948-27.759,86.657-27.759,136.747V228a37.011,37.011,0,0,1-73.934-1.69h0a65.3,65.3,0,0,0,56.585,97.778H598.241a65.3,65.3,0,0,0,56.585-97.778h0A37.011,37.011,0,0,1,580.892,228v-1.69c0-50-10.143-96.8-27.759-136.747" transform="translate(-12.286 -0.055)" fill="#8e0bfa"/>
                <path id="Path_117505" data-name="Path 117505" d="M553.133,89.559C531.6,38.045,465.5.5,387.471.5S243.34,38.045,221.721,89.559c-17.616,39.948-27.759,86.657-27.759,136.747V228a37.011,37.011,0,0,1-73.934-1.69h0a65.3,65.3,0,0,0,56.585,97.778H598.241a65.3,65.3,0,0,0,56.585-97.778h0A37.011,37.011,0,0,1,580.892,228v-1.69C580.892,176.215,570.749,129.506,553.133,89.559Z" transform="translate(-12.286 -0.055)" fill="none" stroke="#000" stroke-miterlimit="10" stroke-width="0.89"/>
                <path id="Path_117506" data-name="Path 117506" d="M654.994,254.589A65.3,65.3,0,0,1,590.4,329.146H484.439a45.909,45.909,0,0,1-45.909-46V258.86H351.607v70.2H168.863A65.215,65.215,0,0,1,112.1,296.049,65.3,65.3,0,0,0,176.692,352.1H351.607v12.634H438.53V352.1H597.342c36.211,0,66.549-29.627,66.283-65.838a64.949,64.949,0,0,0-8.541-31.762" transform="translate(-12.365 -28.072)"/>
                <path id="Path_117507" data-name="Path 117507" d="M654.994,254.6A65.3,65.3,0,0,1,590.4,329.157H484.439a45.909,45.909,0,0,1-45.909-46V258.871H351.607v70.2H168.863A65.215,65.215,0,0,1,112.1,296.06a65.3,65.3,0,0,0,64.592,56.051H351.607v12.634H438.53V352.111H597.342c36.211,0,66.549-29.627,66.283-65.838a64.948,64.948,0,0,0-8.63-31.673Z" transform="translate(-12.365 -28.083)" fill="none" stroke="#000" stroke-miterlimit="10" stroke-width="0.89"/>
                <path id="Path_117508" data-name="Path 117508" d="M625.1,258.1h0" transform="translate(-68.949 -28.469)"/>
                <path id="Path_117509" data-name="Path 117509" d="M625.1,258.1Z" transform="translate(-68.949 -28.469)" fill="none" stroke="#000" stroke-miterlimit="10" stroke-width="0.89"/>
                <path id="Path_117510" data-name="Path 117510" d="M621.78,238.169h0c.89,19.662,21.709,37.011,41.549,37.011,12.812,0,21.264-3.381,26.958-8.63a37.012,37.012,0,0,1-55.962-29.983c0-.534,0-1.157,0-1.69,0-50-10.143-96.8-27.759-136.658A108.1,108.1,0,0,0,595,77.4c16.993,40.392,26.78,111.657,26.78,160.769" transform="translate(-65.629 -8.537)"/>
                <path id="Path_117511" data-name="Path 117511" d="M621.78,238.169h0c.89,19.662,21.709,37.011,41.549,37.011,12.812,0,21.264-3.381,26.958-8.63a37.012,37.012,0,0,1-55.962-29.983c0-.534,0-1.157,0-1.69,0-50-10.143-96.8-27.759-136.658A108.1,108.1,0,0,0,595,77.4C611.993,117.792,621.78,189.057,621.78,238.169Z" transform="translate(-65.629 -8.537)" fill="none" stroke="#000" stroke-miterlimit="10" stroke-width="0.89"/>
                <rect id="Rectangle_138011" data-name="Rectangle 138011" width="86.924" height="105.954" transform="translate(331.68 230.966)" fill="#00db96"/>
                <rect id="Rectangle_138012" data-name="Rectangle 138012" width="86.924" height="105.954" transform="translate(331.68 230.966)" fill="none" stroke="#000" stroke-miterlimit="10" stroke-width="0.89"/>
                <path id="Path_117512" data-name="Path 117512" d="M560.344,127.16c0,63.436-70.909,114.86-158.366,114.86S243.7,190.6,243.7,127.16,314.609,12.3,402.066,12.3,560.433,63.725,560.433,127.16" transform="translate(-26.88 -1.357)" fill="#00db96"/>
                <ellipse id="Ellipse_964" data-name="Ellipse 964" cx="158.277" cy="114.86" rx="158.277" ry="114.86" transform="translate(216.909 10.943)" fill="none" stroke="#000" stroke-miterlimit="10" stroke-width="0.89"/>
                <path id="Path_117513" data-name="Path 117513" d="M560.591,187.445A37.545,37.545,0,1,1,523.045,149.9a37.545,37.545,0,0,1,37.545,37.545" transform="translate(-53.551 -16.534)" fill="#ff3c1d"/>
                <path id="Path_117514" data-name="Path 117514" d="M560.591,187.445A37.545,37.545,0,1,1,523.045,149.9a37.545,37.545,0,0,1,37.545,37.545Z" transform="translate(-53.551 -16.534)" fill="none" stroke="#000" stroke-miterlimit="10" stroke-width="0.89"/>
                <path id="Path_117515" data-name="Path 117515" d="M512.8,171.071a22.509,22.509,0,0,1,13.257-4.271" transform="translate(-56.562 -18.398)" fill="#ff3c1d"/>
                <path id="Path_117516" data-name="Path 117516" d="M512.8,171.071a22.509,22.509,0,0,1,13.257-4.271" transform="translate(-56.562 -18.398)" fill="none" stroke="#fcf7eb" stroke-linecap="round" stroke-miterlimit="10" stroke-width="17.794"/>
                <path id="Path_117517" data-name="Path 117517" d="M546.288,86.089a87.1,87.1,0,0,1,9.431,39.147c0,63.436-70.909,114.86-158.366,114.86-63.169,0-117.707-26.869-143.152-65.749,22.064,44.218,80.429,75.713,148.936,75.713,87.457,0,158.277-51.425,158.277-114.86,0-17.616-5.427-34.253-15.214-49.2" transform="translate(-28.039 -9.486)"/>
                <path id="Path_117518" data-name="Path 117518" d="M546.288,86.1a87.1,87.1,0,0,1,9.431,39.147c0,63.436-70.909,114.86-158.366,114.86-63.169,0-117.707-26.869-143.152-65.749,22.064,44.218,80.429,75.713,148.936,75.713,87.457,0,158.277-51.425,158.277-114.86C561.5,117.684,556.075,101.047,546.288,86.1Z" transform="translate(-28.039 -9.497)" fill="none" stroke="#000" stroke-miterlimit="10" stroke-width="0.89"/>
                <path id="Path_117519" data-name="Path 117519" d="M430.017,166.009a9.609,9.609,0,1,1-9.609-9.609,9.609,9.609,0,0,1,9.609,9.609" transform="translate(-45.312 -17.251)"/>
                <circle id="Ellipse_965" data-name="Ellipse 965" cx="9.609" cy="9.609" r="9.609" transform="translate(363.869 156.398) rotate(-79.1)" fill="none" stroke="#000" stroke-miterlimit="10" stroke-width="0.89"/>
                <path id="Path_117520" data-name="Path 117520" d="M448.022,222.508c0,18.239-13.523,33.008-30.161,33.008S387.7,240.747,387.7,222.508,401.223,189.5,417.861,189.5s30.161,14.769,30.161,33.008" transform="translate(-42.764 -20.902)"/>
                <path id="Path_117521" data-name="Path 117521" d="M448.022,222.508c0,18.239-13.523,33.008-30.161,33.008S387.7,240.747,387.7,222.508,401.223,189.5,417.861,189.5,448.022,204.269,448.022,222.508Z" transform="translate(-42.764 -20.902)" fill="none" stroke="#000" stroke-miterlimit="10" stroke-width="0.89"/>
                <path id="Path_117522" data-name="Path 117522" d="M449.69,213.622H427.715a3.915,3.915,0,0,1-3.915-3.915V189.6Z" transform="translate(-46.746 -20.913)" fill="#fcf7eb"/>
                <path id="Path_117523" data-name="Path 117523" d="M449.69,213.622H427.715a3.915,3.915,0,0,1-3.915-3.915V189.6Z" transform="translate(-46.746 -20.913)" fill="none" stroke="#000" stroke-linejoin="round" stroke-width="0.89"/>
                <path id="Path_117524" data-name="Path 117524" d="M390.5,213.622h21.976a3.915,3.915,0,0,0,3.915-3.915V189.6Z" transform="translate(-43.073 -20.913)" fill="#fcf7eb"/>
                <path id="Path_117525" data-name="Path 117525" d="M390.5,213.622h21.976a3.915,3.915,0,0,0,3.915-3.915V189.6Z" transform="translate(-43.073 -20.913)" fill="none" stroke="#000" stroke-linejoin="round" stroke-width="0.89"/>
                <path id="Path_117526" data-name="Path 117526" d="M448.022,229.7a12.284,12.284,0,0,1-.623,2.58c-1.868,5.249-7.029,8.274-13.167,8.363H433.7a34.076,34.076,0,0,0-8.541,1.157,27.58,27.58,0,0,0-7.3,3.025,27.581,27.581,0,0,0-7.3-3.025,34.077,34.077,0,0,0-8.541-1.157h-.534c-6.139-.089-11.3-3.114-13.167-8.363a12.272,12.272,0,0,1-.623-2.58,35.054,35.054,0,0,0,3.648,13.257h0c4.537,8.9,12.634,15.214,22.242,16.637a27.135,27.135,0,0,0,8.274,0c9.609-1.424,17.705-7.829,22.243-16.637h0a35.054,35.054,0,0,0,3.648-13.257" transform="translate(-42.764 -25.336)" fill="#ff0d5b"/>
                <path id="Path_117527" data-name="Path 117527" d="M448.022,229.7a12.284,12.284,0,0,1-.623,2.58c-1.868,5.249-7.029,8.274-13.167,8.363H433.7a34.076,34.076,0,0,0-8.541,1.157,27.58,27.58,0,0,0-7.3,3.025,27.581,27.581,0,0,0-7.3-3.025,34.077,34.077,0,0,0-8.541-1.157h-.534c-6.139-.089-11.3-3.114-13.167-8.363a12.272,12.272,0,0,1-.623-2.58,35.054,35.054,0,0,0,3.648,13.257h0c4.537,8.9,12.634,15.214,22.242,16.637a27.135,27.135,0,0,0,8.274,0c9.609-1.424,17.705-7.829,22.243-16.637h0A35.053,35.053,0,0,0,448.022,229.7Z" transform="translate(-42.764 -25.336)" fill="none" stroke="#000" stroke-linejoin="round" stroke-width="0.89"/>
                <path id="Path_117528" data-name="Path 117528" d="M417.961,189.5c-16.637,0-30.161,14.769-30.161,33.008v.623c.267-6.584,5.249-13.523,12.9-16.815a21.886,21.886,0,0,1,8.185-1.868,16.1,16.1,0,0,1,8.986,2.313,16.1,16.1,0,0,1,8.986-2.313,21.885,21.885,0,0,1,8.185,1.868c7.651,3.381,12.634,10.232,12.9,16.815v-.623c0-18.239-13.523-33.008-30.161-33.008" transform="translate(-42.775 -20.902)" fill="#ff0d5b"/>
                <path id="Path_117529" data-name="Path 117529" d="M417.961,189.5c-16.637,0-30.161,14.769-30.161,33.008v.623c.267-6.584,5.249-13.523,12.9-16.815a21.886,21.886,0,0,1,8.185-1.868,16.1,16.1,0,0,1,8.986,2.313,16.1,16.1,0,0,1,8.986-2.313,21.885,21.885,0,0,1,8.185,1.868c7.651,3.381,12.634,10.232,12.9,16.815v-.623C448.033,204.269,434.6,189.5,417.961,189.5Z" transform="translate(-42.775 -20.902)" fill="none" stroke="#000" stroke-linejoin="round" stroke-width="0.89"/>
                <path id="Path_117530" data-name="Path 117530" d="M413.5,199.312a8.185,8.185,0,0,1,3.292-.712" transform="translate(-45.61 -21.906)" fill="none" stroke="#fcf7eb" stroke-linecap="round" stroke-miterlimit="10" stroke-width="8.897"/>
                <path id="Path_117531" data-name="Path 117531" d="M344.855,236.537c-6.317-10.054-9.965-27.492-9.965-40.214a65.393,65.393,0,0,1,50.446-63.7c55.428-11.477,95.554-44.93,95.554-84.432a61.479,61.479,0,0,0-9.164-31.851C446.814,6.283,418.077.5,387.471.5,309.356.5,243.34,38.045,221.721,89.559c-17.616,39.947-27.759,86.657-27.759,136.747V228a37.011,37.011,0,0,1-73.934-1.69h0a65.3,65.3,0,0,0,56.585,97.778H343.876Z" transform="translate(-12.286 -0.055)" fill="#8e0bfa"/>
                <path id="Path_117532" data-name="Path 117532" d="M344.855,236.537c-6.317-10.054-9.965-27.492-9.965-40.214a65.393,65.393,0,0,1,50.446-63.7c55.428-11.477,95.554-44.93,95.554-84.432a61.479,61.479,0,0,0-9.164-31.851C446.814,6.283,418.077.5,387.471.5,309.356.5,243.34,38.045,221.721,89.559c-17.616,39.947-27.759,86.657-27.759,136.747V228a37.011,37.011,0,0,1-73.934-1.69h0a65.3,65.3,0,0,0,56.585,97.778H343.876Z" transform="translate(-12.286 -0.055)" fill="none" stroke="#000" stroke-miterlimit="10" stroke-width="0.89"/>
                <path id="Path_117533" data-name="Path 117533" d="M481.058,50.328A61.124,61.124,0,0,0,472.695,19.9a57.924,57.924,0,0,1,.445,7.384c0,39.5-40.125,72.955-95.554,84.432h0c-28.915,6.762-55.517,42.261-55.517,73.311,0,12.723,8.63,41.727,14.947,51.78l-.267,23.221a43.773,43.773,0,0,1-43.773,43.239H168.863A65.215,65.215,0,0,1,112.1,270.261a65.3,65.3,0,0,0,64.592,56.051H343.955l.89-87.635c-6.317-10.054-9.965-27.492-9.965-40.214a65.393,65.393,0,0,1,50.535-63.7c55.428-11.477,95.554-44.93,95.554-84.432" transform="translate(-12.365 -2.195)"/>
                <path id="Path_117534" data-name="Path 117534" d="M481.058,50.328A61.124,61.124,0,0,0,472.695,19.9a57.924,57.924,0,0,1,.445,7.384c0,39.5-40.125,72.955-95.554,84.432h0c-28.915,6.762-55.517,42.261-55.517,73.311,0,12.723,8.63,41.727,14.947,51.78l-.267,23.221a43.773,43.773,0,0,1-43.773,43.239H168.863A65.215,65.215,0,0,1,112.1,270.261a65.3,65.3,0,0,0,64.592,56.051H343.955l.89-87.635c-6.317-10.054-9.965-27.492-9.965-40.214a65.393,65.393,0,0,1,50.535-63.7C440.933,123.283,481.058,89.83,481.058,50.328Z" transform="translate(-12.365 -2.195)" fill="none" stroke="#000" stroke-miterlimit="10" stroke-width="0.89"/>
                <rect id="Rectangle_138013" data-name="Rectangle 138013" width="352.588" height="73.783" transform="translate(0.601 653.295) rotate(-67.5)" fill="#00db96"/>
                <rect id="Rectangle_138014" data-name="Rectangle 138014" width="352.588" height="73.783" transform="translate(0.601 653.295) rotate(-67.5)" fill="none" stroke="#000" stroke-miterlimit="10" stroke-width="0.89"/>
                <rect id="Rectangle_138015" data-name="Rectangle 138015" width="338.97" height="73.879" transform="translate(496.616 673.202) rotate(-81.384)" fill="#00db96"/>
                <rect id="Rectangle_138016" data-name="Rectangle 138016" width="338.97" height="73.879" transform="translate(496.616 673.202) rotate(-81.384)" fill="none" stroke="#000" stroke-miterlimit="10" stroke-width="0.891"/>
                <path id="Path_117535" data-name="Path 117535" d="M421.5,700.859l206.41-300.9c16.548-24.022-.712-56.763-29.894-56.763H185.2c-29.182,0-46.442,32.741-29.894,56.763l206.41,300.9a36.3,36.3,0,0,0,59.788,0" transform="translate(-16.419 -37.855)" fill="#00db96"/>
                <path id="Path_117536" data-name="Path 117536" d="M421.5,700.859l206.41-300.9c16.548-24.022-.712-56.763-29.894-56.763H185.2c-29.182,0-46.442,32.741-29.894,56.763l206.41,300.9a36.3,36.3,0,0,0,59.788,0Z" transform="translate(-16.419 -37.855)" fill="none" stroke="#000" stroke-miterlimit="10" stroke-width="0.89"/>
                <path id="Path_117537" data-name="Path 117537" d="M628.711,404.7,416.963,645.188a33.186,33.186,0,0,1-49.823,0L155.391,404.7a35.313,35.313,0,0,1-2.491-3.2,37.815,37.815,0,0,0,2.758,4.893l206.41,300.9a36.3,36.3,0,0,0,59.788,0l206.5-300.9A37.728,37.728,0,0,0,631.2,401.5a35.039,35.039,0,0,1-2.491,3.2" transform="translate(-16.865 -44.286)"/>
                <path id="Path_117538" data-name="Path 117538" d="M628.711,404.7,416.963,645.188a33.186,33.186,0,0,1-49.823,0L155.391,404.7a35.313,35.313,0,0,1-2.491-3.2,37.815,37.815,0,0,0,2.758,4.893l206.41,300.9a36.3,36.3,0,0,0,59.788,0l206.5-300.9A37.728,37.728,0,0,0,631.2,401.5,35.039,35.039,0,0,1,628.711,404.7Z" transform="translate(-16.865 -44.286)" fill="none" stroke="#000" stroke-miterlimit="10" stroke-width="0.89"/>
                <path id="Path_117539" data-name="Path 117539" d="M229.4,513.9,370.6,719.687a36.3,36.3,0,0,0,59.788,0L571.489,513.9Z" transform="translate(-25.303 -56.684)" fill="#ff0d5b"/>
                <path id="Path_117540" data-name="Path 117540" d="M229.4,513.9,370.6,719.687a36.3,36.3,0,0,0,59.788,0L571.489,513.9Z" transform="translate(-25.303 -56.684)" fill="none" stroke="#000" stroke-miterlimit="10" stroke-width="0.89"/>
              </g>
              <g id="Group_17977" data-name="Group 17977" transform="translate(204.097 457.216)" clip-path="url(#clip-path-10)">
                <path id="Path_117541" data-name="Path 117541" d="M395.2,519.312A98.4,98.4,0,1,1,296.8,421a98.4,98.4,0,0,1,98.4,98.312" transform="translate(-225.981 -503.653)"/>
                <circle id="Ellipse_966" data-name="Ellipse 966" cx="98.401" cy="98.401" r="98.401" transform="translate(-58.127 -36.381) rotate(-23.2)" fill="none" stroke="#000" stroke-miterlimit="10" stroke-width="0.89"/>
                <path id="Path_117542" data-name="Path 117542" d="M616.3,519.312A98.4,98.4,0,1,1,517.99,421,98.4,98.4,0,0,1,616.3,519.312" transform="translate(-250.368 -503.653)"/>
                <path id="Path_117543" data-name="Path 117543" d="M616.3,519.312A98.4,98.4,0,1,1,517.99,421,98.4,98.4,0,0,1,616.3,519.312Z" transform="translate(-250.368 -503.653)" fill="none" stroke="#000" stroke-miterlimit="10" stroke-width="0.89"/>
              </g>
              <g id="Group_17978" data-name="Group 17978" clip-path="url(#clip-path-9)">
                <path id="Path_117545" data-name="Path 117545" d="M395.985,501.293A101.693,101.693,0,1,1,294.293,399.6,101.693,101.693,0,0,1,395.985,501.293" transform="translate(-21.244 -44.076)" fill="#00db96"/>
                <circle id="Ellipse_967" data-name="Ellipse 967" cx="101.693" cy="101.693" r="101.693" transform="translate(141.042 399.898) rotate(-21.4)" fill="none" stroke="#000" stroke-miterlimit="10" stroke-width="0.89"/>
                <path id="Path_117546" data-name="Path 117546" d="M395.985,501.293A101.693,101.693,0,1,1,294.293,399.6,101.693,101.693,0,0,1,395.985,501.293" transform="translate(-21.244 -44.076)" fill="#00db96"/>
                <circle id="Ellipse_968" data-name="Ellipse 968" cx="101.693" cy="101.693" r="101.693" transform="translate(141.042 399.898) rotate(-21.4)" fill="none" stroke="#000" stroke-miterlimit="10" stroke-width="0.89"/>
                <path id="Path_117547" data-name="Path 117547" d="M395.985,505.325c-20.107-30.695-58.1-51.425-101.693-51.425S212.707,474.63,192.6,505.325v2.046a101.693,101.693,0,1,0,203.385,0v-2.046" transform="translate(-21.244 -50.066)" fill="#ff0d5b"/>
                <path id="Path_117548" data-name="Path 117548" d="M395.985,505.325c-20.107-30.695-58.1-51.425-101.693-51.425S212.707,474.63,192.6,505.325v2.046a101.693,101.693,0,1,0,203.385,0Z" transform="translate(-21.244 -50.066)" fill="none" stroke="#000" stroke-miterlimit="10" stroke-width="0.89"/>
                <path id="Path_117549" data-name="Path 117549" d="M624.585,501.293A101.693,101.693,0,1,1,522.893,399.6,101.692,101.692,0,0,1,624.585,501.293" transform="translate(-46.459 -44.076)" fill="#00db96"/>
                <circle id="Ellipse_969" data-name="Ellipse 969" cx="101.693" cy="101.693" r="101.693" transform="matrix(0.237, -0.972, 0.972, 0.237, 353.289, 531.617)" fill="none" stroke="#000" stroke-miterlimit="10" stroke-width="0.89"/>
                <path id="Path_117550" data-name="Path 117550" d="M624.585,505.325c-20.107-30.695-58.1-51.425-101.692-51.425S441.307,474.63,421.2,505.325v2.046a101.693,101.693,0,1,0,203.385,0v-2.046" transform="translate(-46.459 -50.066)" fill="#ff0d5b"/>
                <path id="Path_117551" data-name="Path 117551" d="M624.585,505.325c-20.107-30.695-58.1-51.425-101.692-51.425S441.307,474.63,421.2,505.325v2.046a101.693,101.693,0,1,0,203.385,0C624.585,506.659,624.585,505.947,624.585,505.325Z" transform="translate(-46.459 -50.066)" fill="none" stroke="#000" stroke-miterlimit="10" stroke-width="0.89"/>
                <path id="Path_117552" data-name="Path 117552" d="M446.017,257.62c0,5.249-12.456,9.52-27.759,9.52s-27.759-4.271-27.759-9.52,12.456-9.52,27.759-9.52,27.759,4.271,27.759,9.52" transform="translate(-43.073 -27.366)"/>
                <path id="Path_117553" data-name="Path 117553" d="M446.017,257.62c0,5.249-12.456,9.52-27.759,9.52s-27.759-4.271-27.759-9.52,12.456-9.52,27.759-9.52S446.017,252.371,446.017,257.62Z" transform="translate(-43.073 -27.366)" fill="none" stroke="#000" stroke-miterlimit="10" stroke-width="0.89"/>
                <path id="Path_117554" data-name="Path 117554" d="M443.913,247.156A25.356,25.356,0,1,1,418.556,221.8a25.356,25.356,0,0,1,25.356,25.356" transform="translate(-43.371 -24.465)" fill="#ff3c1d"/>
                <circle id="Ellipse_970" data-name="Ellipse 970" cx="25.356" cy="25.356" r="25.356" transform="translate(342.043 208.943) rotate(-22.5)" fill="none" stroke="#000" stroke-miterlimit="10" stroke-width="0.89"/>
                <path id="Path_117555" data-name="Path 117555" d="M408.1,235.685a9.253,9.253,0,0,1,8.1-3.292" transform="translate(-45.014 -25.628)" fill="none" stroke="#fcf7eb" stroke-linecap="round" stroke-miterlimit="10" stroke-width="8.897"/>
                <path id="Path_117556" data-name="Path 117556" d="M441.187,237.2A25.356,25.356,0,0,1,394.3,255.884,25.356,25.356,0,1,0,441.187,237.2" transform="translate(-43.492 -26.164)"/>
                <path id="Path_117557" data-name="Path 117557" d="M441.187,237.2A25.356,25.356,0,0,1,394.3,255.884,25.356,25.356,0,1,0,441.187,237.2Z" transform="translate(-43.492 -26.164)" fill="none" stroke="#000" stroke-linejoin="round" stroke-width="0.89"/>
                <path id="Path_117558" data-name="Path 117558" d="M418.259,240.2c-15.3,0-27.759,4.271-27.759,9.52v7.029c0-5.249,12.456-9.52,27.759-9.52s27.759,4.271,27.759,9.52V249.72c0-5.249-12.456-9.52-27.759-9.52" transform="translate(-43.073 -26.494)" fill="#ff3c1d"/>
                <path id="Path_117559" data-name="Path 117559" d="M418.259,240.2c-15.3,0-27.759,4.271-27.759,9.52v7.029c0-5.249,12.456-9.52,27.759-9.52s27.759,4.271,27.759,9.52V249.72C446.017,244.471,433.561,240.2,418.259,240.2Z" transform="translate(-43.073 -26.494)" fill="none" stroke="#000" stroke-miterlimit="10" stroke-width="0.89"/>
                <path id="Path_117560" data-name="Path 117560" d="M421.248,273.7c-2.046,0-3.648.534-3.648,1.246V426.372h7.3V274.946c0-.712-1.6-1.246-3.648-1.246" transform="translate(-46.062 -30.19)" fill="#fcf7eb"/>
                <path id="Path_117561" data-name="Path 117561" d="M421.248,273.7c-2.046,0-3.648.534-3.648,1.246V426.372h7.3V274.946C424.9,274.234,423.205,273.7,421.248,273.7Z" transform="translate(-46.062 -30.19)" fill="none" stroke="#000" stroke-miterlimit="10" stroke-width="0.89"/>
                <path id="Path_117562" data-name="Path 117562" d="M421.513,273.7H420c1.246.178,2.135.623,2.135,1.157V426.372h3.114V274.946c0-.712-1.6-1.246-3.648-1.246" transform="translate(-46.327 -30.19)"/>
                <path id="Path_117563" data-name="Path 117563" d="M421.513,273.7H420c1.246.178,2.135.623,2.135,1.157V426.372h3.114V274.946C425.16,274.234,423.47,273.7,421.513,273.7Z" transform="translate(-46.327 -30.19)" fill="none" stroke="#000" stroke-miterlimit="10" stroke-width="0.89"/>
                <path id="Path_117564" data-name="Path 117564" d="M292.5,62.033c19.751-16.9,46.086-29.627,76.158-36.033" transform="translate(-32.263 -2.868)" fill="none" stroke="#fcf7eb" stroke-linecap="round" stroke-miterlimit="10" stroke-width="17.794"/>
                <path id="Path_117565" data-name="Path 117565" d="M397.971,505.611c-16.193-24.734-43.951-42.972-76.87-49.111,27.759,7.118,50.98,22.154,65.215,41.638v1.779c0,50.357-45.553,91.194-101.693,91.194-29.182,0-55.428-11.032-74.023-28.648a101.693,101.693,0,0,0,187.371-54.805v-2.046" transform="translate(-23.229 -50.353)"/>
                <path id="Path_117566" data-name="Path 117566" d="M397.971,505.611c-16.193-24.734-43.951-42.972-76.87-49.111,27.759,7.118,50.98,22.154,65.215,41.638v1.779c0,50.357-45.553,91.194-101.693,91.194-29.182,0-55.428-11.032-74.023-28.648a101.693,101.693,0,0,0,187.371-54.805C397.971,506.946,397.971,506.234,397.971,505.611Z" transform="translate(-23.229 -50.353)" fill="none" stroke="#000" stroke-miterlimit="10" stroke-width="0.89"/>
                <path id="Path_117567" data-name="Path 117567" d="M374.977,442.5A101.693,101.693,0,0,1,204.6,551.488,101.693,101.693,0,1,0,374.977,442.5" transform="translate(-22.568 -48.808)"/>
                <path id="Path_117568" data-name="Path 117568" d="M374.977,442.5A101.693,101.693,0,0,1,204.6,551.488,101.693,101.693,0,1,0,374.977,442.5Z" transform="translate(-22.568 -48.808)" fill="none" stroke="#000" stroke-miterlimit="10" stroke-width="0.89"/>
                <path id="Path_117569" data-name="Path 117569" d="M197.938,507.271v-2.046c19.662-30.072,56.585-50.535,99.023-51.425h-2.669c-43.6,0-81.585,20.73-101.693,51.425v2.046A101.693,101.693,0,0,0,294.293,608.963h2.669a101.693,101.693,0,0,1-99.023-101.693" transform="translate(-21.244 -50.055)"/>
                <path id="Path_117570" data-name="Path 117570" d="M197.938,507.271v-2.046c19.662-30.072,56.585-50.535,99.023-51.425h-2.669c-43.6,0-81.585,20.73-101.693,51.425v2.046A101.693,101.693,0,0,0,294.293,608.963h2.669a101.693,101.693,0,0,1-99.023-101.693Z" transform="translate(-21.244 -50.055)" fill="none" stroke="#000" stroke-miterlimit="10" stroke-width="0.89"/>
                <path id="Path_117571" data-name="Path 117571" d="M240.4,444.488A83.276,83.276,0,0,1,286.753,421" transform="translate(-26.516 -46.437)" fill="none" stroke="#fcf7eb" stroke-linecap="round" stroke-miterlimit="10" stroke-width="17.794"/>
                <path id="Path_117572" data-name="Path 117572" d="M626.581,505.611C610.389,480.878,582.63,462.639,549.8,456.5c27.759,7.118,50.98,22.154,65.215,41.638v1.779c0,50.357-45.552,91.194-101.693,91.194-29.182,0-55.517-11.032-74.023-28.648a101.692,101.692,0,0,0,187.37-54.805c0-.712,0-1.334,0-2.046" transform="translate(-48.455 -50.353)"/>
                <path id="Path_117573" data-name="Path 117573" d="M626.581,505.611C610.389,480.878,582.63,462.639,549.8,456.5c27.759,7.118,50.98,22.154,65.215,41.638v1.779c0,50.357-45.552,91.194-101.693,91.194-29.182,0-55.517-11.032-74.023-28.648a101.692,101.692,0,0,0,187.37-54.805A16.44,16.44,0,0,1,626.581,505.611Z" transform="translate(-48.455 -50.353)" fill="none" stroke="#000" stroke-miterlimit="10" stroke-width="0.89"/>
                <path id="Path_117574" data-name="Path 117574" d="M603.577,442.5A101.693,101.693,0,0,1,433.2,551.488,101.693,101.693,0,1,0,603.577,442.5" transform="translate(-47.783 -48.808)"/>
                <path id="Path_117575" data-name="Path 117575" d="M603.577,442.5A101.693,101.693,0,0,1,433.2,551.488,101.693,101.693,0,1,0,603.577,442.5Z" transform="translate(-47.783 -48.808)" fill="none" stroke="#000" stroke-miterlimit="10" stroke-width="0.89"/>
                <path id="Path_117576" data-name="Path 117576" d="M426.538,507.271v-2.046c19.662-30.072,56.585-50.535,99.024-51.425h-2.669c-43.6,0-81.585,20.73-101.693,51.425v2.046A101.692,101.692,0,0,0,522.893,608.963h2.669a101.693,101.693,0,0,1-99.024-101.693" transform="translate(-46.459 -50.055)"/>
                <path id="Path_117577" data-name="Path 117577" d="M426.538,507.271v-2.046c19.662-30.072,56.585-50.535,99.024-51.425h-2.669c-43.6,0-81.585,20.73-101.693,51.425v2.046A101.692,101.692,0,0,0,522.893,608.963h2.669A101.693,101.693,0,0,1,426.538,507.271Z" transform="translate(-46.459 -50.055)" fill="none" stroke="#000" stroke-miterlimit="10" stroke-width="0.89"/>
                <path id="Path_117578" data-name="Path 117578" d="M469,444.488A83.276,83.276,0,0,1,515.353,421" transform="translate(-51.731 -46.437)" fill="none" stroke="#fcf7eb" stroke-linecap="round" stroke-miterlimit="10" stroke-width="17.794"/>
                <path id="Path_117579" data-name="Path 117579" d="M457.186,457.185,411.1,449,514.038,747.227l77.493-32.385Z" transform="translate(-45.345 -49.525)" fill="#00db96"/>
                <path id="Path_117580" data-name="Path 117580" d="M457.186,457.185,411.1,449,514.038,747.227l77.493-32.385Z" transform="translate(-45.345 -49.525)" fill="none" stroke="#000" stroke-miterlimit="10" stroke-width="0.89"/>
                <path id="Path_117581" data-name="Path 117581" d="M461.334,457.924,448.7,455.7,582.511,712.378l-66.994,27.937,2.669,7.651,77.493-32.385Z" transform="translate(-49.492 -50.264)"/>
                <path id="Path_117582" data-name="Path 117582" d="M461.334,457.924,448.7,455.7,582.511,712.378l-66.994,27.937,2.669,7.651,77.493-32.385Z" transform="translate(-49.492 -50.264)" fill="none" stroke="#000" stroke-miterlimit="10" stroke-width="0.89"/>
                <path id="Path_117583" data-name="Path 117583" d="M466.059,343.841l-21.709-33.987-1.335-2.135a22.866,22.866,0,0,0-8.363-7.829l-3.47-1.868-5.071-2.758-1.068-.623a17.26,17.26,0,0,0-17.527.623l-7.384,4.715L387.766,307.9a15.036,15.036,0,0,0,20.73,4.626l6.673-4.271,8.63,4.626a19.04,19.04,0,0,1,6.94,6.495L438.39,331.3l-9.876-7.029a17.082,17.082,0,0,0-17.349-1.246L399.6,328.716a17.082,17.082,0,0,0-9.342,13.345l-1.868,16.281a17.26,17.26,0,0,0-1.513,10.054v.712l3.2,21.264a16.727,16.727,0,0,0,9.876-5.249l3.826,8.185c-13.345,20.374-7.562,42.439,11.566,49.823,11.477,4.449,25.8,2.847,39.058-3.2l17.972-71.621a25,25,0,0,0-3.2-19.484ZM414.1,380.586a12.278,12.278,0,0,0-.89-2.758l-2.135-4.626,3.114-1.69a31.672,31.672,0,0,0,6.495,1.513l-6.584,7.562" transform="translate(-42.652 -32.269)" fill="#00db96"/>
                <path id="Path_117584" data-name="Path 117584" d="M466.059,343.841l-21.709-33.987-1.335-2.135a22.866,22.866,0,0,0-8.363-7.829l-3.47-1.868-5.071-2.758-1.068-.623a17.26,17.26,0,0,0-17.527.623l-7.384,4.715L387.766,307.9a15.036,15.036,0,0,0,20.73,4.626l6.673-4.271,8.63,4.626a19.04,19.04,0,0,1,6.94,6.495L438.39,331.3l-9.876-7.029a17.082,17.082,0,0,0-17.349-1.246L399.6,328.716a17.082,17.082,0,0,0-9.342,13.345l-1.868,16.281a17.26,17.26,0,0,0-1.513,10.054v.712l3.2,21.264a16.727,16.727,0,0,0,9.876-5.249l3.826,8.185c-13.345,20.374-7.562,42.439,11.566,49.823,11.477,4.449,25.8,2.847,39.058-3.2l17.972-71.621a25,25,0,0,0-3.2-19.484ZM414.1,380.586a12.278,12.278,0,0,0-.89-2.758l-2.135-4.626,3.114-1.69a31.672,31.672,0,0,0,6.495,1.513Z" transform="translate(-42.652 -32.269)" fill="none" stroke="#000" stroke-miterlimit="10" stroke-width="0.89"/>
                <path id="Path_117585" data-name="Path 117585" d="M408.7,314.173l6.673-4.271,8.63,4.626a18.952,18.952,0,0,1,4.982,3.915,19.128,19.128,0,0,0-6.762-6.228l-8.63-4.715-6.762,4.36a15.125,15.125,0,0,1-18.328-1.6,15.036,15.036,0,0,0,20.285,3.915" transform="translate(-42.852 -33.918)"/>
                <path id="Path_117586" data-name="Path 117586" d="M408.7,314.173l6.673-4.271,8.63,4.626a18.952,18.952,0,0,1,4.982,3.915,19.128,19.128,0,0,0-6.762-6.228l-8.63-4.715-6.762,4.36a15.125,15.125,0,0,1-18.328-1.6A15.036,15.036,0,0,0,408.7,314.173Z" transform="translate(-42.852 -33.918)" fill="none" stroke="#000" stroke-linejoin="round" stroke-width="0.89"/>
                <path id="Path_117587" data-name="Path 117587" d="M471.524,349.579l-3.2-4.982L446.7,310.61l-1.335-2.135A22.865,22.865,0,0,0,437,300.646l-2.4-1.246a22.778,22.778,0,0,1,3.381,4.093l1.335,2.135,21.709,33.986,3.2,4.982a25,25,0,0,1,3.2,19.484L449.549,435.7c-13.257,6.05-27.581,7.651-39.058,3.2L408,437.837a30.427,30.427,0,0,0,9.787,6.05c11.477,4.448,25.8,2.847,39.058-3.2l17.883-71.621a25,25,0,0,0-3.2-19.484" transform="translate(-45.003 -33.024)"/>
                <path id="Path_117588" data-name="Path 117588" d="M471.524,349.579l-3.2-4.982L446.7,310.61l-1.335-2.135A22.865,22.865,0,0,0,437,300.646l-2.4-1.246a22.778,22.778,0,0,1,3.381,4.093l1.335,2.135,21.709,33.986,3.2,4.982a25,25,0,0,1,3.2,19.484L449.549,435.7c-13.257,6.05-27.581,7.651-39.058,3.2L408,437.837a30.427,30.427,0,0,0,9.787,6.05c11.477,4.448,25.8,2.847,39.058-3.2l17.883-71.621A25,25,0,0,0,471.524,349.579Z" transform="translate(-45.003 -33.024)" fill="none" stroke="#000" stroke-miterlimit="10" stroke-width="0.89"/>
                <path id="Path_117589" data-name="Path 117589" d="M455.327,346.785l-26.6-18.862a17.082,17.082,0,0,0-17.349-1.246l-11.566,5.694a17.082,17.082,0,0,0-9.342,13.345L388.6,361.91" transform="translate(-42.863 -35.835)" fill="#00db96"/>
                <path id="Path_117590" data-name="Path 117590" d="M455.327,346.785l-26.6-18.862a17.082,17.082,0,0,0-17.349-1.246l-11.566,5.694a17.082,17.082,0,0,0-9.342,13.345L388.6,361.91" transform="translate(-42.863 -35.835)" fill="none" stroke="#000" stroke-miterlimit="10" stroke-width="0.89"/>
                <path id="Path_117591" data-name="Path 117591" d="M415.659,344.781a17.26,17.26,0,0,0-12.723,3.381l-5.249,4-3.648,2.758-.267.267a17.26,17.26,0,0,0-4.8,5.605l-1.068,9.253,19.129-19.4a1.957,1.957,0,0,1,3.025-1.335l33.275-.89-26.513-3.559Z" transform="translate(-42.786 -38.013)"/>
                <path id="Path_117592" data-name="Path 117592" d="M415.659,344.781a17.26,17.26,0,0,0-12.723,3.381l-5.249,4-3.648,2.758-.267.267a17.26,17.26,0,0,0-4.8,5.605l-1.068,9.253,19.129-19.4a1.957,1.957,0,0,1,3.025-1.335l33.275-.89-26.513-3.559Z" transform="translate(-42.786 -38.013)" fill="none" stroke="#000" stroke-miterlimit="10" stroke-width="0.89"/>
                <path id="Path_117593" data-name="Path 117593" d="M444.273,348.6,414.735,347h-1.068a17.26,17.26,0,0,0-12.456,4.36l-4.893,4.36-3.47,3.025-.267.267a17.26,17.26,0,0,0-5.605,15.481v.712l3.2,21.264a16.726,16.726,0,0,0,9.876-5.249" transform="translate(-42.663 -38.271)" fill="#00db96"/>
                <path id="Path_117594" data-name="Path 117594" d="M444.273,348.6,414.735,347h-1.068a17.26,17.26,0,0,0-12.456,4.36l-4.893,4.36-3.47,3.025-.267.267a17.26,17.26,0,0,0-5.605,15.481v.712l3.2,21.264a16.726,16.726,0,0,0,9.876-5.249" transform="translate(-42.663 -38.271)" fill="none" stroke="#000" stroke-miterlimit="10" stroke-width="0.89"/>
                <path id="Path_117595" data-name="Path 117595" d="M403.768,375.88l-.712-2.58.356,4.449A16.815,16.815,0,0,1,389.8,395.631l.534,3.826a16.815,16.815,0,0,0,14.057-19.129Z" transform="translate(-42.996 -41.175)"/>
                <path id="Path_117596" data-name="Path 117596" d="M403.768,375.88l-.712-2.58.356,4.449A16.815,16.815,0,0,1,389.8,395.631l.534,3.826a16.815,16.815,0,0,0,14.057-19.129Z" transform="translate(-42.996 -41.175)" fill="none" stroke="#000" stroke-miterlimit="10" stroke-width="0.89"/>
                <path id="Path_117597" data-name="Path 117597" d="M434.66,361.8H416.689a12.278,12.278,0,0,0-7.118,2.313l-8.007,5.694a12.278,12.278,0,0,0-4,15.125l8.274,17.972,2.4-1.068a12.278,12.278,0,0,0,5.961-16.281l-2.135-4.626,3.114-1.69a31.853,31.853,0,0,0,10.321,1.779" transform="translate(-43.727 -39.907)" fill="#00db96"/>
                <path id="Path_117598" data-name="Path 117598" d="M434.66,361.8H416.689a12.278,12.278,0,0,0-7.118,2.313l-8.007,5.694a12.278,12.278,0,0,0-4,15.125l8.274,17.972,2.4-1.068a12.278,12.278,0,0,0,5.961-16.281l-2.135-4.626,3.114-1.69a31.853,31.853,0,0,0,10.321,1.779" transform="translate(-43.727 -39.907)" fill="none" stroke="#000" stroke-miterlimit="10" stroke-width="0.89"/>
                <path id="Path_117599" data-name="Path 117599" d="M426.275,382.937h15.748l-16.993-1.246A31.85,31.85,0,0,1,414.8,379.2l-3.2,1.512,1.779,4.715a12.278,12.278,0,0,1-7.118,15.837l-1.157.445,1.424,3.025,2.4-1.068a12.278,12.278,0,0,0,5.961-16.281l-2.135-4.626,3.114-1.69a31.852,31.852,0,0,0,10.321,1.779" transform="translate(-44.683 -41.826)"/>
                <path id="Path_117600" data-name="Path 117600" d="M426.275,382.937h15.748l-16.993-1.246A31.85,31.85,0,0,1,414.8,379.2l-3.2,1.512,1.779,4.715a12.278,12.278,0,0,1-7.118,15.837l-1.157.445,1.424,3.025,2.4-1.068a12.278,12.278,0,0,0,5.961-16.281l-2.135-4.626,3.114-1.69a31.851,31.851,0,0,0,10.41,1.868Z" transform="translate(-44.683 -41.826)" fill="none" stroke="#000" stroke-miterlimit="10" stroke-width="0.89"/>
              </g>
            </g>
          </g>
        </g>
        <path id="Path_1600" data-name="Path 1600" d="M221.651,0" transform="translate(90.958 28.403)" fill="none" stroke="#000" stroke-width="1"/>
      </g>
    </g>
  </g>
</svg>
