<svg xmlns="http://www.w3.org/2000/svg" xmlns:xlink="http://www.w3.org/1999/xlink" width="415.525" height="295.693" viewBox="0 0 415.525 295.693">
  <defs>
    <clipPath id="clip-path">
      <path id="Path_109807" data-name="Path 109807" d="M429.156,374.662l-5.425,4.387-1.931-5.961-2.473,1.34-.987-1.822-5.416,6.156-1.281-8.835-4.354,2.36-2.587-4.774-37.934,115.6,30.118,9.085Z" transform="translate(-366.767 -367.513)" fill="none"/>
    </clipPath>
  </defs>
  <g id="Group_17502" data-name="Group 17502" transform="translate(-768.5 -483.141)">
    <g id="Group_4361" data-name="Group 4361" transform="translate(769.013 357.277)">
      <rect id="Rectangle_1271" data-name="Rectangle 1271" width="12.637" height="12.637" transform="translate(127.987 127.722)" stroke="#000" stroke-width="1"/>
      <rect id="Rectangle_1272" data-name="Rectangle 1272" width="12.637" height="12.637" transform="translate(140.624 140.359)" stroke="#000" stroke-width="1"/>
      <rect id="Rectangle_1273" data-name="Rectangle 1273" width="12.637" height="12.637" transform="translate(153.261 152.996)" stroke="#000" stroke-width="1"/>
      <rect id="Rectangle_1274" data-name="Rectangle 1274" width="12.637" height="12.637" transform="translate(153.261 127.722)" stroke="#000" stroke-width="1"/>
      <rect id="Rectangle_1275" data-name="Rectangle 1275" width="12.637" height="12.637" transform="translate(127.987 152.996)" stroke="#000" stroke-width="1"/>
      <rect id="Rectangle_1276" data-name="Rectangle 1276" width="12.637" height="12.637" transform="translate(216.446 127.722)" stroke="#000" stroke-width="1"/>
      <rect id="Rectangle_1277" data-name="Rectangle 1277" width="12.637" height="12.637" transform="translate(229.083 140.359)" stroke="#000" stroke-width="1"/>
      <rect id="Rectangle_1278" data-name="Rectangle 1278" width="12.637" height="12.637" transform="translate(241.72 152.996)" stroke="#000" stroke-width="1"/>
      <rect id="Rectangle_1279" data-name="Rectangle 1279" width="12.637" height="12.637" transform="translate(241.72 127.722)" stroke="#000" stroke-width="1"/>
      <rect id="Rectangle_1280" data-name="Rectangle 1280" width="12.637" height="12.637" transform="translate(216.446 152.996)" stroke="#000" stroke-width="1"/>
      <rect id="Rectangle_1281" data-name="Rectangle 1281" width="12.637" height="12.637" transform="translate(178.535 190.907)" stroke="#000" stroke-width="1"/>
      <rect id="Rectangle_1282" data-name="Rectangle 1282" width="11.057" height="12.637" transform="translate(191.172 190.907)" stroke="#000" stroke-width="1"/>
      <rect id="Rectangle_1283" data-name="Rectangle 1283" width="12.637" height="12.637" transform="translate(165.898 178.27)" stroke="#000" stroke-width="1"/>
      <rect id="Rectangle_1284" data-name="Rectangle 1284" width="14.217" height="12.637" transform="translate(202.229 178.27)" stroke="#000" stroke-width="1"/>
      <rect id="Rectangle_1285" data-name="Rectangle 1285" width="12.637" height="12.637" transform="translate(178.535 216.181)" stroke="#000" stroke-width="1"/>
      <rect id="Rectangle_1286" data-name="Rectangle 1286" width="11.057" height="12.637" transform="translate(191.172 216.181)" stroke="#000" stroke-width="1"/>
      <rect id="Rectangle_1287" data-name="Rectangle 1287" width="14.217" height="12.637" transform="translate(202.229 216.181)" stroke="#000" stroke-width="1"/>
      <rect id="Rectangle_1288" data-name="Rectangle 1288" width="12.637" height="12.637" transform="translate(216.446 228.818)" stroke="#000" stroke-width="1"/>
      <rect id="Rectangle_1289" data-name="Rectangle 1289" width="12.637" height="12.637" transform="translate(153.261 228.818)" stroke="#000" stroke-width="1"/>
      <rect id="Rectangle_1290" data-name="Rectangle 1290" width="12.637" height="12.637" transform="translate(165.898 216.181)" stroke="#000" stroke-width="1"/>
    </g>
    <g id="Group_17501" data-name="Group 17501" transform="translate(4885 -5065)">
      <g id="Group_17500" data-name="Group 17500" transform="translate(-4283.513 5232.668)">
        <g id="Group_17491" data-name="Group 17491" transform="translate(447.244 388.32)">
          <path id="Path_109798" data-name="Path 109798" d="M429.156,374.662l-5.425,4.387-1.931-5.961-2.473,1.34-.987-1.822-5.416,6.156-1.281-8.835-4.354,2.36-2.587-4.774-37.934,115.6,30.118,9.085Z" transform="translate(-366.767 -367.513)" fill="#8e0bfa" stroke="#000" stroke-miterlimit="10" stroke-width="1"/>
        </g>
        <path id="Path_109799" data-name="Path 109799" d="M482.481,469.276l-53.1-98.943-1.717-3.2-.73-.216-2.61-.776-.769,2.59-.319,1.073-.7-.525-4.814-3.6.382,5.974.021.338-.418-.125-1.113-.33-.329,1.1-.291.976-.782-.4-3.522-1.8-.413,3.911-.052.48,1.818,3.388,53.06,98.876a9.3,9.3,0,0,0,16.4-8.8Z" transform="translate(98.425 20.067)" fill="#8e0bfa" stroke="#000" stroke-miterlimit="10" stroke-width="1"/>
        <g id="Group_17492" data-name="Group 17492" transform="translate(516.148 385.749)">
          <path id="Path_109800" data-name="Path 109800" d="M416.056,365.837l-.208-.155.045.7Z" transform="translate(-415.848 -365.682)" stroke="#000" stroke-miterlimit="10" stroke-width="1"/>
          <path id="Path_109801" data-name="Path 109801" d="M478.968,469.145l-53.1-98.943-1.717-3.2-.73-.216-2.61-.776-.769,2.589-.139.469,52.977,98.723a9.285,9.285,0,0,1-7.063,13.625,9.3,9.3,0,0,0,13.147-12.269Z" transform="translate(-414.21 -365.55)" stroke="#000" stroke-miterlimit="10" stroke-width="1"/>
        </g>
        <path id="Path_109802" data-name="Path 109802" d="M178.429,316.4h0a9.307,9.307,0,0,0-6.219,11.593l33.622,111.5,17.815-5.371-33.623-111.5A9.306,9.306,0,0,0,178.429,316.4Z" transform="translate(1.736)" fill="#8e0bfa" stroke="#000" stroke-miterlimit="10" stroke-width="1"/>
        <path id="Path_109803" data-name="Path 109803" d="M187.106,322.6a9.3,9.3,0,0,0-8.072-6.574l17.339,57.5a10.068,10.068,0,0,1-6.733,12.548l-2.592.782,15.865,52.611,17.815-5.371Z" transform="translate(4.653 0.013)" stroke="#000" stroke-miterlimit="10" stroke-width="1"/>
        <path id="Path_109804" data-name="Path 109804" d="M207.559,364.716l-24.292,7.325,33.4,121.285,30.119-9.085Z" transform="translate(6.363 19.677)" fill="#8e0bfa" stroke="#000" stroke-miterlimit="10" stroke-width="1"/>
        <path id="Path_109805" data-name="Path 109805" d="M202.608,364.716l-7.084,2.135,30.664,93.44a15.142,15.142,0,0,1-10.014,19.218l-7.632,2.3,3.17,11.513,30.119-9.085Z" transform="translate(11.313 19.677)" stroke="#000" stroke-miterlimit="10" stroke-width="1"/>
        <g id="Group_17494" data-name="Group 17494" transform="translate(447.244 388.32)">
          <g id="Group_17493" data-name="Group 17493" clip-path="url(#clip-path)">
            <path id="Path_109806" data-name="Path 109806" d="M431.457,366.885l-7.074-2.169L397.825,459.4a15.143,15.143,0,0,1-19.018,10.387l-7.622-2.338-3.778,11.329,30.077,9.224Z" transform="translate(-366.509 -368.643)" stroke="#000" stroke-miterlimit="10" stroke-width="1"/>
          </g>
        </g>
        <rect id="Rectangle_137077" data-name="Rectangle 137077" width="365.362" height="94.281" rx="32" transform="translate(167.513 498.211)" fill="#8e0bfa" stroke="#000" stroke-miterlimit="10" stroke-width="1"/>
        <path id="Path_109808" data-name="Path 109808" d="M193.631,478.069h314.5c10.636,0,18.87,3.706,24.741,9.434V477.052a31.262,31.262,0,0,0-31.26-31.263H198.773a31.261,31.261,0,0,0-31.26,31.263v11.92C173.447,482.416,182.139,478.069,193.631,478.069Z" transform="translate(0 52.421)" fill="#fdfb76" stroke="#000" stroke-miterlimit="10" stroke-width="1"/>
        <rect id="Rectangle_137078" data-name="Rectangle 137078" width="11.806" height="24.602" transform="translate(198.773 498.211)" fill="#00db96" stroke="#000" stroke-miterlimit="10" stroke-width="1"/>
        <rect id="Rectangle_137079" data-name="Rectangle 137079" width="11.806" height="24.602" transform="translate(222.002 498.211)" fill="#00db96" stroke="#000" stroke-miterlimit="10" stroke-width="1"/>
        <rect id="Rectangle_137080" data-name="Rectangle 137080" width="11.806" height="24.602" transform="translate(245.226 498.211)" fill="#00db96" stroke="#000" stroke-miterlimit="10" stroke-width="1"/>
        <rect id="Rectangle_137081" data-name="Rectangle 137081" width="11.806" height="24.602" transform="translate(268.455 498.211)" fill="#00db96" stroke="#000" stroke-miterlimit="10" stroke-width="1"/>
        <rect id="Rectangle_137082" data-name="Rectangle 137082" width="11.806" height="24.602" transform="translate(291.683 498.211)" fill="#00db96" stroke="#000" stroke-miterlimit="10" stroke-width="1"/>
        <path id="Path_109809" data-name="Path 109809" d="M429.016,488.881a33.062,33.062,0,1,1-33.062-33.062A33.063,33.063,0,0,1,429.016,488.881Z" transform="translate(78.912 56.472)" fill="#00db96" stroke="#000" stroke-miterlimit="10" stroke-width="1"/>
        <rect id="Rectangle_137083" data-name="Rectangle 137083" width="56.886" height="21.398" rx="5.262" transform="translate(375.913 557.016)" fill="#ff3c1d" stroke="#000" stroke-miterlimit="10" stroke-width="1"/>
        <path id="Rectangle_137084" data-name="Rectangle 137084" d="M5.262,0H51.629a5.262,5.262,0,0,1,5.262,5.262V16.136A5.262,5.262,0,0,1,51.629,21.4H5.265A5.265,5.265,0,0,1,0,16.133V5.262A5.262,5.262,0,0,1,5.262,0Z" transform="translate(307.939 557.016)" fill="#ff3c1d" stroke="#000" stroke-miterlimit="10" stroke-width="1"/>
        <path id="Path_109810" data-name="Path 109810" d="M319.375,487.97a6.988,6.988,0,0,1,.285,1.878v7.278a7.06,7.06,0,0,1-7.06,7.06h-37.85a7.065,7.065,0,0,1-7.064-7.066v-3.614a7.367,7.367,0,0,0-.146,1.439v6.624a7.392,7.392,0,0,0,7.393,7.387h42.111a7.387,7.387,0,0,0,7.387-7.387v-6.624A7.364,7.364,0,0,0,319.375,487.97Z" transform="translate(40.399 69.458)" stroke="#000" stroke-miterlimit="10" stroke-width="1"/>
        <path id="Path_109811" data-name="Path 109811" d="M367.792,487.97a6.988,6.988,0,0,1,.285,1.878v7.278a7.061,7.061,0,0,1-7.062,7.06H323.166a7.065,7.065,0,0,1-7.066-7.066v-3.614a7.477,7.477,0,0,0-.145,1.439v6.624a7.391,7.391,0,0,0,7.391,7.387H365.46a7.387,7.387,0,0,0,7.387-7.387v-6.624A7.364,7.364,0,0,0,367.792,487.97Z" transform="translate(59.954 69.458)" stroke="#000" stroke-miterlimit="10" stroke-width="1"/>
        <g id="Group_17495" data-name="Group 17495" transform="translate(207.056 592.491)">
          <path id="Path_109812" data-name="Path 109812" d="M223.6,531.121h-9.744a18.172,18.172,0,0,1-18.173-18.175h46.088A18.173,18.173,0,0,1,223.6,531.121Z" transform="translate(-195.68 -512.946)" fill="#8e0bfa" stroke="#000" stroke-miterlimit="10" stroke-width="1"/>
          <path id="Path_109813" data-name="Path 109813" d="M394.68,531.121h-9.744a18.172,18.172,0,0,1-18.169-18.175h46.088A18.174,18.174,0,0,1,394.68,531.121Z" transform="translate(-126.58 -512.946)" fill="#8e0bfa" stroke="#000" stroke-miterlimit="10" stroke-width="1"/>
          <path id="Path_109814" data-name="Path 109814" d="M407.829,512.946c-1.689,8.042-8.168,14.039-15.926,14.039h-8.774c-7.754,0-14.233-6-15.922-14.039h-.441a18.172,18.172,0,0,0,18.169,18.175h9.744a18.174,18.174,0,0,0,18.175-18.175Z" transform="translate(-126.58 -512.946)" stroke="#000" stroke-miterlimit="10" stroke-width="1"/>
          <path id="Path_109815" data-name="Path 109815" d="M236.742,512.946c-1.687,8.042-8.168,14.039-15.926,14.039h-8.774c-7.754,0-14.233-6-15.92-14.039h-.442a18.172,18.172,0,0,0,18.169,18.175h9.744a18.174,18.174,0,0,0,18.175-18.175Z" transform="translate(-195.68 -512.946)" stroke="#000" stroke-miterlimit="10" stroke-width="1"/>
        </g>
        <path id="Path_109816" data-name="Path 109816" d="M195.686,509.075h0a5.9,5.9,0,0,1-5.906-5.9V493.58a5.9,5.9,0,0,1,5.906-5.9h0a5.9,5.9,0,0,1,5.9,5.9v9.591A5.9,5.9,0,0,1,195.686,509.075Z" transform="translate(8.993 69.339)" fill="#ff0d5b" stroke="#000" stroke-miterlimit="10" stroke-width="1"/>
        <path id="Path_109817" data-name="Path 109817" d="M210.432,509.075h0a5.9,5.9,0,0,1-5.9-5.9V493.58a5.9,5.9,0,0,1,5.9-5.9h0a5.9,5.9,0,0,1,5.9,5.9v9.591A5.9,5.9,0,0,1,210.432,509.075Z" transform="translate(14.951 69.339)" fill="#ff0d5b" stroke="#000" stroke-miterlimit="10" stroke-width="1"/>
        <path id="Path_109818" data-name="Path 109818" d="M225.18,509.075h0a5.9,5.9,0,0,1-5.9-5.9V493.58a5.9,5.9,0,0,1,5.9-5.9h0a5.9,5.9,0,0,1,5.906,5.9v9.591A5.9,5.9,0,0,1,225.18,509.075Z" transform="translate(20.908 69.339)" fill="#ff0d5b" stroke="#000" stroke-miterlimit="10" stroke-width="1"/>
        <g id="Group_17499" data-name="Group 17499" transform="translate(452.696 527.987)">
          <path id="Path_109819" data-name="Path 109819" d="M393.27,490.846a5.3,5.3,0,1,1-5.3-5.3A5.3,5.3,0,0,1,393.27,490.846Z" transform="translate(-365.799 -459.509)"/>
          <g id="Group_17496" data-name="Group 17496" transform="translate(13.007 18.501)">
            <path id="Path_109820" data-name="Path 109820" d="M394.679,487.414a8.108,8.108,0,0,0-11.2,0l-3.563-3.563a13.266,13.266,0,0,1,18.326,0Z" transform="translate(-379.916 -480.178)"/>
          </g>
          <g id="Group_17497" data-name="Group 17497" transform="translate(6.688 9.447)">
            <path id="Path_109821" data-name="Path 109821" d="M378.978,483.7l-3.563-3.563a21.89,21.89,0,0,1,30.96,0l-3.563,3.563A17.251,17.251,0,0,0,378.978,483.7Z" transform="translate(-375.415 -473.728)"/>
          </g>
          <g id="Group_17498" data-name="Group 17498">
            <path id="Path_109822" data-name="Path 109822" d="M411.424,479.729a26.341,26.341,0,0,0-37.21,0l-3.563-3.563a31.387,31.387,0,0,1,44.336,0Z" transform="translate(-370.651 -466.999)"/>
          </g>
        </g>
        <path id="Path_109823" data-name="Path 109823" d="M518.638,449.385a30.668,30.668,0,0,1,3.762,14.762V496.81a30.808,30.808,0,0,1-30.81,30.808H198.321a30.808,30.808,0,0,1-30.808-30.808v10.547a31.26,31.26,0,0,0,31.26,31.26H501.615a31.261,31.261,0,0,0,31.26-31.26V475.6A31.232,31.232,0,0,0,518.638,449.385Z" transform="translate(0 53.874)" stroke="#000" stroke-miterlimit="10" stroke-width="1"/>
        <path id="Path_109824" data-name="Path 109824" d="M210.032,453.476H191.206a13.949,13.949,0,0,0-10.966,5.314" transform="translate(5.14 55.526)" fill="none" stroke="#fcf7eb" stroke-linecap="round" stroke-miterlimit="10" stroke-width="10"/>
        <ellipse id="Ellipse_939" data-name="Ellipse 939" cx="4.077" cy="3.45" rx="4.077" ry="3.45" transform="translate(175.561 321.637) rotate(-21.813)" fill="#fcf7eb"/>
      </g>
    </g>
  </g>
</svg>
