<svg id="Layer_1" data-name="Layer 1" xmlns="http://www.w3.org/2000/svg" viewBox="0 0 99.21 99.21"><defs><style>.cls-1{fill:#fcf7eb;}.cls-1,.cls-2,.cls-3,.cls-4{stroke:#000;}.cls-1,.cls-3,.cls-4{stroke-miterlimit:10;}.cls-2,.cls-5{stroke-linejoin:round;}.cls-3{fill:#fdfb76;}.cls-5{fill:none;stroke:#fcf7eb;stroke-linecap:round;stroke-width:5px;}</style></defs><path class="cls-1" d="M45.42,49.81l-6-.54a19.29,19.29,0,0,0,5.39-9.18L9.5,26.05a19.19,19.19,0,0,0,1.26,20.6l-2.49-.23a18.82,18.82,0,1,0,37.17,4.2C45.44,50.35,45.43,50.08,45.42,49.81Z"/><path class="cls-1" d="M88.46,46.65a19.16,19.16,0,0,0,1.25-20.6l-35.35,14a19.19,19.19,0,0,0,5.38,9.18l-6,.54c0,.27,0,.54,0,.81a18.82,18.82,0,1,0,37.17-4.2Z"/><path d="M72.14,65.27A18.82,18.82,0,0,1,53.77,50.49v.13a18.82,18.82,0,1,0,37.64,0A19.36,19.36,0,0,0,91,46.49,18.82,18.82,0,0,1,72.14,65.27Z"/><path class="cls-2" d="M41,38.54a19.24,19.24,0,0,1-4.75,7.19l5.84.53a19.12,19.12,0,0,0,2.81-6.17Z"/><path class="cls-2" d="M45.42,49.81,42,49.5a18.79,18.79,0,0,1-30.7,12,18.81,18.81,0,0,0,34.14-10.9C45.44,50.35,45.43,50.08,45.42,49.81Z"/><polygon class="cls-3" points="49.6 11.96 63.22 26.02 82.2 30.78 76.84 49.61 82.2 68.43 63.22 73.2 49.6 87.25 35.98 73.2 17 68.43 22.36 49.61 17 30.78 35.98 26.02 49.6 11.96"/><polygon class="cls-4" points="82.2 30.78 78.21 29.78 73.57 46.07 78.94 64.89 59.95 69.66 46.33 83.71 32.72 69.66 17.72 65.89 17 68.43 35.98 73.2 49.6 87.25 63.22 73.2 82.2 68.43 76.84 49.61 82.2 30.78"/><circle class="cls-4" cx="49.6" cy="49.51" r="20.92"/><path class="cls-3" d="M67.79,48.57a18.2,18.2,0,0,0-15-17c-.3-.06-.6-.1-.9-.14l-.92-.1c-.46,0-.93-.05-1.4-.05A18.22,18.22,0,0,0,31.38,49.51c0,5.47,3.56,9.72,8.88,12v2.13A2.4,2.4,0,0,0,42.67,66H56.3a2.4,2.4,0,0,0,2.41-2.4v-2c5.44-2.23,9.11-6.52,9.11-12.07C67.82,49.2,67.81,48.88,67.79,48.57Z"/><circle cx="41.71" cy="52.5" r="5.28"/><rect x="43.44" y="45.43" width="5.81" height="2.41" rx="1.14" transform="translate(46.13 112.38) rotate(-135)"/><polygon class="cls-1" points="49.6 54.58 47.13 58.86 52.07 58.86 49.6 54.58"/><circle cx="57.5" cy="52.5" r="5.28"/><rect x="49.96" y="45.43" width="5.81" height="2.41" rx="1.14" transform="translate(-17.49 51.04) rotate(-45)"/><polygon points="49.61 54.58 52.09 58.86 47.14 58.86 49.61 54.58"/><polyline class="cls-5" points="42.84 25.11 49.6 18.13 52.52 21.14"/><line class="cls-5" x1="22.34" y1="33.87" x2="30.87" y2="31.73"/><path d="M81.59,47.7l6.17-.48a18.79,18.79,0,0,0,4.37-12,15.84,15.84,0,0,0-2.8-8.86,14.12,14.12,0,0,1,1.17,5.42A18.78,18.78,0,0,1,81.59,47.7Z"/><path class="cls-5" d="M49.6,36.09a13.11,13.11,0,0,0-8.66,3.24"/></svg>