<svg id="Layer_1" data-name="Layer 1" xmlns="http://www.w3.org/2000/svg" viewBox="0 0 99.21 99.21"><defs><style>.cls-1{fill:#ff3c1d;}.cls-1,.cls-2,.cls-3,.cls-4,.cls-5{stroke:#000;stroke-miterlimit:10;}.cls-3{fill:#8e0bfa;}.cls-4{fill:#00db96;}.cls-5{fill:#fdfb76;}</style></defs><path class="cls-1" d="M83.3,90.86H78.24v-74a.94.94,0,0,0-.94-.94H21.75a.94.94,0,0,0-.94.94V90.86h-5v-74a6,6,0,0,1,6-6H77.3a6,6,0,0,1,6,6Z"/><path class="cls-2" d="M77.3,10.81H74.83a6,6,0,0,1,6,6V90.86H83.3v-74A6,6,0,0,0,77.3,10.81Z"/><path class="cls-2" d="M18.34,16.81V90.86h2.47v-74a.94.94,0,0,1,.94-.94H19.27A.94.94,0,0,0,18.34,16.81Z"/><path class="cls-2" d="M61.49,66.93a1.26,1.26,0,0,1-1.27-1.26V13.34a1.27,1.27,0,1,1,2.53,0V65.67A1.25,1.25,0,0,1,61.49,66.93Z"/><path class="cls-2" d="M37.72,66.93a1.26,1.26,0,0,1-1.26-1.26V13.34a1.27,1.27,0,1,1,2.53,0V65.67A1.26,1.26,0,0,1,37.72,66.93Z"/><path class="cls-2" d="M61.49,74.51a1.27,1.27,0,0,1-1.27-1.27v-4.3a1.27,1.27,0,1,1,2.53,0v4.3A1.26,1.26,0,0,1,61.49,74.51Z"/><path class="cls-2" d="M37.72,74.51a1.27,1.27,0,0,1-1.26-1.27v-4.3a1.27,1.27,0,1,1,2.53,0v4.3A1.27,1.27,0,0,1,37.72,74.51Z"/><path class="cls-3" d="M39.68,19.59H35.76a1.28,1.28,0,0,1-1.28-1.29V8.38a1.28,1.28,0,0,1,1.28-1.29h3.92A1.28,1.28,0,0,1,41,8.38V18.3A1.29,1.29,0,0,1,39.68,19.59Z"/><path class="cls-2" d="M39.68,7.09H37a1.29,1.29,0,0,1,1.29,1.29V18.3A1.29,1.29,0,0,1,37,19.59h2.7A1.29,1.29,0,0,0,41,18.3V8.38A1.28,1.28,0,0,0,39.68,7.09Z"/><path class="cls-3" d="M63.45,19.59H59.53a1.29,1.29,0,0,1-1.29-1.29V8.38a1.29,1.29,0,0,1,1.29-1.29h3.92a1.29,1.29,0,0,1,1.29,1.29V18.3A1.29,1.29,0,0,1,63.45,19.59Z"/><path class="cls-2" d="M63.45,7.09H60.74A1.28,1.28,0,0,1,62,8.38V18.3a1.29,1.29,0,0,1-1.29,1.29h2.71a1.29,1.29,0,0,0,1.29-1.29V8.38A1.29,1.29,0,0,0,63.45,7.09Z"/><path class="cls-4" d="M66,71H33.2a1.07,1.07,0,0,1-1.07-1.08V67a3.55,3.55,0,0,1,3.54-3.55H63.54A3.55,3.55,0,0,1,67.08,67v2.89A1.07,1.07,0,0,1,66,71Z"/><path class="cls-2" d="M63.54,63.49H59.23A3.55,3.55,0,0,1,62.77,67v2.89A1.07,1.07,0,0,1,61.7,71H66a1.07,1.07,0,0,0,1.07-1.08V67a3.55,3.55,0,0,0-3.54-3.55Z"/><path class="cls-5" d="M91.5,92.13H7.72a1.27,1.27,0,1,1,0-2.53H91.5a1.27,1.27,0,0,1,0,2.53Z"/></svg>