<svg id="Layer_1" data-name="Layer 1" xmlns="http://www.w3.org/2000/svg" viewBox="0 0 99.21 99.21"><defs><style>.cls-1{fill:#00db96;}.cls-1,.cls-2,.cls-3,.cls-4{stroke:#000;stroke-miterlimit:10;}.cls-3{fill:#ff0d5b;}.cls-4{fill:#8e0bfa;}</style></defs><path class="cls-1" d="M49.61,65.31l-2,2.82L34.85,58.92,71.91,7.09A15.72,15.72,0,0,1,75.47,29Z"/><path class="cls-2" d="M71.91,7.09,69,11.17A15.75,15.75,0,0,1,68.63,29L43,64.79l4.62,3.34,2-2.82L75.47,29A15.72,15.72,0,0,0,71.91,7.09Z"/><path class="cls-1" d="M50.92,67.13,63.67,58,27.08,7.09A15.72,15.72,0,0,0,23.51,29Z"/><path class="cls-2" d="M27.08,7.09a15.77,15.77,0,0,0-3.89,4l36.5,50.71-8.35,5.9,12.84-9.07Z"/><path class="cls-3" d="M89.23,67.82a15.35,15.35,0,0,0-21.1-3.69L63.67,58,50.92,67.13l12,16.59,1.46,2A15.34,15.34,0,1,0,89.23,67.82Zm-7.39,16a8.59,8.59,0,1,1,2-12,8.59,8.59,0,0,1-2,12Z"/><path class="cls-2" d="M89.23,67.82a15.35,15.35,0,0,0-15.87-6A15.3,15.3,0,0,1,85.13,74.66a8.6,8.6,0,0,1,0,4.42A15.3,15.3,0,0,1,73.38,91.73,15.33,15.33,0,0,0,89.23,67.82Z"/><path class="cls-3" d="M35.54,58l-4.46,6.18a15.33,15.33,0,1,0,3.79,21.62l1.46-2,12-16.59Zm-6.17,23.9a8.59,8.59,0,1,1-1.94-12,8.59,8.59,0,0,1,1.94,12Z"/><path class="cls-2" d="M43.67,63.8,31.83,80.21l-1.46,2a15.35,15.35,0,0,1-19.46,4.68,16.12,16.12,0,0,0,2.55,2.31,15.34,15.34,0,0,0,21.41-3.48l1.46-2,12-16.59Z"/><circle class="cls-4" cx="49.61" cy="52.16" r="2.62"/></svg>