<svg id="Layer_1" data-name="Layer 1" xmlns="http://www.w3.org/2000/svg" viewBox="0 0 99.21 99.21"><defs><style>.cls-1{fill:#fdfb76;}.cls-1,.cls-2,.cls-3,.cls-4{stroke:#000;stroke-linejoin:round;}.cls-3{fill:#fcf7eb;}.cls-4{fill:#00db96;}</style></defs><polygon class="cls-1" points="75.63 69.23 65.3 75.23 44.24 63.07 54.57 57.07 75.63 69.23"/><polygon class="cls-2" points="75.63 69.23 75.6 81.18 65.27 87.18 65.3 75.23 75.63 69.23"/><polygon class="cls-2" points="65.3 75.23 65.27 87.18 44.21 75.03 44.24 63.07 65.3 75.23"/><polygon class="cls-3" points="65.47 26.63 55.14 32.63 34.07 20.47 44.4 14.47 65.47 26.63"/><polygon class="cls-2" points="65.47 26.63 65.33 75.26 55 81.27 55.14 32.63 65.47 26.63"/><polygon class="cls-4" points="55.14 32.63 55 81.27 33.93 69.11 34.07 20.47 55.14 32.63"/><polygon class="cls-1" points="55.01 81.26 44.67 87.26 23.62 75.1 33.95 69.1 55.01 81.26"/><polygon class="cls-2" points="55.01 81.26 54.97 93.21 44.64 99.21 44.67 87.26 55.01 81.26"/><polygon class="cls-4" points="44.67 87.26 44.64 99.21 23.58 87.06 23.62 75.1 44.67 87.26"/><polygon class="cls-1" points="69.7 12.16 48.78 24.32 27.73 12.16 48.65 0 69.7 12.16"/><polygon class="cls-2" points="69.7 12.16 69.64 36.36 48.72 48.52 48.78 24.32 69.7 12.16"/><polygon class="cls-4" points="48.78 24.32 48.72 48.52 27.66 36.36 27.73 12.16 48.78 24.32"/><path d="M32.33,19.54v4.72l2.05,1.18,2,1.18V21.9l-2-1.18-2.05-1.18Zm4.09,7.08V29l-2-1.18v7.07l2,1.18V33.69l2,1.18,2,1.18v2.36l2,1.18V32.51l-2-1.18V29l-2-1.18ZM40.51,29l2,1.18,2,1.17V26.62l-2-1.18-2-1.18V29Z"/></svg>