<svg id="Layer_1" data-name="Layer 1" xmlns="http://www.w3.org/2000/svg" viewBox="0 0 99.21 99.21"><defs><style>.cls-1{fill:#00db96;}.cls-1,.cls-3{stroke:#000;}.cls-1,.cls-2{stroke-miterlimit:10;}.cls-2{fill:none;stroke:#fcf7eb;stroke-linecap:round;stroke-width:3px;}.cls-3{stroke-linejoin:round;}</style></defs><circle class="cls-1" cx="52.96" cy="89.54" r="2.51"/><ellipse class="cls-1" cx="80.5" cy="13" rx="4.26" ry="4.77" transform="translate(14.39 60.73) rotate(-45)"/><circle class="cls-1" cx="68.76" cy="10" r="2.99"/><ellipse class="cls-1" cx="22.92" cy="34.09" rx="2.39" ry="2.99" transform="translate(-17.4 26.19) rotate(-45)"/><ellipse class="cls-1" cx="12" cy="57.49" rx="3.82" ry="4.65" transform="translate(-25.45 12.25) rotate(-27.83)"/><ellipse class="cls-1" cx="87.73" cy="74.39" rx="4.16" ry="3.43" transform="translate(-9.24 136.25) rotate(-72.83)"/><path class="cls-1" d="M28.66,46.73c2.93,0,4,1.53,7.11,1.53a4.77,4.77,0,0,0,4.76-4.77,4.69,4.69,0,0,0-.78-2.61h0C37.9,38,32.89,35.23,31,31.78h0A3.43,3.43,0,0,1,30.52,30a3.52,3.52,0,0,1,6.77-1.37h0C39.22,32.82,39,34.05,43,37h0a2.7,2.7,0,0,0,2.63.6,2.84,2.84,0,0,0,1.59-2.49h0a1.64,1.64,0,0,0,0-.22c.55-6-2.58-7.52-4.21-13.72A4.78,4.78,0,0,1,52,18h0l.12.37c3,9.46,0,12.39.25,16.57h0a5.57,5.57,0,0,0,1.75,3.69c1.86,1.86,4.43,2.31,5.74,1a1.86,1.86,0,0,0,.33-.41c2.45-3.41.9-10.5,5.67-15.68a6,6,0,0,1,.71-.72h0a5.81,5.81,0,0,1,9.56,4.44,5.73,5.73,0,0,1-.64,2.65h0a3.83,3.83,0,0,1-.25.44c-2,3.45-5.75,6.34-7.65,9l-.19.28h0c-1.48,2.26-1.53,5,.07,6.77a4.75,4.75,0,0,0,3.62,1.49h.29c7.92-.27,7.61-4.35,13.37-4.35a5.82,5.82,0,1,1,0,11.63c-2.67,0-4.63-1-6.82-1h0a6.44,6.44,0,0,0-1.66.18c-2.44.57-4.1,2.38-3.7,4a2.16,2.16,0,0,0,.6,1.07h0a2.34,2.34,0,0,0,.45.37c1.32,1,4.47,3.16,4.87,3.6h0a3.52,3.52,0,1,1-5.16,4.75h0a18.65,18.65,0,0,1-1.28-2.67,2.53,2.53,0,0,0-.58-.79l0,0h0a2.37,2.37,0,0,0-3.95,1.78,2.32,2.32,0,0,0,.1.7h0a2,2,0,0,0,.14.34c1.64,3.87,7,9.08,7.57,14.71h0a7.36,7.36,0,0,1,.1,1.25,7.72,7.72,0,0,1-15.41.6h0v-.74c0-5,.44-9.93-.1-13h0a8.47,8.47,0,0,0-.47-1.72c-1.28-3.31-4.31-5.23-6.76-4.28-3.09,1.1-4.62,6.27-5.35,8.72h0a5,5,0,1,1-8.84-4.36h0c1.47-2.19,5.39-4.87,6.71-7.32h0c1.3-2.13,1.39-4.55,0-6s-3.53-1.6-5.66-.67h0C35.27,56.32,34,61,28.66,60.92a7.1,7.1,0,1,1,0-14.19Z"/><path class="cls-2" d="M72.24,24.5a3.73,3.73,0,0,0-3.8,0"/><path class="cls-2" d="M47,17.06a3.41,3.41,0,0,0-2,1.83"/><path class="cls-2" d="M87.33,47.36a4.32,4.32,0,0,0-3-1.17"/><path class="cls-2" d="M35.53,30.75a1.82,1.82,0,0,0-1.83-1.83"/><path class="cls-2" d="M43,69.05a3,3,0,0,0-2.12.88"/><path class="cls-2" d="M62.68,82.13a5.46,5.46,0,0,0,5.95,4.93"/><path class="cls-2" d="M27.57,49.52a5.57,5.57,0,0,0-3.13,3"/><path class="cls-3" d="M52.21,33.23h0C52,30.17,53.62,27.78,53.28,23c.84,5.59-.85,8.19-.89,11.32A4.28,4.28,0,0,1,52.21,33.23Z"/><path class="cls-3" d="M75.52,29.87a3.83,3.83,0,0,1-.25.44c-2,3.45-5.75,6.34-7.65,9l-.19.28h0A5.75,5.75,0,0,0,67,45.68h0c-1.43-1.89-1.23-5.5.25-7.76h0l.2-.28c1.89-2.66,5.61-5.55,7.65-9,.09-.14.17-.29.25-.44h0A5.78,5.78,0,0,0,76,25.73a5.85,5.85,0,0,1-.45,4.14Z"/><path class="cls-3" d="M40.53,43.49a4.69,4.69,0,0,0-.78-2.61h0C37.9,38,32.89,35.23,31,31.78h0a3.51,3.51,0,0,1-.45-2.23,3.47,3.47,0,0,0,.26.55h0c1.89,3.46,6.9,6.18,8.76,9.1h0A7,7,0,0,1,40.53,43.49Z"/><path class="cls-3" d="M47.1,31.4C46.44,28,44.28,26,43,21.17a4.81,4.81,0,0,1-.25-1.53c0-.11,0-.21,0-.32a1.09,1.09,0,0,1,0,.17C44.29,25,46.93,26.83,47.1,31.4Z"/><path class="cls-3" d="M78,54.15a6.44,6.44,0,0,0-1.66.18c-2.44.57-4.1,2.38-3.7,4a2.1,2.1,0,0,0,.36.79h0a3.59,3.59,0,0,1-.61-1.07c-.4-1.66,1.33-4.85,3.77-5.43a6.52,6.52,0,0,1,1.67-.18h0c2.18,0,4.14,1,6.82,1a5.81,5.81,0,0,0,5.8-5.62,5.57,5.57,0,0,1,.2,1.48,5.83,5.83,0,0,1-5.82,5.82c-2.67,0-4.63-1-6.82-1Z"/><path class="cls-3" d="M73.37,68.17h0a18.65,18.65,0,0,1-1.28-2.67,2.53,2.53,0,0,0-.58-.79l0,0h0a2.37,2.37,0,0,0-3.95,1.78,2.32,2.32,0,0,0,.1.7l-.55-1.32a2.21,2.21,0,0,1-.1-.69,3.06,3.06,0,0,1,2.74-2.75,2.38,2.38,0,0,1,1.58.6h0l0,0a2.35,2.35,0,0,1,.57.79,17.6,17.6,0,0,0,1.29,2.67h0a3.52,3.52,0,0,0,6.28-1.66v0a3.52,3.52,0,0,1-6.1,3.36Z"/><path class="cls-3" d="M42.27,75.31c2.12.38,4.29-.22,5-2a5,5,0,0,1-9.68-1.68c0-.1,0-.2,0-.3A5.82,5.82,0,0,0,42.27,75.31Z"/><path class="cls-3" d="M28.47,59.24c5.33.12,6.61-4.6,10.9-6.22h0c2.13-.93,4.37-.74,5.67.67a5.93,5.93,0,0,1,.72,6.61h0a4.62,4.62,0,0,0-.54-4.92c-1.29-1.41-3.53-1.6-5.66-.67h0C35.27,56.32,34,61,28.66,60.92a7.1,7.1,0,0,1-7.1-7.1v0A7.11,7.11,0,0,0,28.47,59.24Z"/><path class="cls-3" d="M52.49,62.69c2.46-.95,5.49,1,6.77,4.28a8.61,8.61,0,0,1,.46,1.72h0a15.12,15.12,0,0,1,.21,1.8s0-.08,0-.12h0a8.47,8.47,0,0,0-.47-1.72c-1.28-3.31-4.31-5.23-6.76-4.28-3.09,1.1-4.62,6.27-5.35,8.72C47.92,69.5,49.41,63.8,52.49,62.69Z"/><path class="cls-3" d="M60,83.48A7.72,7.72,0,0,0,75.26,81.8v-.22c0,.22.07.43.09.65h0a7.36,7.36,0,0,1,.1,1.25,7.72,7.72,0,0,1-15.41.6h0v-.61Z"/><path class="cls-3" d="M52.87,90.53a2.5,2.5,0,0,0,2.43-1.92,2.5,2.5,0,1,1-4.74,1.1,2.2,2.2,0,0,1,.07-.58A2.48,2.48,0,0,0,52.87,90.53Z"/><path class="cls-3" d="M77.33,14.69a4.52,4.52,0,0,0,6.37.36,4,4,0,0,0,1.13-2.53,4.16,4.16,0,0,1-1,4.2,4.51,4.51,0,0,1-6.36-.36A4.93,4.93,0,0,1,76,12.52,5.21,5.21,0,0,0,77.33,14.69Z"/><path class="cls-3" d="M68.63,11.69a3,3,0,0,0,2.94-2.48,3,3,0,1,1-5.74,1.16,4.38,4.38,0,0,1,0-.51A3,3,0,0,0,68.63,11.69Z"/><path class="cls-3" d="M21.22,34.41c1.17,1.17,2.87,1.36,3.8.43a2,2,0,0,0,.53-1,2.4,2.4,0,0,1-.34,2.66,2.74,2.74,0,0,1-3.8-.42,3.13,3.13,0,0,1-1-2.81A3.61,3.61,0,0,0,21.22,34.41Z"/><path class="cls-3" d="M8.65,57.85c1.19,2.26,3.67,3.3,5.54,2.32A3.66,3.66,0,0,0,16,57.06a4,4,0,0,1-1.65,4.78c-1.86,1-4.34-.05-5.54-2.32a5.31,5.31,0,0,1-.62-2.77A5.38,5.38,0,0,0,8.65,57.85Z"/><path class="cls-3" d="M86.33,76.89c1.8.55,3.81-.77,4.49-3A5.56,5.56,0,0,0,91,72.82a4.71,4.71,0,0,1,0,2.78c-.68,2.19-2.69,3.52-4.5,3a3.6,3.6,0,0,1-2.25-3.86A3.21,3.21,0,0,0,86.33,76.89Z"/></svg>