<svg id="Layer_1" data-name="Layer 1" xmlns="http://www.w3.org/2000/svg" viewBox="0 0 99.21 99.21"><defs><style>.cls-1{fill:#8e0bfa;}.cls-1,.cls-2,.cls-3{stroke:#000;}.cls-1,.cls-2,.cls-3,.cls-4{stroke-miterlimit:10;}.cls-2{fill:#fdfb76;}.cls-4{fill:none;stroke:#fcf7eb;stroke-linecap:round;stroke-width:10px;}</style></defs><path class="cls-1" d="M49.61,66.21,65.39,54.74l14.38,4.75L83.5,75.28a40.68,40.68,0,0,1-3.83,4.39,42.32,42.32,0,0,1-16.2,10.15L49.61,81.28Z"/><path class="cls-2" d="M33.82,54.74,49.61,66.21V81.28L35.77,89.83a42.75,42.75,0,0,1-20-14.51l3.71-15.94Z"/><path class="cls-2" d="M39.85,36.18l-6,18.56L19.45,59.38,7.1,48.65a42.2,42.2,0,0,1,7.72-23.51l16.25-1.22Z"/><path class="cls-2" d="M79.77,59.49,65.39,54.74l-6-18.56L68.27,24,84.44,25.2a42.31,42.31,0,0,1,7.68,23.54Z"/><path class="cls-1" d="M15.74,75.32A42.2,42.2,0,0,1,7.09,49.61c0-.32,0-.64,0-1L19.45,59.38Z"/><path class="cls-1" d="M14.82,25.14a43.07,43.07,0,0,1,4.72-5.6A42.29,42.29,0,0,1,37.25,8.9l-6.18,15Z"/><path class="cls-1" d="M84.44,25.2,68.27,24,62,8.9a42.3,42.3,0,0,1,17.7,10.64A43.2,43.2,0,0,1,84.44,25.2Z"/><path class="cls-1" d="M92.12,48.74c0,.29,0,.58,0,.87A42.15,42.15,0,0,1,83.5,75.28L79.77,59.49Z"/><path class="cls-2" d="M49.61,66.21,65.39,54.74l14.38,4.75L83.5,75.28a40.68,40.68,0,0,1-3.83,4.39,42.32,42.32,0,0,1-16.2,10.15L49.61,81.28Z"/><path class="cls-2" d="M79.77,59.49,65.39,54.74l-6-18.56L68.27,24,84.44,25.2a42.31,42.31,0,0,1,7.68,23.54Z"/><path class="cls-1" d="M84.44,25.2,68.27,24,62,8.9a42.3,42.3,0,0,1,17.7,10.64A43.2,43.2,0,0,1,84.44,25.2Z"/><path class="cls-1" d="M92.12,48.74c0,.29,0,.58,0,.87A42.15,42.15,0,0,1,83.5,75.28L79.77,59.49Z"/><path class="cls-1" d="M55.19,91.76c1-.13,1.94-.29,2.9-.48l.72-.16c.85-.18,1.7-.4,2.53-.64s1.43-.42,2.13-.66L49.61,81.28h0L35.77,89.83a42.48,42.48,0,0,0,13.84,2.3h0A43,43,0,0,0,55.19,91.76Z"/><path class="cls-2" d="M68.27,24,62,8.9a43.11,43.11,0,0,0-24.72,0l-6.18,15,8.78,12.26H59.36L68.27,24Z"/><polygon class="cls-1" points="59.36 36.17 59.36 36.17 49.61 36.17 39.85 36.17 33.82 54.74 49.61 66.21 65.39 54.74 59.36 36.17"/><path class="cls-3" d="M76.13,16.39A42.51,42.51,0,0,1,16.39,76.13,42.51,42.51,0,1,0,76.13,16.39Z"/><path class="cls-4" d="M26.59,26.74a33.48,33.48,0,0,1,23.08-9.17"/></svg>