<svg id="Layer_1" data-name="Layer 1" xmlns="http://www.w3.org/2000/svg" viewBox="0 0 99.21 99.21"><defs><style>.cls-1{fill:#ff3c1d;}.cls-1,.cls-2{stroke:#000;}.cls-1,.cls-3{stroke-linejoin:round;}.cls-2{stroke-miterlimit:10;}.cls-3{fill:none;stroke:#fcf7eb;stroke-linecap:round;stroke-width:5px;}</style></defs><path class="cls-1" d="M74.46,19.52H24.75A17.66,17.66,0,0,0,7.09,37.18V62A17.65,17.65,0,0,0,24.75,79.69H74.46A17.66,17.66,0,0,0,92.13,62V37.18A17.67,17.67,0,0,0,74.46,19.52ZM62.52,50.82,39.27,61.91a.94.94,0,0,1-1.34-.85V38.19a.93.93,0,0,1,1.36-.83L62.54,49.14A.94.94,0,0,1,62.52,50.82Z"/><path class="cls-2" d="M84.49,22.65a17.54,17.54,0,0,1,3.13,10V57.52A17.66,17.66,0,0,1,70,75.18H20.24a17.56,17.56,0,0,1-10-3.12,17.65,17.65,0,0,0,14.54,7.63H74.46A17.66,17.66,0,0,0,92.13,62V37.18A17.62,17.62,0,0,0,84.49,22.65Z"/><path class="cls-3" d="M34.92,27.17H28.38c-5.18,0-9.39,2-11.82,5.67"/></svg>