<svg id="Group_21335" data-name="Group 21335" xmlns="http://www.w3.org/2000/svg" xmlns:xlink="http://www.w3.org/1999/xlink" width="402" height="257.002" viewBox="0 0 402 257.002">
  <defs>
    <clipPath id="clip-path">
      <rect id="Rectangle_120588" data-name="Rectangle 120588" width="402" height="257.003" fill="#8e0bfa" stroke="#20211b" stroke-width="1"/>
    </clipPath>
    <clipPath id="clip-path-2">
      <rect id="Rectangle_120586" data-name="Rectangle 120586" width="654.475" height="278.942" transform="translate(0)"/>
    </clipPath>
    <clipPath id="clip-path-3">
      <rect id="Rectangle_121045" data-name="Rectangle 121045" width="264.007" height="317.298" fill="none"/>
    </clipPath>
    <clipPath id="clip-path-4">
      <path id="Path_8352" data-name="Path 8352" d="M189.187,246.944,164.307,282.9l-24.88,35.952L114.611,282.9l-24.88-35.952L20.5,225.5,80,311.4l59.432,85.966,59.5-85.966,59.5-85.9Z" transform="translate(-20.5 -225.5)" fill="none"/>
    </clipPath>
    <clipPath id="clip-path-6">
      <rect id="Rectangle_121049" data-name="Rectangle 121049" width="102.701" height="129.433" fill="none"/>
    </clipPath>
    <clipPath id="clip-path-8">
      <path id="Path_8397" data-name="Path 8397" d="M212.119,161c-5.854,2.418-12.344,4.645-19.726,4.645s-13.808-2.227-19.662-4.645a4.78,4.78,0,0,0-3.627,8.845c6.427,2.673,14.253,5.409,23.353,5.409s16.862-2.736,23.353-5.409A4.78,4.78,0,0,0,212.182,161" transform="translate(-166.136 -160.636)" fill="none"/>
    </clipPath>
  </defs>
  <g id="Group_4016" data-name="Group 4016" transform="translate(0 0)">
    <rect id="Rectangle_120587" data-name="Rectangle 120587" width="402" height="257.003" transform="translate(0)" fill="#8e0bfa"/>
    <g id="Mask_Group_3" data-name="Mask Group 3" transform="translate(0 0)" clip-path="url(#clip-path)">
      <g id="Group_3924" data-name="Group 3924" transform="translate(-125.012 14.103)" clip-path="url(#clip-path-2)">
        <g id="Artwork_20" data-name="Artwork 20" transform="translate(195.234 0.367)">
          <g id="Artwork_20-2" data-name="Artwork 20">
            <rect id="Rectangle_121043" data-name="Rectangle 121043" width="102.701" height="129.433" transform="translate(80.685 155.133)" fill="#fcf7eb"/>
            <rect id="Rectangle_121044" data-name="Rectangle 121044" width="102.701" height="129.433" transform="translate(80.685 155.133)" fill="none" stroke="#000" stroke-miterlimit="10" stroke-width="0.44"/>
            <g id="Group_4065" data-name="Group 4065" clip-path="url(#clip-path-3)">
              <path id="Path_8297" data-name="Path 8297" d="M219.463,141.125a18.262,18.262,0,0,0,17.817-14.19c-2.036,2.927-5.6,5.536-9.481,5.536a11.527,11.527,0,0,1-11.2-9.863C213.864,106,204.637,34.1,197.829,19.717a48.549,48.549,0,0,0-5.091-8.272C188.284,5.4,179.185.5,167.54.5s-20.68,4.9-25.2,11.008a48.613,48.613,0,0,0-5.091,8.272c-6.809,14.381-16.035,86.284-18.771,102.892a11.427,11.427,0,0,1-11.2,9.863c-3.882,0-7.445-2.609-9.481-5.536a18.262,18.262,0,0,0,25.962,12.217,7.572,7.572,0,0,1-7.127,9.99H115.49a22.144,22.144,0,0,0,26.152-4.327,8.654,8.654,0,0,1-4.327,12.472,15.462,15.462,0,0,0,19.6-14.89l10.69-7,10.69,7a15.462,15.462,0,0,0,19.535,14.826,8.654,8.654,0,0,1-4.327-12.472,22.144,22.144,0,0,0,26.153,4.327h-1.145a7.572,7.572,0,0,1-7.127-9.99,18.2,18.2,0,0,0,8.145,1.909" transform="translate(-35.569 -0.182)" fill="#ff0d5b"/>
              <path id="Path_8298" data-name="Path 8298" d="M219.463,141.125a18.262,18.262,0,0,0,17.817-14.19c-2.036,2.927-5.6,5.536-9.481,5.536a11.527,11.527,0,0,1-11.2-9.863C213.864,106,204.637,34.1,197.829,19.717a48.549,48.549,0,0,0-5.091-8.272C188.284,5.4,179.185.5,167.54.5s-20.68,4.9-25.2,11.008a48.613,48.613,0,0,0-5.091,8.272c-6.809,14.381-16.035,86.284-18.771,102.892a11.427,11.427,0,0,1-11.2,9.863c-3.882,0-7.445-2.609-9.481-5.536a18.262,18.262,0,0,0,25.962,12.217,7.572,7.572,0,0,1-7.127,9.99H115.49a22.144,22.144,0,0,0,26.152-4.327,8.654,8.654,0,0,1-4.327,12.472,15.462,15.462,0,0,0,19.6-14.89l10.69-7,10.69,7a15.462,15.462,0,0,0,19.535,14.826,8.654,8.654,0,0,1-4.327-12.472,22.144,22.144,0,0,0,26.153,4.327h-1.145a7.572,7.572,0,0,1-7.127-9.99A18.2,18.2,0,0,0,219.463,141.125Z" transform="translate(-35.569 -0.182)" fill="none" stroke="#000" stroke-miterlimit="10" stroke-width="0.44"/>
              <path id="Path_8299" data-name="Path 8299" d="M217.647,100.9a23.289,23.289,0,0,0,2.673-10.754c0-16.862-18.771-30.543-41.869-30.543s-41.869,13.681-41.869,30.543a23.29,23.29,0,0,0,2.673,10.754c-7.19,6.109-11.454,14-11.454,22.525,0,19.662,22.716,35.57,50.651,35.57s50.651-15.908,50.651-35.57c0-8.527-4.327-16.417-11.454-22.526" transform="translate(-46.479 -21.676)"/>
              <path id="Path_8300" data-name="Path 8300" d="M217.647,100.9a23.289,23.289,0,0,0,2.673-10.754c0-16.862-18.771-30.543-41.869-30.543s-41.869,13.681-41.869,30.543a23.29,23.29,0,0,0,2.673,10.754c-7.19,6.109-11.454,14-11.454,22.525,0,19.662,22.716,35.57,50.651,35.57s50.651-15.908,50.651-35.57C229.165,114.9,224.838,107.069,217.647,100.9Z" transform="translate(-46.479 -21.676)" fill="none" stroke="#000" stroke-miterlimit="10" stroke-width="0.44"/>
              <path id="Path_8301" data-name="Path 8301" d="M123.825,211.517a10.626,10.626,0,0,0-1.591-3.182,18.326,18.326,0,0,1-20.68-5.409A14.127,14.127,0,0,1,97.8,199.3a18.262,18.262,0,0,0,25.962,12.217" transform="translate(-35.569 -72.483)"/>
              <path id="Path_8302" data-name="Path 8302" d="M123.825,211.517a10.626,10.626,0,0,0-1.591-3.182,18.326,18.326,0,0,1-20.68-5.409A14.127,14.127,0,0,1,97.8,199.3a18.262,18.262,0,0,0,25.962,12.217Z" transform="translate(-35.569 -72.483)" fill="none" stroke="#000" stroke-miterlimit="10" stroke-width="0.44"/>
              <path id="Path_8303" data-name="Path 8303" d="M216.268,228.862H216.2A15.462,15.462,0,0,1,200.742,213.4l-10.69-7-10.69,7A15.462,15.462,0,0,1,163.9,228.862h-.064a8.654,8.654,0,0,1-4.136,3.309,15.462,15.462,0,0,0,19.6-14.89l10.69-7,10.69,7a15.462,15.462,0,0,0,19.662,14.89,8.653,8.653,0,0,1-4.136-3.309" transform="translate(-58.081 -75.065)"/>
              <path id="Path_8304" data-name="Path 8304" d="M216.268,228.862H216.2A15.462,15.462,0,0,1,200.742,213.4l-10.69-7-10.69,7A15.462,15.462,0,0,1,163.9,228.862h-.064a8.654,8.654,0,0,1-4.136,3.309,15.462,15.462,0,0,0,19.6-14.89l10.69-7,10.69,7a15.462,15.462,0,0,0,19.662,14.89A8.654,8.654,0,0,1,216.268,228.862Z" transform="translate(-58.081 -75.065)" fill="none" stroke="#000" stroke-miterlimit="10" stroke-width="0.44"/>
              <path id="Path_8305" data-name="Path 8305" d="M150.262,223.5a22.335,22.335,0,0,1-14.508,5.345,21.061,21.061,0,0,1-3.945-.382,7.508,7.508,0,0,1-4.963,1.845H125.7a22.144,22.144,0,0,0,26.152-4.327,22.206,22.206,0,0,0-1.591-2.418" transform="translate(-45.715 -81.284)"/>
              <path id="Path_8306" data-name="Path 8306" d="M150.262,223.5a22.335,22.335,0,0,1-14.508,5.345,21.061,21.061,0,0,1-3.945-.382,7.508,7.508,0,0,1-4.963,1.845H125.7a22.144,22.144,0,0,0,26.152-4.327A22.209,22.209,0,0,0,150.262,223.5Z" transform="translate(-45.715 -81.284)" fill="none" stroke="#000" stroke-miterlimit="10" stroke-width="0.44"/>
              <path id="Path_8307" data-name="Path 8307" d="M276.2,211.517a10.628,10.628,0,0,1,1.591-3.182,18.326,18.326,0,0,0,20.68-5.409,14.126,14.126,0,0,0,3.754-3.627,18.262,18.262,0,0,1-25.962,12.217" transform="translate(-100.45 -72.483)"/>
              <path id="Path_8308" data-name="Path 8308" d="M276.2,211.517a10.628,10.628,0,0,1,1.591-3.182,18.326,18.326,0,0,0,20.68-5.409,14.126,14.126,0,0,0,3.754-3.627,18.262,18.262,0,0,1-25.962,12.217Z" transform="translate(-100.45 -72.483)" fill="none" stroke="#000" stroke-miterlimit="10" stroke-width="0.44"/>
              <path id="Path_8309" data-name="Path 8309" d="M249.691,223.5a22.335,22.335,0,0,0,14.508,5.345,21.063,21.063,0,0,0,3.945-.382,7.508,7.508,0,0,0,4.963,1.845h1.145a22.144,22.144,0,0,1-26.152-4.327,22.2,22.2,0,0,1,1.591-2.418" transform="translate(-90.231 -81.284)"/>
              <path id="Path_8310" data-name="Path 8310" d="M249.691,223.5a22.335,22.335,0,0,0,14.508,5.345,21.063,21.063,0,0,0,3.945-.382,7.508,7.508,0,0,0,4.963,1.845h1.145a22.144,22.144,0,0,1-26.152-4.327A22.218,22.218,0,0,1,249.691,223.5Z" transform="translate(-90.231 -81.284)" fill="none" stroke="#000" stroke-miterlimit="10" stroke-width="0.44"/>
              <path id="Path_8311" data-name="Path 8311" d="M208.738,32.81c-6.363,9.545,1.336,19.153,7.7,23.353s14.444-1.527,20.807-11.072,8.463-19.28,2.163-23.48-24.307,1.654-30.67,11.2" transform="translate(-75.049 -7.358)" fill="#00db96"/>
              <path id="Path_8312" data-name="Path 8312" d="M208.738,32.81c-6.363,9.545,1.336,19.153,7.7,23.353s14.444-1.527,20.807-11.072,8.463-19.28,2.163-23.48S215.1,23.265,208.738,32.81Z" transform="translate(-75.049 -7.358)" fill="none" stroke="#000" stroke-miterlimit="10" stroke-width="0.44"/>
              <path id="Path_8313" data-name="Path 8313" d="M185.084,32.81c6.363,9.545-1.336,19.153-7.7,23.353s-14.444-1.527-20.807-11.072-8.527-19.28-2.163-23.48,24.307,1.654,30.67,11.2" transform="translate(-54.767 -7.358)" fill="#00db96"/>
              <path id="Path_8314" data-name="Path 8314" d="M185.084,32.81c6.363,9.545-1.336,19.153-7.7,23.353s-14.444-1.527-20.807-11.072-8.527-19.28-2.163-23.48S178.72,23.265,185.084,32.81Z" transform="translate(-54.767 -7.358)" fill="none" stroke="#000" stroke-miterlimit="10" stroke-width="0.44"/>
              <path id="Path_8315" data-name="Path 8315" d="M185.084,32.81c6.363,9.545-1.336,19.153-7.7,23.353s-14.444-1.527-20.807-11.072-8.527-19.28-2.163-23.48,24.307,1.654,30.67,11.2" transform="translate(-54.767 -7.358)" fill="#00db96"/>
              <path id="Path_8316" data-name="Path 8316" d="M185.084,32.81c6.363,9.545-1.336,19.153-7.7,23.353s-14.444-1.527-20.807-11.072-8.527-19.28-2.163-23.48S178.72,23.265,185.084,32.81Z" transform="translate(-54.767 -7.358)" fill="none" stroke="#000" stroke-miterlimit="10" stroke-width="0.44"/>
              <path id="Path_8317" data-name="Path 8317" d="M212.026,35.127c0,4.709-4.709,8.527-10.563,8.527S190.9,39.835,190.9,35.127s4.709-8.527,10.563-8.527,10.563,3.818,10.563,8.527" transform="translate(-69.428 -9.674)" fill="#00db96"/>
              <path id="Path_8318" data-name="Path 8318" d="M212.026,35.127c0,4.709-4.709,8.527-10.563,8.527S190.9,39.835,190.9,35.127s4.709-8.527,10.563-8.527S212.026,30.418,212.026,35.127Z" transform="translate(-69.428 -9.674)" fill="none" stroke="#000" stroke-miterlimit="10" stroke-width="0.44"/>
              <path id="Path_8319" data-name="Path 8319" d="M112.243,439.135c0-12.344-7.89-22.335-17.562-22.335L87.3,433.917v12.408a5.027,5.027,0,0,0,3.818,4.836v7.827l-.891-.191a2.609,2.609,0,0,0-2.609,2.609,2.671,2.671,0,0,0,.064.509h0c.382,1.718,2.418,3.054,4.836,3.054l1.209-.127a2.609,2.609,0,0,0,2.545,3.245,9.29,9.29,0,0,0,4.2-.891,2.609,2.609,0,0,0,2.291,1.336c5.154,0,9.417-4.454,9.545-9.926h0v-19.28h0V439.2" transform="translate(-31.75 -151.584)" fill="#fdfb76"/>
              <path id="Path_8320" data-name="Path 8320" d="M112.243,439.135c0-12.344-7.89-22.335-17.562-22.335L87.3,433.917v12.408a5.027,5.027,0,0,0,3.818,4.836v7.827l-.891-.191a2.609,2.609,0,0,0-2.609,2.609,2.671,2.671,0,0,0,.064.509h0c.382,1.718,2.418,3.054,4.836,3.054l1.209-.127a2.609,2.609,0,0,0,2.545,3.245,9.29,9.29,0,0,0,4.2-.891,2.609,2.609,0,0,0,2.291,1.336c5.154,0,9.417-4.454,9.545-9.926h0v-19.28h0Z" transform="translate(-31.75 -151.584)" fill="none" stroke="#000" stroke-miterlimit="10" stroke-width="0.44"/>
              <path id="Path_8321" data-name="Path 8321" d="M87.9,485.5a2.609,2.609,0,0,1,4.327-1.973" transform="translate(-31.968 -175.619)" fill="#fdfb76"/>
              <path id="Path_8322" data-name="Path 8322" d="M87.9,485.5a2.609,2.609,0,0,1,4.327-1.973" transform="translate(-31.968 -175.619)" fill="none" stroke="#000" stroke-miterlimit="10" stroke-width="0.44"/>
              <path id="Path_8323" data-name="Path 8323" d="M87.9,479.981c0,1.973,2.163,3.627,4.9,3.627a4.591,4.591,0,0,0,4.9-4.518V467.7" transform="translate(-31.968 -170.096)" fill="none" stroke="#000" stroke-miterlimit="10" stroke-width="0.44"/>
              <path id="Path_8324" data-name="Path 8324" d="M101.5,487.962c4.645,0,8.4-3.309,8.4-7.381V471.1" transform="translate(-36.914 -171.333)" fill="#fdfb76"/>
              <path id="Path_8325" data-name="Path 8325" d="M101.5,487.962c4.645,0,8.4-3.309,8.4-7.381V471.1" transform="translate(-36.914 -171.333)" fill="none" stroke="#000" stroke-miterlimit="10" stroke-width="0.44"/>
              <path id="Path_8326" data-name="Path 8326" d="M121.081,482.3c0,5.6-4.263,10.117-9.481,10.117" transform="translate(-40.587 -175.406)" fill="#fdfb76"/>
              <path id="Path_8327" data-name="Path 8327" d="M121.081,482.3c0,5.6-4.263,10.117-9.481,10.117" transform="translate(-40.587 -175.406)" fill="none" stroke="#000" stroke-miterlimit="10" stroke-width="0.44"/>
              <path id="Path_8328" data-name="Path 8328" d="M46.829,333.349a11.1,11.1,0,0,1-1.591-15.081L78.518,275.89a18.135,18.135,0,1,0-28.507-22.4L6.742,308.6C-3.5,321.641-.767,338.5,12.468,348.493l35.125,26.471a5.854,5.854,0,0,0,4.836,1.082c3.118-.7,7-3.054,10.5-6.554s6.3-8.208,6.681-11.454a3.945,3.945,0,0,0-1.145-3.245L46.829,333.349" transform="translate(-0.188 -89.513)" fill="#8e0bfa"/>
              <path id="Path_8329" data-name="Path 8329" d="M46.829,333.349a11.1,11.1,0,0,1-1.591-15.081L78.518,275.89a18.135,18.135,0,1,0-28.507-22.4L6.742,308.6C-3.5,321.641-.767,338.5,12.468,348.493l35.125,26.471a5.854,5.854,0,0,0,4.836,1.082c3.118-.7,7-3.054,10.5-6.554s6.3-8.208,6.681-11.454a3.945,3.945,0,0,0-1.145-3.245Z" transform="translate(-0.188 -89.513)" fill="none" stroke="#000" stroke-miterlimit="10" stroke-width="0.44"/>
              <path id="Path_8330" data-name="Path 8330" d="M12.463,380.962A29.4,29.4,0,0,1,1.01,363.4c-2.036,10.181,2.1,20.68,11.454,27.743l35.125,26.471a5.854,5.854,0,0,0,4.836,1.082,18.132,18.132,0,0,0,5.536-2.482c-7.636-5.854-39.451-30.67-45.433-35.252" transform="translate(-0.182 -132.164)"/>
              <path id="Path_8331" data-name="Path 8331" d="M12.463,380.962A29.4,29.4,0,0,1,1.01,363.4c-2.036,10.181,2.1,20.68,11.454,27.743l35.125,26.471a5.854,5.854,0,0,0,4.836,1.082,18.132,18.132,0,0,0,5.536-2.482C50.26,410.36,18.508,385.544,12.463,380.962Z" transform="translate(-0.182 -132.164)" fill="none" stroke="#000" stroke-miterlimit="10" stroke-width="0.44"/>
              <path id="Path_8332" data-name="Path 8332" d="M100.315,273.445l-37.606,48.3c-3.627,4.645-2.736,11.072,1.591,15.081l3.563,3.5a10.932,10.932,0,0,1-.764-14.253l33.279-42.378A18.135,18.135,0,0,0,103.5,267.4a18.073,18.073,0,0,1-3.118,6.109" transform="translate(-21.985 -97.25)"/>
              <path id="Path_8333" data-name="Path 8333" d="M100.315,273.445l-37.606,48.3c-3.627,4.645-2.736,11.072,1.591,15.081l3.563,3.5a10.932,10.932,0,0,1-.764-14.253l33.279-42.378A18.135,18.135,0,0,0,103.5,267.4,18.071,18.071,0,0,1,100.315,273.445Z" transform="translate(-21.985 -97.25)" fill="none" stroke="#000" stroke-miterlimit="10" stroke-width="0.44"/>
              <path id="Path_8334" data-name="Path 8334" d="M288.364,439.135c0-12.344,7.89-22.335,17.562-22.335l7.381,17.117v12.408a5.027,5.027,0,0,1-3.818,4.836v7.827l.891-.191a2.609,2.609,0,0,1,2.609,2.609,2.67,2.67,0,0,1-.064.509h0c-.382,1.718-2.418,3.054-4.836,3.054l-1.209-.127a2.609,2.609,0,0,1-2.545,3.245,9.289,9.289,0,0,1-4.2-.954,2.609,2.609,0,0,1-2.291,1.336c-5.154,0-9.417-4.454-9.545-9.927h0V439.326h0V439.2" transform="translate(-104.851 -151.584)" fill="#fdfb76"/>
              <path id="Path_8335" data-name="Path 8335" d="M288.364,439.135c0-12.344,7.89-22.335,17.562-22.335l7.381,17.117v12.408a5.027,5.027,0,0,1-3.818,4.836v7.827l.891-.191a2.609,2.609,0,0,1,2.609,2.609,2.67,2.67,0,0,1-.064.509h0c-.382,1.718-2.418,3.054-4.836,3.054l-1.209-.127a2.609,2.609,0,0,1-2.545,3.245,9.289,9.289,0,0,1-4.2-.954,2.609,2.609,0,0,1-2.291,1.336c-5.154,0-9.417-4.454-9.545-9.927h0V439.326h0Z" transform="translate(-104.851 -151.584)" fill="none" stroke="#000" stroke-miterlimit="10" stroke-width="0.44"/>
              <path id="Path_8336" data-name="Path 8336" d="M324.527,485.5a2.609,2.609,0,0,0-4.327-1.973" transform="translate(-116.452 -175.619)" fill="#fdfb76"/>
              <path id="Path_8337" data-name="Path 8337" d="M324.527,485.5a2.609,2.609,0,0,0-4.327-1.973" transform="translate(-116.452 -175.619)" fill="none" stroke="#000" stroke-miterlimit="10" stroke-width="0.44"/>
              <path id="Path_8338" data-name="Path 8338" d="M321.4,479.981c0,1.973-2.163,3.627-4.9,3.627a4.591,4.591,0,0,1-4.9-4.518V467.7" transform="translate(-113.325 -170.096)" fill="none" stroke="#000" stroke-miterlimit="10" stroke-width="0.44"/>
              <path id="Path_8339" data-name="Path 8339" d="M308.6,487.962c-4.645,0-8.4-3.309-8.4-7.381V471.1" transform="translate(-109.179 -171.333)" fill="#fdfb76"/>
              <path id="Path_8340" data-name="Path 8340" d="M308.6,487.962c-4.645,0-8.4-3.309-8.4-7.381V471.1" transform="translate(-109.179 -171.333)" fill="none" stroke="#000" stroke-miterlimit="10" stroke-width="0.44"/>
              <path id="Path_8341" data-name="Path 8341" d="M288.4,482.3c0,5.6,4.263,10.117,9.481,10.117" transform="translate(-104.887 -175.406)" fill="#fdfb76"/>
              <path id="Path_8342" data-name="Path 8342" d="M288.4,482.3c0,5.6,4.263,10.117,9.481,10.117" transform="translate(-104.887 -175.406)" fill="none" stroke="#000" stroke-miterlimit="10" stroke-width="0.44"/>
              <path id="Path_8343" data-name="Path 8343" d="M321.078,333.349a11.1,11.1,0,0,0,1.591-15.081L289.389,275.89a18.135,18.135,0,1,1,28.507-22.4l43.269,55.1c10.245,13.044,7.508,29.907-5.727,39.9l-35.125,26.471a5.854,5.854,0,0,1-4.836,1.082c-3.118-.7-7-3.054-10.5-6.554s-6.3-8.208-6.681-11.454a3.945,3.945,0,0,1,1.145-3.245l21.571-21.444" transform="translate(-103.713 -89.513)" fill="#8e0bfa"/>
              <path id="Path_8344" data-name="Path 8344" d="M321.078,333.349a11.1,11.1,0,0,0,1.591-15.081L289.389,275.89a18.135,18.135,0,1,1,28.507-22.4l43.269,55.1c10.245,13.044,7.508,29.907-5.727,39.9l-35.125,26.471a5.854,5.854,0,0,1-4.836,1.082c-3.118-.7-7-3.054-10.5-6.554s-6.3-8.208-6.681-11.454a3.945,3.945,0,0,1,1.145-3.245Z" transform="translate(-103.713 -89.513)" fill="none" stroke="#000" stroke-miterlimit="10" stroke-width="0.44"/>
              <path id="Path_8345" data-name="Path 8345" d="M369.6,380.962A29.4,29.4,0,0,0,381.05,363.4c2.036,10.181-2.1,20.68-11.454,27.743l-35.124,26.471a5.854,5.854,0,0,1-4.836,1.082,18.133,18.133,0,0,1-5.536-2.482c7.636-5.854,39.451-30.67,45.433-35.252" transform="translate(-117.871 -132.164)"/>
              <path id="Path_8346" data-name="Path 8346" d="M369.6,380.962A29.4,29.4,0,0,0,381.05,363.4c2.036,10.181-2.1,20.68-11.454,27.743l-35.124,26.471a5.854,5.854,0,0,1-4.836,1.082,18.133,18.133,0,0,1-5.536-2.482C331.8,410.36,363.551,385.544,369.6,380.962Z" transform="translate(-117.871 -132.164)" fill="none" stroke="#000" stroke-miterlimit="10" stroke-width="0.44"/>
              <path id="Path_8347" data-name="Path 8347" d="M289.6,273.445l37.67,48.3c3.627,4.645,2.736,11.072-1.591,15.081l-3.563,3.5a10.932,10.932,0,0,0,.764-14.253L289.6,283.69a18.135,18.135,0,0,1-3.118-16.29,18.072,18.072,0,0,0,3.118,6.109" transform="translate(-103.921 -97.25)"/>
              <path id="Path_8348" data-name="Path 8348" d="M289.6,273.445l37.67,48.3c3.627,4.645,2.736,11.072-1.591,15.081l-3.563,3.5a10.932,10.932,0,0,0,.764-14.253L289.6,283.69a18.135,18.135,0,0,1-3.118-16.29A18.071,18.071,0,0,0,289.6,273.445Z" transform="translate(-103.921 -97.25)" fill="none" stroke="#000" stroke-miterlimit="10" stroke-width="0.44"/>
            </g>
            <g id="Group_4066" data-name="Group 4066" transform="translate(13.044 143.489)" clip-path="url(#clip-path-4)">
              <path id="Path_8349" data-name="Path 8349" d="M321.078,333.349a11.1,11.1,0,0,0,1.591-15.081L289.389,275.89a18.135,18.135,0,1,1,28.507-22.4l43.269,55.1c10.245,13.044,7.508,29.907-5.727,39.9l-35.125,26.471a5.854,5.854,0,0,1-4.836,1.082c-3.118-.7-7-3.054-10.5-6.554s-6.3-8.208-6.681-11.454a3.945,3.945,0,0,1,1.145-3.245l21.571-21.444" transform="translate(-116.758 -233.002)"/>
              <path id="Path_8350" data-name="Path 8350" d="M46.829,333.349a11.1,11.1,0,0,1-1.591-15.081L78.518,275.89a18.135,18.135,0,1,0-28.507-22.4L6.742,308.6C-3.5,321.641-.767,338.5,12.468,348.493l35.125,26.471a5.854,5.854,0,0,0,4.836,1.082c3.118-.7,7-3.054,10.5-6.554s6.3-8.208,6.681-11.454a3.945,3.945,0,0,0-1.145-3.245L46.829,333.349" transform="translate(-13.232 -233.002)"/>
              <path id="Path_8351" data-name="Path 8351" d="M46.829,333.349a11.1,11.1,0,0,1-1.591-15.081L78.518,275.89a18.135,18.135,0,1,0-28.507-22.4L6.742,308.6C-3.5,321.641-.767,338.5,12.468,348.493l35.125,26.471a5.854,5.854,0,0,0,4.836,1.082c3.118-.7,7-3.054,10.5-6.554s6.3-8.208,6.681-11.454a3.945,3.945,0,0,0-1.145-3.245Z" transform="translate(-13.232 -233.002)" fill="none" stroke="#000" stroke-miterlimit="10" stroke-width="0.44"/>
            </g>
            <g id="Group_4067" data-name="Group 4067" clip-path="url(#clip-path-3)">
              <rect id="Rectangle_121046" data-name="Rectangle 121046" width="27.489" height="28.036" transform="translate(118.227 129.617)" fill="#fdfb76"/>
              <rect id="Rectangle_121047" data-name="Rectangle 121047" width="27.489" height="28.036" transform="translate(118.227 129.617)" fill="none" stroke="#000" stroke-miterlimit="10" stroke-width="0.44"/>
              <path id="Path_8353" data-name="Path 8353" d="M185.8,212.545a71.4,71.4,0,0,0,27.489,0V203.7H185.8Z" transform="translate(-67.573 -74.083)"/>
              <path id="Path_8354" data-name="Path 8354" d="M185.8,212.545a71.4,71.4,0,0,0,27.489,0V203.7H185.8Z" transform="translate(-67.573 -74.083)" fill="none" stroke="#000" stroke-miterlimit="10" stroke-width="0.44"/>
              <path id="Path_8355" data-name="Path 8355" d="M228.774,85.824c0,25.2-22.335,45.624-49.887,45.624S129,111.022,129,85.824,151.335,40.2,178.887,40.2s49.887,20.426,49.887,45.624" transform="translate(-46.916 -14.62)" fill="#ff0d5b"/>
              <ellipse id="Ellipse_367" data-name="Ellipse 367" cx="49.887" cy="45.624" rx="49.887" ry="45.624" transform="translate(82.084 25.58)" fill="none" stroke="#000" stroke-miterlimit="10" stroke-width="0.44"/>
              <path id="Path_8356" data-name="Path 8356" d="M217.647,95.6a23.289,23.289,0,0,0,2.673-10.754c0-16.862-18.771-30.543-41.869-30.543s-41.869,13.681-41.869,30.543A23.29,23.29,0,0,0,139.254,95.6c-7.19,6.109-11.454,14-11.454,22.526,0,19.662,22.716,35.57,50.651,35.57s50.651-15.908,50.651-35.57c0-8.527-4.327-16.417-11.454-22.526" transform="translate(-46.479 -19.748)" fill="#fdfb76"/>
              <path id="Path_8357" data-name="Path 8357" d="M217.647,95.6a23.289,23.289,0,0,0,2.673-10.754c0-16.862-18.771-30.543-41.869-30.543s-41.869,13.681-41.869,30.543A23.29,23.29,0,0,0,139.254,95.6c-7.19,6.109-11.454,14-11.454,22.526,0,19.662,22.716,35.57,50.651,35.57s50.651-15.908,50.651-35.57C229.165,109.6,224.838,101.705,217.647,95.6Z" transform="translate(-46.479 -19.748)" fill="none" stroke="#000" stroke-miterlimit="10" stroke-width="0.44"/>
              <path id="Path_8358" data-name="Path 8358" d="M180.4,68.7c-7.509,1.718-13.872,5.09-18.2,9.545" transform="translate(-58.99 -24.985)" fill="none" stroke="#fcf7eb" stroke-linecap="round" stroke-miterlimit="10" stroke-width="4.396"/>
              <path id="Path_8359" data-name="Path 8359" d="M260.7,139.1a13.3,13.3,0,1,1-13.3-13.3,13.3,13.3,0,0,1,13.3,13.3" transform="translate(-85.139 -45.752)" fill="#ff3c1d"/>
              <path id="Path_8360" data-name="Path 8360" d="M260.7,139.1a13.3,13.3,0,1,1-13.3-13.3A13.3,13.3,0,0,1,260.7,139.1Z" transform="translate(-85.139 -45.752)" fill="none" stroke="#000" stroke-miterlimit="10" stroke-width="0.44"/>
              <path id="Path_8361" data-name="Path 8361" d="M165.6,139.1a13.3,13.3,0,1,1-13.3-13.3,13.3,13.3,0,0,1,13.3,13.3" transform="translate(-50.552 -45.752)" fill="#ff3c1d"/>
              <path id="Path_8362" data-name="Path 8362" d="M165.6,139.1a13.3,13.3,0,1,1-13.3-13.3A13.3,13.3,0,0,1,165.6,139.1Z" transform="translate(-50.552 -45.752)" fill="none" stroke="#000" stroke-miterlimit="10" stroke-width="0.44"/>
              <path id="Path_8363" data-name="Path 8363" d="M152.5,135.627a7.954,7.954,0,0,1,4.709-1.527" transform="translate(-55.462 -48.77)" fill="#ff3c1d"/>
              <path id="Path_8364" data-name="Path 8364" d="M152.5,135.627a7.954,7.954,0,0,1,4.709-1.527" transform="translate(-55.462 -48.77)" fill="none" stroke="#fcf7eb" stroke-linecap="round" stroke-miterlimit="10" stroke-width="4.396"/>
              <path id="Path_8365" data-name="Path 8365" d="M247.6,135.627a7.954,7.954,0,0,1,4.709-1.527" transform="translate(-90.049 -48.77)" fill="#ff3c1d"/>
              <path id="Path_8366" data-name="Path 8366" d="M247.6,135.627a7.954,7.954,0,0,1,4.709-1.527" transform="translate(-90.049 -48.77)" fill="none" stroke="#fcf7eb" stroke-linecap="round" stroke-miterlimit="10" stroke-width="4.396"/>
              <path id="Path_8367" data-name="Path 8367" d="M208.79,139.745a3.245,3.245,0,1,1-3.245-3.245,3.245,3.245,0,0,1,3.245,3.245" transform="translate(-73.574 -49.643)"/>
              <path id="Path_8368" data-name="Path 8368" d="M208.79,139.745a3.245,3.245,0,1,1-3.245-3.245A3.245,3.245,0,0,1,208.79,139.745Z" transform="translate(-73.574 -49.643)" fill="none" stroke="#000" stroke-miterlimit="10" stroke-width="0.44"/>
              <path id="Path_8369" data-name="Path 8369" d="M189.954,180.544c-9.545,0-17.626-2.8-24.307-5.6a8.718,8.718,0,1,1,6.618-16.035c5.345,2.227,11.2,4.263,17.69,4.263s12.344-2.036,17.69-4.263a8.718,8.718,0,1,1,6.618,16.035c-6.681,2.736-14.762,5.6-24.307,5.6" transform="translate(-57.982 -57.417)"/>
              <path id="Path_8370" data-name="Path 8370" d="M189.954,180.544c-9.545,0-17.626-2.8-24.307-5.6a8.718,8.718,0,1,1,6.618-16.035c5.345,2.227,11.2,4.263,17.69,4.263s12.344-2.036,17.69-4.263a8.718,8.718,0,1,1,6.618,16.035C207.643,177.744,199.562,180.544,189.954,180.544Z" transform="translate(-57.982 -57.417)" fill="none" stroke="#000" stroke-miterlimit="10" stroke-width="0.44"/>
              <path id="Path_8371" data-name="Path 8371" d="M190,177.013c-9.8,0-18.071-2.863-24.943-5.727a8.928,8.928,0,1,1,6.872-16.481c5.472,2.291,11.454,4.391,18.135,4.391s12.663-2.1,18.135-4.391a8.916,8.916,0,1,1,6.809,16.481c-6.809,2.8-15.144,5.727-24.943,5.727" transform="translate(-58.032 -56.05)" fill="#ff0d5b"/>
              <path id="Path_8372" data-name="Path 8372" d="M190,177.013c-9.8,0-18.071-2.863-24.943-5.727a8.928,8.928,0,1,1,6.872-16.481c5.472,2.291,11.454,4.391,18.135,4.391s12.663-2.1,18.135-4.391a8.916,8.916,0,1,1,6.809,16.481C208.138,174.086,199.8,177.013,190,177.013Z" transform="translate(-58.032 -56.05)" fill="none" stroke="#000" stroke-miterlimit="10" stroke-width="0.44"/>
              <path id="Path_8373" data-name="Path 8373" d="M192.357,175.248c-9.036,0-16.862-2.736-23.353-5.409A4.78,4.78,0,1,1,172.631,161c5.854,2.418,12.345,4.645,19.726,4.645s13.808-2.227,19.726-4.645a4.78,4.78,0,1,1,3.627,8.845c-6.427,2.673-14.253,5.409-23.353,5.409" transform="translate(-60.385 -58.421)" fill="#fcf7eb"/>
              <path id="Path_8374" data-name="Path 8374" d="M192.357,175.248c-9.036,0-16.862-2.736-23.353-5.409A4.78,4.78,0,1,1,172.631,161c5.854,2.418,12.345,4.645,19.726,4.645s13.808-2.227,19.726-4.645a4.78,4.78,0,1,1,3.627,8.845C209.283,172.512,201.456,175.248,192.357,175.248Z" transform="translate(-60.385 -58.421)" fill="none" stroke="#000" stroke-miterlimit="10" stroke-width="0.44"/>
              <path id="Path_8375" data-name="Path 8375" d="M237.251,103.034a17.88,17.88,0,0,1,5.472.827,11.962,11.962,0,1,0-21.826,9.8,17.88,17.88,0,0,1,16.354-10.627" transform="translate(-79.955 -35.203)" fill="#fcf7eb"/>
              <path id="Path_8376" data-name="Path 8376" d="M237.251,103.034a17.88,17.88,0,0,1,5.472.827,11.962,11.962,0,1,0-21.826,9.8A17.88,17.88,0,0,1,237.251,103.034Z" transform="translate(-79.955 -35.203)" fill="none" stroke="#000" stroke-miterlimit="10" stroke-width="0.44"/>
              <path id="Path_8377" data-name="Path 8377" d="M234.991,104.045a2.545,2.545,0,1,1-2.545-2.545,2.545,2.545,0,0,1,2.545,2.545" transform="translate(-83.611 -36.914)"/>
              <path id="Path_8378" data-name="Path 8378" d="M234.991,104.045a2.545,2.545,0,1,1-2.545-2.545A2.545,2.545,0,0,1,234.991,104.045Z" transform="translate(-83.611 -36.914)" fill="none" stroke="#000" stroke-miterlimit="10" stroke-width="0.44"/>
              <path id="Path_8379" data-name="Path 8379" d="M164.572,103.034a17.88,17.88,0,0,0-5.472.827,11.962,11.962,0,1,1,21.826,9.8,17.88,17.88,0,0,0-16.354-10.627" transform="translate(-57.862 -35.203)" fill="#fcf7eb"/>
              <path id="Path_8380" data-name="Path 8380" d="M164.572,103.034a17.88,17.88,0,0,0-5.472.827,11.962,11.962,0,1,1,21.826,9.8,17.88,17.88,0,0,0-16.354-10.627Z" transform="translate(-57.862 -35.203)" fill="none" stroke="#000" stroke-miterlimit="10" stroke-width="0.44"/>
              <path id="Path_8381" data-name="Path 8381" d="M177,104.045a2.545,2.545,0,1,0,2.545-2.545A2.545,2.545,0,0,0,177,104.045" transform="translate(-64.372 -36.914)"/>
              <path id="Path_8382" data-name="Path 8382" d="M177,104.045a2.545,2.545,0,1,0,2.545-2.545A2.545,2.545,0,0,0,177,104.045Z" transform="translate(-64.372 -36.914)" fill="none" stroke="#000" stroke-miterlimit="10" stroke-width="0.44"/>
              <path id="Path_8383" data-name="Path 8383" d="M197.835,236.59c-9.227,0-16.735-2.927-16.735-6.49v8.336c0,3.563,7.509,6.49,16.735,6.49s16.735-2.927,16.735-6.49V230.1c0,3.563-7.509,6.49-16.735,6.49" transform="translate(-65.864 -83.684)" fill="#fcf7eb"/>
              <path id="Path_8384" data-name="Path 8384" d="M197.835,236.59c-9.227,0-16.735-2.927-16.735-6.49v8.336c0,3.563,7.509,6.49,16.735,6.49s16.735-2.927,16.735-6.49V230.1C214.57,233.663,207.125,236.59,197.835,236.59Z" transform="translate(-65.864 -83.684)" fill="none" stroke="#000" stroke-miterlimit="10" stroke-width="0.44"/>
              <path id="Path_8385" data-name="Path 8385" d="M233.664,230.545V230.1a2.608,2.608,0,0,1-.064.445Z" transform="translate(-84.957 -83.684)" fill="#fff"/>
              <path id="Path_8386" data-name="Path 8386" d="M233.664,230.545V230.1a2.608,2.608,0,0,1-.064.445Z" transform="translate(-84.957 -83.684)" fill="none" stroke="#000" stroke-miterlimit="10" stroke-width="0.44"/>
              <path id="Path_8387" data-name="Path 8387" d="M205.853,235.727a38.942,38.942,0,0,1-8.018.764c-9.227,0-16.735-2.927-16.735-6.49v8.336c0,3.563,7.509,6.49,16.735,6.49a38.94,38.94,0,0,0,8.018-.764Z" transform="translate(-65.864 -83.648)" fill="#00db96"/>
              <path id="Path_8388" data-name="Path 8388" d="M205.853,235.727a38.942,38.942,0,0,1-8.018.764c-9.227,0-16.735-2.927-16.735-6.49v8.336c0,3.563,7.509,6.49,16.735,6.49a38.94,38.94,0,0,0,8.018-.764Z" transform="translate(-65.864 -83.648)" fill="none" stroke="#000" stroke-miterlimit="10" stroke-width="0.44"/>
              <path id="Path_8389" data-name="Path 8389" d="M215.682,245.391a1.591,1.591,0,1,1-1.591-1.591,1.591,1.591,0,0,1,1.591,1.591" transform="translate(-77.283 -88.667)"/>
              <circle id="Ellipse_368" data-name="Ellipse 368" cx="1.591" cy="1.591" r="1.591" transform="translate(134.928 157.987) rotate(-76.7)" fill="none" stroke="#000" stroke-miterlimit="10" stroke-width="0.44"/>
            </g>
            <g id="Group_4068" data-name="Group 4068" transform="translate(80.685 155.133)" clip-path="url(#clip-path-6)">
              <path id="Path_8390" data-name="Path 8390" d="M189.187,246.944,164.307,282.9l-24.88,35.952L114.611,282.9l-24.88-35.952L20.5,225.5,80,311.4l59.432,85.966,59.5-85.966,59.5-85.9Z" transform="translate(-88.14 -237.145)"/>
              <path id="Path_8391" data-name="Path 8391" d="M189.187,246.944,164.307,282.9l-24.88,35.952L114.611,282.9l-24.88-35.952L20.5,225.5,80,311.4l59.432,85.966,59.5-85.966,59.5-85.9Z" transform="translate(-88.14 -237.145)" fill="none" stroke="#000" stroke-miterlimit="10" stroke-width="0.44"/>
            </g>
            <g id="Group_4069" data-name="Group 4069" clip-path="url(#clip-path-3)">
              <path id="Path_8392" data-name="Path 8392" d="M189.187,231.507l-24.88,35.952-24.88,35.952-24.816-35.952-24.88-35.952L20.5,210,80,295.966l59.432,85.966,59.5-85.966L258.418,210Z" transform="translate(-7.456 -76.374)" fill="#00db96"/>
              <path id="Path_8393" data-name="Path 8393" d="M189.187,231.507l-24.88,35.952-24.88,35.952-24.816-35.952-24.88-35.952L20.5,210,80,295.966l59.432,85.966,59.5-85.966L258.418,210Z" transform="translate(-7.456 -76.374)" fill="none" stroke="#000" stroke-miterlimit="10" stroke-width="0.44"/>
              <path id="Path_8394" data-name="Path 8394" d="M90.634,271.423l61.6,89.084,61.659-89.084L248.821,220.9l-24.307,7.572L194.8,271.423l-42.569,61.532-42.506-61.532L80.007,228.472,55.7,220.9Z" transform="translate(-20.257 -80.338)" fill="#ff3c1d"/>
              <path id="Path_8395" data-name="Path 8395" d="M90.634,271.423l61.6,89.084,61.659-89.084L248.821,220.9l-24.307,7.572L194.8,271.423l-42.569,61.532-42.506-61.532L80.007,228.472,55.7,220.9Z" transform="translate(-20.257 -80.338)" fill="none" stroke="#000" stroke-miterlimit="10" stroke-width="0.44"/>
            </g>
            <g id="Group_4070" data-name="Group 4070" transform="translate(105.715 102.215)" clip-path="url(#clip-path-8)">
              <path id="Path_8396" data-name="Path 8396" d="M166.7,165.3c7.19,3.945,18.135,6.872,25.9,6.872s19.535-2.927,25.9-6.872" transform="translate(-166.341 -162.332)" fill="none" stroke="#000" stroke-miterlimit="10" stroke-width="0.44"/>
              <line id="Line_177" data-name="Line 177" y2="12.726" transform="translate(26.257 3.477)" fill="none" stroke="#000" stroke-miterlimit="10" stroke-width="0.44"/>
              <line id="Line_178" data-name="Line 178" x2="3.563" y2="12.281" transform="translate(38.219 1.631)" fill="none" stroke="#000" stroke-miterlimit="10" stroke-width="0.44"/>
              <line id="Line_179" data-name="Line 179" x2="4.518" y2="11.963" transform="translate(44.646 -0.341)" fill="none" stroke="#000" stroke-miterlimit="10" stroke-width="0.44"/>
              <line id="Line_180" data-name="Line 180" x2="2.163" y2="12.599" transform="translate(32.047 3.095)" fill="none" stroke="#000" stroke-miterlimit="10" stroke-width="0.44"/>
              <line id="Line_181" data-name="Line 181" x1="3.563" y2="12.217" transform="translate(10.794 1.504)" fill="none" stroke="#000" stroke-miterlimit="10" stroke-width="0.44"/>
              <line id="Line_182" data-name="Line 182" x1="4.518" y2="11.899" transform="translate(3.413 -0.469)" fill="none" stroke="#000" stroke-miterlimit="10" stroke-width="0.44"/>
              <line id="Line_183" data-name="Line 183" x1="2.163" y2="12.599" transform="translate(18.366 2.968)" fill="none" stroke="#000" stroke-miterlimit="10" stroke-width="0.44"/>
            </g>
            <g id="Group_4071" data-name="Group 4071" clip-path="url(#clip-path-3)">
              <path id="Path_8398" data-name="Path 8398" d="M192.357,175.248c-9.036,0-16.862-2.736-23.353-5.409A4.78,4.78,0,1,1,172.631,161c5.854,2.418,12.345,4.645,19.726,4.645s13.808-2.227,19.726-4.645a4.78,4.78,0,1,1,3.627,8.845C209.283,172.512,201.456,175.248,192.357,175.248Z" transform="translate(-60.385 -58.421)" fill="none" stroke="#000" stroke-miterlimit="10" stroke-width="0.44"/>
              <path id="Path_8399" data-name="Path 8399" d="M184.091,224.2c-1.845,1.082-2.991,2.354-2.991,3.691s1.082,2.673,2.991,3.691Z" transform="translate(-65.864 -81.538)"/>
              <path id="Path_8400" data-name="Path 8400" d="M184.091,224.2c-1.845,1.082-2.991,2.354-2.991,3.691s1.082,2.673,2.991,3.691Z" transform="translate(-65.864 -81.538)" fill="none" stroke="#000" stroke-linecap="round" stroke-miterlimit="10" stroke-width="0.44"/>
              <path id="Path_8401" data-name="Path 8401" d="M229.1,224.2v7.381c1.845-1.082,2.991-2.354,2.991-3.691s-1.082-2.673-2.991-3.691" transform="translate(-83.321 -81.538)"/>
              <path id="Path_8402" data-name="Path 8402" d="M229.1,224.2v7.381c1.845-1.082,2.991-2.354,2.991-3.691S230.945,225.282,229.1,224.2Z" transform="translate(-83.321 -81.538)" fill="none" stroke="#000" stroke-linecap="round" stroke-miterlimit="10" stroke-width="0.44"/>
              <path id="Path_8403" data-name="Path 8403" d="M199.081,9.924a20.235,20.235,0,0,0-7.127.445,16.035,16.035,0,0,0-5.154,2.036" transform="translate(-67.937 -3.561)" fill="#ff0d5b"/>
              <path id="Path_8404" data-name="Path 8404" d="M199.081,9.924a20.235,20.235,0,0,0-7.127.445,16.035,16.035,0,0,0-5.154,2.036" transform="translate(-67.937 -3.561)" fill="none" stroke="#fcf7eb" stroke-linecap="round" stroke-miterlimit="10" stroke-width="4.396"/>
              <path id="Path_8405" data-name="Path 8405" d="M169.217,31.166c-2.609-1.527-6.681-1.909-8.272-.891a3.945,3.945,0,0,0-1.145,1.209" transform="translate(-58.117 -10.804)" fill="#00db96"/>
              <path id="Path_8406" data-name="Path 8406" d="M169.217,31.166c-2.609-1.527-6.681-1.909-8.272-.891a3.945,3.945,0,0,0-1.145,1.209" transform="translate(-58.117 -10.804)" fill="none" stroke="#fcf7eb" stroke-linecap="round" stroke-miterlimit="10" stroke-width="4.396"/>
              <path id="Path_8407" data-name="Path 8407" d="M240.772,30.3a31.752,31.752,0,0,0-6.172,1.909" transform="translate(-85.321 -11.02)" fill="#00db96"/>
              <path id="Path_8408" data-name="Path 8408" d="M240.772,30.3a31.752,31.752,0,0,0-6.172,1.909" transform="translate(-85.321 -11.02)" fill="none" stroke="#fcf7eb" stroke-linecap="round" stroke-miterlimit="10" stroke-width="4.396"/>
            </g>
          </g>
        </g>
      </g>
    </g>
  </g>
</svg>
