<svg id="Group_4017" data-name="Group 4017" xmlns="http://www.w3.org/2000/svg" xmlns:xlink="http://www.w3.org/1999/xlink" width="402" height="257.003" viewBox="0 0 402 257.003">
  <defs>
    <clipPath id="clip-path">
      <rect id="Rectangle_120588" data-name="Rectangle 120588" width="402" height="257.003" transform="translate(0 0)" fill="#fdfb76" stroke="#20211b" stroke-width="1"/>
    </clipPath>
    <clipPath id="clip-path-2">
      <rect id="Rectangle_141308" data-name="Rectangle 141308" width="358.373" height="285.025" fill="none"/>
    </clipPath>
    <clipPath id="clip-path-3">
      <path id="Path_127636" data-name="Path 127636" d="M232.366,118.379a8.076,8.076,0,0,0,2.261,11.177c6.331,4.2,16.281,6.267,26.23,6.267s19.9-2.067,26.359-6.267a8.082,8.082,0,0,0-8.786-13.567c-7.624,4.91-27.522,4.91-34.888.065a8.076,8.076,0,0,0-11.177,2.261" transform="translate(-231.025 -114.689)" fill="none"/>
    </clipPath>
  </defs>
  <g id="Group_4016" data-name="Group 4016" transform="translate(0 0)">
    <rect id="Rectangle_120587" data-name="Rectangle 120587" width="402" height="257.003" transform="translate(0)" fill="#fdfb76"/>
    <g id="Mask_Group_3" data-name="Mask Group 3" transform="translate(0 0)" clip-path="url(#clip-path)">
      <g id="Artwork_22" data-name="Artwork 22" transform="translate(201 162.558)">
        <g id="Group_21315" data-name="Group 21315" transform="translate(-179.186 -142.512)">
          <g id="Group_21312" data-name="Group 21312" clip-path="url(#clip-path-2)">
            <path id="Path_127560" data-name="Path 127560" d="M302.274,98.669c0,9.174-25.2,16.669-56.337,16.669S189.6,107.907,189.6,98.669,214.8,82,245.872,82s56.4,7.494,56.4,16.669" transform="translate(-67.106 -29.023)"/>
            <ellipse id="Ellipse_1013" data-name="Ellipse 1013" cx="56.337" cy="16.669" rx="56.337" ry="16.669" transform="translate(122.43 52.977)" fill="none" stroke="#000" stroke-miterlimit="10" stroke-width="0.646"/>
            <path id="Path_127561" data-name="Path 127561" d="M486.858,400.846c1.68,2.52,11.629-1.1,22.225-8.205s17.831-14.859,16.087-17.379-11.629,1.1-22.225,8.205-17.831,14.86-16.087,17.379" transform="translate(-172.224 -132.535)"/>
            <path id="Path_127562" data-name="Path 127562" d="M486.866,400.846c1.68,2.52,11.629-1.1,22.225-8.205s17.831-14.859,16.087-17.379-11.629,1.1-22.225,8.205S485.187,398.261,486.866,400.846Z" transform="translate(-172.232 -132.535)" fill="none" stroke="#000" stroke-miterlimit="10" stroke-width="0.646"/>
            <path id="Path_127563" data-name="Path 127563" d="M529.192,394.309l.129-.517.194-.84v-.969a6.271,6.271,0,0,0,.065-1.1,12.469,12.469,0,0,0-12.469-12.469c-4.2,0-10.983-2.713-13.244.517-.517-.065.258.9-.258.9-6.654,0-10.208,9.239-10.208,15.893a12.017,12.017,0,0,0,18.671,10.014l.9.194a20.8,20.8,0,0,0,3.424.129c5.621-.323,10.919-5.621,12.6-11.306l.129-.323" transform="translate(-174.631 -133.557)" fill="#ff3c1d"/>
            <path id="Path_127564" data-name="Path 127564" d="M529.192,394.309l.129-.517.194-.84v-.969a6.271,6.271,0,0,0,.065-1.1,12.469,12.469,0,0,0-12.469-12.469c-4.2,0-10.983-2.713-13.244.517-.517-.065.258.9-.258.9-6.654,0-10.208,9.239-10.208,15.893a12.017,12.017,0,0,0,18.671,10.014l.9.194a20.8,20.8,0,0,0,3.424.129c5.621-.323,10.919-5.621,12.6-11.306Z" transform="translate(-174.631 -133.557)" fill="none" stroke="#000" stroke-miterlimit="10" stroke-width="0.646"/>
            <path id="Path_127565" data-name="Path 127565" d="M517.4,408.716a20.739,20.739,0,0,1-3.424-.129h0l-.9-.194A12.017,12.017,0,0,1,494.4,398.379a22.809,22.809,0,0,1,.84-5.879,23.194,23.194,0,0,0-1.744,8.528,12.017,12.017,0,0,0,18.671,10.014l.9.194a20.8,20.8,0,0,0,3.424.129c5.621-.323,10.919-5.621,12.6-11.306l.129-.323.129-.517h0c-2.2,4.975-6.913,9.239-11.952,9.562" transform="translate(-174.666 -138.919)"/>
            <path id="Path_127566" data-name="Path 127566" d="M517.4,408.716a20.739,20.739,0,0,1-3.424-.129h0l-.9-.194A12.017,12.017,0,0,1,494.4,398.379a22.809,22.809,0,0,1,.84-5.879,23.194,23.194,0,0,0-1.744,8.528,12.017,12.017,0,0,0,18.671,10.014l.9.194a20.8,20.8,0,0,0,3.424.129c5.621-.323,10.919-5.621,12.6-11.306l.129-.323.129-.517h0C527.16,404.129,522.444,408.458,517.4,408.716Z" transform="translate(-174.666 -138.919)" fill="none" stroke="#000" stroke-miterlimit="10" stroke-width="0.646"/>
            <path id="Path_127567" data-name="Path 127567" d="M515.6,405.471c-1.874-1.034-3.683-3.295-4.2-7.171,2.326,3.553,4.006,5.233,6.331,5.815s-.517,1.615-.517,1.615l-1.68-.323" transform="translate(-181.002 -140.972)"/>
            <path id="Path_127568" data-name="Path 127568" d="M515.6,405.471c-1.874-1.034-3.683-3.295-4.2-7.171,2.326,3.553,4.006,5.233,6.331,5.815s-.517,1.615-.517,1.615l-1.68-.323" transform="translate(-181.002 -140.972)" fill="none" stroke="#000" stroke-linecap="round" stroke-miterlimit="10" stroke-width="0.646"/>
            <path id="Path_127569" data-name="Path 127569" d="M515.788,420.189c3.424,4.458,4.716,9.239,2.778,10.725s-6.2-.969-9.691-5.427-4.716-9.239-2.778-10.725,6.2.969,9.691,5.427" transform="translate(-178.8 -146.645)" fill="#ff3c1d"/>
            <path id="Path_127570" data-name="Path 127570" d="M515.788,420.189c3.424,4.458,4.716,9.239,2.778,10.725s-6.2-.969-9.691-5.427-4.716-9.239-2.778-10.725S512.3,415.731,515.788,420.189Z" transform="translate(-178.8 -146.645)" fill="none" stroke="#000" stroke-miterlimit="10" stroke-width="0.646"/>
            <path id="Path_127571" data-name="Path 127571" d="M518.58,426.854c.258,1.551,0,2.778-.775,3.36-1.874,1.486-6.2-.969-9.691-5.427A21.323,21.323,0,0,1,505.4,420.2a18.148,18.148,0,0,0,3.553,7.365c3.424,4.458,7.753,6.913,9.691,5.427s1.1-3.36-.065-6.138" transform="translate(-178.878 -148.723)"/>
            <path id="Path_127572" data-name="Path 127572" d="M518.58,426.854c.258,1.551,0,2.778-.775,3.36-1.874,1.486-6.2-.969-9.691-5.427A21.323,21.323,0,0,1,505.4,420.2a18.148,18.148,0,0,0,3.553,7.365c3.424,4.458,7.753,6.913,9.691,5.427S519.743,429.633,518.58,426.854Z" transform="translate(-178.878 -148.723)" fill="none" stroke="#000" stroke-linejoin="round" stroke-width="0.646"/>
            <path id="Path_127573" data-name="Path 127573" d="M524.687,415.959c4.2,5.427,5.944,11.112,3.941,12.663s-7.042-1.551-11.242-6.978-5.944-11.112-3.941-12.663,7.042,1.551,11.242,6.978" transform="translate(-181.432 -144.611)" fill="#ff3c1d"/>
            <path id="Path_127574" data-name="Path 127574" d="M524.687,415.959c4.2,5.427,5.944,11.112,3.941,12.663s-7.042-1.551-11.242-6.978-5.944-11.112-3.941-12.663S520.488,410.532,524.687,415.959Z" transform="translate(-181.432 -144.611)" fill="none" stroke="#000" stroke-miterlimit="10" stroke-width="0.646"/>
            <path id="Path_127575" data-name="Path 127575" d="M528.564,424.485c.323,1.615.065,2.907-.711,3.489-2,1.551-7.042-1.551-11.242-6.977a28.23,28.23,0,0,1-3.812-6.4,22.707,22.707,0,0,0,4.652,9.174c4.2,5.427,9.239,8.593,11.242,6.977s1.034-3.295-.129-6.267" transform="translate(-181.497 -146.741)"/>
            <path id="Path_127576" data-name="Path 127576" d="M528.564,424.485c.323,1.615.065,2.907-.711,3.489-2,1.551-7.042-1.551-11.242-6.977a28.23,28.23,0,0,1-3.812-6.4,22.707,22.707,0,0,0,4.652,9.174c4.2,5.427,9.239,8.593,11.242,6.977S529.727,427.392,528.564,424.485Z" transform="translate(-181.497 -146.741)" fill="none" stroke="#000" stroke-linejoin="round" stroke-width="0.646"/>
            <path id="Path_127577" data-name="Path 127577" d="M536.178,412.388c3.424,4.393,4.587,9.174,2.649,10.66s-6.267-.84-9.691-5.233-4.587-9.174-2.649-10.66,6.267.84,9.691,5.233" transform="translate(-186.01 -143.947)" fill="#ff3c1d"/>
            <path id="Path_127578" data-name="Path 127578" d="M536.178,412.388c3.424,4.393,4.587,9.174,2.649,10.66s-6.267-.84-9.691-5.233-4.587-9.174-2.649-10.66S532.754,407.994,536.178,412.388Z" transform="translate(-186.01 -143.947)" fill="none" stroke="#000" stroke-miterlimit="10" stroke-width="0.646"/>
            <path id="Path_127579" data-name="Path 127579" d="M538.88,419.038c.258,1.615,0,2.843-.84,3.489-1.938,1.486-6.267-.84-9.691-5.233A20.48,20.48,0,0,1,525.7,412.9a17.057,17.057,0,0,0,3.489,7.171c3.424,4.393,7.753,6.784,9.691,5.233s1.228-3.424,0-6.267" transform="translate(-186.063 -146.139)"/>
            <path id="Path_127580" data-name="Path 127580" d="M538.88,419.038c.258,1.615,0,2.843-.84,3.489-1.938,1.486-6.267-.84-9.691-5.233A20.48,20.48,0,0,1,525.7,412.9a17.057,17.057,0,0,0,3.489,7.171c3.424,4.393,7.753,6.784,9.691,5.233S540.043,421.816,538.88,419.038Z" transform="translate(-186.063 -146.139)" fill="none" stroke="#000" stroke-linejoin="round" stroke-width="0.646"/>
            <path id="Path_127581" data-name="Path 127581" d="M543.643,403.608c3.166,4.135,4.264,8.593,2.391,10.014s-5.879-.775-9.045-4.845-4.264-8.593-2.391-10.014,5.879.775,9.045,4.845" transform="translate(-188.888 -140.982)" fill="#ff3c1d"/>
            <path id="Path_127582" data-name="Path 127582" d="M543.643,403.6c3.166,4.135,4.264,8.593,2.391,10.014s-5.879-.775-9.045-4.845-4.264-8.593-2.391-10.014S540.477,399.47,543.643,403.6Z" transform="translate(-188.888 -140.979)" fill="none" stroke="#000" stroke-miterlimit="10" stroke-width="0.646"/>
            <path id="Path_127583" data-name="Path 127583" d="M546.075,409.592c.258,1.486,0,2.649-.84,3.295-1.809,1.421-5.879-.775-9.045-4.846a18.992,18.992,0,0,1-2.39-3.941,15.7,15.7,0,0,0,3.23,6.719c3.166,4.135,7.236,6.267,9.045,4.846s1.163-3.295,0-6.008" transform="translate(-188.93 -143.025)"/>
            <path id="Path_127584" data-name="Path 127584" d="M546.075,409.592c.258,1.486,0,2.649-.84,3.295-1.809,1.421-5.879-.775-9.045-4.846a18.992,18.992,0,0,1-2.39-3.941,15.7,15.7,0,0,0,3.23,6.719c3.166,4.135,7.236,6.267,9.045,4.846S547.238,412.305,546.075,409.592Z" transform="translate(-188.93 -143.025)" fill="none" stroke="#000" stroke-linejoin="round" stroke-width="0.646"/>
            <path id="Path_127585" data-name="Path 127585" d="M525.492,378.9a12.469,12.469,0,0,1,12.469,12.469c0,6.913-6.331,14.73-13.244,15.118a20.737,20.737,0,0,1-3.424-.129h0a5.169,5.169,0,0,1,.517-10.272,4.975,4.975,0,0,0,5.168-3.876" transform="translate(-182.948 -134.106)" fill="#ff3c1d"/>
            <path id="Path_127586" data-name="Path 127586" d="M525.492,378.9a12.469,12.469,0,0,1,12.469,12.469c0,6.913-6.331,14.73-13.244,15.118a20.737,20.737,0,0,1-3.424-.129h0a5.169,5.169,0,0,1,.517-10.272,4.975,4.975,0,0,0,5.168-3.876" transform="translate(-182.948 -134.106)" fill="none" stroke="#000" stroke-linecap="round" stroke-miterlimit="10" stroke-width="0.646"/>
            <path id="Path_127587" data-name="Path 127587" d="M537.145,391.729a12.538,12.538,0,0,1,.129,1.68c0,6.913-6.331,14.73-13.244,15.118a20.737,20.737,0,0,1-3.424-.129h0a5.168,5.168,0,0,1-4.006-2.714h0a5.169,5.169,0,0,0,4.587,5.1,20.809,20.809,0,0,0,3.424.129c6.913-.388,13.244-8.205,13.244-15.118a12.471,12.471,0,0,0-.711-4.2" transform="translate(-182.842 -138.601)"/>
            <path id="Path_127588" data-name="Path 127588" d="M537.145,391.8a12.538,12.538,0,0,1,.129,1.68c0,6.913-6.331,14.73-13.244,15.118a20.737,20.737,0,0,1-3.424-.129h0a5.168,5.168,0,0,1-4.006-2.714h0a5.169,5.169,0,0,0,4.587,5.1,20.809,20.809,0,0,0,3.424.129c6.913-.388,13.244-8.205,13.244-15.118A12.47,12.47,0,0,0,537.145,391.8Z" transform="translate(-182.842 -138.671)" fill="none" stroke="#000" stroke-linecap="round" stroke-linejoin="round" stroke-width="0.646"/>
            <path id="Path_127589" data-name="Path 127589" d="M455.512,312.381c10.531-7.042,20.416-10.66,22.225-8.205h0L390.776,173.8,352.4,199.384,439.36,329.76h0c-1.615-2.584,5.621-10.337,16.152-17.315" transform="translate(-124.726 -61.514)" fill="#fdfb76"/>
            <path id="Path_127590" data-name="Path 127590" d="M455.512,312.381c10.531-7.042,20.416-10.66,22.225-8.205h0L390.776,173.8,352.4,199.384,439.36,329.76h0C437.745,327.176,444.981,319.423,455.512,312.381Z" transform="translate(-124.726 -61.514)" fill="none" stroke="#000" stroke-miterlimit="10" stroke-width="0.646"/>
            <path id="Path_127591" data-name="Path 127591" d="M444.4,321.168l-86.573-119.2,34.823-25.326-1.874-2.843L352.4,199.384,439.36,329.76h0c-.9-1.486,1.1-4.716,5.039-8.593" transform="translate(-124.726 -61.514)"/>
            <path id="Path_127592" data-name="Path 127592" d="M444.4,321.168l-86.573-119.2,34.823-25.326-1.874-2.843L352.4,199.384,439.36,329.76h0C438.456,328.274,440.459,324.979,444.4,321.168Z" transform="translate(-124.726 -61.514)" fill="none" stroke="#000" stroke-miterlimit="10" stroke-width="0.646"/>
            <path id="Path_127593" data-name="Path 127593" d="M545.1,374.629a1.615,1.615,0,0,1,.775.581h0l-.452-.711-.323.129" transform="translate(-192.929 -132.548)"/>
            <path id="Path_127594" data-name="Path 127594" d="M545.1,374.629a1.615,1.615,0,0,1,.775.581h0l-.452-.711Z" transform="translate(-192.929 -132.548)" fill="none" stroke="#000" stroke-miterlimit="10" stroke-width="0.646"/>
            <path id="Path_127595" data-name="Path 127595" d="M46.57,400.846c-1.68,2.52-11.629-1.1-22.225-8.205S6.513,377.781,8.258,375.262s11.629,1.1,22.225,8.205,17.831,14.86,16.087,17.379" transform="translate(-2.831 -132.535)"/>
            <path id="Path_127596" data-name="Path 127596" d="M46.57,400.846c-1.68,2.52-11.629-1.1-22.225-8.205S6.513,377.781,8.258,375.262s11.629,1.1,22.225,8.205S48.249,398.261,46.57,400.846Z" transform="translate(-2.831 -132.535)" fill="none" stroke="#000" stroke-miterlimit="10" stroke-width="0.646"/>
            <path id="Path_127597" data-name="Path 127597" d="M5.688,394.309l-.129-.517-.194-.84v-.969a6.268,6.268,0,0,1-.065-1.1,12.469,12.469,0,0,1,12.469-12.469c4.2,0,10.983-2.713,13.244.517.517-.065-.258.9.258.9,6.654,0,10.208,9.239,10.208,15.893a12.017,12.017,0,0,1-18.671,10.014l-.9.194h0a20.736,20.736,0,0,1-3.424.129c-5.621-.323-10.919-5.621-12.6-11.306l-.129-.323" transform="translate(-1.876 -133.557)" fill="#ff3c1d"/>
            <path id="Path_127598" data-name="Path 127598" d="M5.688,394.309l-.129-.517-.194-.84v-.969a6.268,6.268,0,0,1-.065-1.1,12.469,12.469,0,0,1,12.469-12.469c4.2,0,10.983-2.713,13.244.517.517-.065-.258.9.258.9,6.654,0,10.208,9.239,10.208,15.893a12.017,12.017,0,0,1-18.671,10.014l-.9.194h0a20.736,20.736,0,0,1-3.424.129c-5.621-.323-10.919-5.621-12.6-11.306Z" transform="translate(-1.876 -133.557)" fill="none" stroke="#000" stroke-miterlimit="10" stroke-width="0.646"/>
            <path id="Path_127599" data-name="Path 127599" d="M17.652,408.716a20.673,20.673,0,0,0,3.424-.129h0l.9-.194a12.017,12.017,0,0,0,18.671-10.014,22.806,22.806,0,0,0-.84-5.879,23.194,23.194,0,0,1,1.744,8.528,12.017,12.017,0,0,1-18.671,10.014l-.9.194h0a20.743,20.743,0,0,1-3.424.129c-5.621-.323-10.919-5.621-12.6-11.306l-.129-.323-.129-.517h0c2.2,4.975,6.913,9.239,11.952,9.562" transform="translate(-2.017 -138.919)"/>
            <path id="Path_127600" data-name="Path 127600" d="M17.652,408.716a20.673,20.673,0,0,0,3.424-.129h0l.9-.194a12.017,12.017,0,0,0,18.671-10.014,22.806,22.806,0,0,0-.84-5.879,23.194,23.194,0,0,1,1.744,8.528,12.017,12.017,0,0,1-18.671,10.014l-.9.194h0a20.743,20.743,0,0,1-3.424.129c-5.621-.323-10.919-5.621-12.6-11.306l-.129-.323-.129-.517h0C7.9,404.129,12.613,408.458,17.652,408.716Z" transform="translate(-2.017 -138.919)" fill="none" stroke="#000" stroke-miterlimit="10" stroke-width="0.646"/>
            <path id="Path_127601" data-name="Path 127601" d="M35.231,405.471c1.874-1.034,3.683-3.295,4.2-7.171-2.326,3.553-4.006,5.233-6.331,5.815s.517,1.615.517,1.615l1.68-.323" transform="translate(-11.391 -140.972)"/>
            <path id="Path_127602" data-name="Path 127602" d="M35.231,405.471c1.874-1.034,3.683-3.295,4.2-7.171-2.326,3.553-4.006,5.233-6.331,5.815s.517,1.615.517,1.615l1.68-.323" transform="translate(-11.391 -140.972)" fill="none" stroke="#000" stroke-linecap="round" stroke-miterlimit="10" stroke-width="0.646"/>
            <path id="Path_127603" data-name="Path 127603" d="M31.183,420.189c-3.424,4.458-4.716,9.239-2.778,10.725s6.2-.969,9.691-5.427,4.716-9.239,2.778-10.725-6.2.969-9.691,5.427" transform="translate(-9.733 -146.645)" fill="#ff3c1d"/>
            <path id="Path_127604" data-name="Path 127604" d="M31.183,420.189c-3.424,4.458-4.716,9.239-2.778,10.725s6.2-.969,9.691-5.427,4.716-9.239,2.778-10.725S34.607,415.731,31.183,420.189Z" transform="translate(-9.733 -146.645)" fill="none" stroke="#000" stroke-miterlimit="10" stroke-width="0.646"/>
            <path id="Path_127605" data-name="Path 127605" d="M28.232,426.854c-.258,1.551,0,2.778.775,3.36,1.874,1.486,6.2-.969,9.691-5.427a21.257,21.257,0,0,0,2.713-4.587,18.149,18.149,0,0,1-3.553,7.365c-3.424,4.458-7.753,6.913-9.691,5.427s-1.1-3.36.065-6.138" transform="translate(-9.561 -148.723)"/>
            <path id="Path_127606" data-name="Path 127606" d="M28.232,426.854c-.258,1.551,0,2.778.775,3.36,1.874,1.486,6.2-.969,9.691-5.427a21.257,21.257,0,0,0,2.713-4.587,18.149,18.149,0,0,1-3.553,7.365c-3.424,4.458-7.753,6.913-9.691,5.427S27.069,429.633,28.232,426.854Z" transform="translate(-9.561 -148.723)" fill="none" stroke="#000" stroke-linejoin="round" stroke-width="0.646"/>
            <path id="Path_127607" data-name="Path 127607" d="M20.787,415.959c-4.2,5.427-5.944,11.112-3.941,12.663s7.042-1.551,11.242-6.978,5.944-11.112,3.941-12.663-7.042,1.551-11.242,6.978" transform="translate(-5.669 -144.611)" fill="#ff3c1d"/>
            <path id="Path_127608" data-name="Path 127608" d="M20.787,415.959c-4.2,5.427-5.944,11.112-3.941,12.663s7.042-1.551,11.242-6.978,5.944-11.112,3.941-12.663S24.986,410.532,20.787,415.959Z" transform="translate(-5.669 -144.611)" fill="none" stroke="#000" stroke-miterlimit="10" stroke-width="0.646"/>
            <path id="Path_127609" data-name="Path 127609" d="M16.8,424.485c-.323,1.615-.065,2.907.711,3.489,2,1.551,7.042-1.551,11.242-6.977a28.234,28.234,0,0,0,3.812-6.4,22.707,22.707,0,0,1-4.652,9.174c-4.2,5.427-9.239,8.593-11.242,6.978s-1.034-3.295.129-6.267" transform="translate(-5.489 -146.741)"/>
            <path id="Path_127610" data-name="Path 127610" d="M16.8,424.485c-.323,1.615-.065,2.907.711,3.489,2,1.551,7.042-1.551,11.242-6.977a28.234,28.234,0,0,0,3.812-6.4,22.707,22.707,0,0,1-4.652,9.174c-4.2,5.427-9.239,8.593-11.242,6.978S15.633,427.392,16.8,424.485Z" transform="translate(-5.489 -146.741)" fill="none" stroke="#000" stroke-linejoin="round" stroke-width="0.646"/>
            <path id="Path_127611" data-name="Path 127611" d="M10.736,412.388c-3.424,4.393-4.587,9.174-2.649,10.66s6.267-.84,9.691-5.233,4.587-9.174,2.649-10.66-6.267.84-9.691,5.233" transform="translate(-2.531 -143.947)" fill="#ff3c1d"/>
            <path id="Path_127612" data-name="Path 127612" d="M10.736,412.388c-3.424,4.393-4.587,9.174-2.649,10.66s6.267-.84,9.691-5.233,4.587-9.174,2.649-10.66S14.16,407.994,10.736,412.388Z" transform="translate(-2.531 -143.947)" fill="none" stroke="#000" stroke-miterlimit="10" stroke-width="0.646"/>
            <path id="Path_127613" data-name="Path 127613" d="M8.042,419.038c-.258,1.615,0,2.843.84,3.489,1.938,1.486,6.267-.84,9.691-5.233a20.481,20.481,0,0,0,2.649-4.393,17.056,17.056,0,0,1-3.489,7.171c-3.424,4.393-7.753,6.784-9.691,5.233s-1.228-3.424,0-6.267" transform="translate(-2.421 -146.139)"/>
            <path id="Path_127614" data-name="Path 127614" d="M8.042,419.038c-.258,1.615,0,2.843.84,3.489,1.938,1.486,6.267-.84,9.691-5.233a20.481,20.481,0,0,0,2.649-4.393,17.056,17.056,0,0,1-3.489,7.171c-3.424,4.393-7.753,6.784-9.691,5.233S6.814,421.816,8.042,419.038Z" transform="translate(-2.421 -146.139)" fill="none" stroke="#000" stroke-linejoin="round" stroke-width="0.646"/>
            <path id="Path_127615" data-name="Path 127615" d="M3.788,403.573c-3.166,4.07-4.264,8.528-2.39,9.949s5.879-.775,9.045-4.846,4.264-8.593,2.39-10.014-5.879.775-9.045,4.845" transform="translate(-0.17 -140.947)" fill="#ff3c1d"/>
            <path id="Path_127616" data-name="Path 127616" d="M3.788,403.573c-3.166,4.07-4.264,8.528-2.39,9.949s5.879-.775,9.045-4.846,4.264-8.593,2.39-10.014S6.954,399.438,3.788,403.573Z" transform="translate(-0.17 -140.947)" fill="none" stroke="#000" stroke-miterlimit="10" stroke-width="0.646"/>
            <path id="Path_127617" data-name="Path 127617" d="M1.282,409.592c-.258,1.486,0,2.649.84,3.295,1.809,1.421,5.879-.775,9.045-4.846a18.929,18.929,0,0,0,2.39-3.941,15.7,15.7,0,0,1-3.23,6.719c-3.166,4.135-7.236,6.267-9.045,4.846s-1.163-3.295,0-6.008" transform="translate(-0.055 -143.025)"/>
            <path id="Path_127618" data-name="Path 127618" d="M1.282,409.592c-.258,1.486,0,2.649.84,3.295,1.809,1.421,5.879-.775,9.045-4.846a18.929,18.929,0,0,0,2.39-3.941,15.7,15.7,0,0,1-3.23,6.719c-3.166,4.135-7.236,6.267-9.045,4.846S.119,412.305,1.282,409.592Z" transform="translate(-0.055 -143.025)" fill="none" stroke="#000" stroke-linejoin="round" stroke-width="0.646"/>
            <path id="Path_127619" data-name="Path 127619" d="M17.669,378.9A12.469,12.469,0,0,0,5.2,391.434c0,6.913,6.331,14.73,13.244,15.118a20.736,20.736,0,0,0,3.424-.129h0a5.169,5.169,0,0,0-.517-10.272,4.975,4.975,0,0,1-5.169-3.876" transform="translate(-1.84 -134.106)" fill="#ff3c1d"/>
            <path id="Path_127620" data-name="Path 127620" d="M17.669,378.9A12.469,12.469,0,0,0,5.2,391.434c0,6.913,6.331,14.73,13.244,15.118a20.736,20.736,0,0,0,3.424-.129h0a5.169,5.169,0,0,0-.517-10.272,4.975,4.975,0,0,1-5.169-3.876" transform="translate(-1.84 -134.106)" fill="none" stroke="#000" stroke-linecap="round" stroke-miterlimit="10" stroke-width="0.646"/>
            <path id="Path_127621" data-name="Path 127621" d="M5.911,391.8a12.533,12.533,0,0,0-.129,1.68c0,6.913,6.331,14.73,13.244,15.118a20.736,20.736,0,0,0,3.424-.129h0a5.169,5.169,0,0,0,4.006-2.713h0a5.169,5.169,0,0,1-4.587,5.1h0a20.739,20.739,0,0,1-3.424.129C11.467,410.73,5.2,402.912,5.2,396a12.469,12.469,0,0,1,.711-4.2" transform="translate(-1.84 -138.671)"/>
            <path id="Path_127622" data-name="Path 127622" d="M5.911,391.8a12.533,12.533,0,0,0-.129,1.68c0,6.913,6.331,14.73,13.244,15.118a20.736,20.736,0,0,0,3.424-.129h0a5.169,5.169,0,0,0,4.006-2.713h0a5.169,5.169,0,0,1-4.587,5.1h0a20.739,20.739,0,0,1-3.424.129C11.467,410.73,5.2,402.912,5.2,396a12.469,12.469,0,0,1,.711-4.2Z" transform="translate(-1.84 -138.671)" fill="none" stroke="#000" stroke-linecap="round" stroke-linejoin="round" stroke-width="0.646"/>
            <path id="Path_127623" data-name="Path 127623" d="M30.525,312.381c-10.531-7.042-20.416-10.66-22.225-8.205h0L95.26,173.8l38.376,25.584L46.676,329.76h0c1.615-2.584-5.621-10.337-16.152-17.315" transform="translate(-2.938 -61.514)" fill="#fdfb76"/>
            <path id="Path_127624" data-name="Path 127624" d="M30.525,312.381c-10.531-7.042-20.416-10.66-22.225-8.205h0L95.26,173.8l38.376,25.584L46.676,329.76h0C48.291,327.176,41.056,319.423,30.525,312.381Z" transform="translate(-2.938 -61.514)" fill="none" stroke="#000" stroke-miterlimit="10" stroke-width="0.646"/>
            <path id="Path_127625" data-name="Path 127625" d="M59.9,321.168l86.573-119.2L111.65,176.643l1.874-2.843L151.9,199.384,64.939,329.76h0c.9-1.486-1.1-4.716-5.039-8.593" transform="translate(-21.201 -61.514)"/>
            <path id="Path_127626" data-name="Path 127626" d="M59.9,321.168l86.573-119.2L111.65,176.643l1.874-2.843L151.9,199.384,64.939,329.76h0C65.844,328.274,63.841,324.979,59.9,321.168Z" transform="translate(-21.201 -61.514)" fill="none" stroke="#000" stroke-miterlimit="10" stroke-width="0.646"/>
            <path id="Path_127627" data-name="Path 127627" d="M9.175,374.629a1.615,1.615,0,0,0-.775.581h0l.452-.711.323.129" transform="translate(-2.973 -132.548)"/>
            <path id="Path_127628" data-name="Path 127628" d="M9.175,374.629a1.615,1.615,0,0,0-.775.581h0l.452-.711Z" transform="translate(-2.973 -132.548)" fill="none" stroke="#000" stroke-miterlimit="10" stroke-width="0.646"/>
            <path id="Path_127629" data-name="Path 127629" d="M248.59,8h0A52.59,52.59,0,0,0,196,60.59V95.477H301.18V60.59A52.59,52.59,0,0,0,248.59,8" transform="translate(-69.371 -2.831)" fill="#ff3c1d"/>
            <path id="Path_127630" data-name="Path 127630" d="M248.59,8h0A52.59,52.59,0,0,0,196,60.59V95.477H301.18V60.59A52.59,52.59,0,0,0,248.59,8Z" transform="translate(-69.371 -2.831)" fill="none" stroke="#000" stroke-miterlimit="10" stroke-width="0.646"/>
            <path id="Path_127631" data-name="Path 127631" d="M258.686,137.9c-10.854,0-21.708-2.326-28.75-7.042a12.6,12.6,0,0,1,13.89-21c2.132,1.421,7.624,2.907,14.795,2.907h.065c7.236,0,12.921-1.551,15.053-2.972a12.616,12.616,0,1,1,13.7,21.191c-7.171,4.652-17.961,6.978-28.75,6.978" transform="translate(-79.532 -38.144)"/>
            <path id="Path_127632" data-name="Path 127632" d="M258.686,137.9c-10.854,0-21.708-2.326-28.75-7.042a12.6,12.6,0,0,1,13.89-21c2.132,1.421,7.624,2.907,14.795,2.907h.065c7.236,0,12.921-1.551,15.053-2.972a12.616,12.616,0,1,1,13.7,21.191C280.264,135.57,269.475,137.9,258.686,137.9Z" transform="translate(-79.532 -38.144)" fill="none" stroke="#000" stroke-miterlimit="10" stroke-width="0.646"/>
            <path id="Path_127633" data-name="Path 127633" d="M260.94,135.822c-9.949,0-19.9-2.067-26.23-6.267a8.09,8.09,0,0,1,8.916-13.5c7.43,4.91,27.329,4.845,34.888-.065a8.082,8.082,0,1,1,8.787,13.567c-6.461,4.135-16.41,6.267-26.295,6.267" transform="translate(-81.786 -40.592)" fill="#fff"/>
            <path id="Path_127634" data-name="Path 127634" d="M260.94,135.822c-9.949,0-19.9-2.067-26.23-6.267a8.09,8.09,0,0,1,8.916-13.5c7.43,4.91,27.329,4.845,34.888-.065a8.082,8.082,0,1,1,8.787,13.567C280.774,133.755,270.825,135.822,260.94,135.822Z" transform="translate(-81.786 -40.592)" fill="none" stroke="#000" stroke-miterlimit="10" stroke-width="0.646"/>
            <path id="Path_127635" data-name="Path 127635" d="M260.94,135.822c-9.949,0-19.9-2.067-26.23-6.267a8.09,8.09,0,0,1,8.916-13.5c7.43,4.91,27.329,4.845,34.888-.065a8.082,8.082,0,1,1,8.787,13.567c-6.461,4.135-16.41,6.267-26.295,6.267" transform="translate(-81.786 -40.592)" fill="#fcf7eb"/>
          </g>
          <g id="Group_21313" data-name="Group 21313" transform="translate(149.258 74.097)" clip-path="url(#clip-path-3)">
            <rect id="Rectangle_141309" data-name="Rectangle 141309" width="10.919" height="27.871" transform="translate(40.88 -2.189)" fill="#fcf7eb"/>
            <rect id="Rectangle_141310" data-name="Rectangle 141310" width="10.919" height="27.871" transform="translate(40.88 -2.189)" fill="none" stroke="#000" stroke-miterlimit="10" stroke-width="0.646"/>
            <rect id="Rectangle_141311" data-name="Rectangle 141311" width="10.919" height="27.871" transform="translate(29.961 -2.189)" fill="#fcf7eb"/>
            <rect id="Rectangle_141312" data-name="Rectangle 141312" width="10.919" height="27.871" transform="translate(29.961 -2.189)" fill="none" stroke="#000" stroke-miterlimit="10" stroke-width="0.646"/>
            <rect id="Rectangle_141313" data-name="Rectangle 141313" width="10.919" height="27.871" transform="translate(18.978 -2.189)" fill="#fcf7eb"/>
            <rect id="Rectangle_141314" data-name="Rectangle 141314" width="10.919" height="27.871" transform="translate(18.978 -2.189)" fill="none" stroke="#000" stroke-miterlimit="10" stroke-width="0.646"/>
            <rect id="Rectangle_141315" data-name="Rectangle 141315" width="10.919" height="27.871" transform="translate(8.059 -2.189)" fill="#fcf7eb"/>
            <rect id="Rectangle_141316" data-name="Rectangle 141316" width="10.919" height="27.871" transform="translate(8.059 -2.189)" fill="none" stroke="#000" stroke-miterlimit="10" stroke-width="0.646"/>
          </g>
          <g id="Group_21314" data-name="Group 21314" clip-path="url(#clip-path-2)">
            <path id="Path_127637" data-name="Path 127637" d="M260.94,135.822c-9.949,0-19.9-2.067-26.23-6.267a8.09,8.09,0,0,1,8.916-13.5c7.43,4.91,27.329,4.845,34.888-.065a8.082,8.082,0,1,1,8.787,13.567C280.774,133.755,270.825,135.822,260.94,135.822Z" transform="translate(-81.786 -40.592)" fill="none" stroke="#000" stroke-miterlimit="10" stroke-width="0.646"/>
            <path id="Path_127638" data-name="Path 127638" d="M248.067,60.314c24.421,0,45.16,4.587,52.977,10.983V60.572a52.622,52.622,0,1,0-105.244,0V70.651c8.4-6.073,28.621-10.4,52.2-10.4" transform="translate(-69.3 -2.814)"/>
            <path id="Path_127639" data-name="Path 127639" d="M248.067,60.314c24.421,0,45.16,4.587,52.977,10.983V60.572a52.622,52.622,0,1,0-105.244,0V70.651C204.263,64.578,224.485,60.314,248.067,60.314Z" transform="translate(-69.3 -2.814)" fill="none" stroke="#000" stroke-miterlimit="10" stroke-width="0.646"/>
            <path id="Path_127640" data-name="Path 127640" d="M294.11,14.132A56.725,56.725,0,0,0,257.155.5h0A56.725,56.725,0,0,0,220.2,14.132a31.851,31.851,0,0,1,30.365,31.916,32.3,32.3,0,0,1-.84,7.236l7.43-.129,7.43.129a32.24,32.24,0,0,1-.84-7.236A31.851,31.851,0,0,1,294.11,14.132" transform="translate(-77.936 -0.177)" fill="#8e0bfa"/>
            <path id="Path_127641" data-name="Path 127641" d="M294.11,14.132A56.725,56.725,0,0,0,257.155.5h0A56.725,56.725,0,0,0,220.2,14.132a31.851,31.851,0,0,1,30.365,31.916,32.3,32.3,0,0,1-.84,7.236l7.43-.129,7.43.129a32.24,32.24,0,0,1-.84-7.236A31.851,31.851,0,0,1,294.11,14.132Z" transform="translate(-77.936 -0.177)" fill="none" stroke="#000" stroke-miterlimit="10" stroke-width="0.646"/>
            <path id="Path_127642" data-name="Path 127642" d="M209.263,21.6A56.789,56.789,0,0,0,189.3,64.886V79.358h.065a7.366,7.366,0,0,1,.581-2.132c.065-8.463,21.32-15.441,48.907-16.475a32.305,32.305,0,0,0,.775-7.236A31.851,31.851,0,0,0,209.263,21.6" transform="translate(-67 -7.645)" fill="#00db96"/>
            <path id="Path_127643" data-name="Path 127643" d="M209.263,21.6A56.789,56.789,0,0,0,189.3,64.886V79.358h.065a7.366,7.366,0,0,1,.581-2.132c.065-8.463,21.32-15.441,48.907-16.475a32.305,32.305,0,0,0,.775-7.236A31.851,31.851,0,0,0,209.263,21.6Z" transform="translate(-67 -7.645)" fill="none" stroke="#000" stroke-miterlimit="10" stroke-width="0.646"/>
            <path id="Path_127644" data-name="Path 127644" d="M317.965,21.6A31.851,31.851,0,0,0,287.6,53.516a32.239,32.239,0,0,0,.84,7.236c27.587,1.1,48.907,8.076,48.907,16.475a7.366,7.366,0,0,1,.581,2.132h.065V64.886A56.789,56.789,0,0,0,318.03,21.6" transform="translate(-101.791 -7.645)" fill="#00db96"/>
            <path id="Path_127645" data-name="Path 127645" d="M317.965,21.6A31.851,31.851,0,0,0,287.6,53.515a32.239,32.239,0,0,0,.84,7.236c27.587,1.1,48.907,8.076,48.907,16.475a7.366,7.366,0,0,1,.581,2.132h.065V64.886A56.79,56.79,0,0,0,317.964,21.6Z" transform="translate(-101.791 -7.645)" fill="none" stroke="#000" stroke-miterlimit="10" stroke-width="0.646"/>
            <path id="Path_127646" data-name="Path 127646" d="M282.3,97.146,271.383,104.9,260.4,97.146,263.307,85h16.087Z" transform="translate(-92.164 -30.084)"/>
            <path id="Path_127647" data-name="Path 127647" d="M282.3,97.146,271.383,104.9,260.4,97.146,263.307,85h16.087Z" transform="translate(-92.164 -30.084)" fill="none" stroke="#000" stroke-miterlimit="10" stroke-width="0.646"/>
            <path id="Path_127648" data-name="Path 127648" d="M282.045,93.635l-10.272,7.236L261.5,93.635,264.214,82.2h15.053Z" transform="translate(-92.554 -29.093)" fill="#8e0bfa"/>
            <path id="Path_127649" data-name="Path 127649" d="M282.045,93.635l-10.272,7.236L261.5,93.635,264.214,82.2h15.053Z" transform="translate(-92.554 -29.093)" fill="none" stroke="#000" stroke-miterlimit="10" stroke-width="0.646"/>
            <path id="Path_127650" data-name="Path 127650" d="M299.322,334.146H150.791A21.191,21.191,0,0,1,129.6,312.955V163.391A21.191,21.191,0,0,1,150.791,142.2H299.322a21.191,21.191,0,0,1,21.191,21.191V312.955a21.191,21.191,0,0,1-21.191,21.191" transform="translate(-45.87 -50.329)" fill="#00db96"/>
            <rect id="Rectangle_141317" data-name="Rectangle 141317" width="190.913" height="191.953" rx="21.191" transform="translate(83.73 91.871)" fill="none" stroke="#000" stroke-miterlimit="10" stroke-width="0.646"/>
            <path id="Path_127651" data-name="Path 127651" d="M320.513,275.209H277.42V273.4H260.17v1.809H189.684V273.4h-17.25v1.809H129.6v13.115h42.834v2.39h17.25v-2.39H260.17v2.39h17.25v-2.39h43.093Z" transform="translate(-45.87 -96.766)"/>
            <path id="Path_127652" data-name="Path 127652" d="M320.513,275.209H277.42V273.4H260.17v1.809H189.684V273.4h-17.25v1.809H129.6v13.115h42.834v2.39h17.25v-2.39H260.17v2.39h17.25v-2.39h43.093Z" transform="translate(-45.87 -96.766)" fill="none" stroke="#000" stroke-miterlimit="10" stroke-width="0.646"/>
            <rect id="Rectangle_141318" data-name="Rectangle 141318" width="190.913" height="13.122" transform="translate(83.73 174.696)" fill="#fcf7eb"/>
            <rect id="Rectangle_141319" data-name="Rectangle 141319" width="190.913" height="13.122" transform="translate(83.73 174.696)" fill="none" stroke="#000" stroke-miterlimit="10" stroke-width="0.646"/>
            <path id="Path_127653" data-name="Path 127653" d="M144.7,161.874a19.64,19.64,0,0,1,16.669-9.174h12.146" transform="translate(-51.214 -54.046)" fill="none" stroke="#fcf7eb" stroke-linecap="round" stroke-miterlimit="10" stroke-width="6.461"/>
            <path id="Path_127654" data-name="Path 127654" d="M189.23,225.284v6.59h13.115v-6.59c0-9.949-3.036-51.039-17.444-83.084H170.3c15.506,30.042,18.93,73.845,18.93,83.084" transform="translate(-60.275 -50.329)" fill="#fcf7eb"/>
            <path id="Path_127655" data-name="Path 127655" d="M189.23,225.284v6.59h13.115v-6.59c0-9.949-3.036-51.039-17.444-83.084H170.3C185.87,172.242,189.23,216.045,189.23,225.284Z" transform="translate(-60.275 -50.329)" fill="none" stroke="#000" stroke-miterlimit="10" stroke-width="0.646"/>
            <path id="Path_127656" data-name="Path 127656" d="M351.944,142.2c-14.407,32.045-17.444,73.2-17.444,83.084v6.59h13.115v-6.59c0-9.3,3.36-53.042,18.93-83.084Z" transform="translate(-118.391 -50.329)" fill="#fcf7eb"/>
            <path id="Path_127657" data-name="Path 127657" d="M351.944,142.2c-14.407,32.045-17.444,73.2-17.444,83.084v6.59h13.115v-6.59c0-9.3,3.36-53.042,18.93-83.084Z" transform="translate(-118.391 -50.329)" fill="none" stroke="#000" stroke-miterlimit="10" stroke-width="0.646"/>
            <rect id="Rectangle_141320" data-name="Rectangle 141320" width="17.25" height="17.276" transform="translate(126.564 172.952)" fill="#8e0bfa"/>
            <rect id="Rectangle_141321" data-name="Rectangle 141321" width="17.25" height="17.276" transform="translate(126.564 172.952)" fill="none" stroke="#000" stroke-miterlimit="10" stroke-width="0.646"/>
            <rect id="Rectangle_141322" data-name="Rectangle 141322" width="17.25" height="17.276" transform="translate(214.3 172.952)" fill="#8e0bfa"/>
            <rect id="Rectangle_141323" data-name="Rectangle 141323" width="17.25" height="17.276" transform="translate(214.3 172.952)" fill="none" stroke="#000" stroke-miterlimit="10" stroke-width="0.646"/>
            <path id="Path_127658" data-name="Path 127658" d="M244.626,64.1c-33.014,0-59.826,8.722-59.826,19.447v8.722h3.424c.065-9.174,25.261-16.669,56.337-16.669S300.9,83.03,300.9,92.268h3.424V83.611c0-10.725-26.747-19.447-59.826-19.447" transform="translate(-65.407 -22.687)" fill="#8e0bfa"/>
            <path id="Path_127659" data-name="Path 127659" d="M244.626,64.1c-33.014,0-59.826,8.722-59.826,19.447v8.722h3.424c.065-9.174,25.261-16.669,56.337-16.669S300.9,83.03,300.9,92.268h3.424V83.611C304.387,72.822,277.64,64.1,244.626,64.1Z" transform="translate(-65.407 -22.687)" fill="none" stroke="#000" stroke-miterlimit="10" stroke-width="0.646"/>
            <path id="Path_127660" data-name="Path 127660" d="M244.626,77.7c-33.014,0-59.826,8.722-59.826,19.447,0,3.36,2.584,6.525,7.171,9.239v-3.23c-2.39-1.874-3.747-3.876-3.747-6.008,0-9.174,25.2-16.669,56.337-16.669S300.9,87.908,300.9,97.147c0,2.132-1.357,4.135-3.747,6.008v3.23c4.587-2.778,7.171-5.879,7.171-9.239,0-10.725-26.747-19.447-59.826-19.447" transform="translate(-65.407 -27.501)" fill="#fcf7eb"/>
            <path id="Path_127661" data-name="Path 127661" d="M244.626,77.7c-33.014,0-59.826,8.722-59.826,19.447,0,3.36,2.584,6.525,7.171,9.239v-3.23c-2.39-1.874-3.747-3.876-3.747-6.008,0-9.174,25.2-16.669,56.337-16.669S300.9,87.908,300.9,97.147c0,2.132-1.357,4.135-3.747,6.008v3.23c4.587-2.778,7.171-5.879,7.171-9.239C304.387,86.422,277.64,77.7,244.626,77.7Z" transform="translate(-65.407 -27.501)" fill="none" stroke="#000" stroke-miterlimit="10" stroke-width="0.646"/>
            <path id="Path_127662" data-name="Path 127662" d="M187.747,109.375a10.854,10.854,0,1,0,0,20.157Z" transform="translate(-61.183 -38.437)" fill="#ff3c1d"/>
            <path id="Path_127663" data-name="Path 127663" d="M187.747,109.375a10.854,10.854,0,1,0,0,20.157Z" transform="translate(-61.183 -38.437)" fill="none" stroke="#000" stroke-miterlimit="10" stroke-width="0.646"/>
            <path id="Path_127664" data-name="Path 127664" d="M362.483,108.7a10.789,10.789,0,0,0-3.683.646V129.7a10.854,10.854,0,1,0,3.683-21" transform="translate(-126.992 -38.472)" fill="#ff3c1d"/>
            <path id="Path_127665" data-name="Path 127665" d="M362.483,108.7a10.789,10.789,0,0,0-3.683.646V129.7a10.854,10.854,0,1,0,3.683-21Z" transform="translate(-126.992 -38.472)" fill="none" stroke="#000" stroke-miterlimit="10" stroke-width="0.646"/>
            <path id="Path_127666" data-name="Path 127666" d="M296.8,293.221a27.07,27.07,0,0,1-26.747,22.741h-90a27.07,27.07,0,0,1-26.747-22.677L131.6,161.1a21.062,21.062,0,0,0-2,8.98V319.645a21.191,21.191,0,0,0,21.191,21.191H299.322a21.191,21.191,0,0,0,21.191-21.191V170.08a21.061,21.061,0,0,0-2-8.98Z" transform="translate(-45.87 -57.019)"/>
            <path id="Path_127667" data-name="Path 127667" d="M296.8,293.221a27.07,27.07,0,0,1-26.747,22.741h-90a27.07,27.07,0,0,1-26.747-22.677L131.6,161.1a21.062,21.062,0,0,0-2,8.98V319.645a21.191,21.191,0,0,0,21.191,21.191H299.322a21.191,21.191,0,0,0,21.191-21.191V170.08a21.061,21.061,0,0,0-2-8.98Z" transform="translate(-45.87 -57.019)" fill="none" stroke="#000" stroke-miterlimit="10" stroke-width="0.646"/>
            <path id="Path_127668" data-name="Path 127668" d="M235.4,18.688A52.137,52.137,0,0,1,262.793,11" transform="translate(-83.316 -3.893)" fill="none" stroke="#fcf7eb" stroke-linecap="round" stroke-miterlimit="10" stroke-width="6.461"/>
          </g>
        </g>
      </g>
    </g>
  </g>
</svg>
