<svg xmlns="http://www.w3.org/2000/svg" xmlns:xlink="http://www.w3.org/1999/xlink" width="402" height="257" viewBox="0 0 402 257">
  <defs>
    <clipPath id="clip-path">
      <rect id="Rectangle_131149" data-name="Rectangle 131149" width="402" height="257" transform="translate(-0.051 -0.206)" fill="#fff"/>
    </clipPath>
    <clipPath id="clip-path-2">
      <rect id="Rectangle_141325" data-name="Rectangle 141325" width="344.794" height="304.088" fill="none"/>
    </clipPath>
    <clipPath id="clip-path-3">
      <path id="Path_127791" data-name="Path 127791" d="M270.823,144.394a26.025,26.025,0,0,1-22.28,0,6.671,6.671,0,1,0-5.967,11.933,39.291,39.291,0,0,0,34.276,0,6.671,6.671,0,0,0-5.967-11.933" transform="translate(-238.888 -143.688)" fill="none"/>
    </clipPath>
  </defs>
  <g id="Mask_Group_12" data-name="Mask Group 12" transform="translate(0.051 0.206)" clip-path="url(#clip-path)">
    <rect id="Rectangle_131148" data-name="Rectangle 131148" width="402" height="257" transform="translate(-0.051 -0.206)" fill="#ff0d5b"/>
    <g id="Artwork_48" data-name="Artwork 48" transform="translate(200.949 172.407)">
      <g id="Group_21319" data-name="Group 21319" transform="translate(-172.397 -152.044)">
        <g id="Group_21316" data-name="Group 21316" clip-path="url(#clip-path-2)">
          <path id="Path_127669" data-name="Path 127669" d="M400.8,413.493c0-14.155,9.013-20.693,20.185-20.693l8.442,10.283v18.725a5.713,5.713,0,0,1-4.38,5.586v9.013a2.983,2.983,0,0,1,4,2.793,3.051,3.051,0,0,1-.063.571v.127c-.444,1.968-2.729,3.491-5.522,3.491l-1.4-.127a2.983,2.983,0,0,1-2.92,3.682,10.663,10.663,0,0,1-4.761-1.143,2.983,2.983,0,0,1-2.6,1.523c-5.9,0-10.791-5.078-10.918-11.362h0v-22.28h0v-.19" transform="translate(-146.394 -143.472)" fill="#00db96"/>
          <path id="Path_127670" data-name="Path 127670" d="M400.8,413.493c0-14.155,9.013-20.693,20.185-20.693l8.442,10.283v18.725a5.713,5.713,0,0,1-4.38,5.586v9.013a2.983,2.983,0,0,1,4,2.793,3.051,3.051,0,0,1-.063.571v.127c-.444,1.968-2.729,3.491-5.522,3.491l-1.4-.127a2.983,2.983,0,0,1-2.92,3.682,10.663,10.663,0,0,1-4.761-1.143,2.983,2.983,0,0,1-2.6,1.523c-5.9,0-10.791-5.078-10.918-11.362h0v-22.28h0Z" transform="translate(-146.394 -143.472)" fill="none" stroke="#000" stroke-linecap="round" stroke-miterlimit="10" stroke-width="0.635"/>
          <path id="Path_127671" data-name="Path 127671" d="M442.314,464.062a2.983,2.983,0,0,0-5.014-2.222" transform="translate(-159.726 -168.397)" fill="#00db96"/>
          <path id="Path_127672" data-name="Path 127672" d="M442.314,464.062a2.983,2.983,0,0,0-5.014-2.222" transform="translate(-159.726 -168.397)" fill="none" stroke="#000" stroke-linecap="round" stroke-miterlimit="10" stroke-width="0.635"/>
          <path id="Path_127673" data-name="Path 127673" d="M438.772,457.655c0,2.285-2.539,4.126-5.586,4.126a5.319,5.319,0,0,1-5.586-5.2V443.5" transform="translate(-156.183 -161.99)" fill="none" stroke="#000" stroke-linecap="round" stroke-miterlimit="10" stroke-width="0.635"/>
          <path id="Path_127674" data-name="Path 127674" d="M424.048,466.8c-5.332,0-9.648-3.808-9.648-8.442V447.5" transform="translate(-151.361 -163.451)" fill="#00db96"/>
          <path id="Path_127675" data-name="Path 127675" d="M424.048,466.8c-5.332,0-9.648-3.808-9.648-8.442V447.5" transform="translate(-151.361 -163.451)" fill="none" stroke="#000" stroke-linecap="round" stroke-miterlimit="10" stroke-width="0.635"/>
          <path id="Path_127676" data-name="Path 127676" d="M400.9,460.3c0,6.411,4.824,11.616,10.854,11.616" transform="translate(-146.43 -168.126)" fill="#00db96"/>
          <path id="Path_127677" data-name="Path 127677" d="M400.9,460.3c0,6.411,4.824,11.616,10.854,11.616" transform="translate(-146.43 -168.126)" fill="none" stroke="#000" stroke-linecap="round" stroke-miterlimit="10" stroke-width="0.635"/>
          <path id="Path_127678" data-name="Path 127678" d="M439,440.586v2.158a5.713,5.713,0,0,0,4.38-5.586V435a5.713,5.713,0,0,1-4.38,5.586" transform="translate(-160.347 -158.886)"/>
          <path id="Path_127679" data-name="Path 127679" d="M439,440.586v2.158a5.713,5.713,0,0,0,4.38-5.586V435A5.713,5.713,0,0,1,439,440.586Z" transform="translate(-160.347 -158.886)" fill="none" stroke="#000" stroke-linecap="round" stroke-miterlimit="10" stroke-width="0.635"/>
          <path id="Path_127680" data-name="Path 127680" d="M428.24,437.015h0c.127,2.539-2.856,4-6.03,4h-.635a4.824,4.824,0,0,1-3.491-2.666l-.127-.19a25.846,25.846,0,0,0,1.079,3.618,3.681,3.681,0,0,1-3.047,3.364c-1.714.254-2.793-.127-4.316-1.523h0a1.714,1.714,0,0,1-.635.571,3.682,3.682,0,0,1-4.7-.952,11.87,11.87,0,0,1-2.666-7.363h0V413.72h0v-.19c0-13.076,7.68-19.423,17.646-20.5V392.9c-11.108,0-20.121,6.538-20.121,20.693v.19h0v22.153h0c.127,6.284,5.014,11.362,10.918,11.362h.508l.444-.127a2.983,2.983,0,0,0,1.65-1.4,10.6,10.6,0,0,0,4.126,1.079,3.555,3.555,0,0,0,3.11-1.46,2.539,2.539,0,0,0,.444-2.222h0l1.4.127c2.793,0,5.078-1.523,5.522-3.491v-.127a3.046,3.046,0,0,0,.063-.571,11.028,11.028,0,0,0-1.016-2.158" transform="translate(-146.54 -143.508)"/>
          <path id="Path_127681" data-name="Path 127681" d="M428.24,437.015h0c.127,2.539-2.856,4-6.03,4h-.635a4.824,4.824,0,0,1-3.491-2.666l-.127-.19a25.846,25.846,0,0,0,1.079,3.618,3.681,3.681,0,0,1-3.047,3.364c-1.714.254-2.793-.127-4.316-1.523h0a1.714,1.714,0,0,1-.635.571,3.682,3.682,0,0,1-4.7-.952,11.87,11.87,0,0,1-2.666-7.363h0V413.72h0v-.19c0-13.076,7.68-19.423,17.646-20.5V392.9c-11.108,0-20.121,6.538-20.121,20.693v.19h0v22.153h0c.127,6.284,5.014,11.362,10.918,11.362h.508l.444-.127a2.983,2.983,0,0,0,1.65-1.4,10.6,10.6,0,0,0,4.126,1.079,3.555,3.555,0,0,0,3.11-1.46,2.539,2.539,0,0,0,.444-2.222h0l1.4.127c2.793,0,5.078-1.523,5.522-3.491v-.127a3.046,3.046,0,0,0,.063-.571A22.044,22.044,0,0,1,428.24,437.015Z" transform="translate(-146.54 -143.508)" fill="none" stroke="#000" stroke-linecap="round" stroke-linejoin="round" stroke-width="0.635"/>
          <path id="Path_127682" data-name="Path 127682" d="M502.689,325.019c6.728-4.126,10.156-10.664,7.617-14.853l-16.25-9.966c4,2.729,4.316,9.521.7,15.424s-9.966,8.569-14.155,6.094l5.776,3.555c2.793,3.808,9.839,3.745,16.376-.19" transform="translate(-175.541 -109.649)" fill="#8e0bfa"/>
          <path id="Path_127683" data-name="Path 127683" d="M502.689,325.019c6.728-4.126,10.156-10.664,7.617-14.853l-16.25-9.966c4,2.729,4.316,9.521.7,15.424s-9.966,8.569-14.155,6.094l5.776,3.555C489.106,329.017,496.151,329.017,502.689,325.019Z" transform="translate(-175.541 -109.649)" fill="none" stroke="#000" stroke-linejoin="round" stroke-width="0.635"/>
          <path id="Path_127684" data-name="Path 127684" d="M489.563,330.907c1.206,4.634,7.363,8.569,15.17,9.712s16.313-1.777,17.963-6.855a14.409,14.409,0,0,0-6.347-16.186l-2.856-1.777c2.539,4.189-.825,10.727-7.617,14.853s-13.584,4.062-16.376.254" transform="translate(-178.792 -115.347)" fill="#8e0bfa"/>
          <path id="Path_127685" data-name="Path 127685" d="M489.6,330.907c1.206,4.634,7.363,8.569,15.17,9.712s16.313-1.777,17.963-6.855a14.409,14.409,0,0,0-6.347-16.186L513.53,315.8c2.539,4.189-.825,10.727-7.617,14.853S492.393,334.715,489.6,330.907Z" transform="translate(-178.828 -115.347)" fill="none" stroke="#000" stroke-linejoin="round" stroke-width="0.635"/>
          <path id="Path_127686" data-name="Path 127686" d="M489.6,339.6Z" transform="translate(-178.828 -124.04)" fill="#8e0bfa"/>
          <path id="Path_127687" data-name="Path 127687" d="M489.6,339.6Z" transform="translate(-178.828 -124.04)" fill="none" stroke="#000" stroke-miterlimit="10" stroke-width="1"/>
          <path id="Path_127688" data-name="Path 127688" d="M489.6,339.6h0" transform="translate(-178.828 -124.04)" fill="#8e0bfa"/>
          <path id="Path_127689" data-name="Path 127689" d="M489.6,339.6Z" transform="translate(-178.828 -124.04)" fill="none" stroke="#000" stroke-miterlimit="10" stroke-width="1"/>
          <path id="Path_127690" data-name="Path 127690" d="M467.532,298.678c3.682-5.9,3.3-12.631-.7-15.361l-12.5-7.617c4.062,2.666,4.38,9.394.762,15.3s-9.9,8.633-14.091,6.284l12.5,7.68c4.189,2.412,10.473-.317,14.155-6.22" transform="translate(-161.077 -100.701)" fill="#8e0bfa"/>
          <path id="Path_127691" data-name="Path 127691" d="M467.532,298.678c3.682-5.9,3.3-12.631-.7-15.361l-12.5-7.617c4.062,2.666,4.38,9.394.762,15.3s-9.9,8.633-14.091,6.284l12.5,7.68C457.63,307.31,463.851,304.581,467.532,298.678Z" transform="translate(-161.077 -100.701)" fill="none" stroke="#000" stroke-miterlimit="10" stroke-width="0.635"/>
          <path id="Path_127692" data-name="Path 127692" d="M447.613,286.614c3.682-5.9,3.3-12.631-.762-15.3L434.411,263.7c3.935,2.729,4.189,9.394.571,15.234s-10.092,8.7-14.282,6.157l12.758,7.807c4.189,2.412,10.473-.381,14.091-6.284" transform="translate(-153.662 -96.317)" fill="#8e0bfa"/>
          <path id="Path_127693" data-name="Path 127693" d="M447.613,286.614c3.682-5.9,3.3-12.631-.762-15.3L434.411,263.7c3.935,2.729,4.189,9.394.571,15.234s-10.092,8.7-14.282,6.157l12.758,7.807C437.711,295.247,444,292.517,447.613,286.614Z" transform="translate(-153.662 -96.317)" fill="none" stroke="#000" stroke-miterlimit="10" stroke-width="0.635"/>
          <path id="Path_127694" data-name="Path 127694" d="M407.423,261.732c3.618-5.84,3.3-12.568-.635-15.3L393.839,238.5c4.126,2.6,4.507,9.458.825,15.424s-9.775,8.633-13.964,6.347l12.441,7.68c4.189,2.539,10.537-.19,14.282-6.157" transform="translate(-139.052 -87.113)" fill="#8e0bfa"/>
          <path id="Path_127695" data-name="Path 127695" d="M407.423,261.732c3.618-5.84,3.3-12.568-.635-15.3L393.839,238.5c4.126,2.6,4.507,9.458.825,15.424s-9.775,8.633-13.964,6.347l12.441,7.68C397.394,270.428,403.741,267.7,407.423,261.732Z" transform="translate(-139.052 -87.113)" fill="none" stroke="#000" stroke-miterlimit="10" stroke-width="0.635"/>
          <path id="Path_127696" data-name="Path 127696" d="M380.666,245.341c3.682-5.967,3.3-12.758-.825-15.424L355.466,215,342.2,236.645l24.5,15.043c4.189,2.285,10.346-.508,13.964-6.347" transform="translate(-124.99 -78.53)" fill="#8e0bfa"/>
          <path id="Path_127697" data-name="Path 127697" d="M380.666,245.341c3.682-5.967,3.3-12.758-.825-15.424L355.466,215,342.2,236.645l24.5,15.043C370.827,253.91,377.048,251.181,380.666,245.341Z" transform="translate(-124.99 -78.53)" fill="none" stroke="#000" stroke-miterlimit="10" stroke-width="0.635"/>
          <path id="Path_127698" data-name="Path 127698" d="M487.413,311.032c3.618-5.9,3.3-12.695-.7-15.424L473.957,287.8c4,2.666,4.38,9.458.7,15.361s-9.966,8.633-14.155,6.22l12.695,7.807c4.189,2.475,10.473-.19,14.155-6.094" transform="translate(-168.2 -105.12)" fill="#8e0bfa"/>
          <path id="Path_127699" data-name="Path 127699" d="M487.413,311.032c3.618-5.9,3.3-12.695-.7-15.424L473.957,287.8c4,2.666,4.38,9.458.7,15.361s-9.966,8.633-14.155,6.22l12.695,7.807C477.448,319.6,483.732,316.935,487.413,311.032Z" transform="translate(-168.2 -105.12)" fill="none" stroke="#000" stroke-miterlimit="10" stroke-width="0.635"/>
          <path id="Path_127700" data-name="Path 127700" d="M427.631,274.232c3.618-5.84,3.3-12.5-.571-15.234l-13.012-8c3.935,2.729,4.253,9.458.635,15.3s-10.092,8.7-14.282,6.157l12.949,7.934c4.189,2.6,10.6-.19,14.282-6.157" transform="translate(-146.248 -91.679)" fill="#8e0bfa"/>
          <path id="Path_127701" data-name="Path 127701" d="M427.631,274.232c3.618-5.84,3.3-12.5-.571-15.234l-13.012-8c3.935,2.729,4.253,9.458.635,15.3s-10.092,8.7-14.282,6.157l12.949,7.934C417.538,282.991,423.886,280.262,427.631,274.232Z" transform="translate(-146.248 -91.679)" fill="none" stroke="#000" stroke-miterlimit="10" stroke-width="0.635"/>
          <path id="Path_127702" data-name="Path 127702" d="M498.091,349.312c-7.807-1.143-13.964-5.078-15.17-9.712-2.285,3.11-1.016,8.95,2.92,13.9s10.664,7.744,14.091,5.014c-3.428,2.729-9.712.444-14.091-5.014s-5.141-10.791-2.92-13.9h0l-9.585,7.427c-3.3,2.793-2.476,9.394,1.841,14.79s10.537,7.68,13.964,5.141l21.9-17.011a14.218,14.218,0,0,0,5.014-7.427c-1.714,5.078-9.394,8.125-17.963,6.855" transform="translate(-172.149 -124.04)" fill="#8e0bfa"/>
          <path id="Path_127703" data-name="Path 127703" d="M498.091,349.312c-7.807-1.143-13.964-5.078-15.17-9.712-2.285,3.11-1.016,8.95,2.92,13.9s10.664,7.744,14.091,5.014c-3.428,2.729-9.712.444-14.091-5.014s-5.141-10.791-2.92-13.9h0l-9.585,7.427c-3.3,2.793-2.476,9.394,1.841,14.79s10.537,7.68,13.964,5.141l21.9-17.011a14.218,14.218,0,0,0,5.014-7.427C514.4,347.6,506.724,350.581,498.091,349.312Z" transform="translate(-172.149 -124.04)" fill="none" stroke="#000" stroke-miterlimit="10" stroke-width="0.635"/>
          <path id="Path_127704" data-name="Path 127704" d="M489.6,339.6h0" transform="translate(-178.828 -124.04)" fill="#8e0bfa"/>
          <path id="Path_127705" data-name="Path 127705" d="M489.6,339.6Z" transform="translate(-178.828 -124.04)" fill="none" stroke="#000" stroke-miterlimit="10" stroke-width="1"/>
          <path id="Path_127706" data-name="Path 127706" d="M456.834,366.09c-4.316-5.4-5.078-12-1.841-14.79L433.73,367.74c-3.364,2.729-2.6,9.331,1.777,14.79s10.664,7.744,14.091,5.015c-3.428,2.729-9.712.444-14.091-5.015s-5.078-12.06-1.714-14.79l-10.6,8.252c-3.364,2.729-2.6,9.394,1.714,14.853s10.346,7.617,13.837,5.2l21.391-16.567c-3.491,2.539-9.648.254-13.9-5.141s-5.141-12.124-1.714-14.853c-3.428,2.729-2.666,9.394,1.714,14.853s10.473,7.68,13.9,5.141l10.727-8.315c-3.428,2.539-9.648.317-13.964-5.141" transform="translate(-153.807 -128.314)" fill="#8e0bfa"/>
          <path id="Path_127707" data-name="Path 127707" d="M456.834,366.09c-4.316-5.4-5.078-12-1.841-14.79L433.73,367.74c-3.364,2.729-2.6,9.331,1.777,14.79s10.664,7.744,14.091,5.015c-3.428,2.729-9.712.444-14.091-5.015s-5.078-12.06-1.714-14.79l-10.6,8.252c-3.364,2.729-2.6,9.394,1.714,14.853s10.346,7.617,13.837,5.2l21.391-16.567c-3.491,2.539-9.648.254-13.9-5.141s-5.141-12.124-1.714-14.853c-3.428,2.729-2.666,9.394,1.714,14.853s10.473,7.68,13.9,5.141l10.727-8.315C467.371,373.77,461.151,371.485,456.834,366.09Z" transform="translate(-153.807 -128.314)" fill="none" stroke="#000" stroke-miterlimit="10" stroke-width="0.635"/>
          <path id="Path_127708" data-name="Path 127708" d="M501.466,337.379a14.536,14.536,0,0,0-1.714-11.679c.508,4.507-2.92,8.442-5.522,10.41l-21.9,17.011L461.6,361.436,431.2,384.16c3.872,3.364,8.379,4.443,11.235,2.475l21.391-16.567,10.727-8.315,21.9-17.011a14.219,14.219,0,0,0,5.014-7.427,7.172,7.172,0,0,1-.952,1.841,7.234,7.234,0,0,0,.889-1.777" transform="translate(-157.498 -118.963)"/>
          <path id="Path_127709" data-name="Path 127709" d="M501.466,337.379a14.536,14.536,0,0,0-1.714-11.679c.508,4.507-2.92,8.442-5.522,10.41l-21.9,17.011L461.6,361.436,431.2,384.16c3.872,3.364,8.379,4.443,11.235,2.475l21.391-16.567,10.727-8.315,21.9-17.011a14.219,14.219,0,0,0,5.014-7.427,7.172,7.172,0,0,1-.952,1.841A7.233,7.233,0,0,0,501.466,337.379Z" transform="translate(-157.498 -118.963)" fill="none" stroke="#000" stroke-miterlimit="10" stroke-width="0.635"/>
          <path id="Path_127710" data-name="Path 127710" d="M445.437,302.207l-30.4-18.725-12.5-7.68-12.758-7.807-12.949-7.934-12.441-7.68L345.337,240.7l-3.237,5.268,24.5,15.043,12.441,7.68,12.949,7.934,12.758,7.807,12.5,7.68L435.915,303.6c2.729,1.523,6.347.889,9.521-1.4" transform="translate(-124.953 -87.917)"/>
          <path id="Path_127711" data-name="Path 127711" d="M445.437,302.207l-30.4-18.725-12.5-7.68-12.758-7.807-12.949-7.934-12.441-7.68L345.337,240.7l-3.237,5.268,24.5,15.043,12.441,7.68,12.949,7.934,12.758,7.807,12.5,7.68L435.915,303.6C438.645,305.127,442.263,304.492,445.437,302.207Z" transform="translate(-124.953 -87.917)" fill="none" stroke="#000" stroke-miterlimit="10" stroke-width="0.635"/>
          <path id="Path_127712" data-name="Path 127712" d="M125.927,413.493c0-14.155-9.013-20.693-20.185-20.693L97.3,403.083v18.725a5.713,5.713,0,0,0,4.38,5.586v9.013a2.983,2.983,0,0,0-4,2.793,3.047,3.047,0,0,0,.063.571v.127c.444,1.968,2.729,3.491,5.522,3.491l1.4-.127a2.983,2.983,0,0,0,2.92,3.682,10.664,10.664,0,0,0,4.761-1.143,2.983,2.983,0,0,0,2.6,1.523c5.9,0,10.791-5.078,10.918-11.362h0v-22.28h0v-.19" transform="translate(-35.539 -143.472)" fill="#00db96"/>
          <path id="Path_127713" data-name="Path 127713" d="M125.927,413.493c0-14.155-9.013-20.693-20.185-20.693L97.3,403.083v18.725a5.713,5.713,0,0,0,4.38,5.586v9.013a2.983,2.983,0,0,0-4,2.793,3.047,3.047,0,0,0,.063.571v.127c.444,1.968,2.729,3.491,5.522,3.491l1.4-.127a2.983,2.983,0,0,0,2.92,3.682,10.664,10.664,0,0,0,4.761-1.143,2.983,2.983,0,0,0,2.6,1.523c5.9,0,10.791-5.078,10.918-11.362h0v-22.28h0Z" transform="translate(-35.539 -143.472)" fill="none" stroke="#000" stroke-linecap="round" stroke-miterlimit="10" stroke-width="0.635"/>
          <path id="Path_127714" data-name="Path 127714" d="M98,464.062a2.983,2.983,0,0,1,5.015-2.222" transform="translate(-35.795 -168.397)" fill="#00db96"/>
          <path id="Path_127715" data-name="Path 127715" d="M98,464.062a2.983,2.983,0,0,1,5.015-2.222" transform="translate(-35.795 -168.397)" fill="none" stroke="#000" stroke-linecap="round" stroke-miterlimit="10" stroke-width="0.635"/>
          <path id="Path_127716" data-name="Path 127716" d="M98,457.655c0,2.285,2.539,4.126,5.586,4.126a5.319,5.319,0,0,0,5.586-5.2V443.5" transform="translate(-35.795 -161.99)" fill="none" stroke="#000" stroke-linecap="round" stroke-miterlimit="10" stroke-width="0.635"/>
          <path id="Path_127717" data-name="Path 127717" d="M113.6,466.8c5.332,0,9.648-3.808,9.648-8.442V447.5" transform="translate(-41.493 -163.451)" fill="#00db96"/>
          <path id="Path_127718" data-name="Path 127718" d="M113.6,466.8c5.332,0,9.648-3.808,9.648-8.442V447.5" transform="translate(-41.493 -163.451)" fill="none" stroke="#000" stroke-linecap="round" stroke-miterlimit="10" stroke-width="0.635"/>
          <path id="Path_127719" data-name="Path 127719" d="M136.054,460.3c0,6.411-4.824,11.616-10.854,11.616" transform="translate(-45.73 -168.126)" fill="#00db96"/>
          <path id="Path_127720" data-name="Path 127720" d="M136.054,460.3c0,6.411-4.824,11.616-10.854,11.616" transform="translate(-45.73 -168.126)" fill="none" stroke="#000" stroke-linecap="round" stroke-miterlimit="10" stroke-width="0.635"/>
          <path id="Path_127721" data-name="Path 127721" d="M101.78,440.586v2.158a5.713,5.713,0,0,1-4.38-5.586V435a5.713,5.713,0,0,0,4.38,5.586" transform="translate(-35.576 -158.886)"/>
          <path id="Path_127722" data-name="Path 127722" d="M101.78,440.586v2.158a5.713,5.713,0,0,1-4.38-5.586V435a5.713,5.713,0,0,0,4.38,5.586Z" transform="translate(-35.576 -158.886)" fill="none" stroke="#000" stroke-linecap="round" stroke-miterlimit="10" stroke-width="0.635"/>
          <path id="Path_127723" data-name="Path 127723" d="M98.879,437.015h0c-.127,2.539,2.856,4,6.03,4h.635a4.824,4.824,0,0,0,3.491-2.666l.127-.19a25.846,25.846,0,0,1-1.079,3.618,3.681,3.681,0,0,0,3.047,3.364c1.714.254,2.793-.127,4.316-1.523a1.714,1.714,0,0,0,.635.571,3.682,3.682,0,0,0,4.7-.952,11.87,11.87,0,0,0,2.666-7.363h0V413.72h0v-.19c0-13.076-7.68-19.423-17.646-20.5V392.9c11.108,0,20.185,6.538,20.185,20.693v.19h0v22.153h0c-.127,6.284-5.014,11.362-10.918,11.362h-.508l-.444-.127a2.983,2.983,0,0,1-1.65-1.4,10.6,10.6,0,0,1-4.126,1.079,3.555,3.555,0,0,1-3.11-1.46,2.539,2.539,0,0,1-.444-2.222h0l-1.4.127c-2.793,0-5.078-1.523-5.522-3.491v-.127a3.11,3.11,0,0,1-.063-.571,11.03,11.03,0,0,1,1.016-2.158" transform="translate(-35.722 -143.508)"/>
          <path id="Path_127724" data-name="Path 127724" d="M98.879,437.015h0c-.127,2.539,2.856,4,6.03,4h.635a4.824,4.824,0,0,0,3.491-2.666l.127-.19a25.846,25.846,0,0,1-1.079,3.618,3.681,3.681,0,0,0,3.047,3.364c1.714.254,2.793-.127,4.316-1.523a1.714,1.714,0,0,0,.635.571,3.682,3.682,0,0,0,4.7-.952,11.87,11.87,0,0,0,2.666-7.363h0V413.72h0v-.19c0-13.076-7.68-19.423-17.646-20.5V392.9c11.108,0,20.185,6.538,20.185,20.693v.19h0v22.153h0c-.127,6.284-5.014,11.362-10.918,11.362h-.508l-.444-.127a2.983,2.983,0,0,1-1.65-1.4,10.6,10.6,0,0,1-4.126,1.079,3.555,3.555,0,0,1-3.11-1.46,2.539,2.539,0,0,1-.444-2.222h0l-1.4.127c-2.793,0-5.078-1.523-5.522-3.491v-.127a3.11,3.11,0,0,1-.063-.571A22.079,22.079,0,0,1,98.879,437.015Z" transform="translate(-35.722 -143.508)" fill="none" stroke="#000" stroke-linecap="round" stroke-linejoin="round" stroke-width="0.635"/>
          <path id="Path_127725" data-name="Path 127725" d="M22.935,325.019c-6.728-4.126-10.156-10.664-7.617-14.853L31.567,300.2c-4,2.729-4.316,9.521-.7,15.424s9.966,8.569,14.155,6.094l-5.776,3.555c-2.793,3.808-9.839,3.745-16.376-.19" transform="translate(-5.289 -109.649)" fill="#8e0bfa"/>
          <path id="Path_127726" data-name="Path 127726" d="M22.935,325.019c-6.728-4.126-10.156-10.664-7.617-14.853L31.567,300.2c-4,2.729-4.316,9.521-.7,15.424s9.966,8.569,14.155,6.094l-5.776,3.555C36.518,329.017,29.473,329.017,22.935,325.019Z" transform="translate(-5.289 -109.649)" fill="none" stroke="#000" stroke-linejoin="round" stroke-width="0.635"/>
          <path id="Path_127727" data-name="Path 127727" d="M34.224,330.907c-1.206,4.634-7.363,8.569-15.17,9.712S2.74,338.841,1.09,333.763a14.409,14.409,0,0,1,6.347-16.186l2.856-1.777c-2.539,4.189.825,10.727,7.617,14.853s13.584,4.062,16.376.254" transform="translate(-0.202 -115.347)" fill="#8e0bfa"/>
          <path id="Path_127728" data-name="Path 127728" d="M34.224,330.907c-1.206,4.634-7.363,8.569-15.17,9.712S2.74,338.841,1.09,333.763a14.409,14.409,0,0,1,6.347-16.186l2.856-1.777c-2.539,4.189.825,10.727,7.617,14.853S31.431,334.715,34.224,330.907Z" transform="translate(-0.202 -115.347)" fill="none" stroke="#000" stroke-linejoin="round" stroke-width="0.635"/>
          <path id="Path_127729" data-name="Path 127729" d="M53.6,339.6Z" transform="translate(-19.578 -124.04)" fill="#8e0bfa"/>
          <path id="Path_127730" data-name="Path 127730" d="M53.6,339.6Z" transform="translate(-19.578 -124.04)" fill="none" stroke="#000" stroke-miterlimit="10" stroke-width="1"/>
          <path id="Path_127731" data-name="Path 127731" d="M53.6,339.6h0" transform="translate(-19.578 -124.04)" fill="#8e0bfa"/>
          <path id="Path_127732" data-name="Path 127732" d="M53.6,339.6Z" transform="translate(-19.578 -124.04)" fill="none" stroke="#000" stroke-miterlimit="10" stroke-width="1"/>
          <path id="Path_127733" data-name="Path 127733" d="M58.935,298.641c-3.682-5.9-3.3-12.631.7-15.361l12.5-7.68c-4.062,2.666-4.38,9.394-.762,15.3s9.9,8.633,14.091,6.284l-12.378,7.68c-4.189,2.412-10.473-.317-14.155-6.22" transform="translate(-20.597 -100.664)" fill="#8e0bfa"/>
          <path id="Path_127734" data-name="Path 127734" d="M58.935,298.641c-3.682-5.9-3.3-12.631.7-15.361l12.5-7.68c-4.062,2.666-4.38,9.394-.762,15.3s9.9,8.633,14.091,6.284l-12.378,7.68C68.9,307.274,62.617,304.544,58.935,298.641Z" transform="translate(-20.597 -100.664)" fill="none" stroke="#000" stroke-miterlimit="10" stroke-width="0.635"/>
          <path id="Path_127735" data-name="Path 127735" d="M78.639,286.614c-3.682-5.9-3.3-12.631.762-15.3L91.842,263.7c-3.935,2.729-4.189,9.394-.571,15.234s10.092,8.7,14.282,6.157L92.794,292.9c-4.189,2.412-10.473-.381-14.091-6.284" transform="translate(-27.796 -96.317)" fill="#8e0bfa"/>
          <path id="Path_127736" data-name="Path 127736" d="M78.639,286.614c-3.682-5.9-3.3-12.631.762-15.3L91.842,263.7c-3.935,2.729-4.189,9.394-.571,15.234s10.092,8.7,14.282,6.157L92.794,292.9C88.541,295.247,82.321,292.517,78.639,286.614Z" transform="translate(-27.796 -96.317)" fill="none" stroke="#000" stroke-miterlimit="10" stroke-width="0.635"/>
          <path id="Path_127737" data-name="Path 127737" d="M118.946,261.732c-3.618-5.84-3.3-12.568.635-15.3L132.53,238.5c-4.126,2.6-4.507,9.458-.825,15.424s9.775,8.633,13.964,6.347l-12.441,7.68c-4.189,2.539-10.537-.19-14.282-6.157" transform="translate(-42.523 -87.113)" fill="#8e0bfa"/>
          <path id="Path_127738" data-name="Path 127738" d="M118.946,261.732c-3.618-5.84-3.3-12.568.635-15.3L132.53,238.5c-4.126,2.6-4.507,9.458-.825,15.424s9.775,8.633,13.964,6.347l-12.441,7.68C128.975,270.428,122.628,267.7,118.946,261.732Z" transform="translate(-42.523 -87.113)" fill="none" stroke="#000" stroke-miterlimit="10" stroke-width="0.635"/>
          <path id="Path_127739" data-name="Path 127739" d="M139.043,245.341c-3.682-5.967-3.3-12.758.825-15.424L164.179,215l13.266,21.645-24.5,15.043c-4.189,2.285-10.346-.508-13.964-6.347" transform="translate(-49.861 -78.53)" fill="#8e0bfa"/>
          <path id="Path_127740" data-name="Path 127740" d="M139.043,245.341c-3.682-5.967-3.3-12.758.825-15.424L164.179,215l13.266,21.645-24.5,15.043C148.818,253.91,142.661,251.181,139.043,245.341Z" transform="translate(-49.861 -78.53)" fill="none" stroke="#000" stroke-miterlimit="10" stroke-width="0.635"/>
          <path id="Path_127741" data-name="Path 127741" d="M38.85,311.032c-3.618-5.9-3.3-12.695.7-15.424L52.307,287.8c-4,2.666-4.38,9.458-.7,15.361s9.966,8.633,14.155,6.22l-12.695,7.744c-4.189,2.475-10.473-.19-14.155-6.094" transform="translate(-13.27 -105.12)" fill="#8e0bfa"/>
          <path id="Path_127742" data-name="Path 127742" d="M38.85,311.032c-3.618-5.9-3.3-12.695.7-15.424L52.307,287.8c-4,2.666-4.38,9.458-.7,15.361s9.966,8.633,14.155,6.22l-12.695,7.744C48.879,319.6,42.531,316.935,38.85,311.032Z" transform="translate(-13.27 -105.12)" fill="none" stroke="#000" stroke-miterlimit="10" stroke-width="0.635"/>
          <path id="Path_127743" data-name="Path 127743" d="M98.542,274.232c-3.618-5.84-3.3-12.5.571-15.234l13.012-8c-3.935,2.729-4.253,9.458-.635,15.3s10.092,8.7,14.282,6.157l-12.949,7.934c-4.189,2.6-10.6-.19-14.282-6.157" transform="translate(-35.068 -91.679)" fill="#8e0bfa"/>
          <path id="Path_127744" data-name="Path 127744" d="M98.542,274.232c-3.618-5.84-3.3-12.5.571-15.234l13.012-8c-3.935,2.729-4.253,9.458-.635,15.3s10.092,8.7,14.282,6.157l-12.949,7.934C108.635,282.991,102.224,280.262,98.542,274.232Z" transform="translate(-35.068 -91.679)" fill="none" stroke="#000" stroke-miterlimit="10" stroke-width="0.635"/>
          <path id="Path_127745" data-name="Path 127745" d="M19.363,349.312c7.807-1.143,13.964-5.078,15.17-9.712,2.285,3.11,1.016,8.95-2.92,13.9s-10.664,7.744-14.091,5.014c3.428,2.729,9.712.444,14.091-5.014s5.141-10.791,2.92-13.9h0l9.585,7.427c3.3,2.793,2.476,9.394-1.777,14.79S31.8,369.5,28.377,366.958L6.414,349.946A14.218,14.218,0,0,1,1.4,342.52c1.714,5.078,9.394,8.125,17.963,6.855" transform="translate(-0.511 -124.04)" fill="#8e0bfa"/>
          <path id="Path_127746" data-name="Path 127746" d="M19.363,349.312c7.807-1.143,13.964-5.078,15.17-9.712,2.285,3.11,1.016,8.95-2.92,13.9s-10.664,7.744-14.091,5.014c3.428,2.729,9.712.444,14.091-5.014s5.141-10.791,2.92-13.9h0l9.585,7.427c3.3,2.793,2.476,9.394-1.777,14.79S31.8,369.5,28.377,366.958L6.414,349.946A14.218,14.218,0,0,1,1.4,342.52C3.05,347.6,10.731,350.581,19.363,349.312Z" transform="translate(-0.511 -124.04)" fill="none" stroke="#000" stroke-miterlimit="10" stroke-width="0.635"/>
          <path id="Path_127747" data-name="Path 127747" d="M53.6,339.6h0" transform="translate(-19.578 -124.04)" fill="#8e0bfa"/>
          <path id="Path_127748" data-name="Path 127748" d="M53.6,339.6Z" transform="translate(-19.578 -124.04)" fill="none" stroke="#000" stroke-miterlimit="10" stroke-width="1"/>
          <path id="Path_127749" data-name="Path 127749" d="M57.764,366.09c4.316-5.4,5.078-12,1.777-14.79l21.264,16.44c3.364,2.729,2.6,9.331-1.714,14.79S68.428,390.273,65,387.544c3.428,2.729,9.712.444,14.091-5.015s5.078-12.06,1.777-14.79l10.6,8.252c3.364,2.729,2.6,9.394-1.714,14.853s-10.346,7.617-13.837,5.2L54.527,379.483c3.491,2.539,9.648.254,13.9-5.141s5.141-12.124,1.714-14.853c3.428,2.729,2.666,9.394-1.714,14.853s-10.473,7.68-13.9,5.141L43.8,371.168c3.428,2.539,9.648.317,13.964-5.141" transform="translate(-15.998 -128.314)" fill="#8e0bfa"/>
          <path id="Path_127750" data-name="Path 127750" d="M57.764,366.09c4.316-5.4,5.078-12,1.777-14.79l21.264,16.44c3.364,2.729,2.6,9.331-1.714,14.79S68.428,390.273,65,387.544c3.428,2.729,9.712.444,14.091-5.015s5.078-12.06,1.777-14.79l10.6,8.252c3.364,2.729,2.6,9.394-1.714,14.853s-10.346,7.617-13.837,5.2L54.527,379.483c3.491,2.539,9.648.254,13.9-5.141s5.141-12.124,1.714-14.853c3.428,2.729,2.666,9.394-1.714,14.853s-10.473,7.68-13.9,5.141L43.8,371.168C47.291,373.77,53.448,371.485,57.764,366.09Z" transform="translate(-15.998 -128.314)" fill="none" stroke="#000" stroke-miterlimit="10" stroke-width="0.635"/>
          <path id="Path_127751" data-name="Path 127751" d="M1.08,337.379A14.536,14.536,0,0,1,2.731,325.7c-.508,4.507,2.92,8.442,5.522,10.41l21.9,17.011,10.727,8.315,30.4,22.724c-3.872,3.364-8.379,4.443-11.235,2.475L38.657,370.069l-10.664-8.315L6.031,344.742a14.218,14.218,0,0,1-5.014-7.427,7.235,7.235,0,0,0,.952,1.841,7.236,7.236,0,0,1-.889-1.777" transform="translate(-0.192 -118.963)"/>
          <path id="Path_127752" data-name="Path 127752" d="M1.08,337.379A14.536,14.536,0,0,1,2.731,325.7c-.508,4.507,2.92,8.442,5.522,10.41l21.9,17.011,10.727,8.315,30.4,22.724c-3.872,3.364-8.379,4.443-11.235,2.475L38.657,370.069l-10.664-8.315L6.031,344.742a14.218,14.218,0,0,1-5.014-7.427,7.235,7.235,0,0,0,.952,1.841,7.236,7.236,0,0,1-.889-1.777Z" transform="translate(-0.192 -118.963)" fill="none" stroke="#000" stroke-miterlimit="10" stroke-width="0.635"/>
          <path id="Path_127753" data-name="Path 127753" d="M38.3,302.207l30.4-18.725,12.5-7.68,12.758-7.807,12.949-7.934,12.441-7.68L138.4,240.7l3.237,5.268-24.5,15.043-12.441,7.68-12.949,7.934-12.758,7.807-12.5,7.68L47.821,303.6c-2.729,1.523-6.347.889-9.521-1.4" transform="translate(-13.989 -87.917)"/>
          <path id="Path_127754" data-name="Path 127754" d="M38.3,302.207l30.4-18.725,12.5-7.68,12.758-7.807,12.949-7.934,12.441-7.68L138.4,240.7l3.237,5.268-24.5,15.043-12.441,7.68-12.949,7.934-12.758,7.807-12.5,7.68L47.821,303.6C45.092,305.127,41.474,304.492,38.3,302.207Z" transform="translate(-13.989 -87.917)" fill="none" stroke="#000" stroke-miterlimit="10" stroke-width="0.635"/>
          <path id="Path_127755" data-name="Path 127755" d="M276.712,441.412H172.106a29.706,29.706,0,0,1,0-59.412H276.712a29.706,29.706,0,1,1,0,59.412" transform="translate(-52.012 -139.527)" fill="#ff3c1d"/>
          <path id="Path_127756" data-name="Path 127756" d="M276.712,441.412H172.106a29.706,29.706,0,0,1,0-59.412H276.712a29.706,29.706,0,1,1,0,59.412Z" transform="translate(-52.012 -139.527)" fill="none" stroke="#000" stroke-miterlimit="10" stroke-width="0.635"/>
          <path id="Path_127757" data-name="Path 127757" d="M276.712,355.912H172.106a29.706,29.706,0,0,1,0-59.412H276.712a29.706,29.706,0,1,1,0,59.412" transform="translate(-52.012 -108.298)" fill="#ff3c1d"/>
          <path id="Path_127758" data-name="Path 127758" d="M276.712,355.912H172.106a29.706,29.706,0,0,1,0-59.412H276.712a29.706,29.706,0,1,1,0,59.412Z" transform="translate(-52.012 -108.298)" fill="none" stroke="#000" stroke-miterlimit="10" stroke-width="0.635"/>
          <path id="Path_127759" data-name="Path 127759" d="M276.712,271.312H172.106a29.706,29.706,0,0,1,0-59.412H276.712a29.706,29.706,0,1,1,0,59.412" transform="translate(-52.012 -77.397)" fill="#ff3c1d"/>
          <path id="Path_127760" data-name="Path 127760" d="M276.712,271.312H172.106a29.706,29.706,0,0,1,0-59.412H276.712a29.706,29.706,0,1,1,0,59.412Z" transform="translate(-52.012 -77.397)" fill="none" stroke="#000" stroke-miterlimit="10" stroke-width="0.635"/>
          <path id="Path_127761" data-name="Path 127761" d="M302.73,235a29.706,29.706,0,0,1-28.944,36.371H169.18a29.707,29.707,0,0,1-25.581-14.6,29.706,29.706,0,0,0,28.946,23.043H277.15A29.706,29.706,0,0,0,302.73,235" transform="translate(-52.45 -85.835)"/>
          <path id="Path_127762" data-name="Path 127762" d="M302.73,235a29.706,29.706,0,0,1-28.944,36.371H169.18a29.707,29.707,0,0,1-25.581-14.6,29.706,29.706,0,0,0,28.946,23.043H277.15A29.706,29.706,0,0,0,302.73,235Z" transform="translate(-52.45 -85.835)" fill="none" stroke="#000" stroke-miterlimit="10" stroke-width="0.635"/>
          <path id="Path_127763" data-name="Path 127763" d="M302.73,320.1a29.706,29.706,0,0,1-28.944,36.371H169.18a29.707,29.707,0,0,1-25.581-14.6,29.706,29.706,0,0,0,28.946,23.043H277.15a29.706,29.706,0,0,0,25.58-44.75" transform="translate(-52.45 -116.918)"/>
          <path id="Path_127764" data-name="Path 127764" d="M302.73,320.1a29.706,29.706,0,0,1-28.944,36.371H169.18a29.707,29.707,0,0,1-25.581-14.6,29.706,29.706,0,0,0,28.946,23.043H277.15a29.706,29.706,0,0,0,25.58-44.75Z" transform="translate(-52.45 -116.918)" fill="none" stroke="#000" stroke-miterlimit="10" stroke-width="0.635"/>
          <path id="Path_127765" data-name="Path 127765" d="M302.73,405.9a29.706,29.706,0,0,1-28.944,36.371H169.18a29.707,29.707,0,0,1-25.581-14.6,29.706,29.706,0,0,0,28.946,23.043H277.15a29.706,29.706,0,0,0,25.58-44.75" transform="translate(-52.45 -148.257)"/>
          <path id="Path_127766" data-name="Path 127766" d="M302.73,405.9a29.706,29.706,0,0,1-28.944,36.371H169.18a29.707,29.707,0,0,1-25.581-14.6,29.706,29.706,0,0,0,28.946,23.043H277.15a29.706,29.706,0,0,0,25.58-44.75Z" transform="translate(-52.45 -148.257)" fill="none" stroke="#000" stroke-miterlimit="10" stroke-width="0.635"/>
          <path id="Path_127767" data-name="Path 127767" d="M238.5,218.118c0,1.4,2.6,2.666,6.665,3.555V214.5c-4.126.889-6.665,2.158-6.665,3.555" transform="translate(-87.113 -78.347)"/>
          <path id="Path_127768" data-name="Path 127768" d="M238.5,218.118c0,1.4,2.6,2.666,6.665,3.555V214.5C241.1,215.389,238.5,216.658,238.5,218.118Z" transform="translate(-87.113 -78.347)" fill="none" stroke="#000" stroke-miterlimit="10" stroke-width="0.635"/>
          <path id="Path_127769" data-name="Path 127769" d="M300.865,218.155c0-1.4-2.6-2.666-6.665-3.555v7.173c4.126-.889,6.665-2.158,6.665-3.555" transform="translate(-107.458 -78.384)"/>
          <path id="Path_127770" data-name="Path 127770" d="M300.865,218.155c0-1.4-2.6-2.666-6.665-3.555v7.173C298.326,220.821,300.865,219.551,300.865,218.155Z" transform="translate(-107.458 -78.384)" fill="none" stroke="#000" stroke-miterlimit="10" stroke-width="0.635"/>
          <path id="Path_127771" data-name="Path 127771" d="M249,188v23.993a78.645,78.645,0,0,0,28.627,0V188Z" transform="translate(-90.948 -68.668)" fill="#8e0bfa"/>
          <path id="Path_127772" data-name="Path 127772" d="M249,188v23.993a78.645,78.645,0,0,0,28.627,0V188Z" transform="translate(-90.948 -68.668)" fill="none" stroke="#000" stroke-miterlimit="10" stroke-width="0.635"/>
          <path id="Path_127773" data-name="Path 127773" d="M274.39,188v20.756a70.329,70.329,0,0,1-14.345,1.333A78.583,78.583,0,0,1,249,209.327v2.666a78.645,78.645,0,0,0,28.627,0V188Z" transform="translate(-90.948 -68.668)"/>
          <path id="Path_127774" data-name="Path 127774" d="M274.39,188v20.756a70.329,70.329,0,0,1-14.345,1.333A78.583,78.583,0,0,1,249,209.327v2.666a78.645,78.645,0,0,0,28.627,0V188Z" transform="translate(-90.948 -68.668)" fill="none" stroke="#000" stroke-miterlimit="10" stroke-width="0.635"/>
          <path id="Path_127775" data-name="Path 127775" d="M293.7,82.549A52.049,52.049,0,1,1,241.649,30.5,52.049,52.049,0,0,1,293.7,82.549" transform="translate(-69.252 -11.14)" fill="#8e0bfa"/>
          <circle id="Ellipse_1014" data-name="Ellipse 1014" cx="52.049" cy="52.049" r="52.049" transform="translate(120.348 19.36)" fill="none" stroke="#000" stroke-miterlimit="10" stroke-width="0.635"/>
          <path id="Path_127776" data-name="Path 127776" d="M241.649,156.312A52.049,52.049,0,0,1,189.727,107.5c-.063,1.079-.127,2.158-.127,3.237a52.049,52.049,0,1,0,104.1,0c0-1.079-.063-2.158-.127-3.237a52.049,52.049,0,0,1-51.922,48.812" transform="translate(-69.252 -39.265)"/>
          <path id="Path_127777" data-name="Path 127777" d="M241.649,156.312A52.049,52.049,0,0,1,189.727,107.5c-.063,1.079-.127,2.158-.127,3.237a52.049,52.049,0,1,0,104.1,0c0-1.079-.063-2.158-.127-3.237a52.049,52.049,0,0,1-51.922,48.812Z" transform="translate(-69.252 -39.265)" fill="none" stroke="#000" stroke-miterlimit="10" stroke-width="0.635"/>
          <path id="Path_127778" data-name="Path 127778" d="M287.177,113.712c0,17.075-16.44,30.912-36.688,30.912S213.8,130.787,213.8,113.712,230.24,82.8,250.488,82.8s36.688,13.837,36.688,30.912" transform="translate(-78.091 -30.243)" fill="#00db96"/>
          <path id="Path_127779" data-name="Path 127779" d="M287.177,113.712c0,17.075-16.44,30.912-36.688,30.912S213.8,130.787,213.8,113.712,230.24,82.8,250.488,82.8,287.177,96.637,287.177,113.712Z" transform="translate(-78.091 -30.243)" fill="none" stroke="#000" stroke-miterlimit="10" stroke-width="0.635"/>
          <path id="Path_127780" data-name="Path 127780" d="M241.047,118.095a6.347,6.347,0,1,1,6.347-6.347,6.347,6.347,0,0,1-6.347,6.347" transform="translate(-85.725 -38.498)" fill="#fcf7eb"/>
          <circle id="Ellipse_1015" data-name="Ellipse 1015" cx="6.347" cy="6.347" r="6.347" transform="translate(147.939 78.435) rotate(-80.8)" fill="none" stroke="#000" stroke-miterlimit="10" stroke-width="0.635"/>
          <path id="Path_127781" data-name="Path 127781" d="M242.874,116.747a3.174,3.174,0,1,1,3.174-3.174,3.174,3.174,0,0,1-3.174,3.174" transform="translate(-87.551 -40.324)"/>
          <path id="Path_127782" data-name="Path 127782" d="M242.874,116.747a3.174,3.174,0,1,1,3.174-3.174A3.174,3.174,0,0,1,242.874,116.747Z" transform="translate(-87.551 -40.324)" fill="none" stroke="#000" stroke-miterlimit="10" stroke-width="0.635"/>
          <path id="Path_127783" data-name="Path 127783" d="M294.947,118.095a6.347,6.347,0,1,1,6.347-6.347,6.347,6.347,0,0,1-6.347,6.347" transform="translate(-105.412 -38.498)" fill="#fcf7eb"/>
          <circle id="Ellipse_1016" data-name="Ellipse 1016" cx="6.347" cy="6.347" r="6.347" transform="translate(182.163 78.431) rotate(-80.8)" fill="none" stroke="#000" stroke-miterlimit="10" stroke-width="0.635"/>
          <path id="Path_127784" data-name="Path 127784" d="M296.774,116.747a3.174,3.174,0,1,1,3.174-3.174,3.174,3.174,0,0,1-3.174,3.174" transform="translate(-107.239 -40.324)"/>
          <path id="Path_127785" data-name="Path 127785" d="M296.774,116.747a3.174,3.174,0,1,1,3.174-3.174A3.174,3.174,0,0,1,296.774,116.747Z" transform="translate(-107.239 -40.324)" fill="none" stroke="#000" stroke-miterlimit="10" stroke-width="0.635"/>
          <path id="Path_127786" data-name="Path 127786" d="M273.028,133.764a3.364,3.364,0,1,1-3.364-3.364,3.364,3.364,0,0,1,3.364,3.364" transform="translate(-97.267 -47.629)"/>
          <path id="Path_127787" data-name="Path 127787" d="M273.028,133.764a3.364,3.364,0,1,1-3.364-3.364,3.364,3.364,0,0,1,3.364,3.364Z" transform="translate(-97.267 -47.629)" fill="none" stroke="#000" stroke-miterlimit="10" stroke-width="0.635"/>
          <path id="Path_127788" data-name="Path 127788" d="M258.336,161.351a40.814,40.814,0,0,1-18.281-4.189,9.2,9.2,0,0,1,8.252-16.44,23.486,23.486,0,0,0,19.995,0,9.2,9.2,0,0,1,8.252,16.44,40.814,40.814,0,0,1-18.281,4.189" transform="translate(-85.939 -51.096)" fill="#ff0d5b"/>
          <path id="Path_127789" data-name="Path 127789" d="M258.336,161.351a40.814,40.814,0,0,1-18.281-4.189,9.2,9.2,0,0,1,8.252-16.44,23.486,23.486,0,0,0,19.995,0,9.2,9.2,0,0,1,8.252,16.44,40.814,40.814,0,0,1-18.217,4.189Z" transform="translate(-85.939 -51.096)" fill="none" stroke="#000" stroke-miterlimit="10" stroke-width="0.635"/>
          <path id="Path_127790" data-name="Path 127790" d="M259.615,160.163a38.276,38.276,0,0,1-17.138-3.935,6.671,6.671,0,1,1,5.967-11.933,25.961,25.961,0,0,0,22.28,0,6.671,6.671,0,0,1,5.967,11.933,38.276,38.276,0,0,1-17.138,3.935" transform="translate(-87.218 -52.446)" fill="#fcf7eb"/>
        </g>
        <g id="Group_21317" data-name="Group 21317" transform="translate(151.633 91.205)" clip-path="url(#clip-path-3)">
          <rect id="Rectangle_141326" data-name="Rectangle 141326" width="6.919" height="27.916" transform="translate(-0.056 -10.593)" fill="#fcf7eb"/>
          <rect id="Rectangle_141327" data-name="Rectangle 141327" width="6.919" height="27.916" transform="translate(-0.056 -10.593)" fill="none" stroke="#000" stroke-miterlimit="10" stroke-width="0.635"/>
          <rect id="Rectangle_141328" data-name="Rectangle 141328" width="6.919" height="27.916" transform="translate(6.926 -10.593)" fill="#fcf7eb"/>
          <rect id="Rectangle_141329" data-name="Rectangle 141329" width="6.919" height="27.916" transform="translate(6.926 -10.593)" fill="none" stroke="#000" stroke-miterlimit="10" stroke-width="0.635"/>
          <rect id="Rectangle_141330" data-name="Rectangle 141330" width="6.919" height="27.916" transform="translate(13.845 -10.593)" fill="#fcf7eb"/>
          <rect id="Rectangle_141331" data-name="Rectangle 141331" width="6.919" height="27.916" transform="translate(13.845 -10.593)" fill="none" stroke="#000" stroke-miterlimit="10" stroke-width="0.635"/>
          <rect id="Rectangle_141332" data-name="Rectangle 141332" width="6.919" height="27.916" transform="translate(20.764 -10.593)" fill="#fcf7eb"/>
          <rect id="Rectangle_141333" data-name="Rectangle 141333" width="6.919" height="27.916" transform="translate(20.764 -10.593)" fill="none" stroke="#000" stroke-miterlimit="10" stroke-width="0.635"/>
          <rect id="Rectangle_141334" data-name="Rectangle 141334" width="6.919" height="27.916" transform="translate(27.682 -10.593)" fill="#fcf7eb"/>
          <rect id="Rectangle_141335" data-name="Rectangle 141335" width="6.919" height="27.916" transform="translate(27.682 -10.593)" fill="none" stroke="#000" stroke-miterlimit="10" stroke-width="0.635"/>
          <rect id="Rectangle_141336" data-name="Rectangle 141336" width="6.919" height="27.916" transform="translate(34.665 -10.593)" fill="#fcf7eb"/>
          <rect id="Rectangle_141337" data-name="Rectangle 141337" width="6.919" height="27.916" transform="translate(34.665 -10.593)" fill="none" stroke="#000" stroke-miterlimit="10" stroke-width="0.635"/>
        </g>
        <g id="Group_21318" data-name="Group 21318" clip-path="url(#clip-path-2)">
          <path id="Path_127792" data-name="Path 127792" d="M259.615,160.163a38.276,38.276,0,0,1-17.138-3.935,6.671,6.671,0,1,1,5.967-11.933,25.961,25.961,0,0,0,22.28,0,6.671,6.671,0,0,1,5.967,11.933A38.275,38.275,0,0,1,259.615,160.163Z" transform="translate(-87.218 -52.446)" fill="none" stroke="#000" stroke-miterlimit="10" stroke-width="0.635"/>
          <path id="Path_127793" data-name="Path 127793" d="M197.891,5.9A5.4,5.4,0,1,1,192.5.5a5.4,5.4,0,0,1,5.4,5.4" transform="translate(-68.339 -0.183)" fill="#ff3c1d"/>
          <path id="Path_127794" data-name="Path 127794" d="M197.891,5.9A5.4,5.4,0,1,1,192.5.5a5.4,5.4,0,0,1,5.4,5.4Z" transform="translate(-68.339 -0.183)" fill="none" stroke="#000" stroke-miterlimit="10" stroke-width="0.635"/>
          <line id="Line_3322" data-name="Line 3322" y1="40.37" transform="translate(124.283 11.235)" fill="#ff0d5b"/>
          <line id="Line_3323" data-name="Line 3323" y1="40.37" transform="translate(124.283 11.235)" fill="none" stroke="#000" stroke-miterlimit="10" stroke-width="0.635"/>
          <path id="Path_127795" data-name="Path 127795" d="M179.411,80.958l-2.095-.317a23.993,23.993,0,1,0,3.364,47.225l2.031-.571c1.9-2.856,2.793-12.314,1.968-23.422S181.7,83.5,179.411,80.958" transform="translate(-55.191 -29.417)" fill="#ff0d5b"/>
          <path id="Path_127796" data-name="Path 127796" d="M179.411,80.958l-2.095-.317a23.993,23.993,0,1,0,3.364,47.225l2.031-.571c1.9-2.856,2.793-12.314,1.968-23.422S181.7,83.56,179.411,80.958Z" transform="translate(-55.191 -29.417)" fill="none" stroke="#000" stroke-miterlimit="10" stroke-width="0.635"/>
          <path id="Path_127797" data-name="Path 127797" d="M175.258,91.4c-4.189,1.079-7.363,4.253-9.458,8.061" transform="translate(-60.559 -33.384)" fill="none" stroke="#fcf7eb" stroke-linecap="round" stroke-miterlimit="10" stroke-width="6.347"/>
          <path id="Path_127798" data-name="Path 127798" d="M339.2,5.9A5.4,5.4,0,1,0,344.532.5,5.4,5.4,0,0,0,339.2,5.9" transform="translate(-123.894 -0.182)" fill="#ff3c1d"/>
          <path id="Path_127799" data-name="Path 127799" d="M339.2,5.9A5.4,5.4,0,1,0,344.532.5,5.4,5.4,0,0,0,339.2,5.9Z" transform="translate(-123.894 -0.182)" fill="none" stroke="#000" stroke-miterlimit="10" stroke-width="0.635"/>
          <path id="Path_127800" data-name="Path 127800" d="M348.486,3A5.4,5.4,0,0,1,339.6,8.586,5.4,5.4,0,1,0,348.486,3" transform="translate(-124.04 -1.096)"/>
          <path id="Path_127801" data-name="Path 127801" d="M348.486,3A5.4,5.4,0,0,1,339.6,8.586,5.4,5.4,0,1,0,348.486,3Z" transform="translate(-124.04 -1.096)" fill="none" stroke="#000" stroke-linejoin="round" stroke-width="0.635"/>
          <path id="Path_127802" data-name="Path 127802" d="M196.486,3A5.4,5.4,0,0,1,187.6,8.586,5.4,5.4,0,1,0,196.486,3" transform="translate(-68.522 -1.096)"/>
          <path id="Path_127803" data-name="Path 127803" d="M196.486,3A5.4,5.4,0,0,1,187.6,8.586,5.4,5.4,0,1,0,196.486,3Z" transform="translate(-68.522 -1.096)" fill="none" stroke="#000" stroke-linejoin="round" stroke-width="0.635"/>
          <line id="Line_3324" data-name="Line 3324" y1="40.37" transform="translate(220.511 11.235)" fill="#ff0d5b"/>
          <line id="Line_3325" data-name="Line 3325" y1="40.37" transform="translate(220.511 11.235)" fill="none" stroke="#000" stroke-miterlimit="10" stroke-width="0.635"/>
          <path id="Path_127804" data-name="Path 127804" d="M344.291,80.958l2.095-.317a23.993,23.993,0,1,1-3.364,47.225l-2.031-.571c-1.9-2.856-2.793-12.314-1.968-23.422s2.983-20.375,5.268-22.914" transform="translate(-123.717 -29.417)" fill="#ff0d5b"/>
          <path id="Path_127805" data-name="Path 127805" d="M344.291,80.958l2.095-.317a23.993,23.993,0,1,1-3.364,47.225l-2.031-.571c-1.9-2.856-2.793-12.314-1.968-23.422S342.006,83.56,344.291,80.958Z" transform="translate(-123.717 -29.417)" fill="none" stroke="#000" stroke-miterlimit="10" stroke-width="0.635"/>
          <path id="Path_127806" data-name="Path 127806" d="M349.448,123.249a24.184,24.184,0,0,1-4-.635l-2.031-.571c-1.9-2.856-2.793-12.314-1.968-23.422a89.562,89.562,0,0,1,2.6-16.821c-2.158,2.983-4.253,11.87-5.014,22.6s.063,20.566,1.968,23.422l2.031.571a23.993,23.993,0,0,0,28.944-17.075,23.993,23.993,0,0,1-22.533,11.933" transform="translate(-123.732 -29.878)"/>
          <path id="Path_127807" data-name="Path 127807" d="M349.448,123.249a24.184,24.184,0,0,1-4-.635l-2.031-.571c-1.9-2.856-2.793-12.314-1.968-23.422a89.562,89.562,0,0,1,2.6-16.821c-2.158,2.983-4.253,11.87-5.014,22.6s.063,20.566,1.968,23.422l2.031.571a23.993,23.993,0,0,0,28.944-17.075A23.993,23.993,0,0,1,349.448,123.249Z" transform="translate(-123.732 -29.878)" fill="none" stroke="#000" stroke-linejoin="round" stroke-width="0.635"/>
          <path id="Path_127808" data-name="Path 127808" d="M174.633,123.249a24.184,24.184,0,0,0,4-.635l2.031-.571c1.9-2.856,2.793-12.314,1.968-23.422a89.625,89.625,0,0,0-2.6-16.821c2.158,2.983,4.253,11.87,5.014,22.6s-.063,20.566-1.968,23.422l-2.031.571A23.993,23.993,0,0,1,152.1,111.316a23.993,23.993,0,0,0,22.533,11.933" transform="translate(-55.555 -29.878)"/>
          <path id="Path_127809" data-name="Path 127809" d="M174.633,123.249a24.184,24.184,0,0,0,4-.635l2.031-.571c1.9-2.856,2.793-12.314,1.968-23.422a89.625,89.625,0,0,0-2.6-16.821c2.158,2.983,4.253,11.87,5.014,22.6s-.063,20.566-1.968,23.422l-2.031.571A23.993,23.993,0,0,1,152.1,111.316,23.993,23.993,0,0,0,174.633,123.249Z" transform="translate(-55.555 -29.878)" fill="none" stroke="#000" stroke-linejoin="round" stroke-width="0.635"/>
          <path id="Path_127810" data-name="Path 127810" d="M250.452,158.652c-19.677,0-35.736-13.076-36.688-29.452,0,.508-.063.952-.063,1.46,0,17.075,16.44,30.912,36.688,30.912s36.688-13.837,36.688-30.912a10.758,10.758,0,0,0-.063-1.46c-.889,16.376-17.011,29.452-36.688,29.452" transform="translate(-78.055 -47.191)"/>
          <path id="Path_127811" data-name="Path 127811" d="M250.452,158.652c-19.677,0-35.736-13.076-36.688-29.452,0,.508-.063.952-.063,1.46,0,17.075,16.44,30.912,36.688,30.912s36.688-13.837,36.688-30.912a10.758,10.758,0,0,0-.063-1.46C286.188,145.576,270.129,158.652,250.452,158.652Z" transform="translate(-78.055 -47.191)" fill="none" stroke="#000" stroke-miterlimit="10" stroke-width="0.635"/>
          <path id="Path_127812" data-name="Path 127812" d="M225.5,57.016A42.465,42.465,0,0,1,254.762,45.4" transform="translate(-82.365 -16.582)" fill="#8e0bfa"/>
          <path id="Path_127813" data-name="Path 127813" d="M225.5,57.016A42.465,42.465,0,0,1,254.762,45.4" transform="translate(-82.365 -16.582)" fill="none" stroke="#fcf7eb" stroke-linecap="round" stroke-miterlimit="10" stroke-width="6.347"/>
          <path id="Path_127814" data-name="Path 127814" d="M193.154,5.327a.127.127,0,1,0-.127.127.127.127,0,0,0,.127-.127" transform="translate(-70.458 -1.899)" fill="#8e0bfa"/>
          <path id="Path_127815" data-name="Path 127815" d="M193.154,5.327a.127.127,0,1,0-.127.127A.127.127,0,0,0,193.154,5.327Z" transform="translate(-70.458 -1.899)" fill="none" stroke="#fcf7eb" stroke-linecap="round" stroke-miterlimit="10" stroke-width="3.174"/>
          <path id="Path_127816" data-name="Path 127816" d="M345.154,5.327a.127.127,0,1,0-.127.127.127.127,0,0,0,.127-.127" transform="translate(-125.976 -1.899)" fill="#8e0bfa"/>
          <path id="Path_127817" data-name="Path 127817" d="M345.154,5.327a.127.127,0,1,0-.127.127.127.127,0,0,0,.127-.127Z" transform="translate(-125.976 -1.899)" fill="none" stroke="#fcf7eb" stroke-linecap="round" stroke-miterlimit="10" stroke-width="3.174"/>
          <path id="Path_127818" data-name="Path 127818" d="M354.256,91.4a12.5,12.5,0,0,0-2.856,1.143" transform="translate(-128.35 -33.384)" fill="none" stroke="#fcf7eb" stroke-linecap="round" stroke-miterlimit="10" stroke-width="6.347"/>
          <path id="Path_127819" data-name="Path 127819" d="M176.4,226.585a21.772,21.772,0,0,1,9.712-2.285h6.919" transform="translate(-64.431 -81.926)" fill="#ff3c1d"/>
          <path id="Path_127820" data-name="Path 127820" d="M176.4,226.585a21.772,21.772,0,0,1,9.712-2.285h6.919" transform="translate(-64.431 -81.926)" fill="none" stroke="#fcf7eb" stroke-linecap="round" stroke-miterlimit="10" stroke-width="6.347"/>
          <path id="Path_127821" data-name="Path 127821" d="M189.2,318.4h8.506" transform="translate(-69.106 -116.297)" fill="#ff3c1d"/>
          <path id="Path_127822" data-name="Path 127822" d="M189.2,318.4h8.506" transform="translate(-69.106 -116.297)" fill="none" stroke="#fcf7eb" stroke-linecap="round" stroke-miterlimit="10" stroke-width="6.347"/>
          <line id="Line_3326" data-name="Line 3326" x1="13.964" y2="8.252" transform="translate(10.346 199.564)" fill="none" stroke="#fcf7eb" stroke-linecap="round" stroke-miterlimit="10" stroke-width="6.347"/>
          <line id="Line_3327" data-name="Line 3327" x2="13.901" y2="8.252" transform="translate(319.341 199.564)" fill="none" stroke="#fcf7eb" stroke-linecap="round" stroke-miterlimit="10" stroke-width="6.347"/>
        </g>
      </g>
    </g>
  </g>
</svg>
