<svg xmlns="http://www.w3.org/2000/svg" width="35" height="35" viewBox="0 0 35 35">
  <g id="Group_17500" data-name="Group 17500" transform="translate(0 -0.001)">
    <path id="Path_97506" data-name="Path 97506" d="M178.329,266.236l.366.439,6.809,6.781.994.971V290.17l-.994.626-3.756,3.029-3.053,3.777a7.674,7.674,0,0,1-1.99,1.169c-.5.027-13.9,0-13.9,0l-1.455-1.169-2.27-3.777-3.783-3.029-1.207-1.234-.36-15.456,1.567-.649,3.783-3.023,2.27-3.758,3.673-1.218H177.8Z" transform="translate(-152.863 -264.357)" fill="#00db96"/>
    <rect id="Rectangle_120849" data-name="Rectangle 120849" width="17" height="2" transform="translate(9 0.001)"/>
    <rect id="Rectangle_120850" data-name="Rectangle 120850" width="3" height="4" transform="translate(26 2.001)"/>
    <rect id="Rectangle_120851" data-name="Rectangle 120851" width="4" height="3" transform="translate(29 6.001)"/>
    <rect id="Rectangle_120852" data-name="Rectangle 120852" width="3" height="4" transform="translate(6 2.001)"/>
    <rect id="Rectangle_120853" data-name="Rectangle 120853" width="3" height="3" transform="translate(3 6.001)"/>
    <rect id="Rectangle_120854" data-name="Rectangle 120854" width="3" height="17" transform="translate(0 9.001)"/>
    <rect id="Rectangle_120855" data-name="Rectangle 120855" width="2" height="17" transform="translate(33 9.001)"/>
    <rect id="Rectangle_120856" data-name="Rectangle 120856" width="4" height="3" transform="translate(29 26.001)"/>
    <rect id="Rectangle_120857" data-name="Rectangle 120857" width="3" height="4" transform="translate(26 29.001)"/>
    <rect id="Rectangle_120858" data-name="Rectangle 120858" width="3" height="3" transform="translate(3 26.001)"/>
    <rect id="Rectangle_120859" data-name="Rectangle 120859" width="3" height="4" transform="translate(6 29.001)"/>
    <rect id="Rectangle_120860" data-name="Rectangle 120860" width="17" height="2" transform="translate(9 33.001)"/>
    <text id="_" data-name="&lt;" transform="matrix(-1, 0, 0, 1, 19, 27.001)" font-size="29" font-family="NeuePixelGrotesk, Neue Pixel Grotesk"><tspan x="-5.452" y="0">&lt;</tspan></text>
  </g>
</svg>
