<svg xmlns="http://www.w3.org/2000/svg" width="186.68" height="254.083" viewBox="0 0 186.68 254.083">
  <g id="Group_17785" data-name="Group 17785" transform="translate(-1182.99 -139.308)">
    <g id="Group_17552" data-name="Group 17552" transform="translate(1310.792 216.341) rotate(-164)">
      <rect id="Rectangle_137323" data-name="Rectangle 137323" width="5.19" height="5.19" transform="translate(5.19 5.19)" fill="#00db96"/>
      <rect id="Rectangle_137326" data-name="Rectangle 137326" width="5.19" height="5.19" transform="translate(0 0)" fill="#00db96"/>
      <rect id="Rectangle_137324" data-name="Rectangle 137324" width="5.19" height="5.19" transform="translate(10.38 5.19)" fill="#00db96"/>
      <rect id="Rectangle_137325" data-name="Rectangle 137325" width="5.19" height="5.19" transform="translate(15.571 10.38)" fill="#00db96"/>
    </g>
    <g id="Group_17553" data-name="Group 17553" transform="translate(1336.791 313.399) rotate(-150)">
      <rect id="Rectangle_137333" data-name="Rectangle 137333" width="5.19" height="5.19" transform="translate(5.19 5.191)" fill="#8e0bfa"/>
      <rect id="Rectangle_137334" data-name="Rectangle 137334" width="5.19" height="5.19" transform="translate(10.381 10.381)" fill="#8e0bfa"/>
      <rect id="Rectangle_137335" data-name="Rectangle 137335" width="5.19" height="5.19" transform="translate(0 0)" fill="#8e0bfa"/>
      <rect id="Rectangle_137336" data-name="Rectangle 137336" width="5.19" height="5.19" transform="translate(10.381 0)" fill="#8e0bfa"/>
      <rect id="Rectangle_137337" data-name="Rectangle 137337" width="5.19" height="5.19" transform="translate(0 10.381)" fill="#8e0bfa"/>
    </g>
    <g id="Group_17554" data-name="Group 17554" transform="matrix(0.469, 0.883, -0.883, 0.469, 1333.634, 175.274)">
      <rect id="Rectangle_137338" data-name="Rectangle 137338" width="5.19" height="5.19" transform="translate(5.19 5)" fill="#8e0bfa"/>
      <rect id="Rectangle_137339" data-name="Rectangle 137339" width="5.19" height="5.19" transform="translate(10.381 5)" fill="#8e0bfa"/>
      <rect id="Rectangle_137340" data-name="Rectangle 137340" width="5.19" height="5.19" transform="translate(15.571 5)" fill="#8e0bfa"/>
      <rect id="Rectangle_137341" data-name="Rectangle 137341" width="5.19" height="5.19" transform="translate(20.762 0)" fill="#8e0bfa"/>
      <rect id="Rectangle_137342" data-name="Rectangle 137342" width="5.19" height="5.19" transform="translate(10.381 10.191)" fill="#8e0bfa"/>
      <rect id="Rectangle_137343" data-name="Rectangle 137343" width="5.19" height="5.19" transform="translate(0 10.191)" fill="#8e0bfa"/>
    </g>
    <g id="Group_17555" data-name="Group 17555" transform="translate(1281.843 245.784)">
      <rect id="Rectangle_137323-2" data-name="Rectangle 137323" width="5.19" height="5.19" transform="translate(10.381 5.19)" fill="#ff3c1d"/>
      <rect id="Rectangle_137326-2" data-name="Rectangle 137326" width="5.19" height="5.19" transform="translate(15.571 10.38)" fill="#ff3c1d"/>
      <rect id="Rectangle_137348" data-name="Rectangle 137348" width="5.19" height="5.19" transform="translate(15.571 5.19)" fill="#ff3c1d"/>
      <rect id="Rectangle_137349" data-name="Rectangle 137349" width="5.19" height="5.19" transform="translate(9.571)" fill="#ff3c1d"/>
      <rect id="Rectangle_137324-2" data-name="Rectangle 137324" width="5.19" height="5.19" transform="translate(5.191 5.19)" fill="#ff3c1d"/>
      <rect id="Rectangle_137325-2" data-name="Rectangle 137325" width="5.19" height="5.19" transform="translate(0)" fill="#ff3c1d"/>
      <rect id="Rectangle_137350" data-name="Rectangle 137350" width="5.19" height="5.19" transform="translate(0 10.38)" fill="#ff3c1d"/>
    </g>
    <g id="Group_17556" data-name="Group 17556" transform="translate(1369.038 320.257) rotate(83)">
      <rect id="Rectangle_137323-3" data-name="Rectangle 137323" width="5.19" height="5.19" transform="translate(5.19 5.19)" fill="#ef225b"/>
      <rect id="Rectangle_137326-3" data-name="Rectangle 137326" width="5.19" height="5.19" transform="translate(0 0)" fill="#ef225b"/>
      <rect id="Rectangle_137324-3" data-name="Rectangle 137324" width="5.19" height="5.19" transform="translate(10.38 5.19)" fill="#ef225b"/>
      <rect id="Rectangle_137325-3" data-name="Rectangle 137325" width="5.19" height="5.19" transform="translate(15.571 10.38)" fill="#ef225b"/>
    </g>
    <g id="Group_17557" data-name="Group 17557" transform="translate(1229.824 190.424)">
      <rect id="Rectangle_137333-2" data-name="Rectangle 137333" width="5.19" height="5.19" transform="translate(5.191 5.19)" fill="#fdfb76"/>
      <rect id="Rectangle_137334-2" data-name="Rectangle 137334" width="5.19" height="5.19" transform="translate(0)" fill="#fdfb76"/>
      <rect id="Rectangle_137335-2" data-name="Rectangle 137335" width="5.19" height="5.19" transform="translate(10.381 10.381)" fill="#fdfb76"/>
      <rect id="Rectangle_137336-2" data-name="Rectangle 137336" width="5.19" height="5.19" transform="translate(0 10.381)" fill="#fdfb76"/>
      <rect id="Rectangle_137337-2" data-name="Rectangle 137337" width="5.19" height="5.19" transform="translate(10.381)" fill="#fdfb76"/>
    </g>
    <g id="Group_17558" data-name="Group 17558" transform="matrix(-0.616, 0.788, -0.788, -0.616, 1346.004, 237.357)">
      <rect id="Rectangle_137333-3" data-name="Rectangle 137333" width="5.19" height="5.19" transform="translate(5.19 5.191)" fill="#fdfb76"/>
      <rect id="Rectangle_137334-3" data-name="Rectangle 137334" width="5.19" height="5.19" transform="translate(10.381 10.381)" fill="#fdfb76"/>
      <rect id="Rectangle_137335-3" data-name="Rectangle 137335" width="5.19" height="5.19" transform="translate(0 0)" fill="#fdfb76"/>
      <rect id="Rectangle_137336-3" data-name="Rectangle 137336" width="5.19" height="5.19" transform="translate(10.381 0)" fill="#fdfb76"/>
      <rect id="Rectangle_137337-3" data-name="Rectangle 137337" width="5.19" height="5.19" transform="translate(0 10.381)" fill="#fdfb76"/>
    </g>
    <g id="Group_17559" data-name="Group 17559" transform="translate(1345.484 140.12) rotate(99)">
      <rect id="Rectangle_137323-4" data-name="Rectangle 137323" width="5.19" height="5.19" transform="translate(5.19 5.19)" fill="#ef225b"/>
      <rect id="Rectangle_137326-4" data-name="Rectangle 137326" width="5.19" height="5.19" transform="translate(0 0)" fill="#ef225b"/>
      <rect id="Rectangle_137324-4" data-name="Rectangle 137324" width="5.19" height="5.19" transform="translate(10.38 5.19)" fill="#ef225b"/>
      <rect id="Rectangle_137325-4" data-name="Rectangle 137325" width="5.19" height="5.19" transform="translate(15.571 10.38)" fill="#ef225b"/>
    </g>
    <g id="Group_17560" data-name="Group 17560" transform="matrix(-0.966, -0.259, 0.259, -0.966, 1360.857, 273.873)">
      <rect id="Rectangle_137323-5" data-name="Rectangle 137323" width="5.19" height="5.19" transform="translate(5.19 5.19)" fill="#ef225b"/>
      <rect id="Rectangle_137326-5" data-name="Rectangle 137326" width="5.19" height="5.19" transform="translate(0 0)" fill="#ef225b"/>
      <rect id="Rectangle_137324-5" data-name="Rectangle 137324" width="5.19" height="5.19" transform="translate(10.38 5.19)" fill="#ef225b"/>
      <rect id="Rectangle_137325-5" data-name="Rectangle 137325" width="5.19" height="5.19" transform="translate(15.571 10.38)" fill="#ef225b"/>
    </g>
    <g id="Group_17561" data-name="Group 17561" transform="matrix(0.105, -0.995, 0.995, 0.105, 1344.575, 392.306)">
      <rect id="Rectangle_137323-6" data-name="Rectangle 137323" width="5.19" height="5.19" transform="translate(5.19 5.19)" fill="#ff3c1d"/>
      <rect id="Rectangle_137326-6" data-name="Rectangle 137326" width="5.19" height="5.19" transform="translate(0 0)" fill="#ff3c1d"/>
      <rect id="Rectangle_137348-2" data-name="Rectangle 137348" width="5.19" height="5.19" transform="translate(0 5.19)" fill="#ff3c1d"/>
      <rect id="Rectangle_137349-2" data-name="Rectangle 137349" width="5.19" height="5.19" transform="translate(6 10.38)" fill="#ff3c1d"/>
      <rect id="Rectangle_137324-6" data-name="Rectangle 137324" width="5.19" height="5.19" transform="translate(10.38 5.19)" fill="#ff3c1d"/>
      <rect id="Rectangle_137325-6" data-name="Rectangle 137325" width="5.19" height="5.19" transform="translate(15.571 10.38)" fill="#ff3c1d"/>
      <rect id="Rectangle_137350-2" data-name="Rectangle 137350" width="5.19" height="5.19" transform="translate(15.571 0)" fill="#ff3c1d"/>
    </g>
    <g id="Group_17562" data-name="Group 17562" transform="matrix(-0.309, -0.951, 0.951, -0.309, 1288.259, 342.761)">
      <rect id="Rectangle_137323-7" data-name="Rectangle 137323" width="5.19" height="5.19" transform="translate(5.19 5.19)" fill="#00db96"/>
      <rect id="Rectangle_137326-7" data-name="Rectangle 137326" width="5.19" height="5.19" transform="translate(0 0)" fill="#00db96"/>
      <rect id="Rectangle_137324-7" data-name="Rectangle 137324" width="5.19" height="5.19" transform="translate(10.38 5.19)" fill="#00db96"/>
      <rect id="Rectangle_137325-7" data-name="Rectangle 137325" width="5.19" height="5.19" transform="translate(15.571 10.38)" fill="#00db96"/>
    </g>
    <g id="Group_17563" data-name="Group 17563" transform="matrix(-0.469, 0.883, -0.883, -0.469, 1335.076, 338.731)">
      <rect id="Rectangle_137338-2" data-name="Rectangle 137338" width="5.19" height="5.19" transform="translate(5.19 5)" fill="#ef225b"/>
      <rect id="Rectangle_137339-2" data-name="Rectangle 137339" width="5.19" height="5.19" transform="translate(10.381 5)" fill="#ef225b"/>
      <rect id="Rectangle_137340-2" data-name="Rectangle 137340" width="5.19" height="5.19" transform="translate(15.571 5)" fill="#ef225b"/>
      <rect id="Rectangle_137341-2" data-name="Rectangle 137341" width="5.19" height="5.19" transform="translate(20.762 0)" fill="#ef225b"/>
      <rect id="Rectangle_137342-2" data-name="Rectangle 137342" width="5.19" height="5.19" transform="translate(10.381 10.191)" fill="#ef225b"/>
      <rect id="Rectangle_137343-2" data-name="Rectangle 137343" width="5.19" height="5.19" transform="translate(0 10.191)" fill="#ef225b"/>
    </g>
    <g id="Group_17564" data-name="Group 17564" transform="matrix(0.391, 0.921, -0.921, 0.391, 1269.162, 246.861)">
      <rect id="Rectangle_137323-8" data-name="Rectangle 137323" width="5.19" height="5.19" transform="translate(5.19 5.19)" fill="#00db96"/>
      <rect id="Rectangle_137326-8" data-name="Rectangle 137326" width="5.19" height="5.19" transform="translate(0 0)" fill="#00db96"/>
      <rect id="Rectangle_137324-8" data-name="Rectangle 137324" width="5.19" height="5.19" transform="translate(10.38 5.19)" fill="#00db96"/>
      <rect id="Rectangle_137325-8" data-name="Rectangle 137325" width="5.19" height="5.19" transform="translate(15.571 10.38)" fill="#00db96"/>
    </g>
    <g id="Group_17565" data-name="Group 17565" transform="matrix(0.391, 0.921, -0.921, 0.391, 1358.909, 209.24)">
      <rect id="Rectangle_137323-9" data-name="Rectangle 137323" width="5.19" height="5.19" transform="translate(5.19 5.19)" fill="#00db96"/>
      <rect id="Rectangle_137326-9" data-name="Rectangle 137326" width="5.19" height="5.19" transform="translate(0 0)" fill="#00db96"/>
      <rect id="Rectangle_137324-9" data-name="Rectangle 137324" width="5.19" height="5.19" transform="translate(10.38 5.19)" fill="#00db96"/>
      <rect id="Rectangle_137325-9" data-name="Rectangle 137325" width="5.19" height="5.19" transform="translate(15.571 10.38)" fill="#00db96"/>
    </g>
    <g id="Group_17566" data-name="Group 17566" transform="matrix(0.391, -0.921, 0.921, 0.391, 1222.872, 254.954)">
      <rect id="Rectangle_137338-3" data-name="Rectangle 137338" width="5.19" height="5.19" transform="translate(5.19 5)" fill="#ef225b"/>
      <rect id="Rectangle_137339-3" data-name="Rectangle 137339" width="5.19" height="5.19" transform="translate(10.381 5)" fill="#ef225b"/>
      <rect id="Rectangle_137340-3" data-name="Rectangle 137340" width="5.19" height="5.19" transform="translate(15.571 5)" fill="#ef225b"/>
      <rect id="Rectangle_137341-3" data-name="Rectangle 137341" width="5.19" height="5.19" transform="translate(20.762 0)" fill="#ef225b"/>
      <rect id="Rectangle_137342-3" data-name="Rectangle 137342" width="5.19" height="5.19" transform="translate(10.381 10.191)" fill="#ef225b"/>
      <rect id="Rectangle_137343-3" data-name="Rectangle 137343" width="5.19" height="5.19" transform="translate(0 10.191)" fill="#ef225b"/>
    </g>
    <g id="Group_17567" data-name="Group 17567" transform="matrix(1, -0.017, 0.017, 1, 1263.335, 206.269)">
      <rect id="Rectangle_137333-4" data-name="Rectangle 137333" width="5.19" height="5.19" transform="translate(5.19 5.191)" fill="#fdfb76"/>
      <rect id="Rectangle_137334-4" data-name="Rectangle 137334" width="5.19" height="5.19" transform="translate(10.381 10.381)" fill="#fdfb76"/>
      <rect id="Rectangle_137335-4" data-name="Rectangle 137335" width="5.19" height="5.19" transform="translate(0 0)" fill="#fdfb76"/>
      <rect id="Rectangle_137336-4" data-name="Rectangle 137336" width="5.19" height="5.19" transform="translate(10.381 0)" fill="#fdfb76"/>
      <rect id="Rectangle_137337-4" data-name="Rectangle 137337" width="5.19" height="5.19" transform="translate(0 10.381)" fill="#fdfb76"/>
    </g>
    <g id="Group_17568" data-name="Group 17568" transform="translate(1272.641 146.796) rotate(112)">
      <rect id="Rectangle_137333-5" data-name="Rectangle 137333" width="5.19" height="5.19" transform="translate(5.19 5.191)" fill="#00db96"/>
      <rect id="Rectangle_137334-5" data-name="Rectangle 137334" width="5.19" height="5.19" transform="translate(10.381 10.381)" fill="#00db96"/>
      <rect id="Rectangle_137335-5" data-name="Rectangle 137335" width="5.19" height="5.19" transform="translate(0 0)" fill="#00db96"/>
      <rect id="Rectangle_137336-5" data-name="Rectangle 137336" width="5.19" height="5.19" transform="translate(10.381 0)" fill="#00db96"/>
      <rect id="Rectangle_137337-5" data-name="Rectangle 137337" width="5.19" height="5.19" transform="translate(0 10.381)" fill="#00db96"/>
    </g>
    <g id="Group_17569" data-name="Group 17569" transform="translate(1215.541 141.999) rotate(9)">
      <rect id="Rectangle_137323-10" data-name="Rectangle 137323" width="5.19" height="5.19" transform="translate(5.19 5.19)" fill="#00db96"/>
      <rect id="Rectangle_137326-10" data-name="Rectangle 137326" width="5.19" height="5.19" transform="translate(0 0)" fill="#00db96"/>
      <rect id="Rectangle_137324-10" data-name="Rectangle 137324" width="5.19" height="5.19" transform="translate(10.38 5.19)" fill="#00db96"/>
      <rect id="Rectangle_137325-10" data-name="Rectangle 137325" width="5.19" height="5.19" transform="translate(15.571 10.38)" fill="#00db96"/>
    </g>
    <g id="Group_17570" data-name="Group 17570" transform="matrix(-0.574, -0.819, 0.819, -0.574, 1197.875, 185.542)">
      <rect id="Rectangle_137338-4" data-name="Rectangle 137338" width="5.19" height="5.19" transform="translate(5.19 5)" fill="#8e0bfa"/>
      <rect id="Rectangle_137339-4" data-name="Rectangle 137339" width="5.19" height="5.19" transform="translate(10.381 5)" fill="#8e0bfa"/>
      <rect id="Rectangle_137340-4" data-name="Rectangle 137340" width="5.19" height="5.19" transform="translate(15.571 5)" fill="#8e0bfa"/>
      <rect id="Rectangle_137341-4" data-name="Rectangle 137341" width="5.19" height="5.19" transform="translate(20.762 0)" fill="#8e0bfa"/>
      <rect id="Rectangle_137342-4" data-name="Rectangle 137342" width="5.19" height="5.19" transform="translate(10.381 10.191)" fill="#8e0bfa"/>
      <rect id="Rectangle_137343-4" data-name="Rectangle 137343" width="5.19" height="5.19" transform="translate(0 10.191)" fill="#8e0bfa"/>
    </g>
    <g id="Group_17571" data-name="Group 17571" transform="matrix(-0.574, -0.819, 0.819, -0.574, 1293.886, 307.423)">
      <rect id="Rectangle_137338-5" data-name="Rectangle 137338" width="5.19" height="5.19" transform="translate(5.19 5)" fill="#ef225b"/>
      <rect id="Rectangle_137339-5" data-name="Rectangle 137339" width="5.19" height="5.19" transform="translate(10.381 5)" fill="#ef225b"/>
      <rect id="Rectangle_137340-5" data-name="Rectangle 137340" width="5.19" height="5.19" transform="translate(15.571 5)" fill="#ef225b"/>
      <rect id="Rectangle_137341-5" data-name="Rectangle 137341" width="5.19" height="5.19" transform="translate(20.762 0)" fill="#ef225b"/>
      <rect id="Rectangle_137342-5" data-name="Rectangle 137342" width="5.19" height="5.19" transform="translate(10.381 10.191)" fill="#ef225b"/>
      <rect id="Rectangle_137343-5" data-name="Rectangle 137343" width="5.19" height="5.19" transform="translate(0 10.191)" fill="#ef225b"/>
    </g>
    <g id="Group_17572" data-name="Group 17572" transform="matrix(-0.602, 0.799, -0.799, -0.602, 1287.054, 175.471)">
      <rect id="Rectangle_137323-11" data-name="Rectangle 137323" width="5.19" height="5.19" transform="translate(5.19 5.19)" fill="#ef225b"/>
      <rect id="Rectangle_137326-11" data-name="Rectangle 137326" width="5.19" height="5.19" transform="translate(0 0)" fill="#ef225b"/>
      <rect id="Rectangle_137324-11" data-name="Rectangle 137324" width="5.19" height="5.19" transform="translate(10.38 5.19)" fill="#ef225b"/>
      <rect id="Rectangle_137325-11" data-name="Rectangle 137325" width="5.19" height="5.19" transform="translate(15.571 10.38)" fill="#ef225b"/>
    </g>
    <g id="Group_17573" data-name="Group 17573" transform="matrix(0.105, -0.995, 0.995, 0.105, 1245.326, 344.97)">
      <rect id="Rectangle_137338-6" data-name="Rectangle 137338" width="5.19" height="5.19" transform="translate(5.19 5)" fill="#ef225b"/>
      <rect id="Rectangle_137339-6" data-name="Rectangle 137339" width="5.19" height="5.19" transform="translate(10.381 5)" fill="#ef225b"/>
      <rect id="Rectangle_137340-6" data-name="Rectangle 137340" width="5.19" height="5.19" transform="translate(15.571 5)" fill="#ef225b"/>
      <rect id="Rectangle_137341-6" data-name="Rectangle 137341" width="5.19" height="5.19" transform="translate(20.762 0)" fill="#ef225b"/>
      <rect id="Rectangle_137342-6" data-name="Rectangle 137342" width="5.19" height="5.19" transform="translate(10.381 10.191)" fill="#ef225b"/>
      <rect id="Rectangle_137343-6" data-name="Rectangle 137343" width="5.19" height="5.19" transform="translate(0 10.191)" fill="#ef225b"/>
    </g>
  </g>
</svg>
