<svg xmlns="http://www.w3.org/2000/svg" xmlns:xlink="http://www.w3.org/1999/xlink" width="144.109" height="150.331" viewBox="0 0 144.109 150.331">
  <defs>
    <clipPath id="clip-path">
      <rect id="Rectangle_137312" data-name="Rectangle 137312" width="144.109" height="150.331" fill="none"/>
    </clipPath>
  </defs>
  <g id="Artwork_24" data-name="Artwork 24" transform="translate(72.055 75.166)">
    <g id="Group_17497" data-name="Group 17497" transform="translate(-72.055 -75.166)" clip-path="url(#clip-path)">
      <path id="Path_102395" data-name="Path 102395" d="M48.463,0A48.463,48.463,0,1,1,0,48.463,48.463,48.463,0,0,1,48.463,0" transform="translate(0.8 52.462)"/>
      <path id="Path_102396" data-name="Path 102396" d="M48.463,0A48.463,48.463,0,1,1,0,48.463,48.463,48.463,0,0,1,48.463,0Z" transform="translate(0.8 52.462)" fill="none" stroke="#000" stroke-miterlimit="10" stroke-width="1.599"/>
      <path id="Path_102397" data-name="Path 102397" d="M48.623,0A48.463,48.463,0,1,1,14.194,14.194,48.463,48.463,0,0,1,48.623,0" transform="translate(2.559 44.464)" fill="#8e0bfa"/>
      <circle id="Ellipse_833" data-name="Ellipse 833" cx="48.463" cy="48.463" r="48.463" transform="translate(2.719 44.624)" fill="none" stroke="#000" stroke-miterlimit="10" stroke-width="1.599"/>
      <path id="Path_102398" data-name="Path 102398" d="M48.461,0a48.463,48.463,0,1,0,46.7,35.508,12.156,12.156,0,0,1-22.552-6.4c0-1.919-9.757-10.716-9.757-16.954C62.856,8.957,54.539,0,48.3,0" transform="translate(44.626 8.797)"/>
      <path id="Path_102399" data-name="Path 102399" d="M48.461,0a48.463,48.463,0,1,0,46.7,35.508,12.156,12.156,0,0,1-22.552-6.4c0-1.919-9.757-10.716-9.757-16.954C63.016,8.957,54.539,0,48.461,0Z" transform="translate(44.626 8.797)" fill="none" stroke="#000" stroke-miterlimit="10" stroke-width="1.599"/>
      <path id="Path_102400" data-name="Path 102400" d="M48.461,0a48.463,48.463,0,1,0,46.7,35.508,12.156,12.156,0,0,1-22.552-6.4,6.078,6.078,0,0,1,2.4-4.8c-6.078-.64-12.156-5.918-12.156-12.156a12.156,12.156,0,0,1,3.519-8.637A48.3,48.3,0,0,0,48.461,0" transform="translate(46.386 0.8)" fill="#8e0bfa"/>
      <path id="Path_102401" data-name="Path 102401" d="M48.461,0a48.463,48.463,0,1,0,46.7,35.508,12.156,12.156,0,0,1-22.552-6.4,6.078,6.078,0,0,1,2.4-4.8c-6.078-.64-12.156-5.918-12.156-12.156a12.156,12.156,0,0,1,3.519-8.637A48.3,48.3,0,0,0,48.461,0Z" transform="translate(46.386 0.8)" fill="none" stroke="#000" stroke-miterlimit="10" stroke-width="1.599"/>
      <path id="Path_102402" data-name="Path 102402" d="M4.638,6.878a2.4,2.4,0,0,1-1.759-.64l-2.4-2.4A2.4,2.4,0,0,1,3.839.48l2.4,2.4A2.4,2.4,0,0,1,4.478,7.038" transform="translate(82.851 44.944)" fill="#fdfb76"/>
      <path id="Path_102403" data-name="Path 102403" d="M4.638,6.878a2.4,2.4,0,0,1-1.759-.64l-2.4-2.4A2.4,2.4,0,0,1,3.839.48l2.4,2.4A2.4,2.4,0,0,1,4.478,7.038Z" transform="translate(82.851 44.944)" fill="none" stroke="#000" stroke-miterlimit="10" stroke-width="1.599"/>
      <path id="Path_102404" data-name="Path 102404" d="M2.531,7.038A2.4,2.4,0,0,1,.772,2.879L3.331.48A2.4,2.4,0,0,1,6.69,3.839l-2.4,2.4a2.4,2.4,0,0,1-1.759.64" transform="translate(55.848 39.826)" fill="#fdfb76"/>
      <path id="Path_102405" data-name="Path 102405" d="M2.531,7.038A2.4,2.4,0,0,1,.772,2.879L3.331.48A2.4,2.4,0,0,1,6.69,3.839l-2.4,2.4a2.4,2.4,0,0,1-1.759.8Z" transform="translate(55.848 39.826)" fill="none" stroke="#000" stroke-miterlimit="10" stroke-width="1.599"/>
      <path id="Path_102406" data-name="Path 102406" d="M4.638,6.878a2.4,2.4,0,0,1-1.759-.64l-2.4-2.4A2.4,2.4,0,0,1,3.839.48l2.4,2.4a2.4,2.4,0,0,1-1.6,4" transform="translate(121.717 52.142)" fill="#fdfb76"/>
      <path id="Path_102407" data-name="Path 102407" d="M4.638,6.878a2.4,2.4,0,0,1-1.759-.64l-2.4-2.4A2.4,2.4,0,0,1,3.839.48l2.4,2.4a2.4,2.4,0,0,1-1.6,4Z" transform="translate(121.717 52.142)" fill="none" stroke="#000" stroke-miterlimit="10" stroke-width="1.599"/>
      <path id="Path_102408" data-name="Path 102408" d="M2.531,7.038A2.4,2.4,0,0,1,.772,2.879l2.4-2.4A2.4,2.4,0,0,1,6.53,3.839l-2.4,2.4a2.4,2.4,0,0,1-1.759.64" transform="translate(104.471 35.028)" fill="#fdfb76"/>
      <path id="Path_102409" data-name="Path 102409" d="M2.531,7.038A2.4,2.4,0,0,1,.772,2.879l2.4-2.4A2.4,2.4,0,0,1,6.53,3.839l-2.4,2.4a2.4,2.4,0,0,1-1.6.8Z" transform="translate(104.471 35.028)" fill="none" stroke="#000" stroke-miterlimit="10" stroke-width="1.599"/>
      <path id="Path_102410" data-name="Path 102410" d="M2.531,7.038A2.4,2.4,0,0,1,.772,2.879l2.4-2.4A2.4,2.4,0,0,1,6.53,3.839l-2.4,2.4a2.4,2.4,0,0,1-1.759.64" transform="translate(84.958 66.537)" fill="#fdfb76"/>
      <path id="Path_102411" data-name="Path 102411" d="M2.531,7.038A2.4,2.4,0,0,1,.772,2.879l2.4-2.4A2.4,2.4,0,0,1,6.53,3.839l-2.4,2.4a2.4,2.4,0,0,1-1.6.8Z" transform="translate(84.958 66.537)" fill="none" stroke="#000" stroke-miterlimit="10" stroke-width="1.599"/>
      <path id="Path_102412" data-name="Path 102412" d="M4.831,7.311a2.4,2.4,0,0,1-1.759-.64L.673,4.112A2.432,2.432,0,1,1,4.192.753l2.4,2.4A2.4,2.4,0,0,1,4.831,7.311" transform="translate(92.414 5.645)" fill="#fdfb76"/>
      <path id="Path_102413" data-name="Path 102413" d="M4.831,7.311a2.4,2.4,0,0,1-1.759-.64L.673,4.112A2.432,2.432,0,1,1,4.192.753l2.4,2.4A2.4,2.4,0,0,1,4.831,7.311Z" transform="translate(92.414 5.645)" fill="none" stroke="#000" stroke-miterlimit="10" stroke-width="1.599"/>
      <path id="Path_102414" data-name="Path 102414" d="M4.911,7.231a2.4,2.4,0,0,1-1.759-.64l-2.4-2.4A2.432,2.432,0,0,1,4.112.673l2.4,2.4A2.4,2.4,0,0,1,4.751,7.231" transform="translate(102.091 80.898)" fill="#fdfb76"/>
      <path id="Path_102415" data-name="Path 102415" d="M4.911,7.231a2.4,2.4,0,0,1-1.759-.64l-2.4-2.4A2.432,2.432,0,0,1,4.112.673l2.4,2.4A2.4,2.4,0,0,1,4.751,7.231Z" transform="translate(102.091 80.898)" fill="none" stroke="#000" stroke-miterlimit="10" stroke-width="1.599"/>
      <path id="Path_102416" data-name="Path 102416" d="M5.118,7.358a2.4,2.4,0,0,1-1.759-.64l-2.4-2.4A2.4,2.4,0,1,1,4.319.96l2.4,2.4A2.4,2.4,0,0,1,4.958,7.517" transform="translate(31.509 56.46)" fill="#fdfb76"/>
      <path id="Path_102417" data-name="Path 102417" d="M5.118,7.358a2.4,2.4,0,0,1-1.759-.64l-2.4-2.4A2.4,2.4,0,1,1,4.319.96l2.4,2.4A2.4,2.4,0,0,1,4.958,7.517Z" transform="translate(31.509 56.46)" fill="none" stroke="#000" stroke-miterlimit="10" stroke-width="1.599"/>
      <path id="Path_102418" data-name="Path 102418" d="M2.531,7.038A2.4,2.4,0,0,1,.772,2.879l2.4-2.4A2.4,2.4,0,0,1,6.53,3.839l-2.4,2.4a2.4,2.4,0,0,1-1.759.64" transform="translate(31.697 95.646)" fill="#fdfb76"/>
      <path id="Path_102419" data-name="Path 102419" d="M2.531,7.038A2.4,2.4,0,0,1,.772,2.879l2.4-2.4A2.4,2.4,0,0,1,6.53,3.839l-2.4,2.4A2.4,2.4,0,0,1,2.531,7.038Z" transform="translate(31.697 95.646)" fill="none" stroke="#000" stroke-miterlimit="10" stroke-width="1.599"/>
      <path id="Path_102420" data-name="Path 102420" d="M5.118,7.358a2.4,2.4,0,0,1-1.759-.64l-2.4-2.4A2.4,2.4,0,1,1,4.319.96l2.4,2.4A2.4,2.4,0,0,1,4.958,7.517" transform="translate(31.509 122.037)" fill="#fdfb76"/>
      <path id="Path_102421" data-name="Path 102421" d="M5.118,7.358a2.4,2.4,0,0,1-1.759-.64l-2.4-2.4A2.4,2.4,0,1,1,4.319.96l2.4,2.4A2.4,2.4,0,0,1,4.958,7.517Z" transform="translate(31.509 122.037)" fill="none" stroke="#000" stroke-miterlimit="10" stroke-width="1.599"/>
      <path id="Path_102422" data-name="Path 102422" d="M2.37,6.878a2.4,2.4,0,0,1-1.759-4L3.01.48A2.4,2.4,0,0,1,6.369,3.839l-2.4,2.4a2.4,2.4,0,0,1-1.759.64" transform="translate(63.366 98.205)" fill="#fdfb76"/>
      <path id="Path_102423" data-name="Path 102423" d="M2.37,6.878a2.4,2.4,0,0,1-1.759-4L3.01.48A2.4,2.4,0,0,1,6.369,3.839l-2.4,2.4a2.4,2.4,0,0,1-1.6.64Z" transform="translate(63.366 98.205)" fill="none" stroke="#000" stroke-miterlimit="10" stroke-width="1.599"/>
      <path id="Path_102424" data-name="Path 102424" d="M4.638,6.878a2.4,2.4,0,0,1-1.759-.64l-2.4-2.4A2.4,2.4,0,0,1,3.839.48L6.4,2.719A2.4,2.4,0,0,1,4.638,6.878" transform="translate(46.544 83.651)" fill="#fdfb76"/>
      <path id="Path_102425" data-name="Path 102425" d="M4.638,6.878a2.4,2.4,0,0,1-1.759-.64l-2.4-2.4A2.4,2.4,0,0,1,3.839.48L6.4,2.719A2.4,2.4,0,0,1,4.638,6.878Z" transform="translate(46.544 83.651)" fill="none" stroke="#000" stroke-miterlimit="10" stroke-width="1.599"/>
      <path id="Path_102426" data-name="Path 102426" d="M2.531,7.517A2.4,2.4,0,0,1,.772,3.359l2.4-2.4A2.4,2.4,0,1,1,6.53,4.319L4.291,6.878a2.4,2.4,0,0,1-1.759.64" transform="translate(53.449 124.276)" fill="#fdfb76"/>
      <path id="Path_102427" data-name="Path 102427" d="M2.531,7.517A2.4,2.4,0,0,1,.772,3.359l2.4-2.4A2.4,2.4,0,1,1,6.53,4.319L4.291,6.878A2.4,2.4,0,0,1,2.531,7.517Z" transform="translate(53.449 124.276)" fill="none" stroke="#000" stroke-miterlimit="10" stroke-width="1.599"/>
      <path id="Path_102428" data-name="Path 102428" d="M2.531,7.038A2.4,2.4,0,0,1,.772,2.879l2.4-2.4A2.4,2.4,0,0,1,6.53,3.839l-2.239,2.4a2.4,2.4,0,0,1-1.759.64" transform="translate(9.784 88.449)" fill="#fdfb76"/>
      <path id="Path_102429" data-name="Path 102429" d="M2.531,7.038A2.4,2.4,0,0,1,.772,2.879l2.4-2.4A2.4,2.4,0,0,1,6.53,3.839l-2.239,2.4a2.4,2.4,0,0,1-1.759.8Z" transform="translate(9.784 88.449)" fill="none" stroke="#000" stroke-miterlimit="10" stroke-width="1.599"/>
      <path id="Path_102430" data-name="Path 102430" d="M7.357,0A7.357,7.357,0,1,1,0,7.357,7.357,7.357,0,0,1,7.357,0" transform="translate(77.733 20.153)" fill="#ff3c1d"/>
      <circle id="Ellipse_834" data-name="Ellipse 834" cx="7.357" cy="7.357" r="7.357" transform="translate(77.733 20.153)" fill="none" stroke="#000" stroke-miterlimit="10" stroke-width="1.599"/>
      <path id="Path_102431" data-name="Path 102431" d="M4.8,0A4.8,4.8,0,1,1,0,4.8,4.8,4.8,0,0,1,4.8,0" transform="translate(63.338 61.418)" fill="#ff3c1d"/>
      <path id="Path_102432" data-name="Path 102432" d="M4.8,0A4.8,4.8,0,1,1,0,4.8,4.8,4.8,0,0,1,4.8,0Z" transform="translate(63.338 61.418)" fill="none" stroke="#000" stroke-miterlimit="10" stroke-width="1.599"/>
      <path id="Path_102433" data-name="Path 102433" d="M7.357,0A7.357,7.357,0,1,1,0,7.357,7.357,7.357,0,0,1,7.357,0" transform="translate(102.044 59.019)" fill="#ff3c1d"/>
      <path id="Path_102434" data-name="Path 102434" d="M7.357,0A7.357,7.357,0,1,1,0,7.357,7.357,7.357,0,0,1,7.357,0Z" transform="translate(102.044 59.019)" fill="none" stroke="#000" stroke-miterlimit="10" stroke-width="1.599"/>
      <path id="Path_102435" data-name="Path 102435" d="M7.357,0A7.357,7.357,0,1,1,0,7.357,7.357,7.357,0,0,1,7.357,0" transform="translate(21.912 73.574)" fill="#ff3c1d"/>
      <path id="Path_102436" data-name="Path 102436" d="M7.357,0A7.357,7.357,0,1,1,0,7.357,7.357,7.357,0,0,1,7.357,0Z" transform="translate(21.912 73.574)" fill="none" stroke="#000" stroke-miterlimit="10" stroke-width="1.599"/>
      <path id="Path_102437" data-name="Path 102437" d="M7.357,0A7.357,7.357,0,1,1,0,7.357,7.357,7.357,0,0,1,7.357,0" transform="translate(41.425 102.684)" fill="#ff3c1d"/>
      <circle id="Ellipse_835" data-name="Ellipse 835" cx="7.357" cy="7.357" r="7.357" transform="translate(41.425 102.684)" fill="none" stroke="#000" stroke-miterlimit="10" stroke-width="1.599"/>
      <path id="Path_102438" data-name="Path 102438" d="M9.757,0A9.757,9.757,0,1,1,0,9.757,9.757,9.757,0,0,1,9.757,0" transform="translate(70.535 107.642)" fill="#ff3c1d"/>
      <path id="Path_102439" data-name="Path 102439" d="M9.757,0A9.757,9.757,0,1,1,0,9.757,9.757,9.757,0,0,1,9.757,0Z" transform="translate(70.535 107.642)" fill="none" stroke="#000" stroke-miterlimit="10" stroke-width="1.599"/>
      <path id="Path_102440" data-name="Path 102440" d="M17.914,9.527a9.757,9.757,0,0,1-8.157,9.6A48.623,48.623,0,0,1,0,4.409,9.757,9.757,0,0,1,17.914,9.527" transform="translate(6.558 107.712)" fill="#ff3c1d"/>
      <path id="Path_102441" data-name="Path 102441" d="M17.914,9.527a9.757,9.757,0,0,1-8.157,9.6A48.623,48.623,0,0,1,0,4.409,9.757,9.757,0,0,1,17.914,9.527Z" transform="translate(6.558 107.712)" fill="none" stroke="#000" stroke-miterlimit="10" stroke-width="1.599"/>
      <path id="Path_102442" data-name="Path 102442" d="M14.407,6.276a7.2,7.2,0,0,1-1.439,4.478A48.142,48.142,0,0,1,.012,7.075a6.875,6.875,0,0,1,0-.8,7.357,7.357,0,0,1,14.555,0" transform="translate(75.642 86.812)" fill="#ff3c1d"/>
      <path id="Path_102443" data-name="Path 102443" d="M14.407,6.276a7.2,7.2,0,0,1-1.439,4.478A48.142,48.142,0,0,1,.012,7.075a6.875,6.875,0,0,1,0-.8,7.357,7.357,0,0,1,14.555,0Z" transform="translate(75.642 86.812)" fill="none" stroke="#000" stroke-miterlimit="10" stroke-width="1.599"/>
      <path id="Path_102444" data-name="Path 102444" d="M8.049,8.317A7.357,7.357,0,0,1,.692.96,6.877,6.877,0,0,1,.852,0,7.2,7.2,0,1,0,14.287,4.638,7.2,7.2,0,0,1,8.049,8.157" transform="translate(78.001 23.512)"/>
      <path id="Path_102445" data-name="Path 102445" d="M8.049,8.317A7.357,7.357,0,0,1,.692.96,6.877,6.877,0,0,1,.852,0,7.2,7.2,0,1,0,14.287,4.638,7.2,7.2,0,0,1,8.049,8.317Z" transform="translate(78.001 23.512)" fill="none" stroke="#000" stroke-linecap="round" stroke-linejoin="round" stroke-width="1.599"/>
      <path id="Path_102446" data-name="Path 102446" d="M5.758,4.8A4.8,4.8,0,0,1,.96,0h0A4.8,4.8,0,1,0,9.6,2.879,4.8,4.8,0,0,1,5.758,4.8" transform="translate(63.338 63.498)"/>
      <path id="Path_102447" data-name="Path 102447" d="M5.758,4.8A4.8,4.8,0,0,1,.96,0h0A4.8,4.8,0,1,0,9.6,2.879,4.8,4.8,0,0,1,5.758,4.8Z" transform="translate(63.338 63.498)" fill="none" stroke="#000" stroke-linecap="round" stroke-linejoin="round" stroke-width="1.599"/>
      <path id="Path_102448" data-name="Path 102448" d="M8.049,8.157A7.357,7.357,0,0,1,.692.8,6.87,6.87,0,0,1,.852,0,7.2,7.2,0,1,0,14.287,4.638,7.2,7.2,0,0,1,8.049,8.157" transform="translate(102.312 62.538)"/>
      <path id="Path_102449" data-name="Path 102449" d="M8.049,8.157A7.357,7.357,0,0,1,.692.8,6.87,6.87,0,0,1,.852,0,7.2,7.2,0,1,0,14.287,4.638,7.2,7.2,0,0,1,8.049,8.157Z" transform="translate(102.312 62.538)" fill="none" stroke="#000" stroke-linecap="round" stroke-linejoin="round" stroke-width="1.599"/>
      <path id="Path_102450" data-name="Path 102450" d="M8.049,8.157A7.038,7.038,0,0,1,.852,0,7.2,7.2,0,1,0,14.287,4.638,7.2,7.2,0,0,1,8.049,8.157" transform="translate(22.18 77.093)"/>
      <path id="Path_102451" data-name="Path 102451" d="M8.049,8.157A7.038,7.038,0,0,1,.852,0,7.2,7.2,0,1,0,14.287,4.638,7.2,7.2,0,0,1,8.049,8.157Z" transform="translate(22.18 77.093)" fill="none" stroke="#000" stroke-linecap="round" stroke-linejoin="round" stroke-width="1.599"/>
      <path id="Path_102452" data-name="Path 102452" d="M8.085,8A7.358,7.358,0,0,1,.728.8,6.88,6.88,0,0,1,.888,0,7.2,7.2,0,1,0,14.323,4.478,7.2,7.2,0,0,1,8.085,8" transform="translate(41.657 106.363)"/>
      <path id="Path_102453" data-name="Path 102453" d="M8.085,8A7.358,7.358,0,0,1,.728.8,6.88,6.88,0,0,1,.888,0,7.2,7.2,0,1,0,14.323,4.478,7.2,7.2,0,0,1,8.085,8Z" transform="translate(41.657 106.363)" fill="none" stroke="#000" stroke-linecap="round" stroke-linejoin="round" stroke-width="1.599"/>
      <path id="Path_102454" data-name="Path 102454" d="M10.952,11.356A9.6,9.6,0,0,1,1.356,0,9.757,9.757,0,1,0,19.429,6.238a9.757,9.757,0,0,1-8.477,5.118" transform="translate(70.299 112.76)"/>
      <path id="Path_102455" data-name="Path 102455" d="M10.952,11.356A9.6,9.6,0,0,1,1.356,0,9.757,9.757,0,1,0,19.429,6.238a9.757,9.757,0,0,1-8.477,5.118Z" transform="translate(70.299 112.76)" fill="none" stroke="#000" stroke-linecap="round" stroke-linejoin="round" stroke-width="1.599"/>
      <path id="Path_102456" data-name="Path 102456" d="M10.876,13.6A48.622,48.622,0,0,1,1.439,0L0,1.759A48.623,48.623,0,0,0,9.757,16.474a9.757,9.757,0,0,0,8-8A9.757,9.757,0,0,1,10.876,13.6" transform="translate(6.558 110.361)"/>
      <path id="Path_102457" data-name="Path 102457" d="M10.876,13.6A48.622,48.622,0,0,1,1.439,0L0,1.759A48.623,48.623,0,0,0,9.757,16.474a9.757,9.757,0,0,0,8-8A9.757,9.757,0,0,1,10.876,13.6Z" transform="translate(6.558 110.361)" fill="none" stroke="#000" stroke-linecap="round" stroke-linejoin="round" stroke-width="1.599"/>
      <path id="Path_102458" data-name="Path 102458" d="M13.927,5.278A47.982,47.982,0,0,1,.971,1.6a7.361,7.361,0,0,1,0-.8,7.2,7.2,0,0,1,.16-.8A7.2,7.2,0,0,0,.012,3.839a6.882,6.882,0,0,0,0,.8A48.143,48.143,0,0,0,12.967,8.317,7.2,7.2,0,0,0,14.407,4.8l-.48.64" transform="translate(75.482 89.249)"/>
      <path id="Path_102459" data-name="Path 102459" d="M13.927,5.278A47.982,47.982,0,0,1,.971,1.6a7.361,7.361,0,0,1,0-.8,7.2,7.2,0,0,1,.16-.8A7.2,7.2,0,0,0,.012,3.839a6.882,6.882,0,0,0,0,.8A48.143,48.143,0,0,0,12.967,8.317,7.2,7.2,0,0,0,14.407,4.8Z" transform="translate(75.482 89.249)" fill="none" stroke="#000" stroke-linecap="round" stroke-linejoin="round" stroke-width="1.599"/>
    </g>
  </g>
</svg>
