<svg xmlns="http://www.w3.org/2000/svg" xmlns:xlink="http://www.w3.org/1999/xlink" width="160.96" height="141.383" viewBox="0 0 160.96 141.383">
  <defs>
    <clipPath id="clip-path">
      <rect id="Rectangle_137739" data-name="Rectangle 137739" width="160.96" height="141.383" fill="none"/>
    </clipPath>
  </defs>
  <g id="Artwork_42" data-name="Artwork 42" transform="translate(80.48 70.691)">
    <g id="Group_17783" data-name="Group 17783" transform="translate(-80.48 -70.691)" clip-path="url(#clip-path)">
      <path id="Path_114750" data-name="Path 114750" d="M112.173,29.154a28.636,28.636,0,1,0-35.748,27.7v83.1H90.837v-83.1a28.636,28.636,0,0,0,21.337-27.7m-39.3,0A10.668,10.668,0,0,1,83.538,18.486h2.246A10.668,10.668,0,1,1,72.869,28.967" transform="translate(47.851 0.417)" fill="#00db96"/>
      <path id="Path_114751" data-name="Path 114751" d="M112.173,29.154a28.636,28.636,0,1,0-35.748,27.7v83.1H90.837v-83.1a28.636,28.636,0,0,0,21.337-27.7Zm-39.3,0A10.668,10.668,0,0,1,83.538,18.486h2.246A10.668,10.668,0,1,1,72.869,28.967Z" transform="translate(47.851 0.417)" fill="none" stroke="#000" stroke-miterlimit="10" stroke-width="1.872"/>
      <path id="Path_114752" data-name="Path 114752" d="M88.329,74.4H7.1V40.714a40.614,40.614,0,1,1,81.229,0Zm-68.5-12.54H75.789V40.714a28.074,28.074,0,0,0-55.962,0Z" transform="translate(6.189 0.087)"/>
      <path id="Path_114753" data-name="Path 114753" d="M98.573,106.868H9.109A8.609,8.609,0,0,1,.5,98.258V42.109A8.609,8.609,0,0,1,9.109,33.5H98.573a8.609,8.609,0,0,1,8.609,8.609V98.258a8.609,8.609,0,0,1-8.609,8.609" transform="translate(0.436 29.2)" fill="#00db96"/>
      <rect id="Rectangle_137738" data-name="Rectangle 137738" width="106.496" height="73.181" rx="8.609" transform="translate(0.936 62.887)" fill="none" stroke="#000" stroke-miterlimit="10" stroke-width="1.872"/>
      <path id="Path_114754" data-name="Path 114754" d="M60.135,33.6H44.6a8.609,8.609,0,0,1,8.609,8.609V98.358a8.609,8.609,0,0,1-8.609,8.609H60.135a8.609,8.609,0,0,0,8.609-8.609V42.209A8.609,8.609,0,0,0,60.135,33.6" transform="translate(38.875 29.287)"/>
      <path id="Path_114755" data-name="Path 114755" d="M60.135,33.6H44.6a8.609,8.609,0,0,1,8.609,8.609V98.358a8.609,8.609,0,0,1-8.609,8.609H60.135a8.609,8.609,0,0,0,8.609-8.609V42.209A8.609,8.609,0,0,0,60.135,33.6Z" transform="translate(38.875 29.287)" fill="none" stroke="#000" stroke-miterlimit="10" stroke-width="1.872"/>
      <path id="Path_114756" data-name="Path 114756" d="M29.341,63.43V74.66a3.93,3.93,0,0,0,7.861,0V63.43a9.171,9.171,0,1,0-7.861,0" transform="translate(21.006 40.071)"/>
      <path id="Path_114757" data-name="Path 114757" d="M29.341,63.43V74.66a3.93,3.93,0,0,0,7.861,0V63.43a9.171,9.171,0,1,0-7.861,0Z" transform="translate(21.006 40.071)" fill="none" stroke="#000" stroke-miterlimit="10" stroke-width="1.872"/>
      <path id="Path_114758" data-name="Path 114758" d="M98.836,62.612V48.387L70.2,48.2V91.247H98.836V77.023H91.724V62.612Z" transform="translate(61.188 42.012)" fill="#ff3c1d"/>
      <path id="Path_114759" data-name="Path 114759" d="M98.836,62.612V48.387L70.2,48.2V91.247H98.836V77.023H91.724V62.612Z" transform="translate(61.188 42.012)" fill="none" stroke="#000" stroke-miterlimit="10" stroke-width="1.872"/>
      <path id="Path_114760" data-name="Path 114760" d="M98.836,62.612V48.387L70.2,48.2l21.337.187V62.612H84.424V77.023h7.112V91.247h7.3V77.023H91.724V62.612Z" transform="translate(61.188 42.012)"/>
      <path id="Path_114761" data-name="Path 114761" d="M98.836,62.612V48.387L70.2,48.2l21.337.187V62.612H84.424V77.023h7.112V91.247h7.3V77.023H91.724V62.612Z" transform="translate(61.188 42.012)" fill="none" stroke="#000" stroke-miterlimit="10" stroke-width="1.872"/>
      <path id="Path_114762" data-name="Path 114762" d="M100.579,29.136A28.636,28.636,0,0,0,71.943.5H68.2a28.636,28.636,0,0,1,3.556,55.962v83.475h7.3v-83.1a28.636,28.636,0,0,0,21.524-27.7" transform="translate(59.445 0.436)"/>
      <path id="Path_114763" data-name="Path 114763" d="M100.579,29.136A28.636,28.636,0,0,0,71.943.5H68.2a28.636,28.636,0,0,1,3.556,55.962v83.475h7.3v-83.1a28.636,28.636,0,0,0,21.524-27.7Z" transform="translate(59.445 0.436)" fill="none" stroke="#000" stroke-linejoin="round" stroke-width="1.872"/>
    </g>
  </g>
</svg>
