<svg xmlns="http://www.w3.org/2000/svg" xmlns:xlink="http://www.w3.org/1999/xlink" width="131.356" height="144.896" viewBox="0 0 131.356 144.896">
  <defs>
    <clipPath id="clip-path">
      <rect id="Rectangle_137356" data-name="Rectangle 137356" width="131.356" height="144.896" fill="none"/>
    </clipPath>
  </defs>
  <g id="Artwork_27" data-name="Artwork 27" transform="translate(65.678 72.448)">
    <g id="Group_17575" data-name="Group 17575" transform="translate(-65.678 -72.448)" clip-path="url(#clip-path)">
      <path id="Path_102518" data-name="Path 102518" d="M73.42,139.94l-6.4,3.368a3.537,3.537,0,0,1-3.2,0l-6.4-3.368C22.056,121.415.5,87.4.5,50.517V27.95a3.537,3.537,0,0,1,3.031-3.537C15.657,23.235,25.424,14.478,26.94,3.531A3.537,3.537,0,0,1,30.308.5H100.2a3.537,3.537,0,0,1,3.537,3.031c1.516,10.946,11.115,19.7,23.24,20.882A3.537,3.537,0,0,1,130,27.95V50.517c0,36.881-21.556,70.9-56.753,89.423" transform="translate(0.342 0.342)" fill="#00db96"/>
      <path id="Path_102519" data-name="Path 102519" d="M73.42,139.94l-6.4,3.368a3.537,3.537,0,0,1-3.2,0l-6.4-3.368C22.056,121.415.5,87.4.5,50.517V27.95a3.537,3.537,0,0,1,3.031-3.537C15.657,23.235,25.424,14.478,26.94,3.531A3.537,3.537,0,0,1,30.308.5H100.2a3.537,3.537,0,0,1,3.537,3.031c1.516,10.946,11.115,19.7,23.24,20.882A3.537,3.537,0,0,1,130,27.95V50.517C130.172,87.4,108.448,121.415,73.42,139.94Z" transform="translate(0.342 0.342)" fill="none" stroke="#000" stroke-miterlimit="10" stroke-width="1.684"/>
      <path id="Path_102520" data-name="Path 102520" d="M101.047,24.414c-12.125-1.179-21.724-9.936-23.24-20.882A3.537,3.537,0,0,0,74.27.5H69.555c.674,15.157,11.452,25.934,23.24,27.282a3.537,3.537,0,0,1,3.031,3.537v22.4c0,36.881-21.556,70.9-56.753,89.423l-.674.337a3.537,3.537,0,0,0,2.694-.337l6.4-3.368c35.2-18.525,56.753-52.543,56.753-89.423V27.95a3.537,3.537,0,0,0-3.031-3.537" transform="translate(26.268 0.342)"/>
      <path id="Path_102521" data-name="Path 102521" d="M58.806,126.878a100.707,100.707,0,0,1-38.4-34.692A87.234,87.234,0,0,1,6.6,45.37v-12.8a4.547,4.547,0,0,1,2.863-4.21A39.575,39.575,0,0,0,30.85,8.826,4.547,4.547,0,0,1,34.892,6.3H87.435a4.547,4.547,0,0,1,4.042,2.526,39.575,39.575,0,0,0,21.388,19.535,4.547,4.547,0,0,1,2.863,4.21v12.8a87.234,87.234,0,0,1-13.809,46.817,100.706,100.706,0,0,1-38.4,34.692h-.337a4.547,4.547,0,0,1-4.21,0Z" transform="translate(4.515 4.31)" fill="#ff3c1d"/>
      <path id="Path_102522" data-name="Path 102522" d="M58.806,126.878a100.707,100.707,0,0,1-38.4-34.692A87.234,87.234,0,0,1,6.6,45.37v-12.8a4.547,4.547,0,0,1,2.863-4.21A39.575,39.575,0,0,0,30.85,8.826,4.547,4.547,0,0,1,34.892,6.3H87.435a4.547,4.547,0,0,1,4.042,2.526,39.575,39.575,0,0,0,21.388,19.535,4.547,4.547,0,0,1,2.863,4.21v12.8a87.234,87.234,0,0,1-13.809,46.817,100.706,100.706,0,0,1-38.4,34.692h-.337a4.547,4.547,0,0,1-4.21,0Z" transform="translate(4.515 4.31)" fill="none" stroke="#000" stroke-miterlimit="10" stroke-width="1.684"/>
      <path id="Path_102523" data-name="Path 102523" d="M90.7,28.361h-.674l-.674-.337h-.337l-.674-.337h-.337L87,27.182h0l-.842-.505h-.337l-.674-.337h-.337L84.3,26h-.337l-.674-.337h-.337l-.842-.505h0l-.842-.674h-.337l-.505-.505h-.337l-.505-.337h-.337l-.505-.505h-.337l-.674-.505h-.168l-.674-.674h-.168l-.505-.505-.337-.337-.505-.505-.337-.337-.505-.505v-.337l-.505-.674H73.86l-.674-.842h-.168l-.505-.674V16.91l-.337-.505v-.337l-.337-.505v-.337l-.337-.674h-.168l-.505-.842H70.66l-.337-.674V10l-.337-.674V8.826A4.547,4.547,0,0,0,65.945,6.3H39V127.552a4.547,4.547,0,0,0,2.189-.505h.337a100.707,100.707,0,0,0,38.228-34.86A87.234,87.234,0,0,0,93.563,45.37v-12.8a4.547,4.547,0,0,0-2.863-4.21" transform="translate(26.678 4.31)" fill="#ff0d5b"/>
      <path id="Path_102524" data-name="Path 102524" d="M90.7,28.361h-.674l-.674-.337h-.337l-.674-.337h-.337L87,27.182h0l-.842-.505h-.337l-.674-.337h-.337L84.3,26h-.337l-.674-.337h-.337l-.842-.505h0l-.842-.674h-.337l-.505-.505h-.337l-.505-.337h-.337l-.505-.505h-.337l-.674-.505h-.168l-.674-.674h-.168l-.505-.505-.337-.337-.505-.505-.337-.337-.505-.505v-.337l-.505-.674H73.86l-.674-.842h-.168l-.505-.674V16.91l-.337-.505v-.337l-.337-.505v-.337l-.337-.674h-.168l-.505-.842H70.66l-.337-.674V10l-.337-.674V8.826A4.547,4.547,0,0,0,65.945,6.3H39V127.552a4.547,4.547,0,0,0,2.189-.505h.337a100.707,100.707,0,0,0,38.228-34.86A87.234,87.234,0,0,0,93.563,45.37v-12.8A4.547,4.547,0,0,0,90.7,28.361Z" transform="translate(26.678 4.31)" fill="none" stroke="#000" stroke-miterlimit="10" stroke-width="1.684"/>
      <path id="Path_102525" data-name="Path 102525" d="M90.7,28.361h-.674l-.674-.337h-.337l-.674-.337h-.337L87,27.182h0l-.842-.505h-.337l-.674-.337h-.337L84.3,26h-.337l-.674-.337h-.337l-.842-.505h0l-.842-.674h-.337l-.505-.505h-.337l-.505-.337h-.337l-.505-.505h-.337l-.674-.505h-.168l-.674-.674h-.168l-.505-.505-.337-.337-.505-.505-.337-.337-.505-.505v-.337l-.505-.674H73.86l-.674-.842h-.168l-.505-.674V16.91l-.337-.505v-.337l-.337-.505v-.337l-.337-.674h-.168l-.505-.842H70.66l-.337-.674V10l-.337-.674V8.826A4.547,4.547,0,0,0,65.945,6.3H58.03a40.416,40.416,0,0,1,3.2,4.884v.674l.337.674h0l.337.674h.168l.505.842h.168l.337.674v.337l.337.505V15.9l.337.505v.337l.505.674h.168l.674.842h.168l.505.674v.337l.505.505.337.337.505.505.337.337.505.505h.168l.674.674h.168l.674.505h.337l.505.505h.337l.505.337h.337l.505.505h.337l.842.674h0l.842.505h.337l.674.337h.337l.505.337h.337l.674.337H77.4l.842.505h0l1.01.505h.337l.674.337H80.6l.674.337h.505a4.547,4.547,0,0,1,2.863,4.21v12.8A87.234,87.234,0,0,1,70.829,91.682,107.443,107.443,0,0,1,39,127.552h0a4.547,4.547,0,0,0,2.189-.505h.337a100.707,100.707,0,0,0,38.228-34.86A87.234,87.234,0,0,0,93.563,45.37v-12.8a4.547,4.547,0,0,0-2.863-4.21" transform="translate(26.678 4.31)"/>
      <path id="Path_102526" data-name="Path 102526" d="M64.881,46.708H28V32.056a18.356,18.356,0,1,1,36.712,0Z" transform="translate(19.154 9.372)" fill="none" stroke="#000" stroke-miterlimit="10" stroke-width="6.736"/>
      <path id="Path_102527" data-name="Path 102527" d="M74.643,70.839h-48A4.547,4.547,0,0,1,22.1,66.292V36.147A4.547,4.547,0,0,1,26.647,31.6h48a4.547,4.547,0,0,1,4.547,4.547V66.123a4.547,4.547,0,0,1-4.547,4.547" transform="translate(15.118 21.616)" fill="#fdfb76"/>
      <rect id="Rectangle_137355" data-name="Rectangle 137355" width="57.09" height="39.188" rx="4.547" transform="translate(37.218 53.216)" fill="none" stroke="#000" stroke-miterlimit="10" stroke-width="1.684"/>
      <path id="Path_102528" data-name="Path 102528" d="M56.72,31.6H48.3a4.547,4.547,0,0,1,4.547,4.547V66.123A4.547,4.547,0,0,1,48.3,70.67h8.252a4.547,4.547,0,0,0,4.715-4.547V36.147A4.547,4.547,0,0,0,56.72,31.6" transform="translate(33.04 21.616)"/>
      <path id="Path_102529" data-name="Path 102529" d="M56.72,31.6H48.3a4.547,4.547,0,0,1,4.547,4.547V66.123A4.547,4.547,0,0,1,48.3,70.67h8.252a4.547,4.547,0,0,0,4.715-4.547V36.147A4.547,4.547,0,0,0,56.72,31.6Z" transform="translate(33.04 21.616)" fill="none" stroke="#000" stroke-miterlimit="10" stroke-width="1.684"/>
      <path id="Path_102530" data-name="Path 102530" d="M38.929,48.274v5.894a2.105,2.105,0,0,0,4.21,0V48.274a4.884,4.884,0,1,0-4.21,0" transform="translate(24.728 26.667)"/>
      <path id="Path_102531" data-name="Path 102531" d="M38.929,48.274v5.894a2.105,2.105,0,0,0,4.21,0V48.274a4.884,4.884,0,1,0-4.21,0Z" transform="translate(24.728 26.667)" fill="none" stroke="#000" stroke-miterlimit="10" stroke-width="1.684"/>
    </g>
  </g>
</svg>
