<svg xmlns="http://www.w3.org/2000/svg" xmlns:xlink="http://www.w3.org/1999/xlink" width="474.963" height="142.527" viewBox="0 0 474.963 142.527">
  <defs>
    <clipPath id="clip-path">
      <rect id="Rectangle_120588" data-name="Rectangle 120588" width="472.998" height="140.681" transform="translate(0 25)" fill="#fdfb76" stroke="#20211b" stroke-width="1"/>
    </clipPath>
    <clipPath id="clip-path-2">
      <rect id="Rectangle_137023" data-name="Rectangle 137023" width="508" height="376.498" fill="none"/>
    </clipPath>
    <clipPath id="clip-path-3">
      <path id="Path_99586" data-name="Path 99586" d="M355.6,309.18l1.634,28.638,34.744-1.978A10.234,10.234,0,0,0,401.61,325l-1.032-18.4Z" transform="translate(-355.6 -306.6)" fill="none"/>
    </clipPath>
    <clipPath id="clip-path-5">
      <path id="Path_99617" data-name="Path 99617" d="M181.6,324.99a10.234,10.234,0,0,0,9.632,10.75l34.744,1.978,1.634-28.638L182.63,306.5Z" transform="translate(-181.584 -306.5)" fill="none"/>
    </clipPath>
  </defs>
  <g id="Group_4016" data-name="Group 4016" transform="translate(0.964 -24.281)">
    <g id="Path_9561" data-name="Path 9561" transform="translate(0.036 25.282)" fill="#ff0d5b">
      <path d="M 473.4629211425781 141.0268402099609 L 472.9629211425781 141.0268402099609 L 3.354779255460016e-05 141.0268402099609 L -0.4999664425849915 141.0268402099609 L -0.4999664425849915 140.5268402099609 L -0.4999664425849915 1.596966831129976e-05 L -0.4999664425849915 -0.4999840259552002 L 3.354779255460016e-05 -0.4999840259552002 L 472.9629211425781 -0.4999840259552002 L 473.4629211425781 -0.4999840259552002 L 473.4629211425781 1.596966831129976e-05 L 473.4629211425781 140.5268402099609 L 473.4629211425781 141.0268402099609 Z" stroke="none"/>
      <path d="M -3.0517578125e-05 1.52587890625e-05 L -3.0517578125e-05 140.5268402099609 L 472.9628601074219 140.5268402099609 L 472.9628601074219 1.52587890625e-05 L -3.0517578125e-05 1.52587890625e-05 M -1.000030517578125 -0.9999847412109375 L 473.9628601074219 -0.9999847412109375 L 473.9628601074219 141.5268402099609 L -1.000030517578125 141.5268402099609 L -1.000030517578125 -0.9999847412109375 Z" stroke="none" fill="#000"/>
    </g>
    <g id="Mask_Group_3" data-name="Mask Group 3" transform="translate(0 0.128)" clip-path="url(#clip-path)">
      <g id="Artwork_18" data-name="Artwork 18" transform="translate(391 177.441)">
        <g id="Artwork_18-2" data-name="Artwork 18" transform="translate(-254 -188.249)">
          <g id="Group_17156" data-name="Group 17156" clip-path="url(#clip-path-2)">
            <path id="Path_99504" data-name="Path 99504" d="M88.324,337.724h0a27.778,27.778,0,0,0,0-39.216l-32.25-32.25a27.778,27.778,0,0,0-39.216,39.216l32.25,32.25a27.778,27.778,0,0,0,39.216,0" transform="translate(-1.378 -36.295)" fill="#8e0bfa"/>
            <path id="Path_99505" data-name="Path 99505" d="M88.324,337.724h0a27.778,27.778,0,0,0,0-39.216l-32.25-32.25a27.778,27.778,0,0,0-39.216,39.216l32.25,32.25A27.778,27.778,0,0,0,88.324,337.724Z" transform="translate(-1.378 -36.295)" fill="none" stroke="#000" stroke-miterlimit="10" stroke-width="0.86"/>
            <path id="Path_99506" data-name="Path 99506" d="M127.124,298.924h0a27.778,27.778,0,0,0,0-39.216l-32.25-32.25a27.778,27.778,0,0,0-39.216,39.216l32.25,32.25a27.778,27.778,0,0,0,39.216,0" transform="translate(-6.81 -30.863)" fill="#8e0bfa"/>
            <path id="Path_99507" data-name="Path 99507" d="M127.124,298.924h0a27.778,27.778,0,0,0,0-39.216l-32.25-32.25a27.778,27.778,0,0,0-39.216,39.216l32.25,32.25A27.778,27.778,0,0,0,127.124,298.924Z" transform="translate(-6.81 -30.863)" fill="none" stroke="#000" stroke-miterlimit="10" stroke-width="0.86"/>
            <path id="Path_99508" data-name="Path 99508" d="M88.136,299.388,76.01,287.348a22.79,22.79,0,0,1-32.766,23.908l-18.49-9.288A22.876,22.876,0,0,1,19.938,264.3a27.778,27.778,0,0,0-3.268,42.14l32.25,32.25a27.778,27.778,0,0,0,39.216-39.216" transform="translate(-1.19 -37.003)"/>
            <path id="Path_99509" data-name="Path 99509" d="M88.136,299.388,76.01,287.348a22.79,22.79,0,0,1-32.766,23.908l-18.49-9.288A22.876,22.876,0,0,1,19.938,264.3a27.778,27.778,0,0,0-3.268,42.14l32.25,32.25a27.778,27.778,0,0,0,39.216-39.216Z" transform="translate(-1.19 -37.003)" fill="none" stroke="#000" stroke-miterlimit="10" stroke-width="0.86"/>
            <path id="Path_99510" data-name="Path 99510" d="M127.124,298.924h0a27.778,27.778,0,0,0,0-39.216l-32.25-32.25a27.778,27.778,0,0,0-39.216,39.216l32.25,32.25a27.778,27.778,0,0,0,39.216,0" transform="translate(-6.81 -30.863)" fill="#8e0bfa"/>
            <path id="Path_99511" data-name="Path 99511" d="M127.124,298.924h0a27.778,27.778,0,0,0,0-39.216l-32.25-32.25a27.778,27.778,0,0,0-39.216,39.216l32.25,32.25A27.778,27.778,0,0,0,127.124,298.924Z" transform="translate(-6.81 -30.863)" fill="none" stroke="#000" stroke-miterlimit="10" stroke-width="0.86"/>
            <path id="Path_99512" data-name="Path 99512" d="M126.95,260.288l-12.04-12.04a22.79,22.79,0,0,1-32.766,23.908l-18.49-9.288A22.876,22.876,0,0,1,58.838,225.2a27.778,27.778,0,0,0-3.354,42.054l32.25,32.25a27.778,27.778,0,0,0,39.216,0h0a27.778,27.778,0,0,0,0-39.216" transform="translate(-6.636 -31.529)"/>
            <path id="Path_99513" data-name="Path 99513" d="M126.95,260.288l-12.04-12.04a22.79,22.79,0,0,1-32.766,23.908l-18.49-9.288A22.876,22.876,0,0,1,58.838,225.2a27.778,27.778,0,0,0-3.354,42.054l32.25,32.25a27.778,27.778,0,0,0,39.216,0h0a27.778,27.778,0,0,0,0-39.216Z" transform="translate(-6.636 -31.529)" fill="none" stroke="#000" stroke-miterlimit="10" stroke-width="0.86"/>
            <path id="Path_99514" data-name="Path 99514" d="M165.624,260.424h0a27.778,27.778,0,0,0,0-39.216l-32.25-32.25a27.778,27.778,0,0,0-39.216,39.216l32.25,32.25a27.778,27.778,0,0,0,39.216,0" transform="translate(-12.2 -25.473)" fill="#8e0bfa"/>
            <path id="Path_99515" data-name="Path 99515" d="M165.624,260.424h0a27.778,27.778,0,0,0,0-39.216l-32.25-32.25a27.778,27.778,0,0,0-39.216,39.216l32.25,32.25a27.778,27.778,0,0,0,39.216,0Z" transform="translate(-12.2 -25.473)" fill="none" stroke="#000" stroke-miterlimit="10" stroke-width="0.86"/>
            <path id="Path_99516" data-name="Path 99516" d="M141.8,254.4l-40.248-21.328a27.778,27.778,0,0,1,15.222-52.2,27.778,27.778,0,0,0-22.79,47.214l32.25,32.25a27.778,27.778,0,0,0,44.72-7.826,27.778,27.778,0,0,1-29.154,1.978" transform="translate(-12.023 -25.298)"/>
            <path id="Path_99517" data-name="Path 99517" d="M141.8,254.4l-40.248-21.328a27.778,27.778,0,0,1,15.222-52.2,27.778,27.778,0,0,0-22.79,47.214l32.25,32.25a27.778,27.778,0,0,0,44.72-7.826A27.778,27.778,0,0,1,141.8,254.4Z" transform="translate(-12.023 -25.298)" fill="none" stroke="#000" stroke-miterlimit="10" stroke-width="0.86"/>
            <path id="Path_99518" data-name="Path 99518" d="M449.481,298.747h0a27.778,27.778,0,0,1,0-39.216l32.25-32.25a27.778,27.778,0,0,1,39.216,0h0a27.778,27.778,0,0,1,0,39.216l-32.25,32.25a27.778,27.778,0,0,1-39.216,0" transform="translate(-61.794 -30.686)" fill="#8e0bfa"/>
            <path id="Path_99519" data-name="Path 99519" d="M449.481,298.747h0a27.778,27.778,0,0,1,0-39.216l32.25-32.25a27.778,27.778,0,0,1,39.216,0h0a27.778,27.778,0,0,1,0,39.216l-32.25,32.25A27.778,27.778,0,0,1,449.481,298.747Z" transform="translate(-61.794 -30.686)" fill="none" stroke="#000" stroke-miterlimit="10" stroke-width="0.86"/>
            <path id="Path_99520" data-name="Path 99520" d="M525.94,236.2a27.778,27.778,0,0,1-15.05,26.316l-15.222,7.74a27.692,27.692,0,0,1-38.786-15.566l-7.224,7.224a27.778,27.778,0,0,0,39.216,39.216l32.25-32.25a27.778,27.778,0,0,0,4.9-32.68" transform="translate(-61.971 -33.069)"/>
            <path id="Path_99521" data-name="Path 99521" d="M525.94,236.2a27.778,27.778,0,0,1-15.05,26.316l-15.222,7.74a27.692,27.692,0,0,1-38.786-15.566l-7.224,7.224a27.778,27.778,0,0,0,39.216,39.216l32.25-32.25a27.778,27.778,0,0,0,4.816-32.68Z" transform="translate(-61.971 -33.069)" fill="none" stroke="#000" stroke-miterlimit="10" stroke-width="0.86"/>
            <path id="Path_99522" data-name="Path 99522" d="M488.281,337.547h0a27.778,27.778,0,0,1,0-39.216l32.25-32.25a27.778,27.778,0,0,1,39.216,0h0a27.778,27.778,0,0,1,0,39.216l-32.25,32.25a27.778,27.778,0,0,1-39.216,0" transform="translate(-67.226 -36.118)" fill="#8e0bfa"/>
            <path id="Path_99523" data-name="Path 99523" d="M488.281,337.547h0a27.778,27.778,0,0,1,0-39.216l32.25-32.25a27.778,27.778,0,0,1,39.216,0h0a27.778,27.778,0,0,1,0,39.216l-32.25,32.25A27.778,27.778,0,0,1,488.281,337.547Z" transform="translate(-67.226 -36.118)" fill="none" stroke="#000" stroke-miterlimit="10" stroke-width="0.86"/>
            <path id="Path_99524" data-name="Path 99524" d="M564.826,275.3a27.778,27.778,0,0,1-15.05,26.316l-15.222,7.74a27.692,27.692,0,0,1-38.872-15.566l-7.224,7.224a27.778,27.778,0,0,0,39.216,39.216l32.25-32.25a27.778,27.778,0,0,0,4.9-32.68" transform="translate(-67.403 -38.543)"/>
            <path id="Path_99525" data-name="Path 99525" d="M564.826,275.3a27.778,27.778,0,0,1-15.05,26.316l-15.222,7.74a27.692,27.692,0,0,1-38.872-15.566l-7.224,7.224a27.778,27.778,0,0,0,39.216,39.216l32.25-32.25a27.778,27.778,0,0,0,4.9-32.68Z" transform="translate(-67.403 -38.543)" fill="none" stroke="#000" stroke-miterlimit="10" stroke-width="0.86"/>
            <path id="Path_99526" data-name="Path 99526" d="M410.981,260.048h0a27.778,27.778,0,0,1,0-39.216l32.25-32.25A27.778,27.778,0,1,1,482.447,227.8l-32.25,32.25a27.778,27.778,0,0,1-39.216,0" transform="translate(-56.404 -25.096)" fill="#8e0bfa"/>
            <path id="Path_99527" data-name="Path 99527" d="M410.981,260.048h0a27.778,27.778,0,0,1,0-39.216l32.25-32.25A27.778,27.778,0,1,1,482.447,227.8l-32.25,32.25A27.778,27.778,0,0,1,410.981,260.048Z" transform="translate(-56.404 -25.096)" fill="none" stroke="#000" stroke-miterlimit="10" stroke-width="0.86"/>
            <path id="Path_99528" data-name="Path 99528" d="M483.656,191.3a27.778,27.778,0,0,1-7.4,34.572L462.844,236.45a27.778,27.778,0,0,1-44.978-20.64l-6.708,6.708a27.778,27.778,0,0,0,39.216,39.216l32.25-32.25a27.778,27.778,0,0,0,.946-38.184" transform="translate(-56.581 -26.783)"/>
            <path id="Path_99529" data-name="Path 99529" d="M483.656,191.3a27.778,27.778,0,0,1-7.4,34.572L462.844,236.45a27.778,27.778,0,0,1-44.978-20.64l-6.708,6.708a27.778,27.778,0,0,0,39.216,39.216l32.25-32.25a27.778,27.778,0,0,0,1.032-38.184Z" transform="translate(-56.581 -26.783)" fill="none" stroke="#000" stroke-miterlimit="10" stroke-width="0.86"/>
            <path id="Path_99530" data-name="Path 99530" d="M426.03,229.3h0a27.778,27.778,0,0,1,4.558-38.958L444,179.765a27.778,27.778,0,1,1,34.4,43.516l-13.416,10.578A27.778,27.778,0,0,1,426.03,229.3" transform="translate(-58.811 -24.191)" fill="#8e0bfa"/>
            <path id="Path_99531" data-name="Path 99531" d="M426.03,229.3h0a27.778,27.778,0,0,1,4.558-38.958L444,179.765a27.778,27.778,0,1,1,34.4,43.516l-13.416,10.578A27.778,27.778,0,0,1,426.03,229.3Z" transform="translate(-58.811 -24.191)" fill="none" stroke="#000" stroke-miterlimit="10" stroke-width="0.86"/>
            <path id="Path_99532" data-name="Path 99532" d="M242.566,427.92H156.91a28.81,28.81,0,1,1,0-57.62h85.656a28.81,28.81,0,0,1,0,57.62" transform="translate(-17.934 -51.843)" fill="#8e0bfa"/>
            <path id="Path_99533" data-name="Path 99533" d="M242.566,427.92H156.91a28.81,28.81,0,1,1,0-57.62h85.656a28.81,28.81,0,0,1,0,57.62Z" transform="translate(-17.934 -51.843)" fill="none" stroke="#000" stroke-miterlimit="10" stroke-width="0.86"/>
            <path id="Path_99534" data-name="Path 99534" d="M242.569,423.31H156.913a28.81,28.81,0,0,1-28.466-24.51,28.81,28.81,0,0,0,28.466,33.11h85.656a28.81,28.81,0,0,0,28.466-33.11,28.81,28.81,0,0,1-28.466,24.51" transform="translate(-17.938 -55.833)"/>
            <path id="Path_99535" data-name="Path 99535" d="M242.569,423.31H156.913a28.81,28.81,0,0,1-28.466-24.51,28.81,28.81,0,0,0,28.466,33.11h85.656a28.81,28.81,0,0,0,28.466-33.11A28.81,28.81,0,0,1,242.569,423.31Z" transform="translate(-17.938 -55.833)" fill="none" stroke="#000" stroke-miterlimit="10" stroke-width="0.86"/>
            <path id="Path_99536" data-name="Path 99536" d="M409.766,427.92H324.11a28.81,28.81,0,1,1,0-57.62h85.656a28.81,28.81,0,1,1,0,57.62" transform="translate(-41.343 -51.843)" fill="#8e0bfa"/>
            <path id="Path_99537" data-name="Path 99537" d="M409.766,427.92H324.11a28.81,28.81,0,1,1,0-57.62h85.656a28.81,28.81,0,1,1,0,57.62Z" transform="translate(-41.343 -51.843)" fill="none" stroke="#000" stroke-miterlimit="10" stroke-width="0.86"/>
            <path id="Path_99538" data-name="Path 99538" d="M409.769,423.31H324.113a28.81,28.81,0,0,1-28.466-24.51,28.81,28.81,0,0,0,28.466,33.11h85.656a28.81,28.81,0,0,0,28.466-33.11,28.81,28.81,0,0,1-28.466,24.51" transform="translate(-41.346 -55.833)"/>
            <path id="Path_99539" data-name="Path 99539" d="M409.769,423.31H324.113a28.81,28.81,0,0,1-28.466-24.51,28.81,28.81,0,0,0,28.466,33.11h85.656a28.81,28.81,0,0,0,28.466-33.11,28.81,28.81,0,0,1-28.466,24.51Z" transform="translate(-41.346 -55.833)" fill="none" stroke="#000" stroke-miterlimit="10" stroke-width="0.86"/>
            <path id="Path_99540" data-name="Path 99540" d="M386.357,375.42H156.91a28.81,28.81,0,1,1,0-57.62H386.357a28.81,28.81,0,1,1,0,57.62" transform="translate(-17.934 -44.493)" fill="#8e0bfa"/>
            <path id="Path_99541" data-name="Path 99541" d="M386.357,375.42H156.91a28.81,28.81,0,1,1,0-57.62H386.357a28.81,28.81,0,1,1,0,57.62Z" transform="translate(-17.934 -44.493)" fill="none" stroke="#000" stroke-miterlimit="10" stroke-width="0.86"/>
            <path id="Path_99542" data-name="Path 99542" d="M386.357,321.92H156.91a28.81,28.81,0,1,1,0-57.62H386.357a28.81,28.81,0,1,1,0,57.62" transform="translate(-17.934 -37.003)" fill="#8e0bfa"/>
            <path id="Path_99543" data-name="Path 99543" d="M386.357,321.92H156.91a28.81,28.81,0,1,1,0-57.62H386.357a28.81,28.81,0,1,1,0,57.62Z" transform="translate(-17.934 -37.003)" fill="none" stroke="#000" stroke-miterlimit="10" stroke-width="0.86"/>
            <path id="Path_99544" data-name="Path 99544" d="M386.357,269.92H156.91a28.81,28.81,0,1,1,0-57.62H386.357a28.81,28.81,0,1,1,0,57.62" transform="translate(-17.934 -29.723)" fill="#8e0bfa"/>
            <path id="Path_99545" data-name="Path 99545" d="M386.357,269.92H156.91a28.81,28.81,0,1,1,0-57.62H386.357a28.81,28.81,0,1,1,0,57.62Z" transform="translate(-17.934 -29.723)" fill="none" stroke="#000" stroke-miterlimit="10" stroke-width="0.86"/>
            <path id="Path_99546" data-name="Path 99546" d="M386.357,220.52H156.91a28.81,28.81,0,1,1,0-57.62H386.357a28.81,28.81,0,1,1,0,57.62" transform="translate(-17.934 -22.806)" fill="#8e0bfa"/>
            <path id="Path_99547" data-name="Path 99547" d="M386.357,220.52H156.91a28.81,28.81,0,1,1,0-57.62H386.357a28.81,28.81,0,1,1,0,57.62Z" transform="translate(-17.934 -22.806)" fill="none" stroke="#000" stroke-miterlimit="10" stroke-width="0.86"/>
            <path id="Path_99548" data-name="Path 99548" d="M386.357,216.839H156.909A28.811,28.811,0,0,1,128.357,191.9a28.81,28.81,0,0,0,28.552,32.683H386.357a28.81,28.81,0,0,0,28.552-32.68,28.81,28.81,0,0,1-28.552,24.94" transform="translate(-17.934 -26.866)"/>
            <path id="Path_99549" data-name="Path 99549" d="M386.357,216.839H156.909A28.811,28.811,0,0,1,128.357,191.9a28.81,28.81,0,0,0,28.552,32.683H386.357a28.81,28.81,0,0,0,28.552-32.68,28.81,28.81,0,0,1-28.552,24.94Z" transform="translate(-17.934 -26.866)" fill="none" stroke="#000" stroke-miterlimit="10" stroke-width="0.86"/>
            <path id="Path_99550" data-name="Path 99550" d="M386.357,266.139H156.909A28.811,28.811,0,0,1,128.357,241.2a28.81,28.81,0,0,0,28.552,32.683H386.357a28.81,28.81,0,0,0,28.552-32.68,28.81,28.81,0,0,1-28.552,24.94" transform="translate(-17.934 -33.768)"/>
            <path id="Path_99551" data-name="Path 99551" d="M386.357,266.139H156.909A28.811,28.811,0,0,1,128.357,241.2a28.81,28.81,0,0,0,28.552,32.683H386.357a28.81,28.81,0,0,0,28.552-32.68A28.81,28.81,0,0,1,386.357,266.139Z" transform="translate(-17.934 -33.768)" fill="none" stroke="#000" stroke-miterlimit="10" stroke-width="0.86"/>
            <path id="Path_99552" data-name="Path 99552" d="M386.357,370.739H156.909A28.811,28.811,0,0,1,128.357,345.8a28.81,28.81,0,0,0,28.552,32.683H386.357a28.81,28.81,0,0,0,28.552-32.68,28.81,28.81,0,0,1-28.552,24.94" transform="translate(-17.934 -48.412)"/>
            <path id="Path_99553" data-name="Path 99553" d="M386.357,370.739H156.909A28.811,28.811,0,0,1,128.357,345.8a28.81,28.81,0,0,0,28.552,32.683H386.357a28.81,28.81,0,0,0,28.552-32.68,28.81,28.81,0,0,1-28.552,24.94Z" transform="translate(-17.934 -48.412)" fill="none" stroke="#000" stroke-miterlimit="10" stroke-width="0.86"/>
            <rect id="Rectangle_137020" data-name="Rectangle 137020" width="9.116" height="193.413" transform="translate(249.141 168.989)" fill="#ff3c1d"/>
            <rect id="Rectangle_137021" data-name="Rectangle 137021" width="9.116" height="193.413" transform="translate(249.141 168.989)" fill="none" stroke="#000" stroke-miterlimit="10" stroke-width="0.86"/>
            <path id="Path_99554" data-name="Path 99554" d="M144.2,182.342A17.63,17.63,0,0,1,159.164,174h25.2" transform="translate(-20.188 -24.36)" fill="none" stroke="#fcf7eb" stroke-linecap="round" stroke-miterlimit="10" stroke-width="8.6"/>
            <path id="Path_99555" data-name="Path 99555" d="M100.5,202.5a17.716,17.716,0,0,1,9.46-7.4" transform="translate(-14.07 -27.315)" fill="none" stroke="#fcf7eb" stroke-linecap="round" stroke-miterlimit="10" stroke-width="8.6"/>
            <path id="Path_99556" data-name="Path 99556" d="M64.4,240.034l1.118-1.634" transform="translate(-9.016 -33.377)" fill="none" stroke="#fcf7eb" stroke-linecap="round" stroke-miterlimit="10" stroke-width="8.6"/>
            <path id="Path_99557" data-name="Path 99557" d="M340.562,354.454H219.9a17.8,17.8,0,0,1-8.17-1.978L192.3,342.414a5.16,5.16,0,0,1,3.87-8.514H364.3a5.16,5.16,0,0,1,3.87,8.514l-19.436,10.062a17.8,17.8,0,0,1-8.17,1.978" transform="translate(-26.749 -46.747)"/>
            <path id="Path_99558" data-name="Path 99558" d="M340.562,354.454H219.9a17.8,17.8,0,0,1-8.17-1.978L192.3,342.414a5.16,5.16,0,0,1,3.87-8.514H364.3a5.16,5.16,0,0,1,3.87,8.514l-19.436,10.062a17.8,17.8,0,0,1-8.17,1.978Z" transform="translate(-26.749 -46.747)" fill="none" stroke="#000" stroke-miterlimit="10" stroke-width="0.86"/>
            <path id="Path_99559" data-name="Path 99559" d="M553.478,350.068h0A27.778,27.778,0,0,1,525.7,322.29V305.778A27.778,27.778,0,0,1,553.478,278h0a27.778,27.778,0,0,1,27.778,27.778v16.6a27.778,27.778,0,0,1-27.778,27.692" transform="translate(-73.599 -38.921)" fill="#8e0bfa"/>
            <rect id="Rectangle_137022" data-name="Rectangle 137022" width="55.47" height="72.094" rx="27.735" transform="translate(452.101 239.079)" fill="none" stroke="#000" stroke-miterlimit="10" stroke-width="0.86"/>
            <path id="Path_99560" data-name="Path 99560" d="M581.126,307.7a27.607,27.607,0,0,0-5.074-16,27.948,27.948,0,0,1,.344,4.558v16.6a27.778,27.778,0,0,1-50.4,16,27.778,27.778,0,0,0,27.348,23.22h0a27.778,27.778,0,0,0,27.778-27.778Z" transform="translate(-73.641 -40.839)"/>
            <path id="Path_99561" data-name="Path 99561" d="M581.126,307.7a27.607,27.607,0,0,0-5.074-16,27.948,27.948,0,0,1,.344,4.558v16.6a27.778,27.778,0,0,1-50.4,16,27.778,27.778,0,0,0,27.348,23.22h0a27.778,27.778,0,0,0,27.778-27.778Z" transform="translate(-73.641 -40.839)" fill="none" stroke="#000" stroke-miterlimit="10" stroke-width="0.86"/>
            <path id="Path_99562" data-name="Path 99562" d="M510.178,350.319h0A27.778,27.778,0,0,1,482.4,322.541V306.029a27.778,27.778,0,0,1,55.47,0v16.6a27.778,27.778,0,0,1-27.778,27.778" transform="translate(-67.537 -39.172)" fill="#8e0bfa"/>
            <path id="Path_99563" data-name="Path 99563" d="M510.178,350.319h0A27.778,27.778,0,0,1,482.4,322.541V306.029a27.778,27.778,0,0,1,55.47,0v16.6A27.778,27.778,0,0,1,510.178,350.319Z" transform="translate(-67.537 -39.172)" fill="none" stroke="#000" stroke-miterlimit="10" stroke-width="0.86"/>
            <path id="Path_99564" data-name="Path 99564" d="M537.826,307.7a27.606,27.606,0,0,0-5.074-16,27.955,27.955,0,0,1,.344,4.558v16.6a27.778,27.778,0,0,1-50.4,16,27.778,27.778,0,0,0,55.126-4.558Z" transform="translate(-67.579 -40.839)"/>
            <path id="Path_99565" data-name="Path 99565" d="M537.826,307.7a27.606,27.606,0,0,0-5.074-16,27.955,27.955,0,0,1,.344,4.558v16.6a27.778,27.778,0,0,1-50.4,16,27.778,27.778,0,0,0,55.126-4.558Z" transform="translate(-67.579 -40.839)" fill="none" stroke="#000" stroke-miterlimit="10" stroke-width="0.86"/>
            <path id="Path_99566" data-name="Path 99566" d="M464.878,350.319h0A27.778,27.778,0,0,1,437.1,322.541V306.029a27.778,27.778,0,0,1,55.47,0v16.6a27.778,27.778,0,0,1-27.778,27.778" transform="translate(-61.195 -39.172)" fill="#8e0bfa"/>
            <path id="Path_99567" data-name="Path 99567" d="M464.878,350.319h0A27.778,27.778,0,0,1,437.1,322.541V306.029a27.778,27.778,0,0,1,55.47,0v16.6A27.778,27.778,0,0,1,464.878,350.319Z" transform="translate(-61.195 -39.172)" fill="none" stroke="#000" stroke-miterlimit="10" stroke-width="0.86"/>
            <path id="Path_99568" data-name="Path 99568" d="M492.326,307.7a27.606,27.606,0,0,0-5.074-16,27.948,27.948,0,0,1,.344,4.558v16.6a27.778,27.778,0,0,1-50.4,16,27.778,27.778,0,0,0,55.126-4.558Z" transform="translate(-61.209 -40.839)"/>
            <path id="Path_99569" data-name="Path 99569" d="M492.326,307.7a27.606,27.606,0,0,0-5.074-16,27.948,27.948,0,0,1,.344,4.558v16.6a27.778,27.778,0,0,1-50.4,16,27.778,27.778,0,0,0,55.126-4.558Z" transform="translate(-61.209 -40.839)" fill="none" stroke="#000" stroke-miterlimit="10" stroke-width="0.86"/>
            <path id="Path_99570" data-name="Path 99570" d="M455.3,294.886a17.716,17.716,0,0,1,8.342-4.386" transform="translate(-63.743 -40.671)" fill="none" stroke="#fcf7eb" stroke-linecap="round" stroke-miterlimit="10" stroke-width="8.6"/>
            <path id="Path_99571" data-name="Path 99571" d="M420.078,350.319h0A27.778,27.778,0,0,1,392.3,322.541V306.029a27.778,27.778,0,0,1,55.47,0v16.6a27.778,27.778,0,0,1-27.778,27.778" transform="translate(-54.923 -39.172)" fill="#8e0bfa"/>
            <path id="Path_99572" data-name="Path 99572" d="M420.078,350.319h0A27.778,27.778,0,0,1,392.3,322.541V306.029a27.778,27.778,0,0,1,55.47,0v16.6A27.778,27.778,0,0,1,420.078,350.319Z" transform="translate(-54.923 -39.172)" fill="none" stroke="#000" stroke-miterlimit="10" stroke-width="0.86"/>
            <path id="Path_99573" data-name="Path 99573" d="M448.026,307.7a27.606,27.606,0,0,0-5.074-16,27.944,27.944,0,0,1,.344,4.558v16.6a27.778,27.778,0,0,1-50.4,16,27.778,27.778,0,0,0,55.126-4.558Z" transform="translate(-55.007 -40.839)"/>
            <path id="Path_99574" data-name="Path 99574" d="M448.026,307.7a27.606,27.606,0,0,0-5.074-16,27.944,27.944,0,0,1,.344,4.558v16.6a27.778,27.778,0,0,1-50.4,16,27.778,27.778,0,0,0,55.126-4.558Z" transform="translate(-55.007 -40.839)" fill="none" stroke="#000" stroke-miterlimit="10" stroke-width="0.86"/>
            <path id="Path_99575" data-name="Path 99575" d="M408.6,296.864a17.716,17.716,0,0,1,10.148-6.364" transform="translate(-57.205 -40.671)" fill="none" stroke="#fcf7eb" stroke-linecap="round" stroke-miterlimit="10" stroke-width="8.6"/>
            <path id="Path_99576" data-name="Path 99576" d="M397.938,297.672h-6.364v3.268c-3.1,3.526-5.074,9.46-5.074,16.254s1.978,12.814,5.074,16.254v3.268h6.364c6.278,0,11.438-8.772,11.438-19.608S404.3,297.5,397.938,297.5" transform="translate(-54.111 -41.651)" fill="#ff3c1d"/>
            <path id="Path_99577" data-name="Path 99577" d="M397.938,297.7h-6.364v3.268c-3.1,3.526-5.074,9.46-5.074,16.254s1.978,12.814,5.074,16.254v3.268h6.364c6.278,0,11.438-8.772,11.438-19.608S404.216,297.7,397.938,297.7Z" transform="translate(-54.111 -41.679)" fill="none" stroke="#000" stroke-miterlimit="10" stroke-width="0.86"/>
            <path id="Path_99578" data-name="Path 99578" d="M401.976,317.208c0,10.836-5.074,19.608-11.438,19.608S379.1,328.044,379.1,317.208s5.074-19.608,11.438-19.608,11.438,8.772,11.438,19.608" transform="translate(-53.075 -41.665)"/>
            <path id="Path_99579" data-name="Path 99579" d="M401.976,317.208c0,10.836-5.074,19.608-11.438,19.608S379.1,328.044,379.1,317.208s5.074-19.608,11.438-19.608S401.976,306.458,401.976,317.208Z" transform="translate(-53.075 -41.665)" fill="none" stroke="#000" stroke-miterlimit="10" stroke-width="0.86"/>
            <path id="Path_99580" data-name="Path 99580" d="M385.464,317.208c0-8.944,3.526-16.426,8.256-18.834a7.138,7.138,0,0,0-3.182-.774c-6.278,0-11.438,8.772-11.438,19.608s5.074,19.608,11.438,19.608a7.139,7.139,0,0,0,3.182-.774c-4.73-2.322-8.256-9.89-8.256-18.834" transform="translate(-53.075 -41.665)" fill="#ff3c1d"/>
            <path id="Path_99581" data-name="Path 99581" d="M385.464,317.208c0-8.944,3.526-16.426,8.256-18.834a7.138,7.138,0,0,0-3.182-.774c-6.278,0-11.438,8.772-11.438,19.608s5.074,19.608,11.438,19.608a7.139,7.139,0,0,0,3.182-.774C388.99,333.72,385.464,326.152,385.464,317.208Z" transform="translate(-53.075 -41.665)" fill="none" stroke="#000" stroke-miterlimit="10" stroke-width="0.86"/>
            <path id="Path_99582" data-name="Path 99582" d="M391.978,335.74l-34.744,1.978L355.6,309.08l44.978-2.58,1.032,18.4a10.234,10.234,0,0,1-9.632,10.75" transform="translate(-49.785 -42.911)" fill="#00db96"/>
            <path id="Path_99583" data-name="Path 99583" d="M391.978,335.74l-34.744,1.978L355.6,309.08l44.978-2.58,1.032,18.4a10.234,10.234,0,0,1-9.632,10.836Z" transform="translate(-49.785 -42.911)" fill="none" stroke="#000" stroke-miterlimit="10" stroke-width="0.86"/>
          </g>
          <g id="Group_17157" data-name="Group 17157" transform="translate(305.815 263.675)" clip-path="url(#clip-path-3)">
            <path id="Path_99584" data-name="Path 99584" d="M388.28,298.573l-6.88,1.462c6.88-1.462,14.276,6.02,16.426,16.6s-1.634,20.3-8.514,21.758l6.88-1.462c6.88-1.462,10.664-11.18,8.514-21.758s-9.546-17.974-16.426-16.6" transform="translate(-359.212 -305.453)"/>
            <path id="Path_99585" data-name="Path 99585" d="M388.28,298.57l-6.88,1.462c6.88-1.462,14.276,6.02,16.426,16.6s-1.634,20.3-8.514,21.758l6.88-1.462c6.88-1.462,10.664-11.18,8.514-21.758S395.16,297.108,388.28,298.57Z" transform="translate(-359.212 -305.45)" fill="none" stroke="#000" stroke-miterlimit="10" stroke-width="0.86"/>
          </g>
          <g id="Group_17158" data-name="Group 17158" clip-path="url(#clip-path-2)">
            <path id="Path_99587" data-name="Path 99587" d="M398.764,297.7H392.4c6.278,0,11.438,8.772,11.438,19.608s-5.074,19.608-11.438,19.608h6.364c6.278,0,11.438-8.772,11.438-19.608S405.128,297.7,398.764,297.7" transform="translate(-54.937 -41.679)" fill="#ff3c1d"/>
            <path id="Path_99588" data-name="Path 99588" d="M398.764,297.7H392.4c6.278,0,11.438,8.772,11.438,19.608s-5.074,19.608-11.438,19.608h6.364c6.278,0,11.438-8.772,11.438-19.608S405.042,297.7,398.764,297.7Z" transform="translate(-54.937 -41.679)" fill="none" stroke="#000" stroke-miterlimit="10" stroke-width="0.86"/>
            <path id="Path_99589" data-name="Path 99589" d="M506.5,292.32l.774-.344a17.543,17.543,0,0,1,4.042-1.376" transform="translate(-70.911 -40.685)" fill="none" stroke="#fcf7eb" stroke-linecap="round" stroke-miterlimit="10" stroke-width="8.6"/>
            <path id="Path_99590" data-name="Path 99590" d="M555.5,291.016l1.72-.516" transform="translate(-77.772 -40.671)" fill="none" stroke="#fcf7eb" stroke-linecap="round" stroke-miterlimit="10" stroke-width="8.6"/>
            <path id="Path_99591" data-name="Path 99591" d="M28.271,349.816h0a27.778,27.778,0,0,0,27.692-27.692v-16.6a27.778,27.778,0,1,0-55.47,0v16.6A27.778,27.778,0,0,0,28.271,349.9" transform="translate(-0.063 -38.669)" fill="#8e0bfa"/>
            <path id="Path_99592" data-name="Path 99592" d="M28.271,349.816h0a27.778,27.778,0,0,0,27.692-27.692v-16.6a27.778,27.778,0,1,0-55.47,0v16.6a27.778,27.778,0,0,0,27.778,27.692Z" transform="translate(-0.063 -38.669)" fill="none" stroke="#000" stroke-miterlimit="10" stroke-width="0.86"/>
            <path id="Path_99593" data-name="Path 99593" d="M56.026,307.7a27.606,27.606,0,0,0-5.074-16,27.864,27.864,0,0,1,.344,4.558v16.6a27.778,27.778,0,0,1-50.4,16,27.778,27.778,0,0,0,55.126-4.558Z" transform="translate(-0.126 -40.839)"/>
            <path id="Path_99594" data-name="Path 99594" d="M56.026,307.7a27.606,27.606,0,0,0-5.074-16,27.864,27.864,0,0,1,.344,4.558v16.6a27.778,27.778,0,0,1-50.4,16,27.778,27.778,0,0,0,55.126-4.558Z" transform="translate(-0.126 -40.839)" fill="none" stroke="#000" stroke-miterlimit="10" stroke-width="0.86"/>
            <path id="Path_99595" data-name="Path 99595" d="M71.485,349.816h0a27.778,27.778,0,0,0,27.778-27.778V305.526a27.778,27.778,0,1,0-55.47,0v16.6a27.778,27.778,0,0,0,27.692,27.692" transform="translate(-6.125 -38.669)" fill="#8e0bfa"/>
            <path id="Path_99596" data-name="Path 99596" d="M71.485,349.816h0a27.778,27.778,0,0,0,27.778-27.778V305.526a27.778,27.778,0,1,0-55.47,0v16.6A27.778,27.778,0,0,0,71.485,349.816Z" transform="translate(-6.125 -38.669)" fill="none" stroke="#000" stroke-miterlimit="10" stroke-width="0.86"/>
            <path id="Path_99597" data-name="Path 99597" d="M100.326,307.7a27.606,27.606,0,0,0-5.074-16,27.863,27.863,0,0,1,.344,4.558v16.6a27.778,27.778,0,0,1-50.4,16,27.778,27.778,0,0,0,55.126-4.558Z" transform="translate(-6.328 -40.839)"/>
            <path id="Path_99598" data-name="Path 99598" d="M100.326,307.7a27.606,27.606,0,0,0-5.074-16,27.863,27.863,0,0,1,.344,4.558v16.6a27.778,27.778,0,0,1-50.4,16,27.778,27.778,0,0,0,55.126-4.558Z" transform="translate(-6.328 -40.839)" fill="none" stroke="#000" stroke-miterlimit="10" stroke-width="0.86"/>
            <path id="Path_99599" data-name="Path 99599" d="M116.785,349.816h0a27.778,27.778,0,0,0,27.778-27.778V305.526a27.778,27.778,0,1,0-55.47,0v16.6A27.778,27.778,0,0,0,116.871,349.9" transform="translate(-12.467 -38.669)" fill="#8e0bfa"/>
            <path id="Path_99600" data-name="Path 99600" d="M116.785,349.816h0a27.778,27.778,0,0,0,27.778-27.778V305.526a27.778,27.778,0,1,0-55.47,0v16.6a27.778,27.778,0,0,0,27.692,27.692Z" transform="translate(-12.467 -38.669)" fill="none" stroke="#000" stroke-miterlimit="10" stroke-width="0.86"/>
            <path id="Path_99601" data-name="Path 99601" d="M144.826,307.7a27.606,27.606,0,0,0-5.074-16,27.862,27.862,0,0,1,.344,4.558v16.6a27.778,27.778,0,0,1-50.4,16,27.778,27.778,0,0,0,55.126-4.558Z" transform="translate(-12.558 -40.839)"/>
            <path id="Path_99602" data-name="Path 99602" d="M144.826,307.7a27.606,27.606,0,0,0-5.074-16,27.862,27.862,0,0,1,.344,4.558v16.6a27.778,27.778,0,0,1-50.4,16,27.778,27.778,0,0,0,55.126-4.558Z" transform="translate(-12.558 -40.839)" fill="none" stroke="#000" stroke-miterlimit="10" stroke-width="0.86"/>
            <path id="Path_99603" data-name="Path 99603" d="M161.585,349.816h0a27.778,27.778,0,0,0,27.778-27.778V305.526a27.778,27.778,0,1,0-55.47,0v16.6A27.778,27.778,0,0,0,161.671,349.9" transform="translate(-18.739 -38.669)" fill="#8e0bfa"/>
            <path id="Path_99604" data-name="Path 99604" d="M161.585,349.816h0a27.778,27.778,0,0,0,27.778-27.778V305.526a27.778,27.778,0,1,0-55.47,0v16.6A27.778,27.778,0,0,0,161.585,349.816Z" transform="translate(-18.739 -38.669)" fill="none" stroke="#000" stroke-miterlimit="10" stroke-width="0.86"/>
            <path id="Path_99605" data-name="Path 99605" d="M189.126,307.7a27.606,27.606,0,0,0-5.074-16,27.948,27.948,0,0,1,.344,4.558v16.6a27.778,27.778,0,0,1-50.4,16,27.778,27.778,0,0,0,55.126-4.558Z" transform="translate(-18.76 -40.839)"/>
            <path id="Path_99606" data-name="Path 99606" d="M189.126,307.7a27.606,27.606,0,0,0-5.074-16,27.948,27.948,0,0,1,.344,4.558v16.6a27.778,27.778,0,0,1-50.4,16,27.778,27.778,0,0,0,55.126-4.558Z" transform="translate(-18.76 -40.839)" fill="none" stroke="#000" stroke-miterlimit="10" stroke-width="0.86"/>
            <path id="Path_99607" data-name="Path 99607" d="M189.038,297.672H195.4v3.268c3.1,3.526,5.074,9.46,5.074,16.254s-1.978,12.814-5.074,16.254v3.268h-6.364c-6.278,0-11.438-8.772-11.438-19.608s5.074-19.608,11.438-19.608" transform="translate(-24.864 -41.651)" fill="#ff3c1d"/>
            <path id="Path_99608" data-name="Path 99608" d="M189.038,297.7H195.4v3.268c3.1,3.526,5.074,9.46,5.074,16.254s-1.978,12.814-5.074,16.254v3.268h-6.364c-6.278,0-11.438-8.772-11.438-19.608S182.76,297.7,189.038,297.7Z" transform="translate(-24.864 -41.679)" fill="none" stroke="#000" stroke-miterlimit="10" stroke-width="0.86"/>
            <path id="Path_99609" data-name="Path 99609" d="M185,317.208c0,10.836,5.074,19.608,11.438,19.608s11.438-8.772,11.438-19.608S202.8,297.6,196.438,297.6,185,306.458,185,317.208" transform="translate(-25.901 -41.665)"/>
            <path id="Path_99610" data-name="Path 99610" d="M185,317.208c0,10.836,5.074,19.608,11.438,19.608s11.438-8.772,11.438-19.608S202.8,297.6,196.438,297.6,185,306.458,185,317.208Z" transform="translate(-25.901 -41.665)" fill="none" stroke="#000" stroke-miterlimit="10" stroke-width="0.86"/>
            <path id="Path_99611" data-name="Path 99611" d="M202.856,317.208c0-8.944-3.526-16.426-8.256-18.834a7.138,7.138,0,0,1,3.182-.774c6.278,0,11.438,8.772,11.438,19.608s-5.074,19.608-11.438,19.608a7.139,7.139,0,0,1-3.182-.774c4.73-2.322,8.256-9.89,8.256-18.834" transform="translate(-27.245 -41.665)" fill="#ff3c1d"/>
            <path id="Path_99612" data-name="Path 99612" d="M202.856,317.208c0-8.944-3.526-16.426-8.256-18.834a7.138,7.138,0,0,1,3.182-.774c6.278,0,11.438,8.772,11.438,19.608s-5.074,19.608-11.438,19.608a7.139,7.139,0,0,1-3.182-.774C199.416,333.72,202.856,326.152,202.856,317.208Z" transform="translate(-27.245 -41.665)" fill="none" stroke="#000" stroke-miterlimit="10" stroke-width="0.86"/>
            <path id="Path_99613" data-name="Path 99613" d="M191.23,335.74l34.744,1.978,1.634-28.638L182.63,306.5,181.6,324.99a10.234,10.234,0,0,0,9.632,10.75" transform="translate(-25.422 -42.911)" fill="#00db96"/>
            <path id="Path_99614" data-name="Path 99614" d="M191.23,335.74l34.744,1.978,1.634-28.638L182.63,306.5,181.6,324.99A10.234,10.234,0,0,0,191.23,335.74Z" transform="translate(-25.422 -42.911)" fill="none" stroke="#000" stroke-miterlimit="10" stroke-width="0.86"/>
          </g>
          <g id="Group_17159" data-name="Group 17159" transform="translate(156.161 263.589)" clip-path="url(#clip-path-5)">
            <path id="Path_99615" data-name="Path 99615" d="M198.528,298.573l6.88,1.462c-6.88-1.462-14.276,6.02-16.426,16.6s1.634,20.3,8.514,21.758l-6.88-1.462c-6.88-1.462-10.664-11.18-8.514-21.758s9.546-17.974,16.426-16.6" transform="translate(-181.572 -305.367)"/>
            <path id="Path_99616" data-name="Path 99616" d="M198.528,298.57l6.88,1.462c-6.88-1.462-14.276,6.02-16.426,16.6s1.634,20.3,8.514,21.758l-6.88-1.462c-6.88-1.462-10.664-11.18-8.514-21.758S191.648,297.108,198.528,298.57Z" transform="translate(-181.572 -305.364)" fill="none" stroke="#000" stroke-miterlimit="10" stroke-width="0.86"/>
          </g>
          <g id="Group_17160" data-name="Group 17160" clip-path="url(#clip-path-2)">
            <path id="Path_99618" data-name="Path 99618" d="M189.038,297.7H195.4c-6.278,0-11.438,8.772-11.438,19.608s5.074,19.608,11.438,19.608h-6.364c-6.278,0-11.438-8.772-11.438-19.608s5.074-19.608,11.438-19.608" transform="translate(-24.864 -41.679)" fill="#ff3c1d"/>
            <path id="Path_99619" data-name="Path 99619" d="M189.038,297.7H195.4c-6.278,0-11.438,8.772-11.438,19.608s5.074,19.608,11.438,19.608h-6.364c-6.278,0-11.438-8.772-11.438-19.608S182.76,297.7,189.038,297.7Z" transform="translate(-24.864 -41.679)" fill="none" stroke="#000" stroke-miterlimit="10" stroke-width="0.86"/>
            <path id="Path_99620" data-name="Path 99620" d="M16.6,296.864A17.716,17.716,0,0,1,26.748,290.5" transform="translate(-2.324 -40.671)" fill="none" stroke="#fcf7eb" stroke-linecap="round" stroke-miterlimit="10" stroke-width="8.6"/>
            <path id="Path_99621" data-name="Path 99621" d="M63.4,294.886a17.716,17.716,0,0,1,8.342-4.386" transform="translate(-8.876 -40.671)" fill="none" stroke="#fcf7eb" stroke-linecap="round" stroke-miterlimit="10" stroke-width="8.6"/>
            <path id="Path_99622" data-name="Path 99622" d="M114.5,292.32l.774-.344a17.542,17.542,0,0,1,4.042-1.376" transform="translate(-16.03 -40.685)" fill="none" stroke="#fcf7eb" stroke-linecap="round" stroke-miterlimit="10" stroke-width="8.6"/>
            <path id="Path_99623" data-name="Path 99623" d="M163.6,291.016l1.72-.516" transform="translate(-22.904 -40.671)" fill="none" stroke="#fcf7eb" stroke-linecap="round" stroke-miterlimit="10" stroke-width="8.6"/>
            <path id="Path_99624" data-name="Path 99624" d="M341.776,343.464H224.3a12.9,12.9,0,0,1-12.9-12.9V268.3a12.9,12.9,0,0,1,12.9-12.9H341.776a12.9,12.9,0,0,1,12.9,12.9v62.264a12.9,12.9,0,0,1-12.9,12.9" transform="translate(-29.597 -35.757)" fill="#fdfb76"/>
            <rect id="Rectangle_137025" data-name="Rectangle 137025" width="143.276" height="88.064" rx="12.9" transform="translate(181.803 219.643)" fill="none" stroke="#000" stroke-miterlimit="10" stroke-width="0.86"/>
            <path id="Path_99625" data-name="Path 99625" d="M341.776,343.8H224.3a12.9,12.9,0,0,1-12.9-12.9v10.234a12.9,12.9,0,0,0,12.9,12.9H341.776a12.9,12.9,0,0,0,12.9-12.9V330.9a12.9,12.9,0,0,1-12.9,12.9" transform="translate(-29.597 -46.327)"/>
            <path id="Path_99626" data-name="Path 99626" d="M341.776,343.8H224.3a12.9,12.9,0,0,1-12.9-12.9v10.234a12.9,12.9,0,0,0,12.9,12.9H341.776a12.9,12.9,0,0,0,12.9-12.9V330.9a12.9,12.9,0,0,1-12.9,12.9Z" transform="translate(-29.597 -46.327)" fill="none" stroke="#000" stroke-miterlimit="10" stroke-width="0.86"/>
            <path id="Path_99627" data-name="Path 99627" d="M305.284,296.525a12.642,12.642,0,1,0-19.264,10.664v7.482h13.244v-7.482a12.642,12.642,0,0,0,6.02-10.75" transform="translate(-39.201 -39.73)" fill="#fcf7eb"/>
            <path id="Path_99628" data-name="Path 99628" d="M305.284,296.525a12.642,12.642,0,1,0-19.264,10.664v7.482h13.244v-7.482a12.642,12.642,0,0,0,6.02-10.664Z" transform="translate(-39.201 -39.73)" fill="none" stroke="#000" stroke-miterlimit="10" stroke-width="0.86"/>
            <line id="Line_3160" data-name="Line 3160" y1="6.364" transform="translate(251.205 268.577)" fill="none" stroke="#000" stroke-miterlimit="10" stroke-width="0.86"/>
            <line id="Line_3161" data-name="Line 3161" y2="6.364" transform="translate(255.677 268.577)" fill="none" stroke="#000" stroke-miterlimit="10" stroke-width="0.86"/>
            <path id="Path_99629" data-name="Path 99629" d="M224.6,272.488c0-2.838,3.7-4.988,7.138-4.988h18.318" transform="translate(-31.445 -37.451)" fill="none" stroke="#fff" stroke-linecap="round" stroke-miterlimit="10" stroke-width="8.6"/>
            <path id="Path_99630" data-name="Path 99630" d="M359.565,115.18a38.614,38.614,0,0,0-3.182-15.308h0l-.258-.516-.516-1.2-33.282-72.24h0l-.344-.688-.516-.946-.43-.774-.516-.946-.43-.688-.946-1.462-.516-.688-.6-.86-.516-.688-.86-1.118-.6-.774-.774-.946-.516-.6-.774-.86-.516-.516-1.29-1.2-.516-.516-.946-.774-.6-.516L309,9.486l-.516-.344-1.2-.774-.6-.43-1.118-.688-.516-.344-1.548-.946-.43-.258-1.29-.688-.6-.258-1.376-.6-.344-.172-1.72-.688-.516-.172-1.548-.43-.516-.172L293.26,2H293l-1.634-.344h-.6l-1.548-.516h-.43L286.81.8h-9.46l-1.978.258h-.43l-1.548.258h-.6l-1.634.344H270.9l-1.892.516-.516.172-1.376.43-.516.172-1.72.688-.344.172-1.376.6-.6.258-1.29.688-.43.258-1.72,1.29-.516.344-1.118.688-.6.43-1.29.946-.516.344-1.118.86-.6.516-.946.774-.516.516-1.29,1.2-.516.516-.774.86-.516.6-.774.946-.6.774-.86,1.118-.516.688-.6.86-.516.688-.946,1.462-.43.688-.516.946-.43.774-.516.946-.344.688h0l-33.282,72.24-.516,1.2-.258.516h0a38.786,38.786,0,0,0,19.436,50.482h0l39.216,17.028h0l3.7,1.376h0l1.806.516h.086l1.72.43h.258l1.634.344h.344l1.548.172h9.2l1.548-.172h.344l1.634-.344h.258l1.72-.43h.086l1.806-.516h0l3.7-1.376h0l39.216-17.028h0a38.786,38.786,0,0,0,22.532-35.174" transform="translate(-28.638 -0.112)"/>
            <path id="Path_99631" data-name="Path 99631" d="M359.565,115.18a38.614,38.614,0,0,0-3.182-15.308h0l-.258-.516-.516-1.2-33.282-72.24h0l-.344-.688-.516-.946-.43-.774-.516-.946-.43-.688-.946-1.462-.516-.688-.6-.86-.516-.688-.86-1.118-.6-.774-.774-.946-.516-.6-.774-.86-.516-.516-1.29-1.2-.516-.516-.946-.774-.6-.516L309,9.486l-.516-.344-1.2-.774-.6-.43-1.118-.688-.516-.344-1.548-.946-.43-.258-1.29-.688-.6-.258-1.376-.6-.344-.172-1.72-.688-.516-.172-1.548-.43-.516-.172L293.26,2H293l-1.634-.344h-.6l-1.548-.516h-.43L286.81.8h-9.46l-1.978.258h-.43l-1.548.258h-.6l-1.634.344H270.9l-1.892.516-.516.172-1.376.43-.516.172-1.72.688-.344.172-1.376.6-.6.258-1.29.688-.43.258-1.72,1.29-.516.344-1.118.688-.6.43-1.29.946-.516.344-1.118.86-.6.516-.946.774-.516.516-1.29,1.2-.516.516-.774.86-.516.6-.774.946-.6.774-.86,1.118-.516.688-.6.86-.516.688-.946,1.462-.43.688-.516.946-.43.774-.516.946-.344.688h0l-33.282,72.24-.516,1.2-.258.516h0a38.786,38.786,0,0,0,19.436,50.482h0l39.216,17.028h0l3.7,1.376h0l1.806.516h.086l1.72.43h.258l1.634.344h.344l1.548.172h9.2l1.548-.172h.344l1.634-.344h.258l1.72-.43h.086l1.806-.516h0l3.7-1.376h0l39.216-17.028h0a38.786,38.786,0,0,0,22.618-35.346Z" transform="translate(-28.638 -0.112)" fill="none" stroke="#000" stroke-miterlimit="10" stroke-width="0.86"/>
            <path id="Path_99632" data-name="Path 99632" d="M283.934,183.966h-2.58l-1.72-.172h-.344l-2.064-.258h-.344l-1.806-.344h-.258l-3.956-1.032h-.172l-3.784-1.462h0l-30.014-12.47h0c-11.438-4.9-19.092-13.846-19.092-24.08,0-6.966,3.526-13.33,9.374-18.232h0l21.07-18.318,1.2-1.032,1.032-.86.172-.172h0l1.548-1.118.516-.344,1.118-.774.688-.43,1.032-.6.774-.43,1.032-.6.774-.43,1.032-.516.86-.344,1.032-.43.86-.344,1.032-.43.86-.344,1.118-.344.946-.344,1.118-.344.946-.258,1.2-.344.946-.258,1.2-.258.946-.172,1.2-.258.946-.172,1.29-.172h.946L278,95.3h11.266l1.376.172h1.29l1.29.172.946.172,1.2.258.946.172,1.2.258.946.258,1.2.344.946.258,1.118.344.946.344,1.118.344.86.344,1.032.43.86.344,1.032.43.86.344,1.032.516.774.43,1.032.6.774.43,1.032.6.688.43,1.118.774.516.344,1.548,1.118h0l.172.172,1.032.86,1.2,1.032,21.07,18.318h0c5.848,4.9,9.374,11.266,9.374,18.232,0,10.234-7.654,19.178-19.092,24.08h0L300.7,180.7h0l-3.784,1.462h-.172l-3.956,1.032h-.258l-1.806.344h-.344l-2.064.258h-.344l-1.72.172h-2.58" transform="translate(-30.493 -13.342)" fill="#8e0bfa"/>
            <path id="Path_99633" data-name="Path 99633" d="M283.934,183.966h-2.58l-1.72-.172h-.344l-2.064-.258h-.344l-1.806-.344h-.258l-3.956-1.032h-.172l-3.784-1.462h0l-30.014-12.47h0c-11.438-4.9-19.092-13.846-19.092-24.08,0-6.966,3.526-13.33,9.374-18.232h0l21.07-18.318,1.2-1.032,1.032-.86.172-.172h0l1.548-1.118.516-.344,1.118-.774.688-.43,1.032-.6.774-.43,1.032-.6.774-.43,1.032-.516.86-.344,1.032-.43.86-.344,1.032-.43.86-.344,1.118-.344.946-.344,1.118-.344.946-.258,1.2-.344.946-.258,1.2-.258.946-.172,1.2-.258.946-.172,1.29-.172h.946L278,95.3h11.266l1.376.172h1.29l1.29.172.946.172,1.2.258.946.172,1.2.258.946.258,1.2.344.946.258,1.118.344.946.344,1.118.344.86.344,1.032.43.86.344,1.032.43.86.344,1.032.516.774.43,1.032.6.774.43,1.032.6.688.43,1.118.774.516.344,1.548,1.118h0l.172.172,1.032.86,1.2,1.032,21.07,18.318h0c5.848,4.9,9.374,11.266,9.374,18.232,0,10.234-7.654,19.178-19.092,24.08h0L300.7,180.7h0l-3.784,1.462h-.172l-3.956,1.032h-.258l-1.806.344h-.344l-2.064.258h-.344l-1.72.172h-2.58" transform="translate(-30.493 -13.342)" fill="none" stroke="#000" stroke-miterlimit="10" stroke-width="0.86"/>
            <path id="Path_99634" data-name="Path 99634" d="M351.94,162.9H215.2a38.872,38.872,0,0,0,13.416,10.234h0l39.216,17.028h0l3.7,1.376h0l1.806.516h.086l1.72.43h.258l1.634.344h.344l1.548.172h9.2l1.548-.172h.344l1.634-.344h.258l1.72-.43h.086l1.806-.516h0l3.7-1.376h0l39.216-17.028h0A38.872,38.872,0,0,0,351.854,162.9" transform="translate(-30.129 -22.806)" fill="#ff0d5b"/>
            <path id="Path_99635" data-name="Path 99635" d="M351.94,162.9H215.2a38.872,38.872,0,0,0,13.416,10.234h0l39.216,17.028h0l3.7,1.376h0l1.806.516h.086l1.72.43h.258l1.634.344h.344l1.548.172h9.2l1.548-.172h.344l1.634-.344h.258l1.72-.43h.086l1.806-.516h0l3.7-1.376h0l39.216-17.028h0A38.872,38.872,0,0,0,351.94,162.9Z" transform="translate(-30.129 -22.806)" fill="none" stroke="#000" stroke-miterlimit="10" stroke-width="0.86"/>
            <path id="Path_99636" data-name="Path 99636" d="M249.164,103.782A11.782,11.782,0,1,1,237.382,92a11.782,11.782,0,0,1,11.782,11.782" transform="translate(-31.585 -12.88)" fill="#00db96"/>
            <path id="Path_99637" data-name="Path 99637" d="M249.164,103.782A11.782,11.782,0,1,1,237.382,92,11.782,11.782,0,0,1,249.164,103.782Z" transform="translate(-31.585 -12.88)" fill="none" stroke="#000" stroke-miterlimit="10" stroke-width="0.86"/>
            <path id="Path_99638" data-name="Path 99638" d="M360.464,103.382A11.782,11.782,0,1,1,348.682,91.6a11.782,11.782,0,0,1,11.782,11.782" transform="translate(-47.167 -12.824)" fill="#00db96"/>
            <path id="Path_99639" data-name="Path 99639" d="M360.464,103.382A11.782,11.782,0,1,1,348.682,91.6,11.782,11.782,0,0,1,360.464,103.382Z" transform="translate(-47.167 -12.824)" fill="none" stroke="#000" stroke-miterlimit="10" stroke-width="0.86"/>
            <path id="Path_99640" data-name="Path 99640" d="M348.7,91.7A11.782,11.782,0,0,0,337,102.708a11.7,11.7,0,0,1,19.436,8.858v.774a11.7,11.7,0,0,0-7.74-20.554" transform="translate(-47.181 -12.838)"/>
            <path id="Path_99641" data-name="Path 99641" d="M348.7,91.7A11.782,11.782,0,0,0,337,102.708a11.7,11.7,0,0,1,19.436,8.858v.774a11.7,11.7,0,0,0-7.74-20.554Z" transform="translate(-47.181 -12.838)" fill="none" stroke="#000" stroke-miterlimit="10" stroke-width="0.86"/>
            <path id="Path_99642" data-name="Path 99642" d="M237.479,91.7a11.782,11.782,0,0,1,11.7,11.008,11.7,11.7,0,0,0-19.436,8.858q0,.387,0,.774a11.7,11.7,0,0,1,7.74-20.554" transform="translate(-31.596 -12.838)"/>
            <path id="Path_99643" data-name="Path 99643" d="M237.479,91.7a11.782,11.782,0,0,1,11.7,11.008,11.7,11.7,0,0,0-19.436,8.858q0,.387,0,.774a11.7,11.7,0,0,1,7.74-20.554Z" transform="translate(-31.596 -12.838)" fill="none" stroke="#000" stroke-miterlimit="10" stroke-width="0.86"/>
            <path id="Path_99644" data-name="Path 99644" d="M287.77,9.6h0A42.57,42.57,0,0,0,245.2,52.17v93.568c10.922,5.5,25.972,8.858,42.57,8.858s31.648-3.354,42.57-8.858V52.17A42.57,42.57,0,0,0,287.77,9.6" transform="translate(-34.329 -1.344)" fill="#00db96"/>
            <path id="Path_99645" data-name="Path 99645" d="M287.77,9.6h0A42.57,42.57,0,0,0,245.2,52.17v93.568c10.922,5.5,25.972,8.858,42.57,8.858s31.648-3.354,42.57-8.858V52.17A42.57,42.57,0,0,0,287.77,9.6Z" transform="translate(-34.329 -1.344)" fill="none" stroke="#000" stroke-miterlimit="10" stroke-width="0.86"/>
            <path id="Path_99646" data-name="Path 99646" d="M288.028,77.014c17.974,0,33.712,4.73,42.312,11.868V59.47a42.57,42.57,0,1,0-85.14,0V89.226c8.514-7.31,24.51-12.3,42.828-12.3" transform="translate(-34.329 -2.366)"/>
            <path id="Path_99647" data-name="Path 99647" d="M288.028,77.014c17.974,0,33.712,4.73,42.312,11.868V59.47a42.57,42.57,0,1,0-85.14,0V89.226C253.714,82,269.71,77.014,288.028,77.014Z" transform="translate(-34.329 -2.366)" fill="none" stroke="#000" stroke-miterlimit="10" stroke-width="0.86"/>
            <path id="Path_99648" data-name="Path 99648" d="M304.306,132.784H276.442a12.642,12.642,0,1,1,0-25.284h27.95a12.642,12.642,0,1,1,0,25.284" transform="translate(-36.933 -15.05)" fill="#ff0d5b"/>
            <path id="Path_99649" data-name="Path 99649" d="M304.306,132.784H276.442a12.642,12.642,0,1,1,0-25.284h27.95a12.642,12.642,0,1,1,0,25.284Z" transform="translate(-36.933 -15.05)" fill="none" stroke="#000" stroke-miterlimit="10" stroke-width="0.86"/>
            <path id="Path_99650" data-name="Path 99650" d="M305.5,126.664H277.632a5.332,5.332,0,1,1,0-10.664h27.95a5.332,5.332,0,1,1,0,10.664" transform="translate(-38.123 -16.24)" fill="#fcf7eb"/>
            <path id="Path_99651" data-name="Path 99651" d="M305.5,126.664H277.632a5.332,5.332,0,1,1,0-10.664h27.95a5.332,5.332,0,1,1,0,10.664Z" transform="translate(-38.123 -16.24)" fill="none" stroke="#000" stroke-miterlimit="10" stroke-width="0.86"/>
            <path id="Path_99652" data-name="Path 99652" d="M298.012,98.556a3.956,3.956,0,1,1-3.956-3.956,3.956,3.956,0,0,1,3.956,3.956" transform="translate(-40.615 -13.244)"/>
            <path id="Path_99653" data-name="Path 99653" d="M298.012,98.556a3.956,3.956,0,1,1-3.956-3.956A3.956,3.956,0,0,1,298.012,98.556Z" transform="translate(-40.615 -13.244)" fill="none" stroke="#000" stroke-miterlimit="10" stroke-width="0.86"/>
            <path id="Path_99654" data-name="Path 99654" d="M349.922,122.754a38.614,38.614,0,0,0-9.374-25.284h0L319.392,72.1l-1.2-1.462-1.032-1.2-.172-.172h0l-1.548-1.548-.516-.516L313.8,66.166l-.688-.6-1.032-.86-.774-.6-1.032-.774-.774-.6-1.032-.688-.86-.516-1.032-.688-.86-.516-1.032-.6-.86-.43-1.118-.516-.946-.43-1.118-.516-.946-.344-1.2-.43-.946-.344-1.2-.344L295.4,56.1l-1.2-.344-.946-.258-1.29-.258-.946-.172-1.376-.172H278.37l-1.376.172-.946.172-1.29.258-.946.258-1.2.344-.946.258-1.2.344-.946.344-1.2.43-.946.344-1.118.516-.946.43-1.118.516-.86.43-1.032.6-.86.516-1.032.688-.86.516-1.032.688-.774.6L256.7,64.1l-.774.6-1.032.86-.688.6-1.2.86-.516.516-1.548,1.548h0l-.172.172-1.032,1.2-1.2,1.462L227.458,97.47h0a38.7,38.7,0,0,0,9.632,58.738h0L267.1,173.494h0a31.735,31.735,0,0,0,3.784,1.978h.172a31.478,31.478,0,0,0,3.956,1.462h.258l1.806.43h.344l2.064.344h.344l1.72.172H286.8l1.72-.172h.344l2.064-.344h.344l1.806-.43h.258a31.476,31.476,0,0,0,3.956-1.462h.172a31.739,31.739,0,0,0,3.784-1.978h0l30.014-17.286h0a38.7,38.7,0,0,0,18.662-33.454Z" transform="translate(-30.519 -7.686)" fill="none" stroke="#000" stroke-miterlimit="10" stroke-width="0.86"/>
            <path id="Path_99655" data-name="Path 99655" d="M236.9,162.27c11.008,8,29.154,13.158,49.708,13.158s38.786-5.246,49.708-13.158l-7.138-3.87c-9.89,6.364-25.284,10.492-42.57,10.492s-32.68-4.128-42.57-10.492Z" transform="translate(-33.167 -22.176)" fill="#ff3c1d"/>
            <path id="Path_99656" data-name="Path 99656" d="M236.9,162.27c11.008,8,29.154,13.158,49.708,13.158s38.786-5.246,49.708-13.158l-7.138-3.87c-9.89,6.364-25.284,10.492-42.57,10.492s-32.68-4.128-42.57-10.492Z" transform="translate(-33.167 -22.176)" fill="none" stroke="#000" stroke-miterlimit="10" stroke-width="0.86"/>
            <path id="Path_99657" data-name="Path 99657" d="M305.5,126.664H277.632a5.332,5.332,0,1,1,0-10.664h27.95a5.332,5.332,0,1,1,0,10.664" transform="translate(-38.123 -16.24)" fill="#fcf7eb"/>
            <path id="Path_99658" data-name="Path 99658" d="M305.5,126.664H277.632a5.332,5.332,0,1,1,0-10.664h27.95a5.332,5.332,0,1,1,0,10.664Z" transform="translate(-38.123 -16.24)" fill="none" stroke="#000" stroke-miterlimit="10" stroke-width="0.86"/>
            <line id="Line_3162" data-name="Line 3162" y2="10.664" transform="translate(253.441 99.76)" fill="none" stroke="#000" stroke-miterlimit="10" stroke-width="0.86"/>
            <line id="Line_3163" data-name="Line 3163" y2="10.664" transform="translate(246.991 99.76)" fill="none" stroke="#000" stroke-miterlimit="10" stroke-width="0.86"/>
            <line id="Line_3164" data-name="Line 3164" y2="10.664" transform="translate(240.627 99.76)" fill="none" stroke="#000" stroke-miterlimit="10" stroke-width="0.86"/>
            <line id="Line_3165" data-name="Line 3165" y2="10.664" transform="translate(266.341 99.76)" fill="none" stroke="#000" stroke-miterlimit="10" stroke-width="0.86"/>
            <line id="Line_3166" data-name="Line 3166" y2="10.664" transform="translate(259.891 99.76)" fill="none" stroke="#000" stroke-miterlimit="10" stroke-width="0.86"/>
            <path id="Path_99659" data-name="Path 99659" d="M359.565,115.18a38.614,38.614,0,0,0-3.182-15.308h0l-.258-.516-.516-1.2-33.282-72.24h0l-.344-.688-.516-.946-.43-.774-.516-.946-.43-.688-.946-1.462-.516-.688-.6-.86-.516-.688-.86-1.118-.6-.774-.774-.946-.516-.6-.774-.86-.516-.516-1.29-1.2-.516-.516-.946-.774-.6-.516L309,9.486l-.516-.344-1.2-.774-.6-.43-1.118-.688-.516-.344-1.548-.946-.43-.258-1.29-.688-.6-.258-1.376-.6-.344-.172-1.72-.688-.516-.172-1.548-.43-.516-.172L293.26,2H293l-1.634-.344h-.6l-1.548-.516h-.43L286.81.8h-9.46l-1.978.258h-.43l-1.548.258h-.6l-1.634.344H270.9l-1.892.516-.516.172-1.376.43-.516.172-1.72.688-.344.172-1.376.6-.6.258-1.29.688-.43.258-1.72,1.29-.516.344-1.118.688-.6.43-1.29.946-.516.344-1.118.86-.6.516-.946.774-.516.516-1.29,1.2-.516.516-.774.86-.516.6-.774.946-.6.774-.86,1.118-.516.688-.6.86-.516.688-.946,1.462-.43.688-.516.946-.43.774-.516.946-.344.688h0l-33.282,72.24-.516,1.2-.258.516h0a38.786,38.786,0,0,0,19.436,50.482h0l39.216,17.028h0l3.7,1.376h0l1.806.516h.086l1.72.43h.258l1.634.344h.344l1.548.172h1.892l-1.72-.172h-.344l-2.064-.344h-.344l-1.806-.43h-.258a31.475,31.475,0,0,1-3.956-1.462h-.172a31.734,31.734,0,0,1-3.784-1.978h0L234.866,148.72h0A38.7,38.7,0,0,1,225.578,89.9h0l21.07-25.37,1.2-1.462,1.032-1.2.172-.172h0L250.6,60.14l.516-.516,1.118-1.032.688-.6,1.032-.86.774-.6,1.032-.774.774-.6,1.032-.688.86-.516,1.032-.688.86-.516,1.032-.6.86-.43,1.118-.516.946-.43,1.118-.516.946-.344,1.2-.43.946-.344,1.2-.344.946-.258,1.2-.344.946-.258,1.29-.258.946-.172,1.376-.172H287.67l1.376.172.946.172,1.29.258.946.258,1.2.344.946.258,1.2.344.946.344,1.2.43.946.344,1.118.516.946.43,1.118.516.86.43,1.032.6.86.516,1.032.688.86.516,1.032.688.774.6,1.032.774.774.6,1.032.86.688.6,1.118,1.032.516.516,1.548,1.548h0l.172.172,1.032,1.2,1.2,1.462L338.5,89.9h0a38.7,38.7,0,0,1-9.632,58.738h0L298.85,165.919h0a31.736,31.736,0,0,1-3.784,1.978h-.172a31.477,31.477,0,0,1-3.956,1.462h-.258l-1.806.43h-.344l-2.064.344h-.344l-1.72.172h2.236l1.548-.172h.344l1.634-.344h.258l1.72-.43h.086l1.806-.516h0l3.7-1.376h0l39.216-17.028h0a38.786,38.786,0,0,0,22.532-35.174" transform="translate(-28.638 -0.112)" fill="#8e0bfa"/>
            <path id="Path_99660" data-name="Path 99660" d="M359.565,115.18a38.614,38.614,0,0,0-3.182-15.308h0l-.258-.516-.516-1.2-33.282-72.24h0l-.344-.688-.516-.946-.43-.774-.516-.946-.43-.688-.946-1.462-.516-.688-.6-.86-.516-.688-.86-1.118-.6-.774-.774-.946-.516-.6-.774-.86-.516-.516-1.29-1.2-.516-.516-.946-.774-.6-.516L309,9.486l-.516-.344-1.2-.774-.6-.43-1.118-.688-.516-.344-1.548-.946-.43-.258-1.29-.688-.6-.258-1.376-.6-.344-.172-1.72-.688-.516-.172-1.548-.43-.516-.172L293.26,2H293l-1.634-.344h-.6l-1.548-.516h-.43L286.81.8h-9.46l-1.978.258h-.43l-1.548.258h-.6l-1.634.344H270.9l-1.892.516-.516.172-1.376.43-.516.172-1.72.688-.344.172-1.376.6-.6.258-1.29.688-.43.258-1.72,1.29-.516.344-1.118.688-.6.43-1.29.946-.516.344-1.118.86-.6.516-.946.774-.516.516-1.29,1.2-.516.516-.774.86-.516.6-.774.946-.6.774-.86,1.118-.516.688-.6.86-.516.688-.946,1.462-.43.688-.516.946-.43.774-.516.946-.344.688h0l-33.282,72.24-.516,1.2-.258.516h0a38.786,38.786,0,0,0,19.436,50.482h0l39.216,17.028h0l3.7,1.376h0l1.806.516h.086l1.72.43h.258l1.634.344h.344l1.548.172h1.892l-1.72-.172h-.344l-2.064-.344h-.344l-1.806-.43h-.258a31.475,31.475,0,0,1-3.956-1.462h-.172a31.734,31.734,0,0,1-3.784-1.978h0L234.866,148.72h0A38.7,38.7,0,0,1,225.578,89.9h0l21.07-25.37,1.2-1.462,1.032-1.2.172-.172h0L250.6,60.14l.516-.516,1.118-1.032.688-.6,1.032-.86.774-.6,1.032-.774.774-.6,1.032-.688.86-.516,1.032-.688.86-.516,1.032-.6.86-.43,1.118-.516.946-.43,1.118-.516.946-.344,1.2-.43.946-.344,1.2-.344.946-.258,1.2-.344.946-.258,1.29-.258.946-.172,1.376-.172H287.67l1.376.172.946.172,1.29.258.946.258,1.2.344.946.258,1.2.344.946.344,1.2.43.946.344,1.118.516.946.43,1.118.516.86.43,1.032.6.86.516,1.032.688.86.516,1.032.688.774.6,1.032.774.774.6,1.032.86.688.6,1.118,1.032.516.516,1.548,1.548h0l.172.172,1.032,1.2,1.2,1.462L338.5,89.9h0a38.7,38.7,0,0,1-9.632,58.738h0L298.85,165.919h0a31.736,31.736,0,0,1-3.784,1.978h-.172a31.477,31.477,0,0,1-3.956,1.462h-.258l-1.806.43h-.344l-2.064.344h-.344l-1.72.172h2.236l1.548-.172h.344l1.634-.344h.258l1.72-.43h.086l1.806-.516h0l3.7-1.376h0l39.216-17.028h0a38.786,38.786,0,0,0,22.618-35.26Z" transform="translate(-28.638 -0.112)" fill="none" stroke="#000" stroke-miterlimit="10" stroke-width="0.86"/>
            <path id="Path_99661" data-name="Path 99661" d="M283.15,13.4l-1.376.172h-.258l-1.118.172h-.43L278.85,14h-.172l-1.29.344h-.344l-.946.344-.344.172-1.2.516h-.258l-.946.43-.43.172-.86.43-.344.172-1.118.6-.344.258-.774.516-.43.258-.86.6-.344.258-.774.6-.43.344-.6.516-.344.344-.86.86-.344.344-.516.6-.344.43-.516.6-.43.516-.6.774-.344.43-.43.6-.344.516-.6.946-.258.43-.344.688-.258.516" transform="translate(-36.331 -1.876)" fill="none" stroke="#fcf7eb" stroke-linecap="round" stroke-miterlimit="10" stroke-width="8.6"/>
            <path id="Path_99662" data-name="Path 99662" d="M279.463,188.416l-1.72-.172H277.4l-2.064-.344h-.344l-1.806-.43h-.258a31.477,31.477,0,0,1-3.956-1.462H268.8a31.732,31.732,0,0,1-3.784-1.978h0L235,166.744h0a38.958,38.958,0,0,1-12.814-12.212A38.786,38.786,0,0,1,204.729,127.7a38.7,38.7,0,0,0,22.1,40.936h0l39.216,17.028h0l3.7,1.376h0l1.806.516h.086l1.72.43h.258l1.634.344h.344l1.548.172h1.892" transform="translate(-28.602 -17.878)"/>
            <path id="Path_99663" data-name="Path 99663" d="M279.463,188.416l-1.72-.172H277.4l-2.064-.344h-.344l-1.806-.43h-.258a31.477,31.477,0,0,1-3.956-1.462H268.8a31.732,31.732,0,0,1-3.784-1.978h0L235,166.744h0a38.958,38.958,0,0,1-12.814-12.212A38.786,38.786,0,0,1,204.729,127.7a38.7,38.7,0,0,0,22.1,40.936h0l39.216,17.028h0l3.7,1.376h0l1.806.516h.086l1.72.43h.258l1.634.344h.344l1.548.172h1.892Z" transform="translate(-28.602 -17.878)" fill="none" stroke="#000" stroke-miterlimit="10" stroke-width="0.86"/>
            <path id="Path_99664" data-name="Path 99664" d="M354.776,154.018a38.958,38.958,0,0,1-12.814,12.212h0l-30.014,17.286h0a31.733,31.733,0,0,1-3.784,1.978h-.172a31.553,31.553,0,0,1-3.956,1.462h-.258l-1.806.43h-.344l-2.064.344h-.344l-1.72.172h2.15l1.548-.172h.344l1.634-.344h.258l1.72-.43h.086l1.806-.516h0l3.7-1.376h0l39.216-17.028h0a38.7,38.7,0,0,0,22.1-40.936A38.786,38.786,0,0,1,354.6,153.932" transform="translate(-41.651 -17.794)"/>
            <path id="Path_99665" data-name="Path 99665" d="M354.776,154.018a38.958,38.958,0,0,1-12.814,12.212h0l-30.014,17.286h0a31.733,31.733,0,0,1-3.784,1.978h-.172a31.553,31.553,0,0,1-3.956,1.462h-.258l-1.806.43h-.344l-2.064.344h-.344l-1.72.172h2.15l1.548-.172h.344l1.634-.344h.258l1.72-.43h.086l1.806-.516h0l3.7-1.376h0l39.216-17.028h0a38.7,38.7,0,0,0,22.1-40.936,38.786,38.786,0,0,1-17.286,26.918Z" transform="translate(-41.651 -17.794)" fill="none" stroke="#000" stroke-miterlimit="10" stroke-width="0.86"/>
          </g>
        </g>
      </g>
    </g>
  </g>
</svg>
