<svg xmlns="http://www.w3.org/2000/svg" xmlns:xlink="http://www.w3.org/1999/xlink" width="83.614" height="78.778" viewBox="0 0 83.614 78.778">
  <defs>
    <clipPath id="clip-path">
      <rect id="Rectangle_133615" data-name="Rectangle 133615" width="83.614" height="78.778" fill="none"/>
    </clipPath>
  </defs>
  <g id="Artwork_29" data-name="Artwork 29" transform="translate(41.808 39.389)">
    <g id="Group_13943" data-name="Group 13943" transform="translate(-41.807 -39.389)" clip-path="url(#clip-path)">
      <path id="Path_73388" data-name="Path 73388" d="M20.342,37.6,30.528,55.315l-14.7,8.5A10.217,10.217,0,0,1,5.639,46.1Z" transform="translate(-0.059 -4.296)" fill="#ff0d5b"/>
      <path id="Path_73389" data-name="Path 73389" d="M20.342,37.6,30.528,55.315l-14.7,8.5A10.217,10.217,0,0,1,5.639,46.1Z" transform="translate(-0.059 -4.296)" fill="none" stroke="#000" stroke-miterlimit="10" stroke-width="0.886"/>
      <path id="Path_73390" data-name="Path 73390" d="M73.838,39.454A3.366,3.366,0,0,1,71,44.591l-1.949.354v-.266l-21.966-38H47l1.24-1.594a3.366,3.366,0,0,1,5.846.089L73.838,39.454" transform="translate(-5.37 -0.392)" fill="#ff0d5b"/>
      <path id="Path_73391" data-name="Path 73391" d="M73.838,39.454A3.366,3.366,0,0,1,71,44.591l-1.949.354v-.266l-21.966-38H47l1.24-1.594a3.366,3.366,0,0,1,5.846.089Z" transform="translate(-5.37 -0.392)" fill="none" stroke="#000" stroke-miterlimit="10" stroke-width="0.886"/>
      <path id="Path_73392" data-name="Path 73392" d="M36.046,77.7a5.137,5.137,0,0,1-8.857,5.137L17.8,66.537,26.657,61.4l9.389,16.3" transform="translate(-2.034 -7.015)" fill="#8e0bfa"/>
      <path id="Path_73393" data-name="Path 73393" d="M36.046,77.7a5.137,5.137,0,0,1-8.857,5.137L17.8,66.537,26.657,61.4Z" transform="translate(-2.034 -7.015)" fill="none" stroke="#000" stroke-miterlimit="10" stroke-width="0.886"/>
      <path id="Path_73394" data-name="Path 73394" d="M70.229,18.1l3.454,5.934-4.252,6.377L62.7,18.543Z" transform="translate(-7.164 -2.068)" fill="#fdfb76"/>
      <path id="Path_73395" data-name="Path 73395" d="M70.229,18.1l3.454,5.934-4.252,6.377L62.7,18.543Z" transform="translate(-7.164 -2.068)" fill="none" stroke="#000" stroke-miterlimit="10" stroke-width="0.886"/>
      <path id="Path_73396" data-name="Path 73396" d="M70.849,19.22a4.517,4.517,0,0,1-.177,4.694L68.014,27.9,62.7,18.6h0l6.732,11.869,4.163-6.377Z" transform="translate(-7.164 -2.125)"/>
      <path id="Path_73397" data-name="Path 73397" d="M70.849,19.22a4.517,4.517,0,0,1-.177,4.694L68.014,27.9,62.7,18.6h0l6.732,11.869,4.163-6.377Z" transform="translate(-7.164 -2.125)" fill="none" stroke="#000" stroke-miterlimit="10" stroke-width="0.886"/>
      <path id="Path_73398" data-name="Path 73398" d="M66.3,45.087v.266L33.175,51.819,22.9,34.1,44.246,7l.089.089Z" transform="translate(-2.616 -0.8)" fill="#00db96"/>
      <path id="Path_73399" data-name="Path 73399" d="M66.3,45.087v.266L33.175,51.819,22.9,34.1,44.246,7l.089.089Z" transform="translate(-2.616 -0.8)" fill="none" stroke="#000" stroke-miterlimit="10" stroke-width="0.886"/>
      <path id="Path_73400" data-name="Path 73400" d="M22.674,51.195a1.683,1.683,0,1,0-1.28.168,1.683,1.683,0,0,0,1.28-.168" transform="translate(-2.302 -5.491)"/>
      <path id="Path_73401" data-name="Path 73401" d="M22.674,51.195a1.683,1.683,0,1,0-1.28.168A1.683,1.683,0,0,0,22.674,51.195Z" transform="translate(-2.302 -5.491)" fill="none" stroke="#000" stroke-miterlimit="10" stroke-width="0.886"/>
      <path id="Path_73402" data-name="Path 73402" d="M65.6,23.8h0" transform="translate(-7.495 -2.719)"/>
      <path id="Path_73403" data-name="Path 73403" d="M65.6,23.8Z" transform="translate(-7.495 -2.719)" fill="none" stroke="#000" stroke-miterlimit="10" stroke-width="1"/>
      <path id="Path_73404" data-name="Path 73404" d="M74.3,39.443,63.932,21.462,54.543,5.076A3.366,3.366,0,0,0,51,3.393l8.5,14.7L63.932,25.8h0L59.5,18.1,69.866,36.077a3.366,3.366,0,0,1-2.392,5.049l2.037,3.543v.177l1.949-.354A3.366,3.366,0,0,0,74.3,39.354" transform="translate(-5.827 -0.382)"/>
      <path id="Path_73405" data-name="Path 73405" d="M74.3,39.443,63.932,21.462,54.543,5.076A3.366,3.366,0,0,0,51,3.393l8.5,14.7L63.932,25.8h0L59.5,18.1,69.866,36.077a3.366,3.366,0,0,1-2.392,5.049l2.037,3.543v.177l1.949-.354A3.366,3.366,0,0,0,74.3,39.443Z" transform="translate(-5.827 -0.382)" fill="none" stroke="#000" stroke-miterlimit="10" stroke-width="0.886"/>
      <path id="Path_73406" data-name="Path 73406" d="M65.3,46h-.443l-1.949.354L32,52.466l2.214,3.809L67.43,49.809v-.266Z" transform="translate(-3.656 -5.256)"/>
      <path id="Path_73407" data-name="Path 73407" d="M65.3,46h-.443l-1.949.354L32,52.466l2.214,3.809L67.43,49.809v-.266Z" transform="translate(-3.656 -5.256)" fill="none" stroke="#000" stroke-miterlimit="10" stroke-width="0.886"/>
      <path id="Path_73408" data-name="Path 73408" d="M26.372,53.743l-14.7,8.5a10.186,10.186,0,0,1-8.769.709,10.186,10.186,0,0,0,13.2,2.657l14.792-8.5L28.675,53.3Z" transform="translate(-0.331 -6.09)"/>
      <path id="Path_73409" data-name="Path 73409" d="M26.372,53.743l-14.7,8.5a10.186,10.186,0,0,1-8.769.709,10.186,10.186,0,0,0,13.2,2.657l14.792-8.5L28.675,53.3Z" transform="translate(-0.331 -6.09)" fill="none" stroke="#000" stroke-miterlimit="10" stroke-width="0.886"/>
      <path id="Path_73410" data-name="Path 73410" d="M27.583,61.5l-1.683.974,6.909,11.869a5.137,5.137,0,0,1-5.137,7.617l.531.886a5.137,5.137,0,0,0,8.857-5.137L27.583,61.5" transform="translate(-2.959 -7.027)"/>
      <path id="Path_73411" data-name="Path 73411" d="M27.583,61.5l-1.683.974,6.909,11.869a5.137,5.137,0,0,1-5.137,7.617l.531.886a5.137,5.137,0,0,0,8.857-5.137Z" transform="translate(-2.959 -7.027)" fill="none" stroke="#000" stroke-miterlimit="10" stroke-width="0.886"/>
      <path id="Path_73412" data-name="Path 73412" d="M90.006,8.153l-8.68,4.872a1.594,1.594,0,0,0,1.506,2.746L91.6,10.9a1.594,1.594,0,1,0-1.506-2.746" transform="translate(-9.226 -0.89)" fill="#8e0bfa"/>
      <path id="Path_73413" data-name="Path 73413" d="M90.006,8.153l-8.68,4.872a1.594,1.594,0,0,0,1.506,2.746L91.6,10.9a1.594,1.594,0,1,0-1.506-2.746Z" transform="translate(-9.226 -0.89)" fill="none" stroke="#000" stroke-miterlimit="10" stroke-width="0.886"/>
      <path id="Path_73414" data-name="Path 73414" d="M89.124,26.172,83.1,24.577a1.594,1.594,0,1,0-.8,3.012l6.023,1.594a1.594,1.594,0,1,0,.8-3.012" transform="translate(-9.229 -2.788)" fill="#8e0bfa"/>
      <path id="Path_73415" data-name="Path 73415" d="M89.124,26.172,83.1,24.577a1.594,1.594,0,1,0-.8,3.012l6.023,1.594a1.594,1.594,0,1,0,.8-3.012Z" transform="translate(-9.229 -2.788)" fill="none" stroke="#000" stroke-miterlimit="10" stroke-width="0.886"/>
      <path id="Path_73416" data-name="Path 73416" d="M72.894,1.6,71.3,7.626a1.594,1.594,0,0,0,3.012.8L75.906,2.4a1.594,1.594,0,1,0-3.012-.8" transform="translate(-8.146 -0.009)" fill="#8e0bfa"/>
      <path id="Path_73417" data-name="Path 73417" d="M72.894,1.6,71.3,7.626a1.594,1.594,0,0,0,3.012.8L75.906,2.4a1.594,1.594,0,1,0-3.012-.8Z" transform="translate(-8.146 -0.009)" fill="none" stroke="#000" stroke-miterlimit="10" stroke-width="0.886"/>
    </g>
  </g>
</svg>
