<svg xmlns="http://www.w3.org/2000/svg" xmlns:xlink="http://www.w3.org/1999/xlink" width="631.592" height="524.768" viewBox="0 0 631.592 524.768">
  <defs>
    <clipPath id="clip-path">
      <rect id="Rectangle_134130" data-name="Rectangle 134130" width="631.592" height="524.768" fill="none"/>
    </clipPath>
  </defs>
  <g id="Artwork_59" data-name="Artwork 59" transform="translate(315.796 262.384)">
    <g id="Group_14319" data-name="Group 14319" transform="translate(-315.796 -262.384)" clip-path="url(#clip-path)">
      <path id="Path_79414" data-name="Path 79414" d="M437.313,616.9l-96.3,34.312-3.6,12.8c-5.188,18.125-24.835,33-43.72,33v8.578H493.278Z" transform="translate(-90.525 -190.143)" fill="#ff3c1d"/>
      <path id="Path_79415" data-name="Path 79415" d="M437.313,616.9l-96.3,34.312-3.6,12.8c-5.188,18.125-24.835,33-43.72,33v8.578H493.278Z" transform="translate(-90.525 -190.143)" fill="none" stroke="#000" stroke-miterlimit="10" stroke-width="1.515"/>
      <path id="Path_79416" data-name="Path 79416" d="M496.3,648.753l-13.42-47.041L427.4,567.4l-55.48,34.312L362.1,636.024h96.3l3.666,12.729c5.188,18.125,24.835,33,43.72,33l17.156,8.578,17.156-8.578c-18.886,0-38.532-14.873-43.72-33" transform="translate(-111.608 -174.886)"/>
      <path id="Path_79417" data-name="Path 79417" d="M496.3,648.753l-13.42-47.041L427.4,567.4l-55.48,34.312L362.1,636.024h96.3l3.666,12.729c5.188,18.125,24.835,33,43.72,33l17.156,8.578,17.156-8.578C521.209,681.751,501.493,666.877,496.3,648.753Z" transform="translate(-111.608 -174.886)" fill="none" stroke="#000" stroke-miterlimit="10" stroke-width="1.515"/>
      <path id="Path_79418" data-name="Path 79418" d="M550.983,749.856h-354.6a8.578,8.578,0,1,1,0-17.156h354.6a8.578,8.578,0,0,1,0,17.156" transform="translate(-57.884 -225.835)" fill="#ff3c1d"/>
      <path id="Path_79419" data-name="Path 79419" d="M550.983,749.856h-354.6a8.578,8.578,0,1,1,0-17.156h354.6a8.578,8.578,0,0,1,0,17.156Z" transform="translate(-57.884 -225.835)" fill="none" stroke="#000" stroke-miterlimit="10" stroke-width="1.515"/>
      <path id="Path_79420" data-name="Path 79420" d="M557.97,738a8.509,8.509,0,0,1-8.025,5.742H196.378a8.509,8.509,0,0,1-7.609-4.7,8.507,8.507,0,0,0,7.609,12.451h354.6A8.578,8.578,0,0,0,557.97,738" transform="translate(-57.884 -227.469)"/>
      <path id="Path_79421" data-name="Path 79421" d="M.5,543.4v39.155a19.854,19.854,0,0,0,19.854,19.854H611.546A19.854,19.854,0,0,0,631.4,582.555V543.4Z" transform="translate(-0.154 -167.489)" fill="#ff3c1d"/>
      <path id="Path_79422" data-name="Path 79422" d="M.5,543.4v39.155a19.854,19.854,0,0,0,19.854,19.854H611.546A19.854,19.854,0,0,0,631.4,582.555V543.4Z" transform="translate(-0.154 -167.489)" fill="none" stroke="#000" stroke-miterlimit="10" stroke-width="0.692"/>
      <path id="Path_79423" data-name="Path 79423" d="M611.546,608.054H20.354A19.854,19.854,0,0,1,.5,588.2v8.163a19.854,19.854,0,0,0,19.854,19.854H611.546A19.854,19.854,0,0,0,631.4,596.363V588.2a19.854,19.854,0,0,1-19.854,19.854" transform="translate(-0.154 -181.297)"/>
      <path id="Path_79424" data-name="Path 79424" d="M611.546,608.054H20.354A19.854,19.854,0,0,1,.5,588.2v8.163a19.854,19.854,0,0,0,19.854,19.854H611.546A19.854,19.854,0,0,0,631.4,596.363V588.2a19.854,19.854,0,0,1-19.854,19.854Z" transform="translate(-0.154 -181.297)" fill="none" stroke="#000" stroke-miterlimit="10" stroke-width="0.692"/>
      <path id="Path_79425" data-name="Path 79425" d="M611.546.5H20.354A19.854,19.854,0,0,0,.5,20.354V376.066H631.4V20.354A19.854,19.854,0,0,0,611.546.5" transform="translate(-0.154 -0.154)" fill="#8e0bfa"/>
      <path id="Path_79426" data-name="Path 79426" d="M611.546.5H20.354A19.854,19.854,0,0,0,.5,20.354V376.066H631.4V20.354A19.854,19.854,0,0,0,611.546.5Z" transform="translate(-0.154 -0.154)" fill="none" stroke="#000" stroke-miterlimit="10" stroke-width="0.692"/>
      <path id="Path_79427" data-name="Path 79427" d="M35.072,359.229h576.6V33.749a6.849,6.849,0,0,0-6.849-6.849H28.5V352.727a6.572,6.572,0,0,0,6.572,6.572" transform="translate(-8.784 -8.291)"/>
      <path id="Path_79428" data-name="Path 79428" d="M35.072,359.229h576.6V33.749a6.849,6.849,0,0,0-6.849-6.849H28.5V352.727A6.572,6.572,0,0,0,35.072,359.229Z" transform="translate(-8.784 -8.291)" fill="none" stroke="#000" stroke-miterlimit="10" stroke-width="0.692"/>
      <rect id="Rectangle_134128" data-name="Rectangle 134128" width="576.457" height="325.661" transform="translate(26.426 25.319)" fill="#fdfb76"/>
      <rect id="Rectangle_134129" data-name="Rectangle 134129" width="576.457" height="325.661" transform="translate(26.426 25.319)" fill="none" stroke="#000" stroke-miterlimit="10" stroke-width="0.692"/>
      <path id="Path_79429" data-name="Path 79429" d="M876.451.5H863.1a19.854,19.854,0,0,1,19.854,19.854V415.22A19.854,19.854,0,0,1,863.1,435.074h13.351a19.854,19.854,0,0,0,19.854-19.854V20.354A19.854,19.854,0,0,0,876.451.5" transform="translate(-266.028 -0.154)"/>
      <path id="Path_79430" data-name="Path 79430" d="M876.451.5H863.1a19.854,19.854,0,0,1,19.854,19.854V415.22A19.854,19.854,0,0,1,863.1,435.074h13.351a19.854,19.854,0,0,0,19.854-19.854V20.354A19.854,19.854,0,0,0,876.451.5Z" transform="translate(-266.028 -0.154)" fill="none" stroke="#000" stroke-miterlimit="10" stroke-width="0.692"/>
      <path id="Path_79431" data-name="Path 79431" d="M764.1,458.2" transform="translate(-235.514 -141.228)" fill="#fcf7eb"/>
      <path id="Path_79432" data-name="Path 79432" d="M764.1,458.2" transform="translate(-235.514 -141.228)" fill="none" stroke="#000" stroke-miterlimit="10" stroke-width="1"/>
      <path id="Path_79433" data-name="Path 79433" d="M681.9,409.5" transform="translate(-210.178 -126.217)" fill="#fcf7eb"/>
      <path id="Path_79434" data-name="Path 79434" d="M681.9,409.5" transform="translate(-210.178 -126.217)" fill="none" stroke="#000" stroke-miterlimit="10" stroke-width="1"/>
      <path id="Path_79435" data-name="Path 79435" d="M680.2,422.1" transform="translate(-209.654 -130.101)" fill="#fcf7eb"/>
      <path id="Path_79436" data-name="Path 79436" d="M680.2,422.1" transform="translate(-209.654 -130.101)" fill="none" stroke="#000" stroke-miterlimit="10" stroke-width="1"/>
      <path id="Path_79437" data-name="Path 79437" d="M701.3,390" transform="translate(-216.157 -120.207)" fill="#fcf7eb"/>
      <path id="Path_79438" data-name="Path 79438" d="M701.3,390" transform="translate(-216.157 -120.207)" fill="none" stroke="#000" stroke-miterlimit="10" stroke-width="1"/>
      <path id="Path_79439" data-name="Path 79439" d="M716.9,395.3" transform="translate(-220.965 -121.841)" fill="#fcf7eb"/>
      <path id="Path_79440" data-name="Path 79440" d="M716.9,395.3" transform="translate(-220.965 -121.841)" fill="none" stroke="#000" stroke-miterlimit="10" stroke-width="1"/>
      <path id="Path_79441" data-name="Path 79441" d="M462.752,581.076A11.276,11.276,0,1,1,451.476,569.8a11.276,11.276,0,0,1,11.276,11.276" transform="translate(-135.68 -175.626)"/>
      <path id="Path_79442" data-name="Path 79442" d="M462.752,581.076A11.276,11.276,0,1,1,451.476,569.8a11.276,11.276,0,0,1,11.276,11.276Z" transform="translate(-135.68 -175.626)" fill="none" stroke="#000" stroke-miterlimit="10" stroke-width="0.692"/>
      <path id="Path_79443" data-name="Path 79443" d="M47.259,14.9H25.607A11.207,11.207,0,0,0,14.4,26.107V44.923" transform="translate(-4.438 -4.593)" fill="none" stroke="#fcf7eb" stroke-linecap="round" stroke-miterlimit="10" stroke-width="6.918"/>
      <line id="Line_2027" data-name="Line 2027" x1="19.923" transform="translate(63.159 10.307)" fill="none" stroke="#fcf7eb" stroke-linecap="round" stroke-miterlimit="10" stroke-width="6.918"/>
    </g>
  </g>
</svg>
