<svg xmlns="http://www.w3.org/2000/svg" xmlns:xlink="http://www.w3.org/1999/xlink" width="86" height="82.28" viewBox="0 0 86 82.28">
  <defs>
    <clipPath id="clip-path">
      <rect id="Rectangle_133147" data-name="Rectangle 133147" width="86" height="82.28" fill="none"/>
    </clipPath>
  </defs>
  <g id="Artwork_25" data-name="Artwork 25" transform="translate(43 41.14)">
    <g id="Group_13644" data-name="Group 13644" transform="translate(-43 -41.14)" clip-path="url(#clip-path)">
      <path id="Path_71022" data-name="Path 71022" d="M80.4.5H75.3l4.6,45.6-4.6-4.6V67.2h5.1a5.1,5.1,0,0,0,5.1-5.1V5.6A5.1,5.1,0,0,0,80.4.5"/>
      <path id="Path_71023" data-name="Path 71023" d="M80.4.5H75.3l4.6,45.6-4.6-4.6V67.2h5.1a5.1,5.1,0,0,0,5.1-5.1V5.6A5.1,5.1,0,0,0,80.4.5Z" fill="none" stroke="#000" stroke-miterlimit="10" stroke-width="1"/>
      <path id="Path_71024" data-name="Path 71024" d="M47.7,67.2,33.3,72.4l-.5,1.9a7.2,7.2,0,0,1-6.5,4.9v1.3H56Z" fill="#ff3c1d"/>
      <path id="Path_71025" data-name="Path 71025" d="M47.7,67.2,33.3,72.4l-.5,1.9a7.2,7.2,0,0,1-6.5,4.9v1.3H56Z" fill="none" stroke="#000" stroke-miterlimit="10" stroke-width="1"/>
      <path id="Path_71026" data-name="Path 71026" d="M53.3,74.3l-2-7L43,62.1l-8.3,5.1-1.5,5.1H47.7l.5,1.9a7.2,7.2,0,0,0,6.5,4.9l2.6,1.3,2.6-1.3a7.2,7.2,0,0,1-6.5-4.9"/>
      <path id="Path_71027" data-name="Path 71027" d="M53.3,74.3l-2-7L43,62.1l-8.3,5.1-1.5,5.1H47.7l.5,1.9a7.2,7.2,0,0,0,6.5,4.9l2.6,1.3,2.6-1.3a7.2,7.2,0,0,1-6.6-4.8Z" fill="none" stroke="#000" stroke-miterlimit="10" stroke-width="1"/>
      <path id="Path_71028" data-name="Path 71028" d="M.5,62.1a5.1,5.1,0,0,0,5.1,5.1H75.3a5.1,5.1,0,0,0,5.1-5.1V31.3L.5,51.8Z" fill="#ff3c1d"/>
      <path id="Path_71029" data-name="Path 71029" d="M.5,62.1a5.1,5.1,0,0,0,5.1,5.1H75.3a5.1,5.1,0,0,0,5.1-5.1V31.3L.5,51.8Z" fill="none" stroke="#000" stroke-miterlimit="10" stroke-width="1"/>
      <path id="Path_71030" data-name="Path 71030" d="M80.4,5.6A5.1,5.1,0,0,0,75.3.5H5.6A5.1,5.1,0,0,0,.5,5.6V51.8H80.4V46.7L43,26.2Z" fill="#8e0bfa"/>
      <path id="Path_71031" data-name="Path 71031" d="M80.4,5.6A5.1,5.1,0,0,0,75.3.5H5.6A5.1,5.1,0,0,0,.5,5.6V51.8H80.4V46.7L43,26.2Z" fill="none" stroke="#000" stroke-miterlimit="10" stroke-width="1"/>
      <path id="Path_71032" data-name="Path 71032" d="M80.4,5.6H5.6V46.7H80.4Z" fill="#00db96"/>
      <path id="Path_71033" data-name="Path 71033" d="M80.4,5.6H5.6V46.7H80.4Z" fill="none" stroke="#000" stroke-miterlimit="10" stroke-width="1"/>
      <path id="Path_71034" data-name="Path 71034" d="M43,57a2.6,2.6,0,1,1-2.6,2.6A2.6,2.6,0,0,1,43,57"/>
      <path id="Path_71035" data-name="Path 71035" d="M43,57a2.6,2.6,0,1,1-2.6,2.6A2.6,2.6,0,0,1,43,57Z" fill="none" stroke="#000" stroke-miterlimit="10" stroke-width="1"/>
      <path id="Path_71036" data-name="Path 71036" d="M69.5,81.8h-53a1.3,1.3,0,0,1,0-2.6h53a1.3,1.3,0,1,1,0,2.6"/>
      <path id="Path_71037" data-name="Path 71037" d="M69.5,81.8h-53a1.3,1.3,0,0,1,0-2.6h53a1.3,1.3,0,1,1,0,2.6Z" fill="none" stroke="#000" stroke-miterlimit="10" stroke-width="1"/>
      <path id="Path_71038" data-name="Path 71038" d="M43,10.8c-21,.4-29.8,15.4-29.8,15.4S22,41.1,43,41.5,72.8,26.2,72.8,26.2,64.1,11.2,43,10.8" fill="#fcf7eb"/>
      <path id="Path_71039" data-name="Path 71039" d="M43,10.8c-21,.4-29.8,15.4-29.8,15.4S22,41.1,43,41.5,72.8,26.2,72.8,26.2,64.1,11.2,43,10.8Z" fill="none" stroke="#000" stroke-miterlimit="10" stroke-width="1"/>
      <path id="Path_71040" data-name="Path 71040" d="M43,10.8a15.3,15.3,0,1,1-10.854,4.517A15.3,15.3,0,0,1,43,10.8" fill="#ff0d5b"/>
      <path id="Path_71041" data-name="Path 71041" d="M43,10.8a15.3,15.3,0,1,1-10.854,4.517A15.3,15.3,0,0,1,43,10.8Z" fill="none" stroke="#000" stroke-miterlimit="10" stroke-width="1"/>
      <path id="Path_71042" data-name="Path 71042" d="M43,34.7a8.6,8.6,0,1,1,8.6-8.6A8.6,8.6,0,0,1,43,34.7"/>
      <path id="Path_71043" data-name="Path 71043" d="M48.1,25.2A4.1,4.1,0,1,1,52.3,21a4.2,4.2,0,0,1-4.1,4.1" fill="#fcf7eb"/>
      <path id="Path_71044" data-name="Path 71044" d="M51.7,13.5A15.3,15.3,0,0,1,30.4,34.9,15.3,15.3,0,1,0,51.7,13.5"/>
    </g>
  </g>
</svg>
