<svg xmlns="http://www.w3.org/2000/svg" xmlns:xlink="http://www.w3.org/1999/xlink" width="108.1" height="77.78" viewBox="0 0 108.1 77.78">
  <defs>
    <clipPath id="clip-path">
      <rect id="Rectangle_124650" data-name="Rectangle 124650" width="108.1" height="77.78" fill="none"/>
    </clipPath>
    <clipPath id="clip-path-5">
      <rect id="Rectangle_124653" data-name="Rectangle 124653" width="22.7" height="16.63" transform="translate(8.9 39.8)" fill="none"/>
    </clipPath>
    <clipPath id="clip-path-7">
      <rect id="Rectangle_124655" data-name="Rectangle 124655" width="34.6" height="24.68" transform="translate(43.6 53.1)" fill="none"/>
    </clipPath>
  </defs>
  <g id="Artwork_37" data-name="Artwork 37" transform="translate(54.05 38.89)">
    <g id="Group_5496" data-name="Group 5496" transform="translate(-54.05 -38.89)">
      <path id="Path_24856" data-name="Path 24856" d="M58.8,2.9V20.1l-8.2,8.6.1-17.3Z" fill="#ff3c1d"/>
      <path id="Path_24857" data-name="Path 24857" d="M58.8,2.9V20.1l-8.2,8.6.1-17.3Z" fill="none" stroke="#000" stroke-linejoin="round" stroke-width="1"/>
      <path id="Path_24858" data-name="Path 24858" d="M93.1,12.4,93,29.7,82,26.2V8.9Z" fill="#fdfb76"/>
      <path id="Path_24859" data-name="Path 24859" d="M93.1,12.4,93,29.7,82,26.2V8.9Z" fill="none" stroke="#000" stroke-linejoin="round" stroke-width="1"/>
      <path id="Path_24860" data-name="Path 24860" d="M39.3,13.3l-.1,17.3L22.6,25.3V8Z" fill="#fdfb76"/>
      <path id="Path_24861" data-name="Path 24861" d="M39.3,13.3l-.1,17.3L22.6,25.3V8Z" fill="none" stroke="#000" stroke-linejoin="round" stroke-width="1"/>
      <path id="Path_24862" data-name="Path 24862" d="M67.4,16.7,67.3,34l-4,4.3V21Z" fill="#ff3c1d"/>
      <path id="Path_24863" data-name="Path 24863" d="M67.4,16.7,67.3,34l-4,4.3V21Z" fill="none" stroke="#000" stroke-linejoin="round" stroke-width="1"/>
      <path id="Path_24864" data-name="Path 24864" d="M63.3,21V38.3L46.6,33V15.7Z" fill="#fdfb76"/>
      <path id="Path_24865" data-name="Path 24865" d="M63.3,21V38.3L46.6,33V15.7Z" fill="none" stroke="#000" stroke-linejoin="round" stroke-width="1"/>
      <path id="Path_24866" data-name="Path 24866" d="M38.5,24.2V41.5l-7.4-2.3V21.9Z" fill="#fdfb76"/>
      <path id="Path_24867" data-name="Path 24867" d="M38.5,24.2V41.5l-7.4-2.3V21.9Z" fill="none" stroke="#000" stroke-linejoin="round" stroke-width="1"/>
      <path id="Path_24868" data-name="Path 24868" d="M46.6,15.7V33l-8.1,8.5V24.2Z" fill="#ff3c1d"/>
      <path id="Path_24869" data-name="Path 24869" d="M46.6,15.7V33l-8.1,8.5V24.2Z" fill="none" stroke="#000" stroke-linejoin="round" stroke-width="1"/>
      <path id="Path_24870" data-name="Path 24870" d="M43.3,9.1,26.7,3.7,22.6,8l16.7,5.3-8.2,8.6,7.4,2.3,8.1-8.5L63.3,21l4.1-4.3L50.7,11.4l8.1-8.5L51.4.5Z" fill="#00db96"/>
      <g id="Group_5487" data-name="Group 5487" clip-path="url(#clip-path)">
        <path id="Path_24871" data-name="Path 24871" d="M58.8,2.9l-8.1,8.5,16.7,5.3L63.3,21,46.6,15.7l-8.1,8.5-7.4-2.3,8.2-8.6L22.6,8l4.1-4.3L43.3,9.1,51.4.5Z" fill="none" stroke="#000" stroke-linejoin="round" stroke-width="1"/>
      </g>
      <path id="Path_24872" data-name="Path 24872" d="M107.6,7.3V24.6L79.2,54.5V37.2Z" fill="#ff3c1d"/>
      <g id="Group_5488" data-name="Group 5488" clip-path="url(#clip-path)">
        <path id="Path_24873" data-name="Path 24873" d="M107.6,7.3V24.6L79.2,54.5V37.2Z" fill="none" stroke="#000" stroke-linejoin="round" stroke-width="1"/>
      </g>
      <path id="Path_24874" data-name="Path 24874" d="M79.2,37.2V54.5l-7.4-2.3V34.9Z" fill="#fdfb76"/>
      <path id="Path_24875" data-name="Path 24875" d="M79.2,37.2V54.5l-7.4-2.3V34.9Z" fill="none" stroke="#000" stroke-linejoin="round" stroke-width="1"/>
      <path id="Path_24876" data-name="Path 24876" d="M107.6,7.3,79.2,37.2l-7.4-2.3L93.1,12.4,82,8.9l3.1-3.2,11,3.5,4.1-4.3Z" fill="#00db96"/>
      <g id="Group_5489" data-name="Group 5489" clip-path="url(#clip-path)">
        <path id="Path_24877" data-name="Path 24877" d="M107.6,7.3,79.2,37.2l-7.4-2.3L93.1,12.4,82,8.9l3.1-3.2,11,3.5,4.1-4.3Z" fill="none" stroke="#000" stroke-linejoin="round" stroke-width="1"/>
      </g>
      <path id="Path_24878" data-name="Path 24878" d="M31.8,46l-1,1.1L29,46.5l1-1Z"/>
      <path id="Path_24879" data-name="Path 24879" d="M46.3,50.7l-1,1-1.8-.6,1-1Z"/>
      <path id="Path_24880" data-name="Path 24880" d="M41.7,50.6l1.8.5-3.6,3.8-1.8-.6Z"/>
      <path id="Path_24881" data-name="Path 24881" d="M36.3,53.7l-1.8-.6L38,49.4l1.9.6Z"/>
      <path id="Path_24882" data-name="Path 24882" d="M34.5,53.1l-1,1.1-1.8-.6,1-1Z"/>
      <path id="Path_24883" data-name="Path 24883" d="M20.4,59.3,15,57.5l-2.3,2.4-1.8-.6,5.5-5.8,1.8.6L16,56.5l5.4,1.7Z"/>
      <path id="Path_24884" data-name="Path 24884" d="M37.4,58.8l-1,1.1-3.6-1.2-6.6,6.9L24.4,65l6.5-6.9L27.3,57l1-1.1Z"/>
      <g id="Group_5492" data-name="Group 5492" clip-path="url(#clip-path)">
        <g id="Group_5491" data-name="Group 5491" style="isolation: isolate">
          <g id="Group_5490" data-name="Group 5490" clip-path="url(#clip-path-5)">
            <path id="Path_24885" data-name="Path 24885" d="M27.3,43.2l-7.5,8L18,50.6l3.2-3.4L14,44.9l-3.2,3.4-1.9-.6,7.5-7.9,1.9.6L15,43.8l7.2,2.3,3.3-3.4Z"/>
            <path id="Path_24886" data-name="Path 24886" d="M25.4,50.3l1.8.5-1,1.1-1.8-.6Z"/>
            <path id="Path_24887" data-name="Path 24887" d="M25.3,52.9l.9-1,5.5,1.7-1,1.1Z"/>
            <path id="Path_24888" data-name="Path 24888" d="M26.5,55.4l-1,1-7.2-2.3.9-1.1Z"/>
          </g>
        </g>
      </g>
      <path id="Path_24889" data-name="Path 24889" d="M38.2,46.7l-1,1.1L31.8,46l1-1Z"/>
      <path id="Path_24890" data-name="Path 24890" d="M38,49.4l-1.8-.6,1-1,1.8.6Z"/>
      <path id="Path_24891" data-name="Path 24891" d="M27.2,45.9l1.8.6-3.6,3.8-1.8-.6Z"/>
      <path id="Path_24892" data-name="Path 24892" d="M52.7,51.4l-1,1-5.4-1.7,1-1.1Z"/>
      <path id="Path_24893" data-name="Path 24893" d="M52.6,54l-1.9-.6,1-1,1.9.6Z"/>
      <path id="Path_24894" data-name="Path 24894" d="M50.8,58.4,49,57.8,52.6,54l1.8.6Z"/>
      <path id="Path_24895" data-name="Path 24895" d="M73.4,66.9l-1.8-.5,5.5-5.9,1.9.6Z"/>
      <path id="Path_24896" data-name="Path 24896" d="M52.6,72.7l-1,1-7.2-2.3,1-1Z"/>
      <g id="Group_5495" data-name="Group 5495" clip-path="url(#clip-path)">
        <g id="Group_5494" data-name="Group 5494" style="isolation: isolate">
          <g id="Group_5493" data-name="Group 5493" clip-path="url(#clip-path-7)">
            <path id="Path_24897" data-name="Path 24897" d="M67.3,56l-1,1L59,54.7l-2.3,2.4,5.5,1.8-1,1-5.5-1.7-3.2,3.4L50.6,61l7.6-7.9Z"/>
            <path id="Path_24898" data-name="Path 24898" d="M59.2,65.8l-1,1-7.3-2.3,1-1Z"/>
            <path id="Path_24899" data-name="Path 24899" d="M64.4,64l7.2,2.4-1,1-9.1-2.9,7.6-7.9,9,2.9-1,1-7.2-2.3Z"/>
            <path id="Path_24900" data-name="Path 24900" d="M53.1,69.7,47.6,68l-2.2,2.4-1.8-.6,5.5-5.9,1.8.6-2.3,2.4,5.5,1.8Z"/>
            <path id="Path_24901" data-name="Path 24901" d="M70,69.3l-.9,1L61.8,68l-2.3,2.4,7.3,2.3,2.3-2.4,1.8.6-2.3,2.4-1.8-.6-1,1.1,1.8.5-3.3,3.5-1.8-.6,2.3-2.4L63,74.2l1-1-5.5-1.8-3.2,3.5-1.9-.6L61,66.4Z"/>
          </g>
        </g>
      </g>
      <path id="Path_24902" data-name="Path 24902" d="M49,57.8l-1,1-1.8-.6,1-1Z"/>
      <path id="Path_24903" data-name="Path 24903" d="M48.3,62.3l-1,1.1-3.6-1.2-6.6,6.9-1.8-.6,6.5-6.9-3.6-1.2,1-1Z"/>
      <path id="Path_24904" data-name="Path 24904" d="M39.8,57.6l1-1.1,5.4,1.7-1,1.1Z"/>
      <path id="Path_24905" data-name="Path 24905" d="M39.9,54.9l1.9.6-1,1-1.9-.6Z"/>
      <path id="Path_24906" data-name="Path 24906" d="M.8,57.5l7.3,2.3,1-1L1.8,56.5Z"/>
      <path id="Path_24907" data-name="Path 24907" d="M0,55.9l1.8.6,6.6-6.9L6.5,49Z"/>
      <path id="Path_24908" data-name="Path 24908" d="M20,62.2l-1,1.1L11.7,61l1-1.1Z"/>
    </g>
  </g>
</svg>
