<svg xmlns="http://www.w3.org/2000/svg" xmlns:xlink="http://www.w3.org/1999/xlink" width="101.206" height="65.979" viewBox="0 0 101.206 65.979">
  <defs>
    <clipPath id="clip-path">
      <rect id="Rectangle_124604" data-name="Rectangle 124604" width="101.206" height="65.959" fill="none"/>
    </clipPath>
  </defs>
  <g id="Artwork_36" data-name="Artwork 36" transform="translate(50.603 32.989)">
    <g id="Group_5427" data-name="Group 5427" transform="translate(-50.603 -32.989)">
      <path id="Path_24076" data-name="Path 24076" d="M49.809,2.6l-.1,14.6L42.9,24.5V9.8Z" transform="translate(-1.153 -0.07)" fill="#00db96"/>
      <path id="Path_24077" data-name="Path 24077" d="M49.809,2.6l-.1,14.6L42.9,24.5V9.8Z" transform="translate(-1.153 -0.07)" fill="none" stroke="#000" stroke-linejoin="round" stroke-width="0.973"/>
      <path id="Path_24078" data-name="Path 24078" d="M100.549,9l-.1,14.6L98.7,25.446l.1-14.6Z" transform="translate(-2.652 -0.242)" fill="#fcf7eb"/>
      <path id="Path_24079" data-name="Path 24079" d="M100.549,9l-.1,14.6L98.7,25.446l.1-14.6Z" transform="translate(-2.652 -0.242)" fill="none" stroke="#000" stroke-linejoin="round" stroke-width="0.973"/>
      <path id="Path_24080" data-name="Path 24080" d="M77.225,11.246l-.1,14.694L70.9,23.9V9.3Z" transform="translate(-1.905 -0.25)" fill="#ff0d5b"/>
      <path id="Path_24081" data-name="Path 24081" d="M77.225,11.246l-.1,14.694L70.9,23.9V9.3Z" transform="translate(-1.905 -0.25)" fill="none" stroke="#000" stroke-linejoin="round" stroke-width="0.973"/>
      <path id="Path_24082" data-name="Path 24082" d="M32.608,11.574l-.1,14.6L18.4,21.694,18.5,7Z" transform="translate(-0.494 -0.188)" fill="#ff0d5b"/>
      <path id="Path_24083" data-name="Path 24083" d="M32.608,11.574l-.1,14.6L18.4,21.694,18.5,7Z" transform="translate(-0.494 -0.188)" fill="none" stroke="#000" stroke-linejoin="round" stroke-width="0.973"/>
      <path id="Path_24084" data-name="Path 24084" d="M101.952,11.9V26.5L100.2,28.346V13.652Z" transform="translate(-2.692 -0.32)" fill="#fcf7eb"/>
      <path id="Path_24085" data-name="Path 24085" d="M101.952,11.9V26.5L100.2,28.346V13.652Z" transform="translate(-2.692 -0.32)" fill="none" stroke="#000" stroke-linejoin="round" stroke-width="0.973"/>
      <path id="Path_24086" data-name="Path 24086" d="M93.357,13.952V11.617L83.917,8.6l-1.654,1.849-3.211-1.07L77.4,11.227l-.1,14.694,1.752-1.849,3.114.973,1.752-1.752,7.688,2.433v2.336l3.114.973.1-14.6Z" transform="translate(-2.077 -0.231)" fill="#ff0d5b"/>
      <path id="Path_24087" data-name="Path 24087" d="M93.357,13.952V11.617L83.917,8.6l-1.654,1.849-3.211-1.07L77.4,11.227l-.1,14.694,1.752-1.849,3.114.973,1.752-1.752,7.688,2.433v2.336l3.114.973.1-14.6Z" transform="translate(-2.077 -0.231)" fill="none" stroke="#000" stroke-linejoin="round" stroke-width="0.973"/>
      <path id="Path_24088" data-name="Path 24088" d="M57.306,14.6V29.294l-3.406,3.6V18.3Z" transform="translate(-1.448 -0.392)" fill="#00db96"/>
      <path id="Path_24089" data-name="Path 24089" d="M57.306,14.6V29.294l-3.406,3.6V18.3Z" transform="translate(-1.448 -0.392)" fill="none" stroke="#000" stroke-linejoin="round" stroke-width="0.973"/>
      <path id="Path_24090" data-name="Path 24090" d="M53.51,18.274v14.6L39.4,28.394V13.7Z" transform="translate(-1.059 -0.368)" fill="#ff0d5b"/>
      <path id="Path_24091" data-name="Path 24091" d="M53.51,18.274v14.6L39.4,28.394V13.7Z" transform="translate(-1.059 -0.368)" fill="none" stroke="#000" stroke-linejoin="round" stroke-width="0.973"/>
      <path id="Path_24092" data-name="Path 24092" d="M36.016,7.8,21.906,3.225,18.5,6.825,32.61,11.4,25.7,18.6l6.228,2.044,6.909-7.3,14.11,4.574,3.406-3.7L42.244,9.745l6.909-7.2L42.828.5Z" transform="translate(-0.497 -0.013)" fill="#fdfb76"/>
      <g id="Group_5424" data-name="Group 5424" clip-path="url(#clip-path)">
        <path id="Path_24093" data-name="Path 24093" d="M49.154,2.544l-6.909,7.2,14.11,4.476-3.406,3.7-14.11-4.574-6.909,7.3L25.7,18.6l6.909-7.2L18.5,6.825l3.406-3.6L36.016,7.8,42.828.5Z" transform="translate(-0.497 -0.013)" fill="none" stroke="#000" stroke-linejoin="round" stroke-width="0.973"/>
      </g>
      <path id="Path_24094" data-name="Path 24094" d="M39.209,13.7V28.394L32.3,35.6V21Z" transform="translate(-0.868 -0.368)" fill="#00db96"/>
      <path id="Path_24095" data-name="Path 24095" d="M39.209,13.7V28.394L32.3,35.6V21Z" transform="translate(-0.868 -0.368)" fill="none" stroke="#000" stroke-linejoin="round" stroke-width="0.973"/>
      <path id="Path_24096" data-name="Path 24096" d="M32.128,21.144v14.6L25.9,33.794V19.1Z" transform="translate(-0.696 -0.513)" fill="#ff0d5b"/>
      <path id="Path_24097" data-name="Path 24097" d="M32.128,21.144v14.6L25.9,33.794V19.1Z" transform="translate(-0.696 -0.513)" fill="none" stroke="#000" stroke-linejoin="round" stroke-width="0.973"/>
      <path id="Path_24098" data-name="Path 24098" d="M96.4,22V36.7l6.812-7.3.1-14.6Z" transform="translate(-2.59 -0.398)" fill="#00db96"/>
      <g id="Group_5425" data-name="Group 5425" clip-path="url(#clip-path)">
        <path id="Path_24099" data-name="Path 24099" d="M103.309,14.8l-.1,14.6L96.4,36.7V22Z" transform="translate(-2.59 -0.398)" fill="none" stroke="#000" stroke-linejoin="round" stroke-width="0.973"/>
      </g>
      <path id="Path_24100" data-name="Path 24100" d="M92.528,21.2l-1.752,1.752-3.114-.973-1.752,1.849L82.8,22.854l-1.752,1.752-3.114-.973L76.18,25.482l-3.114-1.07L71.411,26.26,68.2,25.287v14.6l3.114,1.07,1.752-1.849,3.114.973,1.752-1.752,3.114.973L82.7,37.451l3.211,1.07,1.752-1.849,3.114.973,1.654-1.752,3.211.973V22.173Z" transform="translate(-1.832 -0.57)" fill="#ff0d5b"/>
      <path id="Path_24101" data-name="Path 24101" d="M92.528,21.2l-1.752,1.752-3.114-.973-1.752,1.849L82.8,22.854l-1.752,1.752-3.114-.973L76.18,25.482l-3.114-1.07L71.411,26.26,68.2,25.287v14.6l3.114,1.07,1.752-1.849,3.114.973,1.752-1.752,3.114.973L82.7,37.451l3.211,1.07,1.752-1.849,3.114.973,1.654-1.752,3.211.973V22.173Z" transform="translate(-1.832 -0.57)" fill="none" stroke="#000" stroke-linejoin="round" stroke-width="0.973"/>
      <path id="Path_24102" data-name="Path 24102" d="M68.152,25.4V40L66.4,41.846l.1-14.694Z" transform="translate(-1.784 -0.682)" fill="#fcf7eb"/>
      <path id="Path_24103" data-name="Path 24103" d="M68.152,25.4V40L66.4,41.846l.1-14.694Z" transform="translate(-1.784 -0.682)" fill="none" stroke="#000" stroke-linejoin="round" stroke-width="0.973"/>
      <path id="Path_24104" data-name="Path 24104" d="M81.91,5.649,78.8,4.676,77.044,6.427,73.93,5.454l-3.5,3.7L76.753,11.1,78.407,9.25l3.211,1.07,1.654-1.849,9.439,3.017L90.96,13.239l3.211,1.07-3.5,3.6-3.114-.973L85.8,18.689l-3.114-.973-1.654,1.849-3.211-1.07-1.654,1.849-3.211-.973L71.3,21.122l-3.114-.973L66.437,22l-3.114-1.07-1.752,1.849L58.458,21.8,53.3,27.253l28.221,8.953,3.406-3.6L66.145,26.571,67.8,24.82l3.211.973,1.654-1.849,3.114,1.07,1.752-1.849,3.114.973L82.4,22.387l3.114.973,1.752-1.849,3.114.973,1.752-1.752,3.114.973,6.909-7.2-3.211-1.07,1.752-1.752-3.114-.973L99.329,8.86,83.564,3.8Z" transform="translate(-1.432 -0.102)" fill="#fdfb76"/>
      <g id="Group_5426" data-name="Group 5426" clip-path="url(#clip-path)">
        <path id="Path_24105" data-name="Path 24105" d="M99.329,8.86l-1.752,1.849,3.114.973L98.94,13.434l3.211,1.07-6.909,7.2-3.114-.973-1.752,1.752-3.114-.973L85.511,23.36,82.4,22.387l-1.752,1.752-3.114-.973-1.752,1.849-3.114-1.07-1.654,1.849L67.8,24.82l-1.654,1.752L84.927,32.6l-3.406,3.6L53.3,27.253l5.158-5.45,3.114.973,1.752-1.849L66.437,22l1.752-1.849,3.114.973,1.654-1.752,3.211.973,1.654-1.849,3.211,1.07,1.654-1.849,3.114.973,1.752-1.752,3.114.973,3.5-3.6-3.211-1.07,1.752-1.752L83.273,8.471,81.618,10.32,78.407,9.25,76.753,11.1,70.427,9.152l3.5-3.7,3.114.973L78.8,4.676l3.114.973L83.564,3.8Z" transform="translate(-1.432 -0.102)" fill="none" stroke="#000" stroke-linejoin="round" stroke-width="0.973"/>
      </g>
      <path id="Path_24106" data-name="Path 24106" d="M85.7,33.4V48.094l-3.5,3.6L82.3,37Z" transform="translate(-2.208 -0.897)" fill="#00db96"/>
      <path id="Path_24107" data-name="Path 24107" d="M85.7,33.4V48.094l-3.5,3.6L82.3,37Z" transform="translate(-2.208 -0.897)" fill="none" stroke="#000" stroke-linejoin="round" stroke-width="0.973"/>
      <path id="Path_24108" data-name="Path 24108" d="M81.518,36.853l-.1,14.694L53.2,42.5l.1-14.6Z" transform="translate(-1.429 -0.75)" fill="#ff0d5b"/>
      <path id="Path_24109" data-name="Path 24109" d="M81.518,36.853l-.1,14.694L53.2,42.5l.1-14.6Z" transform="translate(-1.429 -0.75)" fill="none" stroke="#000" stroke-linejoin="round" stroke-width="0.973"/>
      <path id="Path_24110" data-name="Path 24110" d="M25.782,42.338l-.973.973L17.9,41.17l.876-1.07Z" transform="translate(-0.481 -1.077)"/>
      <path id="Path_24111" data-name="Path 24111" d="M0,42.72l1.752.584L7.98,36.687,6.228,36.2Z" transform="translate(0 -0.973)"/>
      <path id="Path_24112" data-name="Path 24112" d="M.8,44.473l6.909,2.238.973-.973L1.773,43.5Z" transform="translate(-0.021 -1.169)"/>
      <path id="Path_24113" data-name="Path 24113" d="M19.75,46.147,14.593,44.4l-2.141,2.336L10.7,46.147,15.955,40.6l1.752.584-2.238,2.238,5.255,1.654Z" transform="translate(-0.287 -1.091)"/>
      <path id="Path_24114" data-name="Path 24114" d="M36.259,45.725l-.876.973-3.5-1.07-6.228,6.617L23.9,51.661l6.228-6.617-3.5-1.07L27.6,43Z" transform="translate(-0.642 -1.155)"/>
      <path id="Path_24115" data-name="Path 24115" d="M19.382,49.138l-.973.973L11.5,47.873l.973-.973Z" transform="translate(-0.309 -1.26)"/>
      <path id="Path_24116" data-name="Path 24116" d="M51.382,59.338l-.973.973L43.5,58.073l.973-.973Z" transform="translate(-1.169 -1.534)"/>
      <path id="Path_24117" data-name="Path 24117" d="M80.852,62.557,79.1,62.07,80.073,61l1.752.584Z" transform="translate(-2.125 -1.639)"/>
      <path id="Path_24118" data-name="Path 24118" d="M80.882,59.938l-.973.973L73,58.77l.876-1.07Z" transform="translate(-1.961 -1.55)"/>
      <path id="Path_24119" data-name="Path 24119" d="M71.141,58.2l1.752.584-2.238,2.238L69,60.438Z" transform="translate(-1.854 -1.564)"/>
      <path id="Path_24120" data-name="Path 24120" d="M70.676,61.1l6.909,2.238-.876.973L69.8,62.073Z" transform="translate(-1.875 -1.641)"/>
      <path id="Path_24121" data-name="Path 24121" d="M68.165,55.925,67.289,57l-7.007-2.238L58.141,57l6.909,2.238L67.289,57l1.654.487L66.8,59.817l-1.752-.584-.876.973,1.654.584L62.715,64.1l-1.654-.584L63.2,61.277l-1.752-.584.973-.973-5.255-1.654-3.114,3.211L52.4,60.79l7.1-7.59Z" transform="translate(-1.408 -1.429)"/>
      <path id="Path_24122" data-name="Path 24122" d="M74.7,66.736l1.654.487,2.238-2.238L76.841,64.4Z" transform="translate(-2.007 -1.73)"/>
      <path id="Path_24123" data-name="Path 24123" d="M66.6,65.473l6.909,2.238.973-.973L67.476,64.5Z" transform="translate(-1.789 -1.733)"/>
      <path id="Path_24124" data-name="Path 24124" d="M57.782,52.541l-.973,1.07L49.9,51.373l.973-.973Z" transform="translate(-1.341 -1.354)"/>
      <path id="Path_24125" data-name="Path 24125" d="M51.75,56.347l-5.158-1.654-2.141,2.238L42.7,56.347,47.955,50.8l1.752.584-2.238,2.238,5.255,1.654Z" transform="translate(-1.147 -1.365)"/>
      <path id="Path_24126" data-name="Path 24126" d="M46.959,49.125l-.973,1.07L42.58,49.027l-6.228,6.617L34.6,55.061l6.228-6.617-3.5-1.07L38.3,46.4Z" transform="translate(-0.93 -1.247)"/>
      <path id="Path_24127" data-name="Path 24127" d="M66.676,62.9l1.752.584-.973.973L65.8,63.873Z" transform="translate(-1.768 -1.69)"/>
    </g>
  </g>
</svg>
