<svg xmlns="http://www.w3.org/2000/svg" xmlns:xlink="http://www.w3.org/1999/xlink" width="84.008" height="86.346" viewBox="0 0 84.008 86.346">
  <defs>
    <clipPath id="clip-path">
      <rect id="Rectangle_133610" data-name="Rectangle 133610" width="70.297" height="73.332" fill="none"/>
    </clipPath>
  </defs>
  <g id="Artwork_24" data-name="Artwork 24" transform="matrix(0.978, 0.208, -0.208, 0.978, 42.004, 43.173)">
    <g id="Group_13939" data-name="Group 13939" transform="translate(-35.149 -36.666)" clip-path="url(#clip-path)">
      <path id="Path_73287" data-name="Path 73287" d="M24.141,32.8A23.641,23.641,0,1,1,.5,56.441,23.641,23.641,0,0,1,24.141,32.8" transform="translate(-0.11 -7.209)"/>
      <path id="Path_73288" data-name="Path 73288" d="M24.141,32.8A23.641,23.641,0,1,1,.5,56.441,23.641,23.641,0,0,1,24.141,32.8Z" transform="translate(-0.11 -7.209)" fill="none" stroke="#000" stroke-miterlimit="10" stroke-width="0.78"/>
      <path id="Path_73289" data-name="Path 73289" d="M25.318,27.8A23.641,23.641,0,1,1,8.524,34.724,23.641,23.641,0,0,1,25.318,27.8" transform="translate(-0.352 -6.11)" fill="#8e0bfa"/>
      <circle id="Ellipse_642" data-name="Ellipse 642" cx="23.641" cy="23.641" r="23.641" transform="translate(1.326 21.768)" fill="none" stroke="#000" stroke-miterlimit="10" stroke-width="0.78"/>
      <path id="Path_73290" data-name="Path 73290" d="M51.541,5.5A23.641,23.641,0,1,0,74.323,22.821a5.93,5.93,0,0,1-11-3.121c0-.936-4.759-5.227-4.759-8.27,0-1.56-4.057-5.93-7.1-5.93" transform="translate(-6.132 -1.209)"/>
      <path id="Path_73291" data-name="Path 73291" d="M51.541,5.5A23.641,23.641,0,1,0,74.323,22.821a5.93,5.93,0,0,1-11-3.121c0-.936-4.759-5.227-4.759-8.27C58.641,9.869,54.506,5.5,51.541,5.5Z" transform="translate(-6.132 -1.209)" fill="none" stroke="#000" stroke-miterlimit="10" stroke-width="0.78"/>
      <path id="Path_73292" data-name="Path 73292" d="M52.641.5A23.641,23.641,0,1,0,75.423,17.821a5.93,5.93,0,0,1-11-3.121,2.965,2.965,0,0,1,1.17-2.341c-2.965-.312-5.93-2.887-5.93-5.93a5.93,5.93,0,0,1,1.716-4.213A23.562,23.562,0,0,0,52.641.5" transform="translate(-6.374 -0.11)" fill="#8e0bfa"/>
      <path id="Path_73293" data-name="Path 73293" d="M52.641.5A23.641,23.641,0,1,0,75.423,17.821a5.93,5.93,0,0,1-11-3.121,2.965,2.965,0,0,1,1.17-2.341c-2.965-.312-5.93-2.887-5.93-5.93a5.93,5.93,0,0,1,1.716-4.213A23.562,23.562,0,0,0,52.641.5Z" transform="translate(-6.374 -0.11)" fill="none" stroke="#000" stroke-miterlimit="10" stroke-width="0.78"/>
      <path id="Path_73294" data-name="Path 73294" d="M54.063,31.455a1.17,1.17,0,0,1-.858-.312l-1.17-1.17a1.17,1.17,0,0,1,1.638-1.638l1.17,1.17a1.17,1.17,0,0,1-.858,2.029" transform="translate(-11.385 -6.176)" fill="#fdfb76"/>
      <path id="Path_73295" data-name="Path 73295" d="M54.063,31.455a1.17,1.17,0,0,1-.858-.312l-1.17-1.17a1.17,1.17,0,0,1,1.638-1.638l1.17,1.17a1.17,1.17,0,0,1-.858,2.029Z" transform="translate(-11.385 -6.176)" fill="none" stroke="#000" stroke-miterlimit="10" stroke-width="0.78"/>
      <path id="Path_73296" data-name="Path 73296" d="M36.152,28.333a1.17,1.17,0,0,1-.858-2.029l1.248-1.17a1.17,1.17,0,0,1,1.638,1.638l-1.17,1.17a1.17,1.17,0,0,1-.858.312" transform="translate(-7.674 -5.473)" fill="#fdfb76"/>
      <path id="Path_73297" data-name="Path 73297" d="M36.152,28.333a1.17,1.17,0,0,1-.858-2.029l1.248-1.17a1.17,1.17,0,0,1,1.638,1.638l-1.17,1.17a1.17,1.17,0,0,1-.858.39Z" transform="translate(-7.674 -5.473)" fill="none" stroke="#000" stroke-miterlimit="10" stroke-width="0.78"/>
      <path id="Path_73298" data-name="Path 73298" d="M78.363,35.955a1.17,1.17,0,0,1-.858-.312l-1.17-1.17a1.17,1.17,0,0,1,1.638-1.638L79.143,34a1.17,1.17,0,0,1-.78,1.951" transform="translate(-16.726 -7.165)" fill="#fdfb76"/>
      <path id="Path_73299" data-name="Path 73299" d="M78.363,35.955a1.17,1.17,0,0,1-.858-.312l-1.17-1.17a1.17,1.17,0,0,1,1.638-1.638L79.143,34a1.17,1.17,0,0,1-.78,1.951Z" transform="translate(-16.726 -7.165)" fill="none" stroke="#000" stroke-miterlimit="10" stroke-width="0.78"/>
      <path id="Path_73300" data-name="Path 73300" d="M66.552,25.333a1.17,1.17,0,0,1-.858-2.029l1.17-1.17A1.17,1.17,0,0,1,68.5,23.773l-1.17,1.17a1.17,1.17,0,0,1-.858.312" transform="translate(-14.356 -4.813)" fill="#fdfb76"/>
      <path id="Path_73301" data-name="Path 73301" d="M66.552,25.333a1.17,1.17,0,0,1-.858-2.029l1.17-1.17A1.17,1.17,0,0,1,68.5,23.773l-1.17,1.17a1.17,1.17,0,0,1-.78.39Z" transform="translate(-14.356 -4.813)" fill="none" stroke="#000" stroke-miterlimit="10" stroke-width="0.78"/>
      <path id="Path_73302" data-name="Path 73302" d="M54.352,45.033A1.17,1.17,0,0,1,53.494,43l1.17-1.17A1.17,1.17,0,0,1,56.3,43.473l-1.17,1.17a1.17,1.17,0,0,1-.858.312" transform="translate(-11.674 -9.143)" fill="#fdfb76"/>
      <path id="Path_73303" data-name="Path 73303" d="M54.352,45.033A1.17,1.17,0,0,1,53.494,43l1.17-1.17A1.17,1.17,0,0,1,56.3,43.473l-1.17,1.17a1.17,1.17,0,0,1-.78.39Z" transform="translate(-11.674 -9.143)" fill="none" stroke="#000" stroke-miterlimit="10" stroke-width="0.78"/>
      <path id="Path_73304" data-name="Path 73304" d="M60.136,7.1a1.17,1.17,0,0,1-.858-.312l-1.17-1.248A1.186,1.186,0,1,1,59.824,3.9l1.17,1.17A1.17,1.17,0,0,1,60.136,7.1" transform="translate(-12.699 -0.776)" fill="#fdfb76"/>
      <path id="Path_73305" data-name="Path 73305" d="M60.136,7.1a1.17,1.17,0,0,1-.858-.312l-1.17-1.248A1.186,1.186,0,1,1,59.824,3.9l1.17,1.17A1.17,1.17,0,0,1,60.136,7.1Z" transform="translate(-12.699 -0.776)" fill="none" stroke="#000" stroke-miterlimit="10" stroke-width="0.78"/>
      <path id="Path_73306" data-name="Path 73306" d="M66.225,54.106a1.17,1.17,0,0,1-.858-.312l-1.17-1.17a1.186,1.186,0,0,1,1.638-1.716l1.17,1.17a1.17,1.17,0,0,1-.858,2.029" transform="translate(-14.029 -11.117)" fill="#fdfb76"/>
      <path id="Path_73307" data-name="Path 73307" d="M66.225,54.106a1.17,1.17,0,0,1-.858-.312l-1.17-1.17a1.186,1.186,0,0,1,1.638-1.716l1.17,1.17a1.17,1.17,0,0,1-.858,2.029Z" transform="translate(-14.029 -11.117)" fill="none" stroke="#000" stroke-miterlimit="10" stroke-width="0.78"/>
      <path id="Path_73308" data-name="Path 73308" d="M22.2,38.889a1.17,1.17,0,0,1-.858-.312l-1.17-1.17a1.17,1.17,0,1,1,1.638-1.638l1.17,1.17a1.17,1.17,0,0,1-.858,2.029" transform="translate(-4.33 -7.758)" fill="#fdfb76"/>
      <path id="Path_73309" data-name="Path 73309" d="M22.2,38.889a1.17,1.17,0,0,1-.858-.312l-1.17-1.17a1.17,1.17,0,1,1,1.638-1.638l1.17,1.17a1.17,1.17,0,0,1-.858,2.029Z" transform="translate(-4.33 -7.758)" fill="none" stroke="#000" stroke-miterlimit="10" stroke-width="0.78"/>
      <path id="Path_73310" data-name="Path 73310" d="M21.052,63.233a1.17,1.17,0,0,1-.858-2.029l1.17-1.17A1.17,1.17,0,0,1,23,61.673l-1.17,1.17a1.17,1.17,0,0,1-.858.312" transform="translate(-4.356 -13.143)" fill="#fdfb76"/>
      <path id="Path_73311" data-name="Path 73311" d="M21.052,63.233a1.17,1.17,0,0,1-.858-2.029l1.17-1.17A1.17,1.17,0,0,1,23,61.673l-1.17,1.17A1.17,1.17,0,0,1,21.052,63.233Z" transform="translate(-4.356 -13.143)" fill="none" stroke="#000" stroke-miterlimit="10" stroke-width="0.78"/>
      <path id="Path_73312" data-name="Path 73312" d="M22.2,79.889a1.17,1.17,0,0,1-.858-.312l-1.17-1.17a1.17,1.17,0,1,1,1.638-1.638l1.17,1.17a1.17,1.17,0,0,1-.858,2.029" transform="translate(-4.33 -16.77)" fill="#fdfb76"/>
      <path id="Path_73313" data-name="Path 73313" d="M22.2,79.889a1.17,1.17,0,0,1-.858-.312l-1.17-1.17a1.17,1.17,0,1,1,1.638-1.638l1.17,1.17a1.17,1.17,0,0,1-.858,2.029Z" transform="translate(-4.33 -16.77)" fill="none" stroke="#000" stroke-miterlimit="10" stroke-width="0.78"/>
      <path id="Path_73314" data-name="Path 73314" d="M40.774,64.755a1.17,1.17,0,0,1-.858-1.951l1.17-1.17a1.17,1.17,0,0,1,1.638,1.638l-1.17,1.17a1.17,1.17,0,0,1-.858.312" transform="translate(-8.707 -13.495)" fill="#fdfb76"/>
      <path id="Path_73315" data-name="Path 73315" d="M40.774,64.755a1.17,1.17,0,0,1-.858-1.951l1.17-1.17a1.17,1.17,0,0,1,1.638,1.638l-1.17,1.17a1.17,1.17,0,0,1-.78.312Z" transform="translate(-8.707 -13.495)" fill="none" stroke="#000" stroke-miterlimit="10" stroke-width="0.78"/>
      <path id="Path_73316" data-name="Path 73316" d="M31.363,55.655a1.17,1.17,0,0,1-.858-.312l-1.17-1.17a1.17,1.17,0,0,1,1.638-1.638l1.248,1.092a1.17,1.17,0,0,1-.858,2.029" transform="translate(-6.396 -11.495)" fill="#fdfb76"/>
      <path id="Path_73317" data-name="Path 73317" d="M31.363,55.655a1.17,1.17,0,0,1-.858-.312l-1.17-1.17a1.17,1.17,0,0,1,1.638-1.638l1.248,1.092a1.17,1.17,0,0,1-.858,2.029Z" transform="translate(-6.396 -11.495)" fill="none" stroke="#000" stroke-miterlimit="10" stroke-width="0.78"/>
      <path id="Path_73318" data-name="Path 73318" d="M34.652,81.367a1.17,1.17,0,0,1-.858-2.029l1.17-1.17A1.17,1.17,0,1,1,36.6,79.807L35.51,81.055a1.17,1.17,0,0,1-.858.312" transform="translate(-7.345 -17.077)" fill="#fdfb76"/>
      <path id="Path_73319" data-name="Path 73319" d="M34.652,81.367a1.17,1.17,0,0,1-.858-2.029l1.17-1.17A1.17,1.17,0,1,1,36.6,79.807L35.51,81.055A1.17,1.17,0,0,1,34.652,81.367Z" transform="translate(-7.345 -17.077)" fill="none" stroke="#000" stroke-miterlimit="10" stroke-width="0.78"/>
      <path id="Path_73320" data-name="Path 73320" d="M7.352,58.733A1.17,1.17,0,0,1,6.494,56.7l1.17-1.17A1.17,1.17,0,0,1,9.3,57.173L8.21,58.343a1.17,1.17,0,0,1-.858.312" transform="translate(-1.344 -12.154)" fill="#fdfb76"/>
      <path id="Path_73321" data-name="Path 73321" d="M7.352,58.733A1.17,1.17,0,0,1,6.494,56.7l1.17-1.17A1.17,1.17,0,0,1,9.3,57.173L8.21,58.343a1.17,1.17,0,0,1-.858.39Z" transform="translate(-1.344 -12.154)" fill="none" stroke="#000" stroke-miterlimit="10" stroke-width="0.78"/>
      <path id="Path_73322" data-name="Path 73322" d="M52.189,12.6A3.589,3.589,0,1,1,48.6,16.189,3.589,3.589,0,0,1,52.189,12.6" transform="translate(-10.682 -2.769)" fill="#ff3c1d"/>
      <circle id="Ellipse_643" data-name="Ellipse 643" cx="3.589" cy="3.589" r="3.589" transform="translate(37.918 9.831)" fill="none" stroke="#000" stroke-miterlimit="10" stroke-width="0.78"/>
      <path id="Path_73323" data-name="Path 73323" d="M41.941,38.4A2.341,2.341,0,1,1,39.6,40.741,2.341,2.341,0,0,1,41.941,38.4" transform="translate(-8.703 -8.44)" fill="#ff3c1d"/>
      <path id="Path_73324" data-name="Path 73324" d="M41.941,38.4A2.341,2.341,0,1,1,39.6,40.741,2.341,2.341,0,0,1,41.941,38.4Z" transform="translate(-8.703 -8.44)" fill="none" stroke="#000" stroke-miterlimit="10" stroke-width="0.78"/>
      <path id="Path_73325" data-name="Path 73325" d="M67.389,36.9A3.589,3.589,0,1,1,63.8,40.489,3.589,3.589,0,0,1,67.389,36.9" transform="translate(-14.022 -8.11)" fill="#ff3c1d"/>
      <path id="Path_73326" data-name="Path 73326" d="M67.389,36.9A3.589,3.589,0,1,1,63.8,40.489,3.589,3.589,0,0,1,67.389,36.9Z" transform="translate(-14.022 -8.11)" fill="none" stroke="#000" stroke-miterlimit="10" stroke-width="0.78"/>
      <path id="Path_73327" data-name="Path 73327" d="M17.289,46A3.589,3.589,0,1,1,13.7,49.589,3.589,3.589,0,0,1,17.289,46" transform="translate(-3.011 -10.11)" fill="#ff3c1d"/>
      <path id="Path_73328" data-name="Path 73328" d="M17.289,46A3.589,3.589,0,1,1,13.7,49.589,3.589,3.589,0,0,1,17.289,46Z" transform="translate(-3.011 -10.11)" fill="none" stroke="#000" stroke-miterlimit="10" stroke-width="0.78"/>
      <path id="Path_73329" data-name="Path 73329" d="M29.489,64.2A3.589,3.589,0,1,1,25.9,67.789,3.589,3.589,0,0,1,29.489,64.2" transform="translate(-5.692 -14.11)" fill="#ff3c1d"/>
      <circle id="Ellipse_644" data-name="Ellipse 644" cx="3.589" cy="3.589" r="3.589" transform="translate(20.208 50.09)" fill="none" stroke="#000" stroke-miterlimit="10" stroke-width="0.78"/>
      <path id="Path_73330" data-name="Path 73330" d="M48.859,67.3A4.759,4.759,0,1,1,44.1,72.059,4.759,4.759,0,0,1,48.859,67.3" transform="translate(-9.693 -14.792)" fill="#ff3c1d"/>
      <path id="Path_73331" data-name="Path 73331" d="M48.859,67.3A4.759,4.759,0,1,1,44.1,72.059,4.759,4.759,0,0,1,48.859,67.3Z" transform="translate(-9.693 -14.792)" fill="none" stroke="#000" stroke-miterlimit="10" stroke-width="0.78"/>
      <path id="Path_73332" data-name="Path 73332" d="M12.838,71.991a4.759,4.759,0,0,1-3.979,4.681A23.719,23.719,0,0,1,4.1,69.494a4.759,4.759,0,0,1,8.738,2.5" transform="translate(-0.901 -14.801)" fill="#ff3c1d"/>
      <path id="Path_73333" data-name="Path 73333" d="M12.838,71.991a4.759,4.759,0,0,1-3.979,4.681A23.719,23.719,0,0,1,4.1,69.494a4.759,4.759,0,0,1,8.738,2.5Z" transform="translate(-0.901 -14.801)" fill="none" stroke="#000" stroke-miterlimit="10" stroke-width="0.78"/>
      <path id="Path_73334" data-name="Path 73334" d="M54.32,57.338a3.511,3.511,0,0,1-.7,2.185,23.484,23.484,0,0,1-6.32-1.794,3.352,3.352,0,0,1,0-.39,3.589,3.589,0,0,1,7.1,0" transform="translate(-10.394 -11.929)" fill="#ff3c1d"/>
      <path id="Path_73335" data-name="Path 73335" d="M54.32,57.338a3.511,3.511,0,0,1-.7,2.185,23.484,23.484,0,0,1-6.32-1.794,3.352,3.352,0,0,1,0-.39,3.589,3.589,0,0,1,7.1,0Z" transform="translate(-10.394 -11.929)" fill="none" stroke="#000" stroke-miterlimit="10" stroke-width="0.78"/>
      <path id="Path_73336" data-name="Path 73336" d="M52.694,18.757A3.589,3.589,0,0,1,49.1,15.168a3.354,3.354,0,0,1,.078-.468,3.511,3.511,0,1,0,6.554,2.263,3.511,3.511,0,0,1-3.043,1.716" transform="translate(-10.718 -3.231)"/>
      <path id="Path_73337" data-name="Path 73337" d="M52.694,18.757A3.589,3.589,0,0,1,49.1,15.168a3.354,3.354,0,0,1,.078-.468,3.511,3.511,0,1,0,6.554,2.263,3.511,3.511,0,0,1-3.043,1.794Z" transform="translate(-10.718 -3.231)" fill="none" stroke="#000" stroke-linecap="round" stroke-linejoin="round" stroke-width="0.78"/>
      <path id="Path_73338" data-name="Path 73338" d="M42.409,42.041A2.341,2.341,0,0,1,40.068,39.7h0a2.341,2.341,0,1,0,4.213,1.4,2.341,2.341,0,0,1-1.873.936" transform="translate(-8.703 -8.725)"/>
      <path id="Path_73339" data-name="Path 73339" d="M42.409,42.041A2.341,2.341,0,0,1,40.068,39.7h0a2.341,2.341,0,1,0,4.213,1.4,2.341,2.341,0,0,1-1.873.936Z" transform="translate(-8.703 -8.725)" fill="none" stroke="#000" stroke-linecap="round" stroke-linejoin="round" stroke-width="0.78"/>
      <path id="Path_73340" data-name="Path 73340" d="M67.894,43.079A3.589,3.589,0,0,1,64.3,39.49a3.351,3.351,0,0,1,.078-.39,3.511,3.511,0,1,0,6.554,2.263,3.511,3.511,0,0,1-3.043,1.716" transform="translate(-14.059 -8.594)"/>
      <path id="Path_73341" data-name="Path 73341" d="M67.894,43.079A3.589,3.589,0,0,1,64.3,39.49a3.351,3.351,0,0,1,.078-.39,3.511,3.511,0,1,0,6.554,2.263,3.511,3.511,0,0,1-3.043,1.716Z" transform="translate(-14.059 -8.594)" fill="none" stroke="#000" stroke-linecap="round" stroke-linejoin="round" stroke-width="0.78"/>
      <path id="Path_73342" data-name="Path 73342" d="M17.794,52.179A3.433,3.433,0,0,1,14.283,48.2a3.511,3.511,0,1,0,6.554,2.263,3.511,3.511,0,0,1-3.043,1.716" transform="translate(-3.048 -10.594)"/>
      <path id="Path_73343" data-name="Path 73343" d="M17.794,52.179A3.433,3.433,0,0,1,14.283,48.2a3.511,3.511,0,1,0,6.554,2.263A3.511,3.511,0,0,1,17.794,52.179Z" transform="translate(-3.048 -10.594)" fill="none" stroke="#000" stroke-linecap="round" stroke-linejoin="round" stroke-width="0.78"/>
      <path id="Path_73344" data-name="Path 73344" d="M29.989,70.4A3.589,3.589,0,0,1,26.4,66.889a3.356,3.356,0,0,1,.078-.389,3.511,3.511,0,1,0,6.554,2.185A3.511,3.511,0,0,1,29.989,70.4" transform="translate(-5.724 -14.616)"/>
      <path id="Path_73345" data-name="Path 73345" d="M29.989,70.4A3.589,3.589,0,0,1,26.4,66.889a3.356,3.356,0,0,1,.078-.389,3.511,3.511,0,1,0,6.554,2.185A3.511,3.511,0,0,1,29.989,70.4Z" transform="translate(-5.724 -14.616)" fill="none" stroke="#000" stroke-linecap="round" stroke-linejoin="round" stroke-width="0.78"/>
      <path id="Path_73346" data-name="Path 73346" d="M49.3,76.04a4.681,4.681,0,0,1-4.681-5.54,4.759,4.759,0,1,0,8.816,3.043,4.759,4.759,0,0,1-4.135,2.5" transform="translate(-9.66 -15.495)"/>
      <path id="Path_73347" data-name="Path 73347" d="M49.3,76.04a4.681,4.681,0,0,1-4.681-5.54,4.759,4.759,0,1,0,8.816,3.043,4.759,4.759,0,0,1-4.135,2.5Z" transform="translate(-9.66 -15.495)" fill="none" stroke="#000" stroke-linecap="round" stroke-linejoin="round" stroke-width="0.78"/>
      <path id="Path_73348" data-name="Path 73348" d="M9.405,75.632A23.718,23.718,0,0,1,4.8,69l-.7.858a23.718,23.718,0,0,0,4.759,7.178,4.759,4.759,0,0,0,3.9-3.9,4.759,4.759,0,0,1-3.355,2.5" transform="translate(-0.901 -15.165)"/>
      <path id="Path_73349" data-name="Path 73349" d="M9.405,75.632A23.718,23.718,0,0,1,4.8,69l-.7.858a23.718,23.718,0,0,0,4.759,7.178,4.759,4.759,0,0,0,3.9-3.9,4.759,4.759,0,0,1-3.355,2.5Z" transform="translate(-0.901 -15.165)" fill="none" stroke="#000" stroke-linecap="round" stroke-linejoin="round" stroke-width="0.78"/>
      <path id="Path_73350" data-name="Path 73350" d="M53.986,58.375a23.406,23.406,0,0,1-6.32-1.794,3.591,3.591,0,0,1,0-.39,3.512,3.512,0,0,1,.078-.39,3.511,3.511,0,0,0-.546,1.873,3.355,3.355,0,0,0,0,.39,23.485,23.485,0,0,0,6.32,1.794,3.511,3.511,0,0,0,.7-1.716l-.234.312" transform="translate(-10.372 -12.264)"/>
      <path id="Path_73351" data-name="Path 73351" d="M53.986,58.375a23.406,23.406,0,0,1-6.32-1.794,3.591,3.591,0,0,1,0-.39,3.512,3.512,0,0,1,.078-.39,3.511,3.511,0,0,0-.546,1.873,3.355,3.355,0,0,0,0,.39,23.485,23.485,0,0,0,6.32,1.794,3.511,3.511,0,0,0,.7-1.716Z" transform="translate(-10.372 -12.264)" fill="none" stroke="#000" stroke-linecap="round" stroke-linejoin="round" stroke-width="0.78"/>
    </g>
  </g>
</svg>
