<svg xmlns="http://www.w3.org/2000/svg" xmlns:xlink="http://www.w3.org/1999/xlink" width="674.565" height="650.914" viewBox="0 0 674.565 650.914">
  <defs>
    <clipPath id="clip-path">
      <path id="Path_79748" data-name="Path 79748" d="M0,0H674.565V650.914H0V0Z" transform="translate(13072.284 15021.035)" fill="#fdfb76" stroke="#000" stroke-width="1"/>
    </clipPath>
    <clipPath id="clip-path-2">
      <rect id="Rectangle_128220" data-name="Rectangle 128220" width="203.325" height="178.595" fill="none"/>
    </clipPath>
    <clipPath id="clip-path-3">
      <rect id="Rectangle_128202" data-name="Rectangle 128202" width="145.144" height="138.794" fill="none"/>
    </clipPath>
    <clipPath id="clip-path-5">
      <rect id="Rectangle_137352" data-name="Rectangle 137352" width="186.787" height="206.04" fill="none"/>
    </clipPath>
  </defs>
  <g id="Mask_Group_17" data-name="Mask Group 17" transform="translate(-13072.284 -15021.035)" clip-path="url(#clip-path)">
    <g id="Group_14403" data-name="Group 14403" transform="translate(13915.182 14940.038)">
      <g id="Artwork_42" data-name="Artwork 42" transform="translate(-347.415 56.962)">
        <g id="Group_7189" data-name="Group 7189" transform="translate(0 0)" clip-path="url(#clip-path-2)">
          <path id="Path_40932" data-name="Path 40932" d="M54.9,36.7a36.173,36.173,0,1,1,45.157,34.991V176.665H81.85V71.693A36.173,36.173,0,0,1,54.9,36.7m49.649,0A13.476,13.476,0,0,0,91.071,23.226H88.234a13.476,13.476,0,1,0,16.313,13.24" transform="translate(-53.716 0.653)" fill="#00db96"/>
          <path id="Path_40933" data-name="Path 40933" d="M54.9,36.7a36.173,36.173,0,1,1,45.157,34.991V176.665H81.85V71.693A36.173,36.173,0,0,1,54.9,36.7Zm49.649,0A13.476,13.476,0,0,0,91.071,23.226H88.234a13.476,13.476,0,1,0,16.313,13.24Z" transform="translate(-53.716 0.653)" fill="none" stroke="#000" stroke-miterlimit="10" stroke-width="0.767"/>
          <path id="Path_40934" data-name="Path 40934" d="M7.1,93.96H109.708V51.4A51.3,51.3,0,0,0,7.1,51.4ZM93.631,78.12H22.94V51.4a35.464,35.464,0,0,1,70.691,0Z" transform="translate(76.831 0.136)"/>
          <path id="Path_40935" data-name="Path 40935" d="M11.376,126.178H124.386A10.875,10.875,0,0,0,135.262,115.3V44.375A10.875,10.875,0,0,0,124.386,33.5H11.376A10.876,10.876,0,0,0,.5,44.375V115.3a10.876,10.876,0,0,0,10.876,10.876" transform="translate(66.881 45.702)" fill="#8e24fa"/>
          <rect id="Rectangle_128219" data-name="Rectangle 128219" width="134.525" height="92.442" rx="3.53" transform="translate(67.617 79.438)" fill="none" stroke="#000" stroke-miterlimit="10" stroke-width="0.767"/>
          <path id="Path_40936" data-name="Path 40936" d="M55.476,33.6H75.1A10.876,10.876,0,0,0,64.223,44.475V115.4A10.875,10.875,0,0,0,75.1,126.278H55.476A10.875,10.875,0,0,1,44.6,115.4V44.475A10.875,10.875,0,0,1,55.476,33.6" transform="translate(22.781 45.838)"/>
          <path id="Path_40937" data-name="Path 40937" d="M55.476,33.6H75.1A10.876,10.876,0,0,0,64.223,44.475V115.4A10.875,10.875,0,0,0,75.1,126.278H55.476A10.875,10.875,0,0,1,44.6,115.4V44.475A10.875,10.875,0,0,1,55.475,33.6Z" transform="translate(22.781 45.838)" fill="none" stroke="#000" stroke-miterlimit="10" stroke-width="0.767"/>
          <path id="Path_40938" data-name="Path 40938" d="M40.65,68.025V82.21a4.965,4.965,0,1,1-9.93,0V68.025a11.585,11.585,0,1,1,9.93,0" transform="translate(99.076 62.718)"/>
          <path id="Path_40939" data-name="Path 40939" d="M40.65,68.025V82.21a4.965,4.965,0,1,1-9.93,0V68.025a11.585,11.585,0,1,1,9.93,0Z" transform="translate(99.076 62.718)" fill="none" stroke="#000" stroke-miterlimit="10" stroke-width="0.767"/>
          <path id="Path_40940" data-name="Path 40940" d="M70.2,66.4V48.436l36.173-.236v54.378H70.2V84.609h8.984V66.4Z" transform="translate(-69.018 65.756)" fill="#ff3c1d"/>
          <path id="Path_40941" data-name="Path 40941" d="M70.2,66.4V48.436l36.173-.236v54.378H70.2V84.609h8.984V66.4Z" transform="translate(-69.018 65.756)" fill="none" stroke="#000" stroke-miterlimit="10" stroke-width="0.767"/>
          <path id="Path_40942" data-name="Path 40942" d="M70.2,66.4V48.436l36.173-.236-26.952.236V66.4H88.4v18.2H79.42v17.968H70.2V84.609h8.984V66.4Z" transform="translate(-69.018 65.756)"/>
          <path id="Path_40943" data-name="Path 40943" d="M70.2,66.4V48.436l36.173-.236-26.952.236V66.4H88.4v18.2H79.42v17.968H70.2V84.609h8.984V66.4Z" transform="translate(-69.018 65.756)" fill="none" stroke="#000" stroke-miterlimit="10" stroke-width="0.767"/>
          <path id="Path_40944" data-name="Path 40944" d="M68.2,36.673A36.173,36.173,0,0,1,104.373.5H109.1a36.173,36.173,0,0,0-4.492,70.691V176.636H95.389V71.664A36.173,36.173,0,0,1,68.2,36.673" transform="translate(-67.018 0.682)"/>
          <path id="Path_40945" data-name="Path 40945" d="M68.2,36.673A36.173,36.173,0,0,1,104.373.5H109.1a36.173,36.173,0,0,0-4.492,70.691V176.636H95.389V71.664A36.173,36.173,0,0,1,68.2,36.673Z" transform="translate(-67.018 0.682)" fill="none" stroke="#000" stroke-linejoin="round" stroke-width="0.767"/>
        </g>
      </g>
      <g id="Artwork_41" data-name="Artwork 41" transform="translate(-584.919 323.892)">
        <g id="Group_7173" data-name="Group 7173" transform="translate(311.47 270.832)">
          <g id="Group_7172" data-name="Group 7172" clip-path="url(#clip-path-3)">
            <g id="Group_7171" data-name="Group 7171">
              <g id="Group_7170" data-name="Group 7170" clip-path="url(#clip-path-3)">
                <path id="Path_40621" data-name="Path 40621" d="M395.4,271.332h-8.661l7.7,76.972-7.7-7.7v43.3H395.4a8.685,8.685,0,0,0,8.659-8.659V279.991a8.685,8.685,0,0,0-8.659-8.659" transform="translate(-259.761 -270.489)"/>
                <path id="Path_40622" data-name="Path 40622" d="M395.4,271.332h-8.661l7.7,76.972-7.7-7.7v43.3H395.4a8.685,8.685,0,0,0,8.659-8.659V279.991A8.685,8.685,0,0,0,395.4,271.332Z" transform="translate(-259.761 -270.489)" fill="none" stroke="#000" stroke-miterlimit="10" stroke-width="1"/>
                <path id="Path_40623" data-name="Path 40623" d="M373.882,338.063l-24.287,8.659-.919,3.219a12.187,12.187,0,0,1-11.039,8.327v2.164H388Z" transform="translate(-293.495 -224.648)" fill="#fa391c"/>
                <path id="Path_40624" data-name="Path 40624" d="M373.882,338.063l-24.287,8.659-.919,3.219a12.187,12.187,0,0,1-11.039,8.327v2.164H388Z" transform="translate(-293.495 -224.648)" fill="none" stroke="#000" stroke-miterlimit="10" stroke-width="1"/>
                <path id="Path_40625" data-name="Path 40625" d="M378.591,353.467,375.2,341.589l-14-8.659-14,8.659-2.475,8.659h24.287l.921,3.219a12.183,12.183,0,0,0,11.038,8.327l4.33,2.164,4.329-2.164a12.183,12.183,0,0,1-11.038-8.327" transform="translate(-288.626 -228.174)"/>
                <path id="Path_40626" data-name="Path 40626" d="M378.591,353.467,375.2,341.589l-14-8.659-14,8.659-2.475,8.659h24.287l.921,3.219a12.183,12.183,0,0,0,11.038,8.327l4.33,2.164,4.329-2.164A12.183,12.183,0,0,1,378.591,353.467Z" transform="translate(-288.626 -228.174)" fill="none" stroke="#000" stroke-miterlimit="10" stroke-width="1"/>
                <path id="Path_40627" data-name="Path 40627" d="M311.97,354.088a8.685,8.685,0,0,0,8.659,8.659H438.107a8.685,8.685,0,0,0,8.661-8.659V302.131l-134.8,34.638Z" transform="translate(-311.126 -249.331)" fill="#fa391c"/>
                <path id="Path_40628" data-name="Path 40628" d="M311.97,354.088a8.685,8.685,0,0,0,8.659,8.659H438.107a8.685,8.685,0,0,0,8.661-8.659V302.131l-134.8,34.638Z" transform="translate(-311.126 -249.331)" fill="none" stroke="#000" stroke-miterlimit="10" stroke-width="1"/>
                <path id="Path_40629" data-name="Path 40629" d="M446.768,279.991a8.686,8.686,0,0,0-8.661-8.659H320.629a8.684,8.684,0,0,0-8.659,8.659v77.936h134.8v-8.661L383.7,314.624Z" transform="translate(-311.126 -270.489)" fill="#701793"/>
                <path id="Path_40630" data-name="Path 40630" d="M446.768,279.991a8.686,8.686,0,0,0-8.661-8.659H320.629a8.684,8.684,0,0,0-8.659,8.659v77.936h134.8v-8.661L383.7,314.624Z" transform="translate(-311.126 -270.489)" fill="none" stroke="#000" stroke-miterlimit="10" stroke-width="1"/>
                <path id="Path_40631" data-name="Path 40631" d="M443.242,276.466l-8.659-.005-.008.005-117.447-.005c-.007,0-.013,69.28-.024,69.281l117.469,0,.008,0,8.659,0,0-69.271" transform="translate(-307.6 -266.965)" fill="#1fb384"/>
                <path id="Path_40632" data-name="Path 40632" d="M443.242,276.466l-8.659-.005-.008.005-117.447-.005c-.007,0-.013,69.28-.024,69.281l117.469,0,.008,0,8.659,0Z" transform="translate(-307.6 -266.965)" fill="none" stroke="#000" stroke-miterlimit="10" stroke-width="1"/>
                <path id="Path_40633" data-name="Path 40633" d="M356.253,327.8a4.33,4.33,0,1,1-4.329,4.33,4.329,4.329,0,0,1,4.329-4.33" transform="translate(-283.68 -231.7)"/>
                <path id="Path_40634" data-name="Path 40634" d="M356.253,327.8a4.33,4.33,0,1,1-4.329,4.33A4.329,4.329,0,0,1,356.253,327.8Z" transform="translate(-283.68 -231.7)" fill="none" stroke="#000" stroke-miterlimit="10" stroke-width="1"/>
                <path id="Path_40635" data-name="Path 40635" d="M418.33,354.37H328.849a2.165,2.165,0,0,1,0-4.33H418.33a2.165,2.165,0,0,1,0,4.33" transform="translate(-301.018 -216.42)"/>
                <path id="Path_40636" data-name="Path 40636" d="M418.33,354.37H328.849a2.165,2.165,0,0,1,0-4.33H418.33a2.165,2.165,0,0,1,0,4.33Z" transform="translate(-301.018 -216.42)" fill="none" stroke="#000" stroke-miterlimit="10" stroke-width="1"/>
                <path id="Path_40637" data-name="Path 40637" d="M367.452,333.517l-2.409,1.265a1.315,1.315,0,0,1-1.232,0l-2.411-1.265c-13.231-6.954-21.377-19.786-21.377-33.67v-8.482a1.315,1.315,0,0,1,1.169-1.314,9.611,9.611,0,0,0,8.764-7.875,1.332,1.332,0,0,1,1.313-1.159h26.316a1.332,1.332,0,0,1,1.312,1.159,9.611,9.611,0,0,0,8.764,7.875,1.315,1.315,0,0,1,1.169,1.314v8.482c0,13.884-8.148,26.716-21.379,33.67" transform="translate(-291.854 -263.836)" fill="#f2f876"/>
                <path id="Path_40638" data-name="Path 40638" d="M367.452,333.517l-2.409,1.265a1.315,1.315,0,0,1-1.232,0l-2.411-1.265c-13.231-6.954-21.377-19.786-21.377-33.67v-8.482a1.315,1.315,0,0,1,1.169-1.314,9.611,9.611,0,0,0,8.764-7.875,1.332,1.332,0,0,1,1.313-1.159h26.316a1.332,1.332,0,0,1,1.312,1.159,9.611,9.611,0,0,0,8.764,7.875,1.315,1.315,0,0,1,1.169,1.314v8.482C388.831,313.73,380.683,326.563,367.452,333.517Z" transform="translate(-291.854 -263.836)" fill="none" stroke="#000" stroke-miterlimit="10" stroke-width="1"/>
                <path id="Path_40639" data-name="Path 40639" d="M377.875,290.051a9.609,9.609,0,0,1-8.764-7.875,1.332,1.332,0,0,0-1.314-1.159h-.354c.26,5.726,4.339,9.784,8.752,10.25a1.318,1.318,0,0,1,1.167,1.314v8.482c0,13.885-9.584,26.716-22.814,33.67l-.278.147a1.332,1.332,0,0,0,.987-.1l2.409-1.267c13.229-6.954,21.377-19.786,21.377-33.67v-8.482a1.315,1.315,0,0,0-1.167-1.314" transform="translate(-282.068 -263.836)"/>
                <path id="Path_40640" data-name="Path 40640" d="M361.267,325.692a34.442,34.442,0,0,1-13.106-11.9,29.829,29.829,0,0,1-4.718-15.985v-4.373a1.541,1.541,0,0,1,.972-1.436A13.545,13.545,0,0,0,351.7,285.3a1.539,1.539,0,0,1,1.392-.874h17.973a1.542,1.542,0,0,1,1.393.874A13.541,13.541,0,0,0,379.74,292a1.542,1.542,0,0,1,.973,1.436v4.373a29.816,29.816,0,0,1-4.72,15.985,34.437,34.437,0,0,1-13.1,11.9l-.091.047a1.54,1.54,0,0,1-1.439,0Z" transform="translate(-289.506 -261.49)" fill="#fa391c"/>
                <path id="Path_40641" data-name="Path 40641" d="M361.267,325.692a34.442,34.442,0,0,1-13.106-11.9,29.829,29.829,0,0,1-4.718-15.985v-4.373a1.541,1.541,0,0,1,.972-1.436A13.545,13.545,0,0,0,351.7,285.3a1.539,1.539,0,0,1,1.392-.874h17.973a1.542,1.542,0,0,1,1.393.874A13.541,13.541,0,0,0,379.74,292a1.542,1.542,0,0,1,.973,1.436v4.373a29.816,29.816,0,0,1-4.72,15.985,34.437,34.437,0,0,1-13.1,11.9l-.091.047a1.54,1.54,0,0,1-1.439,0Z" transform="translate(-289.506 -261.49)" fill="none" stroke="#000" stroke-miterlimit="10" stroke-width="1"/>
                <path id="Path_40642" data-name="Path 40642" d="M372.151,292c-.025-.01-.049-.022-.076-.032s-.084-.034-.125-.051c-.071-.029-.143-.059-.214-.091l-.121-.052-.226-.1-.1-.047c-.108-.051-.216-.1-.321-.157l-.025-.014c-.1-.051-.2-.1-.292-.153l-.1-.056c-.069-.039-.14-.078-.209-.118l-.116-.066-.2-.116-.113-.069-.2-.128-.1-.064c-.093-.059-.182-.121-.273-.182l-.02-.013c-.1-.067-.192-.137-.287-.206l-.088-.064-.2-.147c-.034-.027-.067-.054-.1-.079l-.177-.142c-.034-.029-.069-.056-.1-.083l-.179-.152-.089-.076c-.074-.064-.145-.128-.218-.194l-.045-.04c-.084-.078-.169-.157-.251-.238-.025-.024-.047-.047-.073-.071-.059-.057-.116-.116-.175-.175-.03-.03-.061-.061-.088-.091-.054-.054-.1-.108-.155-.164l-.089-.1-.152-.169c-.027-.03-.054-.061-.081-.093-.059-.067-.116-.137-.174-.206-.017-.019-.035-.039-.051-.059-.072-.089-.145-.179-.216-.27-.019-.024-.035-.047-.052-.071-.054-.067-.106-.137-.157-.206-.025-.034-.049-.068-.073-.1-.044-.061-.088-.121-.13-.182-.025-.035-.051-.073-.074-.108-.044-.062-.084-.125-.126-.187-.02-.034-.044-.069-.068-.1l-.135-.216c-.015-.025-.032-.052-.047-.079-.061-.1-.118-.2-.174-.3-.013-.02-.025-.042-.037-.062-.044-.081-.088-.16-.13-.241q-.03-.053-.056-.106c-.037-.068-.071-.135-.1-.2-.02-.039-.037-.078-.057-.116s-.03-.059-.042-.089a1.545,1.545,0,0,0-1.4-.872h-8.985v41.486a1.552,1.552,0,0,0,.72-.177l.091-.047a34.424,34.424,0,0,0,13.1-11.9,29.815,29.815,0,0,0,4.722-15.986v-4.371a1.543,1.543,0,0,0-.973-1.436" transform="translate(-281.918 -261.49)" fill="#fa285c"/>
                <path id="Path_40643" data-name="Path 40643" d="M372.151,292c-.025-.01-.049-.022-.076-.032s-.084-.034-.125-.051c-.071-.029-.143-.059-.214-.091l-.121-.052-.226-.1-.1-.047c-.108-.051-.216-.1-.321-.157l-.025-.014c-.1-.051-.2-.1-.292-.153l-.1-.056c-.069-.039-.14-.078-.209-.118l-.116-.066-.2-.116-.113-.069-.2-.128-.1-.064c-.093-.059-.182-.121-.273-.182l-.02-.013c-.1-.067-.192-.137-.287-.206l-.088-.064-.2-.147c-.034-.027-.067-.054-.1-.079l-.177-.142c-.034-.029-.069-.056-.1-.083l-.179-.152-.089-.076c-.074-.064-.145-.128-.218-.194l-.045-.04c-.084-.078-.169-.157-.251-.238-.025-.024-.047-.047-.073-.071-.059-.057-.116-.116-.175-.175-.03-.03-.061-.061-.088-.091-.054-.054-.1-.108-.155-.164l-.089-.1-.152-.169c-.027-.03-.054-.061-.081-.093-.059-.067-.116-.137-.174-.206-.017-.019-.035-.039-.051-.059-.072-.089-.145-.179-.216-.27-.019-.024-.035-.047-.052-.071-.054-.067-.106-.137-.157-.206-.025-.034-.049-.068-.073-.1-.044-.061-.088-.121-.13-.182-.025-.035-.051-.073-.074-.108-.044-.062-.084-.125-.126-.187-.02-.034-.044-.069-.068-.1l-.135-.216c-.015-.025-.032-.052-.047-.079-.061-.1-.118-.2-.174-.3-.013-.02-.025-.042-.037-.062-.044-.081-.088-.16-.13-.241q-.03-.053-.056-.106c-.037-.068-.071-.135-.1-.2-.02-.039-.037-.078-.057-.116s-.03-.059-.042-.089a1.545,1.545,0,0,0-1.4-.872h-8.985v41.486a1.552,1.552,0,0,0,.72-.177l.091-.047a34.424,34.424,0,0,0,13.1-11.9,29.815,29.815,0,0,0,4.722-15.986v-4.371A1.543,1.543,0,0,0,372.151,292Z" transform="translate(-281.918 -261.49)" fill="none" stroke="#000" stroke-miterlimit="10" stroke-width="1"/>
                <path id="Path_40644" data-name="Path 40644" d="M372.151,292c-.025-.01-.049-.022-.076-.032s-.084-.034-.125-.051c-.071-.029-.143-.059-.214-.091l-.121-.052-.226-.1-.1-.047c-.108-.051-.216-.1-.321-.157l-.025-.014c-.1-.051-.2-.1-.292-.153l-.1-.056c-.069-.039-.14-.078-.209-.118l-.116-.066-.2-.116-.113-.069-.2-.128-.1-.064c-.093-.059-.182-.121-.273-.182l-.02-.013c-.1-.067-.192-.137-.287-.206l-.088-.064-.2-.147c-.034-.027-.067-.054-.1-.079l-.177-.142c-.034-.029-.069-.056-.1-.083l-.179-.152-.089-.076c-.074-.064-.145-.128-.218-.194l-.045-.04c-.084-.078-.169-.157-.251-.238-.025-.024-.047-.047-.073-.071-.059-.057-.116-.116-.175-.175-.03-.03-.061-.061-.088-.091-.054-.054-.1-.108-.155-.164l-.089-.1-.152-.169c-.027-.03-.054-.061-.081-.093-.059-.067-.116-.137-.174-.206-.017-.019-.035-.039-.051-.059-.072-.089-.145-.179-.216-.27-.019-.024-.035-.047-.052-.071-.054-.067-.106-.137-.157-.206-.025-.034-.049-.068-.073-.1-.044-.061-.088-.121-.13-.182-.025-.035-.051-.073-.074-.108-.044-.062-.084-.125-.126-.187-.02-.034-.044-.069-.068-.1l-.135-.216c-.015-.025-.032-.052-.047-.079-.061-.1-.118-.2-.174-.3-.013-.02-.025-.042-.037-.062-.044-.081-.088-.16-.13-.241q-.03-.053-.056-.106c-.037-.068-.071-.135-.1-.2-.02-.039-.037-.078-.057-.116s-.03-.059-.042-.089a1.545,1.545,0,0,0-1.4-.872h-1.051a13.5,13.5,0,0,1,1.095,1.648.906.906,0,0,1,.042.089c.02.039.04.078.057.116l.1.2c.018.035.035.073.056.108.044.079.088.16.132.238l.035.066c.056.1.115.2.174.3l.051.081c.042.071.088.143.133.214l.069.1c.041.061.083.123.123.186.025.037.049.073.074.108.042.063.088.123.132.184l.072.1c.051.069.1.138.155.207.019.022.035.045.054.069.071.091.142.181.216.27l.049.061c.057.068.116.137.175.2.025.03.052.062.081.093.049.056.1.113.15.169l.09.1c.05.056.1.11.155.164l.089.091c.057.059.116.118.175.175l.071.071c.083.081.169.16.255.238a.52.52,0,0,0,.044.041c.071.066.144.13.216.192.029.027.061.052.091.079l.177.15c.035.027.067.056.1.083l.175.142.1.079c.062.051.128.1.192.147l.089.066c.093.069.189.137.287.2l.019.014.273.184.1.063c.066.044.133.086.2.128l.113.067c.066.04.132.079.2.118l.115.066c.069.04.14.079.211.118.034.019.068.039.1.056.1.052.194.1.292.154l.024.013c.108.052.214.106.322.157.034.017.069.03.1.047l.226.1.123.052q.106.048.213.091l.127.052.076.03a1.543,1.543,0,0,1,.972,1.437v4.369a29.825,29.825,0,0,1-4.718,15.986c-2.741,4.315-8,8.43-12.566,11.309v.041a1.552,1.552,0,0,0,.72-.177l.091-.047a34.424,34.424,0,0,0,13.1-11.9,29.815,29.815,0,0,0,4.722-15.986v-4.371a1.543,1.543,0,0,0-.973-1.436" transform="translate(-281.918 -261.49)"/>
              </g>
            </g>
          </g>
        </g>
      </g>
    </g>
    <g id="Artwork_27" data-name="Artwork 27" transform="translate(13136.678 15203.074)">
      <g id="Group_17550" data-name="Group 17550" transform="translate(-93.393 -103.02)" clip-path="url(#clip-path-5)">
        <path id="Path_102490" data-name="Path 102490" d="M104.191,198.781l-9.1,4.789a5.029,5.029,0,0,1-4.55,0l-9.1-4.789C31.152,172.44.5,124.067.5,71.623V39.534A5.029,5.029,0,0,1,4.811,34.5C22.052,32.829,35.942,20.376,38.1,4.811A5.029,5.029,0,0,1,42.886.5h99.38a5.029,5.029,0,0,1,5.029,4.31C149.451,20.376,163.1,32.829,180.342,34.5a5.029,5.029,0,0,1,4.31,5.029V71.623c0,52.444-30.652,100.817-80.7,127.159" transform="translate(0.697 0.697)" fill="#8e24fa"/>
        <path id="Path_102491" data-name="Path 102491" d="M104.191,198.781l-9.1,4.789a5.029,5.029,0,0,1-4.55,0l-9.1-4.789C31.152,172.44.5,124.067.5,71.623V39.534A5.029,5.029,0,0,1,4.811,34.5C22.052,32.829,35.942,20.376,38.1,4.811A5.029,5.029,0,0,1,42.886.5h99.38a5.029,5.029,0,0,1,5.029,4.31C149.451,20.376,163.1,32.829,180.342,34.5a5.029,5.029,0,0,1,4.31,5.029V71.623C184.892,124.067,154,172.44,104.191,198.781Z" transform="translate(0.697 0.697)" fill="none" stroke="#000" stroke-miterlimit="10" stroke-width="2.395"/>
        <path id="Path_102492" data-name="Path 102492" d="M127.483,34.5C110.241,32.829,96.591,20.376,94.436,4.811A5.029,5.029,0,0,0,89.407.5H82.7c.958,21.552,16.284,36.878,33.047,38.794a5.029,5.029,0,0,1,4.31,5.029v31.85c0,52.444-30.652,100.817-80.7,127.159l-.958.479a5.029,5.029,0,0,0,3.832-.479l9.1-4.789c50.049-26.342,80.7-74.715,80.7-127.159V39.534a5.029,5.029,0,0,0-4.31-5.029" transform="translate(53.557 0.697)"/>
        <path id="Path_102493" data-name="Path 102493" d="M80.836,177.761a143.2,143.2,0,0,1-54.6-49.331A124.046,124.046,0,0,1,6.6,61.857v-18.2a6.466,6.466,0,0,1,4.071-5.987A56.275,56.275,0,0,0,41.084,9.892,6.466,6.466,0,0,1,46.831,6.3h74.715a6.466,6.466,0,0,1,5.747,3.592,56.275,56.275,0,0,0,30.413,27.779,6.466,6.466,0,0,1,4.071,5.987v18.2A124.045,124.045,0,0,1,142.14,128.43a143.2,143.2,0,0,1-54.6,49.331h-.479a6.466,6.466,0,0,1-5.987,0Z" transform="translate(9.205 8.787)" fill="#ff3c1d"/>
        <path id="Path_102494" data-name="Path 102494" d="M80.836,177.761a143.2,143.2,0,0,1-54.6-49.331A124.046,124.046,0,0,1,6.6,61.857v-18.2a6.466,6.466,0,0,1,4.071-5.987A56.275,56.275,0,0,0,41.084,9.892,6.466,6.466,0,0,1,46.831,6.3h74.715a6.466,6.466,0,0,1,5.747,3.592,56.275,56.275,0,0,0,30.413,27.779,6.466,6.466,0,0,1,4.071,5.987v18.2A124.045,124.045,0,0,1,142.14,128.43a143.2,143.2,0,0,1-54.6,49.331h-.479a6.466,6.466,0,0,1-5.987,0Z" transform="translate(9.205 8.787)" fill="none" stroke="#000" stroke-miterlimit="10" stroke-width="2.395"/>
        <path id="Path_102495" data-name="Path 102495" d="M112.517,37.671h-.958l-.958-.479h-.479l-.958-.479h-.479l-1.437-.718h0l-1.2-.718h-.479l-.958-.479h-.479l-.718-.479h-.479l-.958-.479H101.5l-1.2-.718h0l-1.2-.958h-.479l-.718-.718h-.479l-.718-.479h-.479l-.718-.718h-.479l-.958-.718h-.239l-.958-.958h-.239l-.718-.718-.479-.479-.718-.718-.479-.479-.718-.718v-.479l-.718-.958H88.57l-.958-1.2h-.239l-.718-.958v-.479l-.479-.718v-.479l-.479-.718v-.479l-.479-.958h-.239l-.718-1.2H84.02l-.479-.958v-4.31l-.479-.958V9.892A6.466,6.466,0,0,0,77.315,6.3H39V178.718A6.466,6.466,0,0,0,42.113,178h.479a143.2,143.2,0,0,0,54.36-49.57,124.046,124.046,0,0,0,19.637-66.573v-18.2a6.466,6.466,0,0,0-4.071-5.987" transform="translate(54.393 8.787)" fill="#ff0d5b"/>
        <path id="Path_102496" data-name="Path 102496" d="M112.517,37.671h-.958l-.958-.479h-.479l-.958-.479h-.479l-1.437-.718h0l-1.2-.718h-.479l-.958-.479h-.479l-.718-.479h-.479l-.958-.479H101.5l-1.2-.718h0l-1.2-.958h-.479l-.718-.718h-.479l-.718-.479h-.479l-.718-.718h-.479l-.958-.718h-.239l-.958-.958h-.239l-.718-.718-.479-.479-.718-.718-.479-.479-.718-.718v-.479l-.718-.958H88.57l-.958-1.2h-.239l-.718-.958v-.479l-.479-.718v-.479l-.479-.718v-.479l-.479-.958h-.239l-.718-1.2H84.02l-.479-.958v-4.31l-.479-.958V9.892A6.466,6.466,0,0,0,77.315,6.3H39V178.718A6.466,6.466,0,0,0,42.113,178h.479a143.2,143.2,0,0,0,54.36-49.57,124.046,124.046,0,0,0,19.637-66.573v-18.2A6.466,6.466,0,0,0,112.517,37.671Z" transform="translate(54.393 8.787)" fill="none" stroke="#000" stroke-miterlimit="10" stroke-width="2.395"/>
        <path id="Path_102497" data-name="Path 102497" d="M112.517,37.671h-.958l-.958-.479h-.479l-.958-.479h-.479l-1.437-.718h0l-1.2-.718h-.479l-.958-.479h-.479l-.718-.479h-.479l-.958-.479H101.5l-1.2-.718h0l-1.2-.958h-.479l-.718-.718h-.479l-.718-.479h-.479l-.718-.718h-.479l-.958-.718h-.239l-.958-.958h-.239l-.718-.718-.479-.479-.718-.718-.479-.479-.718-.718v-.479l-.718-.958H88.57l-.958-1.2h-.239l-.718-.958v-.479l-.479-.718v-.479l-.479-.718v-.479l-.479-.958h-.239l-.718-1.2H84.02l-.479-.958v-4.31l-.479-.958V9.892A6.466,6.466,0,0,0,77.315,6.3H66.06a57.473,57.473,0,0,1,4.55,6.945V14.2l.479.958h0l.479.958h.239l.718,1.2h.239l.479.958v.479l.479.718v.479l.479.718v.479l.718.958h.239l.958,1.2h.239l.718.958v.479l.718.718.479.479.718.718.479.479.718.718h.239l.958.958h.239l.958.718h.479l.718.718h.479l.718.479h.479l.718.718h.479l1.2.958h0l1.2.718h.479l.958.479h.479l.718.479h.479l.958.479H93.6l1.2.718h0l1.437.718h.479l.958.479h.479l.958.479h.718a6.466,6.466,0,0,1,4.071,5.987v18.2A124.045,124.045,0,0,1,84.26,127.711,152.782,152.782,0,0,1,39,178.718h0A6.466,6.466,0,0,0,42.113,178h.479a143.2,143.2,0,0,0,54.36-49.57,124.046,124.046,0,0,0,19.637-66.573v-18.2a6.466,6.466,0,0,0-4.071-5.987" transform="translate(54.393 8.787)"/>
        <path id="Path_102498" data-name="Path 102498" d="M80.444,60.636H28V39.8a26.1,26.1,0,1,1,52.2,0Z" transform="translate(39.052 19.107)" fill="none" stroke="#000" stroke-miterlimit="10" stroke-width="9.579"/>
        <path id="Path_102499" data-name="Path 102499" d="M96.815,87.4H28.566A6.466,6.466,0,0,1,22.1,80.931V38.066A6.466,6.466,0,0,1,28.566,31.6H96.815a6.466,6.466,0,0,1,6.466,6.466V80.691a6.466,6.466,0,0,1-6.466,6.466" transform="translate(30.823 44.073)" fill="#fdfb76"/>
        <rect id="Rectangle_137351" data-name="Rectangle 137351" width="81.18" height="55.725" rx="6.466" transform="translate(52.923 75.673)" fill="none" stroke="#000" stroke-miterlimit="10" stroke-width="2.395"/>
        <path id="Path_102500" data-name="Path 102500" d="M60.274,31.6H48.3a6.466,6.466,0,0,1,6.466,6.466V80.691A6.466,6.466,0,0,1,48.3,87.157H60.034a6.466,6.466,0,0,0,6.705-6.466V38.066A6.466,6.466,0,0,0,60.274,31.6" transform="translate(67.364 44.073)"/>
        <path id="Path_102501" data-name="Path 102501" d="M60.274,31.6H48.3a6.466,6.466,0,0,1,6.466,6.466V80.691A6.466,6.466,0,0,1,48.3,87.157H60.034a6.466,6.466,0,0,0,6.705-6.466V38.066A6.466,6.466,0,0,0,60.274,31.6Z" transform="translate(67.364 44.073)" fill="none" stroke="#000" stroke-miterlimit="10" stroke-width="2.395"/>
        <path id="Path_102502" data-name="Path 102502" d="M40.1,52.194v8.381a2.993,2.993,0,0,0,5.987,0V52.194a6.945,6.945,0,1,0-5.987,0" transform="translate(50.418 54.37)"/>
        <path id="Path_102503" data-name="Path 102503" d="M40.1,52.194v8.381a2.993,2.993,0,0,0,5.987,0V52.194a6.945,6.945,0,1,0-5.987,0Z" transform="translate(50.418 54.37)" fill="none" stroke="#000" stroke-miterlimit="10" stroke-width="2.395"/>
      </g>
    </g>
  </g>
</svg>
