<svg xmlns="http://www.w3.org/2000/svg" xmlns:xlink="http://www.w3.org/1999/xlink" width="60.396" height="66.621" viewBox="0 0 60.396 66.621">
  <defs>
    <clipPath id="clip-path">
      <rect id="Rectangle_133613" data-name="Rectangle 133613" width="60.396" height="66.621" fill="none"/>
    </clipPath>
  </defs>
  <g id="Artwork_27" data-name="Artwork 27" transform="translate(30.198 33.311)">
    <g id="Group_13941" data-name="Group 13941" transform="translate(-30.198 -33.311)" clip-path="url(#clip-path)">
      <path id="Path_73370" data-name="Path 73370" d="M34.027,64.612l-2.942,1.549a1.626,1.626,0,0,1-1.471,0l-2.942-1.549C10.411,56.095.5,40.454.5,23.5V13.121A1.626,1.626,0,0,1,1.894,11.5c5.575-.542,10.066-4.568,10.763-9.6A1.626,1.626,0,0,1,14.205.5H46.339a1.626,1.626,0,0,1,1.626,1.394c.7,5.033,5.11,9.059,10.685,9.6a1.626,1.626,0,0,1,1.394,1.626V23.5c0,16.957-9.911,32.6-26.094,41.116" transform="translate(-0.113 -0.113)" fill="#00db96"/>
      <path id="Path_73371" data-name="Path 73371" d="M34.027,64.612l-2.942,1.549a1.626,1.626,0,0,1-1.471,0l-2.942-1.549C10.411,56.095.5,40.454.5,23.5V13.121A1.626,1.626,0,0,1,1.894,11.5c5.575-.542,10.066-4.568,10.763-9.6A1.626,1.626,0,0,1,14.205.5H46.339a1.626,1.626,0,0,1,1.626,1.394c.7,5.033,5.11,9.059,10.685,9.6a1.626,1.626,0,0,1,1.394,1.626V23.5C60.121,40.454,50.133,56.095,34.027,64.612Z" transform="translate(-0.113 -0.113)" fill="none" stroke="#000" stroke-miterlimit="10" stroke-width="0.774"/>
      <path id="Path_73372" data-name="Path 73372" d="M67.2,11.5c-5.575-.542-9.989-4.568-10.685-9.6A1.626,1.626,0,0,0,54.893.5H52.725c.31,6.969,5.265,11.924,10.685,12.544A1.626,1.626,0,0,1,64.8,14.67v10.3c0,16.957-9.911,32.6-26.094,41.116l-.31.155a1.626,1.626,0,0,0,1.239-.155l2.942-1.549c16.183-8.517,26.094-24.158,26.094-41.116v-10.3A1.626,1.626,0,0,0,67.282,11.5" transform="translate(-8.667 -0.113)"/>
      <path id="Path_73373" data-name="Path 73373" d="M30.6,61.74A46.3,46.3,0,0,1,12.949,45.789,40.109,40.109,0,0,1,6.6,24.264V18.379a2.091,2.091,0,0,1,1.316-1.936A18.2,18.2,0,0,0,17.75,7.461,2.091,2.091,0,0,1,19.608,6.3H43.767a2.091,2.091,0,0,1,1.858,1.161,18.2,18.2,0,0,0,9.834,8.982,2.091,2.091,0,0,1,1.316,1.936v5.885a40.109,40.109,0,0,1-6.349,21.526A46.3,46.3,0,0,1,32.771,61.74h-.155a2.091,2.091,0,0,1-1.936,0Z" transform="translate(-1.49 -1.422)" fill="#ff3c1d"/>
      <path id="Path_73374" data-name="Path 73374" d="M30.6,61.74A46.3,46.3,0,0,1,12.949,45.789,40.109,40.109,0,0,1,6.6,24.264V18.379a2.091,2.091,0,0,1,1.316-1.936A18.2,18.2,0,0,0,17.75,7.461,2.091,2.091,0,0,1,19.608,6.3H43.767a2.091,2.091,0,0,1,1.858,1.161,18.2,18.2,0,0,0,9.834,8.982,2.091,2.091,0,0,1,1.316,1.936v5.885a40.109,40.109,0,0,1-6.349,21.526A46.3,46.3,0,0,1,32.771,61.74h-.155a2.091,2.091,0,0,1-1.936,0Z" transform="translate(-1.49 -1.422)" fill="none" stroke="#000" stroke-miterlimit="10" stroke-width="0.774"/>
      <path id="Path_73375" data-name="Path 73375" d="M62.771,16.443h-.31l-.31-.155H62l-.31-.155h-.155l-.465-.232h0l-.387-.232h-.155l-.31-.155h-.155l-.232-.155h-.155l-.31-.155h-.155l-.387-.232h0l-.387-.31H58.28l-.232-.232h-.155l-.232-.155h-.155l-.232-.232h-.155l-.31-.232h-.077l-.31-.31h-.077l-.232-.232-.155-.155-.232-.232-.155-.155-.232-.232V12.34l-.232-.31h-.077l-.31-.387h-.077l-.232-.31v-.155l-.155-.232v-.155l-.155-.232V10.4l-.155-.31h-.077l-.232-.387h-.077L53.4,9.4V8l-.155-.31V7.461A2.091,2.091,0,0,0,51.389,6.3H39V62.05a2.091,2.091,0,0,0,1.007-.232h.155A46.3,46.3,0,0,0,57.738,45.789a40.109,40.109,0,0,0,6.349-21.526V18.379a2.091,2.091,0,0,0-1.316-1.936" transform="translate(-8.802 -1.422)" fill="#ff0d5b"/>
      <path id="Path_73376" data-name="Path 73376" d="M62.771,16.443h-.31l-.31-.155H62l-.31-.155h-.155l-.465-.232h0l-.387-.232h-.155l-.31-.155h-.155l-.232-.155h-.155l-.31-.155h-.155l-.387-.232h0l-.387-.31H58.28l-.232-.232h-.155l-.232-.155h-.155l-.232-.232h-.155l-.31-.232h-.077l-.31-.31h-.077l-.232-.232-.155-.155-.232-.232-.155-.155-.232-.232V12.34l-.232-.31h-.077l-.31-.387h-.077l-.232-.31v-.155l-.155-.232v-.155l-.155-.232V10.4l-.155-.31h-.077l-.232-.387h-.077L53.4,9.4V8l-.155-.31V7.461A2.091,2.091,0,0,0,51.389,6.3H39V62.05a2.091,2.091,0,0,0,1.007-.232h.155A46.3,46.3,0,0,0,57.738,45.789a40.109,40.109,0,0,0,6.349-21.526V18.379A2.091,2.091,0,0,0,62.771,16.443Z" transform="translate(-8.802 -1.422)" fill="none" stroke="#000" stroke-miterlimit="10" stroke-width="0.774"/>
      <path id="Path_73377" data-name="Path 73377" d="M62.771,16.443h-.31l-.31-.155H62l-.31-.155h-.155l-.465-.232h0l-.387-.232h-.155l-.31-.155h-.155l-.232-.155h-.155l-.31-.155h-.155l-.387-.232h0l-.387-.31H58.28l-.232-.232h-.155l-.232-.155h-.155l-.232-.232h-.155l-.31-.232h-.077l-.31-.31h-.077l-.232-.232-.155-.155-.232-.232-.155-.155-.232-.232V12.34l-.232-.31h-.077l-.31-.387h-.077l-.232-.31v-.155l-.155-.232v-.155l-.155-.232V10.4l-.155-.31h-.077l-.232-.387h-.077L53.4,9.4V8l-.155-.31V7.461A2.091,2.091,0,0,0,51.389,6.3H47.75a18.583,18.583,0,0,1,1.471,2.245v.31l.155.31h0l.155.31h.077l.232.387h.077l.155.31v.155l.155.232v.155l.155.232V11.1l.232.31h.077L51,11.8h.077l.232.31v.155l.232.232.155.155.232.232.155.155.232.232H52.4l.31.31h.077l.31.232h.155l.232.232h.155l.232.155h.155l.232.232h.155l.387.31h0l.387.232h.155l.31.155H55.8l.232.155h.155l.31.155h.155l.387.232h0l.465.232h.155l.31.155h.155l.31.155h.232a2.091,2.091,0,0,1,1.316,1.936v5.885a40.109,40.109,0,0,1-6.349,21.526A49.4,49.4,0,0,1,39,62.05h0a2.091,2.091,0,0,0,1.007-.232h.155A46.3,46.3,0,0,0,57.738,45.789a40.109,40.109,0,0,0,6.349-21.526V18.379a2.091,2.091,0,0,0-1.316-1.936" transform="translate(-8.802 -1.422)"/>
      <path id="Path_73378" data-name="Path 73378" d="M44.957,28.876H28V22.14a8.44,8.44,0,1,1,16.88,0Z" transform="translate(-6.32 -3.092)" fill="none" stroke="#000" stroke-miterlimit="10" stroke-width="3.097"/>
      <path id="Path_73379" data-name="Path 73379" d="M46.258,49.641H24.191A2.091,2.091,0,0,1,22.1,47.551V33.691A2.091,2.091,0,0,1,24.191,31.6H46.258a2.091,2.091,0,0,1,2.091,2.091V47.473a2.091,2.091,0,0,1-2.091,2.091" transform="translate(-4.988 -7.132)" fill="#fdfb76"/>
      <rect id="Rectangle_133612" data-name="Rectangle 133612" width="26.249" height="18.018" rx="2.091" transform="translate(17.112 24.468)" fill="none" stroke="#000" stroke-miterlimit="10" stroke-width="0.774"/>
      <path id="Path_73380" data-name="Path 73380" d="M52.172,31.6H48.3a2.091,2.091,0,0,1,2.091,2.091V47.473A2.091,2.091,0,0,1,48.3,49.564h3.794a2.091,2.091,0,0,0,2.168-2.091V33.691A2.091,2.091,0,0,0,52.172,31.6" transform="translate(-10.901 -7.132)"/>
      <path id="Path_73381" data-name="Path 73381" d="M52.172,31.6H48.3a2.091,2.091,0,0,1,2.091,2.091V47.473A2.091,2.091,0,0,1,48.3,49.564h3.794a2.091,2.091,0,0,0,2.168-2.091V33.691A2.091,2.091,0,0,0,52.172,31.6Z" transform="translate(-10.901 -7.132)" fill="none" stroke="#000" stroke-miterlimit="10" stroke-width="0.774"/>
      <path id="Path_73382" data-name="Path 73382" d="M37.428,43.255v2.71a.968.968,0,0,0,1.936,0v-2.71a2.245,2.245,0,1,0-1.936,0" transform="translate(-8.159 -8.798)"/>
      <path id="Path_73383" data-name="Path 73383" d="M37.428,43.255v2.71a.968.968,0,0,0,1.936,0v-2.71a2.245,2.245,0,1,0-1.936,0Z" transform="translate(-8.159 -8.798)" fill="none" stroke="#000" stroke-miterlimit="10" stroke-width="0.774"/>
    </g>
  </g>
</svg>
