<svg xmlns="http://www.w3.org/2000/svg" xmlns:xlink="http://www.w3.org/1999/xlink" width="73.779" height="49.492" viewBox="0 0 73.779 49.492">
  <defs>
    <clipPath id="clip-path">
      <rect id="Rectangle_133611" data-name="Rectangle 133611" width="73.779" height="49.492" fill="none"/>
    </clipPath>
  </defs>
  <g id="Artwork_26" data-name="Artwork 26" transform="translate(36.89 24.746)">
    <g id="Group_13940" data-name="Group 13940" transform="translate(-36.889 -24.746)" clip-path="url(#clip-path)">
      <path id="Path_73352" data-name="Path 73352" d="M72,50.149a7.635,7.635,0,0,1-5.834,2.745H8.434A7.635,7.635,0,0,1,2.6,50.149L30.4,26.9l2.917,1.973a6.949,6.949,0,0,0,7.893,0L44.122,26.9Z" transform="translate(-0.369 -3.823)" fill="#ff0d5b"/>
      <path id="Path_73353" data-name="Path 73353" d="M72,50.149a7.635,7.635,0,0,1-5.834,2.745H8.434A7.635,7.635,0,0,1,2.6,50.149L30.4,26.9l2.917,1.973a6.949,6.949,0,0,0,7.893,0L44.122,26.9Z" transform="translate(-0.369 -3.823)" fill="none" stroke="#000" stroke-miterlimit="10" stroke-width="0.858"/>
      <path id="Path_73354" data-name="Path 73354" d="M72.362,3.846l-28.311,19.3-2.917,1.973a6.949,6.949,0,0,1-7.893,0l-2.917-1.973L2.1,3.76A7.635,7.635,0,0,1,8.363.5H66.1a7.464,7.464,0,0,1,6.263,3.346" transform="translate(-0.298 -0.071)" fill="#ff3c1d"/>
      <path id="Path_73355" data-name="Path 73355" d="M72.362,3.846l-28.311,19.3-2.917,1.973a6.949,6.949,0,0,1-7.893,0l-2.917-1.973L2.1,3.76A7.635,7.635,0,0,1,8.363.5H66.1A7.464,7.464,0,0,1,72.362,3.846Z" transform="translate(-0.298 -0.071)" fill="none" stroke="#000" stroke-miterlimit="10" stroke-width="0.858"/>
      <path id="Path_73356" data-name="Path 73356" d="M30.1,23.7,2.3,46.952a7.549,7.549,0,0,1-1.8-4.89V8.689A7.464,7.464,0,0,1,1.873,4.4Z" transform="translate(-0.071 -0.625)" fill="#fdfb76"/>
      <path id="Path_73357" data-name="Path 73357" d="M30.1,23.7,2.3,46.952a7.549,7.549,0,0,1-1.8-4.89V8.689A7.464,7.464,0,0,1,1.873,4.4Z" transform="translate(-0.071 -0.625)" fill="none" stroke="#000" stroke-miterlimit="10" stroke-width="0.858"/>
      <path id="Path_73358" data-name="Path 73358" d="M80.6,8.689V42.147a7.549,7.549,0,0,1-1.716,4.8L51,23.7,79.311,4.4a7.464,7.464,0,0,1,1.373,4.289" transform="translate(-7.247 -0.625)" fill="#fdfb76"/>
      <path id="Path_73359" data-name="Path 73359" d="M80.6,8.689V42.147a7.549,7.549,0,0,1-1.716,4.8L51,23.7,79.311,4.4A7.464,7.464,0,0,1,80.6,8.689Z" transform="translate(-7.247 -0.625)" fill="none" stroke="#000" stroke-miterlimit="10" stroke-width="0.858"/>
      <path id="Path_73360" data-name="Path 73360" d="M30.1,23.7,2.3,46.952a7.549,7.549,0,0,1-1.8-4.89V8.689A7.464,7.464,0,0,1,1.873,4.4Z" transform="translate(-0.071 -0.625)" fill="#fdfb76"/>
      <path id="Path_73361" data-name="Path 73361" d="M30.1,23.7,2.3,46.952a7.549,7.549,0,0,1-1.8-4.89V8.689A7.464,7.464,0,0,1,1.873,4.4Z" transform="translate(-0.071 -0.625)" fill="none" stroke="#000" stroke-miterlimit="10" stroke-width="0.858"/>
      <path id="Path_73362" data-name="Path 73362" d="M80.6,8.689V42.147a7.549,7.549,0,0,1-1.716,4.8L51,23.7,79.311,4.4a7.464,7.464,0,0,1,1.373,4.289" transform="translate(-7.247 -0.625)" fill="#fdfb76"/>
      <path id="Path_73363" data-name="Path 73363" d="M80.6,8.689V42.147a7.549,7.549,0,0,1-1.716,4.8L51,23.7,79.311,4.4A7.464,7.464,0,0,1,80.6,8.689Z" transform="translate(-7.247 -0.625)" fill="none" stroke="#000" stroke-miterlimit="10" stroke-width="0.858"/>
      <path id="Path_73364" data-name="Path 73364" d="M80.4,4.846V5.876L83.318,3.9A7.464,7.464,0,0,0,79.2.9a7.464,7.464,0,0,1,1.2,4.032" transform="translate(-11.255 -0.128)"/>
      <path id="Path_73365" data-name="Path 73365" d="M80.4,4.846V5.876L83.318,3.9A7.464,7.464,0,0,0,79.2.9a7.464,7.464,0,0,1,1.2,3.946Z" transform="translate(-11.255 -0.128)" fill="none" stroke="#000" stroke-miterlimit="10" stroke-width="0.858"/>
      <path id="Path_73366" data-name="Path 73366" d="M44.122,26.9h-.172L67.714,46.889a7.635,7.635,0,0,1-5.834,2.745H3.286l-.686.6A7.635,7.635,0,0,0,8.434,52.98H66.17A7.635,7.635,0,0,0,72,50.149Z" transform="translate(-0.369 -3.823)"/>
      <path id="Path_73367" data-name="Path 73367" d="M44.122,26.9h-.172L67.714,46.889a7.635,7.635,0,0,1-5.834,2.745H3.286l-.686.6A7.635,7.635,0,0,0,8.434,52.98H66.17A7.635,7.635,0,0,0,72,50.149Z" transform="translate(-0.369 -3.823)" fill="none" stroke="#000" stroke-miterlimit="10" stroke-width="0.858"/>
      <path id="Path_73368" data-name="Path 73368" d="M83.247,4.4,80.33,6.373V38.8A7.549,7.549,0,0,1,78.7,43.52l4.118,3.432a7.549,7.549,0,0,0,1.8-4.89V8.689A7.464,7.464,0,0,0,83.247,4.4" transform="translate(-11.184 -0.625)"/>
      <path id="Path_73369" data-name="Path 73369" d="M83.247,4.4,80.33,6.373V38.8A7.549,7.549,0,0,1,78.7,43.52l4.118,3.432a7.549,7.549,0,0,0,1.8-4.89V8.689A7.464,7.464,0,0,0,83.247,4.4Z" transform="translate(-11.184 -0.625)" fill="none" stroke="#000" stroke-miterlimit="10" stroke-width="0.858"/>
    </g>
  </g>
</svg>
